<svg viewBox="0 0 16 16" fill="none" xmlns="http://www.w3.org/2000/svg">
<path d="M2.76844 6.57815C2.53547 6.42989 2.22642 6.49857 2.07817 6.73154C1.92992 6.96451 1.99859 7.27355 2.23156 7.42181L8.00385 11.0951L13.62 7.4183C13.8511 7.26705 13.9157 6.95714 13.7645 6.72611C13.6132 6.49507 13.3033 6.4304 13.0723 6.58165L7.99615 9.90487L2.76844 6.57815Z" fill="#0E1011"/>
<path fill-rule="evenodd" clip-rule="evenodd" d="M8.58824 0.747035C8.22059 0.550956 7.77941 0.550956 7.41177 0.747034L1.32353 3.99409C0.508871 4.42858 0 5.2767 0 6.19998L0 12.5C0 13.8807 1.11929 15 2.5 15H13.5C14.8807 15 16 13.8807 16 12.5V6.19998C16 5.2767 15.4911 4.42858 14.6765 3.99409L8.58824 0.747035ZM7.88235 1.62939C7.95588 1.59017 8.04412 1.59017 8.11765 1.62939L14.2059 4.87645C14.6947 5.13714 15 5.64601 15 6.19998V12.5C15 13.3284 14.3284 14 13.5 14H2.5C1.67157 14 1 13.3284 1 12.5V6.19998C1 5.64601 1.30532 5.13714 1.79412 4.87645L7.88235 1.62939Z" fill="#0E1011"/>
</svg>
