<svg viewBox="0 0 12 12" fill="none" xmlns="http://www.w3.org/2000/svg">
<path fill-rule="evenodd" clip-rule="evenodd" d="M8.5 6C9.75361 6 10.7917 5.07729 10.9722 3.87398C10.9814 3.87465 10.9907 3.875 11 3.875H11.5C11.7071 3.875 11.875 3.70711 11.875 3.5C11.875 3.29289 11.7071 3.125 11.5 3.125H11C10.9907 3.125 10.9814 3.12535 10.9722 3.12602C10.7917 1.92271 9.75361 1 8.5 1C7.11929 1 6 2.11929 6 3.5C6 4.88071 7.11929 6 8.5 6ZM10.25 3.5C10.25 4.4665 9.4665 5.25 8.5 5.25C7.5335 5.25 6.75 4.4665 6.75 3.5C6.75 2.5335 7.5335 1.75 8.5 1.75C9.4665 1.75 10.25 2.5335 10.25 3.5Z" fill="#0E1011"/>
<path fill-rule="evenodd" clip-rule="evenodd" d="M1.02779 8.87399C1.20829 10.0773 2.24639 11 3.5 11C4.88071 11 6 9.88071 6 8.5C6 7.11929 4.88071 6 3.5 6C2.24639 6 1.20829 6.9227 1.02779 8.12601C1.01861 8.12534 1.00935 8.125 1 8.125H0.5C0.292893 8.125 0.125 8.29289 0.125 8.5C0.125 8.70711 0.292893 8.875 0.5 8.875H1C1.00935 8.875 1.01861 8.87466 1.02779 8.87399ZM1.75 8.5C1.75 9.4665 2.5335 10.25 3.5 10.25C4.4665 10.25 5.25 9.4665 5.25 8.5C5.25 7.5335 4.4665 6.75 3.5 6.75C2.5335 6.75 1.75 7.5335 1.75 8.5Z" fill="#0E1011"/>
<path d="M0.125 3.5C0.125 3.29289 0.292893 3.125 0.5 3.125H5C5.20711 3.125 5.375 3.29289 5.375 3.5C5.375 3.70711 5.20711 3.875 5 3.875H0.5C0.292893 3.875 0.125 3.70711 0.125 3.5Z" fill="#0E1011"/>
<path d="M11.5 8.125C11.7071 8.125 11.875 8.29289 11.875 8.5C11.875 8.70711 11.7071 8.875 11.5 8.875H7C6.79289 8.875 6.625 8.70711 6.625 8.5C6.625 8.29289 6.79289 8.125 7 8.125H11.5Z" fill="#0E1011"/>
</svg>
