<svg viewBox="0 0 16 16" fill="none" xmlns="http://www.w3.org/2000/svg">
<path fill-rule="evenodd" clip-rule="evenodd" d="M8 0C5.23858 0 3 2.23858 3 5C3 6.63343 3.78326 8.08391 4.99468 8.99636L4.00581 15.424C3.97663 15.6137 4.05861 15.8033 4.21679 15.9121C4.37497 16.0208 4.58142 16.0293 4.74807 15.9341L8 14.0759L11.2519 15.9341C11.4186 16.0293 11.625 16.0208 11.7832 15.9121C11.9414 15.8033 12.0234 15.6137 11.9942 15.424L11.0053 8.99636C12.2167 8.08391 13 6.63343 13 5C13 2.23858 10.7614 0 8 0ZM4 5C4 2.79086 5.79086 1 8 1C10.2091 1 12 2.79086 12 5C12 7.20914 10.2091 9 8 9C5.79086 9 4 7.20914 4 5ZM10.0786 9.54882C9.44557 9.83853 8.74164 10 8 10C7.25836 10 6.55443 9.83853 5.92145 9.54882L5.15178 14.5517L7.75193 13.0659C7.90565 12.978 8.09435 12.978 8.24807 13.0659L10.8482 14.5517L10.0786 9.54882Z" fill="#0E1011"/>
</svg>
