<svg viewBox="0 0 12 12" fill="none" xmlns="http://www.w3.org/2000/svg">
<path fill-rule="evenodd" clip-rule="evenodd" d="M6 8.14286C7.18347 8.14286 8.14286 7.18347 8.14286 6C8.14286 4.81653 7.18347 3.85714 6 3.85714C4.81653 3.85714 3.85714 4.81653 3.85714 6C3.85714 7.18347 4.81653 8.14286 6 8.14286ZM6 7.60714C6.8876 7.60714 7.60714 6.8876 7.60714 6C7.60714 5.1124 6.8876 4.39286 6 4.39286C5.1124 4.39286 4.39286 5.1124 4.39286 6C4.39286 6.8876 5.1124 7.60714 6 7.60714Z" fill="#0E1011"/>
<path d="M8.67857 3.85714C8.97444 3.85714 9.21429 3.6173 9.21429 3.32143C9.21429 3.02556 8.97444 2.78571 8.67857 2.78571C8.38271 2.78571 8.14286 3.02556 8.14286 3.32143C8.14286 3.6173 8.38271 3.85714 8.67857 3.85714Z" fill="#0E1011"/>
<path fill-rule="evenodd" clip-rule="evenodd" d="M3.5 1C2.11929 1 1 2.11929 1 3.5V8.5C1 9.88071 2.11929 11 3.5 11H8.5C9.88071 11 11 9.88071 11 8.5V3.5C11 2.11929 9.88071 1 8.5 1H3.5ZM8.5 1.71429H3.5C2.51378 1.71429 1.71429 2.51378 1.71429 3.5V8.5C1.71429 9.48622 2.51378 10.2857 3.5 10.2857H8.5C9.48622 10.2857 10.2857 9.48622 10.2857 8.5V3.5C10.2857 2.51378 9.48622 1.71429 8.5 1.71429Z" fill="#0E1011"/>
</svg>
