<svg width="12" height="12" viewBox="0 0 12 12" fill="none" xmlns="http://www.w3.org/2000/svg">
<path fill-rule="evenodd" clip-rule="evenodd" d="M6.01611 7C7.46586 7 8.64111 5.82475 8.64111 4.375C8.64111 2.92525 7.46586 1.75 6.01611 1.75C4.56637 1.75 3.39111 2.92525 3.39111 4.375C3.39111 5.82475 4.56637 7 6.01611 7ZM7.89111 4.375C7.89111 5.41053 7.05165 6.25 6.01611 6.25C4.98058 6.25 4.14111 5.41053 4.14111 4.375C4.14111 3.33947 4.98058 2.5 6.01611 2.5C7.05165 2.5 7.89111 3.33947 7.89111 4.375Z" fill="#0E1011"/>
<path fill-rule="evenodd" clip-rule="evenodd" d="M10.3129 10.1712C11.3573 9.09149 12 7.6208 12 6C12 2.68629 9.31371 0 6 0C2.68629 0 0 2.68629 0 6C0 9.31371 2.68629 12 6 12C7.69273 12 9.22209 11.2987 10.3129 10.1712ZM6.06786 11.2496C6.04541 11.2499 6.02292 11.25 6.0004 11.25C4.66131 11.25 3.44025 10.7495 2.51233 9.92386L2.61989 9.17092C2.68258 8.73216 3.05835 8.40625 3.50157 8.40625H4.19841L4.94696 8.78053C5.61999 9.11704 6.41218 9.11704 7.0852 8.78053L7.83376 8.40625H8.53076C8.97398 8.40625 9.34975 8.73216 9.41243 9.17092L9.51637 9.89848C8.6012 10.7245 7.39375 11.2328 6.06786 11.2496ZM10.1723 9.187L10.1549 9.06486C10.0394 8.2566 9.34721 7.65625 8.53076 7.65625H7.65671L6.74979 8.10971C6.28791 8.34065 5.74425 8.34065 5.28237 8.10971L4.37546 7.65625H3.50157C2.68511 7.65625 1.9929 8.2566 1.87743 9.06486L1.85494 9.22234C1.16245 8.33284 0.75 7.21459 0.75 6C0.75 3.10051 3.10051 0.75 6 0.75C8.8995 0.75 11.25 3.10051 11.25 6C11.25 7.19855 10.8484 8.3033 10.1723 9.187Z" fill="#0E1011"/>
</svg>
