<svg viewBox="0 0 12 12" fill="none" xmlns="http://www.w3.org/2000/svg">
<path fill-rule="evenodd" clip-rule="evenodd" d="M6.42288 0.18656C6.15162 0.0764852 5.84813 0.0764853 5.57686 0.18656L0.826015 2.11438C0.401645 2.28658 0.124023 2.69885 0.124023 3.15683V8.84319C0.124023 9.30116 0.401647 9.71343 0.826016 9.88563L5.57686 11.8135C5.84813 11.9235 6.15162 11.9235 6.42288 11.8135L11.1737 9.88563C11.5981 9.71343 11.8757 9.30116 11.8757 8.84319V3.15683C11.8757 2.69885 11.5981 2.28658 11.1737 2.11438L6.42288 0.18656ZM5.85887 0.881523C5.94929 0.844831 6.05045 0.844831 6.14087 0.881523L10.5033 2.65175L5.99987 4.47919L1.49639 2.65175L5.85887 0.881523ZM0.874023 3.20859V8.84319C0.874023 8.99585 0.966565 9.13327 1.10802 9.19067L5.62487 11.0235V5.13642L0.874023 3.20859ZM6.37487 11.0235L10.8917 9.19067C11.0332 9.13327 11.1257 8.99585 11.1257 8.84319V3.20859L6.37487 5.13642V11.0235Z" fill="#0E1011"/>
</svg>
