<svg viewBox="0 0 12 12" fill="none" xmlns="http://www.w3.org/2000/svg">
<path fill-rule="evenodd" clip-rule="evenodd" d="M2.60449 0H7.5625L10.75 3.1875V10.5C10.75 11.3284 10.0784 12 9.25 12H2.60449C1.77607 12 1.10449 11.3284 1.10449 10.5V1.5C1.10449 0.671573 1.77606 0 2.60449 0ZM9.25 11.25H2.60449C2.19028 11.25 1.85449 10.9142 1.85449 10.5V1.5C1.85449 1.08579 2.19028 0.75 2.60449 0.75H7V2.625C7 3.24632 7.50368 3.75 8.125 3.75H10V10.5C10 10.9142 9.66421 11.25 9.25 11.25ZM9.50184 3L7.75 1.24816V2.625C7.75 2.83211 7.91789 3 8.125 3H9.50184Z" fill="#0E1011"/>
</svg>
