<svg viewBox="0 0 12 12" fill="none" xmlns="http://www.w3.org/2000/svg">
<path fill-rule="evenodd" clip-rule="evenodd" d="M8 0C9.10457 0 10 0.895431 10 2V10C10 11.1046 9.10457 12 8 12H4C2.89543 12 2 11.1046 2 10V2C2 0.895431 2.89543 0 4 0H8ZM7.9685 0.75H8C8.69036 0.75 9.25 1.30964 9.25 2V10C9.25 10.6904 8.69036 11.25 8 11.25H4C3.30964 11.25 2.75 10.6904 2.75 10V2C2.75 1.30964 3.30964 0.75 4 0.75H4.0315C4.01094 0.829905 4 0.913675 4 1C4 1.55228 4.44772 2 5 2H7C7.55228 2 8 1.55228 8 1C8 0.913675 7.98906 0.829905 7.9685 0.75Z" fill="#0E1011"/>
</svg>
