<svg viewBox="0 0 16 16" fill="none" xmlns="http://www.w3.org/2000/svg">
<path fill-rule="evenodd" clip-rule="evenodd" d="M2.25 4C1.55964 4 1 4.55964 1 5.25V10.75C1 11.4404 1.55964 12 2.25 12H9.75C10.4404 12 11 11.4404 11 10.75V5.25C11 4.55964 10.4404 4 9.75 4H2.25ZM0 5.25C0 4.00736 1.00736 3 2.25 3H9.75C10.9926 3 12 4.00736 12 5.25V10.75C12 11.9926 10.9926 13 9.75 13H2.25C1.00736 13 0 11.9926 0 10.75V5.25ZM15.7424 4.06268C15.9014 4.15079 16 4.31824 16 4.5V11.5C16 11.6818 15.9014 11.8492 15.7424 11.9373C15.5834 12.0254 15.3891 12.0203 15.235 11.924L12.5 10.2146V5.78538L15.235 4.076C15.3891 3.97967 15.5834 3.97457 15.7424 4.06268ZM13.5 6.33962V9.66038L15 10.5979V5.40212L13.5 6.33962Z" fill="#0E1011"/>
<path d="M13.5 9.66038V6.33962L15 5.40212V10.5979L13.5 9.66038Z" fill="#0E1011"/>
<path d="M1 5.25C1 4.55964 1.55964 4 2.25 4H9.75C10.4404 4 11 4.55964 11 5.25V10.75C11 11.4404 10.4404 12 9.75 12H2.25C1.55964 12 1 11.4404 1 10.75V5.25Z" fill="#0E1011"/>
</svg>
