<svg viewBox="0 0 16 16" fill="none" xmlns="http://www.w3.org/2000/svg">
<path d="M4.85355 4.14645C4.65829 3.95118 4.34171 3.95118 4.14645 4.14645C3.95118 4.34171 3.95118 4.65829 4.14645 4.85355L7.64645 8.35355C7.84171 8.54882 8.15829 8.54882 8.35355 8.35355L11.8536 4.85355C12.0488 4.65829 12.0488 4.34171 11.8536 4.14645C11.6583 3.95118 11.3417 3.95118 11.1464 4.14645L8 7.29289L4.85355 4.14645Z" fill="#0E1011"/>
<path d="M4.85355 8.14645C4.65829 7.95118 4.34171 7.95118 4.14645 8.14645C3.95118 8.34171 3.95118 8.65829 4.14645 8.85355L7.64645 12.3536C7.84171 12.5488 8.15829 12.5488 8.35355 12.3536L11.8536 8.85355C12.0488 8.65829 12.0488 8.34171 11.8536 8.14645C11.6583 7.95118 11.3417 7.95118 11.1464 8.14645L8 11.2929L4.85355 8.14645Z" fill="#0E1011"/>
</svg>
