<svg viewBox="0 0 12 12" fill="none" xmlns="http://www.w3.org/2000/svg">
<path fill-rule="evenodd" clip-rule="evenodd" d="M6 3.28125C4.49848 3.28125 3.28125 4.49848 3.28125 6C3.28125 7.50152 4.49848 8.71875 6 8.71875C7.50152 8.71875 8.71875 7.50152 8.71875 6C8.71875 4.49848 7.50152 3.28125 6 3.28125ZM3.84375 6C3.84375 4.80914 4.80914 3.84375 6 3.84375C7.19086 3.84375 8.15625 4.80914 8.15625 6C8.15625 7.19086 7.19086 8.15625 6 8.15625C4.80914 8.15625 3.84375 7.19086 3.84375 6Z" fill="#0E1011"/>
<path fill-rule="evenodd" clip-rule="evenodd" d="M1.78125 6C1.78125 3.67005 3.67005 1.78125 6 1.78125C8.32995 1.78125 10.2188 3.67005 10.2188 6C10.2188 8.32995 8.32995 10.2188 6 10.2188C3.67005 10.2188 1.78125 8.32995 1.78125 6ZM6 2.34375C3.98071 2.34375 2.34375 3.98071 2.34375 6C2.34375 8.01929 3.98071 9.65625 6 9.65625C8.01929 9.65625 9.65625 8.01929 9.65625 6C9.65625 3.98071 8.01929 2.34375 6 2.34375Z" fill="#0E1011"/>
<path fill-rule="evenodd" clip-rule="evenodd" d="M0.1875 6C0.1875 2.78984 2.78984 0.1875 6 0.1875C9.21016 0.1875 11.8125 2.78984 11.8125 6C11.8125 9.21016 9.21016 11.8125 6 11.8125C2.78984 11.8125 0.1875 9.21016 0.1875 6ZM6 0.9375C3.20406 0.9375 0.9375 3.20406 0.9375 6C0.9375 8.79594 3.20406 11.0625 6 11.0625C8.79594 11.0625 11.0625 8.79594 11.0625 6C11.0625 3.20406 8.79594 0.9375 6 0.9375Z" fill="#0E1011"/>
</svg>
