<svg viewBox="0 0 16 16" fill="none" xmlns="http://www.w3.org/2000/svg">
<path fill-rule="evenodd" clip-rule="evenodd" d="M7.24255 15.1032C7.5478 15.7137 8.36144 15.8457 8.84408 15.3631L9.15248 15.0547C10.0218 14.1853 10.3713 12.9236 10.0731 11.7309L9.64039 10H13.4014C15.1339 10 16.3412 8.28049 15.7528 6.65093L14.1857 2.31129C13.6848 0.924318 12.3684 4.57764e-05 10.8937 4.57764e-05H5.5C5.32468 4.57764e-05 5.15639 0.0301228 5 0.0853987V8.2152C5 8.64866 4.64861 9.00005 4.21515 9.00005V9.00005C4.25983 9.12154 4.31133 9.24074 4.3695 9.35709L7.24255 15.1032ZM3.5 9.00005C3.67532 9.00005 3.84361 8.96997 4 8.9147V0.0854025C3.84361 0.0301266 3.67532 4.95911e-05 3.5 4.95911e-05H1.5C0.671573 4.95911e-05 0 0.671622 0 1.50005V7.50005C0 8.32848 0.671573 9.00005 1.5 9.00005H3.5Z" fill="#0E1011"/>
</svg>
