<svg viewBox="0 0 16 16" fill="none" xmlns="http://www.w3.org/2000/svg">
<path d="M4.5 6.125C4.29289 6.125 4.125 6.29289 4.125 6.5C4.125 6.70711 4.29289 6.875 4.5 6.875H7.5C7.70711 6.875 7.875 6.70711 7.875 6.5C7.875 6.29289 7.70711 6.125 7.5 6.125H4.5Z" fill="#0E1011"/>
<path d="M4.5 8.125C4.29289 8.125 4.125 8.29289 4.125 8.5C4.125 8.70711 4.29289 8.875 4.5 8.875H11.5C11.7071 8.875 11.875 8.70711 11.875 8.5C11.875 8.29289 11.7071 8.125 11.5 8.125H4.5Z" fill="#0E1011"/>
<path d="M4.5 10.125C4.29289 10.125 4.125 10.2929 4.125 10.5C4.125 10.7071 4.29289 10.875 4.5 10.875H11.5C11.7071 10.875 11.875 10.7071 11.875 10.5C11.875 10.2929 11.7071 10.125 11.5 10.125H4.5Z" fill="#0E1011"/>
<path d="M4.5 12.125C4.29289 12.125 4.125 12.2929 4.125 12.5C4.125 12.7071 4.29289 12.875 4.5 12.875H9.5C9.70711 12.875 9.875 12.7071 9.875 12.5C9.875 12.2929 9.70711 12.125 9.5 12.125H4.5Z" fill="#0E1011"/>
<path fill-rule="evenodd" clip-rule="evenodd" d="M9.75 0H4C2.89543 0 2 0.895431 2 2V14C2 15.1046 2.89543 16 4 16H12C13.1046 16 14 15.1046 14 14V4.25L9.75 0ZM4 15H12C12.5523 15 13 14.5523 13 14V5H10.5C9.67157 5 9 4.32843 9 3.5V1H4C3.44772 1 3 1.44772 3 2V14C3 14.5523 3.44772 15 4 15ZM10 1.66421L12.3358 4H10.5C10.2239 4 10 3.77614 10 3.5V1.66421Z" fill="#0E1011"/>
</svg>
