<svg viewBox="0 0 16 16" fill="none" xmlns="http://www.w3.org/2000/svg">
<path fill-rule="evenodd" clip-rule="evenodd" d="M7.85 1.25452C7.94676 1.42621 7.93364 1.63873 7.8165 1.79721C7.16639 2.67673 6.85356 3.76036 6.93489 4.85103C7.01623 5.94171 7.48633 6.96696 8.25969 7.74032C9.03305 8.51368 10.0583 8.98378 11.149 9.06511C12.2396 9.14645 13.3233 8.83362 14.2028 8.18351C14.3613 8.06637 14.5738 8.05325 14.7455 8.15001C14.9172 8.24677 15.016 8.43536 14.9979 8.63161C14.8753 9.95816 14.3774 11.2224 13.5626 12.2763C12.7477 13.3302 11.6496 14.1303 10.3966 14.5829C9.14361 15.0354 7.78766 15.1218 6.48739 14.8319C5.18712 14.542 3.99631 13.8877 3.0543 12.9457C2.11229 12.0037 1.45805 10.8129 1.16812 9.51262C0.878186 8.21235 0.964566 6.8564 1.41715 5.60343C1.86973 4.35046 2.66979 3.25229 3.72372 2.43743C4.77765 1.62257 6.04185 1.12472 7.3684 1.00213C7.56465 0.983994 7.75324 1.08283 7.85 1.25452ZM6.43215 2.18409C5.67477 2.39056 4.96176 2.74426 4.33539 3.22855C3.43172 3.92723 2.74573 4.86882 2.35767 5.94315C1.96962 7.01748 1.89555 8.1801 2.14415 9.29499C2.39274 10.4099 2.95371 11.4309 3.76141 12.2386C4.56911 13.0463 5.59014 13.6073 6.70502 13.8559C7.81991 14.1045 8.98253 14.0304 10.0569 13.6423C11.1312 13.2543 12.0728 12.5683 12.7715 11.6646C13.2558 11.0382 13.6094 10.3252 13.8159 9.56786C12.9644 9.95979 12.0217 10.133 11.0746 10.0623C9.74509 9.9632 8.49531 9.39015 7.55258 8.44743C6.60986 7.5047 6.03681 6.25492 5.93766 4.9254C5.86704 3.97833 6.04022 3.03561 6.43215 2.18409Z" fill="#0E1011"/>
</svg>
