<svg viewBox="0 0 12 12" fill="none" xmlns="http://www.w3.org/2000/svg">
<path fill-rule="evenodd" clip-rule="evenodd" d="M6 0.75C6.20711 0.75 6.375 0.917893 6.375 1.125V7.71967L7.98483 6.10984C8.13128 5.96339 8.36872 5.96339 8.51517 6.10984C8.66161 6.25628 8.66161 6.49372 8.51517 6.64016L6 9.15533L3.48484 6.64016C3.33839 6.49372 3.33839 6.25628 3.48484 6.10984C3.63128 5.96339 3.86872 5.96339 4.01516 6.10984L5.625 7.71967V1.125C5.625 0.917893 5.79289 0.75 6 0.75ZM1.375 7.25C1.58211 7.25 1.75 7.41789 1.75 7.625V9.5C1.75 9.91421 2.08579 10.25 2.5 10.25H9.5C9.91421 10.25 10.25 9.91421 10.25 9.5V7.625C10.25 7.41789 10.4179 7.25 10.625 7.25C10.8321 7.25 11 7.41789 11 7.625V9.5C11 10.3284 10.3284 11 9.5 11H2.5C1.67157 11 1 10.3284 1 9.5V7.625C1 7.41789 1.16789 7.25 1.375 7.25Z" fill="#0E1011"/>
</svg>
