<svg viewBox="0 0 16 16" fill="none" xmlns="http://www.w3.org/2000/svg">
<path fill-rule="evenodd" clip-rule="evenodd" d="M6.07869 7.59154L13.2117 2.5565C13.5429 2.32271 14 2.55958 14 2.96499V13.0351C14 13.4405 13.5429 13.6773 13.2117 13.4435L6.07869 8.40851C5.79647 8.2093 5.79647 7.79075 6.07869 7.59154ZM7.23405 8.00003L13 12.0701V3.92995L7.23405 8.00003Z" fill="#0E1011"/>
<path d="M2 3.00003C2 2.72388 2.22386 2.50003 2.5 2.50003C2.77614 2.50003 3 2.72388 3 3.00003V13C3 13.2762 2.77614 13.5 2.5 13.5C2.22386 13.5 2 13.2762 2 13V3.00003Z" fill="#0E1011"/>
</svg>
