<svg viewBox="0 0 12 12" fill="none" xmlns="http://www.w3.org/2000/svg">
<path d="M4.5 3.25C4.36193 3.25 4.25 3.36193 4.25 3.5C4.25 3.63807 4.36193 3.75 4.5 3.75H5.5C5.63807 3.75 5.75 3.63807 5.75 3.5C5.75 3.36193 5.63807 3.25 5.5 3.25H4.5Z" fill="#0E1011"/>
<path fill-rule="evenodd" clip-rule="evenodd" d="M1.125 9.5C1.125 9.27494 1.17907 9.06252 1.27493 8.875H1C0.516751 8.875 0.125 8.48325 0.125 8V2C0.125 1.51675 0.516751 1.125 1 1.125H7C7.48325 1.125 7.875 1.51675 7.875 2V4.125H9.5C10.8117 4.125 11.875 5.18832 11.875 6.5V8C11.875 8.48325 11.4832 8.875 11 8.875H9.72507C9.82093 9.06252 9.875 9.27494 9.875 9.5C9.875 10.2594 9.25939 10.875 8.5 10.875C7.74061 10.875 7.125 10.2594 7.125 9.5C7.125 9.27494 7.17907 9.06252 7.27493 8.875H3.72507C3.82093 9.06252 3.875 9.27494 3.875 9.5C3.875 10.2594 3.25939 10.875 2.5 10.875C1.74061 10.875 1.125 10.2594 1.125 9.5ZM0.875 2C0.875 1.93096 0.930965 1.875 1 1.875H7C7.06904 1.875 7.125 1.93096 7.125 2V8.125H1C0.930964 8.125 0.875 8.06904 0.875 8V3.75H3.5C3.63807 3.75 3.75 3.63807 3.75 3.5C3.75 3.36193 3.63807 3.25 3.5 3.25H0.875V2ZM11 8.125H7.875V4.875H9.5C10.3975 4.875 11.125 5.60254 11.125 6.5V8C11.125 8.06904 11.069 8.125 11 8.125ZM7.875 9.5C7.875 9.15482 8.15482 8.875 8.5 8.875C8.84518 8.875 9.125 9.15482 9.125 9.5C9.125 9.84518 8.84518 10.125 8.5 10.125C8.15482 10.125 7.875 9.84518 7.875 9.5ZM1.875 9.5C1.875 9.15482 2.15482 8.875 2.5 8.875C2.84518 8.875 3.125 9.15482 3.125 9.5C3.125 9.84518 2.84518 10.125 2.5 10.125C2.15482 10.125 1.875 9.84518 1.875 9.5Z" fill="#0E1011"/>
</svg>
