<svg viewBox="0 0 12 12" fill="none" xmlns="http://www.w3.org/2000/svg">
<path fill-rule="evenodd" clip-rule="evenodd" d="M4.70801 3.68798C4.59294 3.61127 4.44499 3.60412 4.32305 3.66937C4.20112 3.73463 4.125 3.8617 4.125 4V8C4.125 8.1383 4.20112 8.26537 4.32305 8.33063C4.44499 8.39588 4.59294 8.38873 4.70801 8.31202L7.70801 6.31202C7.81234 6.24247 7.875 6.12538 7.875 6C7.875 5.87462 7.81234 5.75753 7.70801 5.68798L4.70801 3.68798ZM6.82396 6L4.875 7.29931V4.70069L6.82396 6Z" fill="#0E1011"/>
<path fill-rule="evenodd" clip-rule="evenodd" d="M5.99727 1.125L5.96019 1.12507L5.84847 1.12553C5.75197 1.12606 5.61336 1.12711 5.44442 1.12921C5.10671 1.13342 4.64694 1.14184 4.15963 1.1587C3.67301 1.17553 3.15542 1.20091 2.70312 1.23932C2.2627 1.27672 1.84789 1.32904 1.58873 1.40975L1.58289 1.41162C1.27591 1.51274 1.0046 1.70398 0.79281 1.95821C0.581277 2.21212 0.434973 2.52148 0.363649 2.85327C0.362123 2.86037 0.360804 2.86751 0.359692 2.87469C0.199364 3.90986 0.120914 4.95982 0.125282 6.01143C0.119664 7.07096 0.19812 8.12893 0.359694 9.1719C0.361344 9.18255 0.363451 9.19312 0.366011 9.20358C0.444739 9.52546 0.594648 9.82361 0.806101 10.0673C1.01781 10.3112 1.28548 10.4937 1.58639 10.5895L1.58873 10.5903C1.84789 10.671 2.2627 10.7233 2.70312 10.7607C3.15542 10.7991 3.67301 10.8245 4.15963 10.8413C4.64694 10.8582 5.10671 10.8666 5.44442 10.8708C5.61336 10.8729 5.75197 10.8739 5.84847 10.8745L5.96019 10.8749L5.99926 10.875L6.03981 10.8749L6.15153 10.8745C6.24803 10.8739 6.38663 10.8729 6.55558 10.8708C6.89329 10.8666 7.35306 10.8582 7.84037 10.8413C8.32699 10.8245 8.84458 10.7991 9.29688 10.7607C9.7373 10.7233 10.1521 10.671 10.4113 10.5903L10.4171 10.5884C10.7241 10.4873 10.9954 10.296 11.2072 10.0418C11.4187 9.78788 11.565 9.47852 11.6364 9.14673C11.6379 9.13963 11.6392 9.13248 11.6403 9.1253C11.7994 8.09785 11.8779 7.05582 11.8747 6.01206C11.8803 4.95246 11.8019 3.89443 11.6403 2.85139C11.6392 2.84422 11.6379 2.83708 11.6364 2.82999C11.565 2.4982 11.4187 2.18884 11.2072 1.93492C10.9954 1.68069 10.7241 1.48946 10.4171 1.38833C10.4122 1.38672 10.4073 1.38521 10.4023 1.3838C10.1464 1.31103 9.73464 1.26343 9.29413 1.22927C8.8426 1.19426 8.32561 1.17111 7.83925 1.15575C7.35224 1.14036 6.89273 1.13268 6.55517 1.12884C6.38631 1.12692 6.24778 1.12596 6.15135 1.12548L6.03972 1.12506L6.00271 1.125H5.99727ZM6.00001 1.875L6.03796 1.87506L6.14761 1.87547C6.24266 1.87595 6.37958 1.8769 6.54664 1.8788C6.88093 1.8826 7.33512 1.8902 7.81556 1.90538C8.29665 1.92057 8.80086 1.94327 9.23615 1.97703C9.67614 2.01114 10.0135 2.05447 10.1897 2.1031C10.3508 2.15775 10.504 2.26262 10.631 2.41497C10.7581 2.56755 10.8527 2.76084 10.9009 2.97752C11.0553 3.97794 11.1302 4.99294 11.1247 6.00962L11.1247 6.0128C11.1278 7.01422 11.0529 8.0138 10.9009 8.9992C10.8527 9.21588 10.7581 9.40917 10.631 9.56174C10.5029 9.71546 10.348 9.82084 10.1854 9.87508C10.0136 9.92791 9.67728 9.97568 9.23341 10.0134C8.79888 10.0503 8.29527 10.0751 7.81444 10.0918C7.3343 10.1084 6.88036 10.1167 6.54624 10.1208C6.37926 10.1229 6.24242 10.124 6.14744 10.1245L6.03788 10.1249L6.00942 10.125H5.99057L5.96212 10.1249L5.85256 10.1245C5.75758 10.124 5.62074 10.1229 5.45376 10.1208C5.11964 10.1167 4.6657 10.1084 4.18556 10.0918C3.70473 10.0751 3.20112 10.0503 2.76659 10.0134C2.3212 9.97555 1.98406 9.92758 1.81288 9.87453C1.65306 9.82336 1.50035 9.72298 1.37255 9.57572C1.24717 9.43123 1.15131 9.24768 1.09826 9.04026C0.944463 8.04162 0.869808 7.02848 0.87528 6.01367L0.875282 6.01005C0.871 5.00101 0.945935 3.99371 1.0991 3.0008C1.14728 2.78412 1.24194 2.59084 1.36905 2.43826C1.49711 2.28454 1.65197 2.17915 1.81465 2.12492C1.98638 2.07209 2.32273 2.02432 2.76659 1.98663C3.20112 1.94972 3.70473 1.92489 4.18556 1.90825C4.6657 1.89164 5.11964 1.88332 5.45376 1.87916C5.62074 1.87708 5.75758 1.87604 5.85256 1.87552L5.96212 1.87506L5.99057 1.87501L6.00001 1.875Z" fill="#0E1011"/>
</svg>
