<svg viewBox="0 0 12 12" fill="none" xmlns="http://www.w3.org/2000/svg">
<path d="M10.375 5C10.5821 5 10.75 4.83211 10.75 4.625C10.75 4.41789 10.5821 4.25 10.375 4.25H8.28036L11.2027 1.32767C11.3491 1.18122 11.3491 0.943782 11.2027 0.797335C11.0562 0.650888 10.8188 0.650888 10.6724 0.797335L7.75003 3.71967V1.625C7.75003 1.41789 7.58214 1.25 7.37503 1.25C7.16792 1.25 7.00003 1.41789 7.00003 1.625V5H10.375Z" fill="#0E1011"/>
<path d="M1.62503 6.99997C1.41792 6.99997 1.25003 7.16786 1.25003 7.37497C1.25003 7.58208 1.41792 7.74997 1.62503 7.74997H3.7197L0.797365 10.6723C0.650919 10.8188 0.650919 11.0562 0.797365 11.2026C0.943812 11.3491 1.18125 11.3491 1.3277 11.2026L4.25003 8.2803V10.375C4.25003 10.5821 4.41792 10.75 4.62503 10.75C4.83214 10.75 5.00003 10.5821 5.00003 10.375V6.99997H1.62503Z" fill="#0E1011"/>
</svg>
