<svg viewBox="0 0 12 12" fill="none" xmlns="http://www.w3.org/2000/svg">
<path fill-rule="evenodd" clip-rule="evenodd" d="M5.88233 0.0189406C5.95875 -0.00631353 6.04126 -0.00631353 6.11767 0.0189406L10.478 1.45997C10.9388 1.61225 11.25 2.04285 11.25 2.52814V4.78356C11.25 5.93675 10.971 7.05275 10.4587 8.04707L9.79196 7.70353C10.2504 6.81381 10.5 5.8154 10.5 4.78356V2.52814C10.5 2.36638 10.3963 2.22285 10.2427 2.17208L6 0.769948L3.581 1.56939L3.34566 0.85727L5.88233 0.0189406ZM1.14325 1.67358L0.109837 0.640165L0.640167 0.109835L11.8902 11.3598L11.3598 11.8902L9.22692 9.75725C8.86883 10.1246 8.46845 10.4558 8.0301 10.7431L6.20553 11.9387C6.08072 12.0204 5.91929 12.0204 5.79447 11.9387L3.9699 10.7431C1.96057 9.42641 0.750002 7.18585 0.750002 4.78356V2.52814C0.750002 2.19244 0.898915 1.88291 1.14325 1.67358ZM1.67843 2.20876C1.56928 2.27592 1.5 2.39595 1.5 2.52814V4.78356C1.5 6.93298 2.58314 8.93769 4.38097 10.1158L6 11.1767L7.61903 10.1158C8.01404 9.85692 8.3745 9.55822 8.69655 9.22688L1.67843 2.20876Z" fill="#0E1011"/>
</svg>
