<svg viewBox="0 0 12 12" fill="none" xmlns="http://www.w3.org/2000/svg">
<path fill-rule="evenodd" clip-rule="evenodd" d="M6.44118 0.110294C6.16544 -0.0367645 5.83456 -0.0367649 5.55882 0.110294L0.992647 2.54559C0.381653 2.87145 0 3.50754 0 4.2V9.125C0 10.1605 0.839466 11 1.875 11H10.125C11.1605 11 12 10.1605 12 9.125V4.2C12 3.50754 11.6183 2.87145 11.0074 2.54559L6.44118 0.110294ZM5.91177 0.772059C5.96691 0.742647 6.03309 0.742647 6.08824 0.772059L10.6544 3.20735C11.021 3.40287 11.25 3.78452 11.25 4.2V9.125C11.25 9.74632 10.7463 10.25 10.125 10.25H1.875C1.25368 10.25 0.75 9.74632 0.75 9.125V4.2C0.75 3.78452 0.978992 3.40287 1.34559 3.20735L5.91177 0.772059Z" fill="#0E1011"/>
<path fill-rule="evenodd" clip-rule="evenodd" d="M6.08824 0.772059C6.03309 0.742647 5.96691 0.742647 5.91177 0.772059L1.34559 3.20735C0.978992 3.40287 0.75 3.78452 0.75 4.2V9.125C0.75 9.74632 1.25368 10.25 1.875 10.25H10.125C10.7463 10.25 11.25 9.74632 11.25 9.125V4.2C11.25 3.78452 11.021 3.40287 10.6544 3.20735L6.08824 0.772059ZM2.07633 4.10861C1.9016 3.99742 1.66982 4.04893 1.55863 4.22365C1.44744 4.39838 1.49894 4.63017 1.67367 4.74136L6.00288 7.49631L10.215 4.73873C10.3883 4.62529 10.4368 4.39286 10.3234 4.21958C10.2099 4.04631 9.97749 3.9978 9.80421 4.11124L5.99712 6.60366L2.07633 4.10861Z" fill="#0E1011"/>
</svg>
