<svg viewBox="0 0 16 16" fill="none" xmlns="http://www.w3.org/2000/svg">
<path fill-rule="evenodd" clip-rule="evenodd" d="M11 15.5C11 15.6753 11.0301 15.8436 11.0854 16H4C2.89543 16 2 15.1046 2 14V2C2 0.895431 2.89543 0 4 0H9.75L14 4.25V9.5C14 8.67157 13.3284 8 12.5 8C11.6716 8 11 8.67157 11 9.5V11H9.5C8.67157 11 8 11.6716 8 12.5C8 13.3284 8.67157 14 9.5 14H11V15.5ZM10 2C10 1.72386 9.77614 1.5 9.5 1.5C9.22386 1.5 9 1.72386 9 2V3.5C9 4.32843 9.67157 5 10.5 5H12C12.2761 5 12.5 4.77614 12.5 4.5C12.5 4.22386 12.2761 4 12 4H10.5C10.2239 4 10 3.77614 10 3.5V2Z" fill="#0E1011"/>
<path d="M13 9.5C13 9.22386 12.7761 9 12.5 9C12.2239 9 12 9.22386 12 9.5V12H9.5C9.22386 12 9 12.2239 9 12.5C9 12.7761 9.22386 13 9.5 13H12V15.5C12 15.7761 12.2239 16 12.5 16C12.7761 16 13 15.7761 13 15.5V13H15.5C15.7761 13 16 12.7761 16 12.5C16 12.2239 15.7761 12 15.5 12H13V9.5Z" fill="#0E1011"/>
</svg>
