<svg viewBox="0 0 12 12" fill="none" xmlns="http://www.w3.org/2000/svg">
<path fill-rule="evenodd" clip-rule="evenodd" d="M6 11.25C8.0488 11.25 9.75 9.5287 9.75 7.35484C9.75 6.28186 9.36716 5.36722 8.62128 4.30866C8.08993 3.55456 7.41614 2.78097 6.60695 1.85194C6.41243 1.6286 6.21008 1.39628 6 1.15309C5.78992 1.39628 5.58757 1.6286 5.39305 1.85194C4.58386 2.78097 3.91007 3.55456 3.37872 4.30866C2.63284 5.36722 2.25 6.28186 2.25 7.35484C2.25 9.5287 3.9512 11.25 6 11.25ZM5.50617 0.577165C5.28342 0.835381 5.06708 1.0838 4.85791 1.32398C2.84786 3.63202 1.5 5.17971 1.5 7.35484C1.5 9.92029 3.51472 12 6 12C8.48528 12 10.5 9.92029 10.5 7.35484C10.5 5.17971 9.15214 3.63202 7.14209 1.32398C6.93292 1.0838 6.71658 0.835381 6.49383 0.577165C6.33248 0.390116 6.16777 0.197926 6 0C5.83223 0.197926 5.66752 0.390116 5.50617 0.577165Z" fill="#0E1011"/>
</svg>
