<svg viewBox="0 0 12 12" fill="none" xmlns="http://www.w3.org/2000/svg">
<path fill-rule="evenodd" clip-rule="evenodd" d="M3.6875 0.75C3.16973 0.75 2.75 1.16973 2.75 1.6875V10.9344L5.79577 8.63192C5.91998 8.55127 6.08002 8.55127 6.20423 8.63192L9.25 10.9344V1.6875C9.25 1.16973 8.83027 0.75 8.3125 0.75H3.6875ZM2 1.6875C2 0.75552 2.75552 0 3.6875 0H8.3125C9.24448 0 10 0.755519 10 1.6875V11.625C10 11.7625 9.92476 11.8889 9.80394 11.9546C9.68312 12.0202 9.53608 12.0144 9.42077 11.9395L6 9.39355L2.57923 11.9395C2.46392 12.0144 2.31688 12.0202 2.19606 11.9546C2.07524 11.8889 2 11.7625 2 11.625V1.6875Z" fill="#0E1011"/>
</svg>
