<svg viewBox="0 0 12 12" fill="none" xmlns="http://www.w3.org/2000/svg">
<path fill-rule="evenodd" clip-rule="evenodd" d="M6.375 1.125C6.375 0.917893 6.20711 0.75 6 0.75C5.79289 0.75 5.625 0.917893 5.625 1.125V1.5H5.25C4.00736 1.5 3 2.50736 3 3.75V3.80948C3 4.82884 3.68531 5.72085 4.67026 5.98351L5.625 6.2381V9.75H5.25C4.42157 9.75 3.75 9.07843 3.75 8.25H3C3 9.49264 4.00736 10.5 5.25 10.5H5.625V10.875C5.625 11.0821 5.79289 11.25 6 11.25C6.20711 11.25 6.375 11.0821 6.375 10.875V10.5H7.125C8.36764 10.5 9.375 9.49264 9.375 8.25V8.19052C9.375 7.17116 8.68969 6.27915 7.70474 6.01649L6.375 5.6619V2.25H6.75C7.57843 2.25 8.25 2.92157 8.25 3.75H9C9 2.50736 7.99264 1.5 6.75 1.5H6.375V1.125ZM5.625 2.25H5.25C4.42157 2.25 3.75 2.92157 3.75 3.75V3.80948C3.75 4.48905 4.20688 5.08373 4.86351 5.25883L5.625 5.4619V2.25ZM6.375 6.4381V9.75H7.125C7.95343 9.75 8.625 9.07843 8.625 8.25V8.19052C8.625 7.51095 8.16812 6.91627 7.51149 6.74117L6.375 6.4381Z" fill="#0E1011"/>
</svg>
