<svg viewBox="0 0 12 12" fill="none" xmlns="http://www.w3.org/2000/svg">
<path fill-rule="evenodd" clip-rule="evenodd" d="M6.45729 9.71041C6.33025 9.64689 6.25 9.51704 6.25 9.375V2.625C6.25 2.48296 6.33025 2.35311 6.45729 2.28959C6.58434 2.22607 6.73637 2.23978 6.85 2.325L11.35 5.7C11.4444 5.77082 11.5 5.88197 11.5 6C11.5 6.11804 11.4444 6.22918 11.35 6.3L6.85 9.675C6.73637 9.76023 6.58434 9.77393 6.45729 9.71041ZM10.5 6L7 8.625V3.375L10.5 6Z" fill="#0E1011"/>
<path fill-rule="evenodd" clip-rule="evenodd" d="M0.457295 2.28959C0.584339 2.22607 0.736368 2.23978 0.85 2.325L5.35 5.7C5.44443 5.77082 5.5 5.88197 5.5 6C5.5 6.11804 5.44443 6.22918 5.35 6.3L0.85 9.675C0.736368 9.76023 0.584339 9.77393 0.457295 9.71041C0.330251 9.64689 0.25 9.51704 0.25 9.375V2.625C0.25 2.48296 0.330251 2.35311 0.457295 2.28959ZM4.5 6L1 8.625V3.375L4.5 6Z" fill="#0E1011"/>
</svg>
