<svg viewBox="0 0 16 16" fill="none" xmlns="http://www.w3.org/2000/svg">
<path fill-rule="evenodd" clip-rule="evenodd" d="M5.85357 2.14645C6.04883 2.34171 6.04883 2.65829 5.85357 2.85355L2.70712 6H10C12.2092 6 14 7.79086 14 10V14.5C14 14.7761 13.7762 15 13.5 15C13.2239 15 13 14.7761 13 14.5V10C13 8.34315 11.6569 7 10 7H2.70712L5.85357 10.1464C6.04883 10.3417 6.04883 10.6583 5.85357 10.8536C5.65831 11.0488 5.34172 11.0488 5.14646 10.8536L0.792908 6.5L5.14646 2.14645C5.34172 1.95118 5.65831 1.95118 5.85357 2.14645Z" fill="#0E1011"/>
</svg>
