<svg viewBox="0 0 16 16" fill="none" xmlns="http://www.w3.org/2000/svg">
<path fill-rule="evenodd" clip-rule="evenodd" d="M8 0L13.9707 1.958C14.5851 2.15947 15 2.72918 15 3.37125V6.35527C15 9.53362 13.3859 12.498 10.7068 14.24L8 16L5.2932 14.24C2.61409 12.498 1 9.53362 1 6.35527V3.37125C1 2.72918 1.41493 2.15947 2.02931 1.958L8 0ZM8 1.04507L2.3431 2.90017C2.13831 2.96732 2 3.15723 2 3.37125V6.35527C2 9.19906 3.44418 11.8514 5.84129 13.41L8 14.8137L10.1587 13.41C12.5558 11.8514 14 9.19906 14 6.35527V3.37125C14 3.15723 13.8617 2.96732 13.6569 2.90017L8 1.04507Z" fill="#0E1011"/>
</svg>
