<svg viewBox="0 0 16 16" fill="none" xmlns="http://www.w3.org/2000/svg">
<path fill-rule="evenodd" clip-rule="evenodd" d="M8.58824 0.747035C8.22059 0.550956 7.77941 0.550956 7.41177 0.747034L1.32353 3.99409C0.508871 4.42858 0 5.2767 0 6.19998V12.5C0 13.8807 1.11929 15 2.5 15H13.5C14.8807 15 16 13.8807 16 12.5V6.19998C16 5.2767 15.4911 4.42858 14.6765 3.99409L8.58824 0.747035ZM2.76844 6.57814C2.53547 6.42988 2.22642 6.49856 2.07817 6.73153C1.92992 6.9645 1.99859 7.27355 2.23156 7.4218L8.00385 11.0951L13.62 7.41829C13.8511 7.26704 13.9157 6.95714 13.7645 6.7261C13.6132 6.49507 13.3033 6.43039 13.0723 6.58164L7.99615 9.90487L2.76844 6.57814Z" fill="#0E1011"/>
</svg>
