<svg viewBox="0 0 16 16" fill="none" xmlns="http://www.w3.org/2000/svg">
<path fill-rule="evenodd" clip-rule="evenodd" d="M1.80924 2C1.83836 1.99863 1.86765 1.99792 1.8971 1.99787L8.74924 1.98743L8.74926 2H10.5C11.8807 2 12.9999 3.11919 13 4.49982C13.6072 4.95592 14 5.68209 14 6.5V8.5C14 8.77614 13.7761 9 13.5 9C13.2239 9 13 8.77614 13 8.5V6.5C13 5.67157 12.3284 5 11.5 5H1.78078C1.49172 5 1.22546 4.91953 1 4.78167V11.5C1 12.3284 1.67157 13 2.5 13H4.5C4.77614 13 5 13.2239 5 13.5C5 13.7761 4.77614 14 4.5 14H2.5C1.11929 14 0 12.8807 0 11.5V3.89787C0 3.19929 0.377035 2.58867 0.93883 2.25857C1.18095 2.09429 1.47197 2 1.78078 2H1.80924ZM1.47526 3.1042C1.38853 3.17115 1.32376 3.26649 1.29571 3.37873C1.21681 3.69431 1.45549 4 1.78078 4H11.9146C11.7087 3.4174 11.1531 3 10.5 3H1.83758C1.70722 3.00893 1.58449 3.04562 1.47526 3.1042Z" fill="#0E1011"/>
<path d="M11 9C11 9.55228 10.5523 10 10 10C9.44771 10 9 9.55228 9 9C9 8.44772 9.44771 8 10 8C10.5523 8 11 8.44772 11 9Z" fill="#0E1011"/>
<path d="M15.8536 13.1464L13.8536 11.1464C13.6583 10.9512 13.3417 10.9512 13.1464 11.1464C12.9512 11.3417 12.9512 11.6583 13.1464 11.8536L14.2929 13H7.5C7.22386 13 7 13.2239 7 13.5C7 13.7761 7.22386 14 7.5 14H14.2929L13.1464 15.1464C12.9512 15.3417 12.9512 15.6583 13.1464 15.8536C13.3417 16.0488 13.6583 16.0488 13.8536 15.8536L15.8536 13.8536C16.0488 13.6583 16.0488 13.3417 15.8536 13.1464Z" fill="#0E1011"/>
</svg>
