<svg viewBox="0 0 16 16" fill="none" xmlns="http://www.w3.org/2000/svg">
<path fill-rule="evenodd" clip-rule="evenodd" d="M6.25 1C6.11193 1 6 1.11193 6 1.25V1.75C6 1.88807 6.11193 2 6.25 2H9.75C9.88807 2 10 1.88807 10 1.75V1.25C10 1.11193 9.88807 1 9.75 1H6.25ZM5.025 1C5.14082 0.42944 5.64526 0 6.25 0H9.75C10.3547 0 10.8592 0.42944 10.975 1H12C13.1046 1 14 1.89543 14 3V14C14 15.1046 13.1046 16 12 16H4C2.89543 16 2 15.1046 2 14V3C2 1.89543 2.89543 1 4 1H5.025ZM5.025 2H4C3.44772 2 3 2.44772 3 3V14C3 14.5523 3.44772 15 4 15H12C12.5523 15 13 14.5523 13 14V3C13 2.44772 12.5523 2 12 2H10.975C10.8592 2.57056 10.3547 3 9.75 3H6.25C5.64526 3 5.14082 2.57056 5.025 2Z" fill="#0E1011"/>
</svg>
