<svg viewBox="0 0 16 16" fill="none" xmlns="http://www.w3.org/2000/svg">
<path fill-rule="evenodd" clip-rule="evenodd" d="M3.5 2H12.5C13.3284 2 14 2.67157 14 3.5V12.5C14 13.3284 13.3284 14 12.5 14H3.5C2.67157 14 2 13.3284 2 12.5V3.5C2 2.67157 2.67157 2 3.5 2ZM1 3.5C1 2.11929 2.11929 1 3.5 1H12.5C13.8807 1 15 2.11929 15 3.5V12.5C15 13.8807 13.8807 15 12.5 15H3.5C2.11929 15 1 13.8807 1 12.5V3.5ZM6.5 7.79289L3.85355 5.14645C3.65829 4.95118 3.34171 4.95118 3.14645 5.14645C2.95118 5.34171 2.95118 5.65829 3.14645 5.85355L5.96967 8.67678C6.26256 8.96967 6.73744 8.96967 7.03033 8.67678L8.5 7.20711L11.2929 10H9.5C9.22386 10 9 10.2239 9 10.5C9 10.7761 9.22386 11 9.5 11H12.5H13V10.5V7.5C13 7.22386 12.7761 7 12.5 7C12.2239 7 12 7.22386 12 7.5V9.29289L9.03033 6.32322C8.73744 6.03033 8.26256 6.03033 7.96967 6.32322L6.5 7.79289Z" fill="#0E1011"/>
</svg>
