<svg viewBox="0 0 16 16" fill="none" xmlns="http://www.w3.org/2000/svg">
<path fill-rule="evenodd" clip-rule="evenodd" d="M8.57467 0.196967C8.20675 0.0443703 7.79325 0.0443702 7.42533 0.196967L0.925331 2.8929C0.365162 3.12523 0 3.67201 0 4.27845V11.7564C0 12.3628 0.365162 12.9096 0.925331 13.1419L7.42533 15.8379C7.79325 15.9905 8.20675 15.9905 8.57467 15.8379L15.0747 13.1419C15.6348 12.9096 16 12.3628 16 11.7564V4.27845C16 3.67201 15.6348 3.12523 15.0747 2.8929L8.57467 0.196967ZM7.80844 1.12067C7.93108 1.0698 8.06892 1.0698 8.19156 1.12067L14.072 3.55965L11.5067 4.65908L5.69495 1.99726L7.80844 1.12067ZM4.4347 2.51996L1.92795 3.55965L8 6.16196L10.2661 5.19077L4.4347 2.51996ZM1.00079 4.25027C1.00027 4.25961 1 4.26901 1 4.27845V11.7564C1 11.9585 1.12172 12.1408 1.30844 12.2182L7.5 14.7862V7.03564L1.00079 4.25027ZM8.5 14.7862L14.6916 12.2182C14.8783 12.1408 15 11.9585 15 11.7564V4.27845C15 4.26901 14.9997 4.25961 14.9992 4.25027L8.5 7.03564V14.7862Z" fill="#0E1011"/>
</svg>
