<svg viewBox="0 0 12 12" fill="none" xmlns="http://www.w3.org/2000/svg">
<path fill-rule="evenodd" clip-rule="evenodd" d="M2.625 2.25V3.375C2.625 3.58211 2.45711 3.75 2.25 3.75C2.04289 3.75 1.875 3.58211 1.875 3.375V2.0625C1.875 1.75184 2.12684 1.5 2.4375 1.5H9.5625C9.87316 1.5 10.125 1.75184 10.125 2.0625V3.375C10.125 3.58211 9.95711 3.75 9.75 3.75C9.54289 3.75 9.375 3.58211 9.375 3.375V2.25H6.375V9.75H7.125C7.33211 9.75 7.5 9.91789 7.5 10.125C7.5 10.3321 7.33211 10.5 7.125 10.5H4.875C4.66789 10.5 4.5 10.3321 4.5 10.125C4.5 9.91789 4.66789 9.75 4.875 9.75H5.625V2.25H2.625Z" fill="#0E1011"/>
</svg>
