<svg viewBox="0 0 12 12" fill="none" xmlns="http://www.w3.org/2000/svg">
<path fill-rule="evenodd" clip-rule="evenodd" d="M0 4.875C0 2.59683 1.84683 0.75 4.125 0.75H7.875C10.1532 0.75 12 2.59683 12 4.875V5.625C12 7.90317 10.1532 9.75 7.875 9.75H4.125C3.93616 9.75 3.75011 9.73729 3.5677 9.71263L1.5 11.7803V8.80711C0.584481 8.05104 0 6.90623 0 5.625V4.875ZM4.125 1.5C2.26104 1.5 0.75 3.01104 0.75 4.875V5.625C0.75 6.72894 1.27962 7.70906 2.10022 8.32544L2.25 8.43794V9.96967L3.31214 8.90753L3.50611 8.94345C3.70647 8.98055 3.9133 9 4.125 9H7.875C9.73896 9 11.25 7.48896 11.25 5.625V4.875C11.25 3.01104 9.73896 1.5 7.875 1.5H4.125Z" fill="#0E1011"/>
<path d="M0.75 4.875C0.75 3.01104 2.26104 1.5 4.125 1.5H7.875C9.73896 1.5 11.25 3.01104 11.25 4.875V5.625C11.25 7.48896 9.73896 9 7.875 9H4.125C3.9133 9 3.70647 8.98055 3.50611 8.94345L3.31214 8.90753L2.25 9.96967V8.43794L2.10022 8.32544C1.27962 7.70906 0.75 6.72894 0.75 5.625V4.875Z" fill="#0E1011"/>
</svg>
