<svg viewBox="0 0 16 16" fill="none" xmlns="http://www.w3.org/2000/svg">
<path fill-rule="evenodd" clip-rule="evenodd" d="M3 6C3 3.23858 5.23858 1 8 1C10.7614 1 13 3.23858 13 6V7.34315C13 8.2714 13.3687 9.16164 14.0251 9.81802L14.5607 10.3536C14.842 10.6349 15 11.0164 15 11.4142V12C15 12.5523 14.5523 13 14 13H2C1.44772 13 1 12.5523 1 12V11.4142C1 11.0164 1.15803 10.6349 1.43934 10.3536L1.97487 9.81802C2.63125 9.16164 3 8.2714 3 7.34315V6ZM8 2C5.79086 2 4 3.79086 4 6V7.34315C4 8.53662 3.52589 9.68121 2.68198 10.5251L2.14645 11.0607C2.05268 11.1544 2 11.2816 2 11.4142V12H14V11.4142C14 11.2816 13.9473 11.1544 13.8536 11.0607L13.318 10.5251C12.4741 9.68121 12 8.53662 12 7.34315V6C12 3.79086 10.2091 2 8 2ZM8 16C6.61929 16 5.5 14.8807 5.5 13.5H6.5C6.5 14.3284 7.17157 15 8 15C8.82843 15 9.5 14.3284 9.5 13.5H10.5C10.5 14.8807 9.38071 16 8 16ZM6.58579 4.58579C6.96086 4.21071 7.46957 4 8 4C8.27614 4 8.5 3.77614 8.5 3.5C8.5 3.22386 8.27614 3 8 3C7.20435 3 6.44129 3.31607 5.87868 3.87868C5.31607 4.44129 5 5.20435 5 6C5 6.27614 5.22386 6.5 5.5 6.5C5.77614 6.5 6 6.27614 6 6C6 5.46957 6.21071 4.96086 6.58579 4.58579Z" fill="#0E1011"/>
</svg>
