<svg viewBox="0 0 12 12" fill="none" xmlns="http://www.w3.org/2000/svg">
<path fill-rule="evenodd" clip-rule="evenodd" d="M7.1263 2.10573L6.89573 4.4H9.70978C10.5349 4.4 11.1477 5.16027 10.9688 5.96173L10.1642 9.56437C9.97688 10.4032 9.22921 11 8.36567 11H1.73697C1.32995 11 1 10.6717 1 10.2667V5.13333C1 4.72832 1.32995 4.4 1.73697 4.4H3.2109L5.4218 0L5.97728 0.221097C6.73944 0.524457 7.20798 1.29296 7.1263 2.10573ZM3.94787 4.57312L5.77643 0.934028C6.19041 1.13411 6.43934 1.57155 6.39299 2.03276L6.0814 5.13333H9.70978C10.0634 5.13333 10.3261 5.45916 10.2493 5.80265L9.44479 9.40529C9.3324 9.90858 8.88379 10.2667 8.36567 10.2667H3.94787V4.57312ZM3.2109 5.13333H1.73697V10.2667H3.2109V5.13333Z" fill="#0E1011"/>
</svg>
