<svg viewBox="0 0 16 16" fill="none" xmlns="http://www.w3.org/2000/svg">
<path fill-rule="evenodd" clip-rule="evenodd" d="M4.5 1C2.567 1 1 2.567 1 4.5V11.5C1 13.433 2.567 15 4.5 15H11.5C13.433 15 15 13.433 15 11.5V4.5C15 2.567 13.433 1 11.5 1H4.5ZM12.5 4.25C12.5 4.66421 12.1642 5 11.75 5C11.3358 5 11 4.66421 11 4.25C11 3.83579 11.3358 3.5 11.75 3.5C12.1642 3.5 12.5 3.83579 12.5 4.25ZM11 8C11 9.65685 9.65685 11 8 11C6.34315 11 5 9.65685 5 8C5 6.34315 6.34315 5 8 5C9.65685 5 11 6.34315 11 8Z" fill="#0E1011"/>
</svg>
