<svg viewBox="0 0 16 16" fill="none" xmlns="http://www.w3.org/2000/svg">
<path d="M1.10355 0.396447C0.908291 0.201184 0.591709 0.201184 0.396447 0.396447C0.201184 0.591709 0.201184 0.908291 0.396447 1.10355L2.29289 3H2.25C1.00736 3 0 4.00736 0 5.25V10.75C0 11.9926 1.00736 13 2.25 13H9.75C10.4459 13 11.068 12.6841 11.4807 12.1878L14.8964 15.6036C15.0917 15.7988 15.4083 15.7988 15.6036 15.6036C15.7988 15.4083 15.7988 15.0917 15.6036 14.8964L1.10355 0.396447Z" fill="#0E1011"/>
<path d="M15.235 11.924L14.4057 11.4057L12.5 9.5V5.78538L15.235 4.076C15.3891 3.97967 15.5834 3.97457 15.7424 4.06268C15.9014 4.15079 16 4.31824 16 4.5V11.5C16 11.6818 15.9014 11.8492 15.7424 11.9373C15.5834 12.0254 15.3891 12.0203 15.235 11.924Z" fill="#0E1011"/>
<path d="M12 5.25V9L6 3H9.75C10.9926 3 12 4.00736 12 5.25Z" fill="#0E1011"/>
</svg>
