<svg height="18" viewBox="0 0 16 18" fill="none" xmlns="http://www.w3.org/2000/svg">
<path fill-rule="evenodd" clip-rule="evenodd" d="M8 0.973389L13.9707 2.94661C14.5851 3.14965 15 3.72378 15 4.37084V7.37806C15 10.5811 13.3859 13.5685 10.7068 15.3241L8 17.0978L5.2932 15.3241C2.61409 13.5685 1 10.5811 1 7.37806V4.37085C1 3.72378 1.41493 3.14965 2.02931 2.94661L8 0.973389ZM8 2.02658L2.3431 3.8961C2.13831 3.96378 2 4.15516 2 4.37085V7.37806C2 10.244 3.44418 12.9169 5.84129 14.4877L8 15.9022L10.1587 14.4877C12.5558 12.9169 14 10.244 14 7.37806V4.37084C14 4.15516 13.8617 3.96378 13.6569 3.8961L8 2.02658Z" fill="#0E1011"/>
</svg>
