<svg viewBox="0 0 12 12" fill="none" xmlns="http://www.w3.org/2000/svg">
<path fill-rule="evenodd" clip-rule="evenodd" d="M4.85294 0.474531L0.463237 2.29096C0.182849 2.40698 0 2.68053 0 2.98398V9.0158C0 9.31924 0.182849 9.59279 0.463237 9.70881L4.85294 11.5252C5.58745 11.8292 6.41255 11.8292 7.14706 11.5252L11.5368 9.70881C11.8172 9.59279 12 9.31924 12 9.0158V2.98397C12 2.68053 11.8172 2.40699 11.5368 2.29096L7.14706 0.474532C6.41255 0.170599 5.58745 0.170599 4.85294 0.474531ZM1.46353 2.84415C1.27396 2.76074 1.05267 2.84679 0.969257 3.03636C0.885847 3.22593 0.971905 3.44722 1.16147 3.53063L5.625 5.49458V10.4999C5.625 10.707 5.79289 10.8749 6 10.8749C6.20711 10.8749 6.375 10.707 6.375 10.4999V5.49458L10.8385 3.53063C11.0281 3.44722 11.1142 3.22593 11.0307 3.03636C10.9473 2.84679 10.726 2.76074 10.5365 2.84415L6 4.84019L1.46353 2.84415Z" fill="#0E1011"/>
</svg>
