<svg viewBox="0 0 16 16" fill="none" xmlns="http://www.w3.org/2000/svg">
<path d="M5.85355 5.14645C5.65829 4.95118 5.34171 4.95118 5.14645 5.14645C4.95118 5.34171 4.95118 5.65829 5.14645 5.85355L7.29289 8L5.14645 10.1464C4.95118 10.3417 4.95118 10.6583 5.14645 10.8536C5.34171 11.0488 5.65829 11.0488 5.85355 10.8536L8 8.70711L10.1464 10.8536C10.3417 11.0488 10.6583 11.0488 10.8536 10.8536C11.0488 10.6583 11.0488 10.3417 10.8536 10.1464L8.70711 8L10.8536 5.85355C11.0488 5.65829 11.0488 5.34171 10.8536 5.14645C10.6583 4.95118 10.3417 4.95118 10.1464 5.14645L8 7.29289L5.85355 5.14645Z" fill="#0E1011"/>
<path fill-rule="evenodd" clip-rule="evenodd" d="M3.25 1C2.00736 1 1 2.00736 1 3.25V12.75C1 13.9926 2.00736 15 3.25 15H12.75C13.9926 15 15 13.9926 15 12.75V3.25C15 2.00736 13.9926 1 12.75 1H3.25ZM2 3.25C2 2.55964 2.55964 2 3.25 2H12.75C13.4404 2 14 2.55964 14 3.25V12.75C14 13.4404 13.4404 14 12.75 14H3.25C2.55964 14 2 13.4404 2 12.75V3.25Z" fill="#0E1011"/>
</svg>
