<svg viewBox="0 0 16 16" fill="none" xmlns="http://www.w3.org/2000/svg">
<path fill-rule="evenodd" clip-rule="evenodd" d="M14.8536 1.14646C15.0017 1.29459 15.0418 1.51934 14.954 1.70954L8.954 14.7095C8.86204 14.9088 8.6509 15.0248 8.43341 14.9956C8.21591 14.9663 8.0429 14.7987 8.00683 14.5822L7.06554 8.9345L1.41782 7.99321C1.20136 7.95713 1.03372 7.78412 1.00448 7.56663C0.975242 7.34914 1.09124 7.138 1.29049 7.04603L14.2905 1.04603C14.4807 0.95825 14.7055 0.998336 14.8536 1.14646ZM3.18352 7.2737L7.58222 8.00682C7.79296 8.04194 7.9581 8.20708 7.99322 8.41781L8.72634 12.8165L13.4773 2.52272L3.18352 7.2737Z" fill="#0E1011"/>
<path d="M7.58222 8.00682L3.18352 7.2737L13.4773 2.52272L8.72634 12.8165L7.99322 8.41781C7.9581 8.20708 7.79296 8.04194 7.58222 8.00682Z" fill="#0E1011"/>
</svg>
