<svg viewBox="0 0 16 16" fill="none" xmlns="http://www.w3.org/2000/svg">
<path fill-rule="evenodd" clip-rule="evenodd" d="M7.84314 0.0252541C7.94503 -0.00841805 8.05505 -0.00841805 8.15693 0.0252541L13.9707 1.94662C14.5851 2.14966 15 2.72379 15 3.37086V6.37808C15 7.91567 14.6281 9.40367 13.9449 10.7294L13.056 10.2714C13.6673 9.08508 14 7.75386 14 6.37808V3.37086C14 3.15517 13.8617 2.96379 13.6569 2.89611L8.00004 1.0266L4.77471 2.09252L4.46091 1.14303L7.84314 0.0252541ZM1.52437 2.23143L0.146484 0.853553L0.853591 0.146447L15.8536 15.1464L15.1465 15.8536L12.3026 13.0097C11.8251 13.4994 11.2913 13.9411 10.7068 14.3241L8.27408 15.9182C8.10766 16.0273 7.89242 16.0273 7.726 15.9182L5.29324 14.3241C2.61412 12.5686 1.00004 9.58114 1.00004 6.37808V3.37086C1.00004 2.92325 1.19859 2.51055 1.52437 2.23143ZM2.23795 2.94502C2.09241 3.03457 2.00004 3.1946 2.00004 3.37086V6.37808C2.00004 9.24397 3.44422 11.9169 5.84132 13.4877L8.00004 14.9022L10.1587 13.4877C10.6854 13.1426 11.166 12.7443 11.5954 12.3025L2.23795 2.94502Z" fill="#0E1011"/>
</svg>
