<svg viewBox="0 0 12 12" fill="none" xmlns="http://www.w3.org/2000/svg">
<path d="M0.875 5.5C0.875 3.49797 2.49797 1.875 4.5 1.875C5.85739 1.875 7.04106 2.6209 7.66261 3.72696L7.79219 3.95755L8.05289 3.91286C8.19795 3.88799 8.34731 3.87499 8.5 3.87499C9.94975 3.87499 11.125 5.05025 11.125 6.49999C11.125 7.80031 10.1792 8.88045 8.93795 9.08868L9.06205 9.82835C10.6585 9.5605 11.875 8.17268 11.875 6.49999C11.875 4.63603 10.364 3.12499 8.5 3.12499C8.39359 3.12499 8.28825 3.12993 8.18421 3.1396C7.40675 1.92853 6.04743 1.125 4.5 1.125C2.08375 1.125 0.125 3.08375 0.125 5.5C0.125 7.73132 1.79507 9.572 3.9536 9.84117L4.0464 9.09693C2.25861 8.874 0.875 7.34829 0.875 5.5Z" fill="#0E1011"/>
<path d="M6.75 7.5C6.75 7.36193 6.63807 7.25 6.5 7.25C6.36193 7.25 6.25 7.36193 6.25 7.5V9C6.25 9.13807 6.36193 9.25 6.5 9.25C6.63807 9.25 6.75 9.13807 6.75 9V7.5Z" fill="#0E1011"/>
<path d="M5.5 8.49999C5.5 8.36192 5.38807 8.24999 5.25 8.24999C5.11193 8.24999 5 8.36192 5 8.49999V8.99999C5 9.13807 5.11193 9.24999 5.25 9.24999C5.38807 9.24999 5.5 9.13807 5.5 8.99999V8.49999Z" fill="#0E1011"/>
<path d="M8 8.5C8 8.36193 7.88807 8.25 7.75 8.25C7.61193 8.25 7.5 8.36193 7.5 8.5V9C7.5 9.13807 7.61193 9.25 7.75 9.25C7.88807 9.25 8 9.13807 8 9V8.5Z" fill="#0E1011"/>
<path d="M5.5 9.99999C5.5 9.86192 5.38807 9.74999 5.25 9.74999C5.11193 9.74999 5 9.86192 5 9.99999V10.5C5 10.6381 5.11193 10.75 5.25 10.75C5.38807 10.75 5.5 10.6381 5.5 10.5V9.99999Z" fill="#0E1011"/>
<path d="M6.75 10C6.75 9.86193 6.63807 9.75 6.5 9.75C6.36193 9.75 6.25 9.86193 6.25 10V11.5C6.25 11.6381 6.36193 11.75 6.5 11.75C6.63807 11.75 6.75 11.6381 6.75 11.5V10Z" fill="#0E1011"/>
<path d="M8 10C8 9.86193 7.88807 9.75 7.75 9.75C7.61193 9.75 7.5 9.86193 7.5 10V10.5C7.5 10.6381 7.61193 10.75 7.75 10.75C7.88807 10.75 8 10.6381 8 10.5V10Z" fill="#0E1011"/>
</svg>
