<svg viewBox="0 0 16 16" fill="none" xmlns="http://www.w3.org/2000/svg">
<path fill-rule="evenodd" clip-rule="evenodd" d="M13 5C13 3.89543 12.1046 3 11 3C9.89543 3 9 3.89543 9 5C9 6.10457 9.89543 7 11 7C12.1046 7 13 6.10457 13 5ZM11 4C11.5523 4 12 4.44772 12 5C12 5.55229 11.5523 6 11 6C10.4477 6 10 5.55229 10 5C10 4.44772 10.4477 4 11 4Z" fill="#0E1011"/>
<path fill-rule="evenodd" clip-rule="evenodd" d="M16 6.58579L16 1.5C16 0.671573 15.3284 2.58519e-07 14.5 2.22307e-07L9.41422 0C9.01639 -1.73895e-08 8.63486 0.158035 8.35356 0.43934L0.810662 7.98223C-0.165648 8.95854 -0.165646 10.5415 0.810663 11.5178L4.48224 15.1893C5.45855 16.1656 7.04146 16.1657 8.01777 15.1893L15.5607 7.64645C15.842 7.36514 16 6.98361 16 6.58579ZM15 1.5L15 6.58579C15 6.7184 14.9473 6.84557 14.8536 6.93934L7.31066 14.4822C6.72488 15.068 5.77513 15.068 5.18934 14.4822L1.51777 10.8107C0.931983 10.2249 0.931983 9.27513 1.51777 8.68934L9.06066 1.14645C9.15443 1.05268 9.28161 1 9.41422 1L14.5 1C14.7761 1 15 1.22386 15 1.5Z" fill="#0E1011"/>
</svg>
