<svg viewBox="0 0 12 12" fill="none" xmlns="http://www.w3.org/2000/svg">
<path d="M4 5.5C3.72386 5.5 3.5 5.72386 3.5 6C3.5 6.27614 3.72386 6.5 4 6.5H8C8.27614 6.5 8.5 6.27614 8.5 6C8.5 5.72386 8.27614 5.5 8 5.5H4Z" fill="#0E1011"/>
<path fill-rule="evenodd" clip-rule="evenodd" d="M1 3C1 1.89543 1.89543 1 3 1H9C10.1046 1 11 1.89543 11 3V9C11 10.1046 10.1046 11 9 11H3C1.89543 11 1 10.1046 1 9V3ZM3 1.75H9C9.69036 1.75 10.25 2.30964 10.25 3V9C10.25 9.69036 9.69036 10.25 9 10.25H3C2.30964 10.25 1.75 9.69036 1.75 9V3C1.75 2.30964 2.30964 1.75 3 1.75Z" fill="#0E1011"/>
</svg>
