<svg height="13" viewBox="0 0 12 13" fill="none" xmlns="http://www.w3.org/2000/svg">
<path fill-rule="evenodd" clip-rule="evenodd" d="M4.5 2.25C2.42893 2.25 0.75 3.92893 0.75 6C0.75 7.31606 1.42765 8.47405 2.45482 9.14377C2.6283 9.25689 2.67724 9.48923 2.56413 9.66272C2.45101 9.8362 2.21867 9.88514 2.04518 9.77203C0.814694 8.96973 0 7.58011 0 6C0 3.51472 2.01472 1.5 4.5 1.5C6.46365 1.5 8.13275 2.75744 8.74752 4.5105C8.83082 4.50354 8.91503 4.5 9 4.5C10.6569 4.5 12 5.84315 12 7.5C12 8.51978 11.4908 9.42058 10.7145 9.96206C10.5447 10.0805 10.3109 10.0389 10.1924 9.86903C10.0739 9.69916 10.1156 9.46541 10.2855 9.34692C10.8693 8.93969 11.25 8.26428 11.25 7.5C11.25 6.25736 10.2426 5.25 9 5.25C8.84805 5.25 8.69999 5.26501 8.55708 5.29351L8.21279 5.36218L8.1216 5.02317C7.69184 3.4255 6.23272 2.25 4.5 2.25ZM6.375 6C6.58211 6 6.75 6.16789 6.75 6.375V10.7197L8.35983 9.10983C8.50628 8.96339 8.74372 8.96339 8.89017 9.10983C9.03661 9.25628 9.03661 9.49372 8.89017 9.64017L6.375 12.1553L3.85984 9.64017C3.71339 9.49372 3.71339 9.25628 3.85984 9.10983C4.00628 8.96339 4.24372 8.96339 4.39016 9.10983L6 10.7197V6.375C6 6.16789 6.16789 6 6.375 6Z" fill="#0E1011"/>
</svg>
