<svg viewBox="0 0 12 12" fill="none" xmlns="http://www.w3.org/2000/svg">
<path fill-rule="evenodd" clip-rule="evenodd" d="M1.125 1C0.50368 1 0 1.55964 0 2.25V9.75C0 10.4404 0.50368 11 1.125 11H10.875C11.4963 11 12 10.4404 12 9.75V2.25C12 1.55964 11.4963 1 10.875 1H1.125ZM0.75 2.25C0.75 2.01988 0.917893 1.83333 1.125 1.83333H10.875C11.0821 1.83333 11.25 2.01988 11.25 2.25V4.4375H0.75V2.25ZM0.75 5.0625V9.75C0.75 9.98012 0.917893 10.1667 1.125 10.1667H3.84375V5.0625H0.75ZM4.40625 10.1667H10.875C11.0821 10.1667 11.25 9.98012 11.25 9.75V5.0625H4.40625V10.1667Z" fill="#0E1011"/>
</svg>
