<svg viewBox="0 0 16 16" fill="none" xmlns="http://www.w3.org/2000/svg">
<path d="M13.5 7C13.7761 7 14 6.77614 14 6.5C14 6.22386 13.7761 6 13.5 6H10.7071L14.6036 2.10355C14.7988 1.90829 14.7988 1.59171 14.6036 1.39645C14.4083 1.20118 14.0917 1.20118 13.8964 1.39645L10 5.29289V2.5C10 2.22386 9.77614 2 9.5 2C9.22386 2 9 2.22386 9 2.5V7H13.5Z" fill="#0E1011"/>
<path d="M2.5 9C2.22386 9 2 9.22386 2 9.5C2 9.77614 2.22386 10 2.5 10H5.29289L1.39645 13.8964C1.20118 14.0917 1.20118 14.4083 1.39645 14.6036C1.59171 14.7988 1.90829 14.7988 2.10355 14.6036L6 10.7071V13.5C6 13.7761 6.22386 14 6.5 14C6.77614 14 7 13.7761 7 13.5V9H2.5Z" fill="#0E1011"/>
</svg>
