<svg viewBox="0 0 12 12" fill="none" xmlns="http://www.w3.org/2000/svg">
<path fill-rule="evenodd" clip-rule="evenodd" d="M0.827665 0.297335C0.681218 0.150888 0.443782 0.150888 0.297335 0.297335C0.150888 0.443782 0.150888 0.681218 0.297335 0.827665L2.40727 2.9376C0.846352 4.2544 0 6 0 6C0 6 2.18182 10.5 6 10.5C7.15031 10.5 8.1521 10.0916 8.99045 9.52078L11.1723 11.7027C11.3188 11.8491 11.5562 11.8491 11.7027 11.7027C11.8491 11.5562 11.8491 11.3188 11.7027 11.1723L0.827665 0.297335ZM7.05198 7.58231L4.44769 4.97802C4.24401 5.27799 4.125 5.6401 4.125 6.03001C4.125 7.06554 4.96447 7.90501 6 7.90501C6.38991 7.90501 6.75202 7.78599 7.05198 7.58231Z" fill="#0E1011"/>
<path d="M12 6C12 6 11.4661 7.10125 10.4642 8.21419L7.81753 5.5675C7.64909 4.90357 7.12643 4.38091 6.4625 4.21248L4.12488 1.87486C4.69636 1.64172 5.32241 1.5 6 1.5C9.81818 1.5 12 6 12 6Z" fill="#0E1011"/>
</svg>
