<svg viewBox="0 0 16 16" fill="none" xmlns="http://www.w3.org/2000/svg">
<path fill-rule="evenodd" clip-rule="evenodd" d="M4.54145 0.146447C4.63521 0.0526784 4.76239 0 4.895 0H11.105C11.2376 0 11.3648 0.0526784 11.4586 0.146447L15.8536 4.54145C15.9473 4.63521 16 4.76239 16 4.895V11.105C16 11.2376 15.9473 11.3648 15.8536 11.4586L11.4586 15.8536C11.3648 15.9473 11.2376 16 11.105 16H4.895C4.76239 16 4.63521 15.9473 4.54145 15.8536L0.146447 11.4586C0.0526784 11.3648 0 11.2376 0 11.105V4.895C0 4.76239 0.0526784 4.63521 0.146447 4.54145L4.54145 0.146447ZM5.10211 1L1 5.10211V10.8979L5.10211 15H10.8979L15 10.8979V5.10211L10.8979 1H5.10211Z" fill="#0E1011"/>
</svg>
