<svg viewBox="0 0 16 16" fill="none" xmlns="http://www.w3.org/2000/svg">
<path fill-rule="evenodd" clip-rule="evenodd" d="M14 0.837158V11C14 12.1046 13.1046 13 12 13H11C9.89543 13 9 12.1046 9 11C9 9.89545 9.89543 9.00002 11 9.00002H13V2.16289L7.36264 3.77356C7.14799 3.83489 7 4.03108 7 4.25432V13C7 14.1046 6.10457 15 5 15H4C2.89543 15 2 14.1046 2 13C2 11.8955 2.89543 11 4 11H6V4.25432C6 3.5846 6.44397 2.99603 7.08792 2.81204L14 0.837158ZM6 12H4C3.44772 12 3 12.4477 3 13C3 13.5523 3.44772 14 4 14H5C5.55228 14 6 13.5523 6 13V12ZM13 10H11C10.4477 10 10 10.4477 10 11C10 11.5523 10.4477 12 11 12H12C12.5523 12 13 11.5523 13 11V10Z" fill="#0E1011"/>
</svg>
