<svg width="13" viewBox="0 0 13 12" fill="none" xmlns="http://www.w3.org/2000/svg">
<path d="M0.375 9C0.167893 9 0 8.83211 0 8.625C0 8.41789 0.167893 8.25 0.375 8.25H1.84835C2.24617 8.25 2.62771 8.09196 2.90901 7.81066L3.85984 6.85984C4.00628 6.71339 4.24372 6.71339 4.39016 6.85984C4.53661 7.00628 4.53661 7.24372 4.39016 7.39017L3.43934 8.34099C3.01738 8.76295 2.44509 9 1.84835 9H0.375Z" fill="#0E1011"/>
<path d="M6.64017 5.14017C6.49372 5.28661 6.25628 5.28661 6.10983 5.14017C5.96339 4.99372 5.96339 4.75628 6.10983 4.60984L7.06066 3.65901C7.48262 3.23705 8.05491 3 8.65165 3H10.7197L9.85983 2.14017C9.71339 1.99372 9.71339 1.75628 9.85983 1.60983C10.0063 1.46339 10.2437 1.46339 10.3902 1.60983L12.1553 3.375L10.3902 5.14017C10.2437 5.28661 10.0063 5.28661 9.85983 5.14017C9.71339 4.99372 9.71339 4.75628 9.85983 4.60984L10.7197 3.75H8.65165C8.25383 3.75 7.87229 3.90804 7.59099 4.18934L6.64017 5.14017Z" fill="#0E1011"/>
<path d="M0.375 3C0.167893 3 0 3.16789 0 3.375C0 3.58211 0.167893 3.75 0.375 3.75H1.84835C2.24617 3.75 2.62771 3.90804 2.90901 4.18934L7.06066 8.34099C7.48262 8.76295 8.05491 9 8.65165 9H10.7197L9.85983 9.85983C9.71339 10.0063 9.71339 10.2437 9.85983 10.3902C10.0063 10.5366 10.2437 10.5366 10.3902 10.3902L12.1553 8.625L10.3902 6.85984C10.2437 6.71339 10.0063 6.71339 9.85983 6.85984C9.71339 7.00628 9.71339 7.24372 9.85983 7.39017L10.7197 8.25H8.65165C8.25383 8.25 7.8723 8.09197 7.59099 7.81066L3.43934 3.65901C3.01738 3.23705 2.44509 3 1.84835 3H0.375Z" fill="#0E1011"/>
</svg>
