<svg viewBox="0 0 16 16" fill="none" xmlns="http://www.w3.org/2000/svg">
<path fill-rule="evenodd" clip-rule="evenodd" d="M0 9.5C0 7.73672 1.30392 6.27798 3.00013 6.03543L3 6C3 5.72684 2.96269 5.45368 2.87788 5.18052C2.86429 5.13673 2.84948 5.09295 2.8334 5.04917C2.72301 4.74851 2.55309 4.44785 2.31007 4.1472C2.00097 3.7648 1.5736 3.3824 1 3C1.65987 3 2.28419 3.08886 2.86291 3.25988C5.3538 3.99598 7 6.25413 7 9.5C7 11.433 5.433 13 3.5 13C1.567 13 0 11.433 0 9.5ZM4 6C4 5.57983 3.93461 5.17285 3.7994 4.77902C4.08815 4.96789 4.35084 5.18817 4.58549 5.43662C5.44384 6.34547 6 7.71 6 9.5C6 10.8807 4.88071 12 3.5 12C2.11929 12 1 10.8807 1 9.5C1 8.24137 1.93105 7.19848 3.14169 7.02535C3.63714 6.95451 4.00392 6.52829 4.00011 6.02781L4 6Z" fill="#0E1011"/>
<path fill-rule="evenodd" clip-rule="evenodd" d="M9 9.5C9 7.73673 10.3039 6.27801 12.0001 6.03543L12 6C12 5.72673 11.9627 5.45347 11.8778 5.1802C11.8642 5.13653 11.8494 5.09285 11.8334 5.04917C11.723 4.74851 11.5531 4.44785 11.3101 4.1472C11.001 3.7648 10.5736 3.3824 10 3C10.6599 3 11.2842 3.08886 11.8629 3.25988C14.3538 3.99598 16 6.25413 16 9.5C16 11.433 14.433 13 12.5 13C10.567 13 9 11.433 9 9.5ZM13 6C13 5.57983 12.9346 5.17285 12.7994 4.77902C13.0881 4.96789 13.3508 5.18817 13.5855 5.43662C14.4438 6.34547 15 7.71 15 9.5C15 10.8807 13.8807 12 12.5 12C11.1193 12 10 10.8807 10 9.5C10 8.24138 10.931 7.19849 12.1417 7.02536C12.6362 6.95463 13.0027 6.52974 13.0001 6.03015L13 6Z" fill="#0E1011"/>
</svg>
