<svg viewBox="0 0 12 12" fill="none" xmlns="http://www.w3.org/2000/svg">
<path fill-rule="evenodd" clip-rule="evenodd" d="M12 1.125C12 1.00057 11.9383 0.884238 11.8352 0.814477C11.7322 0.744715 11.6013 0.730609 11.4857 0.776823L7.875 2.22111L4.26427 0.776823C4.17487 0.741061 4.07513 0.741061 3.98573 0.776823L0.235728 2.27682C0.0933566 2.33377 0 2.47166 0 2.625V11C0 11.1263 0.063598 11.2442 0.169195 11.3135C0.274792 11.3828 0.408197 11.3943 0.524103 11.3441L4.125 9.7837L7.7259 11.3441C7.82103 11.3853 7.92897 11.3853 8.0241 11.3441L11.7741 9.71908C11.9112 9.65966 12 9.52446 12 9.375V1.125ZM4.125 1.59377C4.28033 1.59377 4.40625 1.71969 4.40625 1.87502V8.62502C4.40625 8.78035 4.28033 8.90627 4.125 8.90627C3.96967 8.90627 3.84375 8.78035 3.84375 8.62502V1.87502C3.84375 1.71969 3.96967 1.59377 4.125 1.59377ZM7.875 3.09377C8.03033 3.09377 8.15625 3.21969 8.15625 3.37502V10.125C8.15625 10.2804 8.03033 10.4063 7.875 10.4063C7.71967 10.4063 7.59375 10.2804 7.59375 10.125V3.37502C7.59375 3.21969 7.71967 3.09377 7.875 3.09377Z" fill="#0E1011"/>
</svg>
