<svg viewBox="0 0 16 16" fill="none" xmlns="http://www.w3.org/2000/svg">
<path d="M2.5 9.125C2.29289 9.125 2.125 9.29289 2.125 9.5C2.125 9.70711 2.29289 9.875 2.5 9.875H7.5C7.70711 9.875 7.875 9.70711 7.875 9.5C7.875 9.29289 7.70711 9.125 7.5 9.125H2.5Z" fill="#0E1011"/>
<path d="M2.5 11.125C2.29289 11.125 2.125 11.2929 2.125 11.5C2.125 11.7071 2.29289 11.875 2.5 11.875H4.5C4.70711 11.875 4.875 11.7071 4.875 11.5C4.875 11.2929 4.70711 11.125 4.5 11.125H2.5Z" fill="#0E1011"/>
<path fill-rule="evenodd" clip-rule="evenodd" d="M0 4.25C0 3.00736 1.00736 2 2.25 2H13.75C14.9926 2 16 3.00736 16 4.25V11.75C16 12.9926 14.9926 14 13.75 14H2.25C1.00736 14 0 12.9926 0 11.75V4.25ZM2.25 3C1.55964 3 1 3.55964 1 4.25V5H15V4.25C15 3.55964 14.4404 3 13.75 3H2.25ZM1 11.75V7H15V11.75C15 12.4404 14.4404 13 13.75 13H2.25C1.55964 13 1 12.4404 1 11.75Z" fill="#0E1011"/>
</svg>
