<svg viewBox="0 0 16 16" fill="none" xmlns="http://www.w3.org/2000/svg">
<path d="M2.5 9.125C2.29289 9.125 2.125 9.29289 2.125 9.5C2.125 9.70711 2.29289 9.875 2.5 9.875H7.5C7.70711 9.875 7.875 9.70711 7.875 9.5C7.875 9.29289 7.70711 9.125 7.5 9.125H2.5Z" fill="#0E1011"/>
<path d="M2.5 11.125C2.29289 11.125 2.125 11.2929 2.125 11.5C2.125 11.7071 2.29289 11.875 2.5 11.875H4.5C4.70711 11.875 4.875 11.7071 4.875 11.5C4.875 11.2929 4.70711 11.125 4.5 11.125H2.5Z" fill="#0E1011"/>
<path fill-rule="evenodd" clip-rule="evenodd" d="M0 4.25C0 3.00736 1.00736 2 2.25 2H13.75C14.9926 2 16 3.00736 16 4.25V9.5C16 9.77614 15.7761 10 15.5 10C15.2239 10 15 9.77614 15 9.5V7H1V11.75C1 12.4404 1.55964 13 2.25 13H6.5C6.77614 13 7 13.2239 7 13.5C7 13.7761 6.77614 14 6.5 14H2.25C1.00736 14 0 12.9926 0 11.75V4.25ZM1 4.25C1 3.55964 1.55964 3 2.25 3H13.75C14.4404 3 15 3.55964 15 4.25V5H1V4.25Z" fill="#0E1011"/>
<path d="M12.5 9C12.7761 9 13 9.22386 13 9.5V12H15.5C15.7761 12 16 12.2239 16 12.5C16 12.7761 15.7761 13 15.5 13H13V15.5C13 15.7761 12.7761 16 12.5 16C12.2239 16 12 15.7761 12 15.5V13H9.5C9.22386 13 9 12.7761 9 12.5C9 12.2239 9.22386 12 9.5 12H12V9.5C12 9.22386 12.2239 9 12.5 9Z" fill="#0E1011"/>
</svg>
