<svg viewBox="0 0 16 16" fill="none" xmlns="http://www.w3.org/2000/svg">
<path fill-rule="evenodd" clip-rule="evenodd" d="M0 2.5C0 1.67157 0.671573 1 1.5 1H5.87868C6.40911 1 6.91782 1.21071 7.29289 1.58579L7.70711 2H14C15.1046 2 16 2.89543 16 4V7.5C16 7.77614 15.7761 8 15.5 8C15.2239 8 15 7.77614 15 7.5V4C15 3.44772 14.5523 3 14 3H7.70711L7.29289 3.41421C6.91782 3.78929 6.40911 4 5.87868 4H1V12C1 12.5523 1.44772 13 2 13H7.5C7.77614 13 8 13.2239 8 13.5C8 13.7761 7.77614 14 7.5 14H2C0.895431 14 0 13.1046 0 12V2.5ZM1 3H5.87868C6.1439 3 6.39825 2.89464 6.58579 2.70711L6.79289 2.5L6.58579 2.29289C6.39825 2.10536 6.1439 2 5.87868 2H1.5C1.22386 2 1 2.22386 1 2.5V3ZM9.64645 9.64645C9.84171 9.45118 10.1583 9.45118 10.3536 9.64645L12.5 11.7929L14.6464 9.64645C14.8417 9.45118 15.1583 9.45118 15.3536 9.64645C15.5488 9.84171 15.5488 10.1583 15.3536 10.3536L13.2071 12.5L15.3536 14.6464C15.5488 14.8417 15.5488 15.1583 15.3536 15.3536C15.1583 15.5488 14.8417 15.5488 14.6464 15.3536L12.5 13.2071L10.3536 15.3536C10.1583 15.5488 9.84171 15.5488 9.64645 15.3536C9.45118 15.1583 9.45118 14.8417 9.64645 14.6464L11.7929 12.5L9.64645 10.3536C9.45118 10.1583 9.45118 9.84171 9.64645 9.64645Z" fill="#0E1011"/>
</svg>
