<svg viewBox="0 0 12 12" fill="none" xmlns="http://www.w3.org/2000/svg">
<path fill-rule="evenodd" clip-rule="evenodd" d="M3 1C1.89543 1 1 1.89543 1 3V9C1 10.1046 1.89543 11 3 11H9C10.1046 11 11 10.1046 11 9V3C11 1.89543 10.1046 1 9 1H3ZM4.85355 4.14645C4.65829 3.95118 4.34171 3.95118 4.14645 4.14645C3.95118 4.34171 3.95118 4.65829 4.14645 4.85355L5.29289 6L4.14645 7.14645C3.95118 7.34171 3.95118 7.65829 4.14645 7.85355C4.34171 8.04882 4.65829 8.04882 4.85355 7.85355L6 6.70711L7.14645 7.85355C7.34171 8.04882 7.65829 8.04882 7.85355 7.85355C8.04882 7.65829 8.04882 7.34171 7.85355 7.14645L6.70711 6L7.85355 4.85355C8.04882 4.65829 8.04882 4.34171 7.85355 4.14645C7.65829 3.95118 7.34171 3.95118 7.14645 4.14645L6 5.29289L4.85355 4.14645Z" fill="#0E1011"/>
</svg>
