<svg height="13" viewBox="0 0 12 13" fill="none" xmlns="http://www.w3.org/2000/svg">
<path fill-rule="evenodd" clip-rule="evenodd" d="M10.1705 0.672279C9.73116 0.232939 9.01885 0.232938 8.57951 0.672278L0.859835 8.39195C0.789509 8.46227 0.75 8.55766 0.75 8.65711V10.1571C0.75 10.3642 0.917893 10.5321 1.125 10.5321H2.625C2.72446 10.5321 2.81984 10.4926 2.89016 10.4223L10.6098 2.70261C11.0492 2.26327 11.0492 1.55096 10.6098 1.11162L10.1705 0.672279ZM9.10984 1.20261C9.25628 1.05616 9.49372 1.05616 9.64017 1.20261L10.0795 1.64195C10.226 1.7884 10.226 2.02583 10.0795 2.17228L9 3.25178L8.03033 2.28211L9.10984 1.20261ZM7.5 2.81244L8.46967 3.78211L2.46967 9.78211H1.5V8.81244L7.5 2.81244Z" fill="#0E1011"/>
<path d="M0.75 11.2821C0.542893 11.2821 0.375 11.45 0.375 11.6571C0.375 11.8642 0.542893 12.0321 0.75 12.0321H11.25C11.4571 12.0321 11.625 11.8642 11.625 11.6571C11.625 11.45 11.4571 11.2821 11.25 11.2821H0.75Z" fill="#0E1011"/>
</svg>
