<svg viewBox="0 0 12 12" fill="none" xmlns="http://www.w3.org/2000/svg">
<path d="M1.75 2.27274C1.75 1.98674 1.98185 1.75488 2.26786 1.75488H6.73214C7.01815 1.75488 7.25 1.98674 7.25 2.27274V2.49988C7.25 2.70698 7.41789 2.87488 7.625 2.87488C7.83211 2.87488 8 2.70698 8 2.49988V2.27274C8 1.57252 7.43236 1.00488 6.73214 1.00488H2.26786C1.56764 1.00488 1 1.57252 1 2.27274V6.73703C1 7.43724 1.56764 8.00488 2.26786 8.00488H2.5C2.70711 8.00488 2.875 7.83699 2.875 7.62988C2.875 7.42278 2.70711 7.25488 2.5 7.25488H2.26786C1.98185 7.25488 1.75 7.02303 1.75 6.73703V2.27274Z" fill="#0E1011"/>
<path fill-rule="evenodd" clip-rule="evenodd" d="M5.5 10.9999H9.5C10.3284 10.9999 11 10.3283 11 9.49988V5.49988C11 4.67145 10.3284 3.99988 9.5 3.99988H5.5C4.67157 3.99988 4 4.67145 4 5.49988V9.49988C4 10.3283 4.67157 10.9999 5.5 10.9999ZM9.5 10.2499H5.5C5.08579 10.2499 4.75 9.91409 4.75 9.49988V5.49988C4.75 5.08566 5.08579 4.74988 5.5 4.74988H9.5C9.91421 4.74988 10.25 5.08566 10.25 5.49988V9.49988C10.25 9.91409 9.91421 10.2499 9.5 10.2499Z" fill="#0E1011"/>
</svg>
