<svg viewBox="0 0 16 16" fill="none" xmlns="http://www.w3.org/2000/svg">
<path fill-rule="evenodd" clip-rule="evenodd" d="M10 0L8.74029 5.34808C8.68613 5.61886 8.42272 5.79447 8.15194 5.74031C7.88116 5.68615 7.70555 5.42274 7.75971 5.15196L8.18585 3.02128L7.10355 4.10357C6.90829 4.29884 6.59171 4.29884 6.39645 4.10357C6.20118 3.90831 6.20118 3.59173 6.39645 3.39647L10 0ZM0.396447 0.396467C0.591709 0.201205 0.908291 0.201205 1.10355 0.396467L15.6036 14.8965C15.7988 15.0917 15.7988 15.4083 15.6036 15.6036C15.4083 15.7988 15.0917 15.7988 14.8964 15.6036L10.6353 11.3424L5.5 16L7.37374 9.84749L1.53721 8.2557L4.54289 5.25002L0.396447 1.10357C0.201184 0.908312 0.201184 0.591729 0.396447 0.396467ZM5.25 5.95713L3.46279 7.74434L8.37762 9.08475L5.25 5.95713ZM8.58453 9.29165L7.50732 12.8823L9.9277 10.6348L8.58453 9.29165ZM9.58012 6.93096C9.65278 6.66455 9.92765 6.50748 10.1941 6.58014L14.4994 7.75432L12.5439 9.57012C12.3416 9.75802 12.0252 9.74631 11.8373 9.54395C11.6494 9.34159 11.6611 9.02523 11.8635 8.83733L12.5006 8.24572L9.93094 7.5449C9.66453 7.47224 9.50746 7.19737 9.58012 6.93096Z" fill="#0E1011"/>
</svg>
