<svg viewBox="0 0 12 12" fill="none" xmlns="http://www.w3.org/2000/svg">
<path fill-rule="evenodd" clip-rule="evenodd" d="M9 3C9 4.65685 7.65685 6 6 6C4.34315 6 3 4.65685 3 3C3 1.34315 4.34315 0 6 0C7.65685 0 9 1.34315 9 3ZM8.25 3C8.25 4.24264 7.24264 5.25 6 5.25C4.75736 5.25 3.75 4.24264 3.75 3C3.75 1.75736 4.75736 0.75 6 0.75C7.24264 0.75 8.25 1.75736 8.25 3Z" fill="#0E1011"/>
<path d="M6 6.75V7.5H3.12625C2.56639 7.5 2.09173 7.91167 2.01255 8.4659L1.89689 9.27553C2.85995 10.4803 4.3401 11.25 6 11.25V12C3.98279 12 2.19809 11.0045 1.11035 9.47802L1.27009 8.35983C1.40205 7.43612 2.19315 6.75 3.12625 6.75H6Z" fill="#0E1011"/>
<path d="M11.8902 8.89017C12.0366 8.74372 12.0366 8.50628 11.8902 8.35983C11.7437 8.21339 11.5063 8.21339 11.3598 8.35983L8.625 11.0947L7.39017 9.85983C7.24372 9.71339 7.00628 9.71339 6.85984 9.85983C6.71339 10.0063 6.71339 10.2437 6.85984 10.3902L8.35983 11.8902C8.50628 12.0366 8.74372 12.0366 8.89017 11.8902L11.8902 8.89017Z" fill="#0E1011"/>
</svg>
