<svg viewBox="0 0 16 16" fill="none" xmlns="http://www.w3.org/2000/svg">
<path d="M3 1C1.89543 1 1 1.89543 1 3V9C1 10.1046 1.89543 11 3 11H3.5C3.77614 11 4 10.7761 4 10.5C4 10.2239 3.77614 10 3.5 10H3C2.44772 10 2 9.55228 2 9V3C2 2.44772 2.44772 2 3 2H9C9.55228 2 10 2.44772 10 3V3.5C10 3.77614 10.2239 4 10.5 4C10.7761 4 11 3.77614 11 3.5V3C11 1.89543 10.1046 1 9 1H3Z" fill="#0E1011"/>
<path fill-rule="evenodd" clip-rule="evenodd" d="M7 5C5.89543 5 5 5.89543 5 7V13C5 14.1046 5.89543 15 7 15H13C14.1046 15 15 14.1046 15 13V7C15 5.89543 14.1046 5 13 5H7ZM6 7C6 6.44772 6.44772 6 7 6H13C13.5523 6 14 6.44772 14 7V13C14 13.5523 13.5523 14 13 14H7C6.44772 14 6 13.5523 6 13V7Z" fill="#0E1011"/>
</svg>
