<svg viewBox="0 0 16 16" fill="none" xmlns="http://www.w3.org/2000/svg">
<path fill-rule="evenodd" clip-rule="evenodd" d="M16 7.5C16 7.66801 15.9945 7.83474 15.9836 8H8V0.0164023C8.16526 0.00552468 8.33199 0 8.5 0C8.66801 0 8.83474 0.00552468 9 0.0164023C12.7438 0.262818 15.7372 3.25625 15.9836 7C15.9945 7.16526 16 7.33199 16 7.5ZM14.9811 7H9V1.01894C12.1912 1.2617 14.7383 3.8088 14.9811 7Z" fill="#0E1011"/>
<path fill-rule="evenodd" clip-rule="evenodd" d="M14.9836 8.99994H7V1.01636C6.65998 1.03874 6.32615 1.08378 6 1.14998C2.57664 1.84489 0 4.87152 0 8.49996C0 12.6421 3.35786 16 7.5 16C11.1284 16 14.1551 13.4233 14.85 9.99994C14.9162 9.67379 14.9612 9.33996 14.9836 8.99994ZM6 8.99994C6 9.55222 6.44772 9.99994 7 9.99994H13.8262C13.1493 12.8663 10.5735 15 7.5 15C3.91015 15 1 12.0898 1 8.49996C1 5.42647 3.13363 2.85067 6 2.17374V8.99994Z" fill="#0E1011"/>
</svg>
