<svg viewBox="0 0 16 16" fill="none" xmlns="http://www.w3.org/2000/svg">
<path fill-rule="evenodd" clip-rule="evenodd" d="M15.9997 1.5V6.58579C15.9997 6.98361 15.8417 7.36514 15.5604 7.64645L8.01747 15.1893C7.04116 16.1657 5.45824 16.1656 4.48193 15.1893L0.810358 11.5178C-0.165952 10.5415 -0.165953 8.95854 0.810358 7.98223L8.35325 0.43934C8.63456 0.158035 9.01609 0 9.41391 0H14.4997C15.3281 0 15.9997 0.671573 15.9997 1.5ZM8.9997 5C8.9997 6.10457 9.89513 7 10.9997 7C12.1043 7 12.9997 6.10457 12.9997 5C12.9997 3.89543 12.1043 3 10.9997 3C9.89513 3 8.9997 3.89543 8.9997 5Z" fill="#0E1011"/>
</svg>
