<svg viewBox="0 0 16 16" fill="none" xmlns="http://www.w3.org/2000/svg">
<path fill-rule="evenodd" clip-rule="evenodd" d="M5 4C5 2.89543 5.89543 2 7 2C8.10457 2 9 2.89543 9 4C9 5.10457 8.10457 6 7 6H1.5C1.22386 6 1 5.77614 1 5.5C1 5.22386 1.22386 5 1.5 5H7C7.55228 5 8 4.55228 8 4C8 3.44772 7.55228 3 7 3C6.44772 3 6 3.44772 6 4V4.09505C6 4.37119 5.77614 4.59505 5.5 4.59505C5.22386 4.59505 5 4.37119 5 4.09505V4ZM10 6C10 4.61929 11.1193 3.5 12.5 3.5C13.8807 3.5 15 4.61929 15 6V6.25C15 7.76878 13.7688 9 12.25 9H1.5C1.22386 9 1 8.77614 1 8.5C1 8.22386 1.22386 8 1.5 8H12.25C13.2165 8 14 7.2165 14 6.25V6C14 5.17157 13.3284 4.5 12.5 4.5C11.6716 4.5 11 5.17157 11 6V6.05008C11 6.32623 10.7761 6.55008 10.5 6.55008C10.2239 6.55008 10 6.32623 10 6.05008V6ZM1 11.5C1 11.2239 1.22386 11 1.5 11H9C10.1046 11 11 11.8954 11 13C11 14.1046 10.1046 15 9 15C7.89543 15 7 14.1046 7 13V12.876C7 12.5998 7.22386 12.376 7.5 12.376C7.77614 12.376 8 12.5998 8 12.876V13C8 13.5523 8.44772 14 9 14C9.55229 14 10 13.5523 10 13C10 12.4477 9.55228 12 9 12H1.5C1.22386 12 1 11.7761 1 11.5Z" fill="#0E1011"/>
</svg>
