<svg viewBox="0 0 12 12" fill="none" xmlns="http://www.w3.org/2000/svg">
<path fill-rule="evenodd" clip-rule="evenodd" d="M6.99266 0.392072C6.43413 -0.130691 5.56587 -0.130691 5.00734 0.392072L4.44751 0.916044C4.19045 1.15663 3.85477 1.29568 3.50288 1.30732L2.73652 1.33268C1.97192 1.35797 1.35797 1.97192 1.33268 2.73652L1.30732 3.50288C1.29568 3.85477 1.15663 4.19045 0.916044 4.44751L0.392072 5.00734C-0.130691 5.56587 -0.130691 6.43413 0.392072 6.99266L0.916044 7.55249C1.15663 7.80955 1.29568 8.14523 1.30732 8.49712L1.33268 9.26348C1.35797 10.0281 1.97192 10.642 2.73652 10.6673L3.50288 10.6927C3.85477 10.7043 4.19045 10.8434 4.44751 11.084L5.00734 11.6079C5.56587 12.1307 6.43413 12.1307 6.99266 11.6079L7.55249 11.084C7.80955 10.8434 8.14523 10.7043 8.49712 10.6927L9.26348 10.6673C10.0281 10.642 10.642 10.0281 10.6673 9.26348L10.6927 8.49712C10.7043 8.14523 10.8434 7.80955 11.084 7.55249L11.6079 6.99266C12.1307 6.43413 12.1307 5.56587 11.6079 5.00734L11.084 4.44751C10.8434 4.19045 10.7043 3.85477 10.6927 3.50288L10.6673 2.73652C10.642 1.97192 10.0281 1.35797 9.26348 1.33268L8.49712 1.30732C8.14523 1.29568 7.80955 1.15663 7.55249 0.916044L6.99266 0.392072ZM8.76517 4.76516C8.91161 4.61872 8.91161 4.38128 8.76517 4.23484C8.61872 4.08839 8.38128 4.08839 8.23483 4.23484L5.5 6.96967L4.26516 5.73483C4.11872 5.58839 3.88128 5.58839 3.73483 5.73483C3.58839 5.88128 3.58839 6.11872 3.73483 6.26517L5.5 8.03033L8.76517 4.76516Z" fill="#0E1011"/>
</svg>
