<svg viewBox="0 0 16 16" fill="none" xmlns="http://www.w3.org/2000/svg">
<path d="M5.68656 4.35355C5.88182 4.15829 5.88182 3.84171 5.68656 3.64645C5.4913 3.45118 5.17472 3.45118 4.97945 3.64645L0.979454 7.64645C0.784192 7.84171 0.784192 8.15829 0.979454 8.35355L4.97945 12.3536C5.17472 12.5488 5.4913 12.5488 5.68656 12.3536C5.88182 12.1583 5.88182 11.8417 5.68656 11.6464L2.04011 8L5.68656 4.35355Z" fill="#0E1011"/>
<path d="M11.0199 3.64645C10.8247 3.45118 10.5081 3.45118 10.3128 3.64645C10.1176 3.84171 10.1176 4.15829 10.3128 4.35355L13.9593 8L10.3128 11.6464C10.1176 11.8417 10.1176 12.1583 10.3128 12.3536C10.5081 12.5488 10.8247 12.5488 11.0199 12.3536L15.0199 8.35355C15.2152 8.15829 15.2152 7.84171 15.0199 7.64645L11.0199 3.64645Z" fill="#0E1011"/>
</svg>
