<svg viewBox="0 0 12 12" fill="none" xmlns="http://www.w3.org/2000/svg">
<path d="M4.96875 6.375V5.90625H7.03125V6.375C7.03125 6.63388 6.82138 6.84375 6.5625 6.84375H5.4375C5.17862 6.84375 4.96875 6.63388 4.96875 6.375Z" fill="#0E1011"/>
<path fill-rule="evenodd" clip-rule="evenodd" d="M4.5 0.5C4.08579 0.5 3.75 0.835786 3.75 1.25V2H0.9375C0.419733 2 0 2.41973 0 2.9375V9.0625C0 9.58027 0.419733 10 0.9375 10H11.0625C11.5803 10 12 9.58027 12 9.0625V2.9375C12 2.41973 11.5803 2 11.0625 2H8.25V1.25C8.25 0.835786 7.91421 0.5 7.5 0.5H4.5ZM7.5 2H4.5V1.25H7.5V2ZM1.125 5.34375C0.96967 5.34375 0.84375 5.46967 0.84375 5.625C0.84375 5.78033 0.96967 5.90625 1.125 5.90625H4.40625V6.375C4.40625 6.94454 4.86796 7.40625 5.4375 7.40625H6.5625C7.13204 7.40625 7.59375 6.94454 7.59375 6.375V5.90625H10.875C11.0303 5.90625 11.1562 5.78033 11.1562 5.625C11.1562 5.46967 11.0303 5.34375 10.875 5.34375H1.125Z" fill="#0E1011"/>
</svg>
