<svg viewBox="0 0 16 16" fill="none" xmlns="http://www.w3.org/2000/svg">
<path fill-rule="evenodd" clip-rule="evenodd" d="M15.2943 7.99992C15.2943 12.0313 12.0262 15.2994 7.99479 15.2994C3.9634 15.2994 0.695312 12.0313 0.695312 7.99992C0.695312 3.96853 3.9634 0.700439 7.99479 0.700439C12.0262 0.700439 15.2943 3.96853 15.2943 7.99992ZM12.9535 11.8856C11.8003 13.3552 10.0078 14.2994 7.99479 14.2994C7.95062 14.2994 7.90656 14.2989 7.8626 14.298L11.0875 8.71235L12.8571 11.7774C12.8823 11.8211 12.9154 11.8574 12.9535 11.8856ZM13.3836 11.2643L10.1608 5.68229H13.7C13.7506 5.68229 13.7988 5.67172 13.8424 5.65266C14.1339 6.37808 14.2943 7.17027 14.2943 7.99992C14.2943 9.19496 13.9615 10.3123 13.3836 11.2643ZM13.519 4.96979L7.0733 4.96974L8.8429 1.9047C8.86878 1.85987 8.88381 1.81175 8.88881 1.76339C10.8876 2.04736 12.5844 3.26952 13.519 4.96979ZM8.1372 1.70202C8.08986 1.70097 8.04239 1.70044 7.99479 1.70044C5.98404 1.70044 4.19333 2.64252 3.03995 4.10937C3.08083 4.1382 3.11626 4.17614 3.14292 4.22231L4.91251 7.28734L8.1372 1.70202ZM2.6114 4.72669C2.03015 5.68061 1.69531 6.80116 1.69531 7.99992C1.69531 8.83107 1.85628 9.62462 2.14873 10.3511C2.19465 10.3295 2.24592 10.3175 2.3 10.3175L5.83921 10.3175L2.6114 4.72669ZM2.47058 11.03C3.40679 12.7332 5.10777 13.9567 7.11105 14.2379C7.11587 14.189 7.13095 14.1403 7.15712 14.095L8.92669 11.03L2.47058 11.03ZM9.33807 5.68229L10.6761 7.99989L9.33808 10.3174L6.66194 10.3174L5.32388 7.99985L6.66193 5.68229H9.33807Z" fill="#0E1011"/>
</svg>
