<svg viewBox="0 0 16 16" fill="none" xmlns="http://www.w3.org/2000/svg">
<path fill-rule="evenodd" clip-rule="evenodd" d="M7.5 1C3.91015 1 1 3.91015 1 7.5V13.2792C1 13.9249 1.41315 14.4981 2.02566 14.7023L2.61096 14.8974C2.81489 14.9653 3.02845 15 3.24342 15H3.5C4.32843 15 5 14.3284 5 13.5V10.5C5 9.67157 4.32843 9 3.5 9H3.24342C3.02845 9 2.81489 9.03466 2.61096 9.10263L2 9.30629V7.5C2 4.46243 4.46243 2 7.5 2H8.5C11.5376 2 14 4.46243 14 7.5V9.30629L13.389 9.10263C13.1851 9.03466 12.9715 9 12.7566 9H12.5C11.6716 9 11 9.67157 11 10.5V13.5C11 14.3284 11.6716 15 12.5 15H12.7566C12.9715 15 13.1851 14.9653 13.389 14.8974L13.9743 14.7023C14.5869 14.4981 15 13.9249 15 13.2792V7.5C15 3.91015 12.0899 1 8.5 1H7.5ZM2 10.75V10.3604L2.92719 10.0513C3.02916 10.0173 3.13593 10 3.24342 10H3.5C3.77614 10 4 10.2239 4 10.5V13.5C4 13.7761 3.77614 14 3.5 14H3.24342C3.13593 14 3.02916 13.9827 2.92719 13.9487L2.34189 13.7536C2.13772 13.6855 2 13.4945 2 13.2792V12.25H3.5V11.75H2V11.25H3.5V10.75H2ZM13.0728 10.0513L14 10.3604V10.75H12.5V11.25H14V11.75H12.5V12.25H14V13.2792C14 13.4945 13.8623 13.6855 13.6581 13.7536L13.0728 13.9487C12.9708 13.9827 12.8641 14 12.7566 14H12.5C12.2239 14 12 13.7761 12 13.5V10.5C12 10.2239 12.2239 10 12.5 10H12.7566C12.8641 10 12.9708 10.0173 13.0728 10.0513Z" fill="#0E1011"/>
</svg>
