<svg width="13" viewBox="0 0 13 12" fill="none" xmlns="http://www.w3.org/2000/svg">
<path fill-rule="evenodd" clip-rule="evenodd" d="M2.5 0.75C2.08579 0.75 1.75 1.08579 1.75 1.5V10.25C1.75 10.6642 2.08579 11 2.5 11H7C7.20711 11 7.375 11.1679 7.375 11.375C7.375 11.5821 7.20711 11.75 7 11.75H2.5C1.67157 11.75 1 11.0784 1 10.25V1.5C1 0.671573 1.67157 0 2.5 0H7.53033L10.75 3.21967V6.375C10.75 6.58211 10.5821 6.75 10.375 6.75C10.1679 6.75 10 6.58211 10 6.375V3.75H8.5C7.67157 3.75 7 3.07843 7 2.25V0.75H2.5ZM7.75 1.28033L9.46967 3H8.5C8.08579 3 7.75 2.66421 7.75 2.25V1.28033ZM8.04733 7.79733C8.19378 7.65089 8.43122 7.65089 8.57767 7.79733L10 9.21967L11.4223 7.79733C11.5688 7.65089 11.8062 7.65089 11.9527 7.79733C12.0991 7.94378 12.0991 8.18122 11.9527 8.32767L10.5303 9.75L11.9527 11.1723C12.0991 11.3188 12.0991 11.5562 11.9527 11.7027C11.8062 11.8491 11.5688 11.8491 11.4223 11.7027L10 10.2803L8.57767 11.7027C8.43122 11.8491 8.19378 11.8491 8.04733 11.7027C7.90089 11.5562 7.90089 11.3188 8.04733 11.1723L9.46967 9.75L8.04733 8.32767C7.90089 8.18122 7.90089 7.94378 8.04733 7.79733Z" fill="#0E1011"/>
</svg>
