<svg viewBox="0 0 12 12" fill="none" xmlns="http://www.w3.org/2000/svg">
<path fill-rule="evenodd" clip-rule="evenodd" d="M4.5 2.625C4.5 1.17525 5.30025 0 6.75 0H8.8125C9.12316 0 9.375 0.25184 9.375 0.5625V2.0625C9.375 2.37316 9.12316 2.625 8.8125 2.625H7.5C7.29289 2.625 7.125 2.79289 7.125 3V4.5H8.73986C9.1238 4.5 9.3949 4.87614 9.27349 5.24038L8.64849 6.74038C8.57193 6.97007 8.35697 7.125 8.11486 7.125H7.125V11.4375C7.125 11.7482 6.87316 12 6.5625 12H5.0625C4.75184 12 4.5 11.7482 4.5 11.4375V7.125H3.5625C3.25184 7.125 3 6.87316 3 6.5625V5.0625C3 4.75184 3.25184 4.5 3.5625 4.5H4.5V2.625ZM6.75 0.75C5.71447 0.75 5.25 1.58947 5.25 2.625V5.25H3.75V6.375H5.25V11.25H6.375V6.375H7.97972L8.47972 5.25H6.375V3C6.375 2.37868 6.87868 1.875 7.5 1.875H8.625V0.75H6.75Z" fill="#0E1011"/>
<path d="M5.25 2.625C5.25 1.58947 5.71447 0.75 6.75 0.75H8.625V1.875H7.5C6.87868 1.875 6.375 2.37868 6.375 3V5.25H8.47972L7.97972 6.375H6.375V11.25H5.25V6.375H3.75V5.25H5.25V2.625Z" fill="#0E1011"/>
</svg>
