<svg viewBox="0 0 12 12" fill="none" xmlns="http://www.w3.org/2000/svg">
<path fill-rule="evenodd" clip-rule="evenodd" d="M11.1402 0.859846C11.2512 0.970939 11.2813 1.13951 11.2155 1.28216L6.71547 11.0322C6.6465 11.1816 6.48814 11.2686 6.32502 11.2467C6.1619 11.2247 6.03215 11.099 6.00509 10.9367L5.29912 6.70087L1.06334 5.99491C0.900988 5.96785 0.775258 5.83809 0.753329 5.67497C0.731401 5.51185 0.8184 5.3535 0.967839 5.28453L10.7178 0.784526C10.8605 0.718688 11.0291 0.748752 11.1402 0.859846ZM2.38761 5.45527L5.68664 6.00511C5.84469 6.03145 5.96854 6.15531 5.99488 6.31336L6.54472 9.61239L10.108 1.89204L2.38761 5.45527Z" fill="#0E1011"/>
</svg>
