<svg viewBox="0 0 12 12" fill="none" xmlns="http://www.w3.org/2000/svg">
<path d="M5.83213 0.66459C5.93771 0.611803 6.06197 0.611803 6.16754 0.66459L11.1675 3.16459C11.2946 3.22811 11.3748 3.35796 11.3748 3.5C11.3748 3.64204 11.2946 3.77189 11.1675 3.83541L6.16754 6.33541C6.06197 6.3882 5.93771 6.3882 5.83213 6.33541L0.832133 3.83541C0.705089 3.77189 0.624838 3.64204 0.624838 3.5C0.624838 3.35796 0.705089 3.22811 0.832133 3.16459L5.83213 0.66459Z" fill="#0E1011"/>
<path d="M0.664428 8.33229C0.757049 8.14705 0.982301 8.07197 1.16754 8.16459L5.99984 10.5807L10.8321 8.16459C11.0174 8.07197 11.2426 8.14705 11.3352 8.33229C11.4279 8.51754 11.3528 8.74279 11.1675 8.83541L6.16754 11.3354C6.06197 11.3882 5.93771 11.3882 5.83213 11.3354L0.832133 8.83541C0.646891 8.74279 0.571807 8.51754 0.664428 8.33229Z" fill="#0E1011"/>
<path d="M1.16754 5.66458C0.982301 5.57196 0.757049 5.64705 0.664428 5.83229C0.571807 6.01753 0.646891 6.24278 0.832133 6.3354L5.83213 8.8354C5.93771 8.88819 6.06197 8.88819 6.16754 8.8354L11.1675 6.3354C11.3528 6.24278 11.4279 6.01753 11.3352 5.83229C11.2426 5.64705 11.0174 5.57196 10.8321 5.66458L5.99984 8.08073L1.16754 5.66458Z" fill="#0E1011"/>
</svg>
