<svg viewBox="0 0 16 16" fill="none" xmlns="http://www.w3.org/2000/svg">
<path fill-rule="evenodd" clip-rule="evenodd" d="M4.77778 8C4.77778 6.22042 6.22042 4.77778 8 4.77778C9.77958 4.77778 11.2222 6.22042 11.2222 8C11.2222 9.77958 9.77958 11.2222 8 11.2222C6.22042 11.2222 4.77778 9.77958 4.77778 8ZM8 5.44444C6.58861 5.44444 5.44444 6.58861 5.44444 8C5.44444 9.41139 6.58861 10.5556 8 10.5556C9.41139 10.5556 10.5556 9.41139 10.5556 8C10.5556 6.58861 9.41139 5.44444 8 5.44444Z" fill="#0E1011"/>
<path fill-rule="evenodd" clip-rule="evenodd" d="M8 3C5.23858 3 3 5.23858 3 8C3 10.7614 5.23858 13 8 13C10.7614 13 13 10.7614 13 8C13 5.23858 10.7614 3 8 3ZM3.66667 8C3.66667 5.60677 5.60677 3.66667 8 3.66667C10.3932 3.66667 12.3333 5.60677 12.3333 8C12.3333 10.3932 10.3932 12.3333 8 12.3333C5.60677 12.3333 3.66667 10.3932 3.66667 8Z" fill="#0E1011"/>
<path fill-rule="evenodd" clip-rule="evenodd" d="M15.2943 8.00004C15.2943 12.0314 12.0262 15.2995 7.99479 15.2995C3.9634 15.2995 0.695312 12.0314 0.695312 8.00004C0.695312 3.96865 3.9634 0.700562 7.99479 0.700562C12.0262 0.700562 15.2943 3.96865 15.2943 8.00004ZM14.2943 8.00004C14.2943 11.4791 11.4739 14.2995 7.99479 14.2995C4.51569 14.2995 1.69531 11.4791 1.69531 8.00004C1.69531 4.52094 4.51569 1.70056 7.99479 1.70056C11.4739 1.70056 14.2943 4.52094 14.2943 8.00004Z" fill="#0E1011"/>
</svg>
