<svg viewBox="0 0 16 16" fill="none" xmlns="http://www.w3.org/2000/svg">
<path d="M11.5 9C11.2239 9 11 9.22386 11 9.5C11 9.77614 11.2239 10 11.5 10H13.5C13.7761 10 14 9.77614 14 9.5C14 9.22386 13.7761 9 13.5 9H11.5Z" fill="#0E1011"/>
<path fill-rule="evenodd" clip-rule="evenodd" d="M3.42705 3C2.66951 3 1.97698 3.428 1.6382 4.10557L0.369505 6.64296C0.126508 7.12895 0 7.66485 0 8.2082V11C0 12.1046 0.895431 13 2 13H14C15.1046 13 16 12.1046 16 11V8.2082C16 7.66485 15.8735 7.12895 15.6305 6.64296L14.3618 4.10557C14.023 3.428 13.3305 3 12.5729 3H3.42705ZM2.53262 4.55279C2.70202 4.214 3.04828 4 3.42705 4H12.5729C12.9517 4 13.298 4.214 13.4674 4.55279L14.7361 7.09017C14.7739 7.16588 14.8078 7.24328 14.8377 7.32207C14.5856 7.19596 14.3011 7.125 14 7.125H2C1.69893 7.125 1.41443 7.19596 1.16232 7.32207C1.19218 7.24328 1.22608 7.16588 1.26393 7.09017L2.53262 4.55279ZM1 8.4841V11C1 11.5523 1.44772 12 2 12H14C14.5523 12 15 11.5523 15 11V8.4841C14.813 8.1223 14.4354 7.875 14 7.875H2C1.56463 7.875 1.18703 8.12231 1 8.4841Z" fill="#0E1011"/>
</svg>
