<svg viewBox="0 0 16 16" fill="none" xmlns="http://www.w3.org/2000/svg">
<path fill-rule="evenodd" clip-rule="evenodd" d="M4.25 14C3.55964 14 3 13.4403 3 12.75V7.74995C3 7.0596 3.55964 6.49995 4.25 6.49995H4.5C4.77614 6.49995 5 6.2761 5 5.99995C5 5.72381 4.77614 5.49995 4.5 5.49995H4.25C3.00736 5.49995 2 6.50731 2 7.74995V12.75C2 13.9926 3.00736 15 4.25 15H11.75C12.9926 15 14 13.9926 14 12.75V7.74995C14 6.50731 12.9926 5.49995 11.75 5.49995H11.5C11.2239 5.49995 11 5.72381 11 5.99995C11 6.2761 11.2239 6.49995 11.5 6.49995H11.75C12.4404 6.49995 13 7.0596 13 7.74995V12.75C13 13.4403 12.4404 14 11.75 14H4.25ZM8 11C8.27614 11 8.5 10.7761 8.5 10.5V2.20706L10.6464 4.35351C10.8417 4.54877 11.1583 4.54877 11.3536 4.35351C11.5488 4.15824 11.5488 3.84166 11.3536 3.6464L8 0.292847L4.64645 3.6464C4.45118 3.84166 4.45118 4.15824 4.64645 4.35351C4.84171 4.54877 5.15829 4.54877 5.35355 4.35351L7.5 2.20706V10.5C7.5 10.7761 7.72386 11 8 11Z" fill="#0E1011"/>
</svg>
