<svg viewBox="0 0 12 12" fill="none" xmlns="http://www.w3.org/2000/svg">
<path fill-rule="evenodd" clip-rule="evenodd" d="M0.106696 2.57657L1.27953 3.77467C1.42062 3.91879 1.6138 4.00002 1.81548 4.00002H3.25013C3.66434 4.00002 4.00013 3.66423 4.00013 3.25002V1.81541C4.00013 1.6137 3.91888 1.4205 3.77472 1.27941L2.57652 0.106709C2.84895 0.0370394 3.13443 0 3.42857 0C5.32212 0 6.85714 1.53502 6.85714 3.42857C6.85714 3.81484 6.79326 4.18619 6.6755 4.53264L11.5607 9.4178C11.842 9.69911 12 10.0806 12 10.4785V10.5C12 11.3284 11.3284 12 10.5 12H10.4785C10.0806 12 9.69911 11.842 9.4178 11.5607L4.53264 6.6755C4.18619 6.79326 3.81484 6.85714 3.42857 6.85714C1.53502 6.85714 0 5.32212 0 3.42857C0 3.13445 0.037035 2.84898 0.106696 2.57657ZM9.26517 8.73483C9.11872 8.58839 8.88128 8.58839 8.73483 8.73483C8.58839 8.88128 8.58839 9.11872 8.73483 9.26517L9.59198 10.1223C9.73842 10.2688 9.97586 10.2688 10.1223 10.1223C10.2688 9.97586 10.2688 9.73842 10.1223 9.59198L9.26517 8.73483Z" fill="#0E1011"/>
</svg>
