<svg viewBox="0 0 12 12" fill="none" xmlns="http://www.w3.org/2000/svg">
<path fill-rule="evenodd" clip-rule="evenodd" d="M0.859831 0.859846C0.967278 0.752399 1.12894 0.720413 1.26921 0.778851L11.0192 4.84087C11.1632 4.90087 11.255 5.04374 11.2498 5.19965C11.2445 5.35556 11.1433 5.49194 10.9956 5.54211L8.02043 6.55262L10.196 8.72817C10.3906 8.92282 10.5 9.18682 10.5 9.46209C10.5 10.0353 10.0353 10.5 9.46207 10.5C9.1868 10.5 8.9228 10.3906 8.72816 10.196L6.5526 8.02045L5.54209 10.9956C5.49192 11.1433 5.35555 11.2445 5.19964 11.2498C5.04373 11.255 4.90085 11.1632 4.84086 11.0192L0.778836 1.26923C0.720398 1.12896 0.752383 0.967293 0.859831 0.859846ZM1.82135 1.82137L5.15129 9.81416L6.03635 7.20834C6.07803 7.08564 6.1801 6.99315 6.30631 6.96374C6.43251 6.93432 6.56496 6.97215 6.6566 7.06378L9.25849 9.66567C9.31248 9.71966 9.38571 9.75 9.46207 9.75C9.62108 9.75 9.74998 9.6211 9.74998 9.46209C9.74998 9.38573 9.71965 9.3125 9.66566 9.2585L7.06377 6.65661C6.97213 6.56498 6.9343 6.43253 6.96372 6.30632C6.99313 6.18012 7.08562 6.07804 7.20833 6.03637L9.81415 5.15131L1.82135 1.82137Z" fill="#0E1011"/>
</svg>
