<svg viewBox="0 0 16 16" fill="none" xmlns="http://www.w3.org/2000/svg">
<path fill-rule="evenodd" clip-rule="evenodd" d="M15.5534 6.44663C15.399 6.26868 15.2381 6.09599 15.0711 5.92893C14.1425 5.00035 13.0401 4.26375 11.8268 3.76121C10.6136 3.25866 9.31322 3 8 3C6.68678 3 5.38642 3.25866 4.17316 3.7612C2.95991 4.26375 1.85752 5.00035 0.928929 5.92893C0.761865 6.096 0.601015 6.26869 0.446625 6.44664L1.86528 7.86529C2.01653 7.68458 2.17595 7.51034 2.34314 7.34315C3.08601 6.60028 3.96792 6.011 4.93853 5.60896C5.90913 5.20693 6.94942 5 8 5C9.05057 5 10.0909 5.20693 11.0615 5.60896C12.0321 6.011 12.914 6.60028 13.6569 7.34315C13.824 7.51034 13.9835 7.68458 14.1347 7.86528L15.5534 6.44663ZM12.7132 9.28674C11.6145 7.89401 9.91165 7 8 7C6.08834 7 4.38549 7.89401 3.28674 9.28675L4.71586 10.7159C5.43857 9.6787 6.64002 9 8 9C9.35997 9 10.5614 9.6787 11.2841 10.7159L12.7132 9.28674ZM9.82324 12.1767C9.50942 11.4828 8.81109 11 8 11C7.18889 11 6.49056 11.4828 6.17675 12.1768L7.99999 14L9.82324 12.1767Z" fill="black"/>
</svg>
