<svg viewBox="0 0 12 12" fill="none" xmlns="http://www.w3.org/2000/svg">
<path d="M2.26266 2.16962C2.11471 2.02469 1.87729 2.02713 1.73236 2.17508C1.58743 2.32303 1.58988 2.56045 1.73783 2.70538L4.52965 5.44025L1.79756 8.17234C1.65112 8.31878 1.65112 8.55622 1.79756 8.70267C1.94401 8.84911 2.18145 8.84911 2.32789 8.70267L5.32789 5.70266C5.39869 5.63187 5.43824 5.53569 5.43772 5.43557C5.43721 5.33544 5.39667 5.23968 5.32515 5.16962L2.26266 2.16962Z" fill="#0E1011"/>
<path d="M6 8.99998C5.79289 8.99998 5.625 9.16787 5.625 9.37498C5.625 9.58208 5.79289 9.74998 6 9.74998H10.125C10.3321 9.74998 10.5 9.58208 10.5 9.37498C10.5 9.16787 10.3321 8.99998 10.125 8.99998H6Z" fill="#0E1011"/>
</svg>
