<svg viewBox="0 0 16 16" fill="none" xmlns="http://www.w3.org/2000/svg">
<path d="M6 4C5.86193 4 5.75 4.11193 5.75 4.25C5.75 4.38807 5.86193 4.5 6 4.5H7.25C7.38807 4.5 7.5 4.38807 7.5 4.25C7.5 4.11193 7.38807 4 7.25 4H6Z" fill="#0E1011"/>
<path fill-rule="evenodd" clip-rule="evenodd" d="M0 3C0 2.44772 0.447716 2 1 2H10C10.5523 2 11 2.44772 11 3V5.5H12.5C14.433 5.5 16 7.067 16 9V12H13.4369C13.4781 12.1599 13.5 12.3274 13.5 12.5C13.5 13.6046 12.6046 14.5 11.5 14.5C10.3954 14.5 9.5 13.6046 9.5 12.5C9.5 12.3274 9.52193 12.1599 9.56312 12H5.93688C5.97807 12.1599 6 12.3274 6 12.5C6 13.6046 5.10457 14.5 4 14.5C2.89543 14.5 2 13.6046 2 12.5C2 12.3274 2.02193 12.1599 2.06312 12H1C0.447715 12 0 11.5523 0 11V3ZM11 11H15V9C15 7.61929 13.8807 6.5 12.5 6.5H11V11ZM10.6337 12C10.5485 12.147 10.5 12.3176 10.5 12.5C10.5 13.0523 10.9477 13.5 11.5 13.5C12.0523 13.5 12.5 13.0523 12.5 12.5C12.5 12.3176 12.4515 12.147 12.3663 12H10.6337ZM3.13367 12H4.86633C4.95147 12.147 5 12.3176 5 12.5C5 13.0523 4.55228 13.5 4 13.5C3.44772 13.5 3 13.0523 3 12.5C3 12.3176 3.04853 12.147 3.13367 12ZM10 11H1V4.5H4.75C4.88807 4.5 5 4.38807 5 4.25C5 4.11193 4.88807 4 4.75 4H1V3H10V11Z" fill="#0E1011"/>
</svg>
