<svg viewBox="0 0 16 16" fill="none" xmlns="http://www.w3.org/2000/svg">
<path fill-rule="evenodd" clip-rule="evenodd" d="M0.853553 0.146447C0.658291 -0.0488155 0.341709 -0.0488155 0.146447 0.146447C-0.0488155 0.341709 -0.0488155 0.658291 0.146447 0.853553L3.37927 4.08638C3.13488 4.67583 3 5.32216 3 6V7.34315C3 8.2714 2.63125 9.16164 1.97487 9.81802L1.43934 10.3536C1.15803 10.6349 1 11.0164 1 11.4142V12C1 12.5523 1.44772 13 2 13H12.2929L15.1464 15.8536C15.3417 16.0488 15.6583 16.0488 15.8536 15.8536C16.0488 15.6583 16.0488 15.3417 15.8536 15.1464L0.853553 0.146447ZM5.73457 6.44168L5.01307 5.72018C5.0044 5.81281 5 5.90618 5 6C5 6.27614 5.22386 6.5 5.5 6.5C5.58477 6.5 5.66462 6.4789 5.73457 6.44168ZM15 12C15 12.2761 14.8881 12.5261 14.7071 12.7071L6.58579 4.58579C6.96086 4.21071 7.46957 4 8 4C8.27614 4 8.5 3.77614 8.5 3.5C8.5 3.22386 8.27614 3 8 3C7.20435 3 6.44129 3.31607 5.87868 3.87868L4.46447 2.46447C5.36929 1.55964 6.61929 1 8 1C10.7614 1 13 3.23858 13 6V7.34315C13 8.2714 13.3687 9.16164 14.0251 9.81802L14.5607 10.3536C14.842 10.6349 15 11.0164 15 11.4142V12ZM8 16C6.61929 16 5.5 14.8807 5.5 13.5H6.5C6.5 14.3284 7.17157 15 8 15C8.82843 15 9.5 14.3284 9.5 13.5H10.5C10.5 14.8807 9.38071 16 8 16Z" fill="black"/>
</svg>
