<svg viewBox="0 0 12 12" fill="none" xmlns="http://www.w3.org/2000/svg">
<path fill-rule="evenodd" clip-rule="evenodd" d="M0.109835 2.35983C0.256282 2.21339 0.493718 2.21339 0.640165 2.35983L4.875 6.59467L6.85983 4.60984C7.00628 4.46339 7.24372 4.46339 7.39017 4.60984L11.25 8.46967V6.375C11.25 6.16789 11.4179 6 11.625 6C11.8321 6 12 6.16789 12 6.375V9.375C12 9.58211 11.8321 9.75 11.625 9.75H8.625C8.41789 9.75 8.25 9.58211 8.25 9.375C8.25 9.16789 8.41789 9 8.625 9H10.7197L7.125 5.40533L5.14016 7.39016C4.99372 7.53661 4.75628 7.53661 4.60984 7.39016L0.109835 2.89017C-0.0366117 2.74372 -0.0366117 2.50628 0.109835 2.35983Z" fill="#0E1011"/>
</svg>
