<svg viewBox="0 0 16 16" fill="none" xmlns="http://www.w3.org/2000/svg">
<path d="M9 3.99997C9 4.55225 8.55228 4.99997 8 4.99997C7.44772 4.99997 7 4.55225 7 3.99997C7 3.44768 7.44772 2.99997 8 2.99997C8.55228 2.99997 9 3.44768 9 3.99997Z" fill="#0E1011"/>
<path fill-rule="evenodd" clip-rule="evenodd" d="M8 7.12497C6.13604 7.12497 4.625 8.63601 4.625 10.5C4.625 12.3639 6.13604 13.875 8 13.875C9.86396 13.875 11.375 12.3639 11.375 10.5C11.375 8.63601 9.86396 7.12497 8 7.12497ZM5.375 10.5C5.375 9.05022 6.55025 7.87497 8 7.87497C9.44975 7.87497 10.625 9.05022 10.625 10.5C10.625 11.9497 9.44975 13.125 8 13.125C6.55025 13.125 5.375 11.9497 5.375 10.5Z" fill="#0E1011"/>
<path fill-rule="evenodd" clip-rule="evenodd" d="M2 2.49988C2 1.11917 3.11929 -0.00012207 4.5 -0.00012207H11.5C12.8807 -0.00012207 14 1.11917 14 2.49988V13.4999C14 14.8806 12.8807 15.9999 11.5 15.9999H4.5C3.11929 15.9999 2 14.8806 2 13.4999V2.49988ZM4.5 0.999878H11.5C12.3284 0.999878 13 1.67145 13 2.49988V13.4999C13 14.3283 12.3284 14.9999 11.5 14.9999H4.5C3.67157 14.9999 3 14.3283 3 13.4999V2.49988C3 1.67145 3.67157 0.999878 4.5 0.999878Z" fill="#0E1011"/>
</svg>
