<svg viewBox="0 0 16 16" fill="none" xmlns="http://www.w3.org/2000/svg">
<path fill-rule="evenodd" clip-rule="evenodd" d="M1.75789 1.4075C2.20871 1.18825 2.91234 1 4 1C5.07325 1 6.58869 1.25525 8.0428 1.50017L8.08304 1.50694C9.58545 1.75998 11.0207 2 12 2C13.0103 2 13.6015 1.92985 13.928 1.86634C14.0906 1.83471 14.1836 1.80548 14.2277 1.78935C14.2411 1.78445 14.2497 1.78087 14.2541 1.77893C14.4032 1.69467 14.5861 1.69233 14.738 1.77457C14.8994 1.86195 15 2.03074 15 2.21429V10.7857C15 10.9755 14.8925 11.149 14.7225 11.2335L14.5 10.7857C14.7225 11.2335 14.7225 11.2335 14.7225 11.2335L14.7212 11.2341L14.7194 11.235L14.7142 11.2375L14.6976 11.2455C14.6837 11.2521 14.6643 11.2611 14.6397 11.2722C14.5903 11.2945 14.5196 11.3252 14.4293 11.3614C14.2486 11.4338 13.9887 11.5287 13.6624 11.6232C13.0106 11.8117 12.0882 12 11 12C9.91842 12 8.64401 11.7419 7.4355 11.4971L7.40075 11.4901C6.15079 11.2369 4.97055 11 4 11C2.98971 11 2.39849 11.0702 2.07204 11.1337C2.04631 11.1387 2.02233 11.1436 2 11.1484V14.5C2 14.7761 1.77614 15 1.5 15C1.22386 15 1 14.7761 1 14.5V2.21429C1 2.12211 1.02548 2.03173 1.07362 1.95313L1.5 2.21429C1.07362 1.95313 1.07416 1.95225 1.07416 1.95225L1.07472 1.95135L1.07587 1.9495L1.07831 1.94561L1.08384 1.93709C1.0878 1.93107 1.09234 1.9244 1.09748 1.91714C1.10778 1.90261 1.12051 1.88571 1.13596 1.86684C1.1669 1.82905 1.20854 1.78364 1.2632 1.73366C1.37294 1.63333 1.5323 1.51721 1.75789 1.4075ZM2 2.42159V10.1304C2.4134 10.06 3.04447 10 4 10C5.08158 10 6.35599 10.2581 7.5645 10.5029L7.59925 10.5099C8.84921 10.7631 10.0295 11 11 11C11.9743 11 12.8019 10.8311 13.3845 10.6626C13.6412 10.5883 13.8492 10.5144 14 10.4558V2.8696C13.5866 2.94004 12.9555 3 12 3C10.9268 3 9.41131 2.74475 7.9572 2.49983L7.91696 2.49306C6.41455 2.24002 4.97935 2 4 2C3.02516 2 2.47879 2.16889 2.19524 2.30679C2.10793 2.34925 2.04446 2.38926 2 2.42159Z" fill="#0E1011"/>
<path d="M2 10.1304V2.42159C2.04446 2.38926 2.10793 2.34925 2.19524 2.30679C2.47879 2.16889 3.02516 2 4 2C4.97935 2 6.41455 2.24002 7.91696 2.49306L7.9572 2.49983C9.41131 2.74475 10.9268 3 12 3C12.9555 3 13.5866 2.94004 14 2.8696V10.4558C13.8492 10.5144 13.6412 10.5883 13.3845 10.6626C12.8019 10.8311 11.9743 11 11 11C10.0295 11 8.84921 10.7631 7.59925 10.5099L7.5645 10.5029C6.35599 10.2581 5.08158 10 4 10C3.04447 10 2.4134 10.06 2 10.1304Z" fill="#0E1011"/>
</svg>
