<svg viewBox="0 0 12 12" fill="none" xmlns="http://www.w3.org/2000/svg">
<path fill-rule="evenodd" clip-rule="evenodd" d="M1.75 1C0.783502 1 0 1.7835 0 2.75V9.25C0 10.2165 0.783502 11 1.75 11H10.25C11.2165 11 12 10.2165 12 9.25V2.75C12 1.7835 11.2165 1 10.25 1H1.75ZM4 4C4 4.55228 3.55228 5 3 5C2.44772 5 2 4.55228 2 4C2 3.44772 2.44772 3 3 3C3.55228 3 4 3.44772 4 4ZM8.01709 3.98676L11.2652 7.23483C11.4116 7.38128 11.4116 7.61872 11.2652 7.76517C11.1187 7.91161 10.8813 7.91161 10.7348 7.76517L7.98291 5.01324L3.98291 8.51324L2.5 7.03033L1.26517 8.26517C1.11872 8.41161 0.881282 8.41161 0.734835 8.26517C0.588388 8.11872 0.588388 7.88128 0.734835 7.73483L2.5 5.96967L4.01709 7.48676L8.01709 3.98676Z" fill="#0E1011"/>
</svg>
