<svg viewBox="0 0 12 12" fill="none" xmlns="http://www.w3.org/2000/svg">
<path fill-rule="evenodd" clip-rule="evenodd" d="M10.6402 7.10983C10.4937 6.96339 10.2563 6.96339 10.1098 7.10983L7.75 9.46967V4C7.75 2.34315 6.40685 1 4.75 1H1.375C1.16789 1 1 1.16789 1 1.375C1 1.58211 1.16789 1.75 1.375 1.75H4.75C5.99264 1.75 7 2.75736 7 4V9.46967L4.64016 7.10983C4.49372 6.96339 4.25628 6.96339 4.10983 7.10983C3.96339 7.25628 3.96339 7.49372 4.10983 7.64016L7.375 10.9053L10.6402 7.64016C10.7866 7.49372 10.7866 7.25628 10.6402 7.10983Z" fill="#0E1011"/>
</svg>
