<svg viewBox="0 0 16 16" fill="none" xmlns="http://www.w3.org/2000/svg">
<path fill-rule="evenodd" clip-rule="evenodd" d="M12 4C12 6.20914 10.2091 8 8 8C5.79086 8 4 6.20914 4 4C4 1.79086 5.79086 0 8 0C10.2091 0 12 1.79086 12 4ZM4.16833 9H5.49997L6.88193 9.69098C7.58575 10.0429 8.41418 10.0429 9.118 9.69098L10.5 9H11.8319C13.076 9 14.1308 9.91482 14.3067 11.1464L14.5197 12.6373C13.0694 14.6727 10.6897 16 8.00005 16C5.31042 16 2.9308 14.6727 1.48047 12.6374L1.69346 11.1464C1.8694 9.91482 2.9242 9 4.16833 9Z" fill="#0E1011"/>
</svg>
