<svg viewBox="0 0 16 16" fill="none" xmlns="http://www.w3.org/2000/svg">
<path fill-rule="evenodd" clip-rule="evenodd" d="M2.5 3C1.67157 3 1 3.67157 1 4.5V13.2929L2.14645 12.1464C2.24021 12.0527 2.36739 12 2.5 12H13.5C14.3284 12 15 11.3284 15 10.5V4.5C15 3.67157 14.3284 3 13.5 3H2.5ZM0 4.5C0 3.11929 1.11929 2 2.5 2H13.5C14.8807 2 16 3.11929 16 4.5V10.5C16 11.8807 14.8807 13 13.5 13H2.70711L0 15.7071V4.5Z" fill="#0E1011"/>
<path d="M1 4.5C1 3.67157 1.67157 3 2.5 3H13.5C14.3284 3 15 3.67157 15 4.5V10.5C15 11.3284 14.3284 12 13.5 12H2.5C2.36739 12 2.24021 12.0527 2.14645 12.1464L1 13.2929V4.5Z" fill="#0E1011"/>
</svg>
