<svg viewBox="0 0 12 12" fill="none" xmlns="http://www.w3.org/2000/svg">
<path d="M9 2C9 1.44772 9.44772 1 10 1H11C11.5523 1 12 1.44772 12 2V10C12 10.5523 11.5523 11 11 11H10C9.44771 11 9 10.5523 9 10V2Z" fill="#0E1011"/>
<path d="M1 7C1 6.44772 1.44772 6 2 6H3C3.55228 6 4 6.44772 4 7V10C4 10.5523 3.55228 11 3 11H2C1.44772 11 1 10.5523 1 10V7Z" fill="#0E1011"/>
<path d="M6 4C5.44772 4 5 4.44772 5 5V10C5 10.5523 5.44772 11 6 11H7C7.55228 11 8 10.5523 8 10V5C8 4.44772 7.55228 4 7 4H6Z" fill="#0E1011"/>
</svg>
