<svg viewBox="0 0 12 12" fill="none" xmlns="http://www.w3.org/2000/svg">
<path d="M12 6C12 9.31371 9.31371 12 6 12C5.35261 12 4.72917 11.8975 4.14502 11.7078C4.3805 11.3871 4.81763 10.7372 4.9967 10.0877C5.06486 9.84005 5.3881 8.55809 5.3881 8.55809C5.58142 8.92688 6.1465 9.25173 6.74745 9.25173C8.53627 9.25173 9.75 7.62087 9.75 5.43791C9.75 3.78729 8.3519 2.25 6.22698 2.25C3.58306 2.25 2.25 4.14556 2.25 5.72629C2.25 6.6834 2.61236 7.53491 3.38956 7.85214C3.517 7.90431 3.63116 7.85394 3.66812 7.71283C3.68058 7.66551 3.70129 7.58327 3.72241 7.49939C3.74487 7.4102 3.76779 7.31915 3.78177 7.26624C3.81912 7.12667 3.8046 7.07773 3.70174 6.9561C3.47765 6.69175 3.33443 6.34953 3.33443 5.8648C3.33443 4.45849 4.38661 3.19952 6.07427 3.19952C7.56871 3.19952 8.38967 4.11263 8.38967 5.3321C8.38967 6.93663 7.67966 8.29084 6.62543 8.29084C6.04329 8.29084 5.6075 7.80938 5.74718 7.2189C5.80767 6.96394 5.88866 6.70167 5.96741 6.44666C6.1064 5.99658 6.23841 5.56909 6.23841 5.24428C6.23841 4.78878 5.99391 4.40885 5.48792 4.40885C4.8928 4.40885 4.41473 5.0245 4.41473 5.84922C4.41473 6.37452 4.59223 6.72977 4.59223 6.72977C4.59223 6.72977 3.98321 9.31019 3.87647 9.76212C3.72135 10.4188 3.77554 11.1836 3.82212 11.5925C1.58512 10.7207 0 8.54547 0 6C0 2.68629 2.68629 0 6 0C9.31371 0 12 2.68629 12 6Z" fill="#0E1011"/>
</svg>
