<svg viewBox="0 0 16 16" fill="none" xmlns="http://www.w3.org/2000/svg">
<path fill-rule="evenodd" clip-rule="evenodd" d="M5.31597 11.2863L7.5 11.8819V15H5.5C5.22386 15 5 15.2239 5 15.5C5 15.7761 5.22386 16 5.5 16H10.5C10.7761 16 11 15.7761 11 15.5C11 15.2239 10.7761 15 10.5 15H8.5V11.8819L10.684 11.2863C12.6418 10.7523 14 8.9741 14 6.94482V1.5C14 0.671573 13.3284 0 12.5 0H3.5C2.67157 0 2 0.671573 2 1.5V6.94482C2 8.9741 3.3582 10.7523 5.31597 11.2863ZM3 1.5C3 1.22386 3.22386 1 3.5 1H12.5C12.7761 1 13 1.22386 13 1.5V6.94482C13 8.52315 11.9436 9.9062 10.4209 10.3215L8 10.9817L5.57909 10.3215C4.05638 9.9062 3 8.52314 3 6.94482V1.5Z" fill="#0E1011"/>
<path d="M1 3C1 2.72386 0.776142 2.5 0.5 2.5C0.223858 2.5 0 2.72386 0 3V7C0 7.27614 0.223858 7.5 0.5 7.5C0.776142 7.5 1 7.27614 1 7V3Z" fill="#0E1011"/>
<path d="M16 3C16 2.72386 15.7761 2.5 15.5 2.5C15.2239 2.5 15 2.72386 15 3V7C15 7.27614 15.2239 7.5 15.5 7.5C15.7761 7.5 16 7.27614 16 7V3Z" fill="#0E1011"/>
</svg>
