<svg viewBox="0 0 16 16" fill="none" xmlns="http://www.w3.org/2000/svg">
<path d="M7.99999 10.4004C7.11799 10.4004 6.3471 9.92472 5.92987 9.2159C5.9272 9.21086 5.92442 9.20585 5.92156 9.20086L5.89618 9.15676C5.70714 8.81368 5.59958 8.4194 5.59958 8C5.59958 6.6743 6.67428 5.5996 7.99999 5.5996C9.32569 5.5996 10.4004 6.6743 10.4004 8C10.4004 8.4306 10.287 8.83471 10.0885 9.18412C10.0842 9.19088 10.0801 9.19778 10.0762 9.20481L10.0663 9.22226C9.64826 9.92756 8.87934 10.4004 7.99999 10.4004Z" fill="#0E1011"/>
<path fill-rule="evenodd" clip-rule="evenodd" d="M16 8C16 12.4183 12.4183 16 8 16C3.58172 16 0 12.4183 0 8C0 3.58172 3.58172 0 8 0C12.4183 0 16 3.58172 16 8ZM2.86979 3.89641C2.73209 3.65706 2.42642 3.57465 2.18706 3.71236C1.94771 3.85007 1.8653 4.15574 2.00301 4.39509L5.01979 9.63874C5.59849 10.6889 6.71615 11.4004 7.99999 11.4004C8.31466 11.4004 8.61934 11.3577 8.90856 11.2777L7.08094 14.5222C6.94542 14.7628 7.0306 15.0677 7.27119 15.2033C7.51179 15.3388 7.8167 15.2536 7.95223 15.013L10.9288 9.72878C11.2284 9.22223 11.4004 8.6312 11.4004 8C11.4004 7.06306 11.0215 6.21463 10.4085 5.5996H14.1163C14.3925 5.5996 14.6163 5.37574 14.6163 5.0996C14.6163 4.82346 14.3925 4.5996 14.1163 4.5996H7.99999C6.43054 4.5996 5.10942 5.66286 4.71769 7.10835L2.86979 3.89641Z" fill="#0E1011"/>
</svg>
