<svg viewBox="0 0 16 16" fill="none" xmlns="http://www.w3.org/2000/svg">
<path d="M8.85355 0.853553C9.04882 0.658291 9.04882 0.341709 8.85355 0.146447C8.65829 -0.0488155 8.34171 -0.0488155 8.14645 0.146447L5.79289 2.5L8.14645 4.85355C8.34171 5.04882 8.65829 5.04882 8.85355 4.85355C9.04882 4.65829 9.04882 4.34171 8.85355 4.14645L7.70711 3H8C9.0559 3 10.0847 3.33427 10.9389 3.95492C11.7932 4.57556 12.429 5.4507 12.7553 6.45492C13.0816 7.45913 13.0816 8.54087 12.7553 9.54509C12.429 10.5493 11.7932 11.4244 10.9389 12.0451C10.7155 12.2074 10.666 12.5201 10.8283 12.7435C10.9906 12.9669 11.3033 13.0164 11.5267 12.8541C12.5518 12.1093 13.3148 11.0592 13.7063 9.8541C14.0979 8.64904 14.0979 7.35096 13.7063 6.1459C13.3148 4.94084 12.5518 3.89067 11.5267 3.1459C10.5016 2.40113 9.26708 2 8 2H7.70711L8.85355 0.853553Z" fill="#0E1011"/>
<path d="M8 13C6.9441 13 5.91531 12.6657 5.06107 12.0451C4.20684 11.4244 3.57101 10.5493 3.24472 9.54508C2.91843 8.54087 2.91843 7.45913 3.24472 6.45491C3.57101 5.4507 4.20684 4.57555 5.06107 3.95492C5.28448 3.7926 5.334 3.47992 5.17169 3.25651C5.00938 3.03311 4.69669 2.98359 4.47329 3.1459C3.4482 3.89067 2.68521 4.94084 2.29366 6.1459C1.90211 7.35096 1.90211 8.64904 2.29366 9.8541C2.68521 11.0592 3.4482 12.1093 4.47329 12.8541C5.49837 13.5989 6.73292 14 8 14H8.29289L7.14645 15.1464C6.95119 15.3417 6.95119 15.6583 7.14645 15.8536C7.34171 16.0488 7.65829 16.0488 7.85355 15.8536L10.2071 13.5L7.85355 11.1464C7.65829 10.9512 7.34171 10.9512 7.14645 11.1464C6.95119 11.3417 6.95119 11.6583 7.14645 11.8536L8.29289 13H8Z" fill="#0E1011"/>
</svg>
