<svg viewBox="0 0 16 16" fill="none" xmlns="http://www.w3.org/2000/svg">
<path fill-rule="evenodd" clip-rule="evenodd" d="M4.5 0C3.11929 0 2 1.11929 2 2.5V13.5C2 14.8807 3.11929 16 4.5 16H11.5C12.8807 16 14 14.8807 14 13.5V2.5C14 1.11929 12.8807 0 11.5 0H4.5ZM5 1H11V1.5C11 1.77614 10.7761 2 10.5 2H5.5C5.22386 2 5 1.77614 5 1.5V1ZM5 13.5C5 13.2929 5.16789 13.125 5.375 13.125H10.625C10.8321 13.125 11 13.2929 11 13.5C11 13.7071 10.8321 13.875 10.625 13.875H5.375C5.16789 13.875 5 13.7071 5 13.5Z" fill="#0E1011"/>
</svg>
