<svg viewBox="0 0 12 12" fill="none" xmlns="http://www.w3.org/2000/svg">
<path fill-rule="evenodd" clip-rule="evenodd" d="M3.65444 5.875H0.5C0.292893 5.875 0.125 5.70711 0.125 5.5C0.125 5.29289 0.292893 5.125 0.5 5.125H3.65444C3.83423 3.99151 4.81592 3.125 6 3.125C7.18408 3.125 8.16577 3.99151 8.34556 5.125H11.5C11.7071 5.125 11.875 5.29289 11.875 5.5C11.875 5.70711 11.7071 5.875 11.5 5.875H8.34556C8.16577 7.00849 7.18408 7.875 6 7.875C4.81592 7.875 3.83423 7.00849 3.65444 5.875ZM4.375 5.5C4.375 6.39746 5.10254 7.125 6 7.125C6.89746 7.125 7.625 6.39746 7.625 5.5C7.625 4.60254 6.89746 3.875 6 3.875C5.10254 3.875 4.375 4.60254 4.375 5.5Z" fill="#0E1011"/>
</svg>
