<svg viewBox="0 0 12 12" fill="none" xmlns="http://www.w3.org/2000/svg">
<path fill-rule="evenodd" clip-rule="evenodd" d="M1.5 1.125C0.740608 1.125 0.125 1.74061 0.125 2.5V9.25C0.125 10.1475 0.852537 10.875 1.75 10.875H10.3281C11.2256 10.875 11.9531 10.1475 11.9531 9.25V3.75C11.9531 2.85254 11.2256 2.125 10.3281 2.125H5.65533L4.65533 1.125H1.5ZM0.875 2.5C0.875 2.15482 1.15482 1.875 1.5 1.875H4.34467L4.96967 2.5L4.34467 3.125H0.875V2.5ZM0.875 3.875V9.25C0.875 9.73325 1.26675 10.125 1.75 10.125H10.3281C10.8114 10.125 11.2031 9.73325 11.2031 9.25V3.75C11.2031 3.26675 10.8114 2.875 10.3281 2.875H5.65533L4.65533 3.875H0.875Z" fill="#0E1011"/>
</svg>
