<svg viewBox="0 0 16 16" fill="none" xmlns="http://www.w3.org/2000/svg">
<path fill-rule="evenodd" clip-rule="evenodd" d="M7.5 2C7.22386 2 7 2.22386 7 2.5V13.5C7 13.7761 7.22386 14 7.5 14H8.5C8.77614 14 9 13.7761 9 13.5V2.5C9 2.22386 8.77614 2 8.5 2H7.5ZM6 2.5C6 1.67157 6.67157 1 7.5 1H8.5C9.32843 1 10 1.67157 10 2.5V13.5C10 14.3284 9.32843 15 8.5 15H7.5C6.67157 15 6 14.3284 6 13.5V2.5ZM12.5 6.49999C12.2239 6.49999 12 6.72385 12 6.99999V13.5C12 13.7761 12.2239 14 12.5 14H13.5C13.7761 14 14 13.7761 14 13.5V6.99999C14 6.72385 13.7761 6.49999 13.5 6.49999H12.5ZM11 6.99999C11 6.17157 11.6716 5.49999 12.5 5.49999H13.5C14.3284 5.49999 15 6.17157 15 6.99999V13.5C15 14.3284 14.3284 15 13.5 15H12.5C11.6716 15 11 14.3284 11 13.5V6.99999ZM2.5 9C2.22386 9 2 9.22386 2 9.5V13.5C2 13.7761 2.22386 14 2.5 14H3.5C3.77614 14 4 13.7761 4 13.5V9.5C4 9.22386 3.77614 9 3.5 9H2.5ZM1 9.5C1 8.67157 1.67157 8 2.5 8H3.5C4.32843 8 5 8.67157 5 9.5V13.5C5 14.3284 4.32843 15 3.5 15H2.5C1.67157 15 1 14.3284 1 13.5V9.5Z" fill="#0E1011"/>
</svg>
