<svg viewBox="0 0 16 16" fill="none" xmlns="http://www.w3.org/2000/svg">
<path fill-rule="evenodd" clip-rule="evenodd" d="M3 1C1.89543 1 1 1.89543 1 3V13C1 14.1046 1.89543 15 3 15H13C14.1046 15 15 14.1046 15 13V3C15 1.89543 14.1046 1 13 1H3ZM3 3.25C3 3.11193 3.11193 3 3.25 3H5C5.27614 3 5.5 2.77614 5.5 2.5C5.5 2.22386 5.27614 2 5 2H3.25C2.55964 2 2 2.55964 2 3.25V5C2 5.27614 2.22386 5.5 2.5 5.5C2.77614 5.5 3 5.27614 3 5V3.25ZM11 2C10.7239 2 10.5 2.22386 10.5 2.5C10.5 2.77614 10.7239 3 11 3H12.75C12.8881 3 13 3.11193 13 3.25V5C13 5.27614 13.2239 5.5 13.5 5.5C13.7761 5.5 14 5.27614 14 5V3.25C14 2.55964 13.4404 2 12.75 2H11ZM3 11C3 10.7239 2.77614 10.5 2.5 10.5C2.22386 10.5 2 10.7239 2 11V12.75C2 13.4404 2.55964 14 3.25 14H5C5.27614 14 5.5 13.7761 5.5 13.5C5.5 13.2239 5.27614 13 5 13H3.25C3.11193 13 3 12.8881 3 12.75V11ZM14 11C14 10.7239 13.7761 10.5 13.5 10.5C13.2239 10.5 13 10.7239 13 11V12.75C13 12.8881 12.8881 13 12.75 13H11C10.7239 13 10.5 13.2239 10.5 13.5C10.5 13.7761 10.7239 14 11 14H12.75C13.4404 14 14 13.4404 14 12.75V11ZM3.5 7.5C3.22386 7.5 3 7.72386 3 8C3 8.27614 3.22386 8.5 3.5 8.5H12.5C12.7761 8.5 13 8.27614 13 8C13 7.72386 12.7761 7.5 12.5 7.5H3.5ZM6.05 6C6.02239 6 6 6.02239 6 6.05V6.5C6 6.77614 5.77614 7 5.5 7C5.22386 7 5 6.77614 5 6.5V6.05C5 5.4701 5.4701 5 6.05 5H9.95C10.5299 5 11 5.4701 11 6.05V6.5C11 6.77614 10.7761 7 10.5 7C10.2239 7 10 6.77614 10 6.5V6.05C10 6.02239 9.97761 6 9.95 6H6.05ZM5.5 9C5.77614 9 6 9.22386 6 9.5V9.95C6 9.97761 6.02239 10 6.05 10H9.95C9.97761 10 10 9.97761 10 9.95V9.5C10 9.22386 10.2239 9 10.5 9C10.7761 9 11 9.22386 11 9.5V9.95C11 10.5299 10.5299 11 9.95 11H6.05C5.4701 11 5 10.5299 5 9.95V9.5C5 9.22386 5.22386 9 5.5 9Z" fill="#0E1011"/>
</svg>
