<svg viewBox="0 0 16 16" fill="none" xmlns="http://www.w3.org/2000/svg">
<path d="M13.0066 14.8592C14.1001 15.015 15 14.1046 15 13V11C15 10.4477 14.5509 10.0059 14.002 9.94529C13.1945 9.85621 12.4192 9.66029 11.6905 9.372L10.0582 11.0043C9.90519 11.1573 9.67062 11.1955 9.48091 11.0915C7.61358 10.0681 6.06126 8.54149 5.00641 6.69413C4.89759 6.50355 4.93439 6.26473 5.08957 6.10955L6.70391 4.49521C6.37397 3.71304 6.15142 2.87449 6.05473 1.99803C5.99417 1.44908 5.5523 1 5.00002 1H3.00002C1.89545 1 0.984975 1.89993 1.14086 2.99344C1.40946 4.87759 2.05318 6.64084 2.99398 8.20514C4.20936 10.226 5.92052 11.9148 7.95918 13.1033C9.48224 13.9913 11.1881 14.5999 13.0066 14.8592Z" fill="#0E1011"/>
</svg>
