<svg viewBox="0 0 16 16" fill="none" xmlns="http://www.w3.org/2000/svg">
<path fill-rule="evenodd" clip-rule="evenodd" d="M2 2C2 0.895431 2.89543 0 4 0H9.70711L14 4.29289V8.25606C13.5308 8.09023 13.026 8 12.5 8C10.0147 8 8 10.0147 8 12.5C8 13.9136 8.65183 15.175 9.67133 16H4C2.89543 16 2 15.1046 2 14V2ZM10 2C10 1.72386 9.77614 1.5 9.5 1.5C9.22386 1.5 9 1.72386 9 2V3.5C9 4.32843 9.67157 5 10.5 5H12C12.2761 5 12.5 4.77614 12.5 4.5C12.5 4.22386 12.2761 4 12 4H10.5C10.2239 4 10 3.77614 10 3.5V2Z" fill="#0E1011"/>
<path fill-rule="evenodd" clip-rule="evenodd" d="M16 12.5C16 14.433 14.433 16 12.5 16C10.567 16 9 14.433 9 12.5C9 10.567 10.567 9 12.5 9C14.433 9 16 10.567 16 12.5ZM12.5 10C12.7761 10 13 10.2239 13 10.5V12H14.5C14.7761 12 15 12.2239 15 12.5C15 12.7761 14.7761 13 14.5 13H13V14.75C13 15.0261 12.7761 15.25 12.5 15.25C12.2239 15.25 12 15.0261 12 14.75V13H10.5C10.2239 13 10 12.7761 10 12.5C10 12.2239 10.2239 12 10.5 12H12V10.5C12 10.2239 12.2239 10 12.5 10Z" fill="#0E1011"/>
</svg>
