<svg viewBox="0 0 12 12" fill="none" xmlns="http://www.w3.org/2000/svg">
<path fill-rule="evenodd" clip-rule="evenodd" d="M12 6C12 9.31371 9.31371 12 6 12C2.68629 12 0 9.31371 0 6C0 2.68629 2.68629 0 6 0C9.31371 0 12 2.68629 12 6ZM3.75002 4.5C3.75002 4.08579 4.08581 3.75 4.50002 3.75C4.91424 3.75 5.25002 4.08579 5.25002 4.5C5.25002 4.91421 4.91424 5.25 4.50002 5.25C4.08581 5.25 3.75002 4.91421 3.75002 4.5ZM6.75002 4.5C6.75002 4.08579 7.08581 3.75 7.50002 3.75C7.91424 3.75 8.25002 4.08579 8.25002 4.5C8.25002 4.91421 7.91424 5.25 7.50002 5.25C7.08581 5.25 6.75002 4.91421 6.75002 4.5ZM4.01519 8.79642C4.49145 8.32016 5.2307 8.0625 6.00002 8.0625C6.76934 8.0625 7.5086 8.32016 7.98486 8.79642C8.1313 8.94286 8.36874 8.94286 8.51519 8.79642C8.66163 8.64997 8.66163 8.41253 8.51519 8.26608C7.86645 7.61734 6.9182 7.3125 6.00002 7.3125C5.08184 7.3125 4.1336 7.61734 3.48486 8.26608C3.33841 8.41253 3.33841 8.64997 3.48486 8.79642C3.6313 8.94286 3.86874 8.94286 4.01519 8.79642Z" fill="#0E1011"/>
</svg>
