<svg viewBox="0 0 12 12" fill="none" xmlns="http://www.w3.org/2000/svg">
<path fill-rule="evenodd" clip-rule="evenodd" d="M0 1.875C0 1.39175 0.391751 1 0.875 1H10.875C11.3582 1 11.75 1.39175 11.75 1.875V3.875C11.75 4.35825 11.3582 4.75 10.875 4.75V8.875C10.875 9.91053 10.0355 10.75 9 10.75H2.75C1.71447 10.75 0.875 9.91053 0.875 8.875L0.875 4.75C0.391751 4.75 0 4.35825 0 3.875V1.875ZM4.625 6.375C4.625 6.23693 4.73693 6.125 4.875 6.125H6.875C7.01307 6.125 7.125 6.23693 7.125 6.375C7.125 6.51307 7.01307 6.625 6.875 6.625H4.875C4.73693 6.625 4.625 6.51307 4.625 6.375ZM2.5 4.125C2.29289 4.125 2.125 4.29289 2.125 4.5C2.125 4.70711 2.29289 4.875 2.5 4.875H9.5C9.70711 4.875 9.875 4.70711 9.875 4.5C9.875 4.29289 9.70711 4.125 9.5 4.125H2.5Z" fill="#0E1011"/>
</svg>
