<svg viewBox="0 0 12 12" fill="none" xmlns="http://www.w3.org/2000/svg">
<path d="M5 2C5 1.44772 5.44772 1 6 1H7C7.55228 1 8 1.44772 8 2V10C8 10.5523 7.55228 11 7 11H6C5.44772 11 5 10.5523 5 10V2Z" fill="#0E1011"/>
<path d="M1 7C1 6.44772 1.44772 6 2 6H3C3.55228 6 4 6.44772 4 7V10C4 10.5523 3.55228 11 3 11H2C1.44772 11 1 10.5523 1 10V7Z" fill="#0E1011"/>
<path d="M10 4C9.44772 4 9 4.44772 9 5V10C9 10.5523 9.44771 11 10 11H11C11.5523 11 12 10.5523 12 10V5C12 4.44772 11.5523 4 11 4H10Z" fill="#0E1011"/>
</svg>
