<svg viewBox="0 0 12 12" fill="none" xmlns="http://www.w3.org/2000/svg">
<path d="M1.75 7.5C1.75 7.36193 1.86193 7.25 2 7.25H5.5C5.63807 7.25 5.75 7.36193 5.75 7.5C5.75 7.63807 5.63807 7.75 5.5 7.75H2C1.86193 7.75 1.75 7.63807 1.75 7.5Z" fill="#0E1011"/>
<path d="M1.75 9C1.75 8.86193 1.86193 8.75 2 8.75H3.5C3.63807 8.75 3.75 8.86193 3.75 9C3.75 9.13807 3.63807 9.25 3.5 9.25H2C1.86193 9.25 1.75 9.13807 1.75 9Z" fill="#0E1011"/>
<path fill-rule="evenodd" clip-rule="evenodd" d="M1.5 1C0.671573 1 0 1.67157 0 2.5V9.5C0 10.3284 0.671573 11 1.5 11H5.625C5.83211 11 6 10.8321 6 10.625C6 10.4179 5.83211 10.25 5.625 10.25H1.5C1.08579 10.25 0.75 9.91421 0.75 9.5V5.5H11.25V6.625C11.25 6.83211 11.4179 7 11.625 7C11.8321 7 12 6.83211 12 6.625V2.5C12 1.67157 11.3284 1 10.5 1H1.5ZM1.5 1.75H10.5C10.9142 1.75 11.25 2.08579 11.25 2.5V3.5H0.75V2.5C0.75 2.08579 1.08579 1.75 1.5 1.75Z" fill="#0E1011"/>
<path d="M9.875 7.5C9.875 7.29289 9.70711 7.125 9.5 7.125C9.29289 7.125 9.125 7.29289 9.125 7.5V9.125H7.5C7.29289 9.125 7.125 9.29289 7.125 9.5C7.125 9.70711 7.29289 9.875 7.5 9.875H9.125V11.5C9.125 11.7071 9.29289 11.875 9.5 11.875C9.70711 11.875 9.875 11.7071 9.875 11.5V9.875H11.5C11.7071 9.875 11.875 9.70711 11.875 9.5C11.875 9.29289 11.7071 9.125 11.5 9.125H9.875V7.5Z" fill="#0E1011"/>
</svg>
