<svg viewBox="0 0 16 16" fill="none" xmlns="http://www.w3.org/2000/svg">
<path fill-rule="evenodd" clip-rule="evenodd" d="M2.4845 11.203L2.30272 11.4572C2.06199 11.794 2.04859 12.2485 2.30798 12.5711C2.63992 12.9839 3.01583 13.3598 3.42862 13.6918C3.7512 13.9512 4.20576 13.9378 4.54251 13.697L4.79679 13.5153C5.39879 13.0849 6.24347 13.4348 6.36483 14.1648L6.41619 14.4737C6.48408 14.8821 6.79609 15.213 7.2077 15.2575C7.46793 15.2855 7.73226 15.3 7.99995 15.3C8.26758 15.3 8.53184 15.2856 8.792 15.2575C9.20362 15.2131 9.51564 14.8821 9.58354 14.4737L9.6349 14.1648C9.75626 13.4348 10.6009 13.0849 11.2029 13.5153L11.4573 13.6971C11.7941 13.9378 12.2486 13.9512 12.5712 13.6918C12.984 13.3599 13.3599 12.984 13.6918 12.5712C13.9512 12.2486 13.9378 11.7941 13.6971 11.4573L13.5152 11.203C13.0849 10.601 13.4347 9.75628 14.1647 9.63492L14.4737 9.58355C14.8821 9.51566 15.2131 9.20364 15.2575 8.79202C15.2855 8.53185 15.3 8.26758 15.3 7.99995C15.3 7.73227 15.2855 7.46795 15.2575 7.20772C15.213 6.79612 14.8821 6.48411 14.4737 6.41621L14.1647 6.36484C13.4347 6.24349 13.0849 5.3988 13.5152 4.79681L13.697 4.54251C13.9378 4.20576 13.9512 3.7512 13.6918 3.42862C13.3598 3.01583 12.9839 2.63992 12.5711 2.30799C12.2485 2.04859 11.794 2.06199 11.4572 2.30273L11.2029 2.48452C10.6009 2.91488 9.75626 2.56501 9.6349 1.83502L9.58356 1.52616C9.51567 1.11776 9.20364 0.786838 8.79203 0.742426C8.53186 0.714354 8.26759 0.699951 7.99995 0.699951C7.73225 0.699951 7.46791 0.714361 7.20767 0.742447C6.79607 0.78687 6.48406 1.11779 6.41617 1.52618L6.36483 1.83501C6.24347 2.56501 5.39879 2.91489 4.79679 2.48452L4.5426 2.30279C4.20586 2.06205 3.75131 2.04866 3.42872 2.30806C3.01592 2.64001 2.63999 3.01594 2.30804 3.42874C2.04864 3.75133 2.06204 4.20588 2.30278 4.54262L2.4845 4.79681C2.91487 5.3988 2.56499 6.24349 1.835 6.36484L1.52618 6.41618C1.11779 6.48408 0.786867 6.79609 0.742445 7.20769C0.71436 7.46792 0.699951 7.73225 0.699951 7.99995C0.699951 8.26759 0.714355 8.53187 0.742428 8.79205C0.786842 9.20367 1.11776 9.51569 1.52616 9.58358L1.835 9.63492C2.56499 9.75628 2.91487 10.601 2.4845 11.203ZM9.99995 7.99995C9.99995 9.10452 9.10452 9.99995 7.99995 9.99995C6.89538 9.99995 5.99995 9.10452 5.99995 7.99995C5.99995 6.89538 6.89538 5.99995 7.99995 5.99995C9.10452 5.99995 9.99995 6.89538 9.99995 7.99995Z" fill="#0E1011"/>
</svg>
