<svg viewBox="0 0 12 12" fill="none" xmlns="http://www.w3.org/2000/svg">
<path fill-rule="evenodd" clip-rule="evenodd" d="M1.35983 4.7955C1.50628 4.94194 1.74372 4.94194 1.89017 4.7955L4.25 2.43566V7.90533C4.25 9.56218 5.59315 10.9053 7.25 10.9053H10.625C10.8321 10.9053 11 10.7374 11 10.5303C11 10.3232 10.8321 10.1553 10.625 10.1553H7.25C6.00736 10.1553 5 9.14797 5 7.90533V2.43566L7.35984 4.7955C7.50628 4.94194 7.74372 4.94194 7.89017 4.7955C8.03661 4.64905 8.03661 4.41161 7.89017 4.26516L4.625 1L1.35983 4.26516C1.21339 4.41161 1.21339 4.64905 1.35983 4.7955Z" fill="#0E1011"/>
</svg>
