<svg viewBox="0 0 12 12" fill="none" xmlns="http://www.w3.org/2000/svg">
<path fill-rule="evenodd" clip-rule="evenodd" d="M11 4.7955C10.8536 4.94194 10.6161 4.94194 10.4697 4.7955L8.10986 2.43566V7.90533C8.10986 9.56218 6.76672 10.9053 5.10986 10.9053H1.73486C1.52776 10.9053 1.35986 10.7374 1.35986 10.5303C1.35986 10.3232 1.52776 10.1553 1.73486 10.1553H5.10986C6.3525 10.1553 7.35986 9.14797 7.35986 7.90533V2.43566L5.00003 4.7955C4.85358 4.94194 4.61615 4.94194 4.4697 4.7955C4.32325 4.64905 4.32325 4.41161 4.4697 4.26516L7.73486 1L11 4.26516C11.1465 4.41161 11.1465 4.64905 11 4.7955Z" fill="#0E1011"/>
</svg>
