<svg viewBox="0 0 16 16" fill="none" xmlns="http://www.w3.org/2000/svg">
<path fill-rule="evenodd" clip-rule="evenodd" d="M5 6C5 5.44772 5.44772 5 6 5H10C10.5523 5 11 5.44772 11 6V10C11 10.5523 10.5523 11 10 11H6C5.44772 11 5 10.5523 5 10V6ZM10 6H6V10H10V6Z" fill="#0E1011"/>
<path fill-rule="evenodd" clip-rule="evenodd" d="M6 1H10V0H11V1H12.5C13.8807 1 15 2.11929 15 3.5V5H16V6H15V10H16V11H15V12.5C15 13.8807 13.8807 15 12.5 15H11V16H10V15H6V16H5V15H3.5C2.11929 15 1 13.8807 1 12.5V11H0V10H1V6H0V5H1V3.5C1 2.11929 2.11929 1 3.5 1H5V0H6V1ZM12.5 2H3.5C2.67157 2 2 2.67157 2 3.5V12.5C2 13.3284 2.67157 14 3.5 14H12.5C13.3284 14 14 13.3284 14 12.5V3.5C14 2.67157 13.3284 2 12.5 2Z" fill="#0E1011"/>
</svg>
