<svg viewBox="0 0 16 16" fill="none" xmlns="http://www.w3.org/2000/svg">
<path fill-rule="evenodd" clip-rule="evenodd" d="M12 4C12 6.20914 10.2091 8 8 8C5.79086 8 4 6.20914 4 4C4 1.79086 5.79086 0 8 0C10.2091 0 12 1.79086 12 4ZM11 4C11 5.65685 9.65685 7 8 7C6.34315 7 5 5.65685 5 4C5 2.34315 6.34315 1 8 1C9.65685 1 11 2.34315 11 4Z" fill="#0E1011"/>
<path fill-rule="evenodd" clip-rule="evenodd" d="M4.16833 9H5.49997L6.88193 9.69098C7.58575 10.0429 8.41418 10.0429 9.118 9.69098L10.5 9H11.8319C13.076 9 14.1308 9.91482 14.3067 11.1464L14.5197 12.6373C13.0694 14.6727 10.6897 16 8.00005 16C5.31042 16 2.9308 14.6727 1.48047 12.6374L1.69346 11.1464C1.8694 9.91482 2.9242 9 4.16833 9ZM8.00005 15C5.78683 15 3.81328 13.9737 2.52919 12.3674L2.68341 11.2879C2.78897 10.5489 3.42185 10 4.16833 10H5.2639L6.43472 10.5854C7.42007 11.0781 8.57987 11.0781 9.56522 10.5854L10.736 10H11.8319C12.5783 10 13.2112 10.5489 13.3168 11.2879L13.471 12.3673C12.1869 13.9737 10.2133 15 8.00005 15Z" fill="#0E1011"/>
</svg>
