<svg viewBox="0 0 12 12" fill="none" xmlns="http://www.w3.org/2000/svg">
<path fill-rule="evenodd" clip-rule="evenodd" d="M7.1263 9.89427L6.89573 7.6H9.70978C10.5349 7.6 11.1477 6.83973 10.9688 6.03827L10.1642 2.43563C9.97688 1.59681 9.22921 1 8.36567 1H1.73697C1.32995 1 1 1.32832 1 1.73333V6.86667C1 7.27168 1.32995 7.6 1.73697 7.6H3.2109L5.4218 12L5.97728 11.7789C6.73944 11.4755 7.20798 10.707 7.1263 9.89427ZM3.94787 7.42688L5.77643 11.066C6.19041 10.8659 6.43934 10.4284 6.39299 9.96724L6.0814 6.86667H9.70978C10.0634 6.86667 10.3261 6.54084 10.2493 6.19736L9.44479 2.59471C9.3324 2.09142 8.88379 1.73333 8.36567 1.73333H3.94787V7.42688ZM3.2109 6.86667H1.73697V1.73333H3.2109V6.86667Z" fill="#0E1011"/>
</svg>
