<svg viewBox="0 0 12 12" fill="none" xmlns="http://www.w3.org/2000/svg">
<path fill-rule="evenodd" clip-rule="evenodd" d="M9 3C9 4.65685 7.65685 6 6 6C4.34315 6 3 4.65685 3 3C3 1.34315 4.34315 0 6 0C7.65685 0 9 1.34315 9 3ZM8.25 3C8.25 4.24264 7.24264 5.25 6 5.25C4.75736 5.25 3.75 4.24264 3.75 3C3.75 1.75736 4.75736 0.75 6 0.75C7.24264 0.75 8.25 1.75736 8.25 3Z" fill="#0E1011"/>
<path fill-rule="evenodd" clip-rule="evenodd" d="M3.12625 6.75H4.12498L5.16145 7.26824C5.68931 7.53217 6.31064 7.53217 6.8385 7.26824L7.87498 6.75H8.87389C9.80698 6.75 10.5981 7.43612 10.73 8.35983L10.8898 9.47796C9.80203 11.0045 8.01729 12 6.00004 12C3.98282 12 2.1981 11.0045 1.11035 9.47802L1.27009 8.35983C1.40205 7.43612 2.19315 6.75 3.12625 6.75ZM6.00004 11.25C4.34012 11.25 2.85996 10.4803 1.89689 9.27553L2.01255 8.4659C2.09173 7.91167 2.56639 7.5 3.12625 7.5H3.94793L4.82604 7.93906C5.56505 8.30856 6.4349 8.30856 7.17391 7.93906L8.05203 7.5H8.87389C9.43375 7.5 9.90841 7.91167 9.98758 8.4659L10.1032 9.27548C9.14017 10.4803 7.65999 11.25 6.00004 11.25Z" fill="#0E1011"/>
</svg>
