<svg viewBox="0 0 16 16" fill="none" xmlns="http://www.w3.org/2000/svg">
<path d="M11.1464 14.8536C11.3417 15.0488 11.6583 15.0488 11.8536 14.8536L15.8536 10.8536C16.0488 10.6583 16.0488 10.3417 15.8536 10.1464C15.6583 9.95118 15.3417 9.95118 15.1464 10.1464L12 13.2929V3.5C12 3.22386 11.7761 3 11.5 3C11.2239 3 11 3.22386 11 3.5L11 13.2929L7.85355 10.1464C7.65829 9.95118 7.34171 9.95118 7.14645 10.1464C6.95119 10.3417 6.95119 10.6583 7.14645 10.8536L11.1464 14.8536Z" fill="#0E1011"/>
<path d="M4.14645 1.14645C4.34171 0.951184 4.65829 0.951184 4.85355 1.14645L8.85355 5.14645C9.04882 5.34171 9.04882 5.65829 8.85355 5.85355C8.65829 6.04882 8.34171 6.04882 8.14645 5.85355L5 2.70711L5 12.5C5 12.7761 4.77614 13 4.5 13C4.22386 13 4 12.7761 4 12.5L4 2.70711L0.853554 5.85355C0.658292 6.04882 0.34171 6.04882 0.146447 5.85355C-0.0488157 5.65829 -0.0488157 5.34171 0.146447 5.14645L4.14645 1.14645Z" fill="#0E1011"/>
</svg>
