<svg viewBox="0 0 16 16" fill="none" xmlns="http://www.w3.org/2000/svg">
<path fill-rule="evenodd" clip-rule="evenodd" d="M4 4.70711L0.396447 1.10355C0.201184 0.908291 0.201184 0.591709 0.396447 0.396447C0.591709 0.201184 0.908291 0.201184 1.10355 0.396447L15.6036 14.8964C15.7988 15.0917 15.7988 15.4083 15.6036 15.6036C15.4083 15.7988 15.0917 15.7988 14.8964 15.6036L11.5779 12.2851C10.8252 12.7389 9.94308 13 9 13H8.5V15H10C10.2761 15 10.5 15.2239 10.5 15.5C10.5 15.7761 10.2761 16 10 16H6C5.72386 16 5.5 15.7761 5.5 15.5C5.5 15.2239 5.72386 15 6 15H7.5V13H7C4.23858 13 2 10.7614 2 8V7.75C2 7.47386 2.22386 7.25 2.5 7.25C2.77614 7.25 3 7.47386 3 7.75V8C3 10.2091 4.79086 12 7 12H9C9.66491 12 10.2919 11.8378 10.8436 11.5507L9.84362 10.5507C9.29192 10.8378 8.66491 11 8 11C5.79086 11 4 9.20914 4 7V4.70711ZM9.08909 9.7962C8.75148 9.92779 8.38417 10 8 10C6.34315 10 5 8.65685 5 7V5.70711L9.08909 9.7962Z" fill="#0E1011"/>
<path d="M11.6465 8.64649L10.8715 7.87146C10.9551 7.59567 11 7.30309 11 7V4C11 2.34315 9.65685 1 8 1C6.91531 1 5.96507 1.57566 5.43813 2.43813L4.71586 1.71586C5.43857 0.678698 6.64003 0 8 0C10.2091 0 12 1.79086 12 4V7C12 7.58694 11.8736 8.14435 11.6465 8.64649Z" fill="#0E1011"/>
<path d="M12.6465 9.64649L13.3919 10.3919C13.7796 9.68138 14 8.86642 14 8V7.75C14 7.47386 13.7761 7.25 13.5 7.25C13.2239 7.25 13 7.47386 13 7.75V8C13 8.58694 12.8736 9.14435 12.6465 9.64649Z" fill="#0E1011"/>
</svg>
