<svg viewBox="0 0 16 16" fill="none" xmlns="http://www.w3.org/2000/svg">
<path fill-rule="evenodd" clip-rule="evenodd" d="M1.5 1C0.671573 1 0 1.67157 0 2.5V12C0 13.1046 0.895431 14 2 14H8.26738C8.35297 13.8519 8.4591 13.7125 8.58579 13.5858L9.67157 12.5L8.58579 11.4142C7.80474 10.6332 7.80474 9.36684 8.58579 8.58579C9.36683 7.80474 10.6332 7.80474 11.4142 8.58579L12.5 9.67157L13.5858 8.58579C14.2402 7.93142 15.2351 7.82529 16 8.26738V4C16 2.89543 15.1046 2 14 2H8.12132C7.8561 2 7.60175 1.89464 7.41421 1.70711L7.29289 1.58579C6.91782 1.21071 6.40911 1 5.87868 1H1.5ZM7.35356 3.35353C7.54882 3.15826 7.54881 2.84168 7.35355 2.64642C7.15828 2.45116 6.8417 2.45116 6.64644 2.64643L6.58576 2.70711C6.39822 2.89465 6.14387 3.00002 5.87864 3.00002H1.5C1.22386 3.00002 1 3.22387 1 3.50002C1 3.77616 1.22386 4.00002 1.5 4.00002H5.87864C6.40909 4.00002 6.9178 3.78929 7.29288 3.41421L7.35356 3.35353Z" fill="#0E1011"/>
<path d="M16 12C16 12.3391 15.9156 12.6585 15.7667 12.9383L15.3284 12.5L16 11.8284V12Z" fill="#0E1011"/>
<path d="M10.3536 9.64645C10.1583 9.45118 9.84171 9.45118 9.64645 9.64645C9.45118 9.84171 9.45118 10.1583 9.64645 10.3536L11.7929 12.5L9.64645 14.6464C9.45118 14.8417 9.45118 15.1583 9.64645 15.3536C9.84171 15.5488 10.1583 15.5488 10.3536 15.3536L12.5 13.2071L14.6464 15.3536C14.8417 15.5488 15.1583 15.5488 15.3536 15.3536C15.5488 15.1583 15.5488 14.8417 15.3536 14.6464L13.2071 12.5L15.3536 10.3536C15.5488 10.1583 15.5488 9.84171 15.3536 9.64645C15.1583 9.45118 14.8417 9.45118 14.6464 9.64645L12.5 11.7929L10.3536 9.64645Z" fill="#0E1011"/>
</svg>
