<svg viewBox="0 0 12 12" fill="none" xmlns="http://www.w3.org/2000/svg">
<path d="M7.50874 1.49998H9.1875C9.39461 1.49998 9.5625 1.66787 9.5625 1.87498C9.5625 2.08209 9.39461 2.24998 9.1875 2.24998H7.76266L5.03539 9.74998H6.5625C6.76961 9.74998 6.9375 9.91787 6.9375 10.125C6.9375 10.3321 6.76961 10.5 6.5625 10.5H4.50868C4.50289 10.5001 4.49708 10.5001 4.49127 10.5H2.8125C2.60539 10.5 2.4375 10.3321 2.4375 10.125C2.4375 9.91787 2.60539 9.74998 2.8125 9.74998H4.23734L6.96461 2.24998H5.4375C5.23039 2.24998 5.0625 2.08209 5.0625 1.87498C5.0625 1.66787 5.23039 1.49998 5.4375 1.49998H7.49131C7.49711 1.49984 7.50292 1.49984 7.50874 1.49998Z" fill="#0E1011"/>
</svg>
