<svg viewBox="0 0 12 12" fill="none" xmlns="http://www.w3.org/2000/svg">
<path fill-rule="evenodd" clip-rule="evenodd" d="M1.01983 1.80021C0.724528 1.50491 0.933673 1 1.35128 1H10.6486C11.0662 1 11.2754 1.50491 10.9801 1.80021L6.74995 6.03033V10.1553L5.24995 11.6553V6.03033L1.01983 1.80021ZM2.03028 1.75L5.99995 5.71967L3.21962 1.75H2.03028Z" fill="#0E1011"/>
<path fill-rule="evenodd" clip-rule="evenodd" d="M8.23477 8.23484C8.38122 8.08839 8.61866 8.08839 8.7651 8.23484L9.99994 9.46967L11.2348 8.23484C11.3812 8.08839 11.6187 8.08839 11.7651 8.23484C11.9116 8.38128 11.9116 8.61872 11.7651 8.76516L10.5303 10L11.7651 11.2348C11.9116 11.3813 11.9116 11.6187 11.7651 11.7652C11.6187 11.9116 11.3812 11.9116 11.2348 11.7652L9.99994 10.5303L8.7651 11.7652C8.61866 11.9116 8.38122 11.9116 8.23477 11.7652C8.08833 11.6187 8.08833 11.3813 8.23477 11.2348L9.46961 10L8.23477 8.76516C8.08833 8.61872 8.08833 8.38128 8.23477 8.23484Z" fill="#0E1011"/>
</svg>
