<svg viewBox="0 0 16 16" fill="none" xmlns="http://www.w3.org/2000/svg">
<path fill-rule="evenodd" clip-rule="evenodd" d="M12.5 2C12.2239 2 12 2.22386 12 2.5V13.5C12 13.7761 12.2239 14 12.5 14H13.5C13.7761 14 14 13.7761 14 13.5V2.5C14 2.22386 13.7761 2 13.5 2H12.5ZM11 2.5C11 1.67157 11.6716 1 12.5 1H13.5C14.3284 1 15 1.67157 15 2.5V13.5C15 14.3284 14.3284 15 13.5 15H12.5C11.6716 15 11 14.3284 11 13.5V2.5ZM7.5 6.00001C7.22386 6.00001 7 6.22387 7 6.50001V13.5C7 13.7761 7.22386 14 7.5 14H8.5C8.77614 14 9 13.7761 9 13.5V6.50001C9 6.22387 8.77614 6.00001 8.5 6.00001H7.5ZM6 6.50001C6 5.67158 6.67157 5.00001 7.5 5.00001H8.5C9.32843 5.00001 10 5.67158 10 6.50001V13.5C10 14.3284 9.32843 15 8.5 15H7.5C6.67157 15 6 14.3284 6 13.5V6.50001ZM2.5 10C2.22386 10 2 10.2239 2 10.5V13.5C2 13.7761 2.22386 14 2.5 14H3.5C3.77614 14 4 13.7761 4 13.5V10.5C4 10.2239 3.77614 10 3.5 10H2.5ZM1 10.5C1 9.67158 1.67157 9.00001 2.5 9.00001H3.5C4.32843 9.00001 5 9.67158 5 10.5V13.5C5 14.3284 4.32843 15 3.5 15H2.5C1.67157 15 1 14.3284 1 13.5V10.5Z" fill="#0E1011"/>
</svg>
