<svg viewBox="0 0 16 16" fill="none" xmlns="http://www.w3.org/2000/svg">
<path fill-rule="evenodd" clip-rule="evenodd" d="M1.5 1C0.671573 1 0 1.67157 0 2.5V12C0 13.1046 0.895431 14 2 14H7.5V13H2C1.44772 13 1 12.5523 1 12V4H5.87868C6.40911 4 6.91782 3.78929 7.29289 3.41421L7.70711 3H14C14.5523 3 15 3.44772 15 4V8.5H16V4C16 2.89543 15.1046 2 14 2H7.70711L7.29289 1.58579C6.91782 1.21071 6.40911 1 5.87868 1H1.5ZM5.87868 3H1V2.5C1 2.22386 1.22386 2 1.5 2H5.87868C6.1439 2 6.39825 2.10536 6.58579 2.29289L6.79289 2.5L6.58579 2.70711C6.39825 2.89464 6.1439 3 5.87868 3Z" fill="#0E1011"/>
<path fill-rule="evenodd" clip-rule="evenodd" d="M16 12.5C16 14.433 14.433 16 12.5 16C10.567 16 9 14.433 9 12.5C9 10.567 10.567 9 12.5 9C14.433 9 16 10.567 16 12.5ZM12.5 10C12.7761 10 13 10.2239 13 10.5V12H14.5C14.7761 12 15 12.2239 15 12.5C15 12.7761 14.7761 13 14.5 13H13V14.75C13 15.0261 12.7761 15.25 12.5 15.25C12.2239 15.25 12 15.0261 12 14.75V13H10.5C10.2239 13 10 12.7761 10 12.5C10 12.2239 10.2239 12 10.5 12H12V10.5C12 10.2239 12.2239 10 12.5 10Z" fill="#0E1011"/>
</svg>
