<svg viewBox="0 0 16 16" fill="none" xmlns="http://www.w3.org/2000/svg">
<path fill-rule="evenodd" clip-rule="evenodd" d="M4.25 0.5C3.00736 0.5 2 1.50736 2 2.75V13.25C2 14.4926 3.00736 15.5 4.25 15.5H11.75C12.9926 15.5 14 14.4926 14 13.25V2.75C14 1.50736 12.9926 0.5 11.75 0.5H4.25ZM3 2.75C3 2.05964 3.55964 1.5 4.25 1.5H5.125V4.125H3V2.75ZM3 4.875V7.625H5.125V4.875H3ZM3 8.375V11.125H5.125V8.375H3ZM3 11.875V13.25C3 13.9404 3.55964 14.5 4.25 14.5H5.125V11.875H3ZM5.875 14.5H10.125V8.375H5.875V14.5ZM10.875 14.5H11.75C12.4404 14.5 13 13.9404 13 13.25V11.875H10.875V14.5ZM13 11.125V8.375H10.875V11.125H13ZM13 7.625V4.875H10.875V7.625H13ZM13 4.125V2.75C13 2.05964 12.4404 1.5 11.75 1.5H10.875V4.125H13ZM10.125 1.5H5.875V7.625H10.125V1.5Z" fill="#0E1011"/>
</svg>
