<svg viewBox="0 0 12 12" fill="none" xmlns="http://www.w3.org/2000/svg">
<path fill-rule="evenodd" clip-rule="evenodd" d="M7.18236 1.27188C7.68284 1.08086 8.22991 1.04815 8.74958 1.17818C9.18689 1.2876 9.58705 1.50783 9.91239 1.81576C10.3553 1.66052 10.7748 1.44449 11.1589 1.17357C11.2866 1.08347 11.4568 1.08205 11.5861 1.17001C11.7153 1.25797 11.7764 1.41686 11.7394 1.56874C11.5687 2.26976 11.222 2.91447 10.7334 3.44254C10.7442 3.53753 10.7497 3.63307 10.75 3.72876L10.75 3.73C10.75 6.73623 9.30496 8.93001 7.23873 10.0298C5.18163 11.1247 2.54662 11.1154 0.192923 9.80781C0.0411185 9.72348 -0.0329237 9.54595 0.0139695 9.37874C0.0608627 9.21153 0.216422 9.0984 0.389943 9.1053C1.33206 9.14277 2.26381 8.93489 3.09576 8.50722C2.25456 8.02907 1.66626 7.44826 1.26917 6.82127C0.781479 6.05124 0.596434 5.23422 0.562925 4.49703C0.529492 3.76149 0.646374 3.09772 0.769796 2.62048C0.831732 2.381 0.895934 2.18612 0.945231 2.04977C0.969901 1.98153 0.990902 1.92778 1.00611 1.89023C1.01372 1.87145 1.01989 1.85671 1.02435 1.84622L1.02973 1.8337L1.0314 1.82987L1.03197 1.82858C1.03206 1.82838 1.03236 1.8277 1.37504 1.98L1.03197 1.82858C1.08684 1.70513 1.20426 1.61985 1.33872 1.60677C1.47318 1.59368 1.60428 1.65393 1.68192 1.76449C2.15154 2.4332 2.77925 2.97538 3.50914 3.34276C4.13002 3.65527 4.80844 3.83304 5.50004 3.86613V3.74743C5.4934 3.21268 5.65088 2.68874 5.95127 2.24624C6.25214 1.80302 6.68188 1.4629 7.18236 1.27188ZM1.51134 2.74979C1.50619 2.76892 1.50104 2.78842 1.49591 2.80827C1.38495 3.23729 1.28309 3.82352 1.31215 4.46298C1.34114 5.10079 1.49985 5.78377 1.90278 6.41998C2.30421 7.05381 2.9623 7.66397 4.02734 8.13732C4.15177 8.19262 4.23644 8.31103 4.24855 8.44665C4.26066 8.58227 4.19831 8.7138 4.08565 8.79027C3.41279 9.24701 2.66093 9.56395 1.87441 9.72843C3.63396 10.302 5.4346 10.1404 6.88634 9.36772C8.69498 8.40506 9.99984 6.47407 10 3.73062C9.99962 3.61477 9.98846 3.4992 9.96671 3.38541C9.94321 3.26246 9.9826 3.13589 10.0717 3.048C10.2876 2.83511 10.4737 2.59604 10.6263 2.33738C10.395 2.44157 10.1568 2.53071 9.91316 2.60408C9.77193 2.64661 9.61888 2.60239 9.52208 2.49109C9.27136 2.20281 8.93816 1.99849 8.56753 1.90575C8.1969 1.81302 7.80674 1.83634 7.4498 1.97258C7.09286 2.10881 6.78638 2.35138 6.57179 2.66748C6.35721 2.98358 6.24488 3.35796 6.25 3.73998L6.25007 3.745L6.25004 4.245C6.25004 4.44832 6.08801 4.61461 5.88476 4.61988C4.94425 4.64426 4.01232 4.43568 3.17195 4.01269C2.54369 3.69647 1.98119 3.26776 1.51134 2.74979Z" fill="#0E1011"/>
</svg>
