<svg viewBox="0 0 16 16" fill="none" xmlns="http://www.w3.org/2000/svg">
<path fill-rule="evenodd" clip-rule="evenodd" d="M8.8 8.5L7.6 11.5859L10 12.2109L6.8 16L8.4 12.9141L6 12.2891L8.8 8.5Z" fill="#0E1011"/>
<path d="M1 8C1 5.23858 3.23858 3 6 3C8.31029 3 10.2558 4.56733 10.8288 6.69755L10.9504 7.14957L11.4094 7.05801C11.6 7.02001 11.7974 7 12 7C13.6569 7 15 8.34315 15 10C15 11.4356 13.9912 12.6367 12.6433 12.931C12.3736 12.9899 12.2026 13.2563 12.2615 13.5261C12.3204 13.7959 12.5869 13.9669 12.8567 13.9079C14.654 13.5155 16 11.9155 16 10C16 7.79086 14.2091 6 12 6C11.8867 6 11.7744 6.00472 11.6634 6.01399C10.8437 3.67659 8.61819 2 6 2C2.68629 2 0 4.68629 0 8C0 10.5448 1.58405 12.7183 3.81811 13.5908C4.07534 13.6913 4.36529 13.5642 4.46574 13.3069C4.5662 13.0497 4.43911 12.7598 4.18189 12.6593C2.31859 11.9316 1 10.1192 1 8Z" fill="#0E1011"/>
</svg>
