<svg viewBox="0 0 16 16" fill="none" xmlns="http://www.w3.org/2000/svg">
<path fill-rule="evenodd" clip-rule="evenodd" d="M6.45934 3C5.71821 3 5.00332 3.27433 4.45245 3.77012L0.165518 7.62835C0.0601607 7.72317 0 7.85826 0 8C0 8.14174 0.0601607 8.27683 0.165518 8.37165L4.45245 12.2299C5.00332 12.7257 5.71821 13 6.45934 13H13.75C14.9926 13 16 11.9926 16 10.75V5.25C16 4.00736 14.9926 3 13.75 3H6.45934ZM8.35355 5.64645C8.15829 5.45118 7.84171 5.45118 7.64645 5.64645C7.45118 5.84171 7.45118 6.15829 7.64645 6.35355L9.29289 8L7.64645 9.64645C7.45118 9.84171 7.45118 10.1583 7.64645 10.3536C7.84171 10.5488 8.15829 10.5488 8.35355 10.3536L10 8.70711L11.6464 10.3536C11.8417 10.5488 12.1583 10.5488 12.3536 10.3536C12.5488 10.1583 12.5488 9.84171 12.3536 9.64645L10.7071 8L12.3536 6.35355C12.5488 6.15829 12.5488 5.84171 12.3536 5.64645C12.1583 5.45118 11.8417 5.45118 11.6464 5.64645L10 7.29289L8.35355 5.64645Z" fill="#0E1011"/>
</svg>
