<svg viewBox="0 0 16 16" fill="none" xmlns="http://www.w3.org/2000/svg">
<path d="M12 4C12 6.20914 10.2091 8 8 8C5.79086 8 4 6.20914 4 4C4 1.79086 5.79086 0 8 0C10.2091 0 12 1.79086 12 4Z" fill="#0E1011"/>
<path d="M8 9V16C5.31039 16 2.93079 14.6727 1.48047 12.6374L1.69346 11.1464C1.8694 9.91482 2.9242 9 4.16833 9H8Z" fill="#0E1011"/>
<path d="M15.8536 11.8536C16.0488 11.6583 16.0488 11.3417 15.8536 11.1464C15.6583 10.9512 15.3417 10.9512 15.1464 11.1464L11.5 14.7929L9.85355 13.1464C9.65829 12.9512 9.34171 12.9512 9.14645 13.1464C8.95118 13.3417 8.95118 13.6583 9.14645 13.8536L11.1464 15.8536C11.3417 16.0488 11.6583 16.0488 11.8536 15.8536L15.8536 11.8536Z" fill="#0E1011"/>
</svg>
