<svg viewBox="0 0 16 16" fill="none" xmlns="http://www.w3.org/2000/svg">
<path fill-rule="evenodd" clip-rule="evenodd" d="M0.85375 0.146447C0.658488 -0.0488155 0.341906 -0.0488155 0.146643 0.146447C-0.0486187 0.341709 -0.0486187 0.658291 0.146643 0.853553L2.45318 3.16009C0.965636 4.25204 0 6.01326 0 8.00001C0 11.3137 2.68629 14 6 14H12C12.3928 14 12.7723 13.9434 13.131 13.8379L15.1466 15.8536C15.3419 16.0488 15.6585 16.0488 15.8538 15.8536C16.049 15.6583 16.049 15.3417 15.8538 15.1464L0.85375 0.146447ZM12.2802 12.9871L3.1703 3.87721C1.8595 4.77861 1 6.28894 1 8.00001C1 10.7614 3.23858 13 6 13H12C12.0945 13 12.1879 12.9956 12.2802 12.9871Z" fill="#0E1011"/>
<path d="M16 10C16 10.8492 15.7354 11.6365 15.2841 12.2841L14.5619 11.5619C14.8398 11.1069 15 10.5722 15 10C15 8.34316 13.6569 7.00001 12 7.00001C11.9144 7.00001 11.8299 7.00357 11.7465 7.01052L10.9758 7.07472L10.7198 6.34487C10.0363 4.39549 8.17982 3.00001 6 3.00001L5.07143 2.07143C5.37407 2.02441 5.68418 2.00001 6 2.00001C8.61765 2.00001 10.8438 3.6763 11.6635 6.01397C11.7744 6.00473 11.8867 6.00001 12 6.00001C14.2091 6.00001 16 7.79087 16 10Z" fill="#0E1011"/>
</svg>
