<svg viewBox="0 0 12 12" fill="none" xmlns="http://www.w3.org/2000/svg">
<path d="M11.8899 0.640165C12.0364 0.493718 12.0364 0.256282 11.8899 0.109835C11.7435 -0.0366117 11.506 -0.0366117 11.3596 0.109835L8.24974 3.21967V1.125C8.24974 0.917893 8.08185 0.75 7.87474 0.75C7.66763 0.75 7.49974 0.917893 7.49974 1.125V4.5H10.8747C11.0818 4.5 11.2497 4.33211 11.2497 4.125C11.2497 3.91789 11.0818 3.75 10.8747 3.75H8.78007L11.8899 0.640165Z" fill="#0E1011"/>
<path d="M11.2497 9.75C11.2497 10.5784 10.5748 11.2613 9.75464 11.1444C8.39079 10.9499 7.11141 10.4934 5.96911 9.8275C4.44012 8.93612 3.15674 7.6695 2.24521 6.15385C1.53961 4.98063 1.05682 3.65819 0.855371 2.24508C0.738456 1.42495 1.42131 0.75 2.24974 0.75H3.74974C4.16395 0.75 4.49535 1.08681 4.54077 1.49852C4.61329 2.15587 4.78021 2.78478 5.02766 3.37141L3.8169 4.58216C3.70052 4.69855 3.67291 4.87767 3.75453 5.0206C4.54567 6.40612 5.70991 7.55108 7.11041 8.31865C7.25269 8.39663 7.42862 8.36799 7.54335 8.25326L8.76761 7.029C9.31412 7.24522 9.8956 7.39215 10.5012 7.45897C10.9129 7.50439 11.2497 7.83579 11.2497 8.25V9.75Z" fill="#0E1011"/>
</svg>
