<svg viewBox="0 0 16 16" fill="none" xmlns="http://www.w3.org/2000/svg">
<path fill-rule="evenodd" clip-rule="evenodd" d="M8 5C6.34315 5 5 6.34315 5 8C5 9.65685 6.34315 11 8 11C9.65685 11 11 9.65685 11 8C11 6.34315 9.65685 5 8 5ZM5.875 7.75C5.875 6.71447 6.71447 5.875 7.75 5.875H8V6.625H7.75C7.12868 6.625 6.625 7.12868 6.625 7.75V8H5.875V7.75Z" fill="#0E1011"/>
<path fill-rule="evenodd" clip-rule="evenodd" d="M5.70711 1C5.44189 1 5.18754 1.10536 5 1.29289L4.29289 2L2.25 2C1.00736 2 0 3.00736 0 4.25V11.75C0 12.9926 1.00736 14 2.25 14H13.75C14.9926 14 16 12.9926 16 11.75V4.25C16 3.00736 14.9926 2 13.75 2H11.7071L11 1.29289C10.8125 1.10536 10.5581 1 10.2929 1H5.70711ZM4 8C4 5.79086 5.79086 4 8 4C10.2091 4 12 5.79086 12 8C12 10.2091 10.2091 12 8 12C5.79086 12 4 10.2091 4 8Z" fill="#0E1011"/>
</svg>
