<svg viewBox="0 0 12 12" fill="none" xmlns="http://www.w3.org/2000/svg">
<path d="M5.5 6C6.32843 6 7 5.32843 7 4.5C7 3.67157 6.32843 3 5.5 3C4.67157 3 4 3.67157 4 4.5C4 5.32843 4.67157 6 5.5 6Z" fill="#0E1011"/>
<path fill-rule="evenodd" clip-rule="evenodd" d="M10 4.5C10 8.5 5.5 12 5.5 12C5.5 12 1 8.5 1 4.5C1 2.01472 3.01472 0 5.5 0C7.98528 0 10 2.01472 10 4.5ZM9.25 4.5C9.25 6.2361 8.26101 7.94104 7.16953 9.27507C6.63418 9.92939 6.09705 10.4667 5.69357 10.8403C5.62479 10.904 5.56004 10.9628 5.5 11.0165C5.43997 10.9628 5.37521 10.904 5.30643 10.8403C4.90295 10.4667 4.36582 9.92939 3.83047 9.27507C2.73899 7.94104 1.75 6.2361 1.75 4.5C1.75 2.42893 3.42893 0.75 5.5 0.75C7.57107 0.75 9.25 2.42893 9.25 4.5Z" fill="#0E1011"/>
</svg>
