<svg viewBox="0 0 16 16" fill="none" xmlns="http://www.w3.org/2000/svg">
<path d="M5.875 7.75C5.875 6.71447 6.71447 5.875 7.75 5.875H8V6.625H7.75C7.12868 6.625 6.625 7.12868 6.625 7.75V8H5.875V7.75Z" fill="#0E1011"/>
<path fill-rule="evenodd" clip-rule="evenodd" d="M8 4C5.79086 4 4 5.79086 4 8C4 10.2091 5.79086 12 8 12C10.2091 12 12 10.2091 12 8C12 5.79086 10.2091 4 8 4ZM5 8C5 6.34315 6.34315 5 8 5C9.65685 5 11 6.34315 11 8C11 9.65685 9.65685 11 8 11C6.34315 11 5 9.65685 5 8Z" fill="#0E1011"/>
<path fill-rule="evenodd" clip-rule="evenodd" d="M5 1.29289C5.18754 1.10536 5.44189 1 5.70711 1H10.2929C10.5581 1 10.8125 1.10536 11 1.29289L11.7071 2H13.75C14.9926 2 16 3.00736 16 4.25V11.75C16 12.9926 14.9926 14 13.75 14H2.25C1.00736 14 0 12.9926 0 11.75V4.25C0 3.00736 1.00736 2 2.25 2L4.29289 2L5 1.29289ZM10.2929 2H5.70711L5 2.70711C4.81246 2.89464 4.55811 3 4.29289 3H2.25C1.55964 3 1 3.55964 1 4.25V11.75C1 12.4404 1.55964 13 2.25 13H13.75C14.4404 13 15 12.4404 15 11.75V4.25C15 3.55964 14.4404 3 13.75 3H11.7071C11.4419 3 11.1875 2.89464 11 2.70711L10.2929 2Z" fill="#0E1011"/>
</svg>
