<svg viewBox="0 0 12 12" fill="none" xmlns="http://www.w3.org/2000/svg">
<path fill-rule="evenodd" clip-rule="evenodd" d="M4.47708 1.25C3.79938 1.25 3.25 1.79938 3.25 2.47708V2.5C3.25 2.72768 3.31087 2.94114 3.41723 3.125H1.5C0.740609 3.125 0.125 3.74061 0.125 4.5C0.125 5.12939 0.547874 5.66001 1.125 5.82324V9C1.125 10.0355 1.96447 10.875 3 10.875H9C10.0355 10.875 10.875 10.0355 10.875 9V5.82324C11.4521 5.66001 11.875 5.12939 11.875 4.5C11.875 3.74061 11.2594 3.125 10.5 3.125H8.58277C8.68913 2.94114 8.75 2.72768 8.75 2.5V2.47708C8.75 1.79938 8.20062 1.25 7.52292 1.25C7.11264 1.25 6.72951 1.45505 6.50192 1.79642L6 2.54931L5.49808 1.79642C5.27049 1.45505 4.88736 1.25 4.47708 1.25ZM5.75 3.875H1.5C1.15482 3.875 0.875 4.15482 0.875 4.5C0.875 4.84518 1.15482 5.125 1.5 5.125H5.75V3.875ZM6.25 5.125V3.875H10.5C10.8452 3.875 11.125 4.15482 11.125 4.5C11.125 4.84518 10.8452 5.125 10.5 5.125H6.25ZM5.75 5.875H1.875V9C1.875 9.62132 2.37868 10.125 3 10.125H5.75V5.875ZM6.25 10.125V5.875H10.125V9C10.125 9.62132 9.62132 10.125 9 10.125H6.25ZM7.91472 3.125C8.11681 2.99063 8.25 2.76087 8.25 2.5V2.47708C8.25 2.07553 7.92447 1.75 7.52292 1.75C7.27982 1.75 7.0528 1.8715 6.91795 2.07377L6.25 3.07569V3.125H7.91472ZM5.75 3.125V3.07569L5.08205 2.07377C4.9472 1.8715 4.72018 1.75 4.47708 1.75C4.07553 1.75 3.75 2.07553 3.75 2.47708V2.5C3.75 2.76087 3.88319 2.99063 4.08528 3.125H5.75Z" fill="#0E1011"/>
</svg>
