<svg viewBox="0 0 12 12" fill="none" xmlns="http://www.w3.org/2000/svg">
<path fill-rule="evenodd" clip-rule="evenodd" d="M0.125 2.5C0.125 1.74061 0.740608 1.125 1.5 1.125H4.65533L5.65533 2.125H10.3281C11.2256 2.125 11.9531 2.85254 11.9531 3.75V5.5C11.9531 5.70711 11.7852 5.875 11.5781 5.875C11.371 5.875 11.2031 5.70711 11.2031 5.5V3.75C11.2031 3.26675 10.8114 2.875 10.3281 2.875H5.65533L4.65533 3.875H0.875V9.25C0.875 9.73325 1.26675 10.125 1.75 10.125H5.5C5.70711 10.125 5.875 10.2929 5.875 10.5C5.875 10.7071 5.70711 10.875 5.5 10.875H1.75C0.852537 10.875 0.125 10.1475 0.125 9.25V2.5ZM4.34467 1.875L4.96967 2.5L4.34467 3.125H0.875V2.5C0.875 2.15482 1.15482 1.875 1.5 1.875H4.34467Z" fill="#0E1011"/>
<path d="M7.76516 7.23484C7.61872 7.08839 7.38128 7.08839 7.23484 7.23484C7.08839 7.38128 7.08839 7.61872 7.23484 7.76516L8.96967 9.5L7.23484 11.2348C7.08839 11.3813 7.08839 11.6187 7.23484 11.7652C7.38128 11.9116 7.61872 11.9116 7.76516 11.7652L9.5 10.0303L11.2348 11.7652C11.3813 11.9116 11.6187 11.9116 11.7652 11.7652C11.9116 11.6187 11.9116 11.3813 11.7652 11.2348L10.0303 9.5L11.7652 7.76516C11.9116 7.61872 11.9116 7.38128 11.7652 7.23484C11.6187 7.08839 11.3813 7.08839 11.2348 7.23484L9.5 8.96967L7.76516 7.23484Z" fill="#0E1011"/>
</svg>
