<svg viewBox="0 0 16 16" fill="none" xmlns="http://www.w3.org/2000/svg">
<path d="M2 3C2 2.44772 2.44771 2 3 2C4.44454 2 5.87494 2.28452 7.20952 2.83732C8.5441 3.39013 9.75673 4.20038 10.7782 5.22183C11.7996 6.24327 12.6099 7.4559 13.1627 8.79048C13.7155 10.1251 14 11.5555 14 13C14 13.5523 13.5523 14 13 14C12.4477 14 12 13.5523 12 13C12 11.8181 11.7672 10.6478 11.3149 9.55585C10.8626 8.46392 10.1997 7.47177 9.36396 6.63604C8.52823 5.80031 7.53608 5.13738 6.44415 4.68508C5.35222 4.23279 4.1819 4 3 4C2.44771 4 2 3.55228 2 3Z" fill="#0E1011"/>
<path d="M2 8C2 7.44772 2.44771 7 3 7C3.78793 7 4.56815 7.15519 5.2961 7.45672C6.02405 7.75825 6.68549 8.20021 7.24264 8.75736C7.79979 9.31451 8.24175 9.97595 8.54328 10.7039C8.84481 11.4319 9 12.2121 9 13C9 13.5523 8.55229 14 8 14C7.44771 14 7 13.5523 7 13C7 12.4747 6.89654 11.9546 6.69552 11.4693C6.4945 10.984 6.19986 10.543 5.82843 10.1716C5.45699 9.80014 5.01604 9.5055 4.53073 9.30448C4.04543 9.10346 3.52529 9 3 9C2.44772 9 2 8.55228 2 8Z" fill="#0E1011"/>
<path d="M3 14C3.55228 14 4 13.5523 4 13C4 12.4477 3.55228 12 3 12C2.44772 12 2 12.4477 2 13C2 13.5523 2.44772 14 3 14Z" fill="#0E1011"/>
</svg>
