<svg viewBox="0 0 16 16" fill="none" xmlns="http://www.w3.org/2000/svg">
<path fill-rule="evenodd" clip-rule="evenodd" d="M7.65431 1.08433C7.87538 0.96603 8.14095 0.96603 8.36203 1.08433L15.587 4.95055C15.8309 5.08106 15.9831 5.33522 15.9831 5.61183V10.3123C15.9831 10.5889 15.8309 10.8431 15.587 10.9736L8.36203 14.8398C8.14095 14.9581 7.87538 14.9581 7.65431 14.8398L0.429343 10.9736C0.185457 10.8431 0.0332031 10.5889 0.0332031 10.3123V5.61183C0.0332031 5.33522 0.185456 5.08106 0.429343 4.95055L7.65431 1.08433ZM1.54514 5.48764L7.50817 2.29671L7.50817 5.67945L4.68596 7.37845L1.54514 5.48764ZM1.0332 6.34668V9.57744L3.71652 7.96206L1.0332 6.34668ZM4.68596 8.54567L1.54514 10.4365L7.50817 13.6274V10.2447L4.68596 8.54567ZM8.50817 13.6274L14.4712 10.4365L11.3304 8.54567L8.50817 10.2447V13.6274ZM12.2998 7.96206L14.9831 9.57744V6.34668L12.2998 7.96206ZM14.4712 5.48764L11.3304 7.37845L8.50817 5.67945V2.29671L14.4712 5.48764ZM10.3609 7.96206L8.00817 9.37845L5.6554 7.96206L8.00817 6.54567L10.3609 7.96206Z" fill="#0E1011"/>
</svg>
