<svg viewBox="0 0 16 16" fill="none" xmlns="http://www.w3.org/2000/svg">
<path d="M6 6H10V10H6V6Z" fill="#0E1011"/>
<path fill-rule="evenodd" clip-rule="evenodd" d="M6 1H10V0H11V1H12.5C13.8807 1 15 2.11929 15 3.5V5H16V6H15V10H16V11H15V12.5C15 13.8807 13.8807 15 12.5 15H11V16H10V15H6V16H5V15H3.5C2.11929 15 1 13.8807 1 12.5V11H0V10H1V6H0V5H1V3.5C1 2.11929 2.11929 1 3.5 1H5V0H6V1ZM6 5C5.44772 5 5 5.44772 5 6V10C5 10.5523 5.44772 11 6 11H10C10.5523 11 11 10.5523 11 10V6C11 5.44772 10.5523 5 10 5H6Z" fill="#0E1011"/>
</svg>
