<svg viewBox="0 0 12 12" fill="none" xmlns="http://www.w3.org/2000/svg">
<path fill-rule="evenodd" clip-rule="evenodd" d="M12 6C12 9.31371 9.31371 12 6 12C2.68629 12 0 9.31371 0 6C0 2.68629 2.68629 0 6 0C9.31371 0 12 2.68629 12 6ZM6.65625 3.67742C6.65625 3.31498 6.36244 3.02117 6 3.02117C5.63756 3.02117 5.34375 3.31498 5.34375 3.67742L5.34375 6.3871C5.34375 6.74953 5.63756 7.04335 6 7.04335C6.36244 7.04335 6.65625 6.74953 6.65625 6.3871V3.67742ZM6.65625 7.9355C6.65625 7.57306 6.36244 7.27925 6 7.27925C5.63756 7.27925 5.34375 7.57306 5.34375 7.9355V8.3226C5.34375 8.68503 5.63756 8.97885 6 8.97885C6.36244 8.97885 6.65625 8.68503 6.65625 8.3226V7.9355Z" fill="#0E1011"/>
</svg>
