<svg viewBox="0 0 16 16" fill="none" xmlns="http://www.w3.org/2000/svg">
<path d="M9.70711 12.9999H3.70711L0.853553 15.8534C0.658291 16.0487 0.341709 16.0487 0.146447 15.8534C-0.0488155 15.6582 -0.0488155 15.3416 0.146447 15.1463L3 12.2928V6.29278L7.81802 1.47476C9.57538 -0.282601 12.4246 -0.282602 14.182 1.47476L14.5251 1.8179C16.2825 3.57526 16.2825 6.4245 14.5251 8.18186L13.7071 8.99988H7.70711L13.6036 3.10343C13.7988 2.90817 13.7988 2.59159 13.6036 2.39632C13.4083 2.20106 13.0917 2.20106 12.8964 2.39632L3.14645 12.1463C2.95118 12.3416 2.95118 12.6582 3.14645 12.8534C3.34171 13.0487 3.65829 13.0487 3.85355 12.8534L6.70711 9.99988H12.7071L9.70711 12.9999Z" fill="#0E1011"/>
</svg>
