<svg viewBox="0 0 12 12" fill="none" xmlns="http://www.w3.org/2000/svg">
<path fill-rule="evenodd" clip-rule="evenodd" d="M10.1062 1.63652C9.08103 0.611394 7.41897 0.611395 6.39384 1.63652L3 5.03036V8.4697L7.60983 3.85987C7.75628 3.71342 7.99372 3.71342 8.14016 3.85987C8.28661 4.00632 8.28661 4.24375 8.14016 4.3902L5.78033 6.75004H9.21967L10.3635 5.60619C11.3886 4.58106 11.3886 2.919 10.3635 1.89388L10.1062 1.63652ZM8.46967 7.50004H5.03033L3.53033 9.00004H6.96967L8.46967 7.50004ZM2.78033 9.75004H7.28033L10.8938 6.13652C12.2119 4.8185 12.2119 2.68157 10.8938 1.36355L10.6365 1.10619C9.31846 -0.21183 7.18153 -0.211829 5.86351 1.10619L2.25 4.71971V9.2197L0.109835 11.3599C-0.0366117 11.5063 -0.0366117 11.7438 0.109835 11.8902C0.256282 12.0366 0.493718 12.0366 0.640165 11.8902L2.78033 9.75004Z" fill="#0E1011"/>
</svg>
