<svg viewBox="0 0 12 12" fill="none" xmlns="http://www.w3.org/2000/svg">
<path fill-rule="evenodd" clip-rule="evenodd" d="M6 12C9.31371 12 12 9.31371 12 6C12 2.68629 9.31371 0 6 0C2.68629 0 0 2.68629 0 6C0 9.31371 2.68629 12 6 12ZM9.43772 9.96805C8.51667 10.7667 7.31478 11.25 6 11.25C3.1005 11.25 0.75 8.8995 0.75 6C0.75 4.68522 1.23331 3.48332 2.03195 2.56228L9.43772 9.96805ZM9.96805 9.43772L2.56228 2.03195C3.48332 1.23331 4.68522 0.75 6 0.75C8.8995 0.75 11.25 3.1005 11.25 6C11.25 7.31478 10.7667 8.51668 9.96805 9.43772Z" fill="#0E1011"/>
</svg>
