<svg viewBox="0 0 12 12" fill="none" xmlns="http://www.w3.org/2000/svg">
<path fill-rule="evenodd" clip-rule="evenodd" d="M9.75002 3.75C9.75002 2.92157 9.07845 2.25 8.25002 2.25C7.42159 2.25 6.75002 2.92157 6.75002 3.75C6.75002 4.57843 7.42159 5.25 8.25002 5.25C9.07845 5.25 9.75002 4.57843 9.75002 3.75ZM8.25002 3C8.66423 3 9.00002 3.33579 9.00002 3.75C9.00002 4.16421 8.66423 4.5 8.25002 4.5C7.8358 4.5 7.50002 4.16421 7.50002 3.75C7.50002 3.33579 7.8358 3 8.25002 3Z" fill="#0E1011"/>
<path fill-rule="evenodd" clip-rule="evenodd" d="M12 4.93934L12 1.125C12 0.50368 11.4963 1.93889e-07 10.875 1.6673e-07L7.06068 0C6.76231 -1.30421e-08 6.47616 0.118526 6.26518 0.329505L0.608012 5.98668C-0.124221 6.71891 -0.12422 7.90609 0.608013 8.63833L3.36169 11.392C4.09392 12.1242 5.28111 12.1242 6.01334 11.392L11.6705 5.73484C11.8815 5.52386 12 5.23771 12 4.93934ZM11.25 1.125L11.25 4.93934C11.25 5.0388 11.2105 5.13418 11.1402 5.2045L5.48301 10.8617C5.04367 11.301 4.33136 11.301 3.89202 10.8617L1.13834 8.108C0.699003 7.66866 0.699003 6.95635 1.13834 6.51701L6.79551 0.859835C6.86584 0.789509 6.96122 0.75 7.06068 0.75L10.875 0.75C11.0821 0.75 11.25 0.917893 11.25 1.125Z" fill="#0E1011"/>
</svg>
