<svg viewBox="0 0 12 12" fill="none" xmlns="http://www.w3.org/2000/svg">
<path fill-rule="evenodd" clip-rule="evenodd" d="M6.00148 11.623C7.87773 10.1223 12 6.74871 12 3.74989C12 1.67888 10.3211 0 8.25011 0C7.40585 0 6.62676 0.279005 6 0.74984C5.37324 0.279005 4.59415 0 3.74989 0C1.67888 0 0 1.67888 0 3.74989C0 6.7496 4.12434 10.1243 5.99982 11.6244L6.00148 11.623ZM5.99982 10.6613C5.08704 9.91906 3.88609 8.89444 2.85408 7.74775C1.60055 6.35494 0.75 4.94676 0.75 3.74989C0.75 2.09309 2.09309 0.75 3.74989 0.75C4.42615 0.75 5.0482 0.972875 5.54953 1.34949L6 1.68789L6.45047 1.34949C6.9518 0.972874 7.57385 0.75 8.25011 0.75C9.90691 0.75 11.25 2.09309 11.25 3.74989C11.25 4.94673 10.3994 6.35491 9.14576 7.74773C8.11366 8.89443 6.91263 9.91905 5.99982 10.6613Z" fill="#0E1011"/>
</svg>
