<svg viewBox="0 0 16 16" fill="none" xmlns="http://www.w3.org/2000/svg">
<path fill-rule="evenodd" clip-rule="evenodd" d="M1.8 3.1C1.64849 2.98637 1.44579 2.96809 1.27639 3.05279C1.107 3.13749 1 3.31062 1 3.5V12.5C1 12.6894 1.107 12.8625 1.27639 12.9472C1.44579 13.0319 1.64849 13.0136 1.8 12.9L7.8 8.4C7.9259 8.30558 8 8.15738 8 8V12.5C8 12.6894 8.107 12.8625 8.27639 12.9472C8.44579 13.0319 8.64849 13.0136 8.8 12.9L14.8 8.4C14.9259 8.30558 15 8.15738 15 8C15 7.84262 14.9259 7.69443 14.8 7.6L8.8 3.1C8.64849 2.98637 8.44579 2.96809 8.27639 3.05279C8.107 3.13749 8 3.31062 8 3.5V8C8 7.84262 7.9259 7.69443 7.8 7.6L1.8 3.1ZM6.66667 8L2 11.5V4.5L6.66667 8ZM13.6667 8L9 11.5V4.5L13.6667 8Z" fill="#0E1011"/>
</svg>
