<svg viewBox="0 0 16 16" fill="none" xmlns="http://www.w3.org/2000/svg">
<path d="M8 14C9.10457 14 10 13.1046 10 12C10 10.9801 9.23658 10.1385 8.25 10.0155V4.5C8.25 4.36193 8.13807 4.25 8 4.25C7.86193 4.25 7.75 4.36193 7.75 4.5V10.0155C6.76342 10.1385 6 10.9801 6 12C6 13.1046 6.89543 14 8 14Z" fill="#0E1011"/>
<path fill-rule="evenodd" clip-rule="evenodd" d="M8 0C6.89543 0 6 0.895431 6 2V8.53524C4.80519 9.22636 4 10.5187 4 12C4 14.2091 5.79086 16 8 16C10.2091 16 12 14.2091 12 12C12 10.5187 11.1948 9.22636 10 8.53524V2C10 0.895431 9.10457 0 8 0ZM7 2C7 1.44772 7.44772 1 8 1C8.55228 1 9 1.44772 9 2V9.15284L9.28545 9.28845C10.3002 9.77048 11 10.804 11 12C11 13.6569 9.65685 15 8 15C6.34315 15 5 13.6569 5 12C5 10.804 5.69984 9.77048 6.71455 9.28845L7 9.15284V2Z" fill="#0E1011"/>
<path d="M10.75 2.375C10.5429 2.375 10.375 2.54289 10.375 2.75C10.375 2.95711 10.5429 3.125 10.75 3.125H12.25C12.4571 3.125 12.625 2.95711 12.625 2.75C12.625 2.54289 12.4571 2.375 12.25 2.375H10.75Z" fill="#0E1011"/>
<path d="M10.75 4.375C10.5429 4.375 10.375 4.54289 10.375 4.75C10.375 4.95711 10.5429 5.125 10.75 5.125H12.25C12.4571 5.125 12.625 4.95711 12.625 4.75C12.625 4.54289 12.4571 4.375 12.25 4.375H10.75Z" fill="#0E1011"/>
<path d="M10.75 6.375C10.5429 6.375 10.375 6.54289 10.375 6.75C10.375 6.95711 10.5429 7.125 10.75 7.125H12.25C12.4571 7.125 12.625 6.95711 12.625 6.75C12.625 6.54289 12.4571 6.375 12.25 6.375H10.75Z" fill="#0E1011"/>
</svg>
