<svg viewBox="0 0 12 12" fill="none" xmlns="http://www.w3.org/2000/svg">
<path fill-rule="evenodd" clip-rule="evenodd" d="M2.57143 1.71429C2.13749 1.71429 1.78571 2.03408 1.78571 2.42857C1.78571 2.82306 2.13749 3.14286 2.57143 3.14286C3.00537 3.14286 3.35714 2.82306 3.35714 2.42857C3.35714 2.03408 3.00537 1.71429 2.57143 1.71429ZM1 2.42857C1 1.63959 1.70355 1 2.57143 1C3.4393 1 4.14286 1.63959 4.14286 2.42857C4.14286 3.21755 3.4393 3.85714 2.57143 3.85714C1.70355 3.85714 1 3.21755 1 2.42857ZM4.92857 7.07143C4.92857 5.29623 6.51156 3.85714 8.46429 3.85714C10.417 3.85714 12 5.29623 12 7.07143V11H8.85714V7.07143C8.85714 6.87418 8.68125 6.71429 8.46429 6.71429C8.24732 6.71429 8.07143 6.87418 8.07143 7.07143V11H4.92857V7.07143ZM8.46429 4.57143C6.9455 4.57143 5.71429 5.69072 5.71429 7.07143V10.2857H7.28571V7.07143C7.28571 6.4797 7.81338 6 8.46429 6C9.11519 6 9.64286 6.4797 9.64286 7.07143V10.2857H11.2143V7.07143C11.2143 5.69072 9.98307 4.57143 8.46429 4.57143ZM1 5.28571C1 4.89123 1.35178 4.57143 1.78571 4.57143H3.35714C3.79108 4.57143 4.14286 4.89123 4.14286 5.28571V10.2857C4.14286 10.6802 3.79108 11 3.35714 11H1.78571C1.35178 11 1 10.6802 1 10.2857V5.28571ZM1.78571 5.28571V10.2857H3.35714V5.28571H1.78571Z" fill="#0E1011"/>
</svg>
