<svg viewBox="0 0 12 12" fill="none" xmlns="http://www.w3.org/2000/svg">
<path fill-rule="evenodd" clip-rule="evenodd" d="M0.840876 0.859835C0.987323 0.713388 1.22476 0.713388 1.37121 0.859835L3.20063 2.68926L4.95472 4.42385L7.53087 7C7.5622 7.01703 7.59121 7.0386 7.6169 7.06428L9.3309 8.77829C9.35691 8.8043 9.37867 8.83369 9.39577 8.8654L11.1402 10.6098C11.2867 10.7563 11.2867 10.9937 11.1402 11.1402C10.9938 11.2866 10.7563 11.2866 10.6099 11.1402L9.01009 9.54038C8.17833 10.0938 7.16883 10.5 6.00004 10.5C4.05923 10.5 2.56045 9.38251 1.57058 8.31784C1.0721 7.78171 0.691154 7.24704 0.434793 6.84679C0.306378 6.6463 0.20861 6.47856 0.142433 6.35994C0.109331 6.3006 0.084091 6.25347 0.0668337 6.22058C0.0582038 6.20414 0.0515662 6.19125 0.0469361 6.18217L0.0414968 6.17143L0.0399089 6.16826L0.0393984 6.16724C0.039326 6.16709 0.0390772 6.16659 0.375041 6C0.0390772 5.83341 0.0391183 5.83332 0.0391629 5.83323L0.0403485 5.83086L0.0429557 5.82567L0.0521653 5.80762C0.060076 5.79225 0.0715277 5.7703 0.0864849 5.74235C0.116393 5.68647 0.160357 5.60656 0.218097 5.5074C0.333493 5.30925 0.504391 5.03341 0.728607 4.71843C1.11501 4.17562 1.66611 3.5076 2.3719 2.92119L0.840876 1.39017C0.694429 1.24372 0.694429 1.00628 0.840876 0.859835ZM2.90617 3.45285C2.24045 3.99461 1.71307 4.62875 1.33961 5.15338C1.1307 5.44684 0.972069 5.70305 0.866211 5.88483C0.841341 5.92754 0.819411 5.96609 0.800452 6C0.860118 6.10673 0.949086 6.25918 1.06635 6.44228C1.30538 6.81546 1.65951 7.31204 2.11985 7.80716C3.04759 8.80499 4.36131 9.75 6.00004 9.75C6.93706 9.75 7.7669 9.4419 8.48144 8.98949L7.334 7.84205C6.96086 8.11711 6.49926 8.28 6.00004 8.28C4.7574 8.28 3.75004 7.27264 3.75004 6.03C3.75004 5.53707 3.90885 5.08082 4.17764 4.71019L2.90617 3.45285ZM4.71912 5.24891C4.58 5.47645 4.50004 5.74373 4.50004 6.03C4.50004 6.85843 5.17161 7.53 6.00004 7.53C6.28631 7.53 6.55359 7.45004 6.78113 7.31092L4.71912 5.24891ZM0.375041 6L0.0391629 5.83323C-0.0128855 5.9382 -0.01265 6.06228 0.0393984 6.16724L0.375041 6ZM6.00004 2.25C5.50902 2.25 5.04887 2.33443 4.61985 2.47908C4.42359 2.54524 4.21086 2.43979 4.14469 2.24354C4.07853 2.04728 4.18398 1.83455 4.38023 1.76838C4.88045 1.59973 5.42143 1.5 6.00004 1.5C7.94086 1.5 9.43963 2.61749 10.4295 3.68216C10.928 4.21829 11.3089 4.75296 11.5653 5.15321C11.6937 5.3537 11.7915 5.52144 11.8576 5.64006C11.8908 5.6994 11.916 5.74653 11.9332 5.77942C11.9419 5.79586 11.9485 5.80875 11.9531 5.81783L11.9586 5.82857L11.9602 5.83174L11.9609 5.83313C11.9609 5.83328 11.961 5.83341 11.625 6C11.961 6.16659 11.961 6.16665 11.9609 6.16671L11.9602 6.16815L11.9588 6.17106L11.9538 6.18089C11.9496 6.18918 11.9435 6.20094 11.9357 6.21594C11.92 6.24593 11.8971 6.28892 11.867 6.34315C11.8069 6.45156 11.7181 6.60516 11.6015 6.78984C11.3687 7.1586 11.0229 7.65449 10.5702 8.1631C10.4326 8.31782 10.1955 8.33162 10.0408 8.19394C9.8861 8.05625 9.8723 7.81922 10.01 7.66451C10.4289 7.19374 10.7506 6.73273 10.9673 6.38944C11.0681 6.22977 11.1458 6.09626 11.1996 6C11.14 5.89327 11.051 5.74082 10.9337 5.55772C10.6947 5.18454 10.3406 4.68796 9.88023 4.19284C8.9525 3.19501 7.63877 2.25 6.00004 2.25ZM11.625 6L11.9609 6.16671C12.013 6.06175 12.0129 5.93809 11.9609 5.83313L11.625 6Z" fill="#0E1011"/>
</svg>
