<svg viewBox="0 0 12 12" fill="none" xmlns="http://www.w3.org/2000/svg">
<path fill-rule="evenodd" clip-rule="evenodd" d="M9 1L11 3V9.5C11 10.3284 10.3284 11 9.5 11H2.5C1.67157 11 1 10.3284 1 9.5V2.5C1 1.67157 1.67157 1 2.5 1H9ZM8.875 10.25H9.5C9.91421 10.25 10.25 9.91421 10.25 9.5V3.31066L8.68934 1.75H8.5V4C8.5 4.41421 8.16421 4.75 7.75 4.75H4.25C3.83579 4.75 3.5 4.41421 3.5 4V1.75H2.5C2.08579 1.75 1.75 2.08579 1.75 2.5V9.5C1.75 9.91421 2.08579 10.25 2.5 10.25H3.125V7C3.125 6.51675 3.51675 6.125 4 6.125H8C8.48325 6.125 8.875 6.51675 8.875 7V10.25ZM8.125 10.25V7C8.125 6.93096 8.06904 6.875 8 6.875H4C3.93096 6.875 3.875 6.93096 3.875 7V10.25H8.125ZM8 4V1.75H4V4C4 4.13807 4.11193 4.25 4.25 4.25H7.75C7.88807 4.25 8 4.13807 8 4Z" fill="#0E1011"/>
</svg>
