<svg viewBox="0 0 12 12" fill="none" xmlns="http://www.w3.org/2000/svg">
<path fill-rule="evenodd" clip-rule="evenodd" d="M10 1C9.44772 1 9 1.44772 9 2V10C9 10.5523 9.44771 11 10 11H11C11.5523 11 12 10.5523 12 10V2C12 1.44772 11.5523 1 11 1H10ZM11 1.75H10C9.86193 1.75 9.75 1.86193 9.75 2V10C9.75 10.1381 9.86193 10.25 10 10.25H11C11.1381 10.25 11.25 10.1381 11.25 10V2C11.25 1.86193 11.1381 1.75 11 1.75Z" fill="#0E1011"/>
<path fill-rule="evenodd" clip-rule="evenodd" d="M2 6C1.44772 6 1 6.44772 1 7V10C1 10.5523 1.44772 11 2 11H3C3.55228 11 4 10.5523 4 10V7C4 6.44772 3.55228 6 3 6H2ZM3 6.75H2C1.86193 6.75 1.75 6.86193 1.75 7V10C1.75 10.1381 1.86193 10.25 2 10.25H3C3.13807 10.25 3.25 10.1381 3.25 10V7C3.25 6.86193 3.13807 6.75 3 6.75Z" fill="#0E1011"/>
<path fill-rule="evenodd" clip-rule="evenodd" d="M5 5C5 4.44772 5.44772 4 6 4H7C7.55228 4 8 4.44772 8 5V10C8 10.5523 7.55228 11 7 11H6C5.44772 11 5 10.5523 5 10V5ZM6 4.75H7C7.13807 4.75 7.25 4.86193 7.25 5V10C7.25 10.1381 7.13807 10.25 7 10.25H6C5.86193 10.25 5.75 10.1381 5.75 10V5C5.75 4.86193 5.86193 4.75 6 4.75Z" fill="#0E1011"/>
</svg>
