<svg viewBox="0 0 16 16" fill="none" xmlns="http://www.w3.org/2000/svg">
<path fill-rule="evenodd" clip-rule="evenodd" d="M8 12.25C7.58579 12.25 7.25 12.5858 7.25 13C7.25 13.4142 7.58579 13.75 8 13.75C8.41421 13.75 8.75 13.4142 8.75 13C8.75 12.5858 8.41421 12.25 8 12.25ZM7.75 13C7.75 12.8619 7.86193 12.75 8 12.75C8.13807 12.75 8.25 12.8619 8.25 13C8.25 13.1381 8.13807 13.25 8 13.25C7.86193 13.25 7.75 13.1381 7.75 13Z" fill="#0E1011"/>
<path fill-rule="evenodd" clip-rule="evenodd" d="M3 0C1.89543 0 1 0.895431 1 2V14C1 15.1046 1.89543 16 3 16H13C14.1046 16 15 15.1046 15 14V2C15 0.89543 14.1046 0 13 0H3ZM2 2C2 1.44772 2.44772 1 3 1H13C13.5523 1 14 1.44772 14 2V14C14 14.5523 13.5523 15 13 15H3C2.44772 15 2 14.5523 2 14V2Z" fill="#0E1011"/>
</svg>
