<svg viewBox="0 0 12 12" fill="none" xmlns="http://www.w3.org/2000/svg">
<path d="M11.889 2.56007L11.3135 3.13566C11.1259 3.3232 10.8716 3.42855 10.6063 3.42855H9.57158C9.01929 3.42855 8.57158 2.98084 8.57158 2.42855V1.39379C8.57158 1.12857 8.67694 0.874216 8.86447 0.68668L9.44014 0.111013C9.1627 0.0385662 8.87157 0 8.57143 0C6.80811 0 5.3557 1.33114 5.16426 3.04334L7.33323 5.21232C7.53414 5.16681 7.74319 5.14279 7.95786 5.14279C8.62986 5.14279 9.27974 5.38313 9.79002 5.82039L10.3908 6.33516C11.3574 5.72886 12 4.65377 12 3.42857C12 3.12851 11.9615 2.83745 11.889 2.56007Z" fill="#0E1011"/>
<path fill-rule="evenodd" clip-rule="evenodd" d="M0.4438 9.41334L3.86771 5.98943L5.2118 7.33353C5.1663 7.53438 5.14226 7.74337 5.14224 7.95798C5.1422 8.2651 5.19237 8.5676 5.2886 8.85426L2.58666 11.5562C2.3025 11.8404 1.91709 12 1.51523 12C0.678391 12 0 11.3216 0 10.4848C0 10.0829 0.159639 9.6975 0.4438 9.41334ZM1.7893 9.50359L2.64645 8.64645C2.84171 8.45118 3.15829 8.45118 3.35355 8.64645C3.54882 8.84171 3.54882 9.15829 3.35355 9.35355L2.49641 10.2107C2.30115 10.406 1.98457 10.406 1.7893 10.2107C1.59404 10.0154 1.59404 9.69885 1.7893 9.50359Z" fill="#0E1011"/>
<path d="M3 1.28571V2.4698L6.83927 6.30907C7.13457 6.11373 7.48857 6 7.86913 6C8.32188 6 8.75924 6.16433 9.09996 6.46247L11.317 8.40238C11.751 8.78216 12 9.33081 12 9.90754V10C12 11.1046 11.1046 12 10 12H9.90754C9.33081 12 8.78216 11.751 8.40238 11.317L6.46247 9.09996C6.16433 8.75924 6 8.32188 6 7.86913C6 7.48863 6.11369 7.13469 6.30896 6.83942L2.46954 3H1.28571L0 0.857143L0.857143 0L3 1.28571Z" fill="#0E1011"/>
</svg>
