<svg viewBox="0 0 16 16" fill="none" xmlns="http://www.w3.org/2000/svg">
<path d="M2.5 2C1.11929 2 0 3.11929 0 4.5V11.5C0 12.8807 1.11929 14 2.5 14H9.5C9.77614 14 10 13.7761 10 13.5C10 13.2239 9.77614 13 9.5 13H2.5C1.68161 13 1.01629 12.3446 1.00029 11.53L3.5 9.03033L5.5 11.0303L10.5 6.03033L13.7348 9.26517C13.8813 9.41161 14.1187 9.41161 14.2652 9.26517C14.4116 9.11872 14.4116 8.88128 14.2652 8.73483L10.5 4.96967L5.5 9.96967L3.5 7.96967L1 10.4697V4.5C1 3.67157 1.67157 3 2.5 3H13.5C14.3284 3 15 3.67157 15 4.5V9.5C15 9.77614 15.2239 10 15.5 10C15.7761 10 16 9.77614 16 9.5V4.5C16 3.11929 14.8807 2 13.5 2H2.5Z" fill="#0E1011"/>
<path fill-rule="evenodd" clip-rule="evenodd" d="M3.5 7C4.32843 7 5 6.32843 5 5.5C5 4.67157 4.32843 4 3.5 4C2.67157 4 2 4.67157 2 5.5C2 6.32843 2.67157 7 3.5 7ZM3.5 6.25C3.91421 6.25 4.25 5.91421 4.25 5.5C4.25 5.08579 3.91421 4.75 3.5 4.75C3.08579 4.75 2.75 5.08579 2.75 5.5C2.75 5.91421 3.08579 6.25 3.5 6.25Z" fill="#0E1011"/>
<path d="M14 11.5C14 11.2239 13.7761 11 13.5 11C13.2239 11 13 11.2239 13 11.5V13H11.5C11.2239 13 11 13.2239 11 13.5C11 13.7761 11.2239 14 11.5 14H13V15.5C13 15.7761 13.2239 16 13.5 16C13.7761 16 14 15.7761 14 15.5V14H15.5C15.7761 14 16 13.7761 16 13.5C16 13.2239 15.7761 13 15.5 13H14V11.5Z" fill="#0E1011"/>
</svg>
