<svg viewBox="0 0 16 16" fill="none" xmlns="http://www.w3.org/2000/svg">
<path fill-rule="evenodd" clip-rule="evenodd" d="M5.26777 1.73223C4.29146 0.755922 2.70854 0.755922 1.73223 1.73223C0.755922 2.70854 0.755922 4.29146 1.73223 5.26777C2.58746 6.123 3.90817 6.22906 4.87885 5.58596L7.29291 8.00001L4.87885 10.4141C3.90817 9.77097 2.58746 9.87703 1.73223 10.7323C0.755922 11.7086 0.755922 13.2915 1.73223 14.2678C2.70854 15.2441 4.29146 15.2441 5.26777 14.2678C6.123 13.4126 6.22906 12.0919 5.58596 11.1212L13.8536 2.85358C14.0488 2.65832 14.0488 2.34174 13.8536 2.14648C13.6583 1.95121 13.3417 1.95121 13.1464 2.14648L8.00001 7.29291L5.58596 4.87885C6.22906 3.90817 6.123 2.58746 5.26777 1.73223ZM2.43934 2.43934C3.02513 1.85355 3.97487 1.85355 4.56066 2.43934C5.14645 3.02513 5.14645 3.97487 4.56066 4.56066C3.97487 5.14645 3.02513 5.14645 2.43934 4.56066C1.85355 3.97487 1.85355 3.02513 2.43934 2.43934ZM2.43934 11.4394C3.02513 10.8536 3.97487 10.8536 4.56066 11.4394C5.14645 12.0252 5.14645 12.9749 4.56066 13.5607C3.97487 14.1465 3.02513 14.1465 2.43934 13.5607C1.85355 12.9749 1.85355 12.0252 2.43934 11.4394Z" fill="#0E1011"/>
<path d="M10.8536 10.1464C10.6583 9.95118 10.3417 9.95118 10.1464 10.1464C9.95118 10.3417 9.95118 10.6583 10.1464 10.8536L13.1464 13.8536C13.3417 14.0488 13.6583 14.0488 13.8536 13.8536C14.0488 13.6583 14.0488 13.3417 13.8536 13.1464L10.8536 10.1464Z" fill="#0E1011"/>
</svg>
