<svg height="17" viewBox="0 0 16 17" fill="none" xmlns="http://www.w3.org/2000/svg">
<path fill-rule="evenodd" clip-rule="evenodd" d="M13.5607 0.896372C12.9749 0.310586 12.0251 0.310584 11.4393 0.896371L1.14645 11.1893C1.05268 11.283 1 11.4102 1 11.5428V13.5428C1 13.819 1.22386 14.0428 1.5 14.0428H3.5C3.63261 14.0428 3.75979 13.9901 3.85355 13.8964L14.1464 3.60348C14.7322 3.01769 14.7322 2.06795 14.1464 1.48216L13.5607 0.896372ZM12.1464 1.60348C12.3417 1.40822 12.6583 1.40822 12.8536 1.60348L13.4393 2.18927C13.6346 2.38453 13.6346 2.70111 13.4393 2.89637L12 4.33571L10.7071 3.04282L12.1464 1.60348ZM10 3.74993L11.2929 5.04282L3.29289 13.0428H2V11.7499L10 3.74993Z" fill="#0E1011"/>
<path d="M1 15.0428C0.723858 15.0428 0.5 15.2667 0.5 15.5428C0.5 15.819 0.723858 16.0428 1 16.0428H15C15.2761 16.0428 15.5 15.819 15.5 15.5428C15.5 15.2667 15.2761 15.0428 15 15.0428H1Z" fill="#0E1011"/>
</svg>
