<svg viewBox="0 0 16 16" fill="none" xmlns="http://www.w3.org/2000/svg">
<path fill-rule="evenodd" clip-rule="evenodd" d="M6 3C3.23858 3 1 5.23858 1 8C1 10.0161 2.19332 11.7546 3.91434 12.5457L3.49669 13.4543C1.43393 12.5062 0 10.4211 0 8C0 4.68629 2.68629 2 6 2C8.61819 2 10.8437 3.67659 11.6634 6.01399C11.7744 6.00472 11.8867 6 12 6C14.2091 6 16 7.79086 16 10C16 11.8128 14.7945 13.3426 13.1426 13.8343L12.8574 12.8758C14.0969 12.5069 15 11.3583 15 10C15 8.34315 13.6569 7 12 7C11.7974 7 11.6 7.02002 11.4094 7.05802L10.9504 7.14957L10.8288 6.69756C10.2558 4.56733 8.31029 3 6 3ZM8.5 9C8.77614 9 9 9.22386 9 9.5V12C9 12.2761 8.77614 12.5 8.5 12.5C8.22386 12.5 8 12.2761 8 12V9.5C8 9.22386 8.22386 9 8.5 9ZM6.5 10C6.77614 10 7 10.2239 7 10.5V12C7 12.2761 6.77614 12.5 6.5 12.5C6.22386 12.5 6 12.2761 6 12V10.5C6 10.2239 6.22386 10 6.5 10ZM10.5 10C10.7761 10 11 10.2239 11 10.5V12C11 12.2761 10.7761 12.5 10.5 12.5C10.2239 12.5 10 12.2761 10 12V10.5C10 10.2239 10.2239 10 10.5 10ZM6.5 12.8551C6.77614 12.8551 7 13.0789 7 13.3551V14.5C7 14.7761 6.77614 15 6.5 15C6.22386 15 6 14.7761 6 14.5V13.3551C6 13.0789 6.22386 12.8551 6.5 12.8551ZM8.5 12.8551C8.77614 12.8551 9 13.0789 9 13.3551V15.5C9 15.7761 8.77614 16 8.5 16C8.22386 16 8 15.7761 8 15.5V13.3551C8 13.0789 8.22386 12.8551 8.5 12.8551ZM10.5 12.8551C10.7761 12.8551 11 13.0789 11 13.3551V14.5C11 14.7761 10.7761 15 10.5 15C10.2239 15 10 14.7761 10 14.5V13.3551C10 13.0789 10.2239 12.8551 10.5 12.8551Z" fill="#0E1011"/>
</svg>
