<svg viewBox="0 0 16 16" fill="none" xmlns="http://www.w3.org/2000/svg">
<path fill-rule="evenodd" clip-rule="evenodd" d="M10.9498 2.85349C11.145 2.65823 11.145 2.34165 10.9498 2.14639L8.94969 0.146324C8.75443 -0.0489375 8.43784 -0.0489377 8.24258 0.146324C8.04732 0.341587 8.04732 0.658169 8.24258 0.853431L9.38909 1.99994L8.0962 1.99994C6.30551 1.99994 4.51318 2.68345 3.14644 4.05019C0.412774 6.78386 0.412774 11.216 3.14644 13.9497C5.88011 16.6834 10.3123 16.6834 13.0459 13.9497C15.4143 11.5814 15.7304 7.93932 13.9961 5.2303C13.8472 4.99773 13.538 4.92989 13.3054 5.07878C13.0729 5.22766 13.005 5.53689 13.1539 5.76946C14.6403 8.09129 14.368 11.2134 12.3388 13.2426C9.99569 15.5857 6.1967 15.5857 3.85355 13.2426C1.5104 10.8994 1.51041 7.10044 3.85355 4.7573C5.02522 3.58563 6.55989 2.99994 8.0962 2.99994H9.38909L8.24258 4.14645C8.04732 4.34171 8.04732 4.65829 8.24258 4.85355C8.43785 5.04882 8.75443 5.04882 8.94969 4.85355L10.9498 2.85349Z" fill="#0E1011"/>
</svg>
