<svg viewBox="0 0 16 16" fill="none" xmlns="http://www.w3.org/2000/svg">
<path fill-rule="evenodd" clip-rule="evenodd" d="M1.10355 0.396447C0.908291 0.201184 0.591709 0.201184 0.396447 0.396447C0.201184 0.591709 0.201184 0.908291 0.396447 1.10355L3.2097 3.91681C1.12847 5.67253 0 8 0 8C0 8 2.90909 14 8 14C9.53375 14 10.8695 13.4554 11.9873 12.6944L14.8964 15.6036C15.0917 15.7988 15.4083 15.7988 15.6036 15.6036C15.7988 15.4083 15.7988 15.0917 15.6036 14.8964L1.10355 0.396447ZM9.40264 10.1097L5.93026 6.63737C5.65868 7.03732 5.5 7.52013 5.5 8.04001C5.5 9.42072 6.61929 10.54 8 10.54C8.51987 10.54 9.00269 10.3813 9.40264 10.1097Z" fill="#0E1011"/>
<path d="M16 8C16 8 15.2881 9.46834 13.9523 10.9523L10.4234 7.42334C10.1988 6.5381 9.50191 5.84122 8.61667 5.61664L5.49985 2.49981C6.26181 2.18896 7.09655 2 8 2C13.0909 2 16 8 16 8Z" fill="#0E1011"/>
</svg>
