<svg viewBox="0 0 16 16" fill="none" xmlns="http://www.w3.org/2000/svg">
<path d="M15.8532 0.853553C16.0485 0.658291 16.0485 0.341709 15.8532 0.146447C15.6579 -0.0488155 15.3414 -0.0488155 15.1461 0.146447L10.9997 4.29289V1.5C10.9997 1.22386 10.7758 1 10.4997 1C10.2235 1 9.99965 1.22386 9.99965 1.5V6H14.4997C14.7758 6 14.9997 5.77614 14.9997 5.5C14.9997 5.22386 14.7758 5 14.4997 5H11.7068L15.8532 0.853553Z" fill="#0E1011"/>
<path d="M14.9997 13C14.9997 14.1046 14.0997 15.015 13.0062 14.8592C11.1877 14.5999 9.48188 13.9913 7.95881 13.1033C5.92016 11.9148 4.20899 10.226 2.99361 8.20514C2.05282 6.64084 1.40909 4.87759 1.1405 2.99344C0.984608 1.89993 1.89508 1 2.99965 1H4.99965C5.55194 1 5.9938 1.44908 6.05437 1.99803C6.15106 2.87449 6.37361 3.71304 6.70354 4.49521L5.0892 6.10955C4.93402 6.26473 4.89722 6.50355 5.00604 6.69413C6.06089 8.54149 7.61321 10.0681 9.48054 11.0915C9.67025 11.1955 9.90483 11.1573 10.0578 11.0043L11.6901 9.372C12.4188 9.66029 13.1941 9.8562 14.0016 9.94529C14.5506 10.0059 14.9997 10.4477 14.9997 11V13Z" fill="#0E1011"/>
</svg>
