<svg viewBox="0 0 16 16" fill="none" xmlns="http://www.w3.org/2000/svg">
<path fill-rule="evenodd" clip-rule="evenodd" d="M5 6.125C3.96447 6.125 3.125 6.96447 3.125 8C3.125 9.03553 3.96447 9.875 5 9.875C6.03553 9.875 6.875 9.03553 6.875 8C6.875 6.96447 6.03553 6.125 5 6.125ZM3.875 8C3.875 7.37868 4.37868 6.875 5 6.875C5.62132 6.875 6.125 7.37868 6.125 8C6.125 8.62132 5.62132 9.125 5 9.125C4.37868 9.125 3.875 8.62132 3.875 8Z" fill="#0E1011"/>
<path fill-rule="evenodd" clip-rule="evenodd" d="M5 3C2.23858 3 0 5.23858 0 8C0 10.7614 2.23858 13 5 13H11C13.7614 13 16 10.7614 16 8C16 5.23858 13.7614 3 11 3H5ZM1 8C1 5.79086 2.79086 4 5 4H11C13.2091 4 15 5.79086 15 8C15 10.2091 13.2091 12 11 12H5C2.79086 12 1 10.2091 1 8Z" fill="#0E1011"/>
</svg>
