<svg viewBox="0 0 16 16" fill="none" xmlns="http://www.w3.org/2000/svg">
<path fill-rule="evenodd" clip-rule="evenodd" d="M3.70711 0C3.44189 0 3.18754 0.105357 3 0.292893L1 2.29289V12.5C1 14.433 2.567 16 4.5 16H11.5C13.433 16 15 14.433 15 12.5V2.29289L13 0.292893C12.8125 0.105357 12.5581 0 12.2929 0H3.70711ZM3.70711 1H12.2929L13.2929 2H2.70711L3.70711 1ZM9.5 7C10.8807 7 12 5.88071 12 4.5V2.5H11V4.5C11 5.32843 10.3284 6 9.5 6H6.5C5.67157 6 5 5.32843 5 4.5V2.5H4V4.5C4 5.88071 5.11929 7 6.5 7H9.5Z" fill="#0E1011"/>
</svg>
