<svg viewBox="0 0 12 12" fill="none" xmlns="http://www.w3.org/2000/svg">
<path fill-rule="evenodd" clip-rule="evenodd" d="M2.93365 0C2.74421 0 2.56253 0.0790177 2.42857 0.21967L1 1.71967V9.375C1 10.8247 2.11929 12 3.5 12H8.5C9.88071 12 11 10.8247 11 9.375V1.71967L9.57143 0.21967C9.43747 0.0790174 9.25579 0 9.06635 0H2.93365ZM2.93365 0.75H9.06635L9.78064 1.5H2.21936L2.93365 0.75ZM7.07143 5.25C8.05765 5.25 8.85714 4.41053 8.85714 3.375V1.875H8.14286V3.375C8.14286 3.99632 7.66316 4.5 7.07143 4.5H4.92857C4.33684 4.5 3.85714 3.99632 3.85714 3.375V1.875H3.14286V3.375C3.14286 4.41053 3.94235 5.25 4.92857 5.25H7.07143Z" fill="#0E1011"/>
</svg>
