<svg viewBox="0 0 12 12" fill="none" xmlns="http://www.w3.org/2000/svg">
<path fill-rule="evenodd" clip-rule="evenodd" d="M7.2045 1.35983C7.05805 1.50628 7.05805 1.74372 7.2045 1.89017L9.56433 4.25H4.09467C2.43781 4.25 1.09467 5.59315 1.09467 7.25V10.625C1.09467 10.8321 1.26256 11 1.46967 11C1.67677 11 1.84467 10.8321 1.84467 10.625V7.25C1.84467 6.00736 2.85203 5 4.09467 5H9.56433L7.2045 7.35984C7.05805 7.50628 7.05805 7.74372 7.2045 7.89017C7.35095 8.03661 7.58838 8.03661 7.73483 7.89017L11 4.625L7.73483 1.35983C7.58838 1.21339 7.35095 1.21339 7.2045 1.35983Z" fill="#0E1011"/>
</svg>
