<svg viewBox="0 0 16 16" fill="none" xmlns="http://www.w3.org/2000/svg">
<path d="M3.5 6.25C3.91421 6.25 4.25 5.91421 4.25 5.5C4.25 5.08579 3.91421 4.75 3.5 4.75C3.08579 4.75 2.75 5.08579 2.75 5.5C2.75 5.91421 3.08579 6.25 3.5 6.25Z" fill="#0E1011"/>
<path fill-rule="evenodd" clip-rule="evenodd" d="M2.5 2C1.11929 2 0 3.11929 0 4.5V11.5C0 12.8807 1.11929 14 2.5 14H13.5C14.8807 14 16 12.8807 16 11.5V4.5C16 3.11929 14.8807 2 13.5 2H2.5ZM3.5 7C4.32843 7 5 6.32843 5 5.5C5 4.67157 4.32843 4 3.5 4C2.67157 4 2 4.67157 2 5.5C2 6.32843 2.67157 7 3.5 7ZM10.5 4.96967L15.2652 9.73484C15.4116 9.88128 15.4116 10.1187 15.2652 10.2652C15.1187 10.4116 14.8813 10.4116 14.7348 10.2652L10.5 6.03033L5.5 11.0303L3.5 9.03033L1.26516 11.2652C1.11872 11.4116 0.881282 11.4116 0.734835 11.2652C0.588388 11.1187 0.588388 10.8813 0.734835 10.7348L3.5 7.96967L5.5 9.96967L10.5 4.96967Z" fill="#0E1011"/>
</svg>
