<svg viewBox="0 0 16 16" fill="none" xmlns="http://www.w3.org/2000/svg">
<path d="M1 8C1 5.23858 3.23858 3 6 3C8.31029 3 10.2558 4.56733 10.8288 6.69756L10.9504 7.14957L11.4094 7.05802C11.6 7.02002 11.7974 7 12 7C13.6569 7 15 8.34315 15 10C15 11.019 14.4924 11.9196 13.714 12.4626C13.4875 12.6205 13.4319 12.9322 13.5899 13.1587C13.7479 13.3852 14.0596 13.4407 14.286 13.2827C15.3211 12.5608 16 11.3597 16 10C16 7.79086 14.2091 6 12 6C11.8867 6 11.7744 6.00472 11.6634 6.01399C10.8437 3.67659 8.61819 2 6 2C2.68629 2 0 4.68629 0 8C0 10.1068 1.08626 11.9596 2.72691 13.0294C2.95823 13.1802 3.26801 13.1149 3.41884 12.8836C3.56966 12.6523 3.5044 12.3425 3.27309 12.1917C1.90353 11.2987 1 9.75474 1 8Z" fill="#0E1011"/>
<path d="M9 9.70711V15.5C9 15.7761 8.77614 16 8.5 16C8.22386 16 8 15.7761 8 15.5V9.70711L5.85355 11.8536C5.65829 12.0488 5.34171 12.0488 5.14645 11.8536C4.95118 11.6583 4.95118 11.3417 5.14645 11.1464L8.5 7.79289L11.8536 11.1464C12.0488 11.3417 12.0488 11.6583 11.8536 11.8536C11.6583 12.0488 11.3417 12.0488 11.1464 11.8536L9 9.70711Z" fill="#0E1011"/>
</svg>
