<svg viewBox="0 0 16 16" fill="none" xmlns="http://www.w3.org/2000/svg">
<path fill-rule="evenodd" clip-rule="evenodd" d="M0.146447 3.14645C0.341709 2.95118 0.658291 2.95118 0.853553 3.14645L6.5 8.79289L9.14645 6.14645C9.34171 5.95118 9.65829 5.95118 9.85355 6.14645L15 11.2929V8.5C15 8.22386 15.2239 8 15.5 8C15.7761 8 16 8.22386 16 8.5V12.5C16 12.7761 15.7761 13 15.5 13H11.5C11.2239 13 11 12.7761 11 12.5C11 12.2239 11.2239 12 11.5 12H14.2929L9.5 7.20711L6.85355 9.85355C6.65829 10.0488 6.34171 10.0488 6.14645 9.85355L0.146447 3.85355C-0.0488155 3.65829 -0.0488155 3.34171 0.146447 3.14645Z" fill="#0E1011"/>
</svg>
