<svg viewBox="0 0 16 16" fill="none" xmlns="http://www.w3.org/2000/svg">
<path d="M12.3536 6.35355C12.5488 6.15829 12.5488 5.84171 12.3536 5.64645C12.1583 5.45118 11.8417 5.45118 11.6464 5.64645L7.5 9.79289L5.35355 7.64645C5.15829 7.45118 4.84171 7.45118 4.64645 7.64645C4.45118 7.84171 4.45118 8.15829 4.64645 8.35355L7.5 11.2071L12.3536 6.35355Z" fill="#0E1011"/>
<path fill-rule="evenodd" clip-rule="evenodd" d="M6.67645 0.522763C7.42117 -0.174254 8.57883 -0.174254 9.32355 0.522763L10.07 1.22139C10.4127 1.54218 10.8603 1.72757 11.3295 1.7431L12.3513 1.7769C13.3708 1.81063 14.1894 2.62923 14.2231 3.64869L14.2569 4.67051C14.2724 5.13969 14.4578 5.58727 14.7786 5.93001L15.4772 6.67645C16.1743 7.42117 16.1743 8.57883 15.4772 9.32355L14.7786 10.07C14.4578 10.4127 14.2724 10.8603 14.2569 11.3295L14.2231 12.3513C14.1894 13.3708 13.3708 14.1894 12.3513 14.2231L11.3295 14.2569C10.8603 14.2724 10.4127 14.4578 10.07 14.7786L9.32355 15.4772C8.57883 16.1743 7.42117 16.1743 6.67645 15.4772L5.93001 14.7786C5.58727 14.4578 5.13969 14.2724 4.67051 14.2569L3.64869 14.2231C2.62923 14.1894 1.81063 13.3708 1.7769 12.3513L1.7431 11.3295C1.72757 10.8603 1.54218 10.4127 1.22139 10.07L0.522763 9.32355C-0.174254 8.57883 -0.174254 7.42117 0.522763 6.67645L1.22139 5.93001C1.54218 5.58727 1.72757 5.13969 1.7431 4.67051L1.7769 3.64869C1.81063 2.62923 2.62923 1.81063 3.64869 1.7769L4.67051 1.7431C5.13969 1.72757 5.58727 1.54218 5.93001 1.22139L6.67645 0.522763ZM8.64021 1.25286L9.38665 1.95149C9.90635 2.4379 10.585 2.71901 11.2964 2.74255L12.3182 2.77636C12.8114 2.79267 13.2073 3.18863 13.2236 3.68175L13.2575 4.70357C13.281 5.41499 13.5621 6.09365 14.0485 6.61335L14.7471 7.35979C15.0843 7.72001 15.0843 8.27999 14.7471 8.64021L14.0485 9.38665C13.5621 9.90635 13.281 10.585 13.2575 11.2964L13.2236 12.3182C13.2073 12.8114 12.8114 13.2073 12.3182 13.2236L11.2964 13.2575C10.585 13.281 9.90635 13.5621 9.38665 14.0485L8.64021 14.7471C8.27999 15.0843 7.72001 15.0843 7.35979 14.7471L6.61335 14.0485C6.09365 13.5621 5.41499 13.281 4.70357 13.2575L3.68175 13.2236C3.18863 13.2073 2.79267 12.8114 2.77636 12.3182L2.74255 11.2964C2.71901 10.585 2.4379 9.90635 1.95149 9.38665L1.25286 8.64021C0.915712 8.27999 0.915712 7.72001 1.25286 7.35979L1.95149 6.61335C2.4379 6.09365 2.71901 5.41499 2.74255 4.70357L2.77636 3.68175C2.79267 3.18863 3.18863 2.79267 3.68175 2.77636L4.70357 2.74255C5.41499 2.71901 6.09365 2.4379 6.61335 1.95149L7.35979 1.25286C7.72001 0.915712 8.27999 0.915712 8.64021 1.25286Z" fill="#0E1011"/>
</svg>
