<svg viewBox="0 0 16 16" fill="none" xmlns="http://www.w3.org/2000/svg">
<path fill-rule="evenodd" clip-rule="evenodd" d="M2.25 2C1.00736 2 0 3.00736 0 4.25V11.75C0 12.9926 1.00736 14 2.25 14H13.75C14.9926 14 16 12.9926 16 11.75V4.25C16 3.00736 14.9926 2 13.75 2H2.25ZM1 7V5H15V7H1ZM2.125 9.5C2.125 9.29289 2.29289 9.125 2.5 9.125H7.5C7.70711 9.125 7.875 9.29289 7.875 9.5C7.875 9.70711 7.70711 9.875 7.5 9.875H2.5C2.29289 9.875 2.125 9.70711 2.125 9.5ZM2.125 11.5C2.125 11.2929 2.29289 11.125 2.5 11.125H4.5C4.70711 11.125 4.875 11.2929 4.875 11.5C4.875 11.7071 4.70711 11.875 4.5 11.875H2.5C2.29289 11.875 2.125 11.7071 2.125 11.5Z" fill="#0E1011"/>
</svg>
