<svg viewBox="0 0 16 16" fill="none" xmlns="http://www.w3.org/2000/svg">
<path d="M6.5 8C6.36193 8 6.25 8.11193 6.25 8.25C6.25 8.38807 6.36193 8.5 6.5 8.5H9.5C9.63807 8.5 9.75 8.38807 9.75 8.25C9.75 8.11193 9.63807 8 9.5 8H6.5Z" fill="#0E1011"/>
<path fill-rule="evenodd" clip-rule="evenodd" d="M1 2C0.447716 2 0 2.44771 0 3V5C0 5.55228 0.447715 6 1 6V11.75C1 12.9926 2.00736 14 3.25 14H12.75C13.9926 14 15 12.9926 15 11.75V6C15.5523 6 16 5.55228 16 5V3C16 2.44772 15.5523 2 15 2H1ZM2 11.75V6H14V11.75C14 12.4404 13.4404 13 12.75 13H3.25C2.55964 13 2 12.4404 2 11.75ZM1 3H15V5H1V3Z" fill="#0E1011"/>
</svg>
