<svg viewBox="0 0 12 12" fill="none" xmlns="http://www.w3.org/2000/svg">
<path fill-rule="evenodd" clip-rule="evenodd" d="M8.484 0H3.516L0 3.516V8.484L3.516 12H8.484L12 8.484V3.516L8.484 0ZM6.65625 3.75C6.65625 3.38756 6.36244 3.09375 6 3.09375C5.63756 3.09375 5.34375 3.38756 5.34375 3.75L5.34375 6.375C5.34375 6.73744 5.63756 7.03125 6 7.03125C6.36244 7.03125 6.65625 6.73744 6.65625 6.375V3.75ZM6.65625 7.87502C6.65625 7.51258 6.36244 7.21877 6 7.21877C5.63756 7.21877 5.34375 7.51258 5.34375 7.87502V8.25002C5.34375 8.61245 5.63756 8.90627 6 8.90627C6.36244 8.90627 6.65625 8.61245 6.65625 8.25002V7.87502Z" fill="#0E1011"/>
</svg>
