<svg height="17" viewBox="0 0 16 17" fill="none" xmlns="http://www.w3.org/2000/svg">
<path d="M13.2071 1.24992L13.7929 1.83571C14.1834 2.22624 14.1834 2.8594 13.7929 3.24992L12.3536 4.68926L10.3536 2.68926L11.7929 1.24992C12.1834 0.8594 12.8166 0.859401 13.2071 1.24992Z" fill="#0E1011"/>
<path d="M9.64645 3.39637L1.5 11.5428V13.5428H3.5L11.6464 5.39637L9.64645 3.39637Z" fill="#0E1011"/>
<path d="M0.5 15.5428C0.5 15.2667 0.723858 15.0428 1 15.0428H15C15.2761 15.0428 15.5 15.2667 15.5 15.5428C15.5 15.819 15.2761 16.0428 15 16.0428H1C0.723858 16.0428 0.5 15.819 0.5 15.5428Z" fill="#0E1011"/>
</svg>
