<svg viewBox="0 0 16 16" fill="none" xmlns="http://www.w3.org/2000/svg">
<path fill-rule="evenodd" clip-rule="evenodd" d="M3 3.25C3 2.55964 3.55964 2 4.25 2H5.75C6.44036 2 7 2.55964 7 3.25V12.75C7 13.4404 6.44036 14 5.75 14H4.25C3.55964 14 3 13.4404 3 12.75V3.25ZM4.25 3C4.11193 3 4 3.11193 4 3.25V12.75C4 12.8881 4.11193 13 4.25 13H5.75C5.88807 13 6 12.8881 6 12.75V3.25C6 3.11193 5.88807 3 5.75 3H4.25ZM10.25 3C10.1119 3 10 3.11193 10 3.25V12.75C10 12.8881 10.1119 13 10.25 13H11.75C11.8881 13 12 12.8881 12 12.75V3.25C12 3.11193 11.8881 3 11.75 3H10.25ZM9 3.25C9 2.55964 9.55964 2 10.25 2H11.75C12.4404 2 13 2.55964 13 3.25V12.75C13 13.4404 12.4404 14 11.75 14H10.25C9.55964 14 9 13.4404 9 12.75V3.25Z" fill="#0E1011"/>
<path d="M4 3.25C4 3.11193 4.11193 3 4.25 3H5.75C5.88807 3 6 3.11193 6 3.25V12.75C6 12.8881 5.88807 13 5.75 13H4.25C4.11193 13 4 12.8881 4 12.75V3.25Z" fill="#0E1011"/>
<path d="M10 3.25C10 3.11193 10.1119 3 10.25 3H11.75C11.8881 3 12 3.11193 12 3.25V12.75C12 12.8881 11.8881 13 11.75 13H10.25C10.1119 13 10 12.8881 10 12.75V3.25Z" fill="#0E1011"/>
</svg>
