<svg viewBox="0 0 12 12" fill="none" xmlns="http://www.w3.org/2000/svg">
<path d="M10.25 1.75H1.75C1.19772 1.75 0.75 2.19772 0.75 2.75V7.71967L2.5 5.96967L4.01709 7.48676L8.01709 3.98676L10.0778 6.04747C9.88984 6.01625 9.69682 6 9.5 6C9.33179 6 9.16635 6.01187 9.00448 6.03481L7.98291 5.01324L3.98291 8.51324L2.5 7.03033L0.765165 8.76516C0.760212 8.77012 0.755154 8.7749 0.75 8.77952V9.25C0.75 9.80229 1.19772 10.25 1.75 10.25H6.08054C6.13779 10.5122 6.22442 10.7634 6.33682 11H1.75C0.783502 11 0 10.2165 0 9.25V2.75C0 1.7835 0.783502 1 1.75 1H10.25C11.2165 1 12 1.7835 12 2.75V7.05051C11.7783 6.82423 11.526 6.62792 11.25 6.46824V2.75C11.25 2.19772 10.8023 1.75 10.25 1.75Z" fill="#0E1011"/>
<path d="M3 5C3.55228 5 4 4.55228 4 4C4 3.44772 3.55228 3 3 3C2.44772 3 2 3.44772 2 4C2 4.55228 2.44772 5 3 5Z" fill="#0E1011"/>
<path fill-rule="evenodd" clip-rule="evenodd" d="M12 9.5C12 10.8807 10.8807 12 9.5 12C8.11929 12 7 10.8807 7 9.5C7 8.11929 8.11929 7 9.5 7C10.8807 7 12 8.11929 12 9.5ZM9.5 7.6C9.72091 7.6 9.9 7.77909 9.9 8V9.1H11C11.2209 9.1 11.4 9.27909 11.4 9.5C11.4 9.72091 11.2209 9.9 11 9.9H9.9V11C9.9 11.2209 9.72091 11.4 9.5 11.4C9.27909 11.4 9.1 11.2209 9.1 11V9.9H8C7.77909 9.9 7.6 9.72091 7.6 9.5C7.6 9.27909 7.77909 9.1 8 9.1H9.1V8C9.1 7.77909 9.27909 7.6 9.5 7.6Z" fill="#0E1011"/>
</svg>
