<svg viewBox="0 0 16 16" fill="none" xmlns="http://www.w3.org/2000/svg">
<path d="M11 6.49999V14C11 14.5523 11.4477 15 12 15H14C14.5523 15 15 14.5523 15 14V6.49999C15 5.94771 14.5523 5.49999 14 5.49999H12C11.4477 5.49999 11 5.94771 11 6.49999Z" fill="#0E1011"/>
<path d="M6 2V14C6 14.5523 6.44772 15 7 15H9C9.55228 15 10 14.5523 10 14V2C10 1.44772 9.55228 1 9 1H7C6.44772 1 6 1.44772 6 2Z" fill="#0E1011"/>
<path d="M1 9V14C1 14.5523 1.44772 15 2 15H4C4.55228 15 5 14.5523 5 14V9C5 8.44772 4.55228 8 4 8H2C1.44772 8 1 8.44772 1 9Z" fill="#0E1011"/>
</svg>
