<svg viewBox="0 0 12 12" fill="none" xmlns="http://www.w3.org/2000/svg">
<path fill-rule="evenodd" clip-rule="evenodd" d="M5.76851 1.52856C5.90863 1.5866 6 1.72334 6 1.87501V10.125C6 10.2767 5.90863 10.4134 5.76851 10.4715C5.62838 10.5295 5.46708 10.4974 5.35984 10.3902L3.21967 8.25001H0.9375C0.419733 8.25001 0 7.83028 0 7.31251V4.68751C0 4.16974 0.419733 3.75001 0.9375 3.75001H3.21967L5.35984 1.60985C5.46708 1.5026 5.62838 1.47051 5.76851 1.52856ZM5.25 2.78034L3.64016 4.39018C3.56984 4.4605 3.47446 4.50001 3.375 4.50001H0.9375C0.833947 4.50001 0.75 4.58396 0.75 4.68751V7.31251C0.75 7.41606 0.833947 7.50001 0.9375 7.50001H3.375C3.47446 7.50001 3.56984 7.53952 3.64016 7.60985L5.25 9.21968V2.78034ZM7.60983 7.60985C8.49892 6.72076 8.49892 5.27926 7.60983 4.39018L8.14017 3.85985C9.32215 5.04183 9.32215 6.95819 8.14017 8.14018L7.60983 7.60985Z" fill="#0E1011"/>
<path d="M3.64016 4.39018L5.25 2.78034V9.21968L3.64016 7.60985C3.56984 7.53952 3.47446 7.50001 3.375 7.50001H0.9375C0.833947 7.50001 0.75 7.41606 0.75 7.31251V4.68751C0.75 4.58396 0.833947 4.50001 0.9375 4.50001H3.375C3.47446 4.50001 3.56984 4.4605 3.64016 4.39018Z" fill="#0E1011"/>
</svg>
