<svg viewBox="0 0 16 16" fill="none" xmlns="http://www.w3.org/2000/svg">
<path d="M3.25 2C2.97386 2 2.75 2.22386 2.75 2.5C2.75 2.77614 2.97386 3 3.25 3H3.5V8.5C3.5 10.9853 5.51472 13 8 13C10.4853 13 12.5 10.9853 12.5 8.5V3H12.75C13.0261 3 13.25 2.77614 13.25 2.5C13.25 2.22386 13.0261 2 12.75 2H11.25C10.9739 2 10.75 2.22386 10.75 2.5C10.75 2.77614 10.9739 3 11.25 3H11.5V8.5C11.5 10.433 9.933 12 8 12C6.067 12 4.5 10.433 4.5 8.5V3H4.75C5.02614 3 5.25 2.77614 5.25 2.5C5.25 2.22386 5.02614 2 4.75 2H3.25Z" fill="#0E1011"/>
<path d="M3.5 14C3.22386 14 3 14.2239 3 14.5C3 14.7761 3.22386 15 3.5 15H12.5C12.7761 15 13 14.7761 13 14.5C13 14.2239 12.7761 14 12.5 14H3.5Z" fill="#0E1011"/>
</svg>
