<svg viewBox="0 0 12 12" fill="none" xmlns="http://www.w3.org/2000/svg">
<path d="M6.26517 4.01516C6.41161 3.86872 6.41161 3.63128 6.26517 3.48484C6.11872 3.33839 5.88128 3.33839 5.73484 3.48484L3.48484 5.73483C3.41451 5.80516 3.375 5.90054 3.375 6C3.375 6.09946 3.41451 6.19484 3.48484 6.26516L5.73484 8.51517C5.88128 8.66161 6.11872 8.66161 6.26517 8.51517C6.41161 8.36872 6.41161 8.13128 6.26517 7.98483L4.65533 6.375H8.25C8.45711 6.375 8.625 6.20711 8.625 6C8.625 5.79289 8.45711 5.625 8.25 5.625H4.65533L6.26517 4.01516Z" fill="#0E1011"/>
<path fill-rule="evenodd" clip-rule="evenodd" d="M6 12C9.31371 12 12 9.31371 12 6C12 2.68629 9.31371 0 6 0C2.68629 0 0 2.68629 0 6C0 9.31371 2.68629 12 6 12ZM11.25 6C11.25 8.8995 8.8995 11.25 6 11.25C3.1005 11.25 0.75 8.8995 0.75 6C0.75 3.1005 3.1005 0.75 6 0.75C8.8995 0.75 11.25 3.1005 11.25 6Z" fill="#0E1011"/>
</svg>
