<svg viewBox="0 0 16 16" fill="none" xmlns="http://www.w3.org/2000/svg">
<path fill-rule="evenodd" clip-rule="evenodd" d="M5.85355 13.8536C6.04881 13.6583 6.04881 13.3417 5.85355 13.1464L2.70711 10H10C12.2091 10 14 8.20914 14 6V1.5C14 1.22386 13.7761 1 13.5 1C13.2239 1 13 1.22386 13 1.5V6C13 7.65685 11.6569 9 10 9H2.70711L5.85355 5.85355C6.04881 5.65829 6.04881 5.34171 5.85355 5.14645C5.65829 4.95118 5.34171 4.95118 5.14645 5.14645L0.792892 9.5L5.14645 13.8536C5.34171 14.0488 5.65829 14.0488 5.85355 13.8536Z" fill="#0E1011"/>
</svg>
