<svg viewBox="0 0 16 16" fill="none" xmlns="http://www.w3.org/2000/svg">
<path fill-rule="evenodd" clip-rule="evenodd" d="M0.705719 8.00016C0.705719 3.96877 3.97381 0.700684 8.0052 0.700684C12.0366 0.700684 15.3047 3.96877 15.3047 8.00016C15.3047 12.0316 12.0366 15.2996 8.0052 15.2996C3.97381 15.2996 0.705719 12.0316 0.705719 8.00016ZM4.64644 7.64653C4.8417 7.45127 5.15829 7.45127 5.35355 7.64653L7.49999 9.79298L7.49999 5.00008C7.49999 4.72394 7.72385 4.50008 7.99999 4.50008C8.27614 4.50008 8.49999 4.72394 8.49999 5.00008L8.49999 9.79298L10.6464 7.64653C10.8417 7.45127 11.1583 7.45127 11.3535 7.64653C11.5488 7.84179 11.5488 8.15838 11.3535 8.35364L8.35355 11.3536C8.25978 11.4474 8.1326 11.5001 7.99999 11.5001C7.86738 11.5001 7.74021 11.4474 7.64644 11.3536L4.64644 8.35364C4.45118 8.15838 4.45118 7.84179 4.64644 7.64653Z" fill="#0E1011"/>
</svg>
