<svg viewBox="0 0 16 16" fill="none" xmlns="http://www.w3.org/2000/svg">
<path d="M6 2C6 1.72386 5.77614 1.5 5.5 1.5C5.22386 1.5 5 1.72386 5 2V4C5 4.55228 4.55228 5 4 5H2C1.72386 5 1.5 5.22386 1.5 5.5C1.5 5.77614 1.72386 6 2 6H4C5.10457 6 6 5.10457 6 4V2Z" fill="#0E1011"/>
<path d="M6 14C6 14.2761 5.77614 14.5 5.5 14.5C5.22386 14.5 5 14.2761 5 14V12C5 11.4477 4.55228 11 4 11H2C1.72386 11 1.5 10.7761 1.5 10.5C1.5 10.2239 1.72386 10 2 10H4C5.10457 10 6 10.8954 6 12V14Z" fill="#0E1011"/>
<path d="M10.5 1.5C10.2239 1.5 10 1.72386 10 2V4C10 5.10457 10.8954 6 12 6H14C14.2761 6 14.5 5.77614 14.5 5.5C14.5 5.22386 14.2761 5 14 5H12C11.4477 5 11 4.55228 11 4V2C11 1.72386 10.7761 1.5 10.5 1.5Z" fill="#0E1011"/>
<path d="M10 14C10 14.2761 10.2239 14.5 10.5 14.5C10.7761 14.5 11 14.2761 11 14V12C11 11.4477 11.4477 11 12 11H14C14.2761 11 14.5 10.7761 14.5 10.5C14.5 10.2239 14.2761 10 14 10H12C10.8954 10 10 10.8954 10 12V14Z" fill="#0E1011"/>
</svg>
