<svg viewBox="0 0 12 12" fill="none" xmlns="http://www.w3.org/2000/svg">
<path fill-rule="evenodd" clip-rule="evenodd" d="M4.5 0.5C4.08579 0.5 3.75 0.835786 3.75 1.25V2H1.5C0.671573 2 0 2.67157 0 3.5V9.25C0 10.0784 0.671573 10.75 1.5 10.75H10.5C11.3284 10.75 12 10.0784 12 9.25V3.5C12 2.67157 11.3284 2 10.5 2H8.25V1.25C8.25 0.835786 7.91421 0.5 7.5 0.5H4.5ZM7.5 2H4.5V1.25H7.5V2ZM0.75 3.5C0.75 3.08579 1.08579 2.75 1.5 2.75H10.5C10.9142 2.75 11.25 3.08579 11.25 3.5V5.4375H0.75V3.5ZM0.75 6V9.25C0.75 9.66421 1.08579 10 1.5 10H10.5C10.9142 10 11.25 9.66421 11.25 9.25V6H7.59375V6.46875C7.59375 7.03829 7.13204 7.5 6.5625 7.5H5.4375C4.86796 7.5 4.40625 7.03829 4.40625 6.46875V6H0.75ZM4.96875 6.46875V6H7.03125V6.46875C7.03125 6.72763 6.82138 6.9375 6.5625 6.9375H5.4375C5.17862 6.9375 4.96875 6.72763 4.96875 6.46875Z" fill="#0E1011"/>
</svg>
