<svg viewBox="0 0 12 12" fill="none" xmlns="http://www.w3.org/2000/svg">
<path fill-rule="evenodd" clip-rule="evenodd" d="M3.75 3C3.75 2.17157 4.42157 1.5 5.25 1.5C6.07843 1.5 6.75 2.17157 6.75 3C6.75 3.82843 6.07843 4.5 5.25 4.5H1.125C0.917893 4.5 0.75 4.33211 0.75 4.125C0.75 3.91789 0.917893 3.75 1.125 3.75H5.25C5.66421 3.75 6 3.41421 6 3C6 2.58579 5.66421 2.25 5.25 2.25C4.83579 2.25 4.5 2.58579 4.5 3V3.07129C4.5 3.27839 4.33211 3.44629 4.125 3.44629C3.91789 3.44629 3.75 3.27839 3.75 3.07129V3ZM7.5 4.5C7.5 3.46447 8.33947 2.625 9.375 2.625C10.4105 2.625 11.25 3.46447 11.25 4.5V4.6875C11.25 5.82659 10.3266 6.75 9.1875 6.75H1.125C0.917893 6.75 0.75 6.58211 0.75 6.375C0.75 6.16789 0.917893 6 1.125 6H9.1875C9.91237 6 10.5 5.41237 10.5 4.6875V4.5C10.5 3.87868 9.99632 3.375 9.375 3.375C8.75368 3.375 8.25 3.87868 8.25 4.5V4.53756C8.25 4.74467 8.08211 4.91256 7.875 4.91256C7.66789 4.91256 7.5 4.74467 7.5 4.53756V4.5ZM0.75 8.625C0.75 8.41789 0.917893 8.25 1.125 8.25H6.75C7.57843 8.25 8.25 8.92157 8.25 9.75C8.25 10.5784 7.57843 11.25 6.75 11.25C5.92157 11.25 5.25 10.5784 5.25 9.75V9.65699C5.25 9.44988 5.41789 9.28199 5.625 9.28199C5.83211 9.28199 6 9.44988 6 9.65699V9.75C6 10.1642 6.33579 10.5 6.75 10.5C7.16421 10.5 7.5 10.1642 7.5 9.75C7.5 9.33579 7.16421 9 6.75 9H1.125C0.917893 9 0.75 8.83211 0.75 8.625Z" fill="#0E1011"/>
</svg>
