<svg viewBox="0 0 12 12" fill="none" xmlns="http://www.w3.org/2000/svg">
<path fill-rule="evenodd" clip-rule="evenodd" d="M12 6C12 9.31371 9.31371 12 6 12C2.68629 12 0 9.31371 0 6C0 2.68629 2.68629 0 6 0C9.31371 0 12 2.68629 12 6ZM9.26517 4.39016C9.41161 4.24372 9.41161 4.00628 9.26517 3.85984C9.11872 3.71339 8.88128 3.71339 8.73483 3.85984L5.25 7.34467L3.64016 5.73484C3.49372 5.58839 3.25628 5.58839 3.10984 5.73484C2.96339 5.88128 2.96339 6.11872 3.10984 6.26517L4.98484 8.14017C5.13128 8.28661 5.36872 8.28661 5.51516 8.14017L9.26517 4.39016Z" fill="#0E1011"/>
</svg>
