<svg viewBox="0 0 12 12" fill="none" xmlns="http://www.w3.org/2000/svg">
<path d="M0.75 6C0.75 3.92893 2.42893 2.25 4.5 2.25C6.23272 2.25 7.69184 3.4255 8.1216 5.02317L8.21279 5.36218L8.55708 5.29351C8.69999 5.26501 8.84805 5.25 9 5.25C10.2426 5.25 11.25 6.25736 11.25 7.5C11.25 8.26428 10.8693 8.93969 10.2855 9.34692C10.1156 9.46541 10.0739 9.69916 10.1924 9.86903C10.3109 10.0389 10.5447 10.0805 10.7145 9.96206C11.4908 9.42058 12 8.51978 12 7.5C12 5.84315 10.6569 4.5 9 4.5C8.91503 4.5 8.83082 4.50354 8.74752 4.5105C8.13275 2.75744 6.46365 1.5 4.5 1.5C2.01472 1.5 0 3.51472 0 6C0 7.58011 0.814694 8.96973 2.04518 9.77203C2.21867 9.88514 2.45101 9.8362 2.56413 9.66272C2.67724 9.48923 2.6283 9.25689 2.45482 9.14377C1.42765 8.47405 0.75 7.31606 0.75 6Z" fill="#0E1011"/>
<path d="M6.75 7.28033V11.625C6.75 11.8321 6.58211 12 6.375 12C6.16789 12 6 11.8321 6 11.625V7.28033L4.39016 8.89017C4.24372 9.03661 4.00628 9.03661 3.85984 8.89017C3.71339 8.74372 3.71339 8.50628 3.85984 8.35983L6.375 5.84467L8.89017 8.35983C9.03661 8.50628 9.03661 8.74372 8.89017 8.89017C8.74372 9.03661 8.50628 9.03661 8.35983 8.89017L6.75 7.28033Z" fill="#0E1011"/>
</svg>
