<svg viewBox="0 0 12 12" fill="none" xmlns="http://www.w3.org/2000/svg">
<path d="M10.7102 7.5C10.7102 8.79442 9.66086 9.84375 8.36644 9.84375H7.24144C7.08611 9.84375 6.96019 9.96967 6.96019 10.125C6.96019 10.2803 7.08611 10.4063 7.24144 10.4063H8.36644C9.97152 10.4063 11.2727 9.10508 11.2727 7.5C11.2727 5.89492 9.97152 4.59375 8.36644 4.59375H1.89924L3.95332 2.44431C4.06064 2.33202 4.0566 2.15398 3.9443 2.04667C3.832 1.93935 3.65397 1.94339 3.54665 2.05569L0.852417 4.875L3.54665 7.69431C3.65397 7.80661 3.832 7.81065 3.9443 7.70333C4.0566 7.59602 4.06064 7.41799 3.95332 7.30569L1.89924 5.15625H8.36644C9.66086 5.15625 10.7102 6.20558 10.7102 7.5Z" fill="#0E1011"/>
</svg>
