<svg viewBox="0 0 12 12" fill="none" xmlns="http://www.w3.org/2000/svg">
<path fill-rule="evenodd" clip-rule="evenodd" d="M1.875 1C0.839466 1 0 1.83947 0 2.875V9.125C0 10.1605 0.839466 11 1.875 11H10.125C11.1605 11 12 10.1605 12 9.125V2.875C12 1.83947 11.1605 1 10.125 1H1.875ZM0.75 2.875C0.75 2.25368 1.25368 1.75 1.875 1.75H4.4375V10.25H1.875C1.25368 10.25 0.75 9.74632 0.75 9.125V2.875ZM5 10.25H10.125C10.7463 10.25 11.25 9.74632 11.25 9.125V2.875C11.25 2.25368 10.7463 1.75 10.125 1.75H5V10.25Z" fill="#0E1011"/>
</svg>
