<svg viewBox="0 0 16 16" fill="none" xmlns="http://www.w3.org/2000/svg">
<path fill-rule="evenodd" clip-rule="evenodd" d="M9.32355 0.522763C8.57883 -0.174254 7.42117 -0.174254 6.67645 0.522763L5.93001 1.22139C5.58727 1.54218 5.13969 1.72757 4.67051 1.7431L3.64869 1.7769C2.62923 1.81063 1.81063 2.62923 1.7769 3.64869L1.7431 4.67051C1.72757 5.13969 1.54218 5.58727 1.22139 5.93001L0.522763 6.67645C-0.174254 7.42117 -0.174254 8.57883 0.522763 9.32355L1.22139 10.07C1.54218 10.4127 1.72757 10.8603 1.7431 11.3295L1.7769 12.3513C1.81063 13.3708 2.62923 14.1894 3.64869 14.2231L4.67051 14.2569C5.13969 14.2724 5.58727 14.4578 5.93001 14.7786L6.67645 15.4772C7.42117 16.1743 8.57883 16.1743 9.32355 15.4772L10.07 14.7786C10.4127 14.4578 10.8603 14.2724 11.3295 14.2569L12.3513 14.2231C13.3708 14.1894 14.1894 13.3708 14.2231 12.3513L14.2569 11.3295C14.2724 10.8603 14.4578 10.4127 14.7786 10.07L15.4772 9.32355C16.1743 8.57883 16.1743 7.42117 15.4772 6.67645L14.7786 5.93001C14.4578 5.58727 14.2724 5.13969 14.2569 4.67051L14.2231 3.64869C14.1894 2.62923 13.3708 1.81063 12.3513 1.7769L11.3295 1.7431C10.8603 1.72757 10.4127 1.54218 10.07 1.22139L9.32355 0.522763ZM12.3536 6.35355C12.5488 6.15829 12.5488 5.84171 12.3536 5.64645C12.1583 5.45118 11.8417 5.45118 11.6464 5.64645L7.5 9.79289L5.35355 7.64645C5.15829 7.45118 4.84171 7.45118 4.64645 7.64645C4.45118 7.84171 4.45118 8.15829 4.64645 8.35355L7.5 11.2071L12.3536 6.35355Z" fill="#0E1011"/>
</svg>
