<svg viewBox="0 0 16 16" fill="none" xmlns="http://www.w3.org/2000/svg">
<path d="M7.14645 0.853553C6.95118 0.658291 6.95118 0.341709 7.14645 0.146447C7.34171 -0.0488155 7.65829 -0.0488155 7.85355 0.146447L10.2071 2.5L7.85355 4.85355C7.65829 5.04882 7.34171 5.04882 7.14645 4.85355C6.95118 4.65829 6.95118 4.34171 7.14645 4.14645L8.29289 3H8C6.9441 3 5.91531 3.33427 5.06107 3.95492C4.20684 4.57556 3.57101 5.4507 3.24472 6.45492C2.91843 7.45913 2.91843 8.54087 3.24472 9.54509C3.57101 10.5493 4.20684 11.4244 5.06107 12.0451C5.28448 12.2074 5.334 12.5201 5.17169 12.7435C5.00938 12.9669 4.69669 13.0164 4.47329 12.8541C3.4482 12.1093 2.68521 11.0592 2.29366 9.8541C1.90211 8.64904 1.90211 7.35096 2.29366 6.1459C2.68521 4.94084 3.4482 3.89067 4.47329 3.1459C5.49837 2.40113 6.73292 2 8 2H8.29289L7.14645 0.853553Z" fill="#0E1011"/>
<path d="M8 13C9.0559 13 10.0847 12.6657 10.9389 12.0451C11.7932 11.4244 12.429 10.5493 12.7553 9.54508C13.0816 8.54087 13.0816 7.45913 12.7553 6.45491C12.429 5.4507 11.7932 4.57555 10.9389 3.95492C10.7155 3.7926 10.666 3.47992 10.8283 3.25651C10.9906 3.03311 11.3033 2.98359 11.5267 3.1459C12.5518 3.89067 13.3148 4.94084 13.7063 6.1459C14.0979 7.35096 14.0979 8.64904 13.7063 9.8541C13.3148 11.0592 12.5518 12.1093 11.5267 12.8541C10.5016 13.5989 9.26708 14 8 14H7.70711L8.85355 15.1464C9.04882 15.3417 9.04882 15.6583 8.85355 15.8536C8.65829 16.0488 8.34171 16.0488 8.14645 15.8536L5.79289 13.5L8.14645 11.1464C8.34171 10.9512 8.65829 10.9512 8.85355 11.1464C9.04882 11.3417 9.04882 11.6583 8.85355 11.8536L7.70711 13H8Z" fill="#0E1011"/>
</svg>
