<svg viewBox="0 0 12 12" fill="none" xmlns="http://www.w3.org/2000/svg">
<path fill-rule="evenodd" clip-rule="evenodd" d="M6 0C3.92893 0 2.25 1.67893 2.25 3.75C2.25 4.97507 2.83744 6.06294 3.74601 6.74727L3.00436 11.568C2.98247 11.7103 3.04396 11.8525 3.16259 11.934C3.28123 12.0156 3.43607 12.022 3.56105 11.9506L6 10.5569L8.43895 11.9506C8.56393 12.022 8.71877 12.0156 8.83741 11.934C8.95604 11.8525 9.01753 11.7103 8.99564 11.568L8.25399 6.74727C9.16256 6.06294 9.75 4.97507 9.75 3.75C9.75 1.67893 8.07107 0 6 0ZM3 3.75C3 2.09315 4.34315 0.75 6 0.75C7.65685 0.75 9 2.09315 9 3.75C9 5.40685 7.65685 6.75 6 6.75C4.34315 6.75 3 5.40685 3 3.75ZM7.55891 7.16162C7.08418 7.3789 6.55623 7.5 6 7.5C5.44377 7.5 4.91582 7.3789 4.44109 7.16162L3.86383 10.9138L5.81395 9.79941C5.92923 9.73353 6.07077 9.73353 6.18605 9.79941L8.13617 10.9138L7.55891 7.16162Z" fill="#0E1011"/>
</svg>
