<svg viewBox="0 0 16 16" fill="none" xmlns="http://www.w3.org/2000/svg">
<path d="M4 1C4 0.723858 3.77614 0.5 3.5 0.5C3.22386 0.5 3 0.723858 3 1V3C3 3.27614 3.22386 3.5 3.5 3.5C3.77614 3.5 4 3.27614 4 3V1Z" fill="#0E1011"/>
<path d="M7 1C7 0.723858 6.77614 0.5 6.5 0.5C6.22386 0.5 6 0.723858 6 1V3C6 3.27614 6.22386 3.5 6.5 3.5C6.77614 3.5 7 3.27614 7 3V1Z" fill="#0E1011"/>
<path d="M10 1C10 0.723858 9.77614 0.5 9.5 0.5C9.22386 0.5 9 0.723858 9 1V3C9 3.27614 9.22386 3.5 9.5 3.5C9.77614 3.5 10 3.27614 10 3V1Z" fill="#0E1011"/>
<path fill-rule="evenodd" clip-rule="evenodd" d="M14.8944 9.8618L13 10.809V11C13 12.6569 11.6569 14 10 14H3C1.34315 14 0 12.6569 0 11V7C0 5.89543 0.895431 5 2 5H14C15.1046 5 16 5.89543 16 7V8.07295C16 8.83049 15.572 9.52302 14.8944 9.8618ZM1 7C1 6.44772 1.44772 6 2 6H12V11C12 12.1046 11.1046 13 10 13H3C1.89543 13 1 12.1046 1 11V7ZM13 9.69098V6H14C14.5523 6 15 6.44772 15 7V8.07295C15 8.45172 14.786 8.79798 14.4472 8.96738L13 9.69098Z" fill="#0E1011"/>
</svg>
