<svg viewBox="0 0 16 16" fill="none" xmlns="http://www.w3.org/2000/svg">
<path fill-rule="evenodd" clip-rule="evenodd" d="M12 4.00008L6.75 6.75008L4 12.0001L9.25 9.25008L12 4.00008ZM7.49083 7.49091L6.37065 9.62943L8.50917 8.50926L9.62935 6.37074L7.49083 7.49091Z" fill="#0E1011"/>
<path fill-rule="evenodd" clip-rule="evenodd" d="M15.2943 8.00016C15.2943 3.96877 12.0262 0.700684 7.99479 0.700684C3.9634 0.700684 0.695312 3.96877 0.695312 8.00016C0.695312 12.0316 3.9634 15.2996 7.99479 15.2996C12.0262 15.2996 15.2943 12.0316 15.2943 8.00016ZM14.2943 8.00016C14.2943 4.52106 11.4739 1.70068 7.99479 1.70068C4.51569 1.70068 1.69531 4.52106 1.69531 8.00016C1.69531 11.4793 4.51569 14.2996 7.99479 14.2996C11.4739 14.2996 14.2943 11.4793 14.2943 8.00016Z" fill="#0E1011"/>
</svg>
