<svg viewBox="0 0 16 16" fill="none" xmlns="http://www.w3.org/2000/svg">
<path fill-rule="evenodd" clip-rule="evenodd" d="M8.55709 0.184433C8.19947 0.0413868 7.80053 0.0413868 7.44291 0.184433L0.942914 2.78443C0.373427 3.01223 0 3.56379 0 4.17715V11.8231C0 12.4364 0.373427 12.988 0.942914 13.2158L7.44291 15.8158C7.80053 15.9588 8.19947 15.9588 8.55709 15.8158L15.0571 13.2158C15.6266 12.988 16 12.4364 16 11.8231V4.17715C16 3.56379 15.6266 3.01223 15.0571 2.78443L8.55709 0.184433ZM7.8143 1.11291C7.93351 1.06523 8.06649 1.06523 8.1857 1.11291L14.2883 3.55397L8 6.0693L1.71166 3.55397L7.8143 1.11291ZM1.00206 4.13175C1.00069 4.14674 1 4.16189 1 4.17715V11.8231C1 12.0275 1.12448 12.2114 1.3143 12.2873L7.6 14.8016V6.77093L1.00206 4.13175ZM8.4 14.8016L14.6857 12.2873C14.8755 12.2114 15 12.0275 15 11.8231V4.17715C15 4.16189 14.9993 4.14674 14.9979 4.13175L8.4 6.77093V14.8016Z" fill="#0E1011"/>
</svg>
