<svg viewBox="0 0 12 12" fill="none" xmlns="http://www.w3.org/2000/svg">
<path d="M2 1.125C1.79289 1.125 1.625 1.29289 1.625 1.5C1.625 1.70711 1.79289 1.875 2 1.875H2.125V6C2.125 8.1401 3.8599 9.875 6 9.875C8.1401 9.875 9.875 8.1401 9.875 6V1.875H10C10.2071 1.875 10.375 1.70711 10.375 1.5C10.375 1.29289 10.2071 1.125 10 1.125H9C8.79289 1.125 8.625 1.29289 8.625 1.5C8.625 1.70711 8.79289 1.875 9 1.875H9.125V6C9.125 7.72589 7.72589 9.125 6 9.125C4.27411 9.125 2.875 7.72589 2.875 6V1.875H3C3.20711 1.875 3.375 1.70711 3.375 1.5C3.375 1.29289 3.20711 1.125 3 1.125H2Z" fill="#0E1011"/>
<path d="M2 11.125C1.79289 11.125 1.625 11.2929 1.625 11.5C1.625 11.7071 1.79289 11.875 2 11.875H10C10.2071 11.875 10.375 11.7071 10.375 11.5C10.375 11.2929 10.2071 11.125 10 11.125H2Z" fill="#0E1011"/>
</svg>
