<svg viewBox="0 0 12 12" fill="none" xmlns="http://www.w3.org/2000/svg">
<path fill-rule="evenodd" clip-rule="evenodd" d="M4.84451 2.25C4.28866 2.25 3.75249 2.45575 3.33933 2.82759L0.124138 5.72126C0.0451205 5.79238 0 5.89369 0 6C0 6.10631 0.0451205 6.20762 0.124138 6.27874L3.33933 9.17241C3.75249 9.54425 4.28866 9.75 4.84451 9.75H10.3125C11.2445 9.75 12 8.99448 12 8.0625V3.9375C12 3.00552 11.2445 2.25 10.3125 2.25H4.84451ZM6.26517 4.23484C6.11872 4.08839 5.88128 4.08839 5.73484 4.23484C5.58839 4.38128 5.58839 4.61872 5.73484 4.76516L6.96967 6L5.73484 7.23484C5.58839 7.38128 5.58839 7.61872 5.73484 7.76516C5.88128 7.91161 6.11872 7.91161 6.26517 7.76516L7.5 6.53033L8.73483 7.76516C8.88128 7.91161 9.11872 7.91161 9.26517 7.76516C9.41161 7.61872 9.41161 7.38128 9.26517 7.23484L8.03033 6L9.26517 4.76516C9.41161 4.61872 9.41161 4.38128 9.26517 4.23484C9.11872 4.08839 8.88128 4.08839 8.73483 4.23484L7.5 5.46967L6.26517 4.23484Z" fill="#0E1011"/>
</svg>
