<svg viewBox="0 0 16 16" fill="none" xmlns="http://www.w3.org/2000/svg">
<path fill-rule="evenodd" clip-rule="evenodd" d="M15.2943 8.00004C15.2943 12.0314 12.0262 15.2995 7.99479 15.2995C3.9634 15.2995 0.695312 12.0314 0.695312 8.00004C0.695312 3.96865 3.9634 0.700562 7.99479 0.700562C12.0262 0.700562 15.2943 3.96865 15.2943 8.00004ZM5 6.00003C5 5.44775 5.44772 5.00003 6 5.00003C6.55228 5.00003 7 5.44775 7 6.00003C7 6.55232 6.55228 7.00003 6 7.00003C5.44772 7.00003 5 6.55232 5 6.00003ZM9 6.00003C9 5.44775 9.44772 5.00003 10 5.00003C10.5523 5.00003 11 5.44775 11 6.00003C11 6.55232 10.5523 7.00003 10 7.00003C9.44772 7.00003 9 6.55232 9 6.00003ZM5 10.5C5 10.2239 5.22386 10 5.5 10H10.5C10.7761 10 11 10.2239 11 10.5C11 10.7762 10.7761 11 10.5 11H5.5C5.22386 11 5 10.7762 5 10.5Z" fill="#0E1011"/>
</svg>
