<svg viewBox="0 0 16 16" fill="none" xmlns="http://www.w3.org/2000/svg">
<path fill-rule="evenodd" clip-rule="evenodd" d="M10.1465 0.146447C10.3417 -0.0488155 10.6583 -0.0488155 10.8536 0.146447L14.2071 3.5L10.8536 6.85355C10.6583 7.04882 10.3417 7.04882 10.1465 6.85355C9.9512 6.65829 9.9512 6.34171 10.1465 6.14645L12.2929 4H5.50001C4.1193 4 3.00001 5.11929 3.00001 6.5V7.5C3.00001 7.77614 2.77616 8 2.50001 8C2.22387 8 2.00001 7.77614 2.00001 7.5V6.5C2.00001 4.567 3.56702 3 5.50001 3H12.2929L10.1465 0.853553C9.9512 0.658291 9.9512 0.341709 10.1465 0.146447ZM13 9.5V8.5C13 8.22386 13.2239 8 13.5 8C13.7762 8 14 8.22386 14 8.5V9.5C14 11.433 12.433 13 10.5 13H3.70712L5.85357 15.1464C6.04883 15.3417 6.04883 15.6583 5.85357 15.8536C5.65831 16.0488 5.34172 16.0488 5.14646 15.8536L1.79291 12.5L5.14646 9.14645C5.34172 8.95118 5.65831 8.95118 5.85357 9.14645C6.04883 9.34171 6.04883 9.65829 5.85357 9.85355L3.70712 12H10.5C11.8807 12 13 10.8807 13 9.5Z" fill="#0E1011"/>
</svg>
