<svg viewBox="0 0 16 16" fill="none" xmlns="http://www.w3.org/2000/svg">
<path fill-rule="evenodd" clip-rule="evenodd" d="M3.29138 1.45214C4.5143 1.16993 6.1788 1 8 1C9.8212 1 11.4857 1.16993 12.7086 1.45214C13.3161 1.59233 13.8422 1.76636 14.2287 1.97721C14.4216 2.0825 14.6033 2.20951 14.742 2.36597C14.8835 2.52554 15 2.73977 15 3C15 3.09051 14.9859 3.17546 14.9616 3.25448L15 3.29289V7.5C15 7.72949 14.9326 7.93507 14.8241 8.11698L15 8.29289V12.5C15 13.0128 14.6636 13.4062 14.2833 13.6828C13.8921 13.9674 13.3581 14.2029 12.7432 14.3921C11.5074 14.7724 9.83052 15 8 15C6.16948 15 4.49261 14.7724 3.25676 14.3921C2.6419 14.2029 2.10791 13.9674 1.71667 13.6828C1.33637 13.4062 1 13.0128 1 12.5V8.29289L1.17591 8.11698C1.06738 7.93507 1 7.72949 1 7.5V3.29289L1.03842 3.25448C1.01409 3.17546 1 3.09051 1 3C1 2.73977 1.11645 2.52554 1.25795 2.36597C1.39669 2.20951 1.57835 2.0825 1.77133 1.97721C2.15778 1.76636 2.68392 1.59233 3.29138 1.45214ZM2.03553 3C2.07681 3.03758 2.14483 3.08742 2.25028 3.14495C2.52166 3.29301 2.94742 3.4422 3.51624 3.57346C4.64585 3.83415 6.23135 4 8 4C9.76865 4 11.3541 3.83415 12.4838 3.57346C13.0526 3.4422 13.4783 3.29301 13.7497 3.14495C13.8552 3.08742 13.9232 3.03758 13.9645 3C13.9232 2.96241 13.8552 2.91258 13.7497 2.85505C13.4783 2.70699 13.0526 2.5578 12.4838 2.42654C11.3541 2.16585 9.76865 2 8 2C6.23135 2 4.64585 2.16585 3.51624 2.42654C2.94742 2.5578 2.52166 2.70699 2.25028 2.85505C2.14483 2.91258 2.07681 2.96242 2.03553 3ZM2 8.8665V12.5C2 12.5395 2.0274 12.6723 2.30494 12.8742C2.57153 13.0681 2.98944 13.2636 3.55085 13.4363C4.66754 13.7799 6.24066 14 8 14C9.75934 14 11.3325 13.7799 12.4492 13.4363C13.0106 13.2636 13.4285 13.0681 13.6951 12.8742C13.9726 12.6723 14 12.5395 14 12.5V8.8665C13.6491 9.07049 13.2205 9.24524 12.7432 9.3921C11.5074 9.77236 9.83052 10 8 10C6.16948 10 4.49261 9.77236 3.25676 9.3921C2.77946 9.24524 2.35089 9.07049 2 8.8665ZM12.7086 4.54786C13.2036 4.43363 13.6446 4.29693 14 4.13615V7.5C14 7.53952 13.9726 7.67226 13.6951 7.87416C13.4285 8.0681 13.0106 8.26358 12.4492 8.43632C11.3325 8.77992 9.75934 9 8 9C6.24066 9 4.66754 8.77992 3.55085 8.43632C2.98944 8.26358 2.57153 8.0681 2.30494 7.87416C2.0274 7.67226 2 7.53952 2 7.5V4.13615C2.35542 4.29693 2.7964 4.43363 3.29138 4.54786C4.5143 4.83007 6.1788 5 8 5C9.8212 5 11.4857 4.83007 12.7086 4.54786Z" fill="#0E1011"/>
</svg>
