<svg viewBox="0 0 16 16" fill="none" xmlns="http://www.w3.org/2000/svg">
<path d="M4.14645 4.85355C3.95118 4.65829 3.95118 4.34171 4.14645 4.14645C4.34171 3.95118 4.65829 3.95118 4.85355 4.14645L8.35355 7.64645C8.54882 7.84171 8.54882 8.15829 8.35355 8.35355L4.85355 11.8536C4.65829 12.0488 4.34171 12.0488 4.14645 11.8536C3.95118 11.6583 3.95118 11.3417 4.14645 11.1464L7.29289 8L4.14645 4.85355Z" fill="#0E1011"/>
<path d="M8.14645 4.85355C7.95118 4.65829 7.95118 4.34171 8.14645 4.14645C8.34171 3.95118 8.65829 3.95118 8.85355 4.14645L12.3536 7.64645C12.5488 7.84171 12.5488 8.15829 12.3536 8.35355L8.85355 11.8536C8.65829 12.0488 8.34171 12.0488 8.14645 11.8536C7.95118 11.6583 7.95118 11.3417 8.14645 11.1464L11.2929 8L8.14645 4.85355Z" fill="#0E1011"/>
</svg>
