<svg viewBox="0 0 12 12" fill="none" xmlns="http://www.w3.org/2000/svg">
<path fill-rule="evenodd" clip-rule="evenodd" d="M3 1.125C1.96447 1.125 1.125 1.96447 1.125 3C1.125 4.03553 1.96447 4.875 3 4.875C3.38216 4.875 3.73761 4.76067 4.03403 4.56435L5.46968 6L4.03402 7.43565C3.73761 7.23933 3.38216 7.125 3 7.125C1.96447 7.125 1.125 7.96447 1.125 9C1.125 10.0355 1.96447 10.875 3 10.875C4.03553 10.875 4.875 10.0355 4.875 9C4.875 8.61784 4.76067 8.26239 4.56435 7.96598L10.7652 1.76517C10.9116 1.61872 10.9116 1.38128 10.7652 1.23483C10.6187 1.08839 10.3813 1.08839 10.2348 1.23483L6.00001 5.46967L4.56436 4.03401C4.76067 3.7376 4.875 3.38215 4.875 3C4.875 1.96447 4.03553 1.125 3 1.125ZM1.875 3C1.875 2.37868 2.37868 1.875 3 1.875C3.62132 1.875 4.125 2.37868 4.125 3C4.125 3.62132 3.62132 4.125 3 4.125C2.37868 4.125 1.875 3.62132 1.875 3ZM3 7.875C2.37868 7.875 1.875 8.37868 1.875 9C1.875 9.62132 2.37868 10.125 3 10.125C3.62132 10.125 4.125 9.62132 4.125 9C4.125 8.37868 3.62132 7.875 3 7.875Z" fill="#0E1011"/>
<path d="M7.23485 7.23484C7.38129 7.08839 7.61873 7.08839 7.76518 7.23484L10.7652 10.2348C10.9116 10.3813 10.9116 10.6187 10.7652 10.7652C10.6187 10.9116 10.3813 10.9116 10.2348 10.7652L7.23485 7.76516C7.0884 7.61872 7.0884 7.38128 7.23485 7.23484Z" fill="#0E1011"/>
</svg>
