<svg viewBox="0 0 12 12" fill="none" xmlns="http://www.w3.org/2000/svg">
<path fill-rule="evenodd" clip-rule="evenodd" d="M0.125026 2.74996C0.125026 2.72532 0.125575 2.7008 0.12666 2.67643C0.125558 2.65478 0.125 2.633 0.125 2.61108C0.125 1.79032 0.790355 1.12497 1.61111 1.12497H8C9.03553 1.12497 9.875 1.96444 9.875 2.99997V3.34123C10.4697 3.65561 10.875 4.28046 10.875 4.99997V5.49997C10.875 5.70708 10.7071 5.87497 10.5 5.87497C10.2929 5.87497 10.125 5.70708 10.125 5.49997V4.99997C10.125 4.37865 9.62131 3.87497 8.99999 3.87497H1.38889C1.20591 3.87497 1.03202 3.83609 0.875022 3.76614L0.875 8.99996C0.874997 9.62129 1.37868 10.125 2 10.125H3.49999C3.7071 10.125 3.87499 10.2929 3.87499 10.5C3.87499 10.7071 3.7071 10.875 3.49999 10.875H2C0.964463 10.875 0.124996 10.0355 0.125 8.99996L0.125026 2.74996ZM1.75003 1.87497C1.29325 1.87497 0.918227 2.22497 0.878504 2.67141C0.90837 2.9268 1.12549 3.12497 1.38889 3.12497H9.125V2.99997C9.125 2.37865 8.62132 1.87497 8 1.87497H1.75003Z" fill="#0E1011"/>
<path d="M7.23486 7.23481C7.38131 7.08836 7.61874 7.08836 7.76519 7.2348C7.91164 7.38124 7.91164 7.61868 7.7652 7.76513L6.40534 9.12503H11.5C11.7071 9.12503 11.875 9.29293 11.875 9.50003C11.875 9.70714 11.7071 9.87503 11.5 9.87503H6.40538L7.76519 11.2348C7.91164 11.3812 7.91164 11.6187 7.7652 11.7651C7.61876 11.9116 7.38132 11.9116 7.23487 11.7651L4.9697 9.50004L7.23486 7.23481Z" fill="#0E1011"/>
</svg>
