<svg viewBox="0 0 12 12" fill="none" xmlns="http://www.w3.org/2000/svg">
<path fill-rule="evenodd" clip-rule="evenodd" d="M10.6716 0.125C10.4623 0.125 10.2615 0.208149 10.1135 0.356155L4.125 6.34467V7.875H5.65533L11.6438 1.88649C11.7919 1.73848 11.875 1.53774 11.875 1.32843C11.875 0.663793 11.3362 0.125 10.6716 0.125ZM10.6438 0.886485C10.6512 0.879131 10.6612 0.875 10.6716 0.875C10.922 0.875 11.125 1.07801 11.125 1.32843C11.125 1.33883 11.1209 1.3488 11.1135 1.35616L5.34467 7.125H4.875V6.65533L10.6438 0.886485Z" fill="#0E1011"/>
<path d="M2.75 1.125C1.85254 1.125 1.125 1.85254 1.125 2.75V9.25C1.125 10.1475 1.85254 10.875 2.75 10.875H9.25C10.1475 10.875 10.875 10.1475 10.875 9.25V6C10.875 5.79289 10.7071 5.625 10.5 5.625C10.2929 5.625 10.125 5.79289 10.125 6V9.25C10.125 9.73325 9.73325 10.125 9.25 10.125H2.75C2.26675 10.125 1.875 9.73325 1.875 9.25V2.75C1.875 2.26675 2.26675 1.875 2.75 1.875H6C6.20711 1.875 6.375 1.70711 6.375 1.5C6.375 1.29289 6.20711 1.125 6 1.125H2.75Z" fill="#0E1011"/>
</svg>
