<svg viewBox="0 0 12 12" fill="none" xmlns="http://www.w3.org/2000/svg">
<path d="M3 5C3.55228 5 4 4.55228 4 4C4 3.44772 3.55228 3 3 3C2.44772 3 2 3.44772 2 4C2 4.55228 2.44772 5 3 5Z" fill="#0E1011"/>
<path fill-rule="evenodd" clip-rule="evenodd" d="M1.75 1C0.783502 1 0 1.7835 0 2.75V9.25C0 10.2165 0.783502 11 1.75 11H10.25C11.2165 11 12 10.2165 12 9.25V2.75C12 1.7835 11.2165 1 10.25 1H1.75ZM10.25 1.75H1.75C1.19772 1.75 0.75 2.19772 0.75 2.75V7.71967L2.5 5.96967L4.01709 7.48676L8.01709 3.98676L11.25 7.21967V2.75C11.25 2.19772 10.8023 1.75 10.25 1.75ZM0.75 9.25V8.77952C0.755154 8.7749 0.760212 8.77012 0.765165 8.76516L2.5 7.03033L3.98291 8.51324L7.98291 5.01324L11.2348 8.26517C11.2398 8.27012 11.2448 8.2749 11.25 8.27952V9.25C11.25 9.80228 10.8023 10.25 10.25 10.25H1.75C1.19772 10.25 0.75 9.80229 0.75 9.25Z" fill="#0E1011"/>
</svg>
