<svg viewBox="0 0 12 12" fill="none" xmlns="http://www.w3.org/2000/svg">
<path d="M1.39017 0.859835C1.24372 0.713388 1.00628 0.713388 0.859835 0.859835C0.713388 1.00628 0.713388 1.24372 0.859835 1.39017L1.71967 2.25H1.6875C0.75552 2.25 0 3.00552 0 3.9375V8.0625C0 8.99448 0.75552 9.75 1.6875 9.75H7.875C8.08211 9.75 8.25 9.58211 8.25 9.375C8.25 9.16789 8.08211 9 7.875 9H1.6875C1.16973 9 0.75 8.58027 0.75 8.0625V3.9375C0.75 3.41973 1.16973 3 1.6875 3H2.46967L10.6098 11.1402C10.7563 11.2866 10.9937 11.2866 11.1402 11.1402C11.2866 10.9937 11.2866 10.7563 11.1402 10.6098L1.39017 0.859835Z" fill="#0E1011"/>
<path d="M7.3125 2.25H4.875C4.66789 2.25 4.5 2.41789 4.5 2.625C4.5 2.83211 4.66789 3 4.875 3H7.3125C7.83027 3 8.25 3.41973 8.25 3.9375V6C8.25 6.14714 8.33605 6.28069 8.47004 6.34149C8.60404 6.40229 8.7612 6.37911 8.87194 6.28222L11.25 4.20141V8.625C11.25 8.83211 11.4179 9 11.625 9C11.8321 9 12 8.83211 12 8.625V3.375C12 3.22786 11.9139 3.09431 11.78 3.03351C11.646 2.97271 11.4888 2.99589 11.3781 3.09278L9 5.17359V3.9375C9 3.00552 8.24448 2.25 7.3125 2.25Z" fill="#0E1011"/>
</svg>
