<svg viewBox="0 0 16 16" fill="none" xmlns="http://www.w3.org/2000/svg">
<path d="M1.60339 1.39645C1.40812 1.20118 1.09154 1.20118 0.896279 1.39645C0.701017 1.59171 0.701017 1.90829 0.896279 2.10355L2.71669 3.92396C1.72873 4.50029 0.843389 5.23332 0.0947266 6.08896L0.82475 6.77336C1.56449 5.92168 2.45335 5.203 3.45069 4.65797L4.94224 6.14952C3.91302 6.60959 3.00646 7.2948 2.28519 8.14252L3.01572 8.82739C3.72755 7.97803 4.65246 7.31331 5.70821 6.91548L7.34066 8.54794C6.18556 8.71748 5.17312 9.32589 4.47811 10.1984L5.21073 10.8852C5.84993 10.0435 6.8614 9.5 7.99983 9.5C8.10296 9.5 8.20506 9.50446 8.30593 9.5132L12.3963 13.6036C12.5915 13.7988 12.9081 13.7988 13.1034 13.6036C13.2986 13.4083 13.2986 13.0917 13.1034 12.8964L1.60339 1.39645Z" fill="#0E1011"/>
<path d="M12.9839 8.8274C12.0131 7.66898 10.6459 6.85403 9.09103 6.5912L7.99983 5.5C10.2891 5.5 12.3388 6.52566 13.7145 8.14252L12.9839 8.8274Z" fill="#0E1011"/>
<path d="M7.99983 3.5C7.37564 3.5 6.76551 3.5602 6.17494 3.6751L5.33973 2.8399C6.18929 2.61808 7.08077 2.5 7.99983 2.5C11.1523 2.5 13.9803 3.88927 15.9049 6.08897L15.1749 6.77337C13.4331 4.768 10.8646 3.5 7.99983 3.5Z" fill="#0E1011"/>
<path d="M9.68409 11.921C9.32847 11.367 8.70701 11 7.99983 11C7.29265 11 6.67119 11.367 6.31557 11.921L7.99983 13.5L9.68409 11.921Z" fill="#0E1011"/>
</svg>
