<svg viewBox="0 0 16 16" fill="none" xmlns="http://www.w3.org/2000/svg">
<path fill-rule="evenodd" clip-rule="evenodd" d="M9.5 1C8.70141 1 8 1.6127 8 2.4375V5.5625C8 6.3873 8.70141 7 9.5 7C10.2986 7 11 6.3873 11 5.5625V2.4375C11 1.6127 10.2986 1 9.5 1ZM9 2.4375C9 2.2248 9.19192 2 9.5 2C9.80808 2 10 2.2248 10 2.4375V5.5625C10 5.7752 9.80808 6 9.5 6C9.19192 6 9 5.7752 9 5.5625V2.4375Z" fill="#0E1011"/>
<path fill-rule="evenodd" clip-rule="evenodd" d="M13.5 4C12.6705 4 12 4.67052 12 5.5V6.5C12 6.77614 12.2239 7 12.5 7H13.5C14.3295 7 15 6.32948 15 5.5C15 4.67052 14.3295 4 13.5 4ZM13 5.5C13 5.22281 13.2228 5 13.5 5C13.7772 5 14 5.22281 14 5.5C14 5.77719 13.7772 6 13.5 6H13V5.5Z" fill="#0E1011"/>
<path fill-rule="evenodd" clip-rule="evenodd" d="M5 10.4375C5 9.6127 5.70141 9 6.5 9C7.29859 9 8 9.6127 8 10.4375V13.5625C8 14.3873 7.29859 15 6.5 15C5.70141 15 5 14.3873 5 13.5625V10.4375ZM6.5 10C6.19192 10 6 10.2248 6 10.4375V13.5625C6 13.7752 6.19192 14 6.5 14C6.80808 14 7 13.7752 7 13.5625V10.4375C7 10.2248 6.80808 10 6.5 10Z" fill="#0E1011"/>
<path fill-rule="evenodd" clip-rule="evenodd" d="M2.5 9C1.67052 9 1 9.67052 1 10.5C1 11.3295 1.67052 12 2.5 12C3.32948 12 4 11.3295 4 10.5V9.5C4 9.22386 3.77614 9 3.5 9H2.5ZM2 10.5C2 10.2228 2.22281 10 2.5 10H3V10.5C3 10.7772 2.77719 11 2.5 11C2.22281 11 2 10.7772 2 10.5Z" fill="#0E1011"/>
<path fill-rule="evenodd" clip-rule="evenodd" d="M9 9.5C9 8.70141 9.6127 8 10.4375 8H13.5625C14.3873 8 15 8.70141 15 9.5C15 10.2986 14.3873 11 13.5625 11H10.4375C9.6127 11 9 10.2986 9 9.5ZM10.4375 9C10.2248 9 10 9.19192 10 9.5C10 9.80808 10.2248 10 10.4375 10H13.5625C13.7752 10 14 9.80808 14 9.5C14 9.19192 13.7752 9 13.5625 9H10.4375Z" fill="#0E1011"/>
<path fill-rule="evenodd" clip-rule="evenodd" d="M9.5 12C9.22386 12 9 12.2239 9 12.5V13.5C9 14.3295 9.67052 15 10.5 15C11.3295 15 12 14.3295 12 13.5C12 12.6705 11.3295 12 10.5 12H9.5ZM10 13.5V13H10.5C10.7772 13 11 13.2228 11 13.5C11 13.7772 10.7772 14 10.5 14C10.2228 14 10 13.7772 10 13.5Z" fill="#0E1011"/>
<path fill-rule="evenodd" clip-rule="evenodd" d="M1 6.5C1 5.70141 1.6127 5 2.4375 5H5.5625C6.3873 5 7 5.70141 7 6.5C7 7.29859 6.3873 8 5.5625 8H2.4375C1.6127 8 1 7.29859 1 6.5ZM2.4375 6C2.2248 6 2 6.19192 2 6.5C2 6.80808 2.2248 7 2.4375 7H5.5625C5.7752 7 6 6.80808 6 6.5C6 6.19192 5.7752 6 5.5625 6H2.4375Z" fill="#0E1011"/>
<path fill-rule="evenodd" clip-rule="evenodd" d="M5.5 1C4.67052 1 4 1.67052 4 2.5C4 3.32948 4.67052 4 5.5 4H6.5C6.77614 4 7 3.77614 7 3.5V2.5C7 1.67052 6.32948 1 5.5 1ZM5 2.5C5 2.22281 5.22281 2 5.5 2C5.77719 2 6 2.22281 6 2.5V3H5.5C5.22281 3 5 2.77719 5 2.5Z" fill="#0E1011"/>
</svg>
