<svg viewBox="0 0 12 12" fill="none" xmlns="http://www.w3.org/2000/svg">
<path fill-rule="evenodd" clip-rule="evenodd" d="M10.0303 9.5C10.0303 9.91421 9.69454 10.25 9.28033 10.25H7.40533C7.19822 10.25 7.03033 10.4179 7.03033 10.625C7.03033 10.8321 7.19822 11 7.40533 11H9.28033C10.1088 11 10.7803 10.3284 10.7803 9.5V2.5C10.7803 1.67157 10.1088 1 9.28033 1H7.40533C7.19822 1 7.03033 1.16789 7.03033 1.375C7.03033 1.58211 7.19822 1.75 7.40533 1.75H9.28033C9.69454 1.75 10.0303 2.08579 10.0303 2.5V9.5ZM0.375 5.98484C0.375 5.77773 0.542893 5.60984 0.75 5.60984H7.84467L6.23483 4C6.08839 3.85355 6.08839 3.61612 6.23483 3.46967C6.38128 3.32322 6.61872 3.32322 6.76517 3.46967L9.28033 5.98484L6.76517 8.5C6.61872 8.64645 6.38128 8.64645 6.23483 8.5C6.08839 8.35355 6.08839 8.11612 6.23483 7.96967L7.84467 6.35984H0.75C0.542893 6.35984 0.375 6.19194 0.375 5.98484Z" fill="#0E1011"/>
</svg>
