<svg viewBox="0 0 12 12" fill="none" xmlns="http://www.w3.org/2000/svg">
<path d="M4.40625 5.8125C4.40625 5.03585 5.03585 4.40625 5.8125 4.40625H6V4.96875H5.8125C5.34651 4.96875 4.96875 5.34651 4.96875 5.8125V6H4.40625V5.8125Z" fill="#0E1011"/>
<path fill-rule="evenodd" clip-rule="evenodd" d="M6 3C4.34315 3 3 4.34315 3 6C3 7.65685 4.34315 9 6 9C7.65685 9 9 7.65685 9 6C9 4.34315 7.65685 3 6 3ZM3.75 6C3.75 4.75736 4.75736 3.75 6 3.75C7.24264 3.75 8.25 4.75736 8.25 6C8.25 7.24264 7.24264 8.25 6 8.25C4.75736 8.25 3.75 7.24264 3.75 6Z" fill="#0E1011"/>
<path fill-rule="evenodd" clip-rule="evenodd" d="M3.75 0.46967C3.89065 0.329018 4.08142 0.25 4.28033 0.25H7.71967C7.91858 0.25 8.10935 0.329017 8.25 0.46967L8.78033 1H10.3125C11.2445 1 12 1.75552 12 2.6875V9.3125C12 10.2445 11.2445 11 10.3125 11H1.6875C0.755519 11 0 10.2445 0 9.3125V2.6875C0 1.75552 0.755519 1 1.6875 1L3.21967 1L3.75 0.46967ZM7.71967 1H4.28033L3.75 1.53033C3.60935 1.67098 3.41858 1.75 3.21967 1.75H1.6875C1.16973 1.75 0.75 2.16973 0.75 2.6875V9.3125C0.75 9.83027 1.16973 10.25 1.6875 10.25H10.3125C10.8303 10.25 11.25 9.83027 11.25 9.3125V2.6875C11.25 2.16973 10.8303 1.75 10.3125 1.75H8.78033C8.58142 1.75 8.39065 1.67098 8.25 1.53033L7.71967 1Z" fill="#0E1011"/>
</svg>
