<svg viewBox="0 0 12 12" fill="none" xmlns="http://www.w3.org/2000/svg">
<path d="M3.38672 3.39708C4.15088 2.63028 5.20732 2.15625 6.375 2.15625C6.53033 2.15625 6.65625 2.03033 6.65625 1.875C6.65625 1.71967 6.53033 1.59375 6.375 1.59375C5.05178 1.59375 3.85367 2.13164 2.98828 3.00002C2.87864 3.11004 2.87895 3.28812 2.98897 3.39777C3.09899 3.50741 3.27707 3.5071 3.38672 3.39708Z" fill="#0E1011"/>
<path fill-rule="evenodd" clip-rule="evenodd" d="M11.4248 6.75H6V9.375C6 9.99632 6.50368 10.5 7.125 10.5C7.74632 10.5 8.25 9.99632 8.25 9.375V9.1875C8.25 8.98039 8.41789 8.8125 8.625 8.8125C8.83211 8.8125 9 8.98039 9 9.1875V9.375C9 10.4105 8.16053 11.25 7.125 11.25C6.08947 11.25 5.25 10.4105 5.25 9.375V6.75H0.575229C0.378013 6.75 0.214498 6.59724 0.201096 6.40048C0.192079 6.2681 0.1875 6.13456 0.1875 6C0.1875 2.78984 2.78984 0.1875 6 0.1875C9.21016 0.1875 11.8125 2.78984 11.8125 6C11.8125 6.13456 11.8079 6.2681 11.7989 6.40048C11.7855 6.59724 11.622 6.75 11.4248 6.75ZM6 0.9375C3.20406 0.9375 0.9375 3.20406 0.9375 6H11.0625C11.0625 3.20406 8.79594 0.9375 6 0.9375Z" fill="#0E1011"/>
</svg>
