<svg viewBox="0 0 16 16" fill="none" xmlns="http://www.w3.org/2000/svg">
<path fill-rule="evenodd" clip-rule="evenodd" d="M7.77618 0.886038C7.91694 0.815656 8.08263 0.815656 8.22339 0.886038L14.8901 4.21937C15.0595 4.30407 15.1665 4.4772 15.1665 4.66658C15.1665 4.85597 15.0595 5.0291 14.8901 5.1138L8.22339 8.44713C8.08263 8.51751 7.91694 8.51751 7.77618 8.44713L1.10951 5.1138C0.940119 5.0291 0.833117 4.85597 0.833117 4.66658C0.833117 4.4772 0.940119 4.30407 1.10951 4.21937L7.77618 0.886038ZM2.45115 4.66659L7.99978 7.4409L13.5484 4.66659L7.99978 1.89227L2.45115 4.66659Z" fill="#0E1011"/>
<path d="M0.885904 11.1096C1.0094 10.8627 1.30973 10.7625 1.55672 10.886L7.99978 14.1076L14.4428 10.886C14.6898 10.7625 14.9902 10.8627 15.1137 11.1096C15.2372 11.3566 15.137 11.657 14.8901 11.7805L8.22339 15.1138C8.08263 15.1842 7.91694 15.1842 7.77618 15.1138L1.10951 11.7805C0.862521 11.657 0.762409 11.3566 0.885904 11.1096Z" fill="#0E1011"/>
<path d="M1.55672 7.55273C1.30973 7.42923 1.0094 7.52934 0.885904 7.77633C0.762409 8.02332 0.862521 8.32366 1.10951 8.44715L7.77618 11.7805C7.91694 11.8509 8.08263 11.8509 8.22339 11.7805L14.8901 8.44715C15.137 8.32366 15.2372 8.02332 15.1137 7.77633C14.9902 7.52934 14.6898 7.42923 14.4428 7.55273L7.99978 10.7743L1.55672 7.55273Z" fill="#0E1011"/>
</svg>
