<svg viewBox="0 0 12 12" fill="none" xmlns="http://www.w3.org/2000/svg">
<path fill-rule="evenodd" clip-rule="evenodd" d="M0.125 3.5C0.125 3.29289 0.292893 3.125 0.5 3.125H11.5C11.7071 3.125 11.875 3.29289 11.875 3.5C11.875 3.70711 11.7071 3.875 11.5 3.875H0.5C0.292893 3.875 0.125 3.70711 0.125 3.5ZM0.125 6.5C0.125 6.29289 0.292893 6.125 0.5 6.125H11.5C11.7071 6.125 11.875 6.29289 11.875 6.5C11.875 6.70711 11.7071 6.875 11.5 6.875H0.5C0.292893 6.875 0.125 6.70711 0.125 6.5ZM0.125 9.5C0.125 9.29289 0.292893 9.125 0.5 9.125H7.5C7.70711 9.125 7.875 9.29289 7.875 9.5C7.875 9.70711 7.70711 9.875 7.5 9.875H0.5C0.292893 9.875 0.125 9.70711 0.125 9.5Z" fill="#0E1011"/>
</svg>
