<svg viewBox="0 0 16 16" fill="none" xmlns="http://www.w3.org/2000/svg">
<path fill-rule="evenodd" clip-rule="evenodd" d="M10 1.5C10 1.22386 10.2239 1 10.5 1H15V5.5C15 5.77614 14.7761 6 14.5 6C14.2239 6 14 5.77614 14 5.5V2.70711L9.85355 6.85355C9.65829 7.04882 9.34171 7.04882 9.14645 6.85355C8.95118 6.65829 8.95118 6.34171 9.14645 6.14645L13.2929 2H10.5C10.2239 2 10 1.77614 10 1.5ZM6.85355 9.14645C7.04882 9.34171 7.04882 9.65829 6.85355 9.85355L2.70711 14H5.5C5.77614 14 6 14.2239 6 14.5C6 14.7761 5.77614 15 5.5 15H1V10.5C1 10.2239 1.22386 10 1.5 10C1.77614 10 2 10.2239 2 10.5V13.2929L6.14645 9.14645C6.34171 8.95118 6.65829 8.95118 6.85355 9.14645Z" fill="#0E1011"/>
</svg>
