<svg viewBox="0 0 16 16" fill="none" xmlns="http://www.w3.org/2000/svg">
<path d="M14.2803 10C14.2803 11.7259 12.8812 13.125 11.1553 13.125H9.6553C9.44819 13.125 9.2803 13.2929 9.2803 13.5C9.2803 13.7071 9.44819 13.875 9.6553 13.875H11.1553C13.2954 13.875 15.0303 12.1401 15.0303 10C15.0303 7.8599 13.2954 6.125 11.1553 6.125H2.53236L5.27113 3.25908C5.41422 3.10935 5.40884 2.87198 5.25911 2.72889C5.10938 2.5858 4.872 2.59119 4.72891 2.74092L1.1366 6.5L4.72891 10.2591C4.872 10.4088 5.10938 10.4142 5.25911 10.2711C5.40884 10.128 5.41422 9.89065 5.27113 9.74092L2.53236 6.875H11.1553C12.8812 6.875 14.2803 8.27411 14.2803 10Z" fill="#0E1011"/>
</svg>
