<svg height="18" viewBox="0 0 16 18" fill="none" xmlns="http://www.w3.org/2000/svg">
<path d="M8 0.973389L13.9707 2.94661C14.5851 3.14965 15 3.72378 15 4.37084V7.37806C15 8.9705 14.601 10.5096 13.8706 11.8706L4.22197 2.22197L8 0.973389Z" fill="#0E1011"/>
<path d="M12.3026 14.0097L14.8964 16.6036C15.0917 16.7988 15.4083 16.7988 15.6036 16.6036C15.7988 16.4083 15.7988 16.0917 15.6036 15.8964L1.10355 1.39645C0.908291 1.20118 0.591709 1.20118 0.396447 1.39645C0.201184 1.59171 0.201184 1.90829 0.396447 2.10355L1.52432 3.23143C1.19855 3.51054 1 3.92324 1 4.37085V7.37806C1 10.5811 2.61409 13.5685 5.2932 15.3241L8 17.0978L10.7068 15.3241C11.2913 14.9411 11.8251 14.4994 12.3026 14.0097Z" fill="#0E1011"/>
</svg>
