<svg viewBox="0 0 16 16" fill="none" xmlns="http://www.w3.org/2000/svg">
<path fill-rule="evenodd" clip-rule="evenodd" d="M0 7.5C0 5.567 1.567 4 3.5 4C5.433 4 7 5.567 7 7.5C7 8.47934 6.59777 9.36474 5.94949 10H10.0505C9.40223 9.36474 9 8.47934 9 7.5C9 5.567 10.567 4 12.5 4C14.433 4 16 5.567 16 7.5C16 9.433 14.433 11 12.5 11C12.4391 11 12.3785 10.9984 12.3183 10.9954C12.296 10.9984 12.2732 11 12.25 11H3.75C3.72681 11 3.704 10.9984 3.68165 10.9954C3.62149 10.9984 3.56093 11 3.5 11C1.567 11 0 9.433 0 7.5ZM3.5 5C2.11929 5 1 6.11929 1 7.5C1 8.88071 2.11929 10 3.5 10C4.88071 10 6 8.88071 6 7.5C6 6.11929 4.88071 5 3.5 5ZM10 7.5C10 6.11929 11.1193 5 12.5 5C13.8807 5 15 6.11929 15 7.5C15 8.88071 13.8807 10 12.5 10C11.1193 10 10 8.88071 10 7.5Z" fill="#0E1011"/>
</svg>
