<svg viewBox="0 0 12 12" fill="none" xmlns="http://www.w3.org/2000/svg">
<path fill-rule="evenodd" clip-rule="evenodd" d="M6.75 1.82812C6.75 1.6686 6.89394 1.5 7.125 1.5C7.35606 1.5 7.5 1.6686 7.5 1.82812V4.17188C7.5 4.3314 7.35606 4.5 7.125 4.5C6.89394 4.5 6.75 4.3314 6.75 4.17188V1.82812ZM7.125 0.75C6.52606 0.75 6 1.20953 6 1.82812V4.17188C6 4.79047 6.52606 5.25 7.125 5.25C7.72394 5.25 8.25 4.79047 8.25 4.17188V1.82812C8.25 1.20953 7.72394 0.75 7.125 0.75ZM9.75 4.125C9.75 3.91711 9.91711 3.75 10.125 3.75C10.3329 3.75 10.5 3.91711 10.5 4.125C10.5 4.33289 10.3329 4.5 10.125 4.5H9.75V4.125ZM10.125 3C9.50289 3 9 3.50289 9 4.125V4.875C9 5.08211 9.16789 5.25 9.375 5.25H10.125C10.7471 5.25 11.25 4.74711 11.25 4.125C11.25 3.50289 10.7471 3 10.125 3ZM4.875 7.5C4.64394 7.5 4.5 7.6686 4.5 7.82812V10.1719C4.5 10.3314 4.64394 10.5 4.875 10.5C5.10606 10.5 5.25 10.3314 5.25 10.1719V7.82812C5.25 7.6686 5.10606 7.5 4.875 7.5ZM3.75 7.82812C3.75 7.20953 4.27606 6.75 4.875 6.75C5.47394 6.75 6 7.20953 6 7.82812V10.1719C6 10.7905 5.47394 11.25 4.875 11.25C4.27606 11.25 3.75 10.7905 3.75 10.1719V7.82812ZM1.5 7.875C1.5 7.66711 1.66711 7.5 1.875 7.5H2.25V7.875C2.25 8.08289 2.08289 8.25 1.875 8.25C1.66711 8.25 1.5 8.08289 1.5 7.875ZM1.875 6.75C1.25289 6.75 0.75 7.25289 0.75 7.875C0.75 8.49711 1.25289 9 1.875 9C2.49711 9 3 8.49711 3 7.875V7.125C3 6.91789 2.83211 6.75 2.625 6.75H1.875ZM7.82812 6.75C7.6686 6.75 7.5 6.89394 7.5 7.125C7.5 7.35606 7.6686 7.5 7.82812 7.5H10.1719C10.3314 7.5 10.5 7.35606 10.5 7.125C10.5 6.89394 10.3314 6.75 10.1719 6.75H7.82812ZM6.75 7.125C6.75 6.52606 7.20953 6 7.82812 6H10.1719C10.7905 6 11.25 6.52606 11.25 7.125C11.25 7.72394 10.7905 8.25 10.1719 8.25H7.82812C7.20953 8.25 6.75 7.72394 6.75 7.125ZM7.125 9C6.91789 9 6.75 9.16789 6.75 9.375V10.125C6.75 10.7471 7.25289 11.25 7.875 11.25C8.49711 11.25 9 10.7471 9 10.125C9 9.50289 8.49711 9 7.875 9H7.125ZM7.5 10.125V9.75H7.875C8.08289 9.75 8.25 9.91711 8.25 10.125C8.25 10.3329 8.08289 10.5 7.875 10.5C7.66711 10.5 7.5 10.3329 7.5 10.125ZM0.75 4.875C0.75 4.27606 1.20953 3.75 1.82812 3.75H4.17188C4.79047 3.75 5.25 4.27606 5.25 4.875C5.25 5.47394 4.79047 6 4.17188 6H1.82812C1.20953 6 0.75 5.47394 0.75 4.875ZM1.82812 4.5C1.6686 4.5 1.5 4.64394 1.5 4.875C1.5 5.10606 1.6686 5.25 1.82812 5.25H4.17188C4.3314 5.25 4.5 5.10606 4.5 4.875C4.5 4.64394 4.3314 4.5 4.17188 4.5H1.82812ZM4.125 0.75C3.50289 0.75 3 1.25289 3 1.875C3 2.49711 3.50289 3 4.125 3H4.875C5.08211 3 5.25 2.83211 5.25 2.625V1.875C5.25 1.25289 4.74711 0.75 4.125 0.75ZM3.75 1.875C3.75 1.66711 3.91711 1.5 4.125 1.5C4.33289 1.5 4.5 1.66711 4.5 1.875V2.25H4.125C3.91711 2.25 3.75 2.08289 3.75 1.875Z" fill="#0E1011"/>
<path d="M1.82812 4.5C1.6686 4.5 1.5 4.64394 1.5 4.875C1.5 5.10606 1.6686 5.25 1.82812 5.25H4.17188C4.3314 5.25 4.5 5.10606 4.5 4.875C4.5 4.64394 4.3314 4.5 4.17188 4.5H1.82812Z" fill="#0E1011"/>
<path d="M6.75 1.82812C6.75 1.6686 6.89394 1.5 7.125 1.5C7.35606 1.5 7.5 1.6686 7.5 1.82812V4.17188C7.5 4.3314 7.35606 4.5 7.125 4.5C6.89394 4.5 6.75 4.3314 6.75 4.17188V1.82812Z" fill="#0E1011"/>
<path d="M3.75 1.875C3.75 1.66711 3.91711 1.5 4.125 1.5C4.33289 1.5 4.5 1.66711 4.5 1.875V2.25H4.125C3.91711 2.25 3.75 2.08289 3.75 1.875Z" fill="#0E1011"/>
<path d="M1.5 7.875C1.5 7.66711 1.66711 7.5 1.875 7.5H2.25V7.875C2.25 8.08289 2.08289 8.25 1.875 8.25C1.66711 8.25 1.5 8.08289 1.5 7.875Z" fill="#0E1011"/>
<path d="M4.875 7.5C4.64394 7.5 4.5 7.6686 4.5 7.82812V10.1719C4.5 10.3314 4.64394 10.5 4.875 10.5C5.10606 10.5 5.25 10.3314 5.25 10.1719V7.82812C5.25 7.6686 5.10606 7.5 4.875 7.5Z" fill="#0E1011"/>
<path d="M7.5 10.125V9.75H7.875C8.08289 9.75 8.25 9.91711 8.25 10.125C8.25 10.3329 8.08289 10.5 7.875 10.5C7.66711 10.5 7.5 10.3329 7.5 10.125Z" fill="#0E1011"/>
<path d="M7.82812 6.75C7.6686 6.75 7.5 6.89394 7.5 7.125C7.5 7.35606 7.6686 7.5 7.82812 7.5H10.1719C10.3314 7.5 10.5 7.35606 10.5 7.125C10.5 6.89394 10.3314 6.75 10.1719 6.75H7.82812Z" fill="#0E1011"/>
<path d="M9.75 4.125C9.75 3.91711 9.91711 3.75 10.125 3.75C10.3329 3.75 10.5 3.91711 10.5 4.125C10.5 4.33289 10.3329 4.5 10.125 4.5H9.75V4.125Z" fill="#0E1011"/>
</svg>
