<svg viewBox="0 0 16 16" fill="none" xmlns="http://www.w3.org/2000/svg">
<path fill-rule="evenodd" clip-rule="evenodd" d="M4.25 0.5C3.00736 0.5 2 1.50736 2 2.75V13.25C2 14.4926 3.00736 15.5 4.25 15.5H11.75C12.9926 15.5 14 14.4926 14 13.25V2.75C14 1.50736 12.9926 0.5 11.75 0.5H4.25ZM3 2.75C3 2.05964 3.55964 1.5 4.25 1.5H5V4H3V2.75ZM5 5H3V7.5H5V5ZM3 8.5H5V11H3V8.5ZM3 12H5V14.5H4.25C3.55964 14.5 3 13.9404 3 13.25V12ZM13 2.75C13 2.05964 12.4404 1.5 11.75 1.5H11V4H13V2.75ZM11 5H13V7.5H11V5ZM13 8.5H11V11H13V8.5ZM13 12H11V14.5H11.75C12.4404 14.5 13 13.9404 13 13.25V12Z" fill="#0E1011"/>
</svg>
