<svg viewBox="0 0 12 12" fill="none" xmlns="http://www.w3.org/2000/svg">
<path d="M9.2649 0.109835C9.11846 -0.0366117 8.88102 -0.0366117 8.73458 0.109835C8.58813 0.256282 8.58813 0.493718 8.73458 0.640165L10.3444 2.25H6.74974C6.54263 2.25 6.37474 2.41789 6.37474 2.625C6.37474 2.83211 6.54263 3 6.74974 3H10.3444L8.73458 4.60983C8.58813 4.75628 8.58813 4.99372 8.73458 5.14016C8.88102 5.28661 9.11846 5.28661 9.2649 5.14016L11.7801 2.625L9.2649 0.109835Z" fill="#0E1011"/>
<path d="M11.2497 9.75C11.2497 10.5784 10.5748 11.2613 9.75464 11.1444C8.39079 10.9499 7.11141 10.4934 5.96911 9.8275C4.44012 8.93612 3.15674 7.6695 2.24521 6.15385C1.53961 4.98063 1.05682 3.65819 0.855371 2.24508C0.738456 1.42495 1.42131 0.75 2.24974 0.75H3.74974C4.16395 0.75 4.49535 1.08681 4.54077 1.49852C4.61329 2.15587 4.78021 2.78478 5.02766 3.37141L3.8169 4.58216C3.70052 4.69855 3.67291 4.87767 3.75453 5.0206C4.54567 6.40612 5.70991 7.55108 7.11041 8.31865C7.25269 8.39663 7.42862 8.36799 7.54335 8.25326L8.76761 7.029C9.31412 7.24522 9.8956 7.39215 10.5012 7.45897C10.9129 7.50439 11.2497 7.83579 11.2497 8.25V9.75Z" fill="#0E1011"/>
</svg>
