<svg viewBox="0 0 12 12" fill="none" xmlns="http://www.w3.org/2000/svg">
<path fill-rule="evenodd" clip-rule="evenodd" d="M3.40609 0.109835C3.47641 0.0395088 3.57179 0 3.67125 0H8.32875C8.42821 0 8.52359 0.0395088 8.59391 0.109835L11.8902 3.40609C11.9605 3.47641 12 3.57179 12 3.67125V8.32875C12 8.42821 11.9605 8.52359 11.8902 8.59391L8.59391 11.8902C8.52359 11.9605 8.42821 12 8.32875 12H3.67125C3.57179 12 3.47641 11.9605 3.40609 11.8902L0.109835 8.59391C0.0395088 8.52359 0 8.42821 0 8.32875V3.67125C0 3.57179 0.0395088 3.47641 0.109835 3.40609L3.40609 0.109835ZM3.82658 0.75L0.75 3.82658V8.17342L3.82658 11.25H8.17342L11.25 8.17342V3.82658L8.17342 0.75H3.82658Z" fill="#0E1011"/>
<path d="M4.56904 4.09763C4.43886 3.96746 4.22781 3.96746 4.09763 4.09763C3.96746 4.22781 3.96746 4.43886 4.09763 4.56904L5.5286 6L4.09763 7.43096C3.96746 7.56114 3.96746 7.77219 4.09763 7.90237C4.22781 8.03254 4.43886 8.03254 4.56904 7.90237L6 6.4714L7.43096 7.90237C7.56114 8.03254 7.77219 8.03254 7.90237 7.90237C8.03254 7.77219 8.03254 7.56114 7.90237 7.43096L6.4714 6L7.90237 4.56904C8.03254 4.43886 8.03254 4.22781 7.90237 4.09763C7.77219 3.96746 7.56114 3.96746 7.43096 4.09763L6 5.5286L4.56904 4.09763Z" fill="#0E1011"/>
</svg>
