<svg viewBox="0 0 12 12" fill="none" xmlns="http://www.w3.org/2000/svg">
<path d="M5.99667 12C4.93813 12 4.08 11.1419 4.08 10.0833H4.84667C4.84667 10.7185 5.36154 11.2333 5.99667 11.2333C6.6318 11.2333 7.14667 10.7185 7.14667 10.0833H7.91334C7.91334 11.1419 7.05522 12 5.99667 12Z" fill="#0E1011"/>
<path fill-rule="evenodd" clip-rule="evenodd" d="M5.99667 0.5C3.87958 0.5 2.16334 2.21624 2.16334 4.33333V5.36308C2.16334 6.07474 1.88063 6.75726 1.37741 7.26048L0.966832 7.67106C0.751165 7.88672 0.630005 8.17923 0.630005 8.48423V8.93333C0.630005 9.35675 0.973253 9.7 1.39667 9.7H10.5967C11.0201 9.7 11.3633 9.35675 11.3633 8.93333V8.48423C11.3633 8.17923 11.2422 7.88672 11.0265 7.67106L10.6159 7.26048C10.1127 6.75726 9.83 6.07474 9.83 5.36308V4.33333C9.83 2.21624 8.11376 0.5 5.99667 0.5ZM4.91244 3.2491C5.2 2.96155 5.59001 2.8 5.99667 2.8C6.20838 2.8 6.38 2.62838 6.38 2.41667C6.38 2.20496 6.20838 2.03333 5.99667 2.03333C5.38667 2.03333 4.80166 2.27565 4.37033 2.70699C3.93899 3.13832 3.69667 3.72334 3.69667 4.33333C3.69667 4.54504 3.8683 4.71667 4.08 4.71667C4.29171 4.71667 4.46334 4.54504 4.46334 4.33333C4.46334 3.92667 4.62489 3.53666 4.91244 3.2491Z" fill="#0E1011"/>
</svg>
