<svg viewBox="0 0 12 12" fill="none" xmlns="http://www.w3.org/2000/svg">
<path fill-rule="evenodd" clip-rule="evenodd" d="M9 3C9 4.65685 7.65685 6 6 6C4.34315 6 3 4.65685 3 3C3 1.34315 4.34315 0 6 0C7.65685 0 9 1.34315 9 3ZM3.12625 6.75H4.12498L5.16145 7.26824C5.68931 7.53217 6.31064 7.53217 6.8385 7.26824L7.87498 6.75H8.87389C9.80698 6.75 10.5981 7.43612 10.73 8.35983L10.8898 9.47796C9.80203 11.0045 8.01729 12 6.00004 12C3.98282 12 2.1981 11.0045 1.11035 9.47802L1.27009 8.35983C1.40205 7.43612 2.19315 6.75 3.12625 6.75Z" fill="#0E1011"/>
</svg>
