<svg viewBox="0 0 12 12" fill="none" xmlns="http://www.w3.org/2000/svg">
<path fill-rule="evenodd" clip-rule="evenodd" d="M1.375 2C1.375 0.964466 2.21447 0.125 3.25 0.125H3.5C4.53553 0.125 5.375 0.964466 5.375 2C5.375 2.90711 4.73084 3.66377 3.875 3.83749V7.04257L6.81869 6.45384C7.57825 6.30192 8.125 5.635 8.125 4.86039V3.83749C7.26916 3.66377 6.625 2.90711 6.625 2C6.625 0.964466 7.46447 0.125 8.5 0.125H8.75C9.78553 0.125 10.625 0.964466 10.625 2C10.625 2.99353 9.85225 3.80658 8.875 3.8709V4.86039C8.875 5.99251 8.07591 6.96725 6.96578 7.18927L3.875 7.80743V9.17676C4.45213 9.33999 4.875 9.87061 4.875 10.5C4.875 11.2594 4.25939 11.875 3.5 11.875C2.74061 11.875 2.125 11.2594 2.125 10.5C2.125 9.87061 2.54787 9.33999 3.125 9.17676V3.8709C2.14775 3.80658 1.375 2.99353 1.375 2ZM3.5 9.875C3.15482 9.875 2.875 10.1548 2.875 10.5C2.875 10.8452 3.15482 11.125 3.5 11.125C3.84518 11.125 4.125 10.8452 4.125 10.5C4.125 10.1548 3.84518 9.875 3.5 9.875ZM8.75 3.125H8.5C7.87868 3.125 7.375 2.62132 7.375 2C7.375 1.37868 7.87868 0.875 8.5 0.875H8.75C9.37132 0.875 9.875 1.37868 9.875 2C9.875 2.62132 9.37132 3.125 8.75 3.125ZM4.625 2C4.625 2.62132 4.12132 3.125 3.5 3.125H3.25C2.62868 3.125 2.125 2.62132 2.125 2C2.125 1.37868 2.62868 0.875 3.25 0.875H3.5C4.12132 0.875 4.625 1.37868 4.625 2Z" fill="#0E1011"/>
</svg>
