<svg viewBox="0 0 12 12" fill="none" xmlns="http://www.w3.org/2000/svg">
<path fill-rule="evenodd" clip-rule="evenodd" d="M0.135478 0.135478C0.230435 0.0405221 0.368918 0.00358946 0.498549 0.0386495L8.72291 2.26301C8.85136 2.29776 8.95178 2.39796 8.98679 2.52634L9.99997 6.24134C10.2797 6.20392 10.573 6.29267 10.7879 6.50761L11.4924 7.21211C11.8585 7.57823 11.8585 8.17182 11.4924 8.53794L8.53791 11.4924C8.1718 11.8586 7.5782 11.8586 7.21209 11.4924L6.50758 10.7879C6.29264 10.573 6.20389 10.2797 6.24132 9.99998L2.52633 8.9868C2.39796 8.95178 2.29775 8.85136 2.26301 8.72291L0.0386494 0.498548C0.00358946 0.368917 0.0405222 0.230434 0.135478 0.135478ZM6.63872 9.33096L9.33096 6.63872L8.31974 2.93092L1.47837 1.0806L4.47155 4.07379C5.08662 3.64631 5.93803 3.70671 6.48631 4.25499C7.10247 4.87115 7.10247 5.87014 6.48631 6.4863C5.87015 7.10246 4.87116 7.10246 4.255 6.4863C3.70672 5.93802 3.64632 5.08661 4.0738 4.47154L1.08058 1.47831L2.93091 8.31974L6.63872 9.33096ZM7.03791 9.99244C6.96469 10.0657 6.96469 10.1844 7.03791 10.2576L7.74242 10.9621C7.81564 11.0353 7.93436 11.0353 8.00758 10.9621L10.9621 8.00761C11.0353 7.93438 11.0353 7.81567 10.9621 7.74244L10.2576 7.03794C10.1844 6.96471 10.0656 6.96471 9.99242 7.03794L7.03791 9.99244ZM4.65275 4.65274C4.25626 5.04923 4.25626 5.69206 4.65275 6.08855C5.04924 6.48504 5.69207 6.48504 6.08856 6.08855C6.48505 5.69206 6.48505 5.04923 6.08856 4.65274C5.69207 4.25625 5.04924 4.25625 4.65275 4.65274Z" fill="#0E1011"/>
</svg>
