<svg viewBox="0 0 12 12" fill="none" xmlns="http://www.w3.org/2000/svg">
<path fill-rule="evenodd" clip-rule="evenodd" d="M5.76851 1.52856C5.90863 1.5866 6 1.72334 6 1.87501V10.125C6 10.2767 5.90863 10.4134 5.76851 10.4715C5.62838 10.5295 5.46708 10.4974 5.35984 10.3902L3.21967 8.25001H1.5C0.671573 8.25001 0 7.57844 0 6.75001V5.25001C0 4.42158 0.671573 3.75001 1.5 3.75001H3.21967L5.35984 1.60985C5.46708 1.5026 5.62838 1.47051 5.76851 1.52856ZM5.25 2.78034L3.53033 4.50001H1.5C1.08579 4.50001 0.75 4.8358 0.75 5.25001V6.75001C0.75 7.16422 1.08579 7.50001 1.5 7.50001H3.53033L5.25 9.21968V2.78034Z" fill="#0E1011"/>
<path d="M0.75 5.25001C0.75 4.8358 1.08579 4.50001 1.5 4.50001H3.53033L5.25 2.78034V9.21968L3.53033 7.50001H1.5C1.08579 7.50001 0.75 7.16422 0.75 6.75001V5.25001Z" fill="#0E1011"/>
</svg>
