<svg viewBox="0 0 16 16" fill="none" xmlns="http://www.w3.org/2000/svg">
<path fill-rule="evenodd" clip-rule="evenodd" d="M3.50251 0.500006C3.71185 0.501053 3.89837 0.632395 3.96991 0.829129L5.85023 6H10.1498L12.0301 0.829129C12.1017 0.632395 12.2882 0.501053 12.4975 0.500006C12.7068 0.49896 12.8947 0.62843 12.9682 0.824438L15.8409 8.48494C15.9927 8.88996 15.867 9.34672 15.5292 9.61694L8.46853 15.2655C8.19462 15.4846 7.80541 15.4846 7.53149 15.2655L0.470793 9.61694C0.133021 9.34672 0.00727689 8.88996 0.159158 8.48494L3.03185 0.824438C3.10535 0.62843 3.29318 0.49896 3.50251 0.500006ZM3.4928 2.44324L1.09549 8.83607L8.00001 14.3597L14.9045 8.83607L12.5072 2.44324L10.9699 6.67087C10.8981 6.86847 10.7103 7 10.5 7H5.50001C5.28976 7 5.10197 6.86847 5.03012 6.67087L3.4928 2.44324Z" fill="#0E1011"/>
</svg>
