<svg height="14" viewBox="0 0 12 14" fill="none" xmlns="http://www.w3.org/2000/svg">
<path fill-rule="evenodd" clip-rule="evenodd" d="M6 0.97998L10.478 2.45989C10.9388 2.61218 11.25 3.04277 11.25 3.52807V5.78349C11.25 8.18578 10.0394 10.4263 8.0301 11.743L6 13.0733L3.9699 11.743C1.96057 10.4263 0.75 8.18578 0.75 5.78349V3.52807C0.75 3.04278 1.0612 2.61218 1.52198 2.45989L6 0.97998ZM6 1.76988L1.75733 3.17201C1.60373 3.22277 1.5 3.36631 1.5 3.52807V5.78349C1.5 7.93291 2.58314 9.93762 4.38097 11.1157L6 12.1766L7.61903 11.1157C9.41686 9.93762 10.5 7.93291 10.5 5.78349V3.52807C10.5 3.36631 10.3963 3.22277 10.2427 3.17201L6 1.76988Z" fill="#0E1011"/>
<path d="M1.75733 3.17201L6 1.76988L10.2427 3.17201C10.3963 3.22277 10.5 3.36631 10.5 3.52807V5.78349C10.5 7.93291 9.41686 9.93762 7.61903 11.1157L6 12.1766L4.38097 11.1157C2.58314 9.93762 1.5 7.93291 1.5 5.78349V3.52807C1.5 3.36631 1.60373 3.22277 1.75733 3.17201Z" fill="#0E1011"/>
</svg>
