<svg viewBox="0 0 12 12" fill="none" xmlns="http://www.w3.org/2000/svg">
<path d="M6.49988 9.49991C7.05216 9.49991 7.49988 9.05219 7.49988 8.49991C7.49988 7.94762 7.05216 7.49991 6.49988 7.49991C5.94759 7.49991 5.49988 7.94762 5.49988 8.49991C5.49988 9.05219 5.94759 9.49991 6.49988 9.49991Z" fill="#0E1011"/>
<path fill-rule="evenodd" clip-rule="evenodd" d="M9.8499 3.4999V5.19571C10.4258 5.34988 10.8499 5.87537 10.8499 6.4999V10.4999C10.8499 11.2455 10.2455 11.8499 9.4999 11.8499H3.4999C2.75432 11.8499 2.1499 11.2455 2.1499 10.4999V6.4999C2.1499 5.87537 2.57399 5.34988 3.1499 5.19571V3.4999C3.1499 1.64975 4.64975 0.149902 6.4999 0.149902C8.35006 0.149902 9.8499 1.64975 9.8499 3.4999ZM3.8499 3.4999C3.8499 2.03635 5.03635 0.849902 6.4999 0.849902C7.96346 0.849902 9.1499 2.03635 9.1499 3.4999V5.1499H3.8499V3.4999ZM2.8499 6.4999C2.8499 6.14092 3.14092 5.8499 3.4999 5.8499H9.4999C9.85889 5.8499 10.1499 6.14092 10.1499 6.4999V10.4999C10.1499 10.8589 9.85889 11.1499 9.4999 11.1499H3.4999C3.14092 11.1499 2.8499 10.8589 2.8499 10.4999V6.4999Z" fill="#0E1011"/>
</svg>
