<svg viewBox="0 0 16 16" fill="none" xmlns="http://www.w3.org/2000/svg">
<path fill-rule="evenodd" clip-rule="evenodd" d="M3 0.292893C3.18754 0.105357 3.44189 0 3.70711 0H12.2929C12.5581 0 12.8125 0.105357 13 0.292893L15 2.29289V12.5C15 14.433 13.433 16 11.5 16H4.5C2.567 16 1 14.433 1 12.5V2.29289L3 0.292893ZM12.2929 1H3.70711L2.70711 2H13.2929L12.2929 1ZM14 3H12V4.5C12 5.88071 10.8807 7 9.5 7H6.5C5.11929 7 4 5.88071 4 4.5V3H2V12.5C2 13.8807 3.11929 15 4.5 15H11.5C12.8807 15 14 13.8807 14 12.5V3ZM5 3V4.5C5 5.32843 5.67157 6 6.5 6H9.5C10.3284 6 11 5.32843 11 4.5V3H5Z" fill="#0E1011"/>
</svg>
