<svg viewBox="0 0 12 12" fill="none" xmlns="http://www.w3.org/2000/svg">
<path fill-rule="evenodd" clip-rule="evenodd" d="M5 3C5 2.44772 5.44772 2 6 2C6.55228 2 7 2.44772 7 3C7 3.55228 6.55228 4 6 4C5.44772 4 5 3.55228 5 3ZM6 2.5C5.72386 2.5 5.5 2.72386 5.5 3C5.5 3.27614 5.72386 3.5 6 3.5C6.27614 3.5 6.5 3.27614 6.5 3C6.5 2.72386 6.27614 2.5 6 2.5Z" fill="#0E1011"/>
<path fill-rule="evenodd" clip-rule="evenodd" d="M8 8C8 9.10457 7.10457 10 6 10C4.89543 10 4 9.10457 4 8C4 6.89543 4.89543 6 6 6C7.10457 6 8 6.89543 8 8ZM7.5 8C7.5 8.82843 6.82843 9.5 6 9.5C5.17157 9.5 4.5 8.82843 4.5 8C4.5 7.17157 5.17157 6.5 6 6.5C6.82843 6.5 7.5 7.17157 7.5 8Z" fill="#0E1011"/>
<path fill-rule="evenodd" clip-rule="evenodd" d="M3 0C1.89543 0 1 0.895431 1 2V10C1 11.1046 1.89543 12 3 12H9C10.1046 12 11 11.1046 11 10V2C11 0.895431 10.1046 0 9 0H3ZM9 0.75H3C2.30964 0.75 1.75 1.30964 1.75 2V10C1.75 10.6904 2.30964 11.25 3 11.25H9C9.69036 11.25 10.25 10.6904 10.25 10V2C10.25 1.30964 9.69036 0.75 9 0.75Z" fill="#0E1011"/>
</svg>
