<svg viewBox="0 0 16 16" fill="none" xmlns="http://www.w3.org/2000/svg">
<path d="M7.64647 4.64653C7.45121 4.84179 7.45121 5.15838 7.64647 5.35364L9.79292 7.50008L5.00002 7.50009C4.72388 7.50009 4.50002 7.72394 4.50002 8.00009C4.50002 8.27623 4.72388 8.50009 5.00002 8.50009L9.79292 8.50008L7.64647 10.6465C7.45121 10.8418 7.45121 11.1584 7.64647 11.3536C7.84173 11.5489 8.15832 11.5489 8.35358 11.3536L11.3536 8.35364C11.4473 8.25987 11.5 8.13269 11.5 8.00008C11.5 7.86748 11.4473 7.7403 11.3536 7.64653L8.35358 4.64653C8.15831 4.45127 7.84173 4.45127 7.64647 4.64653Z" fill="#0E1011"/>
<path fill-rule="evenodd" clip-rule="evenodd" d="M8.0001 0.705811C3.96871 0.705811 0.700623 3.9739 0.700623 8.00529C0.700623 12.0367 3.96871 15.3048 8.0001 15.3048C12.0315 15.3048 15.2996 12.0367 15.2996 8.00529C15.2996 3.9739 12.0315 0.705811 8.0001 0.705811ZM8.0001 1.70581C4.521 1.70581 1.70062 4.52618 1.70062 8.00529C1.70062 11.4844 4.521 14.3048 8.0001 14.3048C11.4792 14.3048 14.2996 11.4844 14.2996 8.00529C14.2996 4.52618 11.4792 1.70581 8.0001 1.70581Z" fill="#0E1011"/>
</svg>
