<svg viewBox="0 0 12 12" fill="none" xmlns="http://www.w3.org/2000/svg">
<path fill-rule="evenodd" clip-rule="evenodd" d="M4.8979 1.1257C5.06117 1.13569 5.19913 1.25036 5.2388 1.40905L7.20099 9.2578L8.65 5.49039C8.7057 5.34557 8.84484 5.25 9 5.25H11.625C11.8321 5.25 12 5.4179 12 5.625C12 5.83211 11.8321 6 11.625 6H9.25755L7.475 10.6346C7.41628 10.7873 7.26538 10.8843 7.1021 10.8743C6.93883 10.8643 6.80087 10.7496 6.7612 10.591L4.79901 2.74221L3.35 6.50962C3.2943 6.65444 3.15516 6.75 3 6.75H0.375C0.167893 6.75 0 6.58211 0 6.375C0 6.1679 0.167893 6 0.375 6H2.74245L4.525 1.36539C4.58372 1.21271 4.73462 1.11572 4.8979 1.1257Z" fill="#0E1011"/>
</svg>
