<svg viewBox="0 0 12 12" fill="none" xmlns="http://www.w3.org/2000/svg">
<path fill-rule="evenodd" clip-rule="evenodd" d="M2.75 0.75C2.33579 0.75 2 1.08579 2 1.5V10.5C2 10.9142 2.33579 11.25 2.75 11.25H6C6.20711 11.25 6.375 11.4179 6.375 11.625C6.375 11.8321 6.20711 12 6 12H2.75C1.92157 12 1.25 11.3284 1.25 10.5V1.5C1.25 0.671573 1.92157 0 2.75 0H7.53033L10.75 3.21967V5.625C10.75 5.83211 10.5821 6 10.375 6C10.1679 6 10 5.83211 10 5.625V3.75H8.5C7.67157 3.75 7 3.07843 7 2.25V0.75H2.75ZM7.75 1.28033L9.46967 3H8.5C8.08579 3 7.75 2.66421 7.75 2.25V1.28033Z" fill="#0E1011"/>
<path d="M9.875 7.5C9.875 7.29289 9.70711 7.125 9.5 7.125C9.29289 7.125 9.125 7.29289 9.125 7.5V9.125H7.5C7.29289 9.125 7.125 9.29289 7.125 9.5C7.125 9.70711 7.29289 9.875 7.5 9.875H9.125V11.5C9.125 11.7071 9.29289 11.875 9.5 11.875C9.70711 11.875 9.875 11.7071 9.875 11.5V9.875H11.5C11.7071 9.875 11.875 9.70711 11.875 9.5C11.875 9.29289 11.7071 9.125 11.5 9.125H9.875V7.5Z" fill="#0E1011"/>
</svg>
