<svg viewBox="0 0 16 16" fill="none" xmlns="http://www.w3.org/2000/svg">
<path fill-rule="evenodd" clip-rule="evenodd" d="M1 7.5C1 3.91015 3.91015 1 7.5 1H8.5C12.0899 1 15 3.91015 15 7.5V13.2792C15 13.9249 14.5869 14.4981 13.9743 14.7023L13.389 14.8974C13.1851 14.9653 12.9715 15 12.7566 15H12.5C11.6716 15 11 14.3284 11 13.5V10.5C11 9.67157 11.6716 9 12.5 9H12.7566C12.9715 9 13.1851 9.03466 13.389 9.10263L14 9.30629V7.5C14 4.46243 11.5376 2 8.5 2H7.5C4.46243 2 2 4.46243 2 7.5V9.30629L2.61096 9.10263C2.81489 9.03466 3.02845 9 3.24342 9H3.5C4.32843 9 5 9.67157 5 10.5V13.5C5 14.3284 4.32843 15 3.5 15H3.24342C3.02845 15 2.81489 14.9653 2.61096 14.8974L2.02566 14.7023C1.41315 14.4981 1 13.9249 1 13.2792V7.5ZM2 11.25H3.5V10.75H2V11.25ZM12.5 11.25H14V10.75H12.5V11.25ZM2 12.25H3.5V11.75H2V12.25ZM12.5 12.25H14V11.75H12.5V12.25Z" fill="#0E1011"/>
</svg>
