<svg viewBox="0 0 12 12" fill="none" xmlns="http://www.w3.org/2000/svg">
<path d="M6 0C4.34315 0 3 1.34315 3 3V5.25C3 6.90685 4.34315 8.25 6 8.25C7.65685 8.25 9 6.90685 9 5.25V3C9 1.34315 7.65685 0 6 0Z" fill="#0E1011"/>
<path d="M2.25 5.8125C2.25 5.60539 2.08211 5.4375 1.875 5.4375C1.66789 5.4375 1.5 5.60539 1.5 5.8125V6C1.5 8.07107 3.17893 9.75 5.25 9.75H5.625V11.25H4.5C4.29289 11.25 4.125 11.4179 4.125 11.625C4.125 11.8321 4.29289 12 4.5 12H7.5C7.70711 12 7.875 11.8321 7.875 11.625C7.875 11.4179 7.70711 11.25 7.5 11.25H6.375V9.75H6.75C8.82107 9.75 10.5 8.07107 10.5 6V5.8125C10.5 5.60539 10.3321 5.4375 10.125 5.4375C9.91789 5.4375 9.75 5.60539 9.75 5.8125V6C9.75 7.65685 8.40685 9 6.75 9H5.25C3.59315 9 2.25 7.65685 2.25 6V5.8125Z" fill="#0E1011"/>
</svg>
