<svg viewBox="0 0 12 12" fill="none" xmlns="http://www.w3.org/2000/svg">
<path fill-rule="evenodd" clip-rule="evenodd" d="M4.49991 1.875C3.05016 1.875 1.87491 3.05025 1.87491 4.5C1.87491 5.94975 3.05016 7.125 4.49991 7.125C5.94966 7.125 7.12491 5.94975 7.12491 4.5C7.12491 3.05025 5.94966 1.875 4.49991 1.875ZM2.62491 4.5C2.62491 3.46447 3.46437 2.625 4.49991 2.625C5.53544 2.625 6.37491 3.46447 6.37491 4.5C6.37491 5.53553 5.53544 6.375 4.49991 6.375C3.46437 6.375 2.62491 5.53553 2.62491 4.5Z" fill="#0E1011"/>
<path fill-rule="evenodd" clip-rule="evenodd" d="M2.03011 7.5H2.62489L3.80353 7.97146C4.25056 8.15027 4.74923 8.15027 5.19625 7.97146L6.37489 7.5H6.96968C7.91528 7.5 8.71291 8.20413 8.8302 9.14244L8.93609 9.98958C7.83717 11.2231 6.2366 12 4.45458 12C2.71516 12 1.14862 11.2598 0.0527344 10.0773L0.169589 9.14244C0.286877 8.20413 1.0845 7.5 2.03011 7.5ZM4.45458 11.25C3.05487 11.25 1.78386 10.7031 0.842041 9.80951L0.913797 9.23546C0.98417 8.67248 1.46275 8.25 2.03011 8.25H2.48046L3.52499 8.66781C4.15082 8.91815 4.84896 8.91815 5.47479 8.66781L6.51933 8.25H6.96968C7.53704 8.25 8.01562 8.67248 8.08599 9.23546L8.14795 9.73116C7.19868 10.671 5.89466 11.25 4.45458 11.25Z" fill="#0E1011"/>
<path d="M6.7432 0.786511C7.02368 0.679076 7.32501 0.637238 7.62415 0.664198C7.92328 0.691159 8.21229 0.786204 8.46903 0.942059C8.72578 1.09791 8.94346 1.31044 9.10542 1.56338C9.26738 1.81632 9.36932 2.10297 9.40343 2.40137C9.43755 2.69977 9.40294 3.00203 9.30225 3.285C9.20156 3.56797 9.03747 3.82415 8.82252 4.03393C8.60758 4.24371 8.34749 4.40153 8.06216 4.49532C7.9146 4.54382 7.83429 4.70276 7.88279 4.85032C7.93129 4.99789 8.09023 5.07819 8.2378 5.02969C8.60465 4.90911 8.93906 4.7062 9.21541 4.43648C9.49177 4.16676 9.70275 3.83738 9.8322 3.47357C9.96166 3.10975 10.0062 2.72114 9.96229 2.33748C9.91843 1.95381 9.78736 1.58527 9.57913 1.26007C9.3709 0.934857 9.09102 0.661602 8.76092 0.461218C8.43082 0.260834 8.05925 0.138633 7.67464 0.103969C7.29004 0.0693052 6.9026 0.123097 6.54199 0.261228C6.18138 0.399358 5.85715 0.618165 5.59413 0.9009C5.48833 1.01463 5.49476 1.19259 5.60848 1.29839C5.72221 1.40419 5.90017 1.39776 6.00597 1.28403C6.21055 1.06413 6.46272 0.893946 6.7432 0.786511Z" fill="#0E1011"/>
<path d="M9.11406 5.71875L7.98831 6.1286C7.8294 6.18646 7.66144 6.21797 7.49232 6.22274C7.33705 6.22713 7.21474 6.35656 7.21913 6.51183C7.22352 6.6671 7.35295 6.78941 7.50822 6.78502C7.73633 6.77857 7.96398 6.73608 8.18075 6.65716L9.21327 6.28125H9.70823C10.454 6.28125 11.0474 6.78368 11.133 7.40696L11.2109 7.97405C10.7708 8.39962 10.244 8.75211 9.655 9.00773C9.51251 9.06957 9.44713 9.23521 9.50897 9.3777C9.57081 9.52019 9.73645 9.58557 9.87894 9.52373C10.5768 9.22084 11.1988 8.79332 11.7096 8.27138L11.806 8.1729L11.6903 7.33043C11.5611 6.38988 10.694 5.71875 9.70823 5.71875H9.11406Z" fill="#0E1011"/>
</svg>
