<svg viewBox="0 0 16 16" fill="none" xmlns="http://www.w3.org/2000/svg">
<path d="M11 2V14C11 14.5523 11.4477 15 12 15H14C14.5523 15 15 14.5523 15 14V2C15 1.44772 14.5523 1 14 1H12C11.4477 1 11 1.44772 11 2Z" fill="#0E1011"/>
<path d="M6 6.00001V14C6 14.5523 6.44772 15 7 15H9C9.55228 15 10 14.5523 10 14V6.00001C10 5.44772 9.55228 5.00001 9 5.00001H7C6.44772 5.00001 6 5.44772 6 6.00001Z" fill="#0E1011"/>
<path d="M1 10V14C1 14.5523 1.44772 15 2 15H4C4.55228 15 5 14.5523 5 14V10C5 9.44772 4.55228 9.00001 4 9.00001H2C1.44772 9.00001 1 9.44772 1 10Z" fill="#0E1011"/>
</svg>
