<svg viewBox="0 0 12 12" fill="none" xmlns="http://www.w3.org/2000/svg">
<path fill-rule="evenodd" clip-rule="evenodd" d="M2.125 4.125V1.5C2.125 0.740608 2.74061 0.125 3.5 0.125H8.5C9.25939 0.125 9.875 0.740609 9.875 1.5V4.125H10.375C11.2725 4.125 12 4.85254 12 5.75V8.25C12 9.14746 11.2725 9.875 10.375 9.875H9.875V10.875C9.875 11.4963 9.37132 12 8.75 12H3.25C2.62868 12 2.125 11.4963 2.125 10.875V9.875H1.625C0.727537 9.875 0 9.14746 0 8.25V5.75C0 4.85254 0.727538 4.125 1.625 4.125H2.125ZM3.5 0.875C3.15482 0.875 2.875 1.15482 2.875 1.5V4.125H9.125V1.5C9.125 1.15482 8.84518 0.875 8.5 0.875H3.5ZM3.25 7.875C3.04289 7.875 2.875 8.04289 2.875 8.25V10.875C2.875 11.0821 3.04289 11.25 3.25 11.25H8.75C8.95711 11.25 9.125 11.0821 9.125 10.875V8.25C9.125 8.04289 8.95711 7.875 8.75 7.875H3.25ZM8.5 6.125C8.29289 6.125 8.125 6.29289 8.125 6.5C8.125 6.70711 8.29289 6.875 8.5 6.875H9.5C9.70711 6.875 9.875 6.70711 9.875 6.5C9.875 6.29289 9.70711 6.125 9.5 6.125H8.5Z" fill="#0E1011"/>
</svg>
