<svg viewBox="0 0 12 12" fill="none" xmlns="http://www.w3.org/2000/svg">
<path fill-rule="evenodd" clip-rule="evenodd" d="M1.5 1C0.671573 1 0 1.67157 0 2.5V9.5C0 10.3284 0.671573 11 1.5 11H10.5C11.3284 11 12 10.3284 12 9.5V2.5C12 1.67157 11.3284 1 10.5 1H1.5ZM11 5.5H1V3.5H11V5.5ZM1.75 7.5C1.75 7.36193 1.86193 7.25 2 7.25H5.5C5.63807 7.25 5.75 7.36193 5.75 7.5C5.75 7.63807 5.63807 7.75 5.5 7.75H2C1.86193 7.75 1.75 7.63807 1.75 7.5ZM1.75 9C1.75 8.86193 1.86193 8.75 2 8.75H3.5C3.63807 8.75 3.75 8.86193 3.75 9C3.75 9.13807 3.63807 9.25 3.5 9.25H2C1.86193 9.25 1.75 9.13807 1.75 9Z" fill="#0E1011"/>
</svg>
