<svg viewBox="0 0 16 16" fill="none" xmlns="http://www.w3.org/2000/svg">
<path fill-rule="evenodd" clip-rule="evenodd" d="M13.5607 0.849252C12.9749 0.263467 12.0251 0.263464 11.4393 0.849251L1.14645 11.1421C1.05268 11.2359 1 11.3631 1 11.4957V13.4957C1 13.7718 1.22386 13.9957 1.5 13.9957H3.5C3.63261 13.9957 3.75979 13.943 3.85355 13.8493L14.1464 3.55636C14.7322 2.97057 14.7322 2.02083 14.1464 1.43504L13.5607 0.849252ZM12.1464 1.55636C12.3417 1.3611 12.6583 1.3611 12.8536 1.55636L13.4393 2.14215C13.6346 2.33741 13.6346 2.65399 13.4393 2.84925L12 4.28859L10.7071 2.9957L12.1464 1.55636ZM10 3.70281L11.2929 4.9957L3.29289 12.9957H2V11.7028L10 3.70281Z" fill="#0E1011"/>
<path d="M1 14.9957C0.723858 14.9957 0.5 15.2196 0.5 15.4957C0.5 15.7718 0.723858 15.9957 1 15.9957H15C15.2761 15.9957 15.5 15.7718 15.5 15.4957C15.5 15.2196 15.2761 14.9957 15 14.9957H1Z" fill="#0E1011"/>
</svg>
