<svg viewBox="0 0 12 12" fill="none" xmlns="http://www.w3.org/2000/svg">
<path fill-rule="evenodd" clip-rule="evenodd" d="M3.1875 0.375C2.25552 0.375 1.5 1.13052 1.5 2.0625V9.9375C1.5 10.8695 2.25552 11.625 3.1875 11.625H8.8125C9.74448 11.625 10.5 10.8695 10.5 9.9375V2.0625C10.5 1.13052 9.74448 0.375 8.8125 0.375H3.1875ZM2.25 2.0625C2.25 1.54473 2.66973 1.125 3.1875 1.125H3.84375V3.09375H2.25V2.0625ZM2.25 3.65625V5.71875H3.84375V3.65625H2.25ZM2.25 6.28125V8.34375H3.84375V6.28125H2.25ZM2.25 8.90625V9.9375C2.25 10.4553 2.66973 10.875 3.1875 10.875H3.84375V8.90625H2.25ZM4.40625 10.875H7.59375V6.28125H4.40625V10.875ZM8.15625 10.875H8.8125C9.33027 10.875 9.75 10.4553 9.75 9.9375V8.90625H8.15625V10.875ZM9.75 8.34375V6.28125H8.15625V8.34375H9.75ZM9.75 5.71875V3.65625H8.15625V5.71875H9.75ZM9.75 3.09375V2.0625C9.75 1.54473 9.33027 1.125 8.8125 1.125H8.15625V3.09375H9.75ZM7.59375 1.125H4.40625V5.71875H7.59375V1.125Z" fill="#0E1011"/>
</svg>
