<svg viewBox="0 0 12 12" fill="none" xmlns="http://www.w3.org/2000/svg">
<path fill-rule="evenodd" clip-rule="evenodd" d="M4.6875 1C4.58395 1 4.5 1.08395 4.5 1.1875V1.5625C4.5 1.66605 4.58395 1.75 4.6875 1.75H7.3125C7.41605 1.75 7.5 1.66605 7.5 1.5625V1.1875C7.5 1.08395 7.41605 1 7.3125 1H4.6875ZM3.76875 1C3.85562 0.57208 4.23395 0.25 4.6875 0.25H7.3125C7.76605 0.25 8.14438 0.57208 8.23125 1H9.25C10.0784 1 10.75 1.67157 10.75 2.5V10.5C10.75 11.3284 10.0784 12 9.25 12H2.75C1.92157 12 1.25 11.3284 1.25 10.5V2.5C1.25 1.67157 1.92157 1 2.75 1H3.76875ZM3.76875 1.75H2.75C2.33579 1.75 2 2.08579 2 2.5V10.5C2 10.9142 2.33579 11.25 2.75 11.25H9.25C9.66421 11.25 10 10.9142 10 10.5V2.5C10 2.08579 9.66421 1.75 9.25 1.75H8.23125C8.14438 2.17792 7.76605 2.5 7.3125 2.5H4.6875C4.23395 2.5 3.85562 2.17792 3.76875 1.75Z" fill="#0E1011"/>
</svg>
