<svg viewBox="0 0 16 16" fill="none" xmlns="http://www.w3.org/2000/svg">
<path fill-rule="evenodd" clip-rule="evenodd" d="M1.5 3.5C1.5 3.22386 1.72386 3 2 3H14C14.2761 3 14.5 3.22386 14.5 3.5C14.5 3.77614 14.2761 4 14 4H2C1.72386 4 1.5 3.77614 1.5 3.5ZM3.5 6.50001C3.5 6.22387 3.72386 6.00001 4 6.00001H12C12.2761 6.00001 12.5 6.22387 12.5 6.50001C12.5 6.77615 12.2761 7.00001 12 7.00001H4C3.72386 7.00001 3.5 6.77615 3.5 6.50001ZM1.5 9.49999C1.5 9.22385 1.72386 8.99999 2 8.99999H14C14.2761 8.99999 14.5 9.22385 14.5 9.49999C14.5 9.77613 14.2761 9.99999 14 9.99999H2C1.72386 9.99999 1.5 9.77613 1.5 9.49999ZM3.5 12.5C3.5 12.2239 3.72386 12 4 12H12C12.2761 12 12.5 12.2239 12.5 12.5C12.5 12.7761 12.2761 13 12 13H4C3.72386 13 3.5 12.7761 3.5 12.5Z" fill="#0E1011"/>
</svg>
