<svg viewBox="0 0 16 16" fill="none" xmlns="http://www.w3.org/2000/svg">
<path fill-rule="evenodd" clip-rule="evenodd" d="M4.25 0C3.00736 0 2 1.00736 2 2.25V13.75C2 14.9926 3.00736 16 4.25 16H13.5C13.7761 16 14 15.7761 14 15.5C14 15.2239 13.7761 15 13.5 15H13.3634V12.9811C13.4068 12.9934 13.4526 13 13.5 13C13.7761 13 14 12.7761 14 12.5V0H4.25ZM13 12.125V1H4.25C3.55964 1 3 1.55964 3 2.25V12.4999C3.31337 12.2645 3.7029 12.125 4.125 12.125H13ZM3.00651 13.8783C3.07075 14.5084 3.60297 15 4.25 15H12.6134V12.875H4.125C3.5448 12.875 3.06718 13.3142 3.00651 13.8783Z" fill="#0E1011"/>
</svg>
