<svg viewBox="0 0 12 12" fill="none" xmlns="http://www.w3.org/2000/svg">
<path fill-rule="evenodd" clip-rule="evenodd" d="M3.75 4.59375C2.97335 4.59375 2.34375 5.22335 2.34375 6C2.34375 6.77665 2.97335 7.40625 3.75 7.40625C4.52665 7.40625 5.15625 6.77665 5.15625 6C5.15625 5.22335 4.52665 4.59375 3.75 4.59375ZM2.90625 6C2.90625 5.53401 3.28401 5.15625 3.75 5.15625C4.21599 5.15625 4.59375 5.53401 4.59375 6C4.59375 6.46599 4.21599 6.84375 3.75 6.84375C3.28401 6.84375 2.90625 6.46599 2.90625 6Z" fill="#0E1011"/>
<path fill-rule="evenodd" clip-rule="evenodd" d="M3.75 2.25C1.67893 2.25 0 3.92893 0 6C0 8.07107 1.67893 9.75 3.75 9.75H8.25C10.3211 9.75 12 8.07107 12 6C12 3.92893 10.3211 2.25 8.25 2.25H3.75ZM0.75 6C0.75 4.34315 2.09315 3 3.75 3H8.25C9.90685 3 11.25 4.34315 11.25 6C11.25 7.65685 9.90685 9 8.25 9H3.75C2.09315 9 0.75 7.65685 0.75 6Z" fill="#0E1011"/>
</svg>
