<svg viewBox="0 0 16 16" fill="none" xmlns="http://www.w3.org/2000/svg">
<path d="M6.20364 6.2036C5.67499 6.73225 5.67499 7.58936 6.20364 8.11802C6.73229 8.64667 7.58941 8.64667 8.11806 8.11802C8.64671 7.58937 8.64671 6.73225 8.11806 6.2036C7.58941 5.67495 6.73229 5.67495 6.20364 6.2036Z" fill="#0E1011"/>
<path fill-rule="evenodd" clip-rule="evenodd" d="M0.180638 0.180638C0.307246 0.0540294 0.49189 0.00478594 0.664731 0.0515326L11.6305 3.01735C11.8018 3.06367 11.9357 3.19728 11.9824 3.36845L13.3333 8.32177C13.7062 8.27187 14.0973 8.3902 14.3839 8.67679L15.3232 9.61613C15.8114 10.1043 15.8114 10.8957 15.3232 11.3839L11.3839 15.3232C10.8957 15.8114 10.1043 15.8114 9.61613 15.3232L8.67679 14.3839C8.39021 14.0973 8.27187 13.7062 8.32177 13.3333L3.36845 11.9824C3.19728 11.9357 3.06367 11.8018 3.01735 11.6306L0.0515325 0.664731C0.00478595 0.49189 0.0540296 0.307246 0.180638 0.180638ZM0.269015 0.268953C0.415462 0.122507 0.652899 0.122507 0.799345 0.268954L5.96204 5.43167C6.78213 4.86169 7.91735 4.94223 8.64839 5.67327C9.46993 6.49481 9.46993 7.8268 8.64839 8.64835C7.82684 9.46989 6.49485 9.46989 5.67331 8.64835C4.94227 7.9173 4.86173 6.78209 5.43171 5.962L0.269015 0.799284C0.122568 0.652836 0.122568 0.415399 0.269015 0.268953ZM13.0152 8.48481C13.1616 8.63125 13.1616 8.86869 13.0152 9.01514L9.01519 13.0151C8.86875 13.1616 8.63131 13.1616 8.48486 13.0151C8.33842 12.8687 8.33842 12.6313 8.48486 12.4848L12.4849 8.48481C12.6313 8.33836 12.8687 8.33836 13.0152 8.48481Z" fill="#0E1011"/>
</svg>
