<svg viewBox="0 0 16 16" fill="none" xmlns="http://www.w3.org/2000/svg">
<path fill-rule="evenodd" clip-rule="evenodd" d="M15.5607 0.43934C14.9749 -0.146447 14.0251 -0.146447 13.4394 0.43934L11.7929 2.08581L11.7929 2.08579L11.0858 2.7929L11.0858 2.79291L5.43931 8.43934C5.03093 8.84773 4.73545 9.68824 4.59392 10.4987C4.53244 10.8508 4.50002 11.1972 4.5 11.5C4.80285 11.5 5.14924 11.4676 5.50129 11.4061C6.31176 11.2646 7.15225 10.969 7.56064 10.5607L15.5607 2.56066C16.1465 1.97487 16.1465 1.02513 15.5607 0.43934ZM6.14642 9.14645L11.7929 3.50002L12.5 4.20713L6.85353 9.85355C6.7446 9.96248 6.43147 10.1401 5.91152 10.2883C5.8228 10.3136 5.73276 10.3367 5.64243 10.3576C5.66331 10.2672 5.68641 10.1772 5.7117 10.0885C5.85992 9.56847 6.03751 9.25536 6.14642 9.14645ZM12.5 2.79292L13.2071 3.50002L14.8536 1.85355C15.0488 1.65829 15.0488 1.34171 14.8536 1.14645C14.6583 0.951184 14.3417 0.951184 14.1465 1.14645L13.4423 0.442274L14.1465 1.14645L12.5 2.79292ZM1 3.25001C1 2.00737 2.00736 1.00001 3.25 1.00001H8.5C8.77614 1.00001 9 1.22387 9 1.50001C9 1.77615 8.77614 2.00001 8.5 2.00001H3.25C2.55964 2.00001 2 2.55965 2 3.25001V12.75C2 13.4404 2.55964 14 3.25 14H12.75C13.4404 14 14 13.4404 14 12.75V7.5C14 7.22386 14.2239 7 14.5 7C14.7761 7 15 7.22386 15 7.5V12.75C15 13.9926 13.9926 15 12.75 15H3.25C2.00736 15 1 13.9926 1 12.75V3.25001Z" fill="#0E1011"/>
</svg>
