<svg viewBox="0 0 16 16" fill="none" xmlns="http://www.w3.org/2000/svg">
<path fill-rule="evenodd" clip-rule="evenodd" d="M1.28777 1.17987C1.50376 1.06335 1.74796 1 2 1H12.75C13.9926 1 15 2.00736 15 3.25V3.49982C15.6072 3.95592 16 4.68209 16 5.5V12.5C16 13.8807 14.8807 15 13.5 15H2.5C1.11929 15 0 13.8807 0 12.5V3.15C0 2.26923 0.529624 1.51215 1.28777 1.17987ZM2.15 2C2.00187 2 1.86027 2.02801 1.73023 2.07902C1.68056 2.11084 1.63631 2.15159 1.6 2.2C1.35279 2.52962 1.58798 3 2 3H13.5C13.6654 3 13.8271 3.01607 13.9836 3.04673C13.8865 2.45305 13.3711 2 12.75 2H2.15ZM12 10C12.5523 10 13 9.55228 13 9C13 8.44772 12.5523 8 12 8C11.4477 8 11 8.44772 11 9C11 9.55228 11.4477 10 12 10Z" fill="#0E1011"/>
</svg>
