<svg viewBox="0 0 16 16" fill="none" xmlns="http://www.w3.org/2000/svg">
<path fill-rule="evenodd" clip-rule="evenodd" d="M1.80924 2C1.83836 1.99863 1.86765 1.99791 1.8971 1.99787L8.74924 1.98743L8.74926 2H10.5C11.8807 2 12.9999 3.11919 13 4.49982C13.6072 4.95592 14 5.68209 14 6.5V8.5C14 8.77614 13.7761 9 13.5 9C13.2239 9 13 8.77614 13 8.5V6.5C13 5.67157 12.3284 5 11.5 5H1.78078C1.49172 5 1.22546 4.91953 1 4.78167V11.5C1 12.3284 1.67157 13 2.5 13H4.5C4.77614 13 5 13.2239 5 13.5C5 13.7761 4.77614 14 4.5 14H2.5C1.11929 14 0 12.8807 0 11.5V3.89787C0 3.19929 0.377035 2.58867 0.93883 2.25857C1.18095 2.09429 1.47197 2 1.78078 2H1.80924ZM1.47526 3.1042C1.38853 3.17115 1.32376 3.26649 1.29571 3.37873C1.21681 3.6943 1.45549 4 1.78078 4H11.9146C11.7087 3.4174 11.1531 3 10.5 3H1.83758C1.70722 3.00893 1.58449 3.04562 1.47526 3.1042Z" fill="#0E1011"/>
<path d="M9.99995 10C10.5522 10 11 9.55228 11 9C11 8.44771 10.5522 8 9.99995 8C9.44767 8 8.99995 8.44771 8.99995 9C8.99995 9.55228 9.44767 10 9.99995 10Z" fill="#0E1011"/>
<path d="M9.1464 11.1464C9.34166 10.9512 9.65825 10.9512 9.85351 11.1464C10.0488 11.3417 10.0488 11.6583 9.85351 11.8536L8.70706 13H15.5C15.7761 13 16 13.2239 16 13.5C16 13.7761 15.7761 14 15.5 14H8.70706L9.85351 15.1464C10.0488 15.3417 10.0488 15.6583 9.85351 15.8536C9.65825 16.0488 9.34166 16.0488 9.1464 15.8536L6.79285 13.5L9.1464 11.1464Z" fill="#0E1011"/>
</svg>
