<svg viewBox="0 0 16 16" fill="none" xmlns="http://www.w3.org/2000/svg">
<path fill-rule="evenodd" clip-rule="evenodd" d="M15.2943 7.99992C15.2943 12.0313 12.0262 15.2994 7.99479 15.2994C3.9634 15.2994 0.695312 12.0313 0.695312 7.99992C0.695312 3.96853 3.9634 0.700439 7.99479 0.700439C12.0262 0.700439 15.2943 3.96853 15.2943 7.99992ZM7.5 14.2803V13C7.5 12.7239 7.72385 12.5 8 12.5C8.27614 12.5 8.5 12.7239 8.5 13V14.2794C11.5779 14.0352 14.0329 11.5786 14.2747 8.5H13C12.7239 8.5 12.5 8.27614 12.5 8C12.5 7.72385 12.7239 7.5 13 7.5H14.2747C14.033 4.4213 11.578 1.96465 8.5 1.7204V3C8.5 3.27614 8.27614 3.5 8 3.5C7.72385 3.5 7.5 3.27614 7.5 3V1.71959C4.41714 1.95911 1.95685 4.41783 1.71486 7.5H3C3.27614 7.5 3.5 7.72385 3.5 8C3.5 8.27614 3.27614 8.5 3 8.5H1.71487C1.95693 11.5821 4.41719 14.0407 7.5 14.2803Z" fill="#0E1011"/>
</svg>
