<svg viewBox="0 0 16 16" fill="none" xmlns="http://www.w3.org/2000/svg">
<path fill-rule="evenodd" clip-rule="evenodd" d="M0 3C0 1.89543 0.895431 1 2 1H14C15.1046 1 16 1.89543 16 3V5C16 6.10457 15.1046 7 14 7H2C0.895431 7 0 6.10457 0 5V3ZM2 4V3H3V4H2ZM4 4V3H5V4H4Z" fill="#0E1011"/>
<path fill-rule="evenodd" clip-rule="evenodd" d="M0 11C0 9.89543 0.895431 9 2 9H14C15.1046 9 16 9.89543 16 11V13C16 14.1046 15.1046 15 14 15H2C0.895431 15 0 14.1046 0 13V11ZM2 12V11H3V12H2ZM4 12V11H5V12H4Z" fill="#0E1011"/>
</svg>
