<svg viewBox="0 0 12 12" fill="none" xmlns="http://www.w3.org/2000/svg">
<path fill-rule="evenodd" clip-rule="evenodd" d="M5.87143 0.21816C5.95436 0.365324 5.94312 0.54748 5.84271 0.683324C5.28548 1.43719 5.01733 2.36602 5.08705 3.30088C5.15676 4.23574 5.55971 5.11453 6.22259 5.77741C6.88547 6.4403 7.76426 6.84324 8.69912 6.91295C9.63398 6.98267 10.5628 6.71452 11.3167 6.15729C11.4525 6.05688 11.6347 6.04564 11.7818 6.12858C11.929 6.21151 12.0137 6.37316 11.9982 6.54137C11.8931 7.67842 11.4664 8.76202 10.7679 9.66538C10.0695 10.5688 9.12818 11.2545 8.05421 11.6424C6.98024 12.0304 5.81799 12.1044 4.70347 11.8559C3.58896 11.6074 2.56826 11.0466 1.76083 10.2392C0.953393 9.43174 0.39261 8.41104 0.144099 7.29653C-0.104412 6.18201 -0.0303722 5.01977 0.357554 3.94579C0.745481 2.87182 1.43125 1.93054 2.33462 1.23208C3.23798 0.533633 4.32159 0.106903 5.45863 0.00182559C5.62684 -0.0137191 5.78849 0.0709964 5.87143 0.21816ZM4.65613 1.01493C4.00694 1.19191 3.39579 1.49508 2.8589 1.91018C2.08433 2.50905 1.49634 3.31613 1.16372 4.23698C0.831101 5.15783 0.767617 6.15437 0.980697 7.10998C1.19378 8.0656 1.6746 8.94077 2.36692 9.63308C3.05924 10.3254 3.9344 10.8062 4.89002 11.0193C5.84563 11.2324 6.84217 11.1689 7.76302 10.8363C8.68387 10.5037 9.49095 9.91567 10.0898 9.1411C10.5049 8.60421 10.8081 7.99306 10.9851 7.34388C10.2552 7.67981 9.44715 7.82826 8.63537 7.76772C7.49578 7.68274 6.42455 7.19156 5.6165 6.38351C4.80845 5.57546 4.31726 4.50422 4.23228 3.36463C4.17174 2.55286 4.32019 1.74481 4.65613 1.01493Z" fill="#0E1011"/>
</svg>
