<svg viewBox="0 0 16 16" fill="none" xmlns="http://www.w3.org/2000/svg">
<path fill-rule="evenodd" clip-rule="evenodd" d="M4.83372 2.0045C4.9415 2.1671 5.00021 2.35904 5.00021 2.55702V3.99995C5.00021 4.55223 4.55249 4.99995 4.00021 4.99995H2.55728C2.3592 4.99995 2.16718 4.94118 2.00453 4.8333C1.9494 4.79673 1.89765 4.75453 1.85017 4.70705L1.12954 3.98642C1.045 4.31012 1 4.64981 1 5C1 5.0944 1.00327 5.18803 1.0097 5.2808C1.15381 7.35892 2.88526 9 5 9C5.45065 9 5.88389 8.92548 6.28808 8.78808L11.9822 14.4822C12.3138 14.8138 12.7634 15 13.2322 15C14.2085 15 15 14.2085 15 13.2322C15 12.7634 14.8138 12.3138 14.4822 11.9822L8.78808 6.28808C8.92548 5.88389 9 5.45065 9 5C9 2.88545 7.35922 1.15413 5.28136 1.00974C5.18841 1.00328 5.09459 1 5 1C4.64996 1 4.31041 1.04496 3.98683 1.12943L4.70732 1.84991C4.75486 1.89745 4.79712 1.94929 4.83372 2.0045ZM5.95977 2.15681C5.98647 2.28755 6.00021 2.42158 6.00021 2.55702V3.99995C6.00021 5.10452 5.10478 5.99995 4.00021 5.99995H2.55728C2.42171 5.99995 2.28756 5.98618 2.15669 5.95943C2.55686 7.14576 3.67867 8 5 8C5.33975 8 5.66434 7.94391 5.96624 7.84129L6.55527 7.64106L12.6893 13.7751C12.8333 13.9191 13.0286 14 13.2322 14C13.6563 14 14 13.6563 14 13.2322C14 13.0286 13.9191 12.8333 13.7751 12.6893L7.64106 6.55527L7.84129 5.96624C7.94391 5.66434 8 5.33975 8 5C8 3.6788 7.14593 2.55707 5.95977 2.15681Z" fill="#0E1011"/>
</svg>
