<svg viewBox="0 0 16 16" fill="none" xmlns="http://www.w3.org/2000/svg">
<path fill-rule="evenodd" clip-rule="evenodd" d="M9.57642 2.22921C10.2437 1.97451 10.9731 1.9309 11.666 2.10427C12.2491 2.25017 12.7827 2.5438 13.2165 2.95438C13.807 2.7474 14.3663 2.45935 14.8785 2.09812C15.0488 1.97799 15.2757 1.9761 15.448 2.09338C15.6203 2.21066 15.7018 2.42251 15.6525 2.62501C15.4248 3.55971 14.9625 4.41933 14.3112 5.12342C14.3255 5.25007 14.3329 5.37747 14.3333 5.50505L14.3333 5.5067C14.3333 9.515 12.4066 12.4401 9.65158 13.9064C6.90878 15.3663 3.39543 15.3539 0.257169 13.6104C0.0547636 13.498 -0.0439594 13.2613 0.0185649 13.0384C0.0810892 12.8154 0.288502 12.6646 0.519863 12.6738C1.77602 12.7237 3.01836 12.4466 4.12762 11.8763C3.00602 11.2388 2.22162 10.4644 1.69216 9.6284C1.04191 8.60168 0.795184 7.51232 0.750506 6.52941C0.705928 5.54868 0.861772 4.66365 1.02633 4.02735C1.10892 3.70803 1.19452 3.44819 1.26025 3.26639C1.29314 3.17541 1.32114 3.10373 1.34142 3.05367C1.35157 3.02863 1.35979 3.00897 1.36574 2.99499L1.37291 2.97829L1.37514 2.9732L1.3759 2.97147C1.37602 2.9712 1.37642 2.9703 1.83332 3.17337L1.37642 2.9703C1.44957 2.8057 1.60561 2.69317 1.78489 2.67572C1.96417 2.65827 2.13898 2.73861 2.2425 2.88602C2.86866 3.77763 3.7056 4.50055 4.67879 4.99038C5.50663 5.40706 6.41119 5.64408 7.33332 5.68821V5.52993C7.32447 4.81694 7.53444 4.11835 7.93496 3.52835C8.33613 2.9374 8.90911 2.4839 9.57642 2.22921ZM2.01506 4.19975C2.00819 4.22526 2.00133 4.25126 1.99448 4.27773C1.84654 4.84975 1.71072 5.63139 1.74947 6.484C1.78813 7.33442 1.99974 8.24506 2.53698 9.09334C3.07222 9.93845 3.94968 10.752 5.36973 11.3831C5.53563 11.4569 5.64853 11.6147 5.66468 11.7956C5.68082 11.9764 5.59768 12.1518 5.44747 12.2537C4.55033 12.8627 3.54785 13.2853 2.49916 13.5046C4.84522 14.2693 7.24607 14.0539 9.18173 13.0237C11.5932 11.7401 13.3331 9.16545 13.3333 5.50752C13.3328 5.35305 13.3179 5.19897 13.2889 5.04725C13.2575 4.88332 13.3101 4.71456 13.4289 4.59737C13.7167 4.31352 13.9649 3.99475 14.1683 3.64987C13.8599 3.7888 13.5424 3.90765 13.2175 4.00547C13.0292 4.06217 12.8251 4.00322 12.696 3.85482C12.3618 3.47045 11.9175 3.19802 11.4233 3.07437C10.9291 2.95072 10.4089 2.98182 9.933 3.16347C9.45709 3.34512 9.04844 3.66855 8.76233 4.09001C8.47622 4.51148 8.32645 5.01064 8.33328 5.52L8.33337 5.5267L8.33332 6.19337C8.33332 6.46446 8.11729 6.68617 7.84628 6.6932C6.59228 6.72572 5.3497 6.4476 4.2292 5.88362C3.39153 5.46199 2.64153 4.89038 2.01506 4.19975Z" fill="#0E1011"/>
<path d="M1.99448 4.27773C2.00133 4.25126 2.00819 4.22526 2.01506 4.19975C2.64153 4.89038 3.39153 5.46199 4.2292 5.88362C5.3497 6.4476 6.59228 6.72572 7.84628 6.6932C8.11729 6.68617 8.33332 6.46446 8.33332 6.19337L8.33337 5.5267L8.33328 5.52C8.32645 5.01064 8.47622 4.51148 8.76233 4.09001C9.04844 3.66855 9.45709 3.34512 9.933 3.16347C10.4089 2.98182 10.9291 2.95072 11.4233 3.07437C11.9175 3.19802 12.3618 3.47045 12.696 3.85482C12.8251 4.00322 13.0292 4.06217 13.2175 4.00547C13.5424 3.90765 13.8599 3.7888 14.1683 3.64987C13.9649 3.99475 13.7167 4.31352 13.4289 4.59737C13.3101 4.71456 13.2575 4.88332 13.2889 5.04725C13.3179 5.19897 13.3328 5.35305 13.3333 5.50752C13.3331 9.16545 11.5932 11.7401 9.18173 13.0237C7.24607 14.0539 4.84522 14.2693 2.49916 13.5046C3.54785 13.2853 4.55033 12.8627 5.44747 12.2537C5.59768 12.1518 5.68082 11.9764 5.66468 11.7956C5.64853 11.6147 5.53563 11.4569 5.36973 11.3831C3.94968 10.752 3.07222 9.93845 2.53698 9.09334C1.99974 8.24506 1.78813 7.33442 1.74947 6.484C1.71072 5.63139 1.84654 4.84975 1.99448 4.27773Z" fill="#0E1011"/>
</svg>
