<svg viewBox="0 0 12 12" fill="none" xmlns="http://www.w3.org/2000/svg">
<path fill-rule="evenodd" clip-rule="evenodd" d="M9 3C9 4.65685 7.65685 6 6 6C4.34315 6 3 4.65685 3 3C3 1.34315 4.34315 0 6 0C7.65685 0 9 1.34315 9 3ZM8.25 3C8.25 4.24264 7.24264 5.25 6 5.25C4.75736 5.25 3.75 4.24264 3.75 3C3.75 1.75736 4.75736 0.75 6 0.75C7.24264 0.75 8.25 1.75736 8.25 3Z" fill="#0E1011"/>
<path d="M6 6.75V7.5H3.12625C2.56639 7.5 2.09173 7.91167 2.01255 8.4659L1.89689 9.27553C2.85995 10.4803 4.3401 11.25 6 11.25V12C3.98279 12 2.19809 11.0045 1.11035 9.47802L1.27009 8.35983C1.40205 7.43612 2.19315 6.75 3.12625 6.75H6Z" fill="#0E1011"/>
<path d="M7.76517 7.23483C7.61872 7.08839 7.38128 7.08839 7.23483 7.23483C7.08839 7.38128 7.08839 7.61872 7.23483 7.76517L8.84467 9.375L7.23483 10.9848C7.08839 11.1313 7.08839 11.3687 7.23483 11.5152C7.38128 11.6616 7.61872 11.6616 7.76517 11.5152L9.375 9.90533L10.9848 11.5152C11.1313 11.6616 11.3687 11.6616 11.5152 11.5152C11.6616 11.3687 11.6616 11.1313 11.5152 10.9848L9.90533 9.375L11.5152 7.76517C11.6616 7.61872 11.6616 7.38128 11.5152 7.23483C11.3687 7.08839 11.1313 7.08839 10.9848 7.23483L9.375 8.84467L7.76517 7.23483Z" fill="#0E1011"/>
</svg>
