<svg viewBox="0 0 12 12" fill="none" xmlns="http://www.w3.org/2000/svg">
<path fill-rule="evenodd" clip-rule="evenodd" d="M12 6C12 9.31371 9.31371 12 6 12C2.68629 12 0 9.31371 0 6C0 2.68629 2.68629 0 6 0C9.31371 0 12 2.68629 12 6ZM3.75 4.5C3.75 4.08579 4.08579 3.75 4.5 3.75C4.91421 3.75 5.25 4.08579 5.25 4.5C5.25 4.91421 4.91421 5.25 4.5 5.25C4.08579 5.25 3.75 4.91421 3.75 4.5ZM6.75 4.5C6.75 4.08579 7.08579 3.75 7.5 3.75C7.91421 3.75 8.25 4.08579 8.25 4.5C8.25 4.91421 7.91421 5.25 7.5 5.25C7.08579 5.25 6.75 4.91421 6.75 4.5ZM3.75 7.875C3.75 7.66789 3.91789 7.5 4.125 7.5H7.875C8.08211 7.5 8.25 7.66789 8.25 7.875C8.25 8.08211 8.08211 8.25 7.875 8.25H4.125C3.91789 8.25 3.75 8.08211 3.75 7.875Z" fill="#0E1011"/>
</svg>
