<svg viewBox="0 0 16 16" fill="none" xmlns="http://www.w3.org/2000/svg">
<path d="M3.42705 3C2.66951 3 1.97698 3.428 1.6382 4.10557L0.369505 6.64296C0.3182 6.74557 0.272088 6.8504 0.231263 6.95706C0.666436 6.66824 1.18857 6.5 1.75 6.5H14.25C14.8114 6.5 15.3336 6.66824 15.7687 6.95706C15.7279 6.8504 15.6818 6.74557 15.6305 6.64296L14.3618 4.10557C14.023 3.428 13.3305 3 12.5729 3H3.42705Z" fill="#0E1011"/>
<path fill-rule="evenodd" clip-rule="evenodd" d="M16 9.25C16 8.2835 15.2165 7.5 14.25 7.5H1.75C0.783502 7.5 0 8.2835 0 9.25V11C0 12.1046 0.895431 13 2 13H14C15.1046 13 16 12.1046 16 11V9.25ZM11 9.5C11 9.22386 11.2239 9 11.5 9H13.5C13.7761 9 14 9.22386 14 9.5C14 9.77614 13.7761 10 13.5 10H11.5C11.2239 10 11 9.77614 11 9.5Z" fill="#0E1011"/>
</svg>
