<svg viewBox="0 0 16 16" fill="none" xmlns="http://www.w3.org/2000/svg">
<path d="M4.51562 4.52944C5.5345 3.50704 6.94309 2.875 8.5 2.875C8.70711 2.875 8.875 2.70711 8.875 2.5C8.875 2.29289 8.70711 2.125 8.5 2.125C6.73571 2.125 5.13822 2.84219 3.98438 4.00002C3.83818 4.14672 3.83859 4.38416 3.98529 4.53035C4.13199 4.67655 4.36943 4.67614 4.51562 4.52944Z" fill="#0E1011"/>
<path fill-rule="evenodd" clip-rule="evenodd" d="M15.233 9H8V12.5C8 13.3284 8.67157 14 9.5 14C10.3284 14 11 13.3284 11 12.5V12.25C11 11.9739 11.2239 11.75 11.5 11.75C11.7761 11.75 12 11.9739 12 12.25V12.5C12 13.8807 10.8807 15 9.5 15C8.11929 15 7 13.8807 7 12.5V9H0.766972C0.504017 9 0.285997 8.79632 0.268128 8.53398C0.256105 8.35747 0.25 8.17941 0.25 8C0.25 3.71979 3.71979 0.25 8 0.25C12.2802 0.25 15.75 3.71979 15.75 8C15.75 8.17941 15.7439 8.35747 15.7319 8.53398C15.714 8.79632 15.496 9 15.233 9ZM8 1.25C4.27208 1.25 1.25 4.27208 1.25 8H14.75C14.75 4.27208 11.7279 1.25 8 1.25Z" fill="#0E1011"/>
</svg>
