<svg viewBox="0 0 16 16" fill="none" xmlns="http://www.w3.org/2000/svg">
<path fill-rule="evenodd" clip-rule="evenodd" d="M1 3.75C1 2.23122 2.23122 1 3.75 1C5.26878 1 6.5 2.23122 6.5 3.75V5.5H9.5V3.75C9.5 2.23122 10.7312 1 12.25 1C13.7688 1 15 2.23122 15 3.75C15 5.26878 13.7688 6.5 12.25 6.5H10.5V9.5H12.25C13.7688 9.5 15 10.7312 15 12.25C15 13.7688 13.7688 15 12.25 15C10.7312 15 9.5 13.7688 9.5 12.25V10.5H6.5V12.25C6.5 13.7688 5.26878 15 3.75 15C2.23122 15 1 13.7688 1 12.25C1 10.7312 2.23122 9.5 3.75 9.5H5.5V6.5H3.75C2.23122 6.5 1 5.26878 1 3.75ZM5.5 5.5V3.75C5.5 2.7835 4.7165 2 3.75 2C2.7835 2 2 2.7835 2 3.75C2 4.7165 2.7835 5.5 3.75 5.5H5.5ZM6.5 6.5V9.5H9.5V6.5H6.5ZM5.5 10.5H3.75C2.7835 10.5 2 11.2835 2 12.25C2 13.2165 2.7835 14 3.75 14C4.7165 14 5.5 13.2165 5.5 12.25V10.5ZM10.5 10.5V12.25C10.5 13.2165 11.2835 14 12.25 14C13.2165 14 14 13.2165 14 12.25C14 11.2835 13.2165 10.5 12.25 10.5H10.5ZM10.5 5.5H12.25C13.2165 5.5 14 4.7165 14 3.75C14 2.7835 13.2165 2 12.25 2C11.2835 2 10.5 2.7835 10.5 3.75V5.5Z" fill="#0E1011"/>
</svg>
