<svg viewBox="0 0 12 12" fill="none" xmlns="http://www.w3.org/2000/svg">
<path fill-rule="evenodd" clip-rule="evenodd" d="M1.5 1.5C1.5 0.671573 2.17157 0 3 0H7.28033L10.5 3.21967V6.19204C10.1481 6.06767 9.76946 6 9.375 6C7.51104 6 6 7.51104 6 9.375C6 10.4352 6.48888 11.3813 7.2535 12H3C2.17157 12 1.5 11.3284 1.5 10.5V1.5ZM7.5 1.5C7.5 1.29289 7.33211 1.125 7.125 1.125C6.91789 1.125 6.75 1.29289 6.75 1.5V2.625C6.75 3.24632 7.25368 3.75 7.875 3.75H9C9.20711 3.75 9.375 3.58211 9.375 3.375C9.375 3.16789 9.20711 3 9 3H7.875C7.66789 3 7.5 2.83211 7.5 2.625V1.5Z" fill="#0E1011"/>
<path fill-rule="evenodd" clip-rule="evenodd" d="M12 9.375C12 10.8247 10.8247 12 9.375 12C7.92525 12 6.75 10.8247 6.75 9.375C6.75 7.92525 7.92525 6.75 9.375 6.75C10.8247 6.75 12 7.92525 12 9.375ZM9.375 7.5C9.58211 7.5 9.75 7.66789 9.75 7.875V9H10.875C11.0821 9 11.25 9.16789 11.25 9.375C11.25 9.58211 11.0821 9.75 10.875 9.75H9.75V11.0625C9.75 11.2696 9.58211 11.4375 9.375 11.4375C9.16789 11.4375 9 11.2696 9 11.0625V9.75H7.875C7.66789 9.75 7.5 9.58211 7.5 9.375C7.5 9.16789 7.66789 9 7.875 9H9V7.875C9 7.66789 9.16789 7.5 9.375 7.5Z" fill="#0E1011"/>
</svg>
