<svg viewBox="0 0 16 16" fill="none" xmlns="http://www.w3.org/2000/svg">
<path fill-rule="evenodd" clip-rule="evenodd" d="M10.1464 13.8536C9.95118 13.6583 9.95118 13.3417 10.1464 13.1464L13.2929 10H6C3.79086 10 2 8.20914 2 6V1.5C2 1.22386 2.22386 1 2.5 1C2.77614 1 3 1.22386 3 1.5V6C3 7.65685 4.34315 9 6 9H13.2929L10.1464 5.85355C9.95118 5.65829 9.95118 5.34171 10.1464 5.14645C10.3417 4.95118 10.6583 4.95118 10.8536 5.14645L15.2071 9.5L10.8536 13.8536C10.6583 14.0488 10.3417 14.0488 10.1464 13.8536Z" fill="#0E1011"/>
</svg>
