<svg viewBox="0 0 12 12" fill="none" xmlns="http://www.w3.org/2000/svg">
<path fill-rule="evenodd" clip-rule="evenodd" d="M4.93202 0.754413C5.13672 0.785905 5.27713 0.977376 5.24564 1.18207L4.85057 3.75005H8.59174L9.00436 1.06803C9.03585 0.863333 9.22732 0.722921 9.43202 0.754413C9.63672 0.785905 9.77713 0.977376 9.74564 1.18207L9.35057 3.75005H11.25C11.4571 3.75005 11.625 3.91795 11.625 4.12505C11.625 4.33216 11.4571 4.50005 11.25 4.50005H9.23518L8.77364 7.50005H10.5C10.7071 7.50005 10.875 7.66795 10.875 7.87505C10.875 8.08216 10.7071 8.25005 10.5 8.25005H8.65826L8.24564 10.9321C8.21415 11.1368 8.02268 11.2772 7.81798 11.2457C7.61328 11.2142 7.47287 11.0227 7.50436 10.818L7.89943 8.25005H4.15826L3.74564 10.9321C3.71415 11.1368 3.52268 11.2772 3.31798 11.2457C3.11328 11.2142 2.97287 11.0227 3.00436 10.818L3.39943 8.25005H1.125C0.917893 8.25005 0.75 8.08216 0.75 7.87505C0.75 7.66795 0.917893 7.50005 1.125 7.50005H3.51482L3.97636 4.50005H1.875C1.66789 4.50005 1.5 4.33216 1.5 4.12505C1.5 3.91795 1.66789 3.75005 1.875 3.75005H4.09174L4.50436 1.06803C4.53585 0.863333 4.72732 0.722921 4.93202 0.754413ZM8.01482 7.50005L8.47636 4.50005H4.73518L4.27364 7.50005H8.01482Z" fill="#0E1011"/>
</svg>
