<svg viewBox="0 0 12 12" fill="none" xmlns="http://www.w3.org/2000/svg">
<path d="M5.64351 2.84647C5.50338 2.90451 5.34209 2.87243 5.23484 2.76518L4.23484 1.76518C4.08839 1.61873 4.08839 1.38129 4.23484 1.23485L5.23484 0.234846C5.34209 0.127597 5.50338 0.0955133 5.64351 0.153556C5.78364 0.211599 5.875 0.348338 5.875 0.500011V1.12501H6C6.92509 1.12501 7.83108 1.38823 8.61216 1.88391C9.39324 2.3796 10.0172 3.08729 10.411 3.92434C10.8049 4.76138 10.9525 5.69322 10.8366 6.61101C10.7206 7.5288 10.3459 8.39466 9.75626 9.10745C9.62424 9.26703 9.38786 9.28938 9.22828 9.15736C9.0687 9.02535 9.04636 8.78896 9.17837 8.62938C9.67732 8.02625 9.99437 7.2936 10.0925 6.51701C10.1906 5.74042 10.0657 4.95194 9.73241 4.24367C9.39913 3.5354 8.8712 2.93659 8.21029 2.51716C7.54938 2.09773 6.78277 1.87501 6 1.87501H5.875V2.50001C5.875 2.65168 5.78364 2.78842 5.64351 2.84647Z" fill="#0E1011"/>
<path d="M6 10.125H6.125V9.50001C6.125 9.34834 6.21637 9.2116 6.3565 9.15356C6.49662 9.09551 6.65792 9.1276 6.76517 9.23485L7.76517 10.2348C7.91161 10.3813 7.91161 10.6187 7.76517 10.7652L6.76517 11.7652C6.65792 11.8724 6.49662 11.9045 6.3565 11.8465C6.21637 11.7884 6.125 11.6517 6.125 11.5V10.875H6C5.07492 10.875 4.16892 10.6118 3.38785 10.1161C2.60677 9.62042 1.98285 8.91273 1.58897 8.07568C1.19509 7.23864 1.0475 6.3068 1.16344 5.38901C1.27939 4.47122 1.65408 3.60536 2.24375 2.89257C2.37577 2.73299 2.61215 2.71065 2.77173 2.84266C2.93131 2.97468 2.95365 3.21106 2.82164 3.37064C2.32268 3.97377 2.00564 4.70642 1.90753 5.48301C1.80942 6.2596 1.93431 7.04808 2.26759 7.75635C2.60088 8.46462 3.12881 9.06344 3.78972 9.48286C4.45063 9.90229 5.21724 10.125 6 10.125Z" fill="#0E1011"/>
</svg>
