<svg viewBox="0 0 12 12" fill="none" xmlns="http://www.w3.org/2000/svg">
<path d="M2.91427 1.28191C3.03891 1.44731 3.00587 1.68244 2.84046 1.80708C2.17879 2.30568 1.64452 2.95381 1.28133 3.69847C0.918137 4.44312 0.73634 5.26316 0.7508 6.09154C0.76526 6.91992 0.975567 7.73311 1.36453 8.46464C1.75349 9.19616 2.31005 9.82525 2.98872 10.3005C3.15838 10.4192 3.19961 10.6531 3.08081 10.8227C2.96202 10.9924 2.72819 11.0336 2.55854 10.9148C1.78292 10.3717 1.14684 9.65277 0.702316 8.81674C0.257791 7.98071 0.0174398 7.05135 0.000914048 6.10463C-0.0156117 5.15791 0.192157 4.22072 0.607233 3.36969C1.02231 2.51865 1.63291 1.77794 2.3891 1.2081C2.55451 1.08346 2.78963 1.11651 2.91427 1.28191Z" fill="#0E1011"/>
<path d="M9.08573 1.28191C8.96109 1.44731 8.99413 1.68244 9.15954 1.80708C9.82121 2.30568 10.3555 2.95381 10.7187 3.69847C11.0819 4.44312 11.2637 5.26316 11.2492 6.09154C11.2347 6.91992 11.0244 7.73311 10.6355 8.46464C10.2465 9.19616 9.68995 9.82525 9.01128 10.3005C8.84162 10.4192 8.80039 10.6531 8.91919 10.8227C9.03798 10.9924 9.27181 11.0336 9.44146 10.9148C10.2171 10.3717 10.8532 9.65277 11.2977 8.81674C11.7422 7.98071 11.9826 7.05135 11.9991 6.10463C12.0156 5.15791 11.8078 4.22072 11.3928 3.36969C10.9777 2.51865 10.3671 1.77794 9.6109 1.2081C9.4455 1.08346 9.21037 1.11651 9.08573 1.28191Z" fill="#0E1011"/>
<path d="M4.0441 3.40435C4.2095 3.27971 4.24254 3.04458 4.1179 2.87918C3.99326 2.71378 3.75814 2.68073 3.59274 2.80537C3.0886 3.18526 2.68154 3.67907 2.40482 4.24643C2.1281 4.81378 1.98959 5.43858 2.00061 6.06972C2.01163 6.70087 2.17186 7.32044 2.46821 7.8778C2.76456 8.43515 3.18861 8.91445 3.70569 9.27652C3.87535 9.39531 4.10918 9.35408 4.22797 9.18443C4.34676 9.01477 4.30553 8.78094 4.13588 8.66215C3.71575 8.36798 3.37121 7.97854 3.13042 7.52569C2.88964 7.07284 2.75945 6.56944 2.7505 6.05663C2.74154 5.54383 2.85409 5.03618 3.07892 4.57521C3.30375 4.11423 3.63449 3.71301 4.0441 3.40435Z" fill="#0E1011"/>
<path d="M7.8821 2.87918C7.75746 3.04458 7.7905 3.27971 7.9559 3.40435C8.36551 3.71301 8.69625 4.11423 8.92108 4.57521C9.14592 5.03618 9.25846 5.54383 9.24951 6.05663C9.24055 6.56944 9.11036 7.07284 8.86958 7.52569C8.62879 7.97854 8.28425 8.36798 7.86412 8.66215C7.69447 8.78094 7.65324 9.01477 7.77203 9.18443C7.89082 9.35408 8.12465 9.39531 8.29431 9.27652C8.81139 8.91445 9.23544 8.43515 9.53179 7.8778C9.82814 7.32044 9.98837 6.70087 9.99939 6.06972C10.0104 5.43858 9.8719 4.81378 9.59518 4.24643C9.31846 3.67907 8.9114 3.18526 8.40726 2.80537C8.24186 2.68073 8.00674 2.71378 7.8821 2.87918Z" fill="#0E1011"/>
<path fill-rule="evenodd" clip-rule="evenodd" d="M8 5.99988C8 7.10445 7.10457 7.99988 6 7.99988C4.89543 7.99988 4 7.10445 4 5.99988C4 4.89531 4.89543 3.99988 6 3.99988C7.10457 3.99988 8 4.89531 8 5.99988ZM7.25 5.99988C7.25 6.69023 6.69036 7.24988 6 7.24988C5.30964 7.24988 4.75 6.69023 4.75 5.99988C4.75 5.30952 5.30964 4.74988 6 4.74988C6.69036 4.74988 7.25 5.30952 7.25 5.99988Z" fill="#0E1011"/>
</svg>
