<svg viewBox="0 0 12 12" fill="none" xmlns="http://www.w3.org/2000/svg">
<path fill-rule="evenodd" clip-rule="evenodd" d="M10.125 5.625C10.125 6.7329 9.72463 7.74728 9.06068 8.53136C9.06647 8.53648 9.07213 8.5418 9.07767 8.54733L10.3902 9.85983C10.5366 10.0063 10.5366 10.2437 10.3902 10.3902C10.2437 10.5366 10.0063 10.5366 9.85983 10.3902L8.54733 9.07767C8.5418 9.07213 8.53648 9.06647 8.53136 9.06068C7.74728 9.72463 6.7329 10.125 5.625 10.125C3.13972 10.125 1.125 8.11028 1.125 5.625C1.125 3.13972 3.13972 1.125 5.625 1.125C8.11028 1.125 10.125 3.13972 10.125 5.625ZM4.125 5.25C3.91789 5.25 3.75 5.41789 3.75 5.625C3.75 5.83211 3.91789 6 4.125 6H7.125C7.33211 6 7.5 5.83211 7.5 5.625C7.5 5.41789 7.33211 5.25 7.125 5.25H4.125Z" fill="#0E1011"/>
</svg>
