<svg viewBox="0 0 12 12" fill="none" xmlns="http://www.w3.org/2000/svg">
<path d="M4.26492 3.26517C4.41137 3.11872 4.41137 2.88128 4.26492 2.73483C4.11847 2.58839 3.88104 2.58839 3.73459 2.73483L0.734591 5.73484C0.588144 5.88128 0.588144 6.11872 0.734591 6.26516L3.73459 9.26517C3.88104 9.41161 4.11847 9.41161 4.26492 9.26517C4.41137 9.11872 4.41137 8.88128 4.26492 8.73483L1.53009 6L4.26492 3.26517Z" fill="#0E1011"/>
<path d="M8.26495 2.73483C8.1185 2.58839 7.88107 2.58839 7.73462 2.73483C7.58817 2.88128 7.58817 3.11872 7.73462 3.26517L10.4695 6L7.73462 8.73483C7.58817 8.88128 7.58817 9.11872 7.73462 9.26517C7.88107 9.41161 8.1185 9.41161 8.26495 9.26517L11.265 6.26516C11.4114 6.11872 11.4114 5.88128 11.265 5.73484L8.26495 2.73483Z" fill="#0E1011"/>
</svg>
