<svg viewBox="0 0 12 12" fill="none" xmlns="http://www.w3.org/2000/svg">
<path fill-rule="evenodd" clip-rule="evenodd" d="M4.125 3.75C3.91789 3.75 3.75 3.91789 3.75 4.125V7.875C3.75 8.08211 3.91789 8.25 4.125 8.25H7.875C8.08211 8.25 8.25 8.08211 8.25 7.875V4.125C8.25 3.91789 8.08211 3.75 7.875 3.75H4.125ZM4.5 7.5V4.5H7.5V7.5H4.5Z" fill="#0E1011"/>
<path fill-rule="evenodd" clip-rule="evenodd" d="M6 12C9.31371 12 12 9.31371 12 6C12 2.68629 9.31371 0 6 0C2.68629 0 0 2.68629 0 6C0 9.31371 2.68629 12 6 12ZM11.25 6C11.25 8.8995 8.8995 11.25 6 11.25C3.1005 11.25 0.75 8.8995 0.75 6C0.75 3.1005 3.1005 0.75 6 0.75C8.8995 0.75 11.25 3.1005 11.25 6Z" fill="#0E1011"/>
</svg>
