<svg viewBox="0 0 16 16" fill="none" xmlns="http://www.w3.org/2000/svg">
<path d="M2.5 2.5C2.5 2.22386 2.72386 2 3 2C4.44454 2 5.87494 2.28452 7.20952 2.83732C8.5441 3.39013 9.75673 4.20038 10.7782 5.22183C11.7996 6.24327 12.6099 7.4559 13.1627 8.79048C13.7155 10.1251 14 11.5555 14 13C14 13.2761 13.7761 13.5 13.5 13.5C13.2239 13.5 13 13.2761 13 13C13 11.6868 12.7413 10.3864 12.2388 9.17317C11.7362 7.95991 10.9997 6.85752 10.0711 5.92893C9.14248 5.00035 8.04009 4.26375 6.82683 3.7612C5.61358 3.25866 4.31322 3 3 3C2.72386 3 2.5 2.77614 2.5 2.5Z" fill="#0E1011"/>
<path d="M2.5 7.5C2.5 7.22386 2.72386 7 3 7C3.78793 7 4.56815 7.15519 5.2961 7.45672C6.02405 7.75825 6.68549 8.20021 7.24264 8.75736C7.79979 9.31451 8.24175 9.97595 8.54328 10.7039C8.84481 11.4319 9 12.2121 9 13C9 13.2761 8.77614 13.5 8.5 13.5C8.22386 13.5 8 13.2761 8 13C8 12.3434 7.87067 11.6932 7.6194 11.0866C7.36812 10.48 6.99983 9.92876 6.53553 9.46447C6.07124 9.00017 5.52005 8.63188 4.91342 8.3806C4.30679 8.12933 3.65661 8 3 8C2.72386 8 2.5 7.77614 2.5 7.5Z" fill="#0E1011"/>
<path d="M3 14C3.55228 14 4 13.5523 4 13C4 12.4477 3.55228 12 3 12C2.44772 12 2 12.4477 2 13C2 13.5523 2.44772 14 3 14Z" fill="#0E1011"/>
</svg>
