<svg viewBox="0 0 12 12" fill="none" xmlns="http://www.w3.org/2000/svg">
<path fill-rule="evenodd" clip-rule="evenodd" d="M6.23133 1.48834C6.70408 1.01559 7.34527 0.75 8.01385 0.75H8.12114C9.84916 0.75 11.25 2.15084 11.25 3.87886C11.25 4.52609 10.9929 5.14682 10.5352 5.60448L8.98116 7.15855C7.95603 8.18368 6.29397 8.18367 5.26884 7.15855L4.60984 6.49954C4.46339 6.35309 4.46339 6.11566 4.60984 5.96921C4.75628 5.82276 4.99372 5.82276 5.14016 5.96921L5.79917 6.62822C6.53141 7.36045 7.71859 7.36045 8.45083 6.62822L10.0049 5.07415C10.3219 4.75714 10.5 4.32718 10.5 3.87886C10.5 2.56505 9.43495 1.5 8.12114 1.5H8.01385C7.54418 1.5 7.09376 1.68657 6.76166 2.01867L5.89016 2.89016C5.74372 3.03661 5.50628 3.03661 5.35984 2.89016C5.21339 2.74372 5.21339 2.50628 5.35984 2.35984L6.23133 1.48834ZM6.20083 5.23116C5.46859 4.49892 4.28141 4.49892 3.54918 5.23115L2.01867 6.76166C1.68657 7.09376 1.5 7.54418 1.5 8.01385C1.5 9.38691 2.61309 10.5 3.98615 10.5C4.45582 10.5 4.90624 10.3134 5.23834 9.98133L6.10984 9.10983C6.25628 8.96339 6.49372 8.96339 6.64016 9.10983C6.78661 9.25628 6.78661 9.49372 6.64016 9.64017L5.76867 10.5117C5.29592 10.9844 4.65473 11.25 3.98615 11.25C2.19888 11.25 0.75 9.80112 0.75 8.01385C0.75 7.34527 1.01559 6.70408 1.48834 6.23133L3.01885 4.70082C4.04397 3.6757 5.70603 3.6757 6.73116 4.70083L7.39017 5.35984C7.53661 5.50628 7.53661 5.74372 7.39017 5.89016C7.24372 6.03661 7.00628 6.03661 6.85983 5.89016L6.20083 5.23116Z" fill="#0E1011"/>
</svg>
