<svg viewBox="0 0 12 12" fill="none" xmlns="http://www.w3.org/2000/svg">
<path d="M6.3565 2.84647C6.49662 2.90451 6.65792 2.87243 6.76517 2.76518L7.76517 1.76518C7.91161 1.61873 7.91161 1.38129 7.76517 1.23485L6.76517 0.234846C6.65792 0.127597 6.49662 0.0955133 6.3565 0.153556C6.21637 0.211599 6.125 0.348338 6.125 0.500011V1.12501H6C5.07492 1.12501 4.16892 1.38823 3.38785 1.88391C2.60677 2.3796 1.98285 3.08729 1.58897 3.92434C1.19509 4.76138 1.0475 5.69322 1.16344 6.61101C1.27939 7.5288 1.65408 8.39466 2.24375 9.10745C2.37577 9.26703 2.61215 9.28938 2.77173 9.15736C2.93131 9.02535 2.95365 8.78896 2.82164 8.62938C2.32268 8.02625 2.00564 7.2936 1.90753 6.51701C1.80942 5.74042 1.93431 4.95194 2.26759 4.24367C2.60088 3.5354 3.12881 2.93659 3.78972 2.51716C4.45063 2.09773 5.21724 1.87501 6 1.87501H6.125V2.50001C6.125 2.65168 6.21637 2.78842 6.3565 2.84647Z" fill="#0E1011"/>
<path d="M6 10.125H5.875V9.50001C5.875 9.34834 5.78364 9.2116 5.64351 9.15356C5.50338 9.09551 5.34209 9.1276 5.23484 9.23485L4.23484 10.2348C4.08839 10.3813 4.08839 10.6187 4.23484 10.7652L5.23484 11.7652C5.34209 11.8724 5.50338 11.9045 5.64351 11.8465C5.78364 11.7884 5.875 11.6517 5.875 11.5V10.875H6C6.92509 10.875 7.83108 10.6118 8.61216 10.1161C9.39324 9.62042 10.0172 8.91273 10.411 8.07568C10.8049 7.23864 10.9525 6.3068 10.8366 5.38901C10.7206 4.47122 10.3459 3.60536 9.75626 2.89257C9.62424 2.73299 9.38786 2.71065 9.22828 2.84266C9.0687 2.97468 9.04635 3.21106 9.17837 3.37064C9.67732 3.97377 9.99437 4.70642 10.0925 5.48301C10.1906 6.2596 10.0657 7.04808 9.73241 7.75635C9.39913 8.46462 8.8712 9.06344 8.21029 9.48286C7.54938 9.90229 6.78277 10.125 6 10.125Z" fill="#0E1011"/>
</svg>
