<svg viewBox="0 0 16 16" fill="none" xmlns="http://www.w3.org/2000/svg">
<path d="M9.09807 2.50981C9.36885 2.56396 9.54445 2.82737 9.4903 3.09815L8.54278 7.83576L11.3536 10.6465C11.5488 10.8418 11.5488 11.1584 11.3536 11.3537C11.1583 11.5489 10.8417 11.5489 10.6465 11.3537L7.64645 8.35365C7.52824 8.23544 7.47693 8.06597 7.50972 7.90204L8.50972 2.90204C8.56387 2.63126 8.82729 2.45565 9.09807 2.50981Z" fill="#0E1011"/>
<path fill-rule="evenodd" clip-rule="evenodd" d="M15.2943 7.99992C15.2943 12.0313 12.0262 15.2994 7.99479 15.2994C3.9634 15.2994 0.695312 12.0313 0.695312 7.99992C0.695312 3.96853 3.9634 0.700439 7.99479 0.700439C12.0262 0.700439 15.2943 3.96853 15.2943 7.99992ZM14.2943 7.99992C14.2943 11.479 11.4739 14.2994 7.99479 14.2994C4.51569 14.2994 1.69531 11.479 1.69531 7.99992C1.69531 4.52081 4.51569 1.70044 7.99479 1.70044C11.4739 1.70044 14.2943 4.52081 14.2943 7.99992Z" fill="#0E1011"/>
</svg>
