<svg viewBox="0 0 12 12" fill="none" xmlns="http://www.w3.org/2000/svg">
<path fill-rule="evenodd" clip-rule="evenodd" d="M0 7.5V2C0 1.44772 0.447715 1 1 1H6.5C7.05228 1 7.5 1.44772 7.5 2V8.5H1C0.447715 8.5 0 8.05228 0 7.5ZM1 2.25C0.861929 2.25 0.75 2.36193 0.75 2.5C0.75 2.63807 0.861929 2.75 1 2.75H3.5C3.63807 2.75 3.75 2.63807 3.75 2.5C3.75 2.36193 3.63807 2.25 3.5 2.25H1ZM4.5 2.25C4.36193 2.25 4.25 2.36193 4.25 2.5C4.25 2.63807 4.36193 2.75 4.5 2.75H5.5C5.63807 2.75 5.75 2.63807 5.75 2.5C5.75 2.36193 5.63807 2.25 5.5 2.25H4.5Z" fill="#0E1011"/>
<path d="M8 4V8.5H12V6C12 4.89543 11.1046 4 10 4H8Z" fill="#0E1011"/>
<path d="M1 9.5V9H4V9.5C4 10.3284 3.32843 11 2.5 11C1.67157 11 1 10.3284 1 9.5Z" fill="#0E1011"/>
<path d="M7 9.5V9H10V9.5C10 10.3284 9.32843 11 8.5 11C7.67157 11 7 10.3284 7 9.5Z" fill="#0E1011"/>
</svg>
