<svg viewBox="0 0 16 16" fill="none" xmlns="http://www.w3.org/2000/svg">
<path fill-rule="evenodd" clip-rule="evenodd" d="M14.2943 7.99992C14.2943 11.479 11.4739 14.2994 7.99479 14.2994V10.9999L8 10.9999C9.65685 10.9999 11 9.65676 11 7.99991C11 6.34305 9.65685 4.99991 8 4.99991L7.99479 4.99991V1.70044C11.4739 1.70044 14.2943 4.52081 14.2943 7.99992ZM7.99479 4.99991C6.34033 5.00272 5 6.34479 5 7.99991C5 9.65503 6.34033 10.9971 7.99479 10.9999V4.99991ZM15.2943 7.99992C15.2943 12.0313 12.0262 15.2994 7.99479 15.2994C3.9634 15.2994 0.695312 12.0313 0.695312 7.99992C0.695312 3.96853 3.9634 0.700439 7.99479 0.700439C12.0262 0.700439 15.2943 3.96853 15.2943 7.99992Z" fill="#0E1011"/>
</svg>
