<svg viewBox="0 0 12 12" fill="none" xmlns="http://www.w3.org/2000/svg">
<path d="M4.875 4.5C4.875 3.87868 5.37868 3.375 6 3.375C6.62132 3.375 7.125 3.87868 7.125 4.5V4.59099C7.125 4.91349 6.99689 5.22278 6.76884 5.45083L5.9545 6.26517C5.74353 6.47614 5.625 6.76229 5.625 7.06066V7.5C5.625 7.70711 5.79289 7.875 6 7.875C6.20711 7.875 6.375 7.70711 6.375 7.5V7.06066C6.375 6.9612 6.41451 6.86582 6.48483 6.7955L7.29917 5.98116C7.66787 5.61246 7.875 5.1124 7.875 4.59099V4.5C7.875 3.46447 7.03553 2.625 6 2.625C4.96447 2.625 4.125 3.46447 4.125 4.5C4.125 4.70711 4.29289 4.875 4.5 4.875C4.70711 4.875 4.875 4.70711 4.875 4.5Z" fill="#0E1011"/>
<path d="M5.995 8.625C5.78789 8.625 5.62 8.79289 5.62 9C5.62 9.20711 5.78789 9.375 5.995 9.375H6C6.20711 9.375 6.375 9.20711 6.375 9C6.375 8.79289 6.20711 8.625 6 8.625H5.995Z" fill="#0E1011"/>
<path fill-rule="evenodd" clip-rule="evenodd" d="M6 0C2.68629 0 0 2.68629 0 6C0 9.31371 2.68629 12 6 12C9.31371 12 12 9.31371 12 6C12 2.68629 9.31371 0 6 0ZM0.75 6C0.75 3.1005 3.1005 0.75 6 0.75C8.8995 0.75 11.25 3.1005 11.25 6C11.25 8.8995 8.8995 11.25 6 11.25C3.1005 11.25 0.75 8.8995 0.75 6Z" fill="#0E1011"/>
</svg>
