<svg viewBox="0 0 16 16" fill="none" xmlns="http://www.w3.org/2000/svg">
<path fill-rule="evenodd" clip-rule="evenodd" d="M16 1.5C16 1.33409 15.9177 1.17898 15.7803 1.08597C15.6429 0.992954 15.4684 0.974146 15.3143 1.03576L10.5 2.96149L5.6857 1.03576C5.56649 0.988082 5.43351 0.988082 5.3143 1.03576L0.314305 3.03576C0.124475 3.1117 0 3.29555 0 3.5V14.6667C0 14.8351 0.0847973 14.9922 0.225594 15.0847C0.36639 15.1771 0.544263 15.1924 0.698805 15.1255L5.5 13.0449L10.3012 15.1255C10.428 15.1804 10.572 15.1804 10.6988 15.1255L15.6988 12.9588C15.8817 12.8795 16 12.6993 16 12.5V1.5ZM5.5 2.12503C5.70711 2.12503 5.875 2.29292 5.875 2.50003V11.5C5.875 11.7071 5.70711 11.875 5.5 11.875C5.29289 11.875 5.125 11.7071 5.125 11.5V2.50003C5.125 2.29292 5.29289 2.12503 5.5 2.12503ZM10.5 4.12503C10.7071 4.12503 10.875 4.29292 10.875 4.50003V13.5C10.875 13.7071 10.7071 13.875 10.5 13.875C10.2929 13.875 10.125 13.7071 10.125 13.5V4.50003C10.125 4.29292 10.2929 4.12503 10.5 4.12503Z" fill="#0E1011"/>
</svg>
