<svg viewBox="0 0 16 16" fill="none" xmlns="http://www.w3.org/2000/svg">
<path fill-rule="evenodd" clip-rule="evenodd" d="M3.5 1C2.67157 1 2 1.67157 2 2.5C2 3.32843 2.67157 4 3.5 4C4.32843 4 5 3.32843 5 2.5C5 1.67157 4.32843 1 3.5 1ZM1 2.5C1 1.11929 2.11929 2.23517e-08 3.5 2.23517e-08C4.88071 2.23517e-08 6 1.11929 6 2.5C6 3.70948 5.14112 4.71836 4 4.94999V13.0854C4.5826 13.2913 5 13.8469 5 14.5C5 15.3284 4.32843 16 3.5 16C2.67157 16 2 15.3284 2 14.5C2 13.8469 2.4174 13.2913 3 13.0854V4.94999C1.85888 4.71836 1 3.70948 1 2.5ZM9.85355 0.146447C10.0488 0.341709 10.0488 0.658291 9.85355 0.853553L8.70711 2H10.5C11.8807 2 13 3.11929 13 4.5V11.05C14.1411 11.2816 15 12.2905 15 13.5C15 14.8807 13.8807 16 12.5 16C11.1193 16 10 14.8807 10 13.5C10 12.2905 10.8589 11.2816 12 11.05V4.5C12 3.67157 11.3284 3 10.5 3H8.70711L9.85355 4.14645C10.0488 4.34171 10.0488 4.65829 9.85355 4.85355C9.65829 5.04882 9.34171 5.04882 9.14645 4.85355L6.79289 2.5L9.14645 0.146447C9.34171 -0.0488155 9.65829 -0.0488155 9.85355 0.146447ZM12.5 12C11.6716 12 11 12.6716 11 13.5C11 14.3284 11.6716 15 12.5 15C13.3284 15 14 14.3284 14 13.5C14 12.6716 13.3284 12 12.5 12ZM3.5 14C3.22386 14 3 14.2239 3 14.5C3 14.7761 3.22386 15 3.5 15C3.77614 15 4 14.7761 4 14.5C4 14.2239 3.77614 14 3.5 14Z" fill="#0E1011"/>
</svg>
