<svg viewBox="0 0 16 16" fill="none" xmlns="http://www.w3.org/2000/svg">
<path fill-rule="evenodd" clip-rule="evenodd" d="M8.16666 1C8.37614 1 8.56341 1.13058 8.63583 1.32715L13.3025 13.9938C13.3751 14.191 13.3167 14.4126 13.1563 14.5483C12.9959 14.6841 12.7677 14.7051 12.5853 14.6008L8.16666 12.0759L3.74806 14.6008C3.5656 14.7051 3.33742 14.6841 3.177 14.5483C3.01658 14.4126 2.95817 14.191 3.03082 13.9938L7.69749 1.32715C7.76991 1.13058 7.95718 1 8.16666 1ZM4.44368 13.0515L7.91859 11.0659C8.07231 10.978 8.26101 10.978 8.41473 11.0659L11.8896 13.0515L8.16666 2.94632L4.44368 13.0515Z" fill="#0E1011"/>
</svg>
