<svg viewBox="0 0 12 12" fill="none" xmlns="http://www.w3.org/2000/svg">
<path fill-rule="evenodd" clip-rule="evenodd" d="M6 2.625C6 2.48552 5.92259 2.35757 5.79904 2.29283C5.67549 2.2281 5.52623 2.23729 5.41155 2.31668L0.536546 5.69168C0.435372 5.76172 0.375 5.87695 0.375 6C0.375 6.12306 0.435372 6.23828 0.536546 6.30832L5.41155 9.68332C5.52623 9.76272 5.67549 9.7719 5.79904 9.70717C5.92259 9.64244 6 9.51448 6 9.375V6.4561L10.6615 9.68332C10.7762 9.76272 10.9255 9.7719 11.049 9.70717C11.1726 9.64244 11.25 9.51448 11.25 9.375V2.625C11.25 2.48552 11.1726 2.35757 11.049 2.29283C10.9255 2.2281 10.7762 2.23729 10.6615 2.31668L6 5.5439V2.625ZM5.25 8.65929L1.40881 6L5.25 3.34071V8.65929ZM10.5 8.65929L6.65881 6L10.5 3.34071V8.65929Z" fill="#0E1011"/>
</svg>
