<svg viewBox="0 0 16 16" fill="none" xmlns="http://www.w3.org/2000/svg">
<path fill-rule="evenodd" clip-rule="evenodd" d="M8.5 1.5C8.5 1.22386 8.27614 1 8 1C7.72386 1 7.5 1.22386 7.5 1.5V2H7C5.34315 2 4 3.34315 4 5V5.0793C4 6.43846 4.91375 7.62781 6.22701 7.97801L7.5 8.31747V13H7C5.89543 13 5 12.1046 5 11H4C4 12.6569 5.34315 14 7 14H7.5V14.5C7.5 14.7761 7.72386 15 8 15C8.27614 15 8.5 14.7761 8.5 14.5V14H9.5C11.1569 14 12.5 12.6569 12.5 11V10.9207C12.5 9.56154 11.5862 8.37219 10.273 8.02199L8.5 7.54919V3H9C10.1046 3 11 3.89543 11 5H12C12 3.34315 10.6569 2 9 2H8.5V1.5ZM7.5 3H7C5.89543 3 5 3.89543 5 5V5.0793C5 5.98541 5.60917 6.77831 6.48467 7.01177L7.5 7.28253V3ZM8.5 8.58414V13H9.5C10.6046 13 11.5 12.1046 11.5 11V10.9207C11.5 10.0146 10.8908 9.22169 10.0153 8.98823L8.5 8.58414Z" fill="#0E1011"/>
</svg>
