<svg viewBox="0 0 12 12" fill="none" xmlns="http://www.w3.org/2000/svg">
<path d="M4.875 1.5C4.875 2.12132 5.37868 2.625 6 2.625C6.62132 2.625 7.125 2.12132 7.125 1.5C7.125 0.87868 6.62132 0.375 6 0.375C5.37868 0.375 4.875 0.87868 4.875 1.5Z" fill="#0E1011"/>
<path d="M6 7.125C5.37868 7.125 4.875 6.62132 4.875 6C4.875 5.37868 5.37868 4.875 6 4.875C6.62132 4.875 7.125 5.37868 7.125 6C7.125 6.62132 6.62132 7.125 6 7.125Z" fill="#0E1011"/>
<path d="M6 11.625C5.37868 11.625 4.875 11.1213 4.875 10.5C4.875 9.87868 5.37868 9.375 6 9.375C6.62132 9.375 7.125 9.87868 7.125 10.5C7.125 11.1213 6.62132 11.625 6 11.625Z" fill="#0E1011"/>
</svg>
