<svg viewBox="0 0 16 16" fill="none" xmlns="http://www.w3.org/2000/svg">
<path fill-rule="evenodd" clip-rule="evenodd" d="M5.33031 7.45407C4.94587 6.84686 5.06777 6.08571 5.54085 5.61262L6.18732 4.96615C5.90768 4.1014 5.7323 2.9977 5.65241 2.08565C5.64975 2.05532 5.63569 2.02866 5.61837 2.01191C5.61052 2.00433 5.60462 2.00136 5.6026 2.00051C5.60141 2.00001 5.60134 2 5.60001 2H3.00001C2.41248 2 2.07146 2.45136 2.12437 2.86813C2.40113 5.04796 3.1159 7.29771 4.09649 8.7326C4.97713 10.0213 6.10121 11.1306 7.40216 11.9943C8.80723 12.927 11.0039 13.608 13.131 13.8762C13.5489 13.9289 14 13.5871 14 13V10.4C14 10.3986 14 10.3985 13.9995 10.3973C13.9986 10.3953 13.9957 10.3895 13.9883 10.3819C13.9721 10.3651 13.9464 10.3516 13.9173 10.3492C13.0611 10.2767 12.0262 10.1229 11.2114 9.87931L10.5381 10.5526C10.0724 11.0183 9.32658 11.1447 8.72178 10.7786C7.34995 9.94801 6.18728 8.80763 5.33031 7.45407ZM1.13233 2.99408C1.42094 5.26721 2.17048 7.68663 3.27086 9.29683C4.22415 10.6918 5.44075 11.8925 6.84908 12.8274C8.42717 13.875 10.7895 14.5889 13.0059 14.8684C14.1018 15.0065 15 14.1046 15 13V10.4C15 9.84771 14.5519 9.3993 14.0016 9.35272C13.0831 9.27497 12.0074 9.10313 11.2771 8.8503C11.0795 8.78189 10.856 8.82048 10.7081 8.96835L9.83101 9.84549C9.67355 10.0029 9.43018 10.0385 9.23969 9.92314C8.0003 9.17277 6.94952 8.14215 6.17521 6.91914C6.05418 6.72798 6.08797 6.47971 6.24796 6.31973L7.10367 5.46401C7.25475 5.31294 7.29142 5.08336 7.21675 4.88319C6.92863 4.11078 6.73372 2.9702 6.6486 1.99839C6.6004 1.44821 6.1523 1 5.60001 1H3.00001C1.89544 1 0.993212 1.89831 1.13233 2.99408Z" fill="#0E1011"/>
</svg>
