<svg viewBox="0 0 16 16" fill="none" xmlns="http://www.w3.org/2000/svg">
<path fill-rule="evenodd" clip-rule="evenodd" d="M1 4.25C1 3.55964 1.55964 3 2.25 3H13.75C14.4404 3 15 3.55964 15 4.25V10.75C15 11.4404 14.4404 12 13.75 12H2.25C1.55964 12 1 11.4404 1 10.75V4.25ZM8.5 13H13.75C14.9926 13 16 11.9926 16 10.75V4.25C16 3.00736 14.9926 2 13.75 2H2.25C1.00736 2 0 3.00736 0 4.25V10.75C0 11.9926 1.00736 13 2.25 13H7.5V14H5.5C5.22386 14 5 14.2239 5 14.5C5 14.7761 5.22386 15 5.5 15H10.5C10.7761 15 11 14.7761 11 14.5C11 14.2239 10.7761 14 10.5 14H8.5V13Z" fill="#0E1011"/>
<path d="M2.25 3C1.55964 3 1 3.55964 1 4.25V10.75C1 11.4404 1.55964 12 2.25 12H13.75C14.4404 12 15 11.4404 15 10.75V4.25C15 3.55964 14.4404 3 13.75 3H2.25Z" fill="#0E1011"/>
</svg>
