<svg viewBox="0 0 12 12" fill="none" xmlns="http://www.w3.org/2000/svg">
<path d="M7.5 6C8.75361 6 9.79172 5.07729 9.97222 3.87398C9.98139 3.87465 9.99065 3.875 10 3.875H11.5C11.7071 3.875 11.875 3.70711 11.875 3.5C11.875 3.29289 11.7071 3.125 11.5 3.125H10C9.99065 3.125 9.98139 3.12535 9.97222 3.12602C9.79172 1.92271 8.75361 1 7.5 1C6.11929 1 5 2.11929 5 3.5C5 4.88071 6.11929 6 7.5 6Z" fill="#0E1011"/>
<path d="M2.02779 8.12601C2.01861 8.12534 2.00935 8.125 2 8.125H0.5C0.292893 8.125 0.125 8.29289 0.125 8.5C0.125 8.70711 0.292893 8.875 0.5 8.875H2C2.00935 8.875 2.01861 8.87466 2.02779 8.87399C2.20829 10.0773 3.24639 11 4.5 11C5.88071 11 7 9.88071 7 8.5C7 7.11929 5.88071 6 4.5 6C3.24639 6 2.20829 6.9227 2.02779 8.12601Z" fill="#0E1011"/>
<path d="M0.125 3.5C0.125 3.29289 0.292893 3.125 0.5 3.125H4C4.20711 3.125 4.375 3.29289 4.375 3.5C4.375 3.70711 4.20711 3.875 4 3.875H0.5C0.292893 3.875 0.125 3.70711 0.125 3.5Z" fill="#0E1011"/>
<path d="M11.5 8.125C11.7071 8.125 11.875 8.29289 11.875 8.5C11.875 8.70711 11.7071 8.875 11.5 8.875H8C7.79289 8.875 7.625 8.70711 7.625 8.5C7.625 8.29289 7.79289 8.125 8 8.125H11.5Z" fill="#0E1011"/>
</svg>
