<svg viewBox="0 0 16 16" fill="none" xmlns="http://www.w3.org/2000/svg">
<path fill-rule="evenodd" clip-rule="evenodd" d="M15.2943 7.99992C15.2943 12.0313 12.0262 15.2994 7.99479 15.2994C3.9634 15.2994 0.695312 12.0313 0.695312 7.99992C0.695312 3.96853 3.9634 0.700439 7.99479 0.700439C12.0262 0.700439 15.2943 3.96853 15.2943 7.99992ZM5 6.25C5 5.69772 5.44772 5.25 6 5.25C6.55228 5.25 7 5.69772 7 6.25C7 6.80228 6.55228 7.25 6 7.25C5.44772 7.25 5 6.80228 5 6.25ZM9 6.25C9 5.69772 9.44772 5.25 10 5.25C10.5523 5.25 11 5.69772 11 6.25C11 6.80228 10.5523 7.25 10 7.25C9.44772 7.25 9 6.80228 9 6.25ZM5.35355 9.89645C5.98857 10.5315 6.97424 10.875 8 10.875C9.02576 10.875 10.0114 10.5315 10.6464 9.89645C10.8417 9.70118 11.1583 9.70118 11.3536 9.89645C11.5488 10.0917 11.5488 10.4083 11.3536 10.6036C10.4886 11.4685 9.22424 11.875 8 11.875C6.77576 11.875 5.51143 11.4685 4.64645 10.6036C4.45118 10.4083 4.45118 10.0917 4.64645 9.89645C4.84171 9.70118 5.15829 9.70118 5.35355 9.89645Z" fill="#0E1011"/>
</svg>
