<svg viewBox="0 0 12 12" fill="none" xmlns="http://www.w3.org/2000/svg">
<path fill-rule="evenodd" clip-rule="evenodd" d="M6 1C5.44772 1 5 1.44772 5 2V10C5 10.5523 5.44772 11 6 11H7C7.55228 11 8 10.5523 8 10V2C8 1.44772 7.55228 1 7 1H6ZM7 1.75H6C5.86193 1.75 5.75 1.86193 5.75 2V10C5.75 10.1381 5.86193 10.25 6 10.25H7C7.13807 10.25 7.25 10.1381 7.25 10V2C7.25 1.86193 7.13807 1.75 7 1.75Z" fill="#0E1011"/>
<path fill-rule="evenodd" clip-rule="evenodd" d="M2 6C1.44772 6 1 6.44772 1 7V10C1 10.5523 1.44772 11 2 11H3C3.55228 11 4 10.5523 4 10V7C4 6.44772 3.55228 6 3 6H2ZM3 6.75H2C1.86193 6.75 1.75 6.86193 1.75 7V10C1.75 10.1381 1.86193 10.25 2 10.25H3C3.13807 10.25 3.25 10.1381 3.25 10V7C3.25 6.86193 3.13807 6.75 3 6.75Z" fill="#0E1011"/>
<path fill-rule="evenodd" clip-rule="evenodd" d="M9 5C9 4.44772 9.44772 4 10 4H11C11.5523 4 12 4.44772 12 5V10C12 10.5523 11.5523 11 11 11H10C9.44771 11 9 10.5523 9 10V5ZM10 4.75H11C11.1381 4.75 11.25 4.86193 11.25 5V10C11.25 10.1381 11.1381 10.25 11 10.25H10C9.86193 10.25 9.75 10.1381 9.75 10V5C9.75 4.86193 9.86193 4.75 10 4.75Z" fill="#0E1011"/>
</svg>
