<svg viewBox="0 0 16 16" fill="none" xmlns="http://www.w3.org/2000/svg">
<path fill-rule="evenodd" clip-rule="evenodd" d="M4.15 3.53114C3.73493 2.28592 4.66177 1 5.97434 1C6.80207 1 7.53693 1.52966 7.79868 2.31491L8 2.91886L8.20132 2.31491C8.46307 1.52966 9.19793 1 10.0257 1C11.3382 1 12.2651 2.28592 11.85 3.53114L11.7023 3.97434C11.6994 3.98293 11.6965 3.99149 11.6935 4H14.5C15.3284 4 16 4.67157 16 5.5V6.5C16 7.15311 15.5826 7.70873 15 7.91465V13C15 14.1046 14.1046 15 13 15H3C1.89543 15 1 14.1046 1 13V7.91465C0.417404 7.70873 0 7.15311 0 6.5V5.5C0 4.67157 0.671573 4 1.5 4H4.30654C4.30353 3.99149 4.3006 3.98293 4.29773 3.97434L4.15 3.53114ZM5.72076 4H7.30629L6.85 2.63114C6.72436 2.25423 6.37164 2 5.97434 2C5.34432 2 4.89945 2.61722 5.09868 3.21491L5.24642 3.65811C5.31447 3.86228 5.50554 4 5.72076 4ZM7.5 5V7H1.5C1.22386 7 1 6.77614 1 6.5V5.5C1 5.22386 1.22386 5 1.5 5H7.5ZM8.5 7V5H14.5C14.7761 5 15 5.22386 15 5.5V6.5C15 6.77614 14.7761 7 14.5 7H8.5ZM7.5 8H2V13C2 13.5523 2.44772 14 3 14H7.5V8ZM8.5 14V8H14V13C14 13.5523 13.5523 14 13 14H8.5ZM10.2792 4C10.4945 4 10.6855 3.86228 10.7536 3.65811L10.9013 3.21491C11.1005 2.61722 10.6557 2 10.0257 2C9.62836 2 9.27564 2.25423 9.15 2.63114L8.69371 4H10.2792Z" fill="#0E1011"/>
</svg>
