<svg viewBox="0 0 12 12" fill="none" xmlns="http://www.w3.org/2000/svg">
<path d="M5.99999 7.8003C5.33849 7.8003 4.76033 7.44354 4.4474 6.91193C4.4454 6.90815 4.44332 6.90439 4.44117 6.90065L4.42214 6.86757C4.28036 6.61026 4.19969 6.31455 4.19969 6C4.19969 5.00572 5.00571 4.1997 5.99999 4.1997C6.99427 4.1997 7.80029 5.00572 7.80029 6C7.80029 6.32295 7.71526 6.62603 7.56636 6.88809C7.56318 6.89316 7.5601 6.89834 7.55713 6.90361L7.54976 6.91669C7.23619 7.44567 6.6595 7.8003 5.99999 7.8003Z" fill="#0E1011"/>
<path fill-rule="evenodd" clip-rule="evenodd" d="M12 6C12 9.31371 9.31371 12 6 12C2.68629 12 0 9.31371 0 6C0 2.68629 2.68629 0 6 0C9.31371 0 12 2.68629 12 6ZM2.15235 2.92231C2.04907 2.74279 1.81981 2.68099 1.6403 2.78427C1.46078 2.88755 1.39898 3.1168 1.50226 3.29632L3.76484 7.22905C4.19886 8.01669 5.03711 8.5503 5.99999 8.5503C6.23599 8.5503 6.46451 8.51825 6.68142 8.45825L5.31071 10.8917C5.20906 11.0721 5.27295 11.3008 5.45339 11.4024C5.63384 11.5041 5.86252 11.4402 5.96417 11.2598L8.19657 7.29659C8.42131 6.91667 8.55029 6.4734 8.55029 6C8.55029 5.2973 8.26609 4.66097 7.80635 4.1997H10.5872C10.7943 4.1997 10.9622 4.03181 10.9622 3.8247C10.9622 3.61759 10.7943 3.4497 10.5872 3.4497H5.99999C4.8229 3.4497 3.83207 4.24715 3.53827 5.33126L2.15235 2.92231Z" fill="#0E1011"/>
</svg>
