<svg viewBox="0 0 16 16" fill="none" xmlns="http://www.w3.org/2000/svg">
<path fill-rule="evenodd" clip-rule="evenodd" d="M5.99988 2.5C4.06688 2.5 2.49988 4.067 2.49988 6C2.49988 7.933 4.06688 9.5 5.99988 9.5C7.93287 9.5 9.49988 7.933 9.49988 6C9.49988 4.067 7.93287 2.5 5.99988 2.5ZM3.49988 6C3.49988 4.61929 4.61917 3.5 5.99988 3.5C7.38059 3.5 8.49988 4.61929 8.49988 6C8.49988 7.38071 7.38059 8.5 5.99988 8.5C4.61917 8.5 3.49988 7.38071 3.49988 6Z" fill="#0E1011"/>
<path fill-rule="evenodd" clip-rule="evenodd" d="M2.70681 10H3.49986L5.07138 10.6286C5.66741 10.867 6.33231 10.867 6.92833 10.6286L8.49986 10H9.2929C10.5537 10 11.6172 10.9388 11.7736 12.1899L11.9148 13.3194C10.4496 14.9642 8.31546 16 5.93944 16C3.62021 16 1.53149 15.0131 0.0703125 13.4364L0.226118 12.1899C0.382502 10.9388 1.446 10 2.70681 10ZM5.93944 15C4.07316 15 2.37849 14.2707 1.12272 13.0793L1.2184 12.3139C1.31223 11.5633 1.95033 11 2.70681 11H3.30727L4.69999 11.5571C5.53443 11.8909 6.46529 11.8909 7.29972 11.5571L8.69244 11H9.2929C10.0494 11 10.6875 11.5633 10.7813 12.3139L10.8639 12.9749C9.59823 14.228 7.85954 15 5.93944 15Z" fill="#0E1011"/>
<path d="M8.99093 1.04868C9.3649 0.905434 9.76668 0.84965 10.1655 0.885598C10.5644 0.921546 10.9497 1.04827 11.292 1.25608C11.6344 1.46388 11.9246 1.74726 12.1406 2.08451C12.3565 2.42177 12.4924 2.80396 12.5379 3.20183C12.5834 3.5997 12.5373 4.00271 12.403 4.38C12.2687 4.75729 12.05 5.09886 11.7634 5.37857C11.4768 5.65828 11.13 5.86871 10.7495 5.99375C10.5528 6.05842 10.4457 6.27034 10.5104 6.4671C10.5751 6.66385 10.787 6.77092 10.9837 6.70625C11.4729 6.54548 11.9187 6.27493 12.2872 5.9153C12.6557 5.55568 12.937 5.11651 13.1096 4.63142C13.2822 4.14634 13.3415 3.62819 13.2831 3.11664C13.2246 2.60509 13.0498 2.1137 12.7722 1.68009C12.4945 1.24648 12.1214 0.882136 11.6812 0.614958C11.2411 0.347779 10.7457 0.184844 10.2329 0.138626C9.72005 0.092407 9.20347 0.16413 8.72266 0.348304C8.24184 0.532478 7.80954 0.82422 7.45884 1.2012C7.31777 1.35284 7.32634 1.59012 7.47798 1.73118C7.62961 1.87225 7.8669 1.86368 8.00796 1.71204C8.28073 1.41884 8.61696 1.19193 8.99093 1.04868Z" fill="#0E1011"/>
<path d="M12.1521 7.625L10.6511 8.17147C10.4392 8.24861 10.2153 8.29062 9.98976 8.29699C9.78274 8.30285 9.61966 8.47542 9.62551 8.68244C9.63136 8.88946 9.80393 9.05255 10.011 9.04669C10.3151 9.0381 10.6186 8.98144 10.9077 8.87621L12.2844 8.375H12.9443C13.9386 8.375 14.7299 9.0449 14.844 9.87595L14.9479 10.6321C14.3611 11.1995 13.6586 11.6695 12.8733 12.0103C12.6833 12.0928 12.5962 12.3136 12.6786 12.5036C12.7611 12.6936 12.9819 12.7808 13.1719 12.6983C14.1025 12.2945 14.9317 11.7244 15.6128 11.0285L15.7413 10.8972L15.5871 9.77391C15.4148 8.51983 14.2587 7.625 12.9443 7.625H12.1521Z" fill="#0E1011"/>
</svg>
