<svg viewBox="0 0 12 12" fill="none" xmlns="http://www.w3.org/2000/svg">
<path fill-rule="evenodd" clip-rule="evenodd" d="M2.42857 0.21967C2.56253 0.0790177 2.74421 0 2.93365 0H9.06635C9.25579 0 9.43747 0.0790174 9.57143 0.21967L11 1.71967V9.375C11 10.8247 9.88071 12 8.5 12H3.5C2.11929 12 1 10.8247 1 9.375V1.71967L2.42857 0.21967ZM9.06635 0.75H2.93365L2.21936 1.5H9.78064L9.06635 0.75ZM10.2857 2.25H8.85714V3.375C8.85714 4.41053 8.05765 5.25 7.07143 5.25H4.92857C3.94235 5.25 3.14286 4.41053 3.14286 3.375V2.25H1.71429V9.375C1.71429 10.4105 2.51378 11.25 3.5 11.25H8.5C9.48622 11.25 10.2857 10.4105 10.2857 9.375V2.25ZM3.85714 2.25V3.375C3.85714 3.99632 4.33684 4.5 4.92857 4.5H7.07143C7.66316 4.5 8.14286 3.99632 8.14286 3.375V2.25H3.85714Z" fill="#0E1011"/>
</svg>
