<svg viewBox="0 0 16 16" fill="none" xmlns="http://www.w3.org/2000/svg">
<path d="M14.8964 0.396447C15.0917 0.201184 15.4083 0.201184 15.6036 0.396447C15.7988 0.591709 15.7988 0.908291 15.6036 1.10355L7.22947 9.47764C7.9097 10.1015 8.66525 10.6445 9.48089 11.0915C9.6706 11.1955 9.90517 11.1573 10.0581 11.0043L11.6905 9.372C12.4192 9.66029 13.1945 9.8562 14.002 9.94529C14.5509 10.0059 15 10.4477 15 11V13C15 14.1046 14.1 15.015 13.0065 14.8592C11.1881 14.5999 9.48222 13.9913 7.95916 13.1033C7.05727 12.5775 6.21947 11.9538 5.46034 11.2468L1.10355 15.6036C0.908291 15.7988 0.591709 15.7988 0.396446 15.6036C0.201185 15.4083 0.201185 15.0917 0.396446 14.8964L14.8964 0.396447Z" fill="#0E1011"/>
<path d="M2.99396 8.20514C3.21758 8.57697 3.45799 8.93756 3.71414 9.28586L5.50703 7.49297C5.32964 7.23412 5.16256 6.96764 5.00639 6.69413C4.89757 6.50355 4.93437 6.26473 5.08955 6.10955L6.70389 4.49521C6.37395 3.71304 6.1514 2.87449 6.05471 1.99803C5.99415 1.44908 5.55229 1 5 1H3C1.89543 1 0.984955 1.89993 1.14084 2.99344C1.40944 4.87759 2.05316 6.64084 2.99396 8.20514Z" fill="#0E1011"/>
</svg>
