<svg viewBox="0 0 16 16" fill="none" xmlns="http://www.w3.org/2000/svg">
<path d="M11.5 5.5C12.0523 5.5 12.5 5.05228 12.5 4.5C12.5 3.94772 12.0523 3.5 11.5 3.5C10.9477 3.5 10.5 3.94772 10.5 4.5C10.5 5.05228 10.9477 5.5 11.5 5.5Z" fill="#0E1011"/>
<path fill-rule="evenodd" clip-rule="evenodd" d="M10.75 0C7.8505 0 5.5 2.35051 5.5 5.25C5.5 5.72117 5.56219 6.17849 5.67903 6.61387L0 12.2929V16H3.5C4.05229 16 4.5 15.5523 4.5 15V14.5H5C5.55228 14.5 6 14.0523 6 13.5V13H6.5C7.05229 13 7.5 12.5523 7.5 12V11.2071L8.64589 10.0612C9.29053 10.3435 10.0025 10.5 10.75 10.5C13.6495 10.5 16 8.14949 16 5.25C16 2.35051 13.6495 0 10.75 0ZM6.5 5.25C6.5 2.90279 8.40279 1 10.75 1C13.0972 1 15 2.90279 15 5.25C15 7.59721 13.0972 9.5 10.75 9.5C10.0362 9.5 9.36494 9.32444 8.77551 9.01458L8.44963 8.84327L6.5 10.7929V12H5V13.5H3.5V15H1V12.7071L6.81601 6.8911L6.71801 6.59778C6.57673 6.17492 6.5 5.72193 6.5 5.25Z" fill="#0E1011"/>
</svg>
