<svg viewBox="0 0 12 12" fill="none" xmlns="http://www.w3.org/2000/svg">
<path d="M4 5.5C3.72386 5.5 3.5 5.72386 3.5 6C3.5 6.27614 3.72386 6.5 4 6.5H8C8.27614 6.5 8.5 6.27614 8.5 6C8.5 5.72386 8.27614 5.5 8 5.5H4Z" fill="#0E1011"/>
<path fill-rule="evenodd" clip-rule="evenodd" d="M12 6C12 9.31371 9.31371 12 6 12C2.68629 12 0 9.31371 0 6C0 2.68629 2.68629 0 6 0C9.31371 0 12 2.68629 12 6ZM11.25 6C11.25 8.8995 8.8995 11.25 6 11.25C3.10051 11.25 0.75 8.8995 0.75 6C0.75 3.10051 3.10051 0.75 6 0.75C8.8995 0.75 11.25 3.10051 11.25 6Z" fill="#0E1011"/>
</svg>
