<svg viewBox="0 0 12 12" fill="none" xmlns="http://www.w3.org/2000/svg">
<path d="M3 3.75C3 2.50736 4.00736 1.5 5.25 1.5H6.75C7.99264 1.5 9 2.50736 9 3.75H8.25C8.25 2.92157 7.57843 2.25 6.75 2.25H5.25C4.42157 2.25 3.75 2.92157 3.75 3.75V3.80948C3.75 4.22034 3.917 4.60016 4.19417 4.875H3.26821C3.09616 4.55529 3 4.19132 3 3.80948V3.75Z" fill="#0E1011"/>
<path d="M8.18083 7.125H9.10679C9.27884 7.44471 9.375 7.80868 9.375 8.19052V8.25C9.375 9.49264 8.36764 10.5 7.125 10.5H5.25C4.00736 10.5 3 9.49264 3 8.25H3.75C3.75 9.07843 4.42157 9.75 5.25 9.75H7.125C7.95343 9.75 8.625 9.07843 8.625 8.25V8.19052C8.625 7.77966 8.458 7.39984 8.18083 7.125Z" fill="#0E1011"/>
<path d="M1.875 5.625C1.66789 5.625 1.5 5.79289 1.5 6C1.5 6.20711 1.66789 6.375 1.875 6.375H10.125C10.3321 6.375 10.5 6.20711 10.5 6C10.5 5.79289 10.3321 5.625 10.125 5.625H1.875Z" fill="#0E1011"/>
</svg>
