<svg viewBox="0 0 12 12" fill="none" xmlns="http://www.w3.org/2000/svg">
<path fill-rule="evenodd" clip-rule="evenodd" d="M1.125 1.5C0.50368 1.5 0 2.00368 0 2.625V9C0 9.82843 0.671573 10.5 1.5 10.5H6.19204C6.06767 10.1481 6 9.76946 6 9.375C6 7.51104 7.51104 6 9.375 6C10.4352 6 11.3813 6.48888 12 7.2535V3.75C12 2.92157 11.3284 2.25 10.5 2.25H6.09099C5.89208 2.25 5.70131 2.17098 5.56066 2.03033L5.46967 1.93934C5.18837 1.65804 4.80683 1.5 4.40901 1.5H1.125ZM5.51517 3.26514C5.66161 3.11869 5.66161 2.88126 5.51516 2.73481C5.36871 2.58837 5.13128 2.58837 4.98483 2.73482L4.93932 2.78033C4.79867 2.92099 4.6079 3.00001 4.40898 3.00001H1.125C0.917893 3.00001 0.75 3.1679 0.75 3.37501C0.75 3.58212 0.917893 3.75001 1.125 3.75001H4.40898C4.80682 3.75001 5.18835 3.59197 5.46966 3.31066L5.51517 3.26514Z" fill="#0E1011"/>
<path fill-rule="evenodd" clip-rule="evenodd" d="M12 9.375C12 10.8247 10.8247 12 9.375 12C7.92525 12 6.75 10.8247 6.75 9.375C6.75 7.92525 7.92525 6.75 9.375 6.75C10.8247 6.75 12 7.92525 12 9.375ZM9.375 7.5C9.58211 7.5 9.75 7.66789 9.75 7.875V9H10.875C11.0821 9 11.25 9.16789 11.25 9.375C11.25 9.58211 11.0821 9.75 10.875 9.75H9.75V11.0625C9.75 11.2696 9.58211 11.4375 9.375 11.4375C9.16789 11.4375 9 11.2696 9 11.0625V9.75H7.875C7.66789 9.75 7.5 9.58211 7.5 9.375C7.5 9.16789 7.66789 9 7.875 9H9V7.875C9 7.66789 9.16789 7.5 9.375 7.5Z" fill="#0E1011"/>
</svg>
