<svg viewBox="0 0 16 16" fill="none" xmlns="http://www.w3.org/2000/svg">
<path fill-rule="evenodd" clip-rule="evenodd" d="M6.53053 1.50094C6.74823 1.51426 6.93217 1.66715 6.98507 1.87874L9.60132 12.3437L11.5333 7.32052C11.6076 7.12742 11.7931 7.00001 12 7.00001H15.5C15.7761 7.00001 16 7.22386 16 7.50001C16 7.77615 15.7761 8.00001 15.5 8.00001H12.3434L9.96667 14.1795C9.88838 14.3831 9.68717 14.5124 9.46947 14.4991C9.25177 14.4858 9.06783 14.3329 9.01493 14.1213L6.39868 3.65628L4.46667 8.6795C4.39241 8.87259 4.20689 9.00001 4 9.00001H0.5C0.223858 9.00001 0 8.77615 0 8.50001C0 8.22386 0.223858 8.00001 0.5 8.00001H3.6566L6.03333 1.82052C6.11162 1.61695 6.31283 1.48762 6.53053 1.50094Z" fill="#0E1011"/>
</svg>
