<svg height="13" viewBox="0 0 12 13" fill="none" xmlns="http://www.w3.org/2000/svg">
<path d="M9.90533 0.937444L10.3447 1.37678C10.6376 1.66968 10.6376 2.14455 10.3447 2.43744L9.26517 3.51695L7.76517 2.01695L8.84467 0.937443C9.13756 0.64455 9.61244 0.64455 9.90533 0.937444Z" fill="#0E1011"/>
<path d="M7.23483 2.54728L1.125 8.65711V10.1571H2.625L8.73483 4.04728L7.23483 2.54728Z" fill="#0E1011"/>
<path d="M0.375 11.6571C0.375 11.45 0.542893 11.2821 0.75 11.2821H11.25C11.4571 11.2821 11.625 11.45 11.625 11.6571C11.625 11.8642 11.4571 12.0321 11.25 12.0321H0.75C0.542893 12.0321 0.375 11.8642 0.375 11.6571Z" fill="#0E1011"/>
</svg>
