<svg viewBox="0 0 12 12" fill="none" xmlns="http://www.w3.org/2000/svg">
<path d="M4.03674 0.9659L3.88517 2.02691C4.51564 1.69061 5.23556 1.5 6.00001 1.5C6.76442 1.5 7.48431 1.6906 8.11475 2.02686L7.96319 0.965901C7.88401 0.411671 7.40935 0 6.84949 0H5.15044C4.59058 0 4.11592 0.41167 4.03674 0.9659Z" fill="#0E1011"/>
<path d="M7.96319 11.0341L8.11475 9.97314C7.48431 10.3094 6.76442 10.5 6.00001 10.5C5.23556 10.5 4.51564 10.3094 3.88517 9.97309L4.03674 11.0341C4.11592 11.5883 4.59058 12 5.15044 12H6.84949C7.40935 12 7.88401 11.5883 7.96319 11.0341Z" fill="#0E1011"/>
<path fill-rule="evenodd" clip-rule="evenodd" d="M6 2.25C8.07107 2.25 9.75 3.92893 9.75 6C9.75 8.07107 8.07107 9.75 6 9.75C3.92893 9.75 2.25 8.07107 2.25 6C2.25 3.92893 3.92893 2.25 6 2.25ZM5.73484 5.73484L7.23484 4.23484L7.76516 4.76516L6.53033 6L7.39016 6.85983L6.85984 7.39017L5.73484 6.26517C5.58839 6.11872 5.58839 5.88128 5.73484 5.73484Z" fill="#0E1011"/>
</svg>
