<svg viewBox="0 0 16 16" fill="none" xmlns="http://www.w3.org/2000/svg">
<path fill-rule="evenodd" clip-rule="evenodd" d="M0 3.5C0 3.22386 0.223858 3 0.5 3H1.5C1.77614 3 2 3.22386 2 3.5C2 3.77614 1.77614 4 1.5 4H0.5C0.223858 4 0 3.77614 0 3.5ZM4 3.5C4 3.22386 4.22386 3 4.5 3H13.5C13.7761 3 14 3.22386 14 3.5C14 3.77614 13.7761 4 13.5 4H4.5C4.22386 4 4 3.77614 4 3.5ZM0 8C0 7.72386 0.223858 7.5 0.5 7.5H1.5C1.77614 7.5 2 7.72386 2 8C2 8.27614 1.77614 8.5 1.5 8.5H0.5C0.223858 8.5 0 8.27614 0 8ZM4 8C4 7.72386 4.22386 7.5 4.5 7.5H15.5C15.7761 7.5 16 7.72386 16 8C16 8.27614 15.7761 8.5 15.5 8.5H4.5C4.22386 8.5 4 8.27614 4 8ZM0 12.5C0 12.2239 0.223858 12 0.5 12H1.5C1.77614 12 2 12.2239 2 12.5C2 12.7761 1.77614 13 1.5 13H0.5C0.223858 13 0 12.7761 0 12.5ZM4 12.5C4 12.2239 4.22386 12 4.5 12H10.5C10.7761 12 11 12.2239 11 12.5C11 12.7761 10.7761 13 10.5 13H4.5C4.22386 13 4 12.7761 4 12.5Z" fill="#0E1011"/>
</svg>
