<svg viewBox="0 0 16 16" fill="none" xmlns="http://www.w3.org/2000/svg">
<path fill-rule="evenodd" clip-rule="evenodd" d="M8 3.5C8 3.31403 7.89678 3.14342 7.73205 3.05711C7.56732 2.9708 7.3683 2.98305 7.21539 3.08891L0.715395 7.58891C0.580496 7.6823 0.5 7.83593 0.5 8C0.5 8.16407 0.580496 8.31771 0.715395 8.4111L7.21539 12.9111C7.3683 13.017 7.56732 13.0292 7.73205 12.9429C7.89678 12.8566 8 12.686 8 12.5V8.60813L14.2154 12.9111C14.3683 13.017 14.5673 13.0292 14.7321 12.9429C14.8968 12.8566 15 12.686 15 12.5V3.5C15 3.31403 14.8968 3.14342 14.7321 3.05711C14.5673 2.9708 14.3683 2.98305 14.2154 3.08891L8 7.39187V3.5ZM7 11.5457L1.87841 8L7 4.45429V11.5457ZM14 11.5457L8.87841 8L14 4.45429V11.5457Z" fill="#0E1011"/>
</svg>
