<svg viewBox="0 0 12 12" fill="none" xmlns="http://www.w3.org/2000/svg">
<path fill-rule="evenodd" clip-rule="evenodd" d="M1.6875 3C1.16973 3 0.75 3.41973 0.75 3.9375V8.0625C0.75 8.58027 1.16973 9 1.6875 9H9.5625C10.0803 9 10.5 8.58027 10.5 8.0625V3.9375C10.5 3.41973 10.0803 3 9.5625 3H1.6875ZM0 3.9375C0 3.00552 0.755519 2.25 1.6875 2.25H9.5625C10.4945 2.25 11.25 3.00552 11.25 3.9375V4.875H11.4375C11.7482 4.875 12 5.12684 12 5.4375V6.9375C12 7.24816 11.7482 7.5 11.4375 7.5H11.25V8.0625C11.25 8.99448 10.4945 9.75 9.5625 9.75H1.6875C0.75552 9.75 0 8.99448 0 8.0625V3.9375Z" fill="#0E1011"/>
</svg>
