<svg viewBox="0 0 16 16" fill="none" xmlns="http://www.w3.org/2000/svg">
<path fill-rule="evenodd" clip-rule="evenodd" d="M7.94588 13.9999L7.99991 14L8.05412 13.9999C8.08916 13.9998 8.14056 13.9997 8.20629 13.9994C8.33774 13.9987 8.52661 13.9974 8.75682 13.9949C9.21704 13.9897 9.8435 13.9794 10.5074 13.9588C11.1705 13.9383 11.8751 13.9073 12.4904 13.8605C13.0912 13.8147 13.6508 13.7511 13.9977 13.6543L14.0049 13.6522C14.4136 13.5316 14.782 13.3012 15.0741 12.987C15.366 12.6729 15.5715 12.2861 15.6722 11.8663C15.6747 11.8559 15.6769 11.8454 15.6787 11.8348C15.8965 10.5742 16.0039 9.29568 15.9996 8.01491C16.0073 6.71468 15.8999 5.41643 15.6787 4.1367C15.6769 4.12615 15.6747 4.11566 15.6722 4.10525C15.5715 3.68547 15.366 3.2986 15.0741 2.98453C14.782 2.67032 14.4136 2.43997 14.0049 2.3193C13.9989 2.31753 13.9929 2.31587 13.9868 2.31432C13.6439 2.22695 13.0881 2.16904 12.4871 2.12727C11.8728 2.08458 11.1688 2.05632 10.5061 2.03755C9.84252 2.01877 9.21637 2.00938 8.75634 2.0047C8.52623 2.00235 8.33745 2.00118 8.20608 2.00059C8.14038 2.00029 8.08903 2.00015 8.05402 2.00007L7.99991 2L7.94588 2.00008C7.91083 2.00016 7.85944 2.00032 7.79371 2.00065C7.66226 2.00129 7.47339 2.00258 7.24318 2.00515C6.78296 2.01028 6.1565 2.02056 5.49259 2.04115C4.8295 2.06172 4.12487 2.09268 3.50958 2.13952C2.90878 2.18525 2.34917 2.24888 2.00225 2.3457L1.99508 2.34776C1.5864 2.46843 1.21799 2.69878 0.925943 3.01299C0.63403 3.32706 0.428478 3.71393 0.327798 4.13371C0.325299 4.14413 0.323136 4.15463 0.321312 4.16519C0.101849 5.43523 -0.00556947 6.72352 0.000382773 8.01391C-0.00728077 9.31403 0.100145 10.6121 0.321315 11.8918C0.324019 11.9074 0.327468 11.9229 0.331648 11.9382C0.442692 12.3452 0.653006 12.7175 0.944408 13.0185C1.23594 13.3196 1.59896 13.5391 1.99938 13.6535L2.00225 13.6543C2.34918 13.7511 2.90878 13.8147 3.50958 13.8605C4.12487 13.9073 4.8295 13.9383 5.49259 13.9588C6.1565 13.9794 6.78296 13.9897 7.24318 13.9949C7.47339 13.9974 7.66226 13.9987 7.79371 13.9994C7.85944 13.9997 7.91083 13.9998 7.94588 13.9999ZM6.765 5.076C6.61087 4.97967 6.41659 4.97457 6.25762 5.06268C6.09864 5.15079 6 5.31824 6 5.5V10.5C6 10.6818 6.09864 10.8492 6.25762 10.9373C6.41659 11.0254 6.61087 11.0203 6.765 10.924L10.765 8.424C10.9112 8.33263 11 8.1724 11 8C11 7.82761 10.9112 7.66737 10.765 7.576L6.765 5.076Z" fill="#0E1011"/>
</svg>
