<svg height="18" viewBox="0 0 16 18" fill="none" xmlns="http://www.w3.org/2000/svg">
<path fill-rule="evenodd" clip-rule="evenodd" d="M9.81415 0.978729L8.74029 6.34805C8.68613 6.61883 8.42272 6.79444 8.15194 6.74028C7.88116 6.68612 7.70555 6.42271 7.75971 6.15193L8.18585 4.02125L7.10355 5.10354C6.90829 5.29881 6.59171 5.29881 6.39645 5.10354C6.20118 4.90828 6.20118 4.5917 6.39645 4.39644L9.81415 0.978729ZM0.396447 1.39644C0.591709 1.20117 0.908291 1.20117 1.10355 1.39644L15.6036 15.8964C15.7988 16.0917 15.7988 16.4083 15.6036 16.6035C15.4083 16.7988 15.0917 16.7988 14.8964 16.6035L10.6353 12.3424L5.49268 17.1177L7.37374 10.8475L1.53721 9.25567L4.54289 6.24999L0.396447 2.10354C0.201184 1.90828 0.201184 1.5917 0.396447 1.39644ZM5.25 6.9571L3.46279 8.74431L8.37762 10.0847L5.25 6.9571ZM8.58453 10.2916L7.50732 13.8823L9.9277 11.6348L8.58453 10.2916ZM9.58012 7.93093C9.65278 7.66452 9.92765 7.50745 10.1941 7.58011L14.4994 8.75429L12.5439 10.5701C12.3416 10.758 12.0252 10.7463 11.8373 10.5439C11.6494 10.3416 11.6611 10.0252 11.8635 9.8373L12.5006 9.24569L9.93094 8.54487C9.66453 8.47221 9.50746 8.19734 9.58012 7.93093Z" fill="#0E1011"/>
</svg>
