<svg viewBox="0 0 12 12" fill="none" xmlns="http://www.w3.org/2000/svg">
<path fill-rule="evenodd" clip-rule="evenodd" d="M11.4248 6.75H6V9.375C6 9.99632 6.50368 10.5 7.125 10.5C7.74632 10.5 8.25 9.99632 8.25 9.375V9.1875C8.25 8.98039 8.41789 8.8125 8.625 8.8125C8.83211 8.8125 9 8.98039 9 9.1875V9.375C9 10.4105 8.16053 11.25 7.125 11.25C6.08947 11.25 5.25 10.4105 5.25 9.375V6.75H0.575229C0.378013 6.75 0.214498 6.59724 0.201096 6.40048C0.192079 6.2681 0.1875 6.13456 0.1875 6C0.1875 2.78984 2.78984 0.1875 6 0.1875C9.21016 0.1875 11.8125 2.78984 11.8125 6C11.8125 6.13456 11.8079 6.2681 11.7989 6.40048C11.7855 6.59724 11.622 6.75 11.4248 6.75ZM3.07812 3.08826C3.82541 2.33838 4.85824 1.875 6 1.875C6.20711 1.875 6.375 1.70711 6.375 1.5C6.375 1.29289 6.20711 1.125 6 1.125C4.65086 1.125 3.42913 1.67354 2.54688 2.55884C2.40068 2.70554 2.40109 2.94298 2.54779 3.08917C2.69449 3.23536 2.93193 3.23495 3.07812 3.08826Z" fill="#0E1011"/>
</svg>
