<svg viewBox="0 0 16 16" fill="none" xmlns="http://www.w3.org/2000/svg">
<path fill-rule="evenodd" clip-rule="evenodd" d="M7.30866 0.0380749C7.4955 -0.0393156 7.71055 0.0034622 7.85355 0.146461L11.8536 4.14646C11.9473 4.24023 12 4.36741 12 4.50001C12 4.63262 11.9473 4.7598 11.8536 4.85357L8.70711 8.00001L11.8536 11.1465C11.9473 11.2402 12 11.3674 12 11.5C12 11.6326 11.9473 11.7598 11.8536 11.8536L7.85355 15.8536C7.71055 15.9966 7.4955 16.0393 7.30866 15.962C7.12182 15.8846 7 15.7022 7 15.5V9.70712L4.85355 11.8536C4.65829 12.0488 4.34171 12.0488 4.14645 11.8536C3.95118 11.6583 3.95118 11.3417 4.14645 11.1465L7 8.29291V7.70712L4.14645 4.85357C3.95118 4.65831 3.95118 4.34172 4.14645 4.14646C4.34171 3.9512 4.65829 3.9512 4.85355 4.14646L7 6.29291V0.500015C7 0.297783 7.12182 0.115465 7.30866 0.0380749ZM8 8.70712V14.2929L10.7929 11.5L8 8.70712ZM8 7.29291L10.7929 4.50001L8 1.70712V7.29291Z" fill="#0E1011"/>
</svg>
