<svg viewBox="0 0 16 16" fill="none" xmlns="http://www.w3.org/2000/svg">
<path fill-rule="evenodd" clip-rule="evenodd" d="M9.54662 0.921433C8.8893 -0.320162 7.11068 -0.320166 6.45336 0.921429L0.359945 12.4312C-0.257085 13.5967 0.587817 15 1.90657 15H14.0934C15.4122 15 16.2571 13.5967 15.64 12.4312L9.54662 0.921433ZM7.99999 4.50002C8.27613 4.50002 8.49999 4.72388 8.49999 5.00002V8.50002C8.49999 8.77617 8.27613 9.00002 7.99999 9.00002C7.72385 9.00002 7.49999 8.77617 7.49999 8.50002L7.49999 5.00002C7.49999 4.72388 7.72385 4.50002 7.99999 4.50002ZM7.99999 10C8.27613 10 8.49999 10.2239 8.49999 10.5V11C8.49999 11.2762 8.27613 11.5 7.99999 11.5C7.72385 11.5 7.49999 11.2762 7.49999 11V10.5C7.49999 10.2239 7.72385 10 7.99999 10Z" fill="#0E1011"/>
</svg>
