<svg viewBox="0 0 12 12" fill="none" xmlns="http://www.w3.org/2000/svg">
<path fill-rule="evenodd" clip-rule="evenodd" d="M0 2.625C0 2.41789 0.167893 2.25 0.375 2.25H1.125C1.33211 2.25 1.5 2.41789 1.5 2.625C1.5 2.83211 1.33211 3 1.125 3H0.375C0.167893 3 0 2.83211 0 2.625ZM2.25 2.625C2.25 2.41789 2.41789 2.25 2.625 2.25H10.125C10.3321 2.25 10.5 2.41789 10.5 2.625C10.5 2.83211 10.3321 3 10.125 3H2.625C2.41789 3 2.25 2.83211 2.25 2.625ZM0 6C0 5.79289 0.167893 5.625 0.375 5.625H1.125C1.33211 5.625 1.5 5.79289 1.5 6C1.5 6.20711 1.33211 6.375 1.125 6.375H0.375C0.167893 6.375 0 6.20711 0 6ZM2.25 6C2.25 5.79289 2.41789 5.625 2.625 5.625H11.625C11.8321 5.625 12 5.79289 12 6C12 6.20711 11.8321 6.375 11.625 6.375H2.625C2.41789 6.375 2.25 6.20711 2.25 6ZM0 9.375C0 9.16789 0.167893 9 0.375 9H1.125C1.33211 9 1.5 9.16789 1.5 9.375C1.5 9.58211 1.33211 9.75 1.125 9.75H0.375C0.167893 9.75 0 9.58211 0 9.375ZM2.25 9.375C2.25 9.16789 2.41789 9 2.625 9H7.875C8.08211 9 8.25 9.16789 8.25 9.375C8.25 9.58211 8.08211 9.75 7.875 9.75H2.625C2.41789 9.75 2.25 9.58211 2.25 9.375Z" fill="#0E1011"/>
</svg>
