<svg viewBox="0 0 12 12" fill="none" xmlns="http://www.w3.org/2000/svg">
<path fill-rule="evenodd" clip-rule="evenodd" d="M1 1.35714V6.35714C1 8.92132 3.07868 11 5.64286 11H6.35714C8.92132 11 11 8.92132 11 6.35714V1.35714C11 1.1599 10.8401 1 10.6429 1H1.35714C1.1599 1 1 1.1599 1 1.35714ZM3.85714 4.92857V5.28571C3.85714 6.46918 4.81653 7.42857 6 7.42857C7.18347 7.42857 8.14286 6.46918 8.14286 5.28571V4.92857H7.42857V5.28571C7.42857 6.07469 6.78898 6.71429 6 6.71429C5.21102 6.71429 4.57143 6.07469 4.57143 5.28571V4.92857H3.85714Z" fill="#0E1011"/>
</svg>
