<svg viewBox="0 0 12 12" fill="none" xmlns="http://www.w3.org/2000/svg">
<path fill-rule="evenodd" clip-rule="evenodd" d="M6 3.375C4.55025 3.375 3.375 4.55025 3.375 6C3.375 7.44975 4.55025 8.625 6 8.625C7.44975 8.625 8.625 7.44975 8.625 6C8.625 4.55025 7.44975 3.375 6 3.375ZM4.125 6C4.125 4.96447 4.96447 4.125 6 4.125C7.03553 4.125 7.875 4.96447 7.875 6C7.875 7.03553 7.03553 7.875 6 7.875C4.96447 7.875 4.125 7.03553 4.125 6Z" fill="#0E1011"/>
<path fill-rule="evenodd" clip-rule="evenodd" d="M6 12C9.31371 12 12 9.31371 12 6C12 2.68629 9.31371 0 6 0C2.68629 0 0 2.68629 0 6C0 9.31371 2.68629 12 6 12ZM11.25 6C11.25 8.8995 8.8995 11.25 6 11.25C3.1005 11.25 0.75 8.8995 0.75 6C0.75 3.1005 3.1005 0.75 6 0.75C8.8995 0.75 11.25 3.1005 11.25 6Z" fill="#0E1011"/>
</svg>
