<svg viewBox="0 0 12 12" fill="none" xmlns="http://www.w3.org/2000/svg">
<path d="M8.76517 4.76516C8.91161 4.61872 8.91161 4.38128 8.76517 4.23484C8.61872 4.08839 8.38128 4.08839 8.23483 4.23484L5.5 6.96967L4.26516 5.73483C4.11872 5.58839 3.88128 5.58839 3.73483 5.73483C3.58839 5.88128 3.58839 6.11872 3.73483 6.26517L5.5 8.03033L8.76517 4.76516Z" fill="#0E1011"/>
<path fill-rule="evenodd" clip-rule="evenodd" d="M0.392072 6.99266C-0.130691 6.43413 -0.130691 5.56587 0.392072 5.00734L0.916044 4.44751C1.15663 4.19045 1.29568 3.85477 1.30732 3.50288L1.33268 2.73652C1.35797 1.97192 1.97192 1.35797 2.73652 1.33268L3.50288 1.30732C3.85477 1.29568 4.19045 1.15663 4.44751 0.916044L5.00734 0.392072C5.56587 -0.130691 6.43413 -0.130691 6.99266 0.392072L7.55249 0.916044C7.80955 1.15663 8.14523 1.29568 8.49712 1.30732L9.26348 1.33268C10.0281 1.35797 10.642 1.97192 10.6673 2.73652L10.6927 3.50288C10.7043 3.85477 10.8434 4.19045 11.084 4.44751L11.6079 5.00734C12.1307 5.56587 12.1307 6.43413 11.6079 6.99266L11.084 7.55249C10.8434 7.80955 10.7043 8.14523 10.6927 8.49712L10.6673 9.26348C10.642 10.0281 10.0281 10.642 9.26348 10.6673L8.49712 10.6927C8.14523 10.7043 7.80955 10.8434 7.55249 11.084L6.99266 11.6079C6.43413 12.1307 5.56587 12.1307 5.00734 11.6079L4.44751 11.084C4.19045 10.8434 3.85477 10.7043 3.50288 10.6927L2.73652 10.6673C1.97192 10.642 1.35797 10.0281 1.33268 9.26348L1.30732 8.49712C1.29568 8.14523 1.15663 7.80955 0.916044 7.55249L0.392072 6.99266ZM6.48016 0.939649L7.03999 1.46362C7.42976 1.82842 7.93876 2.03926 8.47232 2.05691L9.23868 2.08227C9.60853 2.0945 9.9055 2.39147 9.91773 2.76132L9.94309 3.52768C9.96074 4.06124 10.1716 4.57024 10.5364 4.96001L11.0604 5.51984C11.3132 5.79001 11.3132 6.20999 11.0604 6.48016L10.5364 7.03999C10.1716 7.42976 9.96074 7.93876 9.94309 8.47232L9.91773 9.23868C9.9055 9.60853 9.60853 9.9055 9.23868 9.91773L8.47232 9.94309C7.93876 9.96074 7.42976 10.1716 7.03999 10.5364L6.48016 11.0604C6.20999 11.3132 5.79001 11.3132 5.51984 11.0604L4.96001 10.5364C4.57024 10.1716 4.06124 9.96074 3.52768 9.94309L2.76132 9.91773C2.39147 9.9055 2.0945 9.60853 2.08227 9.23868L2.05691 8.47232C2.03926 7.93876 1.82842 7.42976 1.46362 7.03999L0.939649 6.48016C0.686784 6.20999 0.686784 5.79001 0.939649 5.51984L1.46362 4.96001C1.82843 4.57024 2.03926 4.06124 2.05691 3.52768L2.08227 2.76132C2.0945 2.39147 2.39147 2.0945 2.76132 2.08227L3.52768 2.05691C4.06124 2.03926 4.57024 1.82843 4.96001 1.46362L5.51984 0.939649C5.79001 0.686784 6.20999 0.686784 6.48016 0.939649Z" fill="#0E1011"/>
</svg>
