<svg viewBox="0 0 16 16" fill="none" xmlns="http://www.w3.org/2000/svg">
<path d="M1.85355 1.14645C1.65829 0.951184 1.34171 0.951184 1.14645 1.14645C0.951184 1.34171 0.951184 1.65829 1.14645 1.85355L2.29289 3H2.25C1.00736 3 0 4.00736 0 5.25V10.75C0 11.9926 1.00736 13 2.25 13H10.5C10.7761 13 11 12.7761 11 12.5C11 12.2239 10.7761 12 10.5 12H2.25C1.55964 12 1 11.4404 1 10.75V5.25C1 4.55964 1.55964 4 2.25 4H3.29289L14.1464 14.8536C14.3417 15.0488 14.6583 15.0488 14.8536 14.8536C15.0488 14.6583 15.0488 14.3417 14.8536 14.1464L1.85355 1.14645Z" fill="#0E1011"/>
<path d="M9.75 3H6.5C6.22386 3 6 3.22386 6 3.5C6 3.77614 6.22386 4 6.5 4H9.75C10.4404 4 11 4.55964 11 5.25V8C11 8.19619 11.1147 8.37425 11.2934 8.45532C11.472 8.53638 11.6816 8.50548 11.8293 8.37629L15 5.60188V11.5C15 11.7761 15.2239 12 15.5 12C15.7761 12 16 11.7761 16 11.5V4.5C16 4.30381 15.8853 4.12575 15.7066 4.04468C15.528 3.96362 15.3184 3.99452 15.1707 4.12371L12 6.89812V5.25C12 4.00736 10.9926 3 9.75 3Z" fill="#0E1011"/>
</svg>
