<svg viewBox="0 0 16 16" fill="none" xmlns="http://www.w3.org/2000/svg">
<path fill-rule="evenodd" clip-rule="evenodd" d="M4.5 1C3.67157 1 3 1.67157 3 2.5C3 3.32843 3.67157 4 4.5 4C5.32843 4 6 3.32843 6 2.5C6 1.67157 5.32843 1 4.5 1ZM2 2.5C2 1.11929 3.11929 0 4.5 0C5.88071 0 7 1.11929 7 2.5C7 3.70948 6.14112 4.71836 5 4.94999V5.62285L10.1868 7.10479C11.2601 7.41144 12 8.3924 12 9.5086V11.05C13.1411 11.2816 14 12.2905 14 13.5C14 14.8807 12.8807 16 11.5 16C10.1193 16 9 14.8807 9 13.5C9 12.2905 9.85888 11.2816 11 11.05V9.5086C11 8.83888 10.556 8.2503 9.91208 8.06632L5 6.66287V10.5C5 10.7761 4.77614 11 4.5 11C4.22386 11 4 10.7761 4 10.5V4.94999C2.85888 4.71836 2 3.70948 2 2.5ZM11.5 12C10.6716 12 10 12.6716 10 13.5C10 14.3284 10.6716 15 11.5 15C12.3284 15 13 14.3284 13 13.5C13 12.6716 12.3284 12 11.5 12ZM4.5 12C4.77614 12 5 12.2239 5 12.5V15.5C5 15.7761 4.77614 16 4.5 16C4.22386 16 4 15.7761 4 15.5V12.5C4 12.2239 4.22386 12 4.5 12Z" fill="#0E1011"/>
</svg>
