<svg viewBox="0 0 16 16" fill="none" xmlns="http://www.w3.org/2000/svg">
<path d="M12.3532 0.146447C12.1579 -0.0488155 11.8414 -0.0488155 11.6461 0.146447C11.4508 0.341709 11.4508 0.658291 11.6461 0.853553L13.7925 3H8.99965C8.72351 3 8.49965 3.22386 8.49965 3.5C8.49965 3.77614 8.72351 4 8.99965 4H13.7925L11.6461 6.14645C11.4508 6.34171 11.4508 6.65829 11.6461 6.85355C11.8414 7.04882 12.1579 7.04882 12.3532 6.85355L15.7068 3.5L12.3532 0.146447Z" fill="#0E1011"/>
<path d="M14.9997 13C14.9997 14.1046 14.0997 15.015 13.0062 14.8592C11.1877 14.5999 9.48188 13.9913 7.95881 13.1033C5.92016 11.9148 4.20899 10.226 2.99361 8.20514C2.05282 6.64084 1.40909 4.87759 1.1405 2.99344C0.984608 1.89993 1.89508 1 2.99965 1H4.99965C5.55194 1 5.9938 1.44908 6.05437 1.99803C6.15106 2.87449 6.37361 3.71304 6.70354 4.49521L5.0892 6.10955C4.93402 6.26473 4.89722 6.50355 5.00604 6.69413C6.06089 8.54149 7.61321 10.0681 9.48054 11.0915C9.67025 11.1955 9.90483 11.1573 10.0578 11.0043L11.6901 9.372C12.4188 9.66029 13.1941 9.8562 14.0016 9.94529C14.5506 10.0059 14.9997 10.4477 14.9997 11V13Z" fill="#0E1011"/>
</svg>
