<svg viewBox="0 0 12 12" fill="none" xmlns="http://www.w3.org/2000/svg">
<path fill-rule="evenodd" clip-rule="evenodd" d="M2.16334 4.33333C2.16334 2.21624 3.87958 0.5 5.99667 0.5C8.11376 0.5 9.83 2.21624 9.83 4.33333V5.36308C9.83 6.07474 10.1127 6.75726 10.6159 7.26048L11.0265 7.67106C11.2422 7.88672 11.3633 8.17923 11.3633 8.48423V8.93333C11.3633 9.35675 11.0201 9.7 10.5967 9.7H1.39667C0.973253 9.7 0.630005 9.35675 0.630005 8.93333V8.48423C0.630005 8.17923 0.751165 7.88672 0.966832 7.67106L1.37741 7.26048C1.88063 6.75726 2.16334 6.07474 2.16334 5.36308V4.33333ZM5.99667 1.26667C4.303 1.26667 2.93 2.63966 2.93 4.33333V5.36308C2.93 6.27807 2.56652 7.1556 1.91952 7.8026L1.50895 8.21317C1.43706 8.28506 1.39667 8.38256 1.39667 8.48423V8.93333H10.5967V8.48423C10.5967 8.38256 10.5563 8.28506 10.4844 8.21317L10.0738 7.8026C9.42682 7.1556 9.06334 6.27808 9.06334 5.36308V4.33333C9.06334 2.63966 7.69034 1.26667 5.99667 1.26667ZM5.99667 12C4.93813 12 4.08 11.1419 4.08 10.0833H4.84667C4.84667 10.7185 5.36154 11.2333 5.99667 11.2333C6.6318 11.2333 7.14667 10.7185 7.14667 10.0833H7.91334C7.91334 11.1419 7.05522 12 5.99667 12ZM4.91244 3.2491C5.2 2.96155 5.59001 2.8 5.99667 2.8C6.20838 2.8 6.38 2.62838 6.38 2.41667C6.38 2.20496 6.20838 2.03333 5.99667 2.03333C5.38667 2.03333 4.80166 2.27565 4.37033 2.70699C3.93899 3.13832 3.69667 3.72334 3.69667 4.33333C3.69667 4.54504 3.8683 4.71667 4.08 4.71667C4.29171 4.71667 4.46334 4.54504 4.46334 4.33333C4.46334 3.92667 4.62489 3.53666 4.91244 3.2491Z" fill="#0E1011"/>
</svg>
