<svg viewBox="0 0 16 16" fill="none" xmlns="http://www.w3.org/2000/svg">
<path fill-rule="evenodd" clip-rule="evenodd" d="M6 2C6 0.895431 6.89543 0 8 0C9.10457 0 10 0.895431 10 2V8.53524C11.1948 9.22636 12 10.5187 12 12C12 14.2091 10.2091 16 8 16C5.79086 16 4 14.2091 4 12C4 10.5187 4.80519 9.22636 6 8.53524V2ZM8.25 4.5C8.25 4.36193 8.13807 4.25 8 4.25C7.86193 4.25 7.75 4.36193 7.75 4.5V10.0155C6.76342 10.1385 6 10.9801 6 12C6 13.1046 6.89543 14 8 14C9.10457 14 10 13.1046 10 12C10 10.9801 9.23658 10.1385 8.25 10.0155V4.5Z" fill="#0E1011"/>
<path d="M10.75 2.375C10.5429 2.375 10.375 2.54289 10.375 2.75C10.375 2.95711 10.5429 3.125 10.75 3.125H12.25C12.4571 3.125 12.625 2.95711 12.625 2.75C12.625 2.54289 12.4571 2.375 12.25 2.375H10.75Z" fill="#0E1011"/>
<path d="M10.75 4.375C10.5429 4.375 10.375 4.54289 10.375 4.75C10.375 4.95711 10.5429 5.125 10.75 5.125H12.25C12.4571 5.125 12.625 4.95711 12.625 4.75C12.625 4.54289 12.4571 4.375 12.25 4.375H10.75Z" fill="#0E1011"/>
<path d="M10.75 6.375C10.5429 6.375 10.375 6.54289 10.375 6.75C10.375 6.95711 10.5429 7.125 10.75 7.125H12.25C12.4571 7.125 12.625 6.95711 12.625 6.75C12.625 6.54289 12.4571 6.375 12.25 6.375H10.75Z" fill="#0E1011"/>
</svg>
