<svg viewBox="0 0 16 16" fill="none" xmlns="http://www.w3.org/2000/svg">
<path fill-rule="evenodd" clip-rule="evenodd" d="M1.14645 9.14645C1.34171 8.95118 1.65829 8.95118 1.85355 9.14645L5 12.2929V5C5 2.79086 6.79086 1 9 1H13.5C13.7761 1 14 1.22386 14 1.5C14 1.77614 13.7761 2 13.5 2H9C7.34315 2 6 3.34315 6 5V12.2929L9.14645 9.14645C9.34171 8.95118 9.65829 8.95118 9.85355 9.14645C10.0488 9.34171 10.0488 9.65829 9.85355 9.85355L5.5 14.2071L1.14645 9.85355C0.951184 9.65829 0.951184 9.34171 1.14645 9.14645Z" fill="#0E1011"/>
</svg>
