<svg viewBox="0 0 12 12" fill="none" xmlns="http://www.w3.org/2000/svg">
<path d="M1.875 2.75C1.875 2.26675 2.26675 1.875 2.75 1.875H4C4.20711 1.875 4.375 1.70711 4.375 1.5C4.375 1.29289 4.20711 1.125 4 1.125H2.75C1.85254 1.125 1.125 1.85254 1.125 2.75V4C1.125 4.20711 1.29289 4.375 1.5 4.375C1.70711 4.375 1.875 4.20711 1.875 4V2.75Z" fill="#0E1011"/>
<path d="M1.875 9.25C1.875 9.73325 2.26675 10.125 2.75 10.125H4C4.20711 10.125 4.375 10.2929 4.375 10.5C4.375 10.7071 4.20711 10.875 4 10.875H2.75C1.85254 10.875 1.125 10.1475 1.125 9.25V8C1.125 7.79289 1.29289 7.625 1.5 7.625C1.70711 7.625 1.875 7.79289 1.875 8V9.25Z" fill="#0E1011"/>
<path d="M10.125 2.75C10.125 2.26675 9.73325 1.875 9.25 1.875L8 1.875C7.79289 1.875 7.625 1.70711 7.625 1.5C7.625 1.29289 7.79289 1.125 8 1.125H9.25C10.1475 1.125 10.875 1.85254 10.875 2.75V4C10.875 4.20711 10.7071 4.375 10.5 4.375C10.2929 4.375 10.125 4.20711 10.125 4V2.75Z" fill="#0E1011"/>
<path d="M9.25 10.125C9.73325 10.125 10.125 9.73325 10.125 9.25V8C10.125 7.79289 10.2929 7.625 10.5 7.625C10.7071 7.625 10.875 7.79289 10.875 8V9.25C10.875 10.1475 10.1475 10.875 9.25 10.875H8C7.79289 10.875 7.625 10.7071 7.625 10.5C7.625 10.2929 7.79289 10.125 8 10.125H9.25Z" fill="#0E1011"/>
</svg>
