<svg viewBox="0 0 12 12" fill="none" xmlns="http://www.w3.org/2000/svg">
<path d="M3 0.5C3 0.292893 2.83211 0.125 2.625 0.125C2.41789 0.125 2.25 0.292893 2.25 0.5V2.625C2.25 2.83211 2.41789 3 2.625 3C2.83211 3 3 2.83211 3 2.625V0.5Z" fill="#0E1011"/>
<path d="M5 0.5C5 0.292893 4.83211 0.125 4.625 0.125C4.41789 0.125 4.25 0.292893 4.25 0.5V2.625C4.25 2.83211 4.41789 3 4.625 3C4.83211 3 5 2.83211 5 2.625V0.5Z" fill="#0E1011"/>
<path d="M7 0.5C7 0.292893 6.83211 0.125 6.625 0.125C6.41789 0.125 6.25 0.292893 6.25 0.5V2.625C6.25 2.83211 6.41789 3 6.625 3C6.83211 3 7 2.83211 7 2.625V0.5Z" fill="#0E1011"/>
<path fill-rule="evenodd" clip-rule="evenodd" d="M11.1708 8.14635L9.75 8.60676V8.75C9.75 9.99264 8.74264 11 7.5 11H2.25C1.00736 11 0 9.99264 0 8.75V5.75C0 4.92157 0.671573 4.25 1.5 4.25H10.5C11.3284 4.25 12 4.92157 12 5.75V6.80471C12 7.37287 11.679 7.89227 11.1708 8.14635ZM0.75 5.75C0.75 5.33579 1.08579 5 1.5 5H9V8.75C9 9.57843 8.32843 10.25 7.5 10.25H2.25C1.42157 10.25 0.75 9.57843 0.75 8.75V5.75ZM9.75 8.01824V5H10.5C10.9142 5 11.25 5.33579 11.25 5.75V6.80471C11.25 7.08879 11.0895 7.34849 10.8354 7.47553L9.75 8.01824Z" fill="#0E1011"/>
</svg>
