<svg viewBox="0 0 12 12" fill="none" xmlns="http://www.w3.org/2000/svg">
<path fill-rule="evenodd" clip-rule="evenodd" d="M4.46903 1.125H7.53097C7.966 1.12499 8.21743 1.12498 8.43386 1.14937C10.2304 1.35179 11.6482 2.76961 11.8506 4.56614C11.875 4.78258 11.875 5.03401 11.875 5.46905V5.53096C11.875 5.966 11.875 6.21742 11.8506 6.43386C11.6482 8.23039 10.2304 9.64822 8.43386 9.85064C8.21742 9.87502 7.966 9.87501 7.53096 9.875H4.46905C4.03401 9.87501 3.78258 9.87502 3.56614 9.85064C3.31416 9.82224 3.06946 9.7699 2.83443 9.69587L1.12498 11.4053V8.59808C0.595656 8.01249 0.242835 7.26342 0.149366 6.43386C0.12498 6.21743 0.124987 5.966 0.125001 5.53097V5.46903C0.124987 5.034 0.12498 4.78258 0.149366 4.56614C0.351786 2.76961 1.76961 1.35179 3.56614 1.14937C3.78258 1.12498 4.034 1.12499 4.46903 1.125ZM4.5 1.875C4.02543 1.875 3.81923 1.8756 3.65011 1.89465C2.2013 2.05789 1.05789 3.2013 0.894651 4.65011C0.875596 4.81923 0.875001 5.02543 0.875001 5.5C0.875001 5.97458 0.875596 6.18077 0.894651 6.34989C0.975019 7.06318 1.29273 7.70215 1.76783 8.18702L1.87498 8.29637V9.59465L2.64341 8.82622L2.87123 8.91441C3.11692 9.00953 3.37797 9.07469 3.65011 9.10535C3.81923 9.12441 4.02543 9.125 4.5 9.125H7.5C7.97458 9.125 8.18077 9.12441 8.34989 9.10535C9.7987 8.94211 10.9421 7.7987 11.1054 6.34989C11.1244 6.18077 11.125 5.97458 11.125 5.5C11.125 5.02543 11.1244 4.81923 11.1054 4.65011C10.9421 3.2013 9.7987 2.05789 8.34989 1.89465C8.18077 1.8756 7.97458 1.875 7.5 1.875H4.5Z" fill="#0E1011"/>
</svg>
