<svg viewBox="0 0 12 12" fill="none" xmlns="http://www.w3.org/2000/svg">
<path d="M5 6.25C4.86193 6.25 4.75 6.36193 4.75 6.5C4.75 6.63807 4.86193 6.75 5 6.75H7C7.13807 6.75 7.25 6.63807 7.25 6.5C7.25 6.36193 7.13807 6.25 7 6.25H5Z" fill="#0E1011"/>
<path fill-rule="evenodd" clip-rule="evenodd" d="M0.125 2C0.125 1.51675 0.516751 1.125 1 1.125H11C11.4832 1.125 11.875 1.51675 11.875 2V4C11.875 4.48325 11.4832 4.875 11 4.875V9C11 10.0355 10.1605 10.875 9.125 10.875H2.875C1.83947 10.875 1 10.0355 1 9L1 4.875C0.516751 4.875 0.125 4.48325 0.125 4V2ZM1.75 4.875H10.25V9C10.25 9.62132 9.74632 10.125 9.125 10.125H2.875C2.25368 10.125 1.75 9.62132 1.75 9V4.875ZM11 4.125H1C0.930964 4.125 0.875 4.06904 0.875 4V2C0.875 1.93096 0.930964 1.875 1 1.875H11C11.069 1.875 11.125 1.93096 11.125 2V4C11.125 4.06904 11.069 4.125 11 4.125Z" fill="#0E1011"/>
</svg>
