<svg viewBox="0 0 16 16" fill="none" xmlns="http://www.w3.org/2000/svg">
<path fill-rule="evenodd" clip-rule="evenodd" d="M6 3.5C6 1.567 7.567 0 9.5 0H12.25C12.6642 0 13 0.335786 13 0.75V3.25C13 3.66421 12.6642 4 12.25 4H10.5C10.2239 4 10 4.22386 10 4.5V6H12.1531C12.6651 6 13.0265 6.50152 12.8647 6.98717L12.0313 9.48717C11.9292 9.79343 11.6426 10 11.3198 10H10V15.25C10 15.6642 9.66421 16 9.25 16H6.75C6.33579 16 6 15.6642 6 15.25V10H4.75C4.33579 10 4 9.66421 4 9.25V6.75C4 6.33579 4.33579 6 4.75 6H6V3.5ZM9.5 1C8.11929 1 7 2.11929 7 3.5V7H5V9H7V15H9V9H11.1396L11.8063 7H9V4.5C9 3.67157 9.67157 3 10.5 3H12V1H9.5Z" fill="#0E1011"/>
</svg>
