<svg viewBox="0 0 12 12" fill="none" xmlns="http://www.w3.org/2000/svg">
<path fill-rule="evenodd" clip-rule="evenodd" d="M1.91459 0.207255C2.00721 0.0220131 2.23246 -0.0530711 2.41771 0.0395499L3.11328 0.387335C3.18538 0.423386 3.25119 0.470825 3.3082 0.527825L3.64077 0.860405C3.91543 0.788289 4.20348 0.74996 4.5 0.74996H7.5C7.79652 0.74996 8.08457 0.788289 8.35922 0.860405L8.6918 0.527825C8.74881 0.470824 8.81462 0.423386 8.88672 0.387335L9.58229 0.0395499C9.76754 -0.053071 9.99279 0.022013 10.0854 0.207255L10.2123 0.46095C10.4124 0.861281 10.4628 1.32001 10.3542 1.75423L10.2506 2.16881C10.6436 2.72063 10.875 3.39621 10.875 4.12496V4.87496C10.875 6.80998 9.54288 8.43348 7.7455 8.87896C7.83066 9.08621 7.875 9.30929 7.875 9.53029V11.625C7.875 11.8321 7.70711 12 7.5 12C7.29289 12 7.125 11.8321 7.125 11.625V9.53029C7.125 9.2845 7.0257 9.03747 6.85983 8.87161C6.75734 8.76912 6.72309 8.61674 6.77187 8.48025C6.82065 8.34376 6.94372 8.2476 7.08795 8.23328C8.79305 8.06399 10.125 6.62479 10.125 4.87496V4.12496C10.125 3.50448 9.91019 2.9352 9.55058 2.48596C9.47742 2.39456 9.45114 2.27424 9.47953 2.16066L9.62662 1.57233C9.68433 1.34147 9.66718 1.09907 9.57897 0.879736L9.22213 1.05816L8.73123 1.54906C8.63022 1.65007 8.48061 1.68492 8.34537 1.63895C8.08059 1.54894 7.7964 1.49996 7.5 1.49996H4.5C4.2036 1.49996 3.91941 1.54894 3.65463 1.63895C3.51939 1.68492 3.36978 1.65007 3.26877 1.54906L2.77787 1.05816L2.42103 0.879736C2.33282 1.09907 2.31567 1.34147 2.37338 1.57233L2.52047 2.16066C2.54886 2.27424 2.52258 2.39456 2.44942 2.48596C2.08981 2.9352 1.875 3.50448 1.875 4.12496V4.87496C1.875 6.52532 3.05994 7.89972 4.62557 8.19238C4.76235 8.21795 4.87373 8.31715 4.91489 8.45007C4.95605 8.58298 4.92022 8.72777 4.82183 8.82616C4.75504 8.89295 4.6934 8.99535 4.65936 9.10963C4.62496 9.22511 4.62755 9.32174 4.64846 9.38449L4.77777 9.77241C4.84217 9.96561 4.875 10.1679 4.875 10.3716V11.625C4.875 11.8321 4.70711 12 4.5 12C4.29289 12 4.125 11.8321 4.125 11.625V10.5H3.75C3.03042 10.5 2.55538 10.0239 2.20493 9.67277C2.19395 9.66176 2.18308 9.65087 2.17234 9.64013C1.77583 9.24362 1.50786 8.99996 1.125 8.99996H0.75C0.542893 8.99996 0.375 8.83207 0.375 8.62496C0.375 8.41785 0.542893 8.24996 0.75 8.24996H1.125C1.84458 8.24996 2.31962 8.72598 2.67006 9.07715C2.68105 9.08816 2.69192 9.09905 2.70266 9.10979C3.09917 9.5063 3.36714 9.74996 3.75 9.74996H3.97972L3.93695 9.62166C3.85508 9.37607 3.87474 9.11657 3.94056 8.89555C3.95026 8.86297 3.96116 8.83056 3.97321 8.79845C2.31997 8.26075 1.125 6.70774 1.125 4.87496V4.12496C1.125 3.39621 1.35637 2.72063 1.74942 2.16881L1.64578 1.75423C1.53722 1.32001 1.58758 0.861281 1.78774 0.46095L1.91459 0.207255Z" fill="#0E1011"/>
</svg>
