<svg height="14" viewBox="0 0 12 14" fill="none" xmlns="http://www.w3.org/2000/svg">
<path fill-rule="evenodd" clip-rule="evenodd" d="M7.36062 0.984039L6.55522 5.01103C6.5146 5.21411 6.31704 5.34582 6.11396 5.3052C5.91087 5.26459 5.77917 5.06703 5.81978 4.86394L6.13938 3.26593L5.32766 4.07765C5.18122 4.2241 4.94378 4.2241 4.79734 4.07765C4.65089 3.9312 4.65089 3.69377 4.79734 3.54732L7.36062 0.984039ZM0.297335 1.29732C0.443782 1.15087 0.681218 1.15087 0.827665 1.29732L11.7027 12.1723C11.8491 12.3188 11.8491 12.5562 11.7027 12.7027C11.5562 12.8491 11.3188 12.8491 11.1723 12.7027L7.97647 9.50679L4.11951 13.0883L5.53031 8.38558L1.15291 7.19175L3.40717 4.93748L0.297335 1.82765C0.150888 1.6812 0.150888 1.44377 0.297335 1.29732ZM3.9375 5.46781L2.59709 6.80822L6.28321 7.81353L3.9375 5.46781ZM6.43839 7.96871L5.63049 10.6617L7.44578 8.97609L6.43839 7.96871ZM7.18509 6.19819C7.23958 5.99838 7.44573 5.88058 7.64554 5.93507L10.8746 6.81571L9.40795 8.17756C9.25618 8.31849 9.01891 8.3097 8.87798 8.15793C8.73705 8.00617 8.74584 7.76889 8.89761 7.62797L9.37545 7.18426L7.44821 6.65865C7.2484 6.60415 7.1306 6.398 7.18509 6.19819Z" fill="#0E1011"/>
</svg>
