<svg viewBox="0 0 16 16" fill="none" xmlns="http://www.w3.org/2000/svg">
<path fill-rule="evenodd" clip-rule="evenodd" d="M4 1C3.44772 1 3 1.44772 3 2V14C3 14.5523 3.44772 15 4 15H9C9.27614 15 9.5 15.2239 9.5 15.5C9.5 15.7761 9.27614 16 9 16H4C2.89543 16 2 15.1046 2 14V2C2 0.895431 2.89543 0 4 0H9.70711L14 4.29289V8.5C14 8.77614 13.7761 9 13.5 9C13.2239 9 13 8.77614 13 8.5V5H11C9.89543 5 9 4.10457 9 3V1H4ZM10 1.70711L12.2929 4H11C10.4477 4 10 3.55228 10 3V1.70711ZM10.3964 10.3964C10.5917 10.2012 10.9083 10.2012 11.1036 10.3964L13 12.2929L14.8964 10.3964C15.0917 10.2012 15.4083 10.2012 15.6036 10.3964C15.7988 10.5917 15.7988 10.9083 15.6036 11.1036L13.7071 13L15.6036 14.8964C15.7988 15.0917 15.7988 15.4083 15.6036 15.6036C15.4083 15.7988 15.0917 15.7988 14.8964 15.6036L13 13.7071L11.1036 15.6036C10.9083 15.7988 10.5917 15.7988 10.3964 15.6036C10.2012 15.4083 10.2012 15.0917 10.3964 14.8964L12.2929 13L10.3964 11.1036C10.2012 10.9083 10.2012 10.5917 10.3964 10.3964Z" fill="#0E1011"/>
</svg>
