<svg width="13" viewBox="0 0 13 12" fill="none" xmlns="http://www.w3.org/2000/svg">
<path fill-rule="evenodd" clip-rule="evenodd" d="M0.125026 2.74996C0.125026 2.72532 0.125575 2.7008 0.12666 2.67643C0.125558 2.65478 0.125 2.633 0.125 2.61108C0.125 1.79032 0.790355 1.12497 1.61111 1.12497H8C9.03553 1.12497 9.875 1.96444 9.875 2.99997V3.34123C10.4697 3.65561 10.875 4.28046 10.875 4.99997V5.49997C10.875 5.70708 10.7071 5.87497 10.5 5.87497C10.2929 5.87497 10.125 5.70708 10.125 5.49997V4.99997C10.125 4.37865 9.62131 3.87497 8.99999 3.87497H1.38889C1.20591 3.87497 1.03202 3.83609 0.875022 3.76614L0.875 8.99996C0.874997 9.62129 1.37868 10.125 2 10.125H3.49999C3.7071 10.125 3.87499 10.2929 3.87499 10.5C3.87499 10.7071 3.7071 10.875 3.49999 10.875H2C0.964463 10.875 0.124996 10.0355 0.125 8.99996L0.125026 2.74996ZM1.75003 1.87497H8C8.62132 1.87497 9.125 2.37865 9.125 2.99997V3.12497H1.38889C1.12549 3.12497 0.90837 2.9268 0.878504 2.67141C0.918227 2.22497 1.29325 1.87497 1.75003 1.87497Z" fill="#0E1011"/>
<path d="M7.00003 7.74997C7.41424 7.74997 7.75003 7.41418 7.75003 6.99997C7.75003 6.58576 7.41424 6.24997 7.00003 6.24997C6.58582 6.24997 6.25003 6.58576 6.25003 6.99997C6.25003 7.41418 6.58582 7.74997 7.00003 7.74997Z" fill="#0E1011"/>
<path d="M9.7652 7.23481C9.61876 7.08836 9.38132 7.08836 9.23487 7.2348C9.08842 7.38124 9.08842 7.61868 9.23486 7.76513L10.5947 9.12503H5.50003C5.29292 9.12503 5.12503 9.29293 5.12503 9.50003C5.12503 9.70714 5.29292 9.87503 5.50003 9.87503H10.5947L9.23487 11.2348C9.08842 11.3812 9.08842 11.6187 9.23486 11.7651C9.38131 11.9116 9.61874 11.9116 9.76519 11.7651L12.0304 9.50004L9.7652 7.23481Z" fill="#0E1011"/>
</svg>
