<svg viewBox="0 0 16 16" fill="none" xmlns="http://www.w3.org/2000/svg">
<path d="M8 16C6.61929 16 5.5 14.8807 5.5 13.5H6.5C6.5 14.3284 7.17157 15 8 15C8.82843 15 9.5 14.3284 9.5 13.5H10.5C10.5 14.8807 9.38071 16 8 16Z" fill="#0E1011"/>
<path fill-rule="evenodd" clip-rule="evenodd" d="M8 1C5.23858 1 3 3.23858 3 6V7.34315C3 8.2714 2.63125 9.16164 1.97487 9.81802L1.43934 10.3536C1.15803 10.6349 1 11.0164 1 11.4142V12C1 12.5523 1.44772 13 2 13H14C14.5523 13 15 12.5523 15 12V11.4142C15 11.0164 14.842 10.6349 14.5607 10.3536L14.0251 9.81802C13.3687 9.16164 13 8.2714 13 7.34315V6C13 3.23858 10.7614 1 8 1ZM6.58579 4.58579C6.96086 4.21071 7.46957 4 8 4C8.27614 4 8.5 3.77614 8.5 3.5C8.5 3.22386 8.27614 3 8 3C7.20435 3 6.44129 3.31607 5.87868 3.87868C5.31607 4.44129 5 5.20435 5 6C5 6.27614 5.22386 6.5 5.5 6.5C5.77614 6.5 6 6.27614 6 6C6 5.46957 6.21071 4.96086 6.58579 4.58579Z" fill="#0E1011"/>
</svg>
