<svg viewBox="0 0 12 12" fill="none" xmlns="http://www.w3.org/2000/svg">
<path d="M6.4 4C6.4 3.77909 6.22091 3.6 6 3.6C5.77909 3.6 5.6 3.77909 5.6 4V5.6H4C3.77909 5.6 3.6 5.77909 3.6 6C3.6 6.22091 3.77909 6.4 4 6.4H5.6V8C5.6 8.22091 5.77909 8.4 6 8.4C6.22091 8.4 6.4 8.22091 6.4 8V6.4H8C8.22091 6.4 8.4 6.22091 8.4 6C8.4 5.77909 8.22091 5.6 8 5.6H6.4V4Z" fill="#0E1011"/>
<path fill-rule="evenodd" clip-rule="evenodd" d="M2.75 1.125C1.85254 1.125 1.125 1.85254 1.125 2.75V9.25C1.125 10.1475 1.85254 10.875 2.75 10.875H9.25C10.1475 10.875 10.875 10.1475 10.875 9.25V2.75C10.875 1.85254 10.1475 1.125 9.25 1.125H2.75ZM1.875 2.75C1.875 2.26675 2.26675 1.875 2.75 1.875H9.25C9.73325 1.875 10.125 2.26675 10.125 2.75V9.25C10.125 9.73325 9.73325 10.125 9.25 10.125H2.75C2.26675 10.125 1.875 9.73325 1.875 9.25V2.75Z" fill="#0E1011"/>
</svg>
