<svg viewBox="0 0 16 16" fill="none" xmlns="http://www.w3.org/2000/svg">
<path fill-rule="evenodd" clip-rule="evenodd" d="M15.2943 8.00004C15.2943 12.0314 12.0262 15.2995 7.99479 15.2995C3.9634 15.2995 0.695312 12.0314 0.695312 8.00004C0.695312 3.96865 3.9634 0.700562 7.99479 0.700562C12.0262 0.700562 15.2943 3.96865 15.2943 8.00004ZM10.9255 13.5777C10.05 14.0387 9.05288 14.2995 7.99479 14.2995C6.93944 14.2995 5.94471 14.04 5.07092 13.5813L7.23567 11.4166C7.4817 11.4714 7.73749 11.5003 8.00003 11.5003C8.26254 11.5003 8.51831 11.4714 8.76431 11.4166L10.9255 13.5777ZM11.5852 13.1768C12.2057 12.7457 12.7449 12.2059 13.1754 11.585L11.1395 9.54915C10.7988 10.2385 10.2378 10.7994 9.54841 11.14L11.5852 13.1768ZM13.5757 10.9246C14.0346 10.0507 14.2943 9.05569 14.2943 8.00004C14.2943 6.94469 14.0348 5.94996 13.5761 5.07617L11.4163 7.23592C11.4711 7.48195 11.5 7.73774 11.5 8.00028C11.5 8.26301 11.4711 8.51897 11.4162 8.76517L13.5757 10.9246ZM13.1758 4.41573C12.7454 3.79476 12.2063 3.2549 11.5859 2.8237L9.54884 4.86075C10.2381 5.20145 10.7991 5.76248 11.1397 6.45183L13.1758 4.41573ZM10.9262 2.42273L8.76484 4.58409C8.51867 4.52922 8.26273 4.50028 8.00003 4.50028C7.7373 4.50028 7.48133 4.52923 7.23514 4.58411L5.07019 2.41916C5.94415 1.96022 6.93915 1.70056 7.99479 1.70056C9.05318 1.70056 10.0506 1.96157 10.9262 2.42273ZM4.40982 2.81945C3.78891 3.24993 3.24911 3.78917 2.81799 4.4096L4.86029 6.45188C5.2009 5.76253 5.76186 5.20149 6.45115 4.86078L4.40982 2.81945ZM2.4171 5.06937C1.95618 5.94479 1.69531 6.94195 1.69531 8.00004C1.69531 9.05842 1.95632 10.0558 2.41748 10.9314L4.58384 8.76509C4.52897 8.51892 4.50003 8.26298 4.50003 8.00028C4.50003 7.73776 4.52893 7.48199 4.58373 7.23598L2.4171 5.06937ZM2.81845 11.5911C3.24965 12.2115 3.78951 12.7507 4.41048 13.1811L6.45158 11.14C5.76223 10.7994 5.2012 10.2384 4.8605 9.54909L2.81845 11.5911ZM8.00003 5.50028C6.61932 5.50028 5.50003 6.61957 5.50003 8.00028C5.50003 9.38099 6.61932 10.5003 8.00003 10.5003C9.38074 10.5003 10.5 9.38099 10.5 8.00028C10.5 6.61957 9.38074 5.50028 8.00003 5.50028Z" fill="#0E1011"/>
</svg>
