<svg viewBox="0 0 12 12" fill="none" xmlns="http://www.w3.org/2000/svg">
<path fill-rule="evenodd" clip-rule="evenodd" d="M6 3.75C4.75736 3.75 3.75 4.75736 3.75 6C3.75 7.24264 4.75736 8.25 6 8.25C7.24264 8.25 8.25 7.24264 8.25 6C8.25 4.75736 7.24264 3.75 6 3.75ZM4.40625 5.8125C4.40625 5.03585 5.03585 4.40625 5.8125 4.40625H6V4.96875H5.8125C5.34651 4.96875 4.96875 5.34651 4.96875 5.8125V6H4.40625V5.8125Z" fill="#0E1011"/>
<path fill-rule="evenodd" clip-rule="evenodd" d="M4.28033 0.25C4.08142 0.25 3.89065 0.329018 3.75 0.46967L3.21967 1L1.6875 1C0.755519 1 0 1.75552 0 2.6875V9.3125C0 10.2445 0.755519 11 1.6875 11H10.3125C11.2445 11 12 10.2445 12 9.3125V2.6875C12 1.75552 11.2445 1 10.3125 1H8.78033L8.25 0.46967C8.10935 0.329017 7.91858 0.25 7.71967 0.25H4.28033ZM3 6C3 4.34315 4.34315 3 6 3C7.65685 3 9 4.34315 9 6C9 7.65685 7.65685 9 6 9C4.34315 9 3 7.65685 3 6Z" fill="#0E1011"/>
</svg>
