<svg viewBox="0 0 16 16" fill="none" xmlns="http://www.w3.org/2000/svg">
<path d="M5.38233 1.28787L5.18023 2.70254C6.02085 2.25415 6.98075 2 8.00001 2C9.01922 2 9.97908 2.25413 10.8197 2.70247L10.6176 1.28787C10.512 0.548895 9.87913 0 9.13266 0H6.86725C6.12077 0 5.48789 0.548893 5.38233 1.28787Z" fill="#0E1011"/>
<path d="M10.6176 14.7121L10.8197 13.2975C9.97908 13.7459 9.01922 14 8.00001 14C6.98075 14 6.02085 13.7458 5.18023 13.2975L5.38233 14.7121C5.48789 15.4511 6.12077 16 6.86725 16H9.13266C9.87913 16 10.512 15.4511 10.6176 14.7121Z" fill="#0E1011"/>
<path fill-rule="evenodd" clip-rule="evenodd" d="M8 3C10.7614 3 13 5.23858 13 8C13 10.7614 10.7614 13 8 13C5.23858 13 3 10.7614 3 8C3 5.23858 5.23858 3 8 3ZM7.64645 7.64645L9.64645 5.64645L10.3536 6.35355L8.70711 8L9.85355 9.14645L9.14645 9.85355L7.64645 8.35355C7.45118 8.15829 7.45118 7.84171 7.64645 7.64645Z" fill="#0E1011"/>
</svg>
