<svg viewBox="0 0 16 16" fill="none" xmlns="http://www.w3.org/2000/svg">
<path fill-rule="evenodd" clip-rule="evenodd" d="M4.5 2.5V3.79289L7.98402 7.27691C8.28177 7.10097 8.6291 7 9 7H9.23253C9.72661 7 10.2032 7.18289 10.5705 7.51341L14.3379 10.9041C14.7594 11.2834 15 11.8238 15 12.3907V13C15 14.1046 14.1046 15 13 15H12.3907C11.8238 15 11.2834 14.7594 10.9041 14.3379L7.51341 10.5705C7.18289 10.2032 7 9.72661 7 9.23253V9C7 8.6291 7.10097 8.28177 7.27691 7.98402L3.79289 4.5H2.5L1 2L2 1L4.5 2.5ZM9.28787 8.71213C9.17071 8.59497 9.17071 8.40503 9.28787 8.28787C9.40503 8.17071 9.59497 8.17071 9.71213 8.28787L12.9192 11.495C13.163 11.7388 13.3 12.0694 13.3 12.4142V12.5C13.3 12.6657 13.1657 12.8 13 12.8C12.8343 12.8 12.7 12.6657 12.7 12.5V12.4142C12.7 12.2286 12.6263 12.0505 12.495 11.9192L9.28787 8.71213Z" fill="#0E1011"/>
</svg>
