<svg viewBox="0 0 12 12" fill="none" xmlns="http://www.w3.org/2000/svg">
<path d="M9.64017 2.89017C9.78661 2.74372 9.78661 2.50628 9.64017 2.35983C9.49372 2.21339 9.25628 2.21339 9.10983 2.35983L6 5.46967L2.89017 2.35983C2.74372 2.21339 2.50628 2.21339 2.35983 2.35983C2.21339 2.50628 2.21339 2.74372 2.35983 2.89017L5.46967 6L2.35983 9.10983C2.21339 9.25628 2.21339 9.49372 2.35983 9.64017C2.50628 9.78661 2.74372 9.78661 2.89017 9.64017L6 6.53033L9.10983 9.64017C9.25628 9.78661 9.49372 9.78661 9.64017 9.64017C9.78661 9.49372 9.78661 9.25628 9.64017 9.10983L6.53033 6L9.64017 2.89017Z" fill="#0E1011"/>
</svg>
