<svg viewBox="0 0 16 16" fill="none" xmlns="http://www.w3.org/2000/svg">
<path fill-rule="evenodd" clip-rule="evenodd" d="M3.5 1.875C3.15482 1.875 2.875 2.15482 2.875 2.5C2.875 2.84518 3.15482 3.125 3.5 3.125H3.875V12.875H3.5C3.15482 12.875 2.875 13.1548 2.875 13.5C2.875 13.8452 3.15482 14.125 3.5 14.125H9.5C11.502 14.125 13.125 12.502 13.125 10.5C13.125 9.09123 12.3214 7.87015 11.1475 7.27018C11.7495 6.70056 12.125 5.89413 12.125 5C12.125 3.27411 10.7259 1.875 9 1.875H3.5ZM9 6.875C10.0355 6.875 10.875 6.03553 10.875 5C10.875 3.96447 10.0355 3.125 9 3.125H5.125V6.875H9ZM5.125 8.125V12.875H9.5C10.8117 12.875 11.875 11.8117 11.875 10.5C11.875 9.18832 10.8117 8.125 9.5 8.125H5.125Z" fill="#0E1011"/>
</svg>
