<svg viewBox="0 0 12 12" fill="none" xmlns="http://www.w3.org/2000/svg">
<path d="M4.85355 4.14645C4.65829 3.95118 4.34171 3.95118 4.14645 4.14645C3.95118 4.34171 3.95118 4.65829 4.14645 4.85355L5.29289 6L4.14645 7.14645C3.95118 7.34171 3.95118 7.65829 4.14645 7.85355C4.34171 8.04882 4.65829 8.04882 4.85355 7.85355L6 6.70711L7.14645 7.85355C7.34171 8.04882 7.65829 8.04882 7.85355 7.85355C8.04882 7.65829 8.04882 7.34171 7.85355 7.14645L6.70711 6L7.85355 4.85355C8.04882 4.65829 8.04882 4.34171 7.85355 4.14645C7.65829 3.95118 7.34171 3.95118 7.14645 4.14645L6 5.29289L4.85355 4.14645Z" fill="#0E1011"/>
<path fill-rule="evenodd" clip-rule="evenodd" d="M1 3C1 1.89543 1.89543 1 3 1H9C10.1046 1 11 1.89543 11 3V9C11 10.1046 10.1046 11 9 11H3C1.89543 11 1 10.1046 1 9V3ZM3 1.75H9C9.69036 1.75 10.25 2.30964 10.25 3V9C10.25 9.69036 9.69036 10.25 9 10.25H3C2.30964 10.25 1.75 9.69036 1.75 9V3C1.75 2.30964 2.30964 1.75 3 1.75Z" fill="#0E1011"/>
</svg>
