<svg viewBox="0 0 16 16" fill="none" xmlns="http://www.w3.org/2000/svg">
<path d="M9.28787 8.71213C9.17071 8.59497 9.17071 8.40503 9.28787 8.28787C9.40503 8.17071 9.59497 8.17071 9.71213 8.28787L12.9192 11.495C13.163 11.7388 13.3 12.0694 13.3 12.4142V12.5C13.3 12.6657 13.1657 12.8 13 12.8C12.8343 12.8 12.7 12.6657 12.7 12.5V12.4142C12.7 12.2286 12.6263 12.0505 12.495 11.9192L9.28787 8.71213Z" fill="#0E1011"/>
<path fill-rule="evenodd" clip-rule="evenodd" d="M4.5 2.5V3.79289L7.85355 7.14645C7.92897 7.22186 7.97526 7.31537 7.99242 7.413C8.36645 7.15264 8.82106 7 9.31133 7C9.87741 7 10.4238 7.20774 10.8469 7.58382L14.1609 10.5296C14.6946 11.004 15 11.684 15 12.3981V12.5C15 13.8807 13.8807 15 12.5 15H12.3981C11.684 15 11.004 14.6946 10.5296 14.1609L7.58382 10.8469C7.20774 10.4238 7 9.87741 7 9.31133C7 8.82106 7.15264 8.36645 7.413 7.99242C7.31537 7.97526 7.22186 7.92897 7.14645 7.85355L3.79289 4.5H2.5L1 2L2 1L4.5 2.5ZM8 9.31133C8 8.5871 8.5871 8 9.31133 8C9.6325 8 9.94249 8.11786 10.1825 8.33123L13.4965 11.277C13.8168 11.5617 14 11.9697 14 12.3981V12.5C14 13.3284 13.3284 14 12.5 14H12.3981C11.9697 14 11.5617 13.8168 11.277 13.4965L8.33123 10.1825C8.11786 9.94249 8 9.6325 8 9.31133Z" fill="#0E1011"/>
</svg>
