<svg viewBox="0 0 12 12" fill="none" xmlns="http://www.w3.org/2000/svg">
<path fill-rule="evenodd" clip-rule="evenodd" d="M0.827665 0.297335C0.681218 0.150888 0.443782 0.150888 0.297335 0.297335C0.150888 0.443782 0.150888 0.681218 0.297335 0.827665L1.08168 1.61201C0.448986 1.85545 0 2.46904 0 3.1875V8.8125C0 9.74448 0.75552 10.5 1.6875 10.5H9.96967L11.1723 11.7027C11.3188 11.8491 11.5562 11.8491 11.7027 11.7027C11.8491 11.5562 11.8491 11.3188 11.7027 11.1723L0.827665 0.297335ZM1.6875 2.25H1.71967L3.6969 4.22723C3.31886 4.71773 3.09375 5.33276 3.09375 6C3.09375 7.60508 4.39492 8.90625 6 8.90625C6.66724 8.90625 7.28227 8.68114 7.77277 8.3031L9.21967 9.75H1.6875C1.16973 9.75 0.75 9.33027 0.75 8.8125V3.1875C0.75 2.66973 1.16973 2.25 1.6875 2.25ZM7.37091 7.90124L4.09876 4.62909C3.82018 5.01465 3.65625 5.48801 3.65625 6C3.65625 7.29442 4.70558 8.34375 6 8.34375C6.51199 8.34375 6.98535 8.17982 7.37091 7.90124Z" fill="#0E1011"/>
<path d="M4.28033 0.75C4.08142 0.75 3.89065 0.829018 3.75 0.96967L3.48484 1.23483C3.33839 1.38128 3.33839 1.61872 3.48484 1.76516C3.63128 1.91161 3.86872 1.91161 4.01516 1.76516L4.28033 1.5L7.71967 1.5L8.25 2.03033C8.39065 2.17098 8.58142 2.25 8.78033 2.25H10.3125C10.8303 2.25 11.25 2.66973 11.25 3.1875V8.8125C11.25 8.93263 11.2276 9.04663 11.1871 9.15118C11.1122 9.34429 11.2081 9.56151 11.4012 9.63636C11.5943 9.71122 11.8115 9.61536 11.8864 9.42225C11.9599 9.23264 12 9.02681 12 8.8125V3.1875C12 2.25552 11.2445 1.5 10.3125 1.5L8.78033 1.5L8.25 0.96967C8.10935 0.829018 7.91858 0.75 7.71967 0.75H4.28033Z" fill="#0E1011"/>
<path d="M5.68567 3.67711C5.78836 3.66336 5.89328 3.65625 6 3.65625C7.29442 3.65625 8.34375 4.70558 8.34375 6C8.34375 6.10672 8.33663 6.21164 8.32289 6.31433C8.30227 6.46829 8.41037 6.6098 8.56433 6.63041C8.71828 6.65102 8.8598 6.54293 8.88041 6.38897C8.89746 6.26161 8.90625 6.13176 8.90625 6C8.90625 4.39492 7.60508 3.09375 6 3.09375C5.86824 3.09375 5.73839 3.10254 5.61103 3.11959C5.45707 3.1402 5.34898 3.28171 5.36959 3.43567C5.3902 3.58963 5.53171 3.69772 5.68567 3.67711Z" fill="#0E1011"/>
</svg>
