<svg viewBox="0 0 12 12" fill="none" xmlns="http://www.w3.org/2000/svg">
<path fill-rule="evenodd" clip-rule="evenodd" d="M1.28571 0.857178C1.04902 0.857178 0.857143 1.04906 0.857143 1.28575V3.71429C0.857143 3.95098 1.04902 4.14286 1.28571 4.14286L3.71429 4.14282C3.95098 4.14282 4.14286 3.95094 4.14286 3.71425V1.28571C4.14286 1.04902 3.95098 0.857143 3.71429 0.857143L1.28571 0.857178ZM0 1.28575C0 0.575669 0.575634 3.48091e-05 1.28571 3.48091e-05L3.71429 0C4.42437 0 5 0.575634 5 1.28571V3.71425C5 4.42433 4.42437 4.99997 3.71429 4.99997L1.28571 5C0.575634 5 0 4.42437 0 3.71429V1.28575ZM7 1.28575C7 0.575669 7.57563 3.48091e-05 8.28572 3.48091e-05H10.7143C11.4244 3.48091e-05 12 0.575669 12 1.28575V3.71429C12 4.42437 11.4244 5 10.7143 5H8.28572C7.57563 5 7 4.42437 7 3.71429V1.28575ZM8.28572 0.857178C8.04902 0.857178 7.85714 1.04906 7.85714 1.28575V3.71429C7.85714 3.95098 8.04902 4.14286 8.28572 4.14286H10.7143C10.951 4.14286 11.1429 3.95098 11.1429 3.71429V1.28575C11.1429 1.04906 10.951 0.857178 10.7143 0.857178H8.28572ZM1.28571 7.85714C1.04902 7.85714 0.857143 8.04902 0.857143 8.28572V10.7143C0.857143 10.951 1.04902 11.1429 1.28571 11.1429L3.71429 11.1429C3.95098 11.1429 4.14286 10.951 4.14286 10.7143V8.28568C4.14286 8.04899 3.95098 7.85711 3.71429 7.85711L1.28571 7.85714ZM0 8.28572C0 7.57563 0.575634 7 1.28571 7L3.71429 6.99997C4.42437 6.99997 5 7.5756 5 8.28568V10.7143C5 11.4244 4.42437 12 3.71429 12L1.28571 12C0.575634 12 0 11.4244 0 10.7143V8.28572ZM8.28572 7.85714C8.04902 7.85714 7.85714 8.04902 7.85714 8.28572V10.7143C7.85714 10.951 8.04902 11.1429 8.28572 11.1429H10.7143C10.951 11.1429 11.1429 10.951 11.1429 10.7143V8.28572C11.1429 8.04902 10.951 7.85714 10.7143 7.85714H8.28572ZM7 8.28572C7 7.57563 7.57563 7 8.28572 7H10.7143C11.4244 7 12 7.57563 12 8.28572V10.7143C12 11.4244 11.4244 12 10.7143 12H8.28572C7.57563 12 7 11.4244 7 10.7143V8.28572Z" fill="#0E1011"/>
<path d="M0.857143 1.28575C0.857143 1.04906 1.04902 0.857178 1.28571 0.857178L3.71429 0.857143C3.95098 0.857143 4.14286 1.04902 4.14286 1.28571V3.71425C4.14286 3.95094 3.95098 4.14282 3.71429 4.14282L1.28571 4.14286C1.04902 4.14286 0.857143 3.95098 0.857143 3.71429V1.28575Z" fill="#0E1011"/>
<path d="M0.857143 8.28572C0.857143 8.04902 1.04902 7.85714 1.28571 7.85714L3.71429 7.85711C3.95098 7.85711 4.14286 8.04899 4.14286 8.28568V10.7143C4.14286 10.951 3.95098 11.1429 3.71429 11.1429L1.28571 11.1429C1.04902 11.1429 0.857143 10.951 0.857143 10.7143V8.28572Z" fill="#0E1011"/>
<path d="M7.85714 8.28572C7.85714 8.04902 8.04902 7.85714 8.28572 7.85714H10.7143C10.951 7.85714 11.1429 8.04902 11.1429 8.28572V10.7143C11.1429 10.951 10.951 11.1429 10.7143 11.1429H8.28572C8.04902 11.1429 7.85714 10.951 7.85714 10.7143V8.28572Z" fill="#0E1011"/>
<path d="M7.85714 1.28575C7.85714 1.04906 8.04902 0.857178 8.28572 0.857178H10.7143C10.951 0.857178 11.1429 1.04906 11.1429 1.28575V3.71429C11.1429 3.95098 10.951 4.14286 10.7143 4.14286H8.28572C8.04902 4.14286 7.85714 3.95098 7.85714 3.71429V1.28575Z" fill="#0E1011"/>
</svg>
