<svg viewBox="0 0 16 16" fill="none" xmlns="http://www.w3.org/2000/svg">
<path d="M4.02289 2.14946L1.11689 3.35475C1.01464 3.39716 0.922133 3.45528 0.841703 3.52564C0.957747 3.48688 1.08819 3.49036 1.2082 3.54533L7.99335 6.65295L10.3706 5.49421L4.27639 2.44713C4.15 2.38394 4.06207 2.27443 4.02289 2.14946Z" fill="#0E1011"/>
<path d="M5.05826 1.72003L11.5162 4.949L14.803 3.54035C14.9203 3.49009 15.0461 3.48815 15.1583 3.52563C15.0779 3.45528 14.9854 3.39716 14.8831 3.35475L8.38311 0.658818C8.13784 0.557087 7.86217 0.557087 7.61689 0.658818L5.05826 1.72003Z" fill="#0E1011"/>
<path d="M15.4866 4.11504C15.4513 4.26386 15.3483 4.39461 15.197 4.45949L11.7081 5.9547L8.5 7.51846V14.9999C8.5 15.1702 8.41487 15.3206 8.28486 15.4109C8.31805 15.401 8.35084 15.3894 8.38311 15.376L14.8831 12.6801C15.2566 12.5252 15.5 12.1607 15.5 11.7564V4.27845C15.5 4.22309 15.4954 4.16847 15.4866 4.11504Z" fill="#0E1011"/>
<path d="M7.71514 15.4109C7.58513 15.3206 7.5 15.1702 7.5 14.9999V7.52689L0.791797 4.45451C0.646061 4.38776 0.547752 4.25977 0.513406 4.11502C0.504566 4.16846 0.5 4.22308 0.5 4.27845V11.7564C0.5 12.1607 0.743441 12.5252 1.11689 12.6801L7.61689 15.376C7.64916 15.3894 7.68196 15.401 7.71514 15.4109Z" fill="#0E1011"/>
</svg>
