<svg viewBox="0 0 16 16" fill="none" xmlns="http://www.w3.org/2000/svg">
<path fill-rule="evenodd" clip-rule="evenodd" d="M3 2C2.44772 2 2 2.44772 2 3V5C2 5.27614 1.77614 5.5 1.5 5.5C1.22386 5.5 1 5.27614 1 5V3C1 1.89543 1.89543 1 3 1H5C5.27614 1 5.5 1.22386 5.5 1.5C5.5 1.77614 5.27614 2 5 2H3ZM10.5 1.5C10.5 1.22386 10.7239 1 11 1H13C14.1046 1 15 1.89543 15 3V5C15 5.27614 14.7761 5.5 14.5 5.5C14.2239 5.5 14 5.27614 14 5V3C14 2.44772 13.5523 2 13 2H11C10.7239 2 10.5 1.77614 10.5 1.5ZM1.5 10.5C1.77614 10.5 2 10.7239 2 11V13C2 13.5523 2.44772 14 3 14H5C5.27614 14 5.5 14.2239 5.5 14.5C5.5 14.7761 5.27614 15 5 15H3C1.89543 15 1 14.1046 1 13V11C1 10.7239 1.22386 10.5 1.5 10.5ZM14.5 10.5C14.7761 10.5 15 10.7239 15 11V13C15 14.1046 14.1046 15 13 15H11C10.7239 15 10.5 14.7761 10.5 14.5C10.5 14.2239 10.7239 14 11 14H13C13.5523 14 14 13.5523 14 13V11C14 10.7239 14.2239 10.5 14.5 10.5ZM3 8C3 7.72386 3.22386 7.5 3.5 7.5H12.5C12.7761 7.5 13 7.72386 13 8C13 8.27614 12.7761 8.5 12.5 8.5H3.5C3.22386 8.5 3 8.27614 3 8ZM5 5.25C5 5.11193 5.11193 5 5.25 5H10.75C10.8881 5 11 5.11193 11 5.25V6C11 6.27614 11.2239 6.5 11.5 6.5C11.7761 6.5 12 6.27614 12 6V5.25C12 4.55964 11.4404 4 10.75 4H5.25C4.55964 4 4 4.55964 4 5.25V6C4 6.27614 4.22386 6.5 4.5 6.5C4.77614 6.5 5 6.27614 5 6V5.25ZM5 10C5 9.72386 4.77614 9.5 4.5 9.5C4.22386 9.5 4 9.72386 4 10V10.75C4 11.4404 4.55964 12 5.25 12H10.75C11.4404 12 12 11.4404 12 10.75V10C12 9.72386 11.7761 9.5 11.5 9.5C11.2239 9.5 11 9.72386 11 10V10.75C11 10.8881 10.8881 11 10.75 11H5.25C5.11193 11 5 10.8881 5 10.75V10Z" fill="#0E1011"/>
</svg>
