<svg viewBox="0 0 16 16" fill="none" xmlns="http://www.w3.org/2000/svg">
<path fill-rule="evenodd" clip-rule="evenodd" d="M4.5 1C3.67157 1 3 1.67157 3 2.5C3 3.32843 3.67157 4 4.5 4C5.32843 4 6 3.32843 6 2.5C6 1.67157 5.32843 1 4.5 1ZM2 2.5C2 1.11929 3.11929 0 4.5 0C5.88071 0 7 1.11929 7 2.5C7 3.70948 6.14112 4.71836 5 4.94999V9.83714L8.82416 8.74452C10.1121 8.37654 11 7.19939 11 5.85995V4.94999C9.85888 4.71836 9 3.70948 9 2.5C9 1.11929 10.1193 0 11.5 0C12.8807 0 14 1.11929 14 2.5C14 3.70948 13.1411 4.71836 12 4.94999V5.85995C12 7.64587 10.8161 9.21541 9.09888 9.70604L5 10.8772V13.0854C5.5826 13.2913 6 13.8469 6 14.5C6 15.3284 5.32843 16 4.5 16C3.67157 16 3 15.3284 3 14.5C3 13.8469 3.4174 13.2913 4 13.0854V4.94999C2.85888 4.71836 2 3.70948 2 2.5ZM11.5 1C10.6716 1 10 1.67157 10 2.5C10 3.32843 10.6716 4 11.5 4C12.3284 4 13 3.32843 13 2.5C13 1.67157 12.3284 1 11.5 1ZM4.5 14C4.22386 14 4 14.2239 4 14.5C4 14.7761 4.22386 15 4.5 15C4.77614 15 5 14.7761 5 14.5C5 14.2239 4.77614 14 4.5 14Z" fill="#0E1011"/>
</svg>
