<svg viewBox="0 0 12 12" fill="none" xmlns="http://www.w3.org/2000/svg">
<path d="M6.89017 0.234835C6.74372 0.0883883 6.50628 0.0883883 6.35984 0.234835C6.21339 0.381282 6.21339 0.618718 6.35984 0.765165L7.59467 2H6C4.90381 2 3.838 2.36024 2.96659 3.02528C2.09518 3.69032 1.46647 4.6233 1.17721 5.68063C0.88796 6.73797 0.954192 7.86107 1.36572 8.87708C1.77725 9.89309 2.51126 10.7457 3.45479 11.3037C4.39833 11.8617 5.4991 12.0942 6.58769 11.9653C7.67628 11.8365 8.69236 11.3535 9.47957 10.5906C10.2668 9.82778 10.7815 8.82737 10.9444 7.74336C11.1074 6.65935 10.9096 5.55183 10.3815 4.59123C10.2818 4.40974 10.0538 4.3435 9.87226 4.44327C9.69077 4.54305 9.62453 4.77106 9.72431 4.95255C10.1732 5.76905 10.3413 6.71045 10.2028 7.63186C10.0642 8.55326 9.62675 9.40361 8.95763 10.052C8.28851 10.7005 7.42484 11.111 6.49954 11.2205C5.57423 11.3301 4.63858 11.1325 3.83658 10.6582C3.03457 10.1838 2.41066 9.45913 2.06086 8.59552C1.71106 7.73191 1.65477 6.77728 1.90063 5.87854C2.1465 4.9798 2.6809 4.18677 3.4216 3.62149C4.1623 3.0562 5.06824 2.75 6 2.75H7.59467L6.35984 3.98483C6.21339 4.13128 6.21339 4.36872 6.35984 4.51516C6.50628 4.66161 6.74372 4.66161 6.89017 4.51516L9.03033 2.375L6.89017 0.234835Z" fill="#0E1011"/>
</svg>
