<svg viewBox="0 0 16 16" fill="none" xmlns="http://www.w3.org/2000/svg">
<path d="M6.5 5.75C6.5 5.05964 7.05964 4.5 7.75 4.5H8.25C8.94036 4.5 9.5 5.05964 9.5 5.75V6.17157C9.5 6.5694 9.34196 6.95093 9.06066 7.23223L8.23223 8.06066C7.76339 8.5295 7.5 9.16539 7.5 9.82843V10C7.5 10.2761 7.72386 10.5 8 10.5C8.27614 10.5 8.5 10.2761 8.5 10V9.82843C8.5 9.4306 8.65803 9.04907 8.93934 8.76777L9.76777 7.93934C10.2366 7.4705 10.5 6.83461 10.5 6.17157V5.75C10.5 4.50736 9.49264 3.5 8.25 3.5H7.75C6.50736 3.5 5.5 4.50736 5.5 5.75V6C5.5 6.27614 5.72386 6.5 6 6.5C6.27614 6.5 6.5 6.27614 6.5 6V5.75Z" fill="#0E1011"/>
<path d="M8.60002 12C8.60002 12.3314 8.3314 12.6 8.00002 12.6C7.66865 12.6 7.40002 12.3314 7.40002 12C7.40002 11.6686 7.66865 11.4 8.00002 11.4C8.3314 11.4 8.60002 11.6686 8.60002 12Z" fill="#0E1011"/>
<path fill-rule="evenodd" clip-rule="evenodd" d="M15.2943 8.00004C15.2943 12.0314 12.0262 15.2995 7.99479 15.2995C3.9634 15.2995 0.695312 12.0314 0.695312 8.00004C0.695312 3.96865 3.9634 0.700562 7.99479 0.700562C12.0262 0.700562 15.2943 3.96865 15.2943 8.00004ZM14.2943 8.00004C14.2943 11.4791 11.4739 14.2995 7.99479 14.2995C4.51569 14.2995 1.69531 11.4791 1.69531 8.00004C1.69531 4.52094 4.51569 1.70056 7.99479 1.70056C11.4739 1.70056 14.2943 4.52094 14.2943 8.00004Z" fill="#0E1011"/>
</svg>
