<svg viewBox="0 0 16 16" fill="none" xmlns="http://www.w3.org/2000/svg">
<path fill-rule="evenodd" clip-rule="evenodd" d="M4.25 1C3.55964 1 3 1.55964 3 2.25V14.5792L7.7277 11.5092C7.89331 11.4017 8.10669 11.4017 8.2723 11.5092L13 14.5792V2.25C13 1.55964 12.4404 1 11.75 1H4.25ZM2 2.25C2 1.00736 3.00736 0 4.25 0H11.75C12.9926 0 14 1.00736 14 2.25V15.5C14 15.6833 13.8997 15.8519 13.7386 15.9394C13.5775 16.0269 13.3814 16.0192 13.2277 15.9193L8 12.5247L2.7723 15.9193C2.61856 16.0192 2.42251 16.0269 2.26141 15.9394C2.10031 15.8519 2 15.6833 2 15.5V2.25Z" fill="#0E1011"/>
<path d="M3 2.25C3 1.55964 3.55964 1 4.25 1H11.75C12.4404 1 13 1.55964 13 2.25V14.5792L8.2723 11.5092C8.10669 11.4017 7.89331 11.4017 7.7277 11.5092L3 14.5792V2.25Z" fill="#0E1011"/>
</svg>
