<svg viewBox="0 0 16 16" fill="none" xmlns="http://www.w3.org/2000/svg">
<path d="M8 0C6.64003 0 5.43857 0.678698 4.71586 1.71586L11.6465 8.64649C11.8736 8.14435 12 7.58694 12 7V4C12 1.79086 10.2091 0 8 0Z" fill="#0E1011"/>
<path d="M4 4.70711V7C4 9.20914 5.79086 11 8 11C8.66491 11 9.29192 10.8378 9.84362 10.5507L10.8436 11.5507C10.2919 11.8378 9.66491 12 9 12H7C4.79086 12 3 10.2091 3 8V7.75C3 7.47386 2.77614 7.25 2.5 7.25C2.22386 7.25 2 7.47386 2 7.75V8C2 10.7614 4.23858 13 7 13H7.5V15H6C5.72386 15 5.5 15.2239 5.5 15.5C5.5 15.7761 5.72386 16 6 16H10C10.2761 16 10.5 15.7761 10.5 15.5C10.5 15.2239 10.2761 15 10 15H8.5V13H9C9.94308 13 10.8252 12.7389 11.5779 12.2851L14.8964 15.6036C15.0917 15.7988 15.4083 15.7988 15.6036 15.6036C15.7988 15.4083 15.7988 15.0917 15.6036 14.8964L1.10355 0.396447C0.908291 0.201184 0.591709 0.201184 0.396447 0.396447C0.201184 0.591709 0.201184 0.908291 0.396447 1.10355L4 4.70711Z" fill="#0E1011"/>
<path d="M14 8C14 8.86642 13.7796 9.68138 13.3919 10.3919L12.6465 9.64649C12.8736 9.14435 13 8.58694 13 8V7.75C13 7.47386 13.2239 7.25 13.5 7.25C13.7761 7.25 14 7.47386 14 7.75V8Z" fill="#0E1011"/>
</svg>
