<svg viewBox="0 0 16 16" fill="none" xmlns="http://www.w3.org/2000/svg">
<path fill-rule="evenodd" clip-rule="evenodd" d="M10.1464 2.14645C9.95118 2.34171 9.95118 2.65829 10.1464 2.85355L13.2929 6H6C3.79086 6 2 7.79086 2 10V14.5C2 14.7761 2.22386 15 2.5 15C2.77614 15 3 14.7761 3 14.5V10C3 8.34315 4.34315 7 6 7H13.2929L10.1464 10.1464C9.95118 10.3417 9.95118 10.6583 10.1464 10.8536C10.3417 11.0488 10.6583 11.0488 10.8536 10.8536L15.2071 6.5L10.8536 2.14645C10.6583 1.95118 10.3417 1.95118 10.1464 2.14645Z" fill="#0E1011"/>
</svg>
