<svg viewBox="0 0 12 12" fill="none" xmlns="http://www.w3.org/2000/svg">
<path fill-rule="evenodd" clip-rule="evenodd" d="M5 0.125C4.51675 0.125 4.125 0.516751 4.125 1V1.125H0.5C0.292893 1.125 0.125 1.29289 0.125 1.5C0.125 1.70711 0.292893 1.875 0.5 1.875L1.125 1.87513V5.5C1.125 7.27164 1.46457 9.15847 1.74931 10.3266C1.99763 11.3454 2.92303 12 3.94152 12H8.05848C9.07697 12 10.0024 11.3454 10.2507 10.3266C10.5354 9.15847 10.875 7.27164 10.875 5.5V1.875H11.5C11.7071 1.875 11.875 1.70711 11.875 1.5C11.875 1.29289 11.7071 1.125 11.5 1.125H7.875V1C7.875 0.516751 7.48325 0.125 7 0.125H5ZM7.125 1.125H4.875V1C4.875 0.930964 4.93096 0.875 5 0.875H7C7.06904 0.875 7.125 0.930964 7.125 1V1.125ZM4.875 5C4.875 4.79289 4.70711 4.625 4.5 4.625C4.29289 4.625 4.125 4.79289 4.125 5V8.5C4.125 8.70711 4.29289 8.875 4.5 8.875C4.70711 8.875 4.875 8.70711 4.875 8.5V5ZM7.875 5C7.875 4.79289 7.70711 4.625 7.5 4.625C7.29289 4.625 7.125 4.79289 7.125 5V8.5C7.125 8.70711 7.29289 8.875 7.5 8.875C7.70711 8.875 7.875 8.70711 7.875 8.5V5Z" fill="#0E1011"/>
</svg>
