<svg viewBox="0 0 12 12" fill="none" xmlns="http://www.w3.org/2000/svg">
<path d="M3.5 0.908936L0.731969 3.73779C0.587123 3.88582 0.589703 4.12324 0.737732 4.26809C0.885761 4.41293 1.12318 4.41035 1.26803 4.26232L3.125 2.36455V9.50006C3.125 9.70716 3.29289 9.87506 3.5 9.87506C3.70711 9.87506 3.875 9.70716 3.875 9.50006V2.36455L5.73197 4.26232C5.87682 4.41035 6.11424 4.41293 6.26227 4.26809C6.4103 4.12324 6.41288 3.88582 6.26803 3.73779L3.5 0.908936Z" fill="#0E1011"/>
<path d="M8.5 11.0304L5.73484 8.26522C5.58839 8.11877 5.58839 7.88134 5.73484 7.73489C5.88128 7.58844 6.11872 7.58844 6.26516 7.73489L8.125 9.59473V2.44512C8.125 2.23802 8.29289 2.07012 8.5 2.07012C8.70711 2.07012 8.875 2.23802 8.875 2.44512V9.59473L10.7348 7.73489C10.8813 7.58844 11.1187 7.58844 11.2652 7.73489C11.4116 7.88134 11.4116 8.11877 11.2652 8.26522L8.5 11.0304Z" fill="#0E1011"/>
</svg>
