<svg viewBox="0 0 16 16" fill="none" xmlns="http://www.w3.org/2000/svg">
<path d="M7.57143 11.7143V13.5552C4.83611 13.3471 2.65289 11.1639 2.44481 8.42857H4.28571C4.52241 8.42857 4.71429 8.23669 4.71429 8C4.71429 7.76331 4.52241 7.57143 4.28571 7.57143H2.44481C2.65289 4.83611 4.83611 2.65289 7.57143 2.44481V4.28571C7.57143 4.52241 7.76331 4.71429 8 4.71429C8.23669 4.71429 8.42857 4.52241 8.42857 4.28571V2.44481C11.1639 2.65289 13.3471 4.83611 13.5552 7.57143H11.7143C11.4776 7.57143 11.2857 7.76331 11.2857 8C11.2857 8.23669 11.4776 8.42857 11.7143 8.42857H13.5552C13.3471 11.1639 11.1639 13.3471 8.42857 13.5552V11.7143C8.42857 11.4776 8.23669 11.2857 8 11.2857C7.76331 11.2857 7.57143 11.4776 7.57143 11.7143Z" fill="#0E1011"/>
<path fill-rule="evenodd" clip-rule="evenodd" d="M15.2943 7.99992C15.2943 12.0313 12.0262 15.2994 7.99479 15.2994C3.9634 15.2994 0.695312 12.0313 0.695312 7.99992C0.695312 3.96853 3.9634 0.700439 7.99479 0.700439C12.0262 0.700439 15.2943 3.96853 15.2943 7.99992ZM2 8C2 11.3137 4.68629 14 8 14C11.3137 14 14 11.3137 14 8C14 4.68629 11.3137 2 8 2C4.68629 2 2 4.68629 2 8Z" fill="#0E1011"/>
</svg>
