<svg viewBox="0 0 16 16" fill="none" xmlns="http://www.w3.org/2000/svg">
<path fill-rule="evenodd" clip-rule="evenodd" d="M4.5 2C4.22386 2 4 2.22386 4 2.5V6H12V2.5C12 2.22386 11.7761 2 11.5 2H4.5ZM13 6V2.5C13 1.67157 12.3284 1 11.5 1H4.5C3.67157 1 3 1.67157 3 2.5V6H2C0.895431 6 0 6.89543 0 8V11C0 12.1046 0.895431 13 2 13H3V14.5C3 15.3284 3.67157 16 4.5 16H11.5C12.3284 16 13 15.3284 13 14.5V13H14C15.1046 13 16 12.1046 16 11V8C16 6.89543 15.1046 6 14 6H13ZM4.5 11C4.22386 11 4 11.2239 4 11.5V14.5C4 14.7761 4.22386 15 4.5 15H11.5C11.7761 15 12 14.7761 12 14.5V11.5C12 11.2239 11.7761 11 11.5 11H4.5ZM11.5 8C11.2239 8 11 8.22386 11 8.5C11 8.77614 11.2239 9 11.5 9H12.5C12.7761 9 13 8.77614 13 8.5C13 8.22386 12.7761 8 12.5 8H11.5Z" fill="#0E1011"/>
</svg>
