<svg viewBox="0 0 12 12" fill="none" xmlns="http://www.w3.org/2000/svg">
<path fill-rule="evenodd" clip-rule="evenodd" d="M0.827665 0.297335C0.681218 0.150888 0.443782 0.150888 0.297335 0.297335C0.150888 0.443782 0.150888 0.681218 0.297335 0.827665L1.08168 1.61201C0.448986 1.85545 0 2.46904 0 3.1875V8.8125C0 9.74448 0.755519 10.5 1.6875 10.5H9.96967L11.1723 11.7027C11.3188 11.8491 11.5562 11.8491 11.7027 11.7027C11.8491 11.5562 11.8491 11.3188 11.7027 11.1723L0.827665 0.297335ZM7.83962 8.36995L7.3037 7.83403C6.93589 8.09595 6.48594 8.25 6 8.25C4.75736 8.25 3.75 7.24264 3.75 6C3.75 5.51406 3.90405 5.06411 4.16597 4.6963L3.63005 4.16038C3.23516 4.66839 3 5.30673 3 6C3 7.65685 4.34315 9 6 9C6.69327 9 7.33161 8.76484 7.83962 8.36995ZM4.58879 5.11912C4.4726 5.32375 4.40625 5.56037 4.40625 5.8125V6H4.96875V5.8125C4.96875 5.71827 4.9842 5.62765 5.0127 5.54303L4.58879 5.11912Z" fill="#0E1011"/>
<path d="M12 8.8125C12 9.08511 11.9354 9.34263 11.8206 9.57055L8.92399 6.67398C8.97373 6.45733 9 6.23174 9 6C9 4.34315 7.65685 3 6 3C5.76826 3 5.54267 3.02627 5.32602 3.07601L3.48484 1.23483L3.75 0.96967C3.89065 0.829018 4.08142 0.75 4.28033 0.75H7.71967C7.91858 0.75 8.10935 0.829017 8.25 0.96967L8.78033 1.5H10.3125C11.2445 1.5 12 2.25552 12 3.1875V8.8125Z" fill="#0E1011"/>
<path d="M8.25 6C8.25 4.75736 7.24264 3.75 6 3.75L8.25 6Z" fill="#0E1011"/>
</svg>
