<svg viewBox="0 0 16 16" fill="none" xmlns="http://www.w3.org/2000/svg">
<path d="M7 10.5C7 9.94771 7.44772 9.5 8 9.5C8.55228 9.5 9 9.94771 9 10.5C9 11.0523 8.55228 11.5 8 11.5C7.44772 11.5 7 11.0523 7 10.5Z" fill="#0E1011"/>
<path fill-rule="evenodd" clip-rule="evenodd" d="M8 0C5.79086 0 4 1.79086 4 4V6C2.89543 6 2 6.89543 2 8V14C2 15.1046 2.89543 16 4 16H12C13.1046 16 14 15.1046 14 14V8C14 6.89543 13.1046 6 12 6V4C12 1.79086 10.2091 0 8 0ZM11 6V4C11 2.34315 9.65685 1 8 1C6.34315 1 5 2.34315 5 4V6H11ZM4 7C3.44772 7 3 7.44772 3 8V14C3 14.5523 3.44772 15 4 15H12C12.5523 15 13 14.5523 13 14V8C13 7.44772 12.5523 7 12 7H4Z" fill="#0E1011"/>
</svg>
