<svg viewBox="0 0 12 12" fill="none" xmlns="http://www.w3.org/2000/svg">
<path d="M6 3.85714C8.76142 3.85714 11 3.21755 11 2.42857C11 1.63959 8.76142 1 6 1C3.23858 1 1 1.63959 1 2.42857C1 3.21755 3.23858 3.85714 6 3.85714Z" fill="#0E1011"/>
<path d="M6 4.57143C8.76142 4.57143 11 3.93184 11 3.14286V5.64286C11 6.62908 8.76142 7.42857 6 7.42857C3.23858 7.42857 1 6.62908 1 5.64286V3.14286C1 3.93184 3.23858 4.57143 6 4.57143Z" fill="#0E1011"/>
<path d="M6 8.14286C8.76142 8.14286 11 7.50326 11 6.71429V9.21429C11 10.2005 8.76142 11 6 11C3.23858 11 1 10.2005 1 9.21429V6.71429C1 7.50326 3.23858 8.14286 6 8.14286Z" fill="#0E1011"/>
</svg>
