<svg viewBox="0 0 12 12" fill="none" xmlns="http://www.w3.org/2000/svg">
<path d="M8.89017 3.64017C9.03661 3.49372 9.03661 3.25628 8.89017 3.10984C8.74372 2.96339 8.50628 2.96339 8.35984 3.10984L5.73483 5.73484C5.66451 5.80516 5.625 5.90054 5.625 6C5.625 6.09946 5.66451 6.19484 5.73483 6.26517L8.35984 8.89017C8.50628 9.03661 8.74372 9.03661 8.89017 8.89017C9.03661 8.74372 9.03661 8.50628 8.89017 8.35984L6.53033 6L8.89017 3.64017Z" fill="#0E1011"/>
<path d="M5.89017 3.64017C6.03661 3.49372 6.03661 3.25628 5.89017 3.10983C5.74372 2.96339 5.50628 2.96339 5.35984 3.10983L2.73484 5.73484C2.58839 5.88128 2.58839 6.11872 2.73484 6.26517L5.35984 8.89017C5.50628 9.03661 5.74372 9.03661 5.89017 8.89017C6.03661 8.74372 6.03661 8.50628 5.89017 8.35984L3.53033 6L5.89017 3.64017Z" fill="#0E1011"/>
</svg>
