<svg viewBox="0 0 16 16" fill="none" xmlns="http://www.w3.org/2000/svg">
<path fill-rule="evenodd" clip-rule="evenodd" d="M2.25 4C1.55964 4 1 4.55964 1 5.25V10.75C1 11.4404 1.55964 12 2.25 12H12.75C13.4404 12 14 11.4404 14 10.75V5.25C14 4.55964 13.4404 4 12.75 4H2.25ZM0 5.25C0 4.00736 1.00736 3 2.25 3H12.75C13.9926 3 15 4.00736 15 5.25V6.5H15.25C15.6642 6.5 16 6.83579 16 7.25V9.25C16 9.66421 15.6642 10 15.25 10H15V10.75C15 11.9926 13.9926 13 12.75 13H2.25C1.00736 13 0 11.9926 0 10.75V5.25Z" fill="#0E1011"/>
</svg>
