<svg viewBox="0 0 16 16" fill="none" xmlns="http://www.w3.org/2000/svg">
<path fill-rule="evenodd" clip-rule="evenodd" d="M7.24255 0.896873C7.5478 0.286375 8.36144 0.154338 8.84408 0.63698L9.15248 0.94538C10.0218 1.81471 10.3713 3.07642 10.0731 4.26913L9.64039 6H13.4014C15.1339 6 16.3412 7.71956 15.7528 9.34912L14.1857 13.6888C13.6848 15.0757 12.3684 16 10.8937 16H5.5C5.32468 16 5.15639 15.9699 5 15.9147V7.78485C5 7.35139 4.64861 7 4.21515 7V7C4.25983 6.87851 4.31133 6.75931 4.3695 6.64296L7.24255 0.896873ZM3.5 7C3.67532 7 3.84361 7.03008 4 7.08535V15.9146C3.84361 15.9699 3.67532 16 3.5 16H1.5C0.671573 16 0 15.3284 0 14.5V8.5C0 7.67157 0.671573 7 1.5 7H3.5Z" fill="#0E1011"/>
</svg>
