<svg viewBox="0 0 16 16" fill="none" xmlns="http://www.w3.org/2000/svg">
<path d="M1 8C1 5.23858 3.23858 3 6 3C8.31029 3 10.2558 4.56733 10.8288 6.69755L10.9504 7.14957L11.4094 7.05801C11.6 7.02001 11.7974 7 12 7C13.6569 7 15 8.34315 15 10C15 11.4356 13.9912 12.6367 12.6433 12.931C12.3736 12.9899 12.2026 13.2563 12.2615 13.5261C12.3204 13.7959 12.5869 13.9669 12.8567 13.9079C14.654 13.5155 16 11.9155 16 10C16 7.79086 14.2091 6 12 6C11.8867 6 11.7744 6.00472 11.6634 6.01399C10.8437 3.67659 8.61819 2 6 2C2.68629 2 0 4.68629 0 8C0 10.5448 1.58405 12.7183 3.81811 13.5908C4.07534 13.6913 4.36529 13.5642 4.46574 13.3069C4.5662 13.0497 4.43911 12.7598 4.18189 12.6593C2.31859 11.9316 1 10.1192 1 8Z" fill="#0E1011"/>
<path d="M6.875 10.5C6.875 10.2929 6.70711 10.125 6.5 10.125C6.29289 10.125 6.125 10.2929 6.125 10.5V14.5C6.125 14.7071 6.29289 14.875 6.5 14.875C6.70711 14.875 6.875 14.7071 6.875 14.5V10.5Z" fill="#0E1011"/>
<path d="M10.875 10.5C10.875 10.2929 10.7071 10.125 10.5 10.125C10.2929 10.125 10.125 10.2929 10.125 10.5V14.5C10.125 14.7071 10.2929 14.875 10.5 14.875C10.7071 14.875 10.875 14.7071 10.875 14.5V10.5Z" fill="#0E1011"/>
<path d="M8.875 11.5C8.875 11.2929 8.70711 11.125 8.5 11.125C8.29289 11.125 8.125 11.2929 8.125 11.5V15.5C8.125 15.7071 8.29289 15.875 8.5 15.875C8.70711 15.875 8.875 15.7071 8.875 15.5V11.5Z" fill="#0E1011"/>
</svg>
