<svg viewBox="0 0 12 12" fill="none" xmlns="http://www.w3.org/2000/svg">
<path d="M1.20254 1.04733C1.05609 0.900888 0.818656 0.900888 0.672209 1.04733C0.525762 1.19378 0.525762 1.43122 0.672209 1.57767L2.03752 2.94297C1.29655 3.37522 0.632542 3.92499 0.0710449 4.56672L0.618563 5.08002C1.17336 4.44126 1.84001 3.90225 2.58802 3.49348L3.70668 4.61214C2.93476 4.95719 2.25485 5.4711 1.71389 6.10689L2.26179 6.62055C2.79566 5.98352 3.48935 5.48498 4.28116 5.18661L5.5055 6.41095C4.63917 6.53811 3.87984 6.99442 3.35858 7.64879L3.90805 8.16392C4.38745 7.53264 5.14605 7.125 5.99987 7.125C6.07722 7.125 6.15379 7.12835 6.22944 7.1349L9.29721 10.2027C9.44366 10.3491 9.68109 10.3491 9.82754 10.2027C9.97399 10.0562 9.97399 9.81878 9.82754 9.67233L1.20254 1.04733Z" fill="#0E1011"/>
<path d="M9.73796 6.62055C9.00983 5.75174 7.98444 5.14052 6.81827 4.9434L5.99987 4.125C7.71681 4.125 9.25409 4.89425 10.2859 6.10689L9.73796 6.62055Z" fill="#0E1011"/>
<path d="M5.99987 2.625C5.53173 2.625 5.07414 2.67015 4.6312 2.75633L4.0048 2.12992C4.64196 1.96356 5.31058 1.875 5.99987 1.875C8.36422 1.875 10.4852 2.91695 11.9287 4.56673L11.3812 5.08002C10.0748 3.576 8.14842 2.625 5.99987 2.625Z" fill="#0E1011"/>
<path d="M7.26307 8.94075C6.99635 8.52528 6.53026 8.25 5.99987 8.25C5.46949 8.25 5.00339 8.52528 4.73667 8.94075L5.99987 10.125L7.26307 8.94075Z" fill="#0E1011"/>
</svg>
