<svg viewBox="0 0 12 12" fill="none" xmlns="http://www.w3.org/2000/svg">
<path d="M6 7.5C8.07107 7.5 9.75 5.82107 9.75 3.75C9.75 1.67893 8.07107 0 6 0C3.92893 0 2.25 1.67893 2.25 3.75C2.25 5.82107 3.92893 7.5 6 7.5Z" fill="#0E1011"/>
<path d="M3.00437 11.568L3.61952 7.56952C4.31002 8.00078 5.1259 8.25 6 8.25C6.8741 8.25 7.69 8.00078 8.3805 7.56951L8.99565 11.568C9.01754 11.7103 8.95605 11.8525 8.83742 11.934C8.71878 12.0156 8.56394 12.022 8.43896 11.9506L6.00001 10.5569L3.56106 11.9506C3.43608 12.022 3.28124 12.0156 3.1626 11.934C3.04397 11.8525 2.98248 11.7103 3.00437 11.568Z" fill="#0E1011"/>
</svg>
