<svg viewBox="0 0 16 16" fill="none" xmlns="http://www.w3.org/2000/svg">
<path d="M11.4997 0C11.2236 0 10.9997 0.223858 10.9997 0.5C10.9997 0.776142 11.2236 1 11.4997 1H14.2926L10.1461 5.14645C9.95088 5.34171 9.95088 5.65829 10.1461 5.85355C10.3414 6.04882 10.658 6.04882 10.8532 5.85355L14.9997 1.70711V4.5C14.9997 4.77614 15.2236 5 15.4997 5C15.7758 5 15.9997 4.77614 15.9997 4.5V0H11.4997Z" fill="#0E1011"/>
<path d="M14.9997 13C14.9997 14.1046 14.0997 15.015 13.0062 14.8592C11.1877 14.5999 9.48188 13.9913 7.95881 13.1033C5.92016 11.9148 4.20899 10.226 2.99361 8.20514C2.05282 6.64084 1.40909 4.87759 1.1405 2.99344C0.984608 1.89993 1.89508 1 2.99965 1H4.99965C5.55194 1 5.9938 1.44908 6.05437 1.99803C6.15106 2.87449 6.37361 3.71304 6.70354 4.49521L5.0892 6.10955C4.93402 6.26473 4.89722 6.50355 5.00604 6.69413C6.06089 8.54149 7.61321 10.0681 9.48054 11.0915C9.67025 11.1955 9.90483 11.1573 10.0578 11.0043L11.6901 9.372C12.4188 9.66029 13.1941 9.8562 14.0016 9.94529C14.5506 10.0059 14.9997 10.4477 14.9997 11V13Z" fill="#0E1011"/>
</svg>
