<svg viewBox="0 0 12 12" fill="none" xmlns="http://www.w3.org/2000/svg">
<path d="M5.5 2.875C4.05025 2.875 2.875 4.05025 2.875 5.5H2.125C2.125 3.63604 3.63604 2.125 5.5 2.125V2.875Z" fill="#0E1011"/>
<path fill-rule="evenodd" clip-rule="evenodd" d="M9.61934 9.14441C10.4785 8.17406 11 6.89794 11 5.5C11 2.46243 8.53757 0 5.5 0C2.46243 0 0 2.46243 0 5.5C0 8.53757 2.46243 11 5.5 11C6.89794 11 8.17406 10.4785 9.14441 9.61934C9.16225 9.67264 9.19239 9.72272 9.23483 9.76517L11.2348 11.7652C11.3813 11.9116 11.6187 11.9116 11.7652 11.7652C11.9116 11.6187 11.9116 11.3813 11.7652 11.2348L9.76517 9.23483C9.72272 9.19239 9.67264 9.16225 9.61934 9.14441ZM5.5 10.25C8.12335 10.25 10.25 8.12335 10.25 5.5C10.25 2.87665 8.12335 0.75 5.5 0.75C2.87665 0.75 0.75 2.87665 0.75 5.5C0.75 8.12335 2.87665 10.25 5.5 10.25Z" fill="#0E1011"/>
</svg>
