<svg viewBox="0 0 12 12" fill="none" xmlns="http://www.w3.org/2000/svg">
<path d="M4.65273 4.6527C4.25624 5.04919 4.25624 5.69202 4.65273 6.08851C5.04922 6.485 5.69205 6.485 6.08854 6.08851C6.48503 5.69202 6.48503 5.04919 6.08854 4.6527C5.69205 4.25621 5.04922 4.25621 4.65273 4.6527Z" fill="#0E1011"/>
<path fill-rule="evenodd" clip-rule="evenodd" d="M0.135478 0.135478C0.230435 0.0405221 0.368918 0.00358946 0.498549 0.0386495L8.72291 2.26301C8.85136 2.29776 8.95178 2.39796 8.98679 2.52634L9.99997 6.24133C10.2796 6.2039 10.573 6.29265 10.7879 6.50759L11.4924 7.21209C11.8585 7.57821 11.8585 8.1718 11.4924 8.53792L8.53792 11.4924C8.1718 11.8585 7.57821 11.8585 7.21209 11.4924L6.50759 10.7879C6.29266 10.573 6.2039 10.2797 6.24133 9.99998L2.52633 8.9868C2.39796 8.95178 2.29775 8.85136 2.26301 8.72291L0.0386494 0.498548C0.00358946 0.368917 0.0405222 0.230434 0.135478 0.135478ZM0.201761 0.201715C0.311596 0.0918801 0.489674 0.0918805 0.599509 0.201715L4.47153 4.07375C5.0866 3.64627 5.93801 3.70667 6.48629 4.25495C7.10245 4.87111 7.10245 5.8701 6.48629 6.48626C5.87013 7.10242 4.87114 7.10242 4.25498 6.48626C3.7067 5.93798 3.6463 5.08657 4.07378 4.4715L0.201761 0.599463C0.0919258 0.489627 0.0919262 0.31155 0.201761 0.201715ZM9.76139 6.36361C9.87123 6.47344 9.87123 6.65152 9.76139 6.76135L6.76139 9.76135C6.65156 9.87119 6.47348 9.87119 6.36365 9.76135C6.25381 9.65152 6.25381 9.47344 6.36365 9.36361L9.36365 6.36361C9.47348 6.25377 9.65156 6.25377 9.76139 6.36361Z" fill="#0E1011"/>
</svg>
