<svg viewBox="0 0 16 16" fill="none" xmlns="http://www.w3.org/2000/svg">
<path d="M5.14645 5.14654C5.34171 4.95128 5.65829 4.95128 5.85355 5.14654L8 7.29298L10.1464 5.14654C10.3417 4.95128 10.6583 4.95128 10.8536 5.14654C11.0488 5.3418 11.0488 5.65838 10.8536 5.85364L8.70711 8.00009L10.8536 10.1465C11.0488 10.3418 11.0488 10.6584 10.8536 10.8536C10.6583 11.0489 10.3417 11.0489 10.1464 10.8536L8 8.7072L5.85355 10.8536C5.65829 11.0489 5.34171 11.0489 5.14645 10.8536C4.95118 10.6584 4.95118 10.3418 5.14645 10.1465L7.29289 8.00009L5.14645 5.85364C4.95118 5.65838 4.95118 5.3418 5.14645 5.14654Z" fill="#0E1011"/>
<path fill-rule="evenodd" clip-rule="evenodd" d="M15.2943 8.00001C15.2943 12.0314 12.0262 15.2995 7.99479 15.2995C3.9634 15.2995 0.695312 12.0314 0.695312 8.00001C0.695312 3.96862 3.9634 0.700531 7.99479 0.700531C12.0262 0.700531 15.2943 3.96862 15.2943 8.00001ZM14.2943 8.00001C14.2943 11.4791 11.4739 14.2995 7.99479 14.2995C4.51569 14.2995 1.69531 11.4791 1.69531 8.00001C1.69531 4.5209 4.51569 1.70053 7.99479 1.70053C11.4739 1.70053 14.2943 4.5209 14.2943 8.00001Z" fill="#0E1011"/>
</svg>
