<svg viewBox="0 0 12 12" fill="none" xmlns="http://www.w3.org/2000/svg">
<path fill-rule="evenodd" clip-rule="evenodd" d="M4.55901 5.69372L9.90874 1.91744C10.1571 1.74209 10.5 1.91974 10.5 2.2238V9.77636C10.5 10.0804 10.1571 10.2581 9.90874 10.0827L4.55901 6.30644C4.34736 6.15704 4.34736 5.84312 4.55901 5.69372ZM5.42554 6.00008L9.75 9.05264V2.94752L5.42554 6.00008Z" fill="#0E1011"/>
<path d="M1.5 2.25008C1.5 2.04297 1.66789 1.87508 1.875 1.87508C2.08211 1.87508 2.25 2.04297 2.25 2.25008V9.75008C2.25 9.95719 2.08211 10.1251 1.875 10.1251C1.66789 10.1251 1.5 9.95719 1.5 9.75008V2.25008Z" fill="#0E1011"/>
</svg>
