<svg viewBox="0 0 16 16" fill="none" xmlns="http://www.w3.org/2000/svg">
<path fill-rule="evenodd" clip-rule="evenodd" d="M3 2C2.44772 2 2 2.44772 2 3C2 3.55228 2.44772 4 3 4C3.55228 4 4 3.55228 4 3C4 2.44772 3.55228 2 3 2ZM1 3C1 1.89543 1.89543 1 3 1C4.10457 1 5 1.89543 5 3C5 4.10457 4.10457 5 3 5C1.89543 5 1 4.10457 1 3ZM6 9.5C6 7.01472 8.01472 5 10.5 5C12.9853 5 15 7.01472 15 9.5V15H11V9.5C11 9.22386 10.7761 9 10.5 9C10.2239 9 10 9.22386 10 9.5V15H6V9.5ZM10.5 6C8.567 6 7 7.567 7 9.5V14H9V9.5C9 8.67157 9.67157 8 10.5 8C11.3284 8 12 8.67157 12 9.5V14H14V9.5C14 7.567 12.433 6 10.5 6ZM1 7C1 6.44772 1.44772 6 2 6H4C4.55228 6 5 6.44772 5 7V14C5 14.5523 4.55228 15 4 15H2C1.44772 15 1 14.5523 1 14V7ZM2 7V14H4V7H2Z" fill="#0E1011"/>
</svg>
