<svg viewBox="0 0 16 16" fill="none" xmlns="http://www.w3.org/2000/svg">
<path fill-rule="evenodd" clip-rule="evenodd" d="M14.8536 10.1464C14.6583 9.95118 14.3417 9.95118 14.1464 10.1464L11 13.2929V6C11 3.79086 9.20914 2 7 2H2.5C2.22386 2 2 2.22386 2 2.5C2 2.77614 2.22386 3 2.5 3H7C8.65685 3 10 4.34315 10 6V13.2929L6.85355 10.1464C6.65829 9.95118 6.34171 9.95118 6.14645 10.1464C5.95118 10.3417 5.95118 10.6583 6.14645 10.8536L10.5 15.2071L14.8536 10.8536C15.0488 10.6583 15.0488 10.3417 14.8536 10.1464Z" fill="#0E1011"/>
</svg>
