<svg viewBox="0 0 12 12" fill="none" xmlns="http://www.w3.org/2000/svg">
<path fill-rule="evenodd" clip-rule="evenodd" d="M4.89016 1.10983C5.03661 1.25628 5.03661 1.49372 4.89016 1.64017L2.53033 4H8C9.65685 4 11 5.34315 11 7V10.375C11 10.5821 10.8321 10.75 10.625 10.75C10.4179 10.75 10.25 10.5821 10.25 10.375V7C10.25 5.75736 9.24264 4.75 8 4.75H2.53033L4.89016 7.10984C5.03661 7.25628 5.03661 7.49372 4.89016 7.64017C4.74371 7.78661 4.50628 7.78661 4.35983 7.64017L1.09467 4.375L4.35983 1.10983C4.50628 0.963388 4.74371 0.963388 4.89016 1.10983Z" fill="#0E1011"/>
</svg>
