<svg viewBox="0 0 16 16" fill="none" xmlns="http://www.w3.org/2000/svg">
<path d="M7.99999 4.50002C8.27613 4.50002 8.49999 4.72388 8.49999 5.00002V8.50002C8.49999 8.77617 8.27613 9.00002 7.99999 9.00002C7.72385 9.00002 7.49999 8.77617 7.49999 8.50002L7.49999 5.00002C7.49999 4.72388 7.72385 4.50002 7.99999 4.50002Z" fill="#0E1011"/>
<path d="M7.99999 10C8.27613 10 8.49999 10.2239 8.49999 10.5V11C8.49999 11.2762 8.27613 11.5 7.99999 11.5C7.72385 11.5 7.49999 11.2762 7.49999 11V10.5C7.49999 10.2239 7.72385 10 7.99999 10Z" fill="#0E1011"/>
<path fill-rule="evenodd" clip-rule="evenodd" d="M6.45336 0.921429C7.11068 -0.320166 8.8893 -0.320162 9.54662 0.921433L15.64 12.4312C16.2571 13.5967 15.4122 15 14.0934 15H1.90657C0.587817 15 -0.257085 13.5967 0.359945 12.4312L6.45336 0.921429ZM8.66283 1.38932L14.7562 12.8991C15.0207 13.3986 14.6586 14 14.0934 14H1.90657C1.34139 14 0.979291 13.3986 1.24373 12.8991L7.33715 1.38932C7.61885 0.857209 8.38112 0.857204 8.66283 1.38932Z" fill="#0E1011"/>
</svg>
