<svg viewBox="0 0 12 12" fill="none" xmlns="http://www.w3.org/2000/svg">
<path d="M4.49991 7.125C5.94966 7.125 7.12491 5.94975 7.12491 4.5C7.12491 3.05025 5.94966 1.875 4.49991 1.875C3.05016 1.875 1.87491 3.05025 1.87491 4.5C1.87491 5.94975 3.05016 7.125 4.49991 7.125Z" fill="#0E1011"/>
<path d="M0.169589 9.14244L0.0527344 10.0773C1.14862 11.2598 2.71516 12 4.45458 12C6.2366 12 7.83717 11.2231 8.93609 9.98958L8.8302 9.14244C8.71291 8.20413 7.91528 7.5 6.96968 7.5H6.37489L5.19625 7.97146C4.74923 8.15027 4.25056 8.15027 3.80353 7.97146L2.62489 7.5H2.03011C1.0845 7.5 0.286877 8.20413 0.169589 9.14244Z" fill="#0E1011"/>
<path d="M5.48584 0.88005C7.08031 1.31181 8.25324 2.76893 8.25324 4.5C8.25324 4.71843 8.23454 4.93253 8.19866 5.14078C9.28209 4.81753 10.0719 3.8135 10.0719 2.625C10.0719 1.17525 8.89669 0 7.44694 0C6.66707 0 5.96663 0.340089 5.48584 0.88005Z" fill="#0E1011"/>
<path d="M10.0154 9.52728C10.728 9.18185 11.362 8.69957 11.8831 8.11458L11.7772 7.26743C11.6599 6.32913 10.8623 5.625 9.91671 5.625H9.32193L8.14328 6.09646C8.04874 6.13427 7.95189 6.16409 7.85371 6.18591C7.80584 6.28086 7.75406 6.3735 7.69859 6.46361C8.87743 6.75691 9.79314 7.74925 9.94984 9.00289L10.0154 9.52728Z" fill="#0E1011"/>
</svg>
