<svg viewBox="0 0 16 16" fill="none" xmlns="http://www.w3.org/2000/svg">
<path d="M9.8973 0.253101C9.62285 0.222612 9.37564 0.420384 9.34515 0.694838C9.31466 0.969292 9.51243 1.2165 9.78689 1.24699C11.027 1.38475 12.1834 1.94009 13.0663 2.82182C13.9491 3.70356 14.5059 4.85927 14.6452 6.09921C14.6761 6.37362 14.9235 6.57108 15.1979 6.54025C15.4723 6.50941 15.6698 6.26196 15.639 5.98755C15.4743 4.52216 14.8163 3.15632 13.7729 2.11427C12.7296 1.07223 11.3629 0.415916 9.8973 0.253101Z" fill="#0E1011"/>
<path d="M9.93784 2.92596C9.66681 2.87308 9.40423 3.04993 9.35135 3.32096C9.29847 3.592 9.47532 3.85458 9.74635 3.90746C10.2998 4.01544 10.8085 4.28614 11.2073 4.68489C11.606 5.08364 11.8767 5.59231 11.9847 6.14579C12.0376 6.41682 12.3001 6.59367 12.5712 6.54079C12.8422 6.48791 13.0191 6.22533 12.9662 5.9543C12.8201 5.20547 12.4538 4.51727 11.9144 3.97778C11.3749 3.43829 10.6867 3.07206 9.93784 2.92596Z" fill="#0E1011"/>
<path fill-rule="evenodd" clip-rule="evenodd" d="M3.27089 9.29687C2.17051 7.68667 1.42097 5.26725 1.13236 2.99413C0.993243 1.89835 1.89547 1.00004 3.00004 1.00004H5.60004C6.15233 1.00004 6.60043 1.44825 6.64863 1.99843C6.73375 2.97024 6.92866 4.11083 7.21678 4.88323C7.29145 5.08341 7.25478 5.31298 7.1037 5.46406L6.24799 6.31977C6.088 6.47976 6.05421 6.72803 6.17524 6.91919C6.94956 8.14219 8.00033 9.17281 9.23972 9.92319C9.43021 10.0385 9.67358 10.003 9.83104 9.84553L10.7082 8.9684C10.8561 8.82052 11.0795 8.78193 11.2771 8.85035C12.0074 9.10317 13.0831 9.27502 14.0016 9.35276C14.552 9.39934 15 9.84776 15 10.4V13C15 14.1046 14.1018 15.0066 13.0059 14.8684C10.7895 14.589 8.4272 13.8751 6.84911 12.8275C5.44078 11.8925 4.22418 10.6918 3.27089 9.29687ZM5.54088 5.61267C5.0678 6.08575 4.9459 6.8469 5.33034 7.45411C6.18731 8.80768 7.34998 9.94806 8.72181 10.7786C9.32661 11.1448 10.0724 11.0184 10.5382 10.5526L11.2114 9.87935C12.0262 10.123 13.0611 10.2767 13.9173 10.3492C13.9464 10.3517 13.9721 10.3651 13.9884 10.3819C13.9958 10.3896 13.9987 10.3954 13.9995 10.3974L14 10.4V13C14 13.5871 13.5489 13.929 13.131 13.8763C11.0039 13.6081 8.80726 12.9271 7.40219 11.9943C6.10124 11.1307 4.97716 10.0213 4.09652 8.73265C3.11593 7.29775 2.40116 5.048 2.1244 2.86817C2.07149 2.4514 2.41251 2.00004 3.00004 2.00004H5.60004L5.60263 2.00056C5.60465 2.0014 5.61055 2.00437 5.6184 2.01196C5.63572 2.0287 5.64978 2.05537 5.65244 2.08569C5.73233 2.99774 5.90771 4.10145 6.18735 4.9662L5.54088 5.61267Z" fill="#0E1011"/>
</svg>
