<svg viewBox="0 0 12 12" fill="none" xmlns="http://www.w3.org/2000/svg">
<path d="M1.875 3.75C1.66789 3.75 1.5 3.91789 1.5 4.125C1.5 4.33211 1.66789 4.5 1.875 4.5H2.25C4.32107 4.5 6 6.17893 6 8.25V8.625C6 8.83211 6.16789 9 6.375 9C6.58211 9 6.75 8.83211 6.75 8.625V8.25C6.75 5.76472 4.73528 3.75 2.25 3.75H1.875Z" fill="#0E1011"/>
<path d="M1.875 6C1.66789 6 1.5 6.16789 1.5 6.375C1.5 6.58211 1.66789 6.75 1.875 6.75H2.25C3.07843 6.75 3.75 7.42157 3.75 8.25V8.625C3.75 8.83211 3.91789 9 4.125 9C4.33211 9 4.5 8.83211 4.5 8.625V8.25C4.5 7.00736 3.49264 6 2.25 6H1.875Z" fill="#0E1011"/>
<path fill-rule="evenodd" clip-rule="evenodd" d="M1.6875 1.25C0.75552 1.25 0 2.00552 0 2.9375V9.0625C0 9.99448 0.75552 10.75 1.6875 10.75H10.3125C11.2445 10.75 12 9.99448 12 9.0625V2.9375C12 2.00552 11.2445 1.25 10.3125 1.25H1.6875ZM0.75 2.9375C0.75 2.41973 1.16973 2 1.6875 2H10.3125C10.8303 2 11.25 2.41973 11.25 2.9375V9.0625C11.25 9.58027 10.8303 10 10.3125 10H1.6875C1.16973 10 0.75 9.58027 0.75 9.0625V2.9375Z" fill="#0E1011"/>
</svg>
