<svg viewBox="0 0 16 16" fill="none" xmlns="http://www.w3.org/2000/svg">
<path fill-rule="evenodd" clip-rule="evenodd" d="M11.1995 0.542679C12.5567 -0.407653 14.4274 -0.0778099 15.3777 1.27941C16.328 2.63662 15.9982 4.50726 14.641 5.45759C13.4234 6.31015 11.7926 6.1324 10.7838 5.10687L6.99104 7.76628C6.99698 7.84338 7 7.9213 7 7.99992C7 8.04878 6.99883 8.09736 6.99652 8.14564L10.7886 10.8881C11.7978 9.86688 13.4253 9.69104 14.641 10.5422C15.9982 11.4926 16.328 13.3632 15.3777 14.7204C14.4274 16.0777 12.5567 16.4075 11.1995 15.4572C9.97986 14.6031 9.58987 13.0059 10.213 11.706L6.74977 9.2013C6.28652 10.2601 5.22966 10.9999 4 10.9999C2.34315 10.9999 1 9.65677 1 7.99992C1 6.34307 2.34315 4.99992 4 4.99992C5.20468 4.99992 6.24352 5.70999 6.72081 6.73442L10.2101 4.28777C9.59109 2.98893 9.98177 1.39536 11.1995 0.542679Z" fill="#0E1011"/>
</svg>
