<svg width="17" viewBox="0 0 17 16" fill="none" xmlns="http://www.w3.org/2000/svg">
<path d="M0.5 12C0.223858 12 0 11.7761 0 11.5C0 11.2239 0.223858 11 0.5 11H2.46447C2.9949 11 3.50361 10.7893 3.87868 10.4142L5.14645 9.14645C5.34171 8.95118 5.65829 8.95118 5.85355 9.14645C6.04882 9.34171 6.04882 9.65829 5.85355 9.85355L4.58579 11.1213C4.02318 11.6839 3.26012 12 2.46447 12H0.5Z" fill="#0E1011"/>
<path d="M8.85355 6.85355C8.65829 7.04882 8.34171 7.04882 8.14645 6.85355C7.95118 6.65829 7.95118 6.34171 8.14645 6.14645L9.41421 4.87868C9.97682 4.31607 10.7399 4 11.5355 4H14.2929L13.1464 2.85355C12.9512 2.65829 12.9512 2.34171 13.1464 2.14645C13.3417 1.95118 13.6583 1.95118 13.8536 2.14645L16.2071 4.5L13.8536 6.85355C13.6583 7.04882 13.3417 7.04882 13.1464 6.85355C12.9512 6.65829 12.9512 6.34171 13.1464 6.14645L14.2929 5H11.5355C11.0051 5 10.4964 5.21071 10.1213 5.58579L8.85355 6.85355Z" fill="#0E1011"/>
<path d="M0.5 4C0.223858 4 0 4.22386 0 4.5C0 4.77614 0.223858 5 0.5 5H2.46447C2.9949 5 3.50361 5.21071 3.87868 5.58579L9.41421 11.1213C9.97682 11.6839 10.7399 12 11.5355 12H14.2929L13.1464 13.1464C12.9512 13.3417 12.9512 13.6583 13.1464 13.8536C13.3417 14.0488 13.6583 14.0488 13.8536 13.8536L16.2071 11.5L13.8536 9.14645C13.6583 8.95118 13.3417 8.95118 13.1464 9.14645C12.9512 9.34171 12.9512 9.65829 13.1464 9.85355L14.2929 11H11.5355C11.0051 11 10.4964 10.7893 10.1213 10.4142L4.58579 4.87868C4.02318 4.31607 3.26012 4 2.46447 4H0.5Z" fill="#0E1011"/>
</svg>
