<svg viewBox="0 0 16 16" fill="none" xmlns="http://www.w3.org/2000/svg">
<path fill-rule="evenodd" clip-rule="evenodd" d="M15.7803 1.08597C15.9177 1.17898 16 1.33409 16 1.5V12.5C16 12.6993 15.8817 12.8795 15.6988 12.9588L10.6988 15.1255C10.572 15.1804 10.428 15.1804 10.3012 15.1255L5.5 13.0449L0.698805 15.1255C0.544263 15.1924 0.36639 15.1771 0.225594 15.0847C0.0847973 14.9922 0 14.8351 0 14.6667V3.5C0 3.29555 0.124475 3.1117 0.314305 3.03576L5.3143 1.03576C5.43351 0.988082 5.56649 0.988082 5.6857 1.03576L10.5 2.96149L15.3143 1.03576C15.4684 0.974146 15.6429 0.992954 15.7803 1.08597ZM1 3.83852V13.9051L5.12501 12.1176V2.18852L1 3.83852ZM10.125 13.9593L5.87501 12.1176V2.18852L10.125 3.88852V13.9593ZM10.875 13.9592L15 12.1717V2.23852L10.875 3.88852V13.9592Z" fill="#0E1011"/>
</svg>
