<svg viewBox="0 0 16 16" fill="none" xmlns="http://www.w3.org/2000/svg">
<path fill-rule="evenodd" clip-rule="evenodd" d="M0 6.5C0 3.46243 2.46243 1 5.5 1H10.5C13.5376 1 16 3.46243 16 6.5V7.5C16 10.5376 13.5376 13 10.5 13H5.5C5.24822 13 5.00015 12.983 4.75693 12.9502L2 15.7071V11.7428C0.779309 10.7347 0 9.20831 0 7.5V6.5ZM5.5 2C3.01472 2 1 4.01472 1 6.5V7.5C1 8.97191 1.70616 10.2787 2.80029 11.1006L3 11.2506V13.2929L4.41619 11.8767L4.67481 11.9246C4.94196 11.9741 5.21773 12 5.5 12H10.5C12.9853 12 15 9.98528 15 7.5V6.5C15 4.01472 12.9853 2 10.5 2H5.5Z" fill="#0E1011"/>
<path d="M1 6.5C1 4.01472 3.01472 2 5.5 2H10.5C12.9853 2 15 4.01472 15 6.5V7.5C15 9.98528 12.9853 12 10.5 12H5.5C5.21773 12 4.94196 11.9741 4.67481 11.9246L4.41619 11.8767L3 13.2929V11.2506L2.80029 11.1006C1.70616 10.2787 1 8.97191 1 7.5V6.5Z" fill="#0E1011"/>
</svg>
