<svg viewBox="0 0 16 16" fill="none" xmlns="http://www.w3.org/2000/svg">
<path fill-rule="evenodd" clip-rule="evenodd" d="M13.4749 2.18211C12.108 0.815273 9.89196 0.815274 8.52513 2.18211L4 6.70723V11.293L10.1464 5.14657C10.3417 4.95131 10.6583 4.95131 10.8536 5.14657C11.0488 5.34184 11.0488 5.65842 10.8536 5.85368L7.70711 9.00013H12.2929L13.818 7.475C15.1849 6.10817 15.1849 3.89209 13.818 2.52525L13.4749 2.18211ZM11.2929 10.0001H6.70711L4.70711 12.0001H9.29289L11.2929 10.0001ZM3.70711 13.0001H9.70711L14.5251 8.18211C16.2825 6.42475 16.2825 3.57551 14.5251 1.81815L14.182 1.475C12.4246 -0.282358 9.57538 -0.282357 7.81802 1.475L3 6.29302V12.293L0.146447 15.1466C-0.0488155 15.3418 -0.0488155 15.6584 0.146447 15.8537C0.341709 16.0489 0.658291 16.0489 0.853553 15.8537L3.70711 13.0001Z" fill="#0E1011"/>
</svg>
