<svg viewBox="0 0 16 16" fill="none" xmlns="http://www.w3.org/2000/svg">
<path fill-rule="evenodd" clip-rule="evenodd" d="M15.2943 7.99992C15.2943 12.0313 12.0262 15.2994 7.99479 15.2994C3.9634 15.2994 0.695312 12.0313 0.695312 7.99992C0.695312 3.96853 3.9634 0.700439 7.99479 0.700439C12.0262 0.700439 15.2943 3.96853 15.2943 7.99992ZM6.5 5.5C6.77614 5.5 7 5.72386 7 6V10C7 10.2761 6.77614 10.5 6.5 10.5C6.22386 10.5 6 10.2761 6 10V6C6 5.72386 6.22386 5.5 6.5 5.5ZM9.5 5.5C9.77614 5.5 10 5.72386 10 6V10C10 10.2761 9.77614 10.5 9.5 10.5C9.22386 10.5 9 10.2761 9 10V6C9 5.72386 9.22386 5.5 9.5 5.5Z" fill="#0E1011"/>
</svg>
