<svg viewBox="0 0 16 16" fill="none" xmlns="http://www.w3.org/2000/svg">
<path fill-rule="evenodd" clip-rule="evenodd" d="M3.5 1C2.11929 1 1 2.11929 1 3.5V12.5C1 13.8807 2.11929 15 3.5 15H12.5C13.8807 15 15 13.8807 15 12.5V3.5C15 2.11929 13.8807 1 12.5 1H3.5ZM6.5 8.20711L3.85355 10.8536C3.65829 11.0488 3.34171 11.0488 3.14645 10.8536C2.95118 10.6583 2.95118 10.3417 3.14645 10.1464L5.96967 7.32322C6.26256 7.03033 6.73744 7.03033 7.03033 7.32322L8.5 8.79289L11.2929 6H9.5C9.22386 6 9 5.77614 9 5.5C9 5.22386 9.22386 5 9.5 5H12.5H13V5.5V8.5C13 8.77614 12.7761 9 12.5 9C12.2239 9 12 8.77614 12 8.5V6.70711L9.03033 9.67678C8.73744 9.96967 8.26256 9.96967 7.96967 9.67678L6.5 8.20711Z" fill="#0E1011"/>
</svg>
