<svg viewBox="0 0 16 16" fill="none" xmlns="http://www.w3.org/2000/svg">
<path fill-rule="evenodd" clip-rule="evenodd" d="M11 1H11.5C12.3284 1 13 1.67157 13 2.5V13.5C13 14.3284 12.3284 15 11.5 15H4.5C3.67157 15 3 14.3284 3 13.5V2.5C3 1.67157 3.67157 1 4.5 1H5V1.5C5 1.77614 5.22386 2 5.5 2H10.5C10.7761 2 11 1.77614 11 1.5V1ZM2 2.5C2 1.11929 3.11929 0 4.5 0H11.5C12.8807 0 14 1.11929 14 2.5V13.5C14 14.8807 12.8807 16 11.5 16H4.5C3.11929 16 2 14.8807 2 13.5V2.5ZM5 13.5C5 13.2929 5.16789 13.125 5.375 13.125H10.625C10.8321 13.125 11 13.2929 11 13.5C11 13.7071 10.8321 13.875 10.625 13.875H5.375C5.16789 13.875 5 13.7071 5 13.5Z" fill="#0E1011"/>
</svg>
