<svg viewBox="0 0 16 16" fill="none" xmlns="http://www.w3.org/2000/svg">
<path fill-rule="evenodd" clip-rule="evenodd" d="M6.57603 1.00588C6.84896 1.04787 7.03618 1.30317 6.99419 1.5761L6.46742 5.00007H11.4557L12.0058 1.42404C12.0478 1.15111 12.3031 0.963895 12.576 1.00588C12.849 1.04787 13.0362 1.30317 12.9942 1.5761L12.4674 5.00007H15C15.2761 5.00007 15.5 5.22393 15.5 5.50007C15.5 5.77621 15.2761 6.00007 15 6.00007H12.3136L11.6982 10.0001H14C14.2761 10.0001 14.5 10.2239 14.5 10.5001C14.5 10.7762 14.2761 11.0001 14 11.0001H11.5443L10.9942 14.5761C10.9522 14.849 10.6969 15.0362 10.424 14.9943C10.151 14.9523 9.96383 14.697 10.0058 14.424L10.5326 11.0001H5.54434L4.99419 14.5761C4.9522 14.849 4.6969 15.0362 4.42397 14.9943C4.15104 14.9523 3.96382 14.697 4.00581 14.424L4.53258 11.0001H1.5C1.22386 11.0001 1 10.7762 1 10.5001C1 10.2239 1.22386 10.0001 1.5 10.0001H4.68642L5.30181 6.00007H2.5C2.22386 6.00007 2 5.77621 2 5.50007C2 5.22393 2.22386 5.00007 2.5 5.00007H5.45566L6.00581 1.42404C6.0478 1.15111 6.3031 0.963895 6.57603 1.00588ZM10.6864 10.0001L11.3018 6.00007H6.31357L5.69819 10.0001H10.6864Z" fill="#0E1011"/>
</svg>
