<svg viewBox="0 0 12 12" fill="none" xmlns="http://www.w3.org/2000/svg">
<path fill-rule="evenodd" clip-rule="evenodd" d="M0 6C0 4.34315 1.51104 3 3.375 3H4.125C4.33211 3 4.5 3.14924 4.5 3.33333C4.5 3.51743 4.33211 3.66667 4.125 3.66667H3.375C1.92525 3.66667 0.75 4.71134 0.75 6C0.75 7.28866 1.92525 8.33333 3.375 8.33333H4.125C4.33211 8.33333 4.5 8.48257 4.5 8.66667C4.5 8.85076 4.33211 9 4.125 9H3.375C1.51104 9 0 7.65685 0 6ZM6.75 3.33333C6.75 3.14924 6.91789 3 7.125 3H8.625C10.489 3 12 4.34315 12 6C12 7.65685 10.489 9 8.625 9H7.125C6.91789 9 6.75 8.85076 6.75 8.66667C6.75 8.48257 6.91789 8.33333 7.125 8.33333H8.625C10.0747 8.33333 11.25 7.28866 11.25 6C11.25 4.71134 10.0747 3.66667 8.625 3.66667H7.125C6.91789 3.66667 6.75 3.51743 6.75 3.33333ZM3.75 6C3.75 5.81591 3.91789 5.66667 4.125 5.66667H7.875C8.08211 5.66667 8.25 5.81591 8.25 6C8.25 6.1841 8.08211 6.33333 7.875 6.33333H4.125C3.91789 6.33333 3.75 6.1841 3.75 6Z" fill="#0E1011"/>
</svg>
