<svg viewBox="0 0 16 16" fill="none" xmlns="http://www.w3.org/2000/svg">
<path fill-rule="evenodd" clip-rule="evenodd" d="M1.14645 1.14646C1.28971 1.0032 1.50527 0.960551 1.69229 1.03847L14.6923 6.4545C14.8843 6.53449 15.0067 6.72499 14.9997 6.93287C14.9927 7.14075 14.8577 7.32259 14.6608 7.38948L10.6939 8.73683L13.5947 11.6376C13.8542 11.8971 14 12.2491 14 12.6161C14 13.3804 13.3804 14 12.6161 14C12.2491 14 11.8971 13.8542 11.6375 13.5947L8.73681 10.6939L7.38947 14.6608C7.32257 14.8578 7.14074 14.9927 6.93286 14.9997C6.72498 15.0067 6.53447 14.8843 6.45448 14.6923L1.03845 1.6923C0.960536 1.50528 1.00318 1.28972 1.14645 1.14646ZM2.42848 2.42849L6.86839 13.0856L8.04848 9.61113C8.10404 9.44752 8.24014 9.3242 8.40842 9.28498C8.57669 9.24576 8.75329 9.2962 8.87547 9.41838L12.3447 12.8876C12.4166 12.9596 12.5143 13 12.6161 13C12.8281 13 13 12.8281 13 12.6161C13 12.5143 12.9595 12.4167 12.8875 12.3447L9.41836 8.87548C9.29618 8.75331 9.24574 8.57671 9.28496 8.40843C9.32419 8.24016 9.44751 8.10406 9.61111 8.04849L13.0855 6.86841L2.42848 2.42849Z" fill="#0E1011"/>
</svg>
