<svg viewBox="0 0 16 16" fill="none" xmlns="http://www.w3.org/2000/svg">
<path fill-rule="evenodd" clip-rule="evenodd" d="M11 6C9.89543 6 9 6.89543 9 8C9 9.10457 9.89543 10 11 10C12.1046 10 13 9.10457 13 8C13 6.89543 12.1046 6 11 6ZM10 8C10 7.44772 10.4477 7 11 7C11.5523 7 12 7.44772 12 8C12 8.55228 11.5523 9 11 9C10.4477 9 10 8.55228 10 8Z" fill="#0E1011"/>
<path fill-rule="evenodd" clip-rule="evenodd" d="M5 3C2.23858 3 0 5.23858 0 8C0 10.7614 2.23858 13 5 13H11C13.7614 13 16 10.7614 16 8C16 5.23858 13.7614 3 11 3H5ZM1 8C1 5.79086 2.79086 4 5 4H11C13.2091 4 15 5.79086 15 8C15 10.2091 13.2091 12 11 12H5C2.79086 12 1 10.2091 1 8Z" fill="#0E1011"/>
</svg>
