<svg viewBox="0 0 16 16" fill="none" xmlns="http://www.w3.org/2000/svg">
<path fill-rule="evenodd" clip-rule="evenodd" d="M4 1C3.44772 1 3 1.44772 3 2V14C3 14.5523 3.44772 15 4 15H8C8.27614 15 8.5 15.2239 8.5 15.5C8.5 15.7761 8.27614 16 8 16H4C2.89543 16 2 15.1046 2 14V2C2 0.895431 2.89543 0 4 0H9.70711L14 4.29289V7.5C14 7.77614 13.7761 8 13.5 8C13.2239 8 13 7.77614 13 7.5V5H11C9.89543 5 9 4.10457 9 3V1H4ZM10 1.70711L12.2929 4H11C10.4477 4 10 3.55228 10 3V1.70711Z" fill="#0E1011"/>
<path d="M13 9.5C13 9.22386 12.7761 9 12.5 9C12.2239 9 12 9.22386 12 9.5V12H9.5C9.22386 12 9 12.2239 9 12.5C9 12.7761 9.22386 13 9.5 13H12V15.5C12 15.7761 12.2239 16 12.5 16C12.7761 16 13 15.7761 13 15.5V13H15.5C15.7761 13 16 12.7761 16 12.5C16 12.2239 15.7761 12 15.5 12H13V9.5Z" fill="#0E1011"/>
</svg>
