<svg viewBox="0 0 12 12" fill="none" xmlns="http://www.w3.org/2000/svg">
<path fill-rule="evenodd" clip-rule="evenodd" d="M1.6875 3C1.16973 3 0.75 3.41973 0.75 3.9375V8.0625C0.75 8.58027 1.16973 9 1.6875 9H7.3125C7.83027 9 8.25 8.58027 8.25 8.0625V3.9375C8.25 3.41973 7.83027 3 7.3125 3H1.6875ZM0 3.9375C0 3.00552 0.75552 2.25 1.6875 2.25H7.3125C8.24448 2.25 9 3.00552 9 3.9375V4.57341L11.4263 3.057C11.5419 2.98475 11.6876 2.98092 11.8068 3.04701C11.926 3.11309 12 3.23868 12 3.375V8.625C12 8.76132 11.926 8.88691 11.8068 8.95299C11.6876 9.01908 11.5419 9.01525 11.4263 8.943L9 7.42659V8.0625C9 8.99448 8.24448 9.75 7.3125 9.75H1.6875C0.75552 9.75 0 8.99448 0 8.0625V3.9375ZM9 6.54216L11.25 7.94841V4.05159L9 5.45784V6.54216Z" fill="#0E1011"/>
</svg>
