<svg viewBox="0 0 12 12" fill="none" xmlns="http://www.w3.org/2000/svg">
<path d="M10.3902 1.79733C10.5366 1.94378 10.5366 2.18122 10.3902 2.32767L2.14017 10.5777C1.99372 10.7241 1.75628 10.7241 1.60983 10.5777C1.46339 10.4312 1.46339 10.1938 1.60983 10.0473L9.85983 1.79733C10.0063 1.65089 10.2437 1.65089 10.3902 1.79733Z" fill="#0E1011"/>
<path fill-rule="evenodd" clip-rule="evenodd" d="M1.5 3.1875C1.5 2.35907 2.17157 1.6875 3 1.6875C3.82843 1.6875 4.5 2.35907 4.5 3.1875C4.5 4.01593 3.82843 4.6875 3 4.6875C2.17157 4.6875 1.5 4.01593 1.5 3.1875ZM3 2.4375C2.58579 2.4375 2.25 2.77329 2.25 3.1875C2.25 3.60171 2.58579 3.9375 3 3.9375C3.41421 3.9375 3.75 3.60171 3.75 3.1875C3.75 2.77329 3.41421 2.4375 3 2.4375Z" fill="#0E1011"/>
<path fill-rule="evenodd" clip-rule="evenodd" d="M9 7.6875C8.17157 7.6875 7.5 8.35907 7.5 9.1875C7.5 10.0159 8.17157 10.6875 9 10.6875C9.82843 10.6875 10.5 10.0159 10.5 9.1875C10.5 8.35907 9.82843 7.6875 9 7.6875ZM8.25 9.1875C8.25 8.77329 8.58579 8.4375 9 8.4375C9.41421 8.4375 9.75 8.77329 9.75 9.1875C9.75 9.60171 9.41421 9.9375 9 9.9375C8.58579 9.9375 8.25 9.60171 8.25 9.1875Z" fill="#0E1011"/>
</svg>
