<svg viewBox="0 0 12 12" fill="none" xmlns="http://www.w3.org/2000/svg">
<path d="M8.625 6.75C8.41789 6.75 8.25 6.91789 8.25 7.125C8.25 7.33211 8.41789 7.5 8.625 7.5H10.125C10.3321 7.5 10.5 7.33211 10.5 7.125C10.5 6.91789 10.3321 6.75 10.125 6.75H8.625Z" fill="#0E1011"/>
<path fill-rule="evenodd" clip-rule="evenodd" d="M2.57029 2.25C2.00213 2.25 1.48274 2.571 1.22865 3.07918L0.277129 4.98222C0.0948809 5.34671 0 5.74863 0 6.15615V8.25C0 9.07843 0.671573 9.75 1.5 9.75H10.5C11.3284 9.75 12 9.07843 12 8.25V6.15615C12 5.74863 11.9051 5.34671 11.7229 4.98222L10.7714 3.07918C10.5173 2.571 9.99787 2.25 9.42971 2.25H2.57029ZM1.89947 3.41459C2.02651 3.1605 2.28621 3 2.57029 3H9.42971C9.71379 3 9.97349 3.1605 10.1005 3.41459L11.0521 5.31763C11.0804 5.37441 11.1059 5.43246 11.1283 5.49155C10.9392 5.39697 10.7258 5.34375 10.5 5.34375H1.5C1.2742 5.34375 1.06082 5.39697 0.871736 5.49155C0.894135 5.43246 0.919558 5.37441 0.947949 5.31763L1.89947 3.41459ZM0.75 6.36307V8.25C0.75 8.66421 1.08579 9 1.5 9H10.5C10.9142 9 11.25 8.66421 11.25 8.25V6.36307C11.1097 6.09173 10.8265 5.90625 10.5 5.90625H1.5C1.17348 5.90625 0.890271 6.09173 0.75 6.36307Z" fill="#0E1011"/>
</svg>
