<svg viewBox="0 0 16 16" fill="none" xmlns="http://www.w3.org/2000/svg">
<path fill-rule="evenodd" clip-rule="evenodd" d="M1 2.75C1 1.7835 1.7835 1 2.75 1C3.7165 1 4.5 1.7835 4.5 2.75C4.5 3.7165 3.7165 4.5 2.75 4.5C1.7835 4.5 1 3.7165 1 2.75ZM6 9.75C6 7.40279 7.90279 5.5 10.25 5.5C12.5972 5.5 14.5 7.40279 14.5 9.75V15H11V9.75C11 9.33579 10.6642 9 10.25 9C9.83579 9 9.5 9.33579 9.5 9.75V15H6V9.75ZM1 7C1 6.44771 1.44772 6 2 6H3.5C4.05228 6 4.5 6.44771 4.5 7V14C4.5 14.5523 4.05228 15 3.5 15H2C1.44772 15 1 14.5523 1 14V7Z" fill="#0E1011"/>
</svg>
