<svg viewBox="0 0 16 16" fill="none" xmlns="http://www.w3.org/2000/svg">
<path d="M8 0L13.9707 1.958C14.5851 2.15947 15 2.72918 15 3.37125V6.35527C15 7.93543 14.601 9.4627 13.8706 10.8132L4.22197 1.23895L8 0Z" fill="#0E1011"/>
<path d="M12.3026 12.9357L14.8964 15.5096C15.0917 15.7034 15.4083 15.7034 15.6036 15.5096C15.7988 15.3158 15.7988 15.0017 15.6036 14.8079L1.10355 0.419795C0.908291 0.226039 0.591709 0.226039 0.396447 0.419795C0.201184 0.613551 0.201184 0.927691 0.396447 1.12145L1.52432 2.24062C1.19855 2.51758 1 2.9271 1 3.37125V6.35527C1 9.53362 2.61409 12.498 5.2932 14.24L8 16L10.7068 14.24C11.2913 13.8599 11.8251 13.4217 12.3026 12.9357Z" fill="#0E1011"/>
</svg>
