<svg viewBox="0 0 12 12" fill="none" xmlns="http://www.w3.org/2000/svg">
<path fill-rule="evenodd" clip-rule="evenodd" d="M4 4.75C4 4.33579 4.33579 4 4.75 4H7.25C7.66421 4 8 4.33579 8 4.75V7.25C8 7.66421 7.66421 8 7.25 8H4.75C4.33579 8 4 7.66421 4 7.25V4.75ZM7.25 4.75H4.75V7.25H7.25V4.75Z" fill="#0E1011"/>
<path fill-rule="evenodd" clip-rule="evenodd" d="M4.75 0.265625V1.26562H7.25V0.265625H8V1.26562H9.0625C9.99448 1.26562 10.75 2.02114 10.75 2.95312V4.01562H11.75V4.76562H10.75V7.25H11.75V8H10.75V9.0625C10.75 9.99448 9.99448 10.75 9.0625 10.75H8V11.75H7.25V10.75H4.75V11.75H4V10.75H2.9375C2.00552 10.75 1.25 9.99448 1.25 9.0625V8H0.25V7.25H1.25V4.76562H0.25V4.01562H1.25V2.95312C1.25 2.02114 2.00552 1.26562 2.9375 1.26562H4V0.265625H4.75ZM2 9.0625C2 9.58027 2.41973 10 2.9375 10H9.0625C9.58027 10 10 9.58027 10 9.0625V2.95312C10 2.43536 9.58027 2.01562 9.0625 2.01562H2.9375C2.41973 2.01562 2 2.43536 2 2.95312V9.0625Z" fill="#0E1011"/>
</svg>
