<svg viewBox="0 0 16 16" fill="none" xmlns="http://www.w3.org/2000/svg">
<path fill-rule="evenodd" clip-rule="evenodd" d="M15.2943 7.99992C15.2943 12.0313 12.0262 15.2994 7.99479 15.2994C3.9634 15.2994 0.695312 12.0313 0.695312 7.99992C0.695312 3.96853 3.9634 0.700439 7.99479 0.700439C12.0262 0.700439 15.2943 3.96853 15.2943 7.99992ZM11.6738 6.41527L13.7081 4.30285C13.1867 3.49949 12.5002 2.81312 11.6968 2.29175L9.58479 4.3263C10.5197 4.73013 11.2699 5.48038 11.6738 6.41527ZM4.32618 6.41542L2.29187 4.30302C2.81326 3.49963 3.49966 2.81324 4.30304 2.29185L6.41508 4.32636C5.4802 4.73024 4.72998 5.48051 4.32618 6.41542ZM6.41521 11.6738L4.30285 13.7081C3.49949 13.1867 2.81312 12.5002 2.29175 11.6968L4.32623 9.58485C4.73007 10.5197 5.48032 11.27 6.41521 11.6738ZM13.7082 11.697C13.1868 12.5004 12.5004 13.1868 11.697 13.7082L9.58465 11.6739C10.5196 11.2701 11.2698 10.5199 11.6737 9.58501L13.7082 11.697ZM11 8.00024C11 9.6571 9.65685 11.0002 8 11.0002C6.34315 11.0002 5 9.6571 5 8.00024C5 6.34339 6.34315 5.00024 8 5.00024C9.65685 5.00024 11 6.34339 11 8.00024Z" fill="#0E1011"/>
</svg>
