<svg viewBox="0 0 12 12" fill="none" xmlns="http://www.w3.org/2000/svg">
<path d="M5.99998 3.76511C4.7657 3.76511 3.76511 4.7657 3.76511 5.99998C3.76511 7.23427 4.7657 8.23486 5.99998 8.23486C7.23427 8.23486 8.23486 7.23427 8.23486 5.99998C8.23486 4.7657 7.23427 3.76511 5.99998 3.76511Z" fill="#0E1011"/>
<path fill-rule="evenodd" clip-rule="evenodd" d="M6 2.031C3.80674 2.031 2.02875 3.80899 2.02875 6.00225C2.02875 8.19551 3.80674 9.9735 6 9.9735C8.19326 9.9735 9.97125 8.19551 9.97125 6.00225C9.97125 3.80899 8.19326 2.031 6 2.031ZM3.20261 5.99998C3.20261 4.45504 4.45504 3.20261 5.99998 3.20261C7.54494 3.20261 8.79736 4.45504 8.79736 5.99998C8.79736 7.54494 7.54494 8.79736 5.99998 8.79736C4.45504 8.79736 3.20261 7.54494 3.20261 5.99998Z" fill="#0E1011"/>
<path fill-rule="evenodd" clip-rule="evenodd" d="M12 6C12 9.31371 9.31371 12 6 12C2.68629 12 0 9.31371 0 6C0 2.68629 2.68629 0 6 0C9.31371 0 12 2.68629 12 6ZM1.46625 6.00225C1.46625 3.49833 3.49608 1.4685 6 1.4685C8.50392 1.4685 10.5338 3.49833 10.5338 6.00225C10.5338 8.50617 8.50392 10.536 6 10.536C3.49608 10.536 1.46625 8.50617 1.46625 6.00225Z" fill="#0E1011"/>
</svg>
