<svg viewBox="0 0 16 16" fill="none" xmlns="http://www.w3.org/2000/svg">
<path fill-rule="evenodd" clip-rule="evenodd" d="M0.5 3.5C0.5 3.22386 0.723858 3 1 3H15C15.2761 3 15.5 3.22386 15.5 3.5C15.5 3.77614 15.2761 4 15 4H1C0.723858 4 0.5 3.77614 0.5 3.5ZM0.5 6.5C0.5 6.22386 0.723858 6 1 6H15C15.2761 6 15.5 6.22386 15.5 6.5C15.5 6.77614 15.2761 7 15 7H1C0.723858 7 0.5 6.77614 0.5 6.5ZM0.5 9.5C0.5 9.22386 0.723858 9 1 9H15C15.2761 9 15.5 9.22386 15.5 9.5C15.5 9.77614 15.2761 10 15 10H1C0.723858 10 0.5 9.77614 0.5 9.5ZM0.5 12.5C0.5 12.2239 0.723858 12 1 12H10C10.2761 12 10.5 12.2239 10.5 12.5C10.5 12.7761 10.2761 13 10 13H1C0.723858 13 0.5 12.7761 0.5 12.5Z" fill="#0E1011"/>
</svg>
