<svg viewBox="0 0 12 12" fill="none" xmlns="http://www.w3.org/2000/svg">
<path fill-rule="evenodd" clip-rule="evenodd" d="M11 5.5C11 6.89794 10.4785 8.17406 9.61934 9.14441C9.67264 9.16225 9.72272 9.19239 9.76517 9.23483L11.7652 11.2348C11.9116 11.3813 11.9116 11.6187 11.7652 11.7652C11.6187 11.9116 11.3813 11.9116 11.2348 11.7652L9.23483 9.76517C9.19239 9.72272 9.16225 9.67264 9.14441 9.61934C8.17406 10.4785 6.89794 11 5.5 11C2.46243 11 0 8.53757 0 5.5C0 2.46243 2.46243 0 5.5 0C8.53757 0 11 2.46243 11 5.5ZM5.875 3.5C5.875 3.29289 5.70711 3.125 5.5 3.125C5.29289 3.125 5.125 3.29289 5.125 3.5V5.125H3.5C3.29289 5.125 3.125 5.29289 3.125 5.5C3.125 5.70711 3.29289 5.875 3.5 5.875H5.125V7.5C5.125 7.70711 5.29289 7.875 5.5 7.875C5.70711 7.875 5.875 7.70711 5.875 7.5V5.875H7.5C7.70711 5.875 7.875 5.70711 7.875 5.5C7.875 5.29289 7.70711 5.125 7.5 5.125H5.875V3.5Z" fill="#0E1011"/>
</svg>
