<svg viewBox="0 0 16 16" fill="none" xmlns="http://www.w3.org/2000/svg">
<path fill-rule="evenodd" clip-rule="evenodd" d="M10.0784 6.1393L8.46353 2.14616C8.29501 1.72944 7.705 1.72944 7.53648 2.14616L5.9216 6.1393L1.62487 6.44119C1.17647 6.4727 0.994144 7.03382 1.33839 7.32288L4.63707 10.0927L3.59643 14.2724C3.48782 14.7086 3.96515 15.0554 4.34643 14.8173L8 12.536L11.6536 14.8173C12.0349 15.0554 12.5122 14.7086 12.4036 14.2724L11.3629 10.0927L14.6616 7.32288C15.0059 7.03382 14.8235 6.4727 14.3751 6.44119L10.0784 6.1393ZM13.0717 7.35208L9.38545 7.09308L8 3.66725L6.61456 7.09308L2.92828 7.35208L5.7583 9.72836L4.8655 13.3143L8 11.357L11.1345 13.3143L10.2417 9.72836L13.0717 7.35208Z" fill="#0E1011"/>
</svg>
