<svg viewBox="0 0 12 12" fill="none" xmlns="http://www.w3.org/2000/svg">
<path fill-rule="evenodd" clip-rule="evenodd" d="M8.46579 5.99999C8.46579 7.36179 7.36184 8.46574 6.00004 8.46574C4.63824 8.46574 3.53429 7.36179 3.53429 5.99999C3.53429 4.63819 4.63824 3.53424 6.00004 3.53424C7.36184 3.53424 8.46579 4.63819 8.46579 5.99999ZM7.71579 5.99999C7.71579 6.94757 6.94762 7.71574 6.00004 7.71574C5.05246 7.71574 4.28429 6.94757 4.28429 5.99999C4.28429 5.05241 5.05246 4.28424 6.00004 4.28424C6.94762 4.28424 7.71579 5.05241 7.71579 5.99999Z" fill="#0E1011"/>
<path fill-rule="evenodd" clip-rule="evenodd" d="M2.18309 1.3704C2.48128 1.12427 2.90648 1.13735 3.22101 1.36221C3.7833 1.76419 4.5723 1.43717 4.68565 0.755329C4.74908 0.373791 5.04065 0.0636947 5.42569 0.0271302C5.61471 0.0091805 5.80628 0 6 0C6.19371 0 6.38527 0.00917963 6.57428 0.0271276C6.95933 0.0636905 7.25089 0.373785 7.31432 0.755325C7.42768 1.43717 8.21668 1.76419 8.77897 1.3622C9.0935 1.13734 9.51871 1.12427 9.8169 1.37039C10.113 1.61477 10.3852 1.887 10.6296 2.18307C10.8757 2.48126 10.8626 2.90647 10.6378 3.221C10.2358 3.78329 10.5628 4.5723 11.2447 4.68566C11.6262 4.74908 11.9363 5.04065 11.9729 5.4257C11.9908 5.61471 12 5.80629 12 6C12 6.19371 11.9908 6.38527 11.9729 6.57427C11.9363 6.95932 11.6262 7.25089 11.2447 7.31432C10.5628 7.42767 10.2358 8.21669 10.6378 8.77898C10.8626 9.09352 10.8757 9.51873 10.6296 9.81692C10.3852 10.113 10.113 10.3852 9.81692 10.6296C9.51873 10.8757 9.09352 10.8626 8.77898 10.6378C8.21669 10.2358 7.42767 10.5628 7.31432 11.2447C7.25089 11.6262 6.95932 11.9363 6.57427 11.9729C6.38527 11.9908 6.19371 12 6 12C5.80629 12 5.61471 11.9908 5.4257 11.9729C5.04065 11.9363 4.74908 11.6262 4.68566 11.2447C4.5723 10.5628 3.78329 10.2358 3.221 10.6378C2.90647 10.8626 2.48126 10.8757 2.18307 10.6296C1.887 10.3852 1.61477 10.113 1.37039 9.8169C1.12427 9.51871 1.13734 9.0935 1.3622 8.77897C1.76419 8.21668 1.43717 7.42768 0.755325 7.31432C0.373785 7.25089 0.0636905 6.95933 0.0271276 6.57428C0.00917963 6.38527 0 6.19371 0 6C0 5.80628 0.0091805 5.61471 0.0271302 5.42569C0.0636947 5.04065 0.373791 4.74908 0.755329 4.68565C1.43717 4.5723 1.76419 3.7833 1.36221 3.22101C1.13735 2.90648 1.12427 2.48128 1.3704 2.18309C1.61478 1.88702 1.88702 1.61478 2.18309 1.3704ZM5.49659 0.773771C5.66208 0.758056 5.82999 0.75 6 0.75C6.17 0.75 6.33791 0.758055 6.50338 0.773769C6.50931 0.774332 6.51857 0.776081 6.53287 0.790474C6.54932 0.807035 6.56761 0.83703 6.57448 0.87832C6.7788 2.10737 8.20113 2.69725 9.21515 1.97233C9.24915 1.94802 9.28324 1.93975 9.30657 1.93967C9.32687 1.93961 9.33477 1.94492 9.33947 1.94881C9.59875 2.16281 9.83717 2.40123 10.0512 2.6605C10.0551 2.66521 10.0604 2.6731 10.0603 2.6934C10.0602 2.71674 10.052 2.75083 10.0277 2.78483C9.30272 3.79886 9.89263 5.22118 11.1217 5.4255C11.163 5.43237 11.193 5.45066 11.2095 5.46711C11.2239 5.48142 11.2257 5.49068 11.2262 5.4966C11.2419 5.66208 11.25 5.82999 11.25 6C11.25 6.17 11.2419 6.3379 11.2262 6.50338C11.2257 6.5093 11.2239 6.51856 11.2095 6.53286C11.193 6.54932 11.163 6.56761 11.1217 6.57447C9.89262 6.7788 9.30273 8.20113 10.0277 9.21516C10.052 9.24916 10.0602 9.28325 10.0603 9.30659C10.0604 9.32689 10.0551 9.33478 10.0512 9.33949C9.83718 9.59876 9.59876 9.83718 9.33949 10.0512C9.33478 10.0551 9.32689 10.0604 9.30659 10.0603C9.28325 10.0602 9.24916 10.052 9.21516 10.0277C8.20113 9.30273 6.7788 9.89262 6.57447 11.1217C6.56761 11.163 6.54932 11.193 6.53286 11.2095C6.51856 11.2239 6.5093 11.2257 6.50338 11.2262C6.3379 11.2419 6.17 11.25 6 11.25C5.82999 11.25 5.66208 11.2419 5.4966 11.2262C5.49068 11.2257 5.48142 11.2239 5.46711 11.2095C5.45066 11.193 5.43237 11.163 5.4255 11.1217C5.22118 9.89263 3.79886 9.30272 2.78483 10.0277C2.75083 10.052 2.71674 10.0602 2.6934 10.0603C2.6731 10.0604 2.66521 10.0551 2.6605 10.0512C2.40123 9.83717 2.16281 9.59875 1.94881 9.33947C1.94492 9.33477 1.93961 9.32687 1.93967 9.30657C1.93975 9.28324 1.94802 9.24915 1.97233 9.21515C2.69725 8.20113 2.10737 6.7788 0.87832 6.57448C0.83703 6.56761 0.807035 6.54932 0.790474 6.53287C0.776081 6.51857 0.774332 6.50931 0.773769 6.50338C0.758055 6.33791 0.75 6.17 0.75 6C0.75 5.82999 0.758056 5.66208 0.773771 5.49659C0.774334 5.49067 0.776083 5.48141 0.790477 5.46711C0.807038 5.45065 0.837033 5.43236 0.878324 5.4255C2.10736 5.22118 2.69726 3.79886 1.97233 2.78484C1.94803 2.75084 1.93976 2.71675 1.93968 2.69342C1.93961 2.67312 1.94493 2.66523 1.94881 2.66052C2.16282 2.40124 2.40124 2.16282 2.66052 1.94881C2.66523 1.94493 2.67312 1.93961 2.69342 1.93968C2.71675 1.93976 2.75084 1.94803 2.78484 1.97233C3.79886 2.69726 5.22118 2.10736 5.4255 0.878324C5.43236 0.837034 5.45065 0.807038 5.46711 0.790477C5.48141 0.776083 5.49067 0.774334 5.49659 0.773771Z" fill="#0E1011"/>
</svg>
