<svg viewBox="0 0 16 16" fill="none" xmlns="http://www.w3.org/2000/svg">
<path d="M15.9049 6.08897C13.9803 3.88927 11.1523 2.5 7.99983 2.5C4.84737 2.5 2.01938 3.88927 0.0947266 6.08896L0.82475 6.77336C2.56653 4.768 5.1351 3.5 7.99983 3.5C10.8646 3.5 13.4331 4.768 15.1749 6.77337L15.9049 6.08897Z" fill="#0E1011"/>
<path d="M13.7145 8.14252C12.3388 6.52566 10.2891 5.5 7.99983 5.5C5.71057 5.5 3.66087 6.52566 2.28519 8.14252L3.01572 8.82739C4.20807 7.40466 5.9983 6.5 7.99983 6.5C10.0014 6.5 11.7916 7.40466 12.9839 8.8274L13.7145 8.14252Z" fill="#0E1011"/>
<path d="M11.5216 10.1984C10.6971 9.16338 9.42593 8.5 7.99983 8.5C6.57373 8.5 5.30257 9.16338 4.47811 10.1984L5.21073 10.8852C5.84993 10.0435 6.8614 9.5 7.99983 9.5C9.13825 9.5 10.1497 10.0435 10.7889 10.8852L11.5216 10.1984Z" fill="#0E1011"/>
<path d="M9.68409 11.921C9.32847 11.367 8.70701 11 7.99983 11C7.29265 11 6.67119 11.367 6.31557 11.921L7.99983 13.5L9.68409 11.921Z" fill="#0E1011"/>
</svg>
