<svg viewBox="0 0 16 16" fill="none" xmlns="http://www.w3.org/2000/svg">
<path fill-rule="evenodd" clip-rule="evenodd" d="M12 4C12 6.20914 10.2091 8 8 8C5.79086 8 4 6.20914 4 4C4 1.79086 5.79086 0 8 0C10.2091 0 12 1.79086 12 4ZM11 4C11 5.65685 9.65685 7 8 7C6.34315 7 5 5.65685 5 4C5 2.34315 6.34315 1 8 1C9.65685 1 11 2.34315 11 4Z" fill="#0E1011"/>
<path d="M8 9V10H4.16833C3.42185 10 2.78897 10.5489 2.68341 11.2879L2.52919 12.3674C3.81327 13.9737 5.7868 15 8 15V16C5.31039 16 2.93079 14.6727 1.48047 12.6374L1.69346 11.1464C1.8694 9.91482 2.9242 9 4.16833 9H8Z" fill="#0E1011"/>
<path d="M10.3536 9.64645C10.1583 9.45118 9.84171 9.45118 9.64645 9.64645C9.45118 9.84171 9.45118 10.1583 9.64645 10.3536L11.7929 12.5L9.64645 14.6464C9.45118 14.8417 9.45118 15.1583 9.64645 15.3536C9.84171 15.5488 10.1583 15.5488 10.3536 15.3536L12.5 13.2071L14.6464 15.3536C14.8417 15.5488 15.1583 15.5488 15.3536 15.3536C15.5488 15.1583 15.5488 14.8417 15.3536 14.6464L13.2071 12.5L15.3536 10.3536C15.5488 10.1583 15.5488 9.84171 15.3536 9.64645C15.1583 9.45118 14.8417 9.45118 14.6464 9.64645L12.5 11.7929L10.3536 9.64645Z" fill="#0E1011"/>
</svg>
