<svg viewBox="0 0 12 12" fill="none" xmlns="http://www.w3.org/2000/svg">
<path fill-rule="evenodd" clip-rule="evenodd" d="M0.733389 0.266577C0.604516 0.137704 0.395572 0.137704 0.266699 0.266577C0.137826 0.39545 0.137826 0.604394 0.266699 0.733267L2.43834 2.9049C2.26098 3.34633 2.16338 3.8284 2.16338 4.33325V5.363C2.16338 6.07466 1.88067 6.75718 1.37745 7.2604L0.966876 7.67098C0.751209 7.88665 0.630049 8.17915 0.630049 8.48415V8.93326C0.630049 9.35667 0.973297 9.69992 1.39672 9.69992H9.23335L11.2667 11.7333C11.3956 11.8621 11.6045 11.8621 11.7334 11.7333C11.8623 11.6044 11.8623 11.3954 11.7334 11.2666L0.733389 0.266577ZM4.22263 4.6892L3.70257 4.16914C3.69868 4.22358 3.69672 4.27832 3.69672 4.33325C3.69672 4.54496 3.86834 4.71659 4.08005 4.71659C4.13044 4.71659 4.17855 4.70687 4.22263 4.6892ZM11.3634 8.93326C11.3634 9.05819 11.3335 9.17615 11.2805 9.28036L5.09396 3.09384C5.35456 2.90402 5.67027 2.79992 5.99672 2.79992C6.20842 2.79992 6.38005 2.6283 6.38005 2.41659C6.38005 2.20488 6.20842 2.03326 5.99672 2.03326C5.46659 2.03326 4.95534 2.21627 4.54743 2.54731L3.45967 1.45955C4.1356 0.862347 5.02384 0.499922 5.99672 0.499922C8.11381 0.499922 9.83005 2.21616 9.83005 4.33325V5.363C9.83005 6.07466 10.1128 6.75718 10.616 7.2604L11.0266 7.67098C11.2422 7.88665 11.3634 8.17915 11.3634 8.48415V8.93326ZM5.99672 11.9999C4.93817 11.9999 4.08005 11.1418 4.08005 10.0833H4.84672C4.84672 10.7184 5.36159 11.2333 5.99672 11.2333C6.63184 11.2333 7.14672 10.7184 7.14672 10.0833H7.91338C7.91338 11.1418 7.05526 11.9999 5.99672 11.9999Z" fill="black"/>
</svg>
