<svg viewBox="0 0 12 12" fill="none" xmlns="http://www.w3.org/2000/svg">
<path d="M0.827665 0.297335C0.681218 0.150888 0.443782 0.150888 0.297335 0.297335C0.150888 0.443782 0.150888 0.681218 0.297335 0.827665L1.71967 2.25H1.6875C0.75552 2.25 0 3.00552 0 3.9375V8.0625C0 8.99448 0.75552 9.75 1.6875 9.75H7.3125C7.83442 9.75 8.301 9.51306 8.61054 9.14087L11.1723 11.7027C11.3188 11.8491 11.5562 11.8491 11.7027 11.7027C11.8491 11.5562 11.8491 11.3188 11.7027 11.1723L0.827665 0.297335Z" fill="#0E1011"/>
<path d="M11.4263 8.943L10.8042 8.55425L9.375 7.125V4.33903L11.4263 3.057C11.5419 2.98475 11.6876 2.98092 11.8068 3.04701C11.926 3.11309 12 3.23868 12 3.375V8.625C12 8.76132 11.926 8.88691 11.8068 8.95299C11.6876 9.01908 11.5419 9.01525 11.4263 8.943Z" fill="#0E1011"/>
<path d="M9 3.9375V6.75L4.5 2.25H7.3125C8.24448 2.25 9 3.00552 9 3.9375Z" fill="#0E1011"/>
</svg>
