<svg viewBox="0 0 12 12" fill="none" xmlns="http://www.w3.org/2000/svg">
<path fill-rule="evenodd" clip-rule="evenodd" d="M11.8352 0.814477C11.9383 0.884238 12 1.00057 12 1.125V9.375C12 9.52447 11.9112 9.65966 11.7741 9.71909L8.0241 11.3441C7.92897 11.3853 7.82103 11.3853 7.7259 11.3441L4.125 9.7837L0.524103 11.3441C0.408197 11.3943 0.274792 11.3828 0.169195 11.3135C0.063598 11.2442 0 11.1263 0 11V2.625C0 2.47166 0.0933566 2.33377 0.235728 2.27682L3.98573 0.776823C4.07513 0.741061 4.17487 0.741061 4.26427 0.776823L7.875 2.22111L11.4857 0.776823C11.6013 0.730609 11.7322 0.744715 11.8352 0.814477ZM0.75 2.87889V10.4288L3.84376 9.08818V1.64139L0.75 2.87889ZM7.59376 10.4694L4.40626 9.08819V1.64139L7.59376 2.91639V10.4694ZM8.15626 10.4694L11.25 9.12881V1.67889L8.15626 2.91639V10.4694Z" fill="#0E1011"/>
</svg>
