<svg viewBox="0 0 16 16" fill="none" xmlns="http://www.w3.org/2000/svg">
<path fill-rule="evenodd" clip-rule="evenodd" d="M12 16C13.1046 16 14 15.1046 14 14V4.25L9.75 0H4C2.89543 0 2 0.895431 2 2V14C2 15.1046 2.89543 16 4 16H12ZM9.5 1.5C9.77614 1.5 10 1.72386 10 2V3.5C10 3.77614 10.2239 4 10.5 4H12C12.2761 4 12.5 4.22386 12.5 4.5C12.5 4.77614 12.2761 5 12 5H10.5C9.67157 5 9 4.32843 9 3.5V2C9 1.72386 9.22386 1.5 9.5 1.5ZM4.125 6.5C4.125 6.29289 4.29289 6.125 4.5 6.125H7.5C7.70711 6.125 7.875 6.29289 7.875 6.5C7.875 6.70711 7.70711 6.875 7.5 6.875H4.5C4.29289 6.875 4.125 6.70711 4.125 6.5ZM4.125 8.5C4.125 8.29289 4.29289 8.125 4.5 8.125H11.5C11.7071 8.125 11.875 8.29289 11.875 8.5C11.875 8.70711 11.7071 8.875 11.5 8.875H4.5C4.29289 8.875 4.125 8.70711 4.125 8.5ZM4.125 10.5C4.125 10.2929 4.29289 10.125 4.5 10.125H11.5C11.7071 10.125 11.875 10.2929 11.875 10.5C11.875 10.7071 11.7071 10.875 11.5 10.875H4.5C4.29289 10.875 4.125 10.7071 4.125 10.5ZM4.125 12.5C4.125 12.2929 4.29289 12.125 4.5 12.125H9.5C9.70711 12.125 9.875 12.2929 9.875 12.5C9.875 12.7071 9.70711 12.875 9.5 12.875H4.5C4.29289 12.875 4.125 12.7071 4.125 12.5Z" fill="#0E1011"/>
</svg>
