<svg viewBox="0 0 12 12" fill="none" xmlns="http://www.w3.org/2000/svg">
<path d="M3 4.59375C2.84467 4.59375 2.71875 4.71967 2.71875 4.875C2.71875 5.03033 2.84467 5.15625 3 5.15625H5.625C5.78033 5.15625 5.90625 5.03033 5.90625 4.875C5.90625 4.71967 5.78033 4.59375 5.625 4.59375H3Z" fill="#0E1011"/>
<path d="M3 6.09375C2.84467 6.09375 2.71875 6.21967 2.71875 6.375C2.71875 6.53033 2.84467 6.65625 3 6.65625H8.875C9.03033 6.65625 9.15625 6.53033 9.15625 6.375C9.15625 6.21967 9.03033 6.09375 8.875 6.09375H3Z" fill="#0E1011"/>
<path d="M3 7.59375C2.84467 7.59375 2.71875 7.71967 2.71875 7.875C2.71875 8.03033 2.84467 8.15625 3 8.15625H8.875C9.03033 8.15625 9.15625 8.03033 9.15625 7.875C9.15625 7.71967 9.03033 7.59375 8.875 7.59375H3Z" fill="#0E1011"/>
<path d="M3 9.09375C2.84467 9.09375 2.71875 9.21967 2.71875 9.375C2.71875 9.53033 2.84467 9.65625 3 9.65625H7.375C7.53033 9.65625 7.65625 9.53033 7.65625 9.375C7.65625 9.21967 7.53033 9.09375 7.375 9.09375H3Z" fill="#0E1011"/>
<path fill-rule="evenodd" clip-rule="evenodd" d="M7.5625 0H2.625C1.79657 0 1.125 0.671573 1.125 1.5V10.5C1.125 11.3284 1.79657 12 2.625 12H9.25C10.0784 12 10.75 11.3284 10.75 10.5V3.1875L7.5625 0ZM2.625 11.25H9.25C9.66421 11.25 10 10.9142 10 10.5V3.75H8.125C7.50368 3.75 7 3.24632 7 2.625V0.75H2.625C2.21079 0.75 1.875 1.08579 1.875 1.5V10.5C1.875 10.9142 2.21079 11.25 2.625 11.25ZM7.75 1.24816L9.50184 3H8.125C7.91789 3 7.75 2.83211 7.75 2.625V1.24816Z" fill="#0E1011"/>
</svg>
