<svg viewBox="0 0 12 12" fill="none" xmlns="http://www.w3.org/2000/svg">
<path fill-rule="evenodd" clip-rule="evenodd" d="M2.6875 0C1.75552 0 1 0.755519 1 1.6875V10.3125C1 11.2445 1.75552 12 2.6875 12H10.625C10.8321 12 11 11.8321 11 11.625C11 11.4179 10.8321 11.25 10.625 11.25H10.5225V9.73583C10.5551 9.74506 10.5895 9.75 10.625 9.75C10.8321 9.75 11 9.58211 11 9.375V0H2.6875ZM10.25 9.09375V0.75H2.6875C2.16973 0.75 1.75 1.16973 1.75 1.6875V9.3749C1.98503 9.19836 2.27717 9.09375 2.59375 9.09375H10.25ZM1.75488 10.4087C1.80306 10.8813 2.20222 11.25 2.6875 11.25H9.96003V9.65625H2.59375C2.1586 9.65625 1.80038 9.98567 1.75488 10.4087Z" fill="#0E1011"/>
</svg>
