<svg viewBox="0 0 12 12" fill="none" xmlns="http://www.w3.org/2000/svg">
<path fill-rule="evenodd" clip-rule="evenodd" d="M11.9998 1.125V4.93934C11.9998 5.23771 11.8812 5.52386 11.6703 5.73483L6.0131 11.392C5.28087 12.1242 4.09368 12.1242 3.36145 11.392L0.607769 8.63832C-0.124464 7.90609 -0.124465 6.71891 0.607768 5.98668L6.26494 0.329505C6.47592 0.118526 6.76207 0 7.06043 0H10.8748C11.4961 0 11.9998 0.50368 11.9998 1.125ZM6.74977 3.75C6.74977 4.57843 7.42135 5.25 8.24977 5.25C9.0782 5.25 9.74977 4.57843 9.74977 3.75C9.74977 2.92157 9.0782 2.25 8.24977 2.25C7.42135 2.25 6.74977 2.92157 6.74977 3.75Z" fill="#0E1011"/>
</svg>
