<svg viewBox="0 0 12 12" fill="none" xmlns="http://www.w3.org/2000/svg">
<path fill-rule="evenodd" clip-rule="evenodd" d="M12 6C12 9.31371 9.31371 12 6 12C2.68629 12 0 9.31371 0 6C0 2.68629 2.68629 0 6 0C9.31371 0 12 2.68629 12 6ZM6.65625 8.25C6.65625 8.61244 6.36244 8.90625 6 8.90625C5.63756 8.90625 5.34375 8.61244 5.34375 8.25L5.34375 6C5.34375 5.63756 5.63756 5.34375 6 5.34375C6.36244 5.34375 6.65625 5.63756 6.65625 6V8.25ZM6.65625 4.12498C6.65625 4.48742 6.36244 4.78123 6 4.78123C5.63756 4.78123 5.34375 4.48742 5.34375 4.12498V3.74998C5.34375 3.38755 5.63756 3.09373 6 3.09373C6.36244 3.09373 6.65625 3.38755 6.65625 3.74998V4.12498Z" fill="#0E1011"/>
</svg>
