<svg viewBox="0 0 12 12" fill="none" xmlns="http://www.w3.org/2000/svg">
<path fill-rule="evenodd" clip-rule="evenodd" d="M6 9.4375C5.68934 9.4375 5.4375 9.68934 5.4375 10C5.4375 10.3107 5.68934 10.5625 6 10.5625C6.31066 10.5625 6.5625 10.3107 6.5625 10C6.5625 9.68934 6.31066 9.4375 6 9.4375ZM5.8125 10C5.8125 9.89645 5.89645 9.8125 6 9.8125C6.10355 9.8125 6.1875 9.89645 6.1875 10C6.1875 10.1036 6.10355 10.1875 6 10.1875C5.89645 10.1875 5.8125 10.1036 5.8125 10Z" fill="#0E1011"/>
<path fill-rule="evenodd" clip-rule="evenodd" d="M2.5 0C1.67157 0 1 0.671573 1 1.5V10.5C1 11.3284 1.67157 12 2.5 12H9.5C10.3284 12 11 11.3284 11 10.5V1.5C11 0.671573 10.3284 0 9.5 0H2.5ZM1.75 1.5C1.75 1.08579 2.08579 0.75 2.5 0.75H9.5C9.91421 0.75 10.25 1.08579 10.25 1.5V10.5C10.25 10.9142 9.91421 11.25 9.5 11.25H2.5C2.08579 11.25 1.75 10.9142 1.75 10.5V1.5Z" fill="#0E1011"/>
</svg>
