<svg viewBox="0 0 12 12" fill="none" xmlns="http://www.w3.org/2000/svg">
<path fill-rule="evenodd" clip-rule="evenodd" d="M4 3.17C3.5416 3.17 3.17 3.5416 3.17 4V7C3.17 7.4584 3.5416 7.83 4 7.83C4.4584 7.83 4.83 7.4584 4.83 7V4C4.83 3.5416 4.4584 3.17 4 3.17ZM3.83 4C3.83 3.90611 3.90611 3.83 4 3.83C4.09389 3.83 4.17 3.90611 4.17 4V7C4.17 7.09389 4.09389 7.17 4 7.17C3.90611 7.17 3.83 7.09389 3.83 7V4Z" fill="#0E1011"/>
<path fill-rule="evenodd" clip-rule="evenodd" d="M8 3.17C7.5416 3.17 7.17 3.5416 7.17 4V6C7.17 6.4584 7.5416 6.83 8 6.83C8.4584 6.83 8.83 6.4584 8.83 6V4C8.83 3.5416 8.4584 3.17 8 3.17ZM7.83 4C7.83 3.90611 7.90611 3.83 8 3.83C8.09389 3.83 8.17 3.90611 8.17 4V6C8.17 6.09389 8.09389 6.17 8 6.17C7.90611 6.17 7.83 6.09389 7.83 6V4Z" fill="#0E1011"/>
<path fill-rule="evenodd" clip-rule="evenodd" d="M1 3C1 1.89543 1.89543 1 3 1H9C10.1046 1 11 1.89543 11 3V9C11 10.1046 10.1046 11 9 11H3C1.89543 11 1 10.1046 1 9V3ZM3 1.75H9C9.69036 1.75 10.25 2.30964 10.25 3V9C10.25 9.69036 9.69036 10.25 9 10.25H3C2.30964 10.25 1.75 9.69036 1.75 9V3C1.75 2.30964 2.30964 1.75 3 1.75Z" fill="#0E1011"/>
</svg>
