<svg viewBox="0 0 12 12" fill="none" xmlns="http://www.w3.org/2000/svg">
<path d="M3.01716 1.6121L0.837665 2.51606C0.760978 2.54787 0.691599 2.59146 0.631277 2.64423C0.71831 2.61516 0.816145 2.61777 0.906153 2.659L5.99501 4.98971L7.77792 4.12066L3.20729 1.83535C3.1125 1.78795 3.04655 1.70582 3.01716 1.6121Z" fill="#0E1011"/>
<path d="M3.79369 1.29002L8.63714 3.71175L11.1023 2.65526C11.1902 2.61757 11.2846 2.61611 11.3687 2.64423C11.3084 2.59146 11.239 2.54787 11.1623 2.51606L6.28733 0.494114C6.10338 0.417815 5.89662 0.417815 5.71267 0.494114L3.79369 1.29002Z" fill="#0E1011"/>
<path d="M11.6149 3.08628C11.5884 3.19789 11.5113 3.29596 11.3977 3.34462L8.78111 4.46602L6.375 5.63885V11.2499C6.375 11.3776 6.31116 11.4905 6.21365 11.5582C6.23853 11.5508 6.26313 11.5421 6.28733 11.532L11.1623 9.51007C11.4424 9.3939 11.625 9.12051 11.625 8.81729V3.20884C11.625 3.16732 11.6216 3.12635 11.6149 3.08628Z" fill="#0E1011"/>
<path d="M5.78636 11.5582C5.68885 11.4905 5.625 11.3776 5.625 11.2499V5.64517L0.593847 3.34088C0.484546 3.29082 0.410814 3.19483 0.385054 3.08627C0.378424 3.12635 0.375 3.16731 0.375 3.20884V8.81729C0.375 9.12051 0.557581 9.3939 0.837665 9.51007L5.71267 11.532C5.73687 11.5421 5.76147 11.5508 5.78636 11.5582Z" fill="#0E1011"/>
</svg>
