<svg viewBox="0 0 16 16" fill="none" xmlns="http://www.w3.org/2000/svg">
<path fill-rule="evenodd" clip-rule="evenodd" d="M1 2C0.447715 2 0 2.44772 0 3V11H10.5V3C10.5 2.44772 10.0523 2 9.5 2H1ZM1 4.25C1 4.11193 1.11193 4 1.25 4H4.75C4.88807 4 5 4.11193 5 4.25C5 4.38807 4.88807 4.5 4.75 4.5H1.25C1.11193 4.5 1 4.38807 1 4.25ZM5.75 4.25C5.75 4.11193 5.86193 4 6 4H7.25C7.38807 4 7.5 4.11193 7.5 4.25C7.5 4.38807 7.38807 4.5 7.25 4.5H6C5.86193 4.5 5.75 4.38807 5.75 4.25Z" fill="#0E1011"/>
<path d="M12.5 5.5H11V11H16V9C16 7.067 14.433 5.5 12.5 5.5Z" fill="#0E1011"/>
<path d="M6 12.5C6 13.6046 5.10457 14.5 4 14.5C2.89543 14.5 2 13.6046 2 12.5C2 12.3274 2.02188 12.1598 2.06301 12H5.93699C5.97812 12.1598 6 12.3274 6 12.5Z" fill="#0E1011"/>
<path d="M13.5 12.5C13.5 13.6046 12.6046 14.5 11.5 14.5C10.3954 14.5 9.5 13.6046 9.5 12.5C9.5 12.3274 9.52188 12.1598 9.56301 12H13.437C13.4781 12.1598 13.5 12.3274 13.5 12.5Z" fill="#0E1011"/>
</svg>
