<svg viewBox="0 0 12 12" fill="none" xmlns="http://www.w3.org/2000/svg">
<path d="M2.5 4.49998C2.5 3.7838 2.16667 3.06762 1.16667 2.35144C3.5 2.35144 5.49984 4.13524 5.49984 6.99996L5.48879 6.99995C5.49621 7.0823 5.5 7.1657 5.5 7.24998C5.5 8.76876 4.26878 9.99998 2.75 9.99998C1.23122 9.99998 0 8.76876 0 7.24998C0 5.81547 1.09838 4.63749 2.50002 4.51119L2.5 4.49998Z" fill="#0E1011"/>
<path d="M9 4.49998C9 3.7838 8.66667 3.06762 7.66667 2.35144C10 2.35144 11.9998 4.13524 11.9998 6.99996L11.9888 6.99995C11.9962 7.0823 12 7.1657 12 7.24998C12 8.76876 10.7688 9.99998 9.25 9.99998C7.73122 9.99998 6.5 8.76876 6.5 7.24998C6.5 5.81547 7.59838 4.63749 9.00002 4.51119L9 4.49998Z" fill="#0E1011"/>
</svg>
