<svg viewBox="0 0 12 12" fill="none" xmlns="http://www.w3.org/2000/svg">
<path fill-rule="evenodd" clip-rule="evenodd" d="M8.25 4.5C7.42157 4.5 6.75 5.17157 6.75 6C6.75 6.82843 7.42157 7.5 8.25 7.5C9.07843 7.5 9.75 6.82843 9.75 6C9.75 5.17157 9.07843 4.5 8.25 4.5ZM7.5 6C7.5 5.58579 7.83579 5.25 8.25 5.25C8.66421 5.25 9 5.58579 9 6C9 6.41421 8.66421 6.75 8.25 6.75C7.83579 6.75 7.5 6.41421 7.5 6Z" fill="#0E1011"/>
<path fill-rule="evenodd" clip-rule="evenodd" d="M3.75 2.25C1.67893 2.25 0 3.92893 0 6C0 8.07107 1.67893 9.75 3.75 9.75H8.25C10.3211 9.75 12 8.07107 12 6C12 3.92893 10.3211 2.25 8.25 2.25H3.75ZM0.75 6C0.75 4.34315 2.09315 3 3.75 3H8.25C9.90685 3 11.25 4.34315 11.25 6C11.25 7.65685 9.90685 9 8.25 9H3.75C2.09315 9 0.75 7.65685 0.75 6Z" fill="#0E1011"/>
</svg>
