<svg viewBox="0 0 16 16" fill="none" xmlns="http://www.w3.org/2000/svg">
<path d="M8.375 0.75C8.375 0.542893 8.20711 0.375 8 0.375C7.79289 0.375 7.625 0.542893 7.625 0.75V3.5C7.625 3.70711 7.79289 3.875 8 3.875C8.20711 3.875 8.375 3.70711 8.375 3.5V0.75Z" fill="#0E1011"/>
<path d="M13.3917 3.13864C13.5381 2.99219 13.5381 2.75476 13.3917 2.60831C13.2452 2.46186 13.0078 2.46186 12.8614 2.60831L10.9168 4.55285C10.7704 4.6993 10.7704 4.93674 10.9168 5.08318C11.0633 5.22963 11.3007 5.22963 11.4471 5.08318L13.3917 3.13864Z" fill="#0E1011"/>
<path d="M3.13864 2.60831C2.99219 2.46186 2.75476 2.46186 2.60831 2.60831C2.46186 2.75476 2.46186 2.99219 2.60831 3.13864L4.55285 5.08318C4.6993 5.22963 4.93674 5.22963 5.08318 5.08318C5.22963 4.93674 5.22963 4.6993 5.08318 4.55285L3.13864 2.60831Z" fill="#0E1011"/>
<path d="M0.75 7.625C0.542893 7.625 0.375 7.79289 0.375 8C0.375 8.20711 0.542893 8.375 0.75 8.375H3.5C3.70711 8.375 3.875 8.20711 3.875 8C3.875 7.79289 3.70711 7.625 3.5 7.625H0.75Z" fill="#0E1011"/>
<path d="M12.5 7.625C12.2929 7.625 12.125 7.79289 12.125 8C12.125 8.20711 12.2929 8.375 12.5 8.375H15.25C15.4571 8.375 15.625 8.20711 15.625 8C15.625 7.79289 15.4571 7.625 15.25 7.625H12.5Z" fill="#0E1011"/>
<path d="M5.08318 11.4471C5.22963 11.3007 5.22963 11.0633 5.08318 10.9168C4.93674 10.7704 4.6993 10.7704 4.55285 10.9168L2.60831 12.8614C2.46186 13.0078 2.46186 13.2452 2.60831 13.3917C2.75476 13.5381 2.99219 13.5381 3.13864 13.3917L5.08318 11.4471Z" fill="#0E1011"/>
<path d="M11.4471 10.9168C11.3007 10.7704 11.0633 10.7704 10.9168 10.9168C10.7704 11.0633 10.7704 11.3007 10.9168 11.4471L12.8614 13.3917C13.0078 13.5381 13.2452 13.5381 13.3917 13.3917C13.5381 13.2452 13.5381 13.0078 13.3917 12.8614L11.4471 10.9168Z" fill="#0E1011"/>
<path d="M8.375 12.5C8.375 12.2929 8.20711 12.125 8 12.125C7.79289 12.125 7.625 12.2929 7.625 12.5V15.25C7.625 15.4571 7.79289 15.625 8 15.625C8.20711 15.625 8.375 15.4571 8.375 15.25V12.5Z" fill="#0E1011"/>
<path d="M8 5C6.34315 5 5 6.34315 5 8C5 9.65685 6.34315 11 8 11C9.65685 11 11 9.65685 11 8C11 6.34315 9.65685 5 8 5Z" fill="#0E1011"/>
</svg>
