<svg viewBox="0 0 12 12" fill="none" xmlns="http://www.w3.org/2000/svg">
<path fill-rule="evenodd" clip-rule="evenodd" d="M1 1.71429C1 1.3198 1.3198 1 1.71429 1H10.2857C10.6802 1 11 1.3198 11 1.71429V6C11 8.76142 8.76142 11 6 11C3.23858 11 1 8.76142 1 6V1.71429ZM10.2857 1.71429H1.71429V6C1.71429 8.36693 3.63307 10.2857 6 10.2857C8.36693 10.2857 10.2857 8.36693 10.2857 6V1.71429ZM3.85714 5.28571V4.92857H4.57143V5.28571C4.57143 6.07469 5.21102 6.71429 6 6.71429C6.78898 6.71429 7.42857 6.07469 7.42857 5.28571V4.92857H8.14286V5.28571C8.14286 6.46918 7.18347 7.42857 6 7.42857C4.81653 7.42857 3.85714 6.46918 3.85714 5.28571Z" fill="#0E1011"/>
</svg>
