<svg viewBox="0 0 12 12" fill="none" xmlns="http://www.w3.org/2000/svg">
<path fill-rule="evenodd" clip-rule="evenodd" d="M2.97341 1.27454V2.44348L6.7624 6.2325C7.0924 6.00557 7.49214 5.87274 7.92291 5.87274C8.41241 5.87274 8.88577 6.04785 9.25743 6.36642L11.1861 8.01958C11.6839 8.44628 11.9704 9.06922 11.9704 9.72489C11.9704 10.9653 10.9649 11.9709 9.72441 11.9709C9.06875 11.9709 8.44582 11.6844 8.01912 11.1866L6.36597 9.25789C6.04741 8.88623 5.87231 8.41286 5.87231 7.92336C5.87231 7.49259 6.00513 7.09284 6.23207 6.76284L2.4432 2.97393H1.27404L-0.000488281 0.849694L0.849197 0L2.97341 1.27454ZM6.87231 7.92336C6.87231 7.34312 7.34269 6.87274 7.92291 6.87274C8.1737 6.87274 8.41622 6.96246 8.60664 7.12567L10.5353 8.77883C10.8115 9.01555 10.9704 9.36114 10.9704 9.72489C10.9704 10.413 10.4126 10.9709 9.72441 10.9709C9.36067 10.9709 9.01509 10.812 8.77838 10.5358L7.12523 8.6071C6.96202 8.41669 6.87231 8.17416 6.87231 7.92336Z" fill="#0E1011"/>
<path d="M8.71728 0.758989C8.57532 0.935701 8.4969 1.15643 8.4969 1.38525V2.39874C8.4969 2.95102 8.94461 3.39874 9.4969 3.39874H10.5104C10.7392 3.39874 10.96 3.32028 11.1367 3.17826C11.1648 3.1557 11.1918 3.13154 11.2175 3.10584L11.7857 2.53761C11.8575 2.81264 11.8957 3.10124 11.8957 3.39878C11.8957 3.42908 11.8953 3.45929 11.8946 3.48941C11.8637 4.66621 11.2348 5.69405 10.3005 6.28009L9.70503 5.76981L9.69538 5.76158C10.3658 5.42088 10.8718 4.80324 11.0627 4.05927C10.8862 4.11799 10.6999 4.14874 10.5104 4.14874H9.4969C8.5304 4.14874 7.7469 3.36523 7.7469 2.39874V1.38525C7.7469 1.1958 7.77762 1.00952 7.8363 0.833067C6.69313 1.12659 5.84826 2.16401 5.84826 3.39878C5.84826 3.51815 5.85611 3.63544 5.87128 3.75022L5.12137 3.0003C5.3152 1.34045 6.70499 0.0458664 8.40608 0.00119253C8.43629 0.000399163 8.4666 0 8.497 0C8.79445 0 9.08297 0.0382112 9.35793 0.109993L8.78979 0.678147C8.76405 0.703884 8.73986 0.730879 8.71728 0.758989Z" fill="#0E1011"/>
<path d="M5.09768 7.88883C5.09765 8.19323 5.14737 8.49305 5.24273 8.77717L2.56415 11.4558C2.28246 11.7375 1.90041 11.8957 1.50204 11.8957C0.672485 11.8957 0 11.2232 0 10.3937C0 9.9953 0.158251 9.61324 0.439939 9.33155L3.82493 5.94652L4.35526 6.47685L0.970272 9.86187C0.829236 10.0029 0.75 10.1942 0.75 10.3937C0.75 10.809 1.08671 11.1457 1.50204 11.1457C1.7015 11.1457 1.89278 11.0665 2.03382 10.9255L5.09782 7.86142L5.09768 7.88883Z" fill="#0E1011"/>
</svg>
