<svg viewBox="0 0 16 16" fill="none" xmlns="http://www.w3.org/2000/svg">
<path fill-rule="evenodd" clip-rule="evenodd" d="M0.853553 0.146447C0.658291 -0.0488155 0.341709 -0.0488155 0.146447 0.146447C-0.0488155 0.341709 -0.0488155 0.658291 0.146447 0.853553L3.37927 4.08638C3.13488 4.67583 3 5.32216 3 6V7.34315C3 8.2714 2.63125 9.16164 1.97487 9.81802L1.43934 10.3536C1.15803 10.6349 1 11.0164 1 11.4142V12C1 12.5523 1.44772 13 2 13H12.2929L15.1464 15.8536C15.3417 16.0488 15.6583 16.0488 15.8536 15.8536C16.0488 15.6583 16.0488 15.3417 15.8536 15.1464L0.853553 0.146447ZM11.2929 12L5.73457 6.44168C5.66462 6.4789 5.58477 6.5 5.5 6.5C5.22386 6.5 5 6.27614 5 6C5 5.90618 5.0044 5.81281 5.01307 5.72018L4.16208 4.86919C4.0566 5.22777 4 5.60727 4 6V7.34315C4 8.53662 3.52589 9.68121 2.68198 10.5251L2.14645 11.0607C2.05268 11.1544 2 11.2816 2 11.4142V12H11.2929ZM8 1C6.61929 1 5.36929 1.55964 4.46447 2.46447L5.17157 3.17157C5.89543 2.44772 6.89543 2 8 2C10.2091 2 12 3.79086 12 6V7.34315C12 8.53662 12.4741 9.68121 13.318 10.5251L13.8536 11.0607C13.9473 11.1544 14 11.2816 14 11.4142V12L14.7071 12.7071C14.8881 12.5261 15 12.2761 15 12V11.4142C15 11.0164 14.842 10.6349 14.5607 10.3536L14.0251 9.81802C13.3687 9.16164 13 8.2714 13 7.34315V6C13 3.23858 10.7614 1 8 1ZM5.87868 3.87868L6.58579 4.58579C6.96086 4.21071 7.46957 4 8 4C8.27614 4 8.5 3.77614 8.5 3.5C8.5 3.22386 8.27614 3 8 3C7.20435 3 6.44129 3.31607 5.87868 3.87868ZM8 16C6.61929 16 5.5 14.8807 5.5 13.5H6.5C6.5 14.3284 7.17157 15 8 15C8.82843 15 9.5 14.3284 9.5 13.5H10.5C10.5 14.8807 9.38071 16 8 16Z" fill="black"/>
</svg>
