<svg viewBox="0 0 12 12" fill="none" xmlns="http://www.w3.org/2000/svg">
<path fill-rule="evenodd" clip-rule="evenodd" d="M3.32029 1C2.75213 1 2.23274 1.35667 1.97865 1.92131L0.118769 6.05437C0.0406632 6.22794 0 6.41933 0 6.61339V8.91667C0 10.0673 0.839466 11 1.875 11H10.125C11.1605 11 12 10.0673 12 8.91667V6.61339C12 6.41933 11.9593 6.22794 11.8812 6.05437L10.0214 1.92131C9.76727 1.35667 9.24787 1 8.67971 1H3.32029ZM2.64947 2.29399C2.77651 2.01167 3.03621 1.83333 3.32029 1.83333H8.67971C8.96379 1.83333 9.22349 2.01167 9.35053 2.29399L11.1589 6.3125H7.59375V6.83333C7.59375 7.81134 6.8802 8.60417 6 8.60417C5.1198 8.60417 4.40625 7.81134 4.40625 6.83333V6.3125H0.841138L2.64947 2.29399ZM0.75 6.9375V8.91667C0.75 9.60702 1.25368 10.1667 1.875 10.1667H10.125C10.7463 10.1667 11.25 9.60702 11.25 8.91667V6.9375H8.15425C8.10517 8.21236 7.15945 9.22917 6 9.22917C4.84055 9.22917 3.89483 8.21236 3.84575 6.9375H0.75Z" fill="#0E1011"/>
</svg>
