<svg viewBox="0 0 12 12" fill="none" xmlns="http://www.w3.org/2000/svg">
<path fill-rule="evenodd" clip-rule="evenodd" d="M3.5 2.79289V1.5L1 0L0 1L1.5 3.5H2.79289L5.36566 6.07277C5.1342 6.43419 5 6.86388 5 7.32492C5 7.8799 5.19853 8.41658 5.55971 8.83796L7.52173 11.127C7.99668 11.6811 8.69006 12 9.41987 12H9.5C10.8807 12 12 10.8807 12 9.5V9.41987C12 8.69006 11.6811 7.99668 11.127 7.52173L8.83796 5.55971C8.41658 5.19853 7.8799 5 7.32492 5C6.86388 5 6.43419 5.1342 6.07277 5.36566L3.5 2.79289ZM7.32492 6C6.59319 6 6 6.59319 6 7.32492C6 7.64119 6.11314 7.94703 6.31897 8.18716L8.28098 10.4762C8.56596 10.8087 8.98198 11 9.41987 11H9.5C10.3284 11 11 10.3284 11 9.5V9.41987C11 8.98198 10.8087 8.56596 10.4762 8.28098L8.18716 6.31897C7.94703 6.11314 7.64119 6 7.32492 6Z" fill="#0E1011"/>
</svg>
