<svg viewBox="0 0 12 12" fill="none" xmlns="http://www.w3.org/2000/svg">
<path fill-rule="evenodd" clip-rule="evenodd" d="M3.67125 0C3.57179 0 3.47641 0.0395088 3.40609 0.109835L0.109835 3.40609C0.0395088 3.47641 0 3.57179 0 3.67125V8.32875C0 8.42821 0.0395088 8.52359 0.109835 8.59391L3.40609 11.8902C3.47641 11.9605 3.57179 12 3.67125 12H8.32875C8.42821 12 8.52359 11.9605 8.59391 11.8902L11.8902 8.59391C11.9605 8.52359 12 8.42821 12 8.32875V3.67125C12 3.57179 11.9605 3.47641 11.8902 3.40609L8.59391 0.109835C8.52359 0.0395088 8.42821 0 8.32875 0H3.67125ZM4.56904 4.09763C4.43886 3.96746 4.22781 3.96746 4.09763 4.09763C3.96746 4.22781 3.96746 4.43886 4.09763 4.56904L5.5286 6L4.09763 7.43096C3.96746 7.56114 3.96746 7.77219 4.09763 7.90237C4.22781 8.03254 4.43886 8.03254 4.56904 7.90237L6 6.4714L7.43096 7.90237C7.56114 8.03254 7.77219 8.03254 7.90237 7.90237C8.03254 7.77219 8.03254 7.56114 7.90237 7.43096L6.4714 6L7.90237 4.56904C8.03254 4.43886 8.03254 4.22781 7.90237 4.09763C7.77219 3.96746 7.56114 3.96746 7.43096 4.09763L6 5.5286L4.56904 4.09763Z" fill="#0E1011"/>
</svg>
