<svg viewBox="0 0 16 16" fill="none" xmlns="http://www.w3.org/2000/svg">
<path fill-rule="evenodd" clip-rule="evenodd" d="M4.15 3.53114C3.73493 2.28592 4.66177 1 5.97434 1C6.80207 1 7.53693 1.52966 7.79868 2.31491L8 2.91886L8.20132 2.31491C8.46307 1.52966 9.19793 1 10.0257 1C11.3382 1 12.2651 2.28592 11.85 3.53114L11.7023 3.97434C11.6994 3.98293 11.6965 3.99149 11.6935 4H15C15.5523 4 16 4.44772 16 5V7C16 7.55229 15.5523 8 15 8V12.75C15 13.9926 13.9926 15 12.75 15H3.25C2.00736 15 1 13.9926 1 12.75V8C0.447715 8 0 7.55228 0 7V5C0 4.44771 0.447716 4 1 4H4.30654C4.30353 3.99149 4.3006 3.98293 4.29773 3.97434L4.15 3.53114ZM10.7536 3.65811C10.6855 3.86228 10.4945 4 10.2792 4H8.69371L9.15 2.63114C9.27564 2.25423 9.62836 2 10.0257 2C10.6557 2 11.1005 2.61722 10.9013 3.21491L10.7536 3.65811ZM6.85 2.63114L7.30629 4H5.72076C5.50554 4 5.31447 3.86228 5.24642 3.65811L5.09868 3.21491C4.89945 2.61722 5.34432 2 5.97434 2C6.37164 2 6.72436 2.25423 6.85 2.63114ZM8 5C8.27614 5 8.5 5.22386 8.5 5.5V7H13.75C14.0261 7 14.25 7.22386 14.25 7.5C14.25 7.77614 14.0261 8 13.75 8H8.5V13.5C8.5 13.7761 8.27614 14 8 14C7.72386 14 7.5 13.7761 7.5 13.5V8H2.25C1.97386 8 1.75 7.77614 1.75 7.5C1.75 7.22386 1.97386 7 2.25 7H7.5V5.5C7.5 5.22386 7.72386 5 8 5Z" fill="#0E1011"/>
</svg>
