<svg viewBox="0 0 12 12" fill="none" xmlns="http://www.w3.org/2000/svg">
<path fill-rule="evenodd" clip-rule="evenodd" d="M6 12C9.31371 12 12 9.31371 12 6C12 2.68629 9.31371 0 6 0C2.68629 0 0 2.68629 0 6C0 9.31371 2.68629 12 6 12ZM9.43772 9.96805C8.51667 10.7667 7.31478 11.25 6 11.25C4.68522 11.25 3.48333 10.7667 2.56228 9.96805L4.42781 8.10253C5.357 8.79916 6.643 8.79916 7.57219 8.10253L9.43772 9.96805ZM9.96805 9.43773C10.7667 8.51668 11.25 7.31478 11.25 6C11.25 4.68522 10.7667 3.48333 9.96805 2.56228L8.10252 4.42782C8.79916 5.35701 8.79916 6.64301 8.10252 7.5722L9.96805 9.43773ZM9.43773 2.03195L7.57219 3.89749C6.643 3.20085 5.357 3.20085 4.42781 3.89749L2.56228 2.03195C3.48332 1.23331 4.68522 0.75 6 0.75C7.31478 0.75 8.51668 1.23331 9.43773 2.03195ZM2.03195 2.56228C1.2333 3.48333 0.75 4.68522 0.75 6C0.75 7.31478 1.23331 8.51668 2.03195 9.43773L3.89748 7.5722C3.20084 6.64301 3.20084 5.35701 3.89748 4.42781L2.03195 2.56228ZM4.67418 4.67418C5.40641 3.94195 6.59359 3.94195 7.32582 4.67418C8.05806 5.40642 8.05806 6.5936 7.32582 7.32583C6.59359 8.05806 5.40641 8.05806 4.67418 7.32583C3.94194 6.5936 3.94194 5.40641 4.67418 4.67418Z" fill="#0E1011"/>
</svg>
