<svg viewBox="0 0 16 16" fill="none" xmlns="http://www.w3.org/2000/svg">
<path d="M14.8705 3.98642L14.1498 4.70705C13.9623 4.89459 13.7079 4.99995 13.4427 4.99995H11.9998C11.4475 4.99995 10.9998 4.55223 10.9998 3.99995V2.55702C10.9998 2.2918 11.1051 2.03745 11.2927 1.84991L12.0132 1.12943C11.6896 1.04496 11.35 1 11 1C8.83082 1 7.06492 2.72667 7.00175 4.88055L9.22268 7.10149C9.47039 7.03528 9.73072 6.99999 9.9993 6.99999H10.3896C11.1056 6.99999 11.798 7.25607 12.3417 7.72195L13.1225 8.39105C14.2502 7.68371 15 6.42941 15 5C15 4.64981 14.955 4.31012 14.8705 3.98642Z" fill="#0E1011"/>
<path fill-rule="evenodd" clip-rule="evenodd" d="M1.51777 11.9822L5.68928 7.81072L7.10104 9.22248C7.03471 9.47035 6.99933 9.73088 6.9993 9.99967L6.99926 10.3898C6.99922 10.717 7.05268 11.0393 7.15522 11.3448L4.01777 14.4822C3.68625 14.8138 3.23661 15 2.76777 15C1.79146 15 1 14.2085 1 13.2322C1 12.7634 1.18625 12.3138 1.51777 11.9822ZM3.14645 12.1464L4.14645 11.1464C4.34171 10.9512 4.65829 10.9512 4.85355 11.1464C5.04882 11.3417 5.04882 11.6583 4.85355 11.8536L3.85355 12.8536C3.65829 13.0488 3.34171 13.0488 3.14645 12.8536C2.95118 12.6583 2.95118 12.3417 3.14645 12.1464Z" fill="#0E1011"/>
<path fill-rule="evenodd" clip-rule="evenodd" d="M4.5 3.79289V2.5L2 1L1 2L2.5 4.5H3.79289L8.27691 8.98402C8.10096 9.28177 8 9.6291 8 10V10.2485C8 10.733 8.17584 11.201 8.49485 11.5655L10.9024 14.317C11.2822 14.751 11.8308 15 12.4075 15H13C14.1046 15 15 14.1046 15 13V12.4075C15 11.8308 14.751 11.2822 14.317 10.9024L11.5655 8.49485C11.201 8.17584 10.733 8 10.2485 8H10C9.6291 8 9.28177 8.10096 8.98402 8.27691L4.5 3.79289ZM10.7879 10.2121L12.495 11.9192C12.6263 12.0505 12.7 12.2286 12.7 12.4142V12.5C12.7 12.6657 12.8343 12.8 13 12.8C13.1657 12.8 13.3 12.6657 13.3 12.5V12.4142C13.3 12.0694 13.163 11.7388 12.9192 11.495L11.2121 9.78787C11.095 9.67071 10.905 9.67071 10.7879 9.78787C10.6707 9.90503 10.6707 10.095 10.7879 10.2121Z" fill="#0E1011"/>
</svg>
