<svg viewBox="0 0 12 12" fill="none" xmlns="http://www.w3.org/2000/svg">
<path fill-rule="evenodd" clip-rule="evenodd" d="M4.5 2.625C4.5 1.17525 5.67525 0 7.125 0H9.1875C9.49816 0 9.75 0.25184 9.75 0.5625V2.4375C9.75 2.74816 9.49816 3 9.1875 3H7.875C7.66789 3 7.5 3.16789 7.5 3.375V4.5H9.11486C9.4988 4.5 9.7699 4.87614 9.64849 5.24038L9.02349 7.11538C8.94693 7.34507 8.73197 7.5 8.48986 7.5H7.5V11.4375C7.5 11.7482 7.24816 12 6.9375 12H5.0625C4.75184 12 4.5 11.7482 4.5 11.4375V7.5H3.5625C3.25184 7.5 3 7.24816 3 6.9375V5.0625C3 4.75184 3.25184 4.5 3.5625 4.5H4.5V2.625ZM7.125 0.75C6.08947 0.75 5.25 1.58947 5.25 2.625V5.25H3.75V6.75H5.25V11.25H6.75V6.75H8.35472L8.85472 5.25H6.75V3.375C6.75 2.75368 7.25368 2.25 7.875 2.25H9V0.75H7.125Z" fill="#0E1011"/>
</svg>
