<svg viewBox="0 0 16 16" fill="none" xmlns="http://www.w3.org/2000/svg">
<path fill-rule="evenodd" clip-rule="evenodd" d="M8 15C10.7317 15 13 12.7049 13 9.80645C13 8.37581 12.4895 7.15629 11.495 5.74488C10.7866 4.73942 9.88819 3.70797 8.80927 2.46926C8.5499 2.17147 8.2801 1.86171 8 1.53746C7.7199 1.86171 7.4501 2.17147 7.19073 2.46925C6.11181 3.70797 5.21342 4.73942 4.50495 5.74488C3.51045 7.15629 3 8.37581 3 9.80645C3 12.7049 5.26827 15 8 15ZM7.34155 0.769553C7.04456 1.11384 6.7561 1.44506 6.47721 1.76531C3.79715 4.8427 2 6.90628 2 9.80645C2 13.2271 4.68629 16 8 16C11.3137 16 14 13.2271 14 9.80645C14 6.90628 12.2029 4.8427 9.52279 1.76531C9.2439 1.44506 8.95544 1.11384 8.65845 0.769553C8.44331 0.520155 8.2237 0.263901 8 0C7.7763 0.263901 7.55669 0.520155 7.34155 0.769553Z" fill="#0E1011"/>
</svg>
