<svg viewBox="0 0 16 16" fill="none" xmlns="http://www.w3.org/2000/svg">
<path fill-rule="evenodd" clip-rule="evenodd" d="M0 8C0 5.51472 2.01472 3.5 4.5 3.5H5.5C5.77614 3.5 6 3.72386 6 4C6 4.27614 5.77614 4.5 5.5 4.5H4.5C2.567 4.5 1 6.067 1 8C1 9.933 2.567 11.5 4.5 11.5H5.5C5.77614 11.5 6 11.7239 6 12C6 12.2761 5.77614 12.5 5.5 12.5H4.5C2.01472 12.5 0 10.4853 0 8ZM9 4C9 3.72386 9.22386 3.5 9.5 3.5H11.5C13.9853 3.5 16 5.51472 16 8C16 10.4853 13.9853 12.5 11.5 12.5H9.5C9.22386 12.5 9 12.2761 9 12C9 11.7239 9.22386 11.5 9.5 11.5H11.5C13.433 11.5 15 9.933 15 8C15 6.067 13.433 4.5 11.5 4.5H9.5C9.22386 4.5 9 4.27614 9 4ZM5 8C5 7.72386 5.22386 7.5 5.5 7.5H10.5C10.7761 7.5 11 7.72386 11 8C11 8.27614 10.7761 8.5 10.5 8.5H5.5C5.22386 8.5 5 8.27614 5 8Z" fill="#0E1011"/>
</svg>
