<svg viewBox="0 0 16 16" fill="none" xmlns="http://www.w3.org/2000/svg">
<path fill-rule="evenodd" clip-rule="evenodd" d="M15.6036 0.396447C15.7988 0.591709 15.7988 0.908291 15.6036 1.10355L8.01573 8.69137C8.56079 9.0905 9.26616 9.4325 9.63488 9.59927L10.6599 8.91593C10.904 8.75319 11.2072 8.70586 11.4893 8.78645L14.2747 9.58228C14.704 9.70494 15 10.0973 15 10.5438V13C15 14.0872 14.1036 15.0442 12.9455 14.9114C10.0126 14.575 7.36592 13.2989 5.31413 11.393L1.10355 15.6036C0.908291 15.7988 0.591709 15.7988 0.396447 15.6036C0.201184 15.4083 0.201184 15.0917 0.396447 14.8964L6.57067 8.72222L6.57151 8.72137L6.57247 8.72042L6.57332 8.71958L6.57424 8.71866L14.8964 0.396447C15.0917 0.201184 15.4083 0.201184 15.6036 0.396447ZM7.27874 9.42837C7.27781 9.42874 7.27894 9.42819 7.27874 9.42837C7.28057 9.42763 7.28621 9.426 7.2945 9.4258C7.31279 9.42536 7.33599 9.43178 7.3553 9.44638C8.1281 10.0307 9.17325 10.4919 9.42829 10.601C9.62837 10.6865 9.84893 10.6584 10.0178 10.5458L11.2146 9.74798L14 10.5438V13C14 13.5696 13.5475 13.9739 13.0595 13.9179C10.3584 13.6081 7.91869 12.4372 6.02175 10.6854L7.27693 9.43016L6.92432 9.07587L7.27874 9.42837ZM3 1.99999C2.4304 1.99999 2.02609 2.4525 2.08206 2.9405C2.3437 5.22176 3.2195 7.31625 4.54061 9.05501C4.70767 9.27488 4.66486 9.58855 4.44498 9.75562C4.22511 9.92268 3.91143 9.87986 3.74437 9.65999C2.31786 7.78252 1.37128 5.5194 1.08857 3.05445C0.955749 1.89638 1.91274 0.99999 3 0.99999H5.45618C5.90266 0.99999 6.29505 1.29597 6.41771 1.72527L7.21354 4.51068C7.29413 4.79276 7.2468 5.096 7.08406 5.3401L6.40071 6.36513C6.47298 6.525 6.57936 6.75069 6.71028 7.00062C6.83841 7.24523 6.74399 7.54741 6.49937 7.67554C6.25476 7.80367 5.95258 7.70925 5.82445 7.46463C5.61135 7.05781 5.45862 6.71111 5.39901 6.5717C5.31346 6.37161 5.34157 6.15106 5.45416 5.98217L6.25201 4.7854L5.45618 1.99999H3Z" fill="#0E1011"/>
</svg>
