<svg viewBox="0 0 16 16" fill="none" xmlns="http://www.w3.org/2000/svg">
<path d="M11.8536 4.85355C12.0488 4.65829 12.0488 4.34171 11.8536 4.14645C11.6583 3.95119 11.3417 3.95119 11.1464 4.14645L7.64645 7.64645C7.55268 7.74022 7.5 7.86739 7.5 8C7.5 8.13261 7.55268 8.25979 7.64645 8.35355L11.1464 11.8536C11.3417 12.0488 11.6583 12.0488 11.8536 11.8536C12.0488 11.6583 12.0488 11.3417 11.8536 11.1464L8.70711 8L11.8536 4.85355Z" fill="#0E1011"/>
<path d="M7.85355 4.85355C8.04882 4.65829 8.04882 4.34171 7.85355 4.14645C7.65829 3.95118 7.34171 3.95118 7.14645 4.14645L3.64645 7.64645C3.45118 7.84171 3.45118 8.15829 3.64645 8.35355L7.14645 11.8536C7.34171 12.0488 7.65829 12.0488 7.85355 11.8536C8.04882 11.6583 8.04882 11.3417 7.85355 11.1464L4.70711 8L7.85355 4.85355Z" fill="#0E1011"/>
</svg>
