<svg viewBox="0 0 12 12" fill="none" xmlns="http://www.w3.org/2000/svg">
<path d="M3.9375 6C3.9375 6.51777 3.51777 6.9375 3 6.9375C2.48223 6.9375 2.0625 6.51777 2.0625 6C2.0625 5.48223 2.48223 5.0625 3 5.0625C3.51777 5.0625 3.9375 5.48223 3.9375 6Z" fill="#0E1011"/>
<path d="M6 6.9375C6.51777 6.9375 6.9375 6.51777 6.9375 6C6.9375 5.48223 6.51777 5.0625 6 5.0625C5.48223 5.0625 5.0625 5.48223 5.0625 6C5.0625 6.51777 5.48223 6.9375 6 6.9375Z" fill="#0E1011"/>
<path d="M9 6.9375C9.51777 6.9375 9.9375 6.51777 9.9375 6C9.9375 5.48223 9.51777 5.0625 9 5.0625C8.48223 5.0625 8.0625 5.48223 8.0625 6C8.0625 6.51777 8.48223 6.9375 9 6.9375Z" fill="#0E1011"/>
<path fill-rule="evenodd" clip-rule="evenodd" d="M6 12C9.31371 12 12 9.31371 12 6C12 2.68629 9.31371 0 6 0C2.68629 0 0 2.68629 0 6C0 9.31371 2.68629 12 6 12ZM11.25 6C11.25 8.8995 8.8995 11.25 6 11.25C3.1005 11.25 0.75 8.8995 0.75 6C0.75 3.1005 3.1005 0.75 6 0.75C8.8995 0.75 11.25 3.1005 11.25 6Z" fill="#0E1011"/>
</svg>
