<svg viewBox="0 0 12 12" fill="none" xmlns="http://www.w3.org/2000/svg">
<path fill-rule="evenodd" clip-rule="evenodd" d="M7.25 1.375C7.25 1.16789 7.41789 1 7.625 1H11V4.375C11 4.58211 10.8321 4.75 10.625 4.75C10.4179 4.75 10.25 4.58211 10.25 4.375V2.28033L7.14017 5.39016C6.99372 5.53661 6.75628 5.53661 6.60983 5.39016C6.46339 5.24372 6.46339 5.00628 6.60983 4.85984L9.71967 1.75H7.625C7.41789 1.75 7.25 1.58211 7.25 1.375ZM5.39016 6.60986C5.53661 6.75631 5.53661 6.99375 5.39016 7.14019L2.28033 10.25H4.375C4.58211 10.25 4.75 10.4179 4.75 10.625C4.75 10.8321 4.58211 11 4.375 11H1V7.62503C1 7.41792 1.16789 7.25003 1.375 7.25003C1.58211 7.25003 1.75 7.41792 1.75 7.62503V9.7197L4.85984 6.60986C5.00628 6.46342 5.24372 6.46342 5.39016 6.60986Z" fill="#0E1011"/>
</svg>
