<svg viewBox="0 0 12 12" fill="none" xmlns="http://www.w3.org/2000/svg">
<path fill-rule="evenodd" clip-rule="evenodd" d="M7.2045 10.6402C7.05805 10.4937 7.05805 10.2563 7.2045 10.1098L9.56433 7.75H4.09467C2.43781 7.75 1.09467 6.40685 1.09467 4.75V1.375C1.09467 1.16789 1.26256 1 1.46967 1C1.67677 1 1.84467 1.16789 1.84467 1.375V4.75C1.84467 5.99264 2.85202 7 4.09467 7H9.56433L7.2045 4.64016C7.05805 4.49372 7.05805 4.25628 7.2045 4.10983C7.35095 3.96339 7.58838 3.96339 7.73483 4.10983L11 7.375L7.73483 10.6402C7.58838 10.7866 7.35095 10.7866 7.2045 10.6402Z" fill="#0E1011"/>
</svg>
