<svg viewBox="0 0 12 12" fill="none" xmlns="http://www.w3.org/2000/svg">
<path fill-rule="evenodd" clip-rule="evenodd" d="M3.15 3.4999V5.04095C2.49039 5.19861 2 5.79199 2 6.4999V10.4999C2 11.3283 2.67157 11.9999 3.5 11.9999H9.5C10.3284 11.9999 11 11.3283 11 10.4999V6.4999C11 5.79199 10.5096 5.19861 9.85 5.04095V3.4999C9.85 1.64975 8.35015 0.149902 6.5 0.149902C4.64985 0.149902 3.15 1.64975 3.15 3.4999ZM6.5 0.849902C5.03645 0.849902 3.85 2.03635 3.85 3.4999V4.9999H9.15V3.4999C9.15 2.03635 7.96355 0.849902 6.5 0.849902ZM6.5 9.49991C7.05228 9.49991 7.5 9.05219 7.5 8.49991C7.5 7.94762 7.05228 7.49991 6.5 7.49991C5.94772 7.49991 5.5 7.94762 5.5 8.49991C5.5 9.05219 5.94772 9.49991 6.5 9.49991Z" fill="#0E1011"/>
</svg>
