<svg viewBox="0 0 16 16" fill="none" xmlns="http://www.w3.org/2000/svg">
<path fill-rule="evenodd" clip-rule="evenodd" d="M7.69134 2.03807C7.87818 2.11547 8 2.29778 8 2.50001V13.5C8 13.7022 7.87818 13.8846 7.69134 13.962C7.5045 14.0393 7.28945 13.9966 7.14645 13.8536L4.29289 11H1.25C0.559644 11 0 10.4404 0 9.75001V6.25001C0 5.55966 0.559644 5.00001 1.25 5.00001H4.29289L7.14645 2.14646C7.28945 2.00346 7.5045 1.96068 7.69134 2.03807ZM7 3.70712L4.85355 5.85357C4.75979 5.94734 4.63261 6.00001 4.5 6.00001H1.25C1.11193 6.00001 1 6.11194 1 6.25001V9.75001C1 9.88809 1.11193 10 1.25 10H4.5C4.63261 10 4.75979 10.0527 4.85355 10.1465L7 12.2929V3.70712ZM10.1464 10.1465C11.3319 8.96101 11.3319 7.03902 10.1464 5.85357L10.8536 5.14646C12.4295 6.72244 12.4295 9.27759 10.8536 10.8536L10.1464 10.1465Z" fill="#0E1011"/>
</svg>
