<svg viewBox="0 0 12 12" fill="none" xmlns="http://www.w3.org/2000/svg">
<path fill-rule="evenodd" clip-rule="evenodd" d="M2.6367 1.32296C3.51021 1.12138 4.69914 1 6 1C7.30086 1 8.48979 1.12138 9.3633 1.32296C9.7972 1.42309 10.173 1.5474 10.4491 1.69801C10.5869 1.77321 10.7167 1.86393 10.8158 1.97569C10.9168 2.08967 11 2.24269 11 2.42857C11 2.49322 10.9899 2.5539 10.9726 2.61034L11 2.63778V5.64286C11 5.80678 10.9519 5.95362 10.8743 6.08356L11 6.20921V9.21429C11 9.58055 10.7597 9.86155 10.4881 10.0592C10.2086 10.2625 9.82721 10.4307 9.38803 10.5658C8.50528 10.8374 7.30751 11 6 11C4.69249 11 3.49472 10.8374 2.61197 10.5658C2.17279 10.4307 1.79136 10.2625 1.5119 10.0592C1.24026 9.86155 1 9.58055 1 9.21429V6.20921L1.12565 6.08356C1.04813 5.95362 1 5.80678 1 5.64286V2.63778L1.02744 2.61034C1.01006 2.5539 1 2.49322 1 2.42857C1 2.24269 1.08318 2.08967 1.18425 1.97569C1.28335 1.86393 1.41311 1.77321 1.55095 1.69801C1.82698 1.5474 2.2028 1.42309 2.6367 1.32296ZM1.73966 2.42857C1.76915 2.45542 1.81774 2.49101 1.89306 2.5321C2.0869 2.63787 2.39102 2.74443 2.79731 2.83819C3.60418 3.02439 4.73668 3.14286 6 3.14286C7.26332 3.14286 8.39582 3.02439 9.20269 2.83819C9.60898 2.74443 9.9131 2.63787 10.1069 2.5321C10.1823 2.49101 10.2308 2.45542 10.2603 2.42857C10.2308 2.40172 10.1823 2.36613 10.1069 2.32504C9.9131 2.21928 9.60898 2.11271 9.20269 2.01895C8.39582 1.83275 7.26332 1.71429 6 1.71429C4.73668 1.71429 3.60418 1.83275 2.79731 2.01895C2.39102 2.11271 2.0869 2.21928 1.89306 2.32504C1.81774 2.36613 1.76915 2.40173 1.73966 2.42857ZM1.71429 6.61893V9.21429C1.71429 9.24251 1.73386 9.33733 1.9321 9.48154C2.12252 9.62007 2.42103 9.7597 2.82203 9.88309C3.61967 10.1285 4.74333 10.2857 6 10.2857C7.25667 10.2857 8.38033 10.1285 9.17797 9.88309C9.57897 9.7597 9.87748 9.62007 10.0679 9.48154C10.2661 9.33733 10.2857 9.24251 10.2857 9.21429V6.61893C10.0351 6.76463 9.72896 6.88946 9.38803 6.99436C8.50528 7.26597 7.30751 7.42857 6 7.42857C4.69249 7.42857 3.49472 7.26597 2.61197 6.99436C2.27104 6.88946 1.96492 6.76463 1.71429 6.61893ZM9.3633 3.53418C9.71686 3.45259 10.0318 3.35495 10.2857 3.24011V5.64286C10.2857 5.67108 10.2661 5.7659 10.0679 5.91011C9.87748 6.04864 9.57897 6.18827 9.17797 6.31166C8.38033 6.55709 7.25667 6.71429 6 6.71429C4.74333 6.71429 3.61967 6.55709 2.82203 6.31166C2.42103 6.18827 2.12252 6.04864 1.9321 5.91011C1.73386 5.7659 1.71429 5.67108 1.71429 5.64286V3.24011C1.96815 3.35495 2.28314 3.45259 2.6367 3.53418C3.51021 3.73576 4.69914 3.85714 6 3.85714C7.30086 3.85714 8.48979 3.73576 9.3633 3.53418Z" fill="#0E1011"/>
</svg>
