<svg viewBox="0 0 16 16" fill="none" xmlns="http://www.w3.org/2000/svg">
<path fill-rule="evenodd" clip-rule="evenodd" d="M15.2943 8.00004C15.2943 12.0314 12.0262 15.2995 7.99479 15.2995C3.9634 15.2995 0.695312 12.0314 0.695312 8.00004C0.695312 3.96865 3.9634 0.700562 7.99479 0.700562C12.0262 0.700562 15.2943 3.96865 15.2943 8.00004ZM12.0844 12.7917C10.984 13.7318 9.55567 14.2995 7.99479 14.2995C4.51569 14.2995 1.69531 11.4791 1.69531 8.00004C1.69531 6.43917 2.263 5.01088 3.20316 3.91039L12.0844 12.7917ZM12.7911 12.0842L3.91068 3.20369C5.01042 2.26635 6.43653 1.70056 7.99479 1.70056C11.4739 1.70056 14.2943 4.52094 14.2943 8.00004C14.2943 9.5583 13.7285 10.9844 12.7911 12.0842Z" fill="#0E1011"/>
</svg>
