<svg viewBox="0 0 12 12" fill="none" xmlns="http://www.w3.org/2000/svg">
<path fill-rule="evenodd" clip-rule="evenodd" d="M0.379269 0C0.169804 0 0 0.179086 0 0.4C0 0.620914 0.169804 0.8 0.379269 0.8H1.60022L3.13746 7.28507C3.34851 8.17541 4.10701 8.8 4.97719 8.8H9.71364C10.6406 8.8 11.4318 8.09317 11.5842 7.1288L11.9842 4.59728C12.0998 3.86584 11.565 3.2 10.8619 3.2H2.95101L2.33611 0.605972C2.25169 0.249838 1.94829 0 1.60022 0H0.379269ZM3.87335 7.09104L3.14064 4H10.8619C11.0963 4 11.2745 4.22195 11.236 4.46576L10.836 6.99728C10.7445 7.5759 10.2698 8 9.71364 8H4.97719C4.45508 8 3.99998 7.62524 3.87335 7.09104Z" fill="#0E1011"/>
<path fill-rule="evenodd" clip-rule="evenodd" d="M4.9305 9.6C4.3021 9.6 3.79269 10.1373 3.79269 10.8C3.79269 11.4627 4.3021 12 4.9305 12C5.55889 12 6.0683 11.4627 6.0683 10.8C6.0683 10.1373 5.55889 9.6 4.9305 9.6ZM4.55123 10.8C4.55123 10.5791 4.72103 10.4 4.9305 10.4C5.13996 10.4 5.30976 10.5791 5.30976 10.8C5.30976 11.0209 5.13996 11.2 4.9305 11.2C4.72103 11.2 4.55123 11.0209 4.55123 10.8Z" fill="#0E1011"/>
<path fill-rule="evenodd" clip-rule="evenodd" d="M9.48172 9.6C8.85333 9.6 8.34392 10.1373 8.34392 10.8C8.34392 11.4627 8.85333 12 9.48172 12C10.1101 12 10.6195 11.4627 10.6195 10.8C10.6195 10.1373 10.1101 9.6 9.48172 9.6ZM9.10245 10.8C9.10245 10.5791 9.27226 10.4 9.48172 10.4C9.69119 10.4 9.86099 10.5791 9.86099 10.8C9.86099 11.0209 9.69119 11.2 9.48172 11.2C9.27226 11.2 9.10245 11.0209 9.10245 10.8Z" fill="#0E1011"/>
</svg>
