<svg viewBox="0 0 12 12" fill="none" xmlns="http://www.w3.org/2000/svg">
<path fill-rule="evenodd" clip-rule="evenodd" d="M12 6C12 9.31371 9.31371 12 6 12C2.68629 12 0 9.31371 0 6C0 2.68629 2.68629 0 6 0C9.31371 0 12 2.68629 12 6ZM3.9375 6C3.9375 6.51777 3.51777 6.9375 3 6.9375C2.48223 6.9375 2.0625 6.51777 2.0625 6C2.0625 5.48223 2.48223 5.0625 3 5.0625C3.51777 5.0625 3.9375 5.48223 3.9375 6ZM6 6.9375C6.51777 6.9375 6.9375 6.51777 6.9375 6C6.9375 5.48223 6.51777 5.0625 6 5.0625C5.48223 5.0625 5.0625 5.48223 5.0625 6C5.0625 6.51777 5.48223 6.9375 6 6.9375ZM9 6.9375C9.51777 6.9375 9.9375 6.51777 9.9375 6C9.9375 5.48223 9.51777 5.0625 9 5.0625C8.48223 5.0625 8.0625 5.48223 8.0625 6C8.0625 6.51777 8.48223 6.9375 9 6.9375Z" fill="#0E1011"/>
</svg>
