<svg viewBox="0 0 16 16" fill="none" xmlns="http://www.w3.org/2000/svg">
<path fill-rule="evenodd" clip-rule="evenodd" d="M1.5 3.5C1.5 3.22386 1.72386 3 2 3H14C14.2761 3 14.5 3.22386 14.5 3.5C14.5 3.77614 14.2761 4 14 4H2C1.72386 4 1.5 3.77614 1.5 3.5ZM1.5 6.50001C1.5 6.22387 1.72386 6.00001 2 6.00001H14C14.2761 6.00001 14.5 6.22387 14.5 6.50001C14.5 6.77615 14.2761 7.00001 14 7.00001H2C1.72386 7.00001 1.5 6.77615 1.5 6.50001ZM1.5 9.49999C1.5 9.22385 1.72386 8.99999 2 8.99999H14C14.2761 8.99999 14.5 9.22385 14.5 9.49999C14.5 9.77613 14.2761 9.99999 14 9.99999H2C1.72386 9.99999 1.5 9.77613 1.5 9.49999ZM1.5 12.5C1.5 12.2239 1.72386 12 2 12H14C14.2761 12 14.5 12.2239 14.5 12.5C14.5 12.7761 14.2761 13 14 13H2C1.72386 13 1.5 12.7761 1.5 12.5Z" fill="#0E1011"/>
</svg>
