<svg viewBox="0 0 12 12" fill="none" xmlns="http://www.w3.org/2000/svg">
<path d="M1.5 3.125C1.29289 3.125 1.125 3.29289 1.125 3.5C1.125 3.70711 1.29289 3.875 1.5 3.875H10.5C10.7071 3.875 10.875 3.70711 10.875 3.5C10.875 3.29289 10.7071 3.125 10.5 3.125H1.5Z" fill="#0E1011"/>
<path d="M3.125 5.5C3.125 5.29289 3.29289 5.125 3.5 5.125H8.5C8.70711 5.125 8.875 5.29289 8.875 5.5C8.875 5.70711 8.70711 5.875 8.5 5.875H3.5C3.29289 5.875 3.125 5.70711 3.125 5.5Z" fill="#0E1011"/>
<path d="M1.5 7.125C1.29289 7.125 1.125 7.29289 1.125 7.5C1.125 7.70711 1.29289 7.875 1.5 7.875H10.5C10.7071 7.875 10.875 7.70711 10.875 7.5C10.875 7.29289 10.7071 7.125 10.5 7.125H1.5Z" fill="#0E1011"/>
<path d="M2.5 9.125C2.29289 9.125 2.125 9.29289 2.125 9.5C2.125 9.70711 2.29289 9.875 2.5 9.875H9.5C9.70711 9.875 9.875 9.70711 9.875 9.5C9.875 9.29289 9.70711 9.125 9.5 9.125H2.5Z" fill="#0E1011"/>
</svg>
