<svg viewBox="0 0 16 16" fill="none" xmlns="http://www.w3.org/2000/svg">
<path fill-rule="evenodd" clip-rule="evenodd" d="M1.06722 8C1.14677 8.1423 1.26539 8.34558 1.42175 8.5897C1.74045 9.08728 2.21263 9.74939 2.82641 10.4095C4.06339 11.74 5.81502 13 8 13C10.185 13 11.9366 11.74 13.1736 10.4095C13.7874 9.74939 14.2596 9.08728 14.5782 8.5897C14.7346 8.34558 14.8532 8.1423 14.9328 8C14.8532 7.8577 14.7346 7.65442 14.5782 7.4103C14.2596 6.91272 13.7874 6.25061 13.1736 5.59046C11.9366 4.26001 10.185 3 8 3C5.81502 3 4.06339 4.26001 2.82641 5.59046C2.21263 6.25061 1.74045 6.91272 1.42175 7.4103C1.26539 7.65442 1.14677 7.8577 1.06722 8ZM15.5 8C15.948 7.77788 15.9479 7.7777 15.9478 7.77751L15.9468 7.77565L15.9447 7.77142L15.9375 7.75711C15.9313 7.745 15.9224 7.72781 15.9109 7.70589C15.8879 7.66204 15.8543 7.5992 15.8101 7.52008C15.7219 7.36191 15.5915 7.13827 15.4203 6.87095C15.0785 6.33728 14.5706 5.62439 13.906 4.90954C12.5861 3.48999 10.5878 2 8 2C5.41225 2 3.41388 3.48999 2.09405 4.90954C1.42942 5.62439 0.921485 6.33728 0.579669 6.87095C0.40845 7.13827 0.278092 7.36191 0.189857 7.52008C0.14572 7.5992 0.112067 7.66204 0.0890571 7.70589C0.0775506 7.72781 0.0687005 7.745 0.0625269 7.75711L0.0552746 7.77142L0.0531574 7.77565L0.0524767 7.77701C0.0523802 7.77721 0.0520484 7.77788 0.5 8L0.0524767 7.77701C-0.0169212 7.91697 -0.0173495 8.08217 0.0520484 8.22212L0.5 8C0.0520484 8.22212 0.0519518 8.22193 0.0520484 8.22212L0.0531574 8.22435L0.0552746 8.22858L0.0625269 8.24289C0.0687005 8.255 0.0775506 8.27219 0.0890571 8.29411C0.112067 8.33796 0.14572 8.4008 0.189857 8.47992C0.278092 8.63809 0.40845 8.86173 0.579669 9.12905C0.921485 9.66272 1.42942 10.3756 2.09405 11.0905C3.41388 12.51 5.41225 14 8 14C10.5878 14 12.5861 12.51 13.906 11.0905C14.5706 10.3756 15.0785 9.66272 15.4203 9.12905C15.5915 8.86173 15.7219 8.63809 15.8101 8.47992C15.8543 8.4008 15.8879 8.33796 15.9109 8.29411C15.9224 8.27219 15.9313 8.255 15.9375 8.24289L15.9447 8.22858L15.9468 8.22435L15.9478 8.22249C15.9479 8.2223 15.948 8.22212 15.5 8ZM15.5 8L15.9478 8.22249C16.0172 8.08254 16.0172 7.91746 15.9478 7.77751L15.5 8ZM8 6.04C6.89543 6.04 6 6.93543 6 8.04C6 9.14457 6.89543 10.04 8 10.04C9.10457 10.04 10 9.14457 10 8.04C10 6.93543 9.10457 6.04 8 6.04ZM5 8.04C5 6.38315 6.34315 5.04 8 5.04C9.65685 5.04 11 6.38315 11 8.04C11 9.69686 9.65685 11.04 8 11.04C6.34315 11.04 5 9.69686 5 8.04Z" fill="#0E1011"/>
</svg>
