<svg viewBox="0 0 16 16" fill="none" xmlns="http://www.w3.org/2000/svg">
<path d="M0.493611 12C0.220997 12 0 11.7761 0 11.5C0 11.2239 0.220997 11 0.493611 11H2.43297C2.95663 11 3.45884 10.7893 3.82911 10.4142L5.08068 9.14645C5.27345 8.95118 5.58599 8.95118 5.77875 9.14645C5.97152 9.34171 5.97152 9.65829 5.77875 9.85355L4.52719 11.1213C3.97177 11.6839 3.21846 12 2.43297 12H0.493611Z" fill="#0E1011"/>
<path d="M8.74042 6.85355C8.54765 7.04882 8.23511 7.04882 8.04234 6.85355C7.84958 6.65829 7.84958 6.34171 8.04234 6.14645L9.29391 4.87868C9.84933 4.31607 10.6026 4 11.3881 4H14.1102L12.9785 2.85355C12.7857 2.65829 12.7857 2.34171 12.9785 2.14645C13.1712 1.95118 13.4838 1.95118 13.6765 2.14645L16 4.5L13.6765 6.85355C13.4838 7.04882 13.1712 7.04882 12.9785 6.85355C12.7857 6.65829 12.7857 6.34171 12.9785 6.14645L14.1102 5H11.3881C10.8645 5 10.3623 5.21071 9.99198 5.58579L8.74042 6.85355Z" fill="#0E1011"/>
<path d="M0.493611 4C0.220997 4 0 4.22386 0 4.5C0 4.77614 0.220997 5 0.493611 5H2.43297C2.95663 5 3.45883 5.21071 3.82911 5.58579L9.29391 11.1213C9.84933 11.6839 10.6026 12 11.3881 12H14.1102L12.9785 13.1464C12.7857 13.3417 12.7857 13.6583 12.9785 13.8536C13.1712 14.0488 13.4838 14.0488 13.6765 13.8536L16 11.5L13.6765 9.14645C13.4838 8.95118 13.1712 8.95118 12.9785 9.14645C12.7857 9.34171 12.7857 9.65829 12.9785 9.85355L14.1102 11H11.3881C10.8645 11 10.3623 10.7893 9.99198 10.4142L4.52719 4.87868C3.97177 4.31607 3.21846 4 2.43297 4H0.493611Z" fill="#0E1011"/>
</svg>
