<svg viewBox="0 0 12 12" fill="none" xmlns="http://www.w3.org/2000/svg">
<path d="M2.07633 3.80863C1.9016 3.69744 1.66982 3.74894 1.55863 3.92367C1.44744 4.0984 1.49894 4.33018 1.67367 4.44137L6.00289 7.19633L10.215 4.43874C10.3883 4.3253 10.4368 4.09288 10.3234 3.9196C10.2099 3.74632 9.97749 3.69782 9.80422 3.81126L5.99712 6.30367L2.07633 3.80863Z" fill="#0E1011"/>
<path fill-rule="evenodd" clip-rule="evenodd" d="M1.875 1.25C0.839467 1.25 9.53674e-07 2.08947 9.53674e-07 3.125L0 8.875C0 9.91053 0.839466 10.75 1.875 10.75H10.125C11.1605 10.75 12 9.91053 12 8.875L12 3.125C12 2.08947 11.1605 1.25 10.125 1.25H1.875ZM0.750001 3.125C0.750001 2.50368 1.25368 2 1.875 2H10.125C10.7463 2 11.25 2.50368 11.25 3.125L11.25 8.875C11.25 9.49632 10.7463 10 10.125 10H1.875C1.25368 10 0.75 9.49632 0.75 8.875L0.750001 3.125Z" fill="#0E1011"/>
</svg>
