<svg viewBox="0 0 12 12" fill="none" xmlns="http://www.w3.org/2000/svg">
<path fill-rule="evenodd" clip-rule="evenodd" d="M9.3295 0.640052C9.76884 0.200712 10.4812 0.200712 10.9205 0.640052L11.3598 1.07939C11.7992 1.51873 11.7992 2.23104 11.3598 2.67038L2.89017 11.1401C2.81984 11.2104 2.72446 11.2499 2.625 11.2499H1.125C0.917893 11.2499 0.75 11.082 0.75 10.8749V9.37489C0.75 9.27543 0.789509 9.18005 0.859835 9.10972L9.3295 0.640052ZM10.3902 1.17038C10.2437 1.02394 10.0063 1.02394 9.85984 1.17038L8.40533 2.62489L9.375 3.59456L10.8295 2.14005C10.976 1.9936 10.976 1.75617 10.8295 1.60972L10.3902 1.17038ZM8.84467 4.12489L7.875 3.15522L1.5 9.53022V10.4999H2.46967L8.84467 4.12489Z" fill="#0E1011"/>
</svg>
