<svg viewBox="0 0 16 16" fill="none" xmlns="http://www.w3.org/2000/svg">
<path d="M5 7.99997C5 7.72383 5.22386 7.49997 5.5 7.49997H10.5C10.7761 7.49997 11 7.72383 11 7.99997C11 8.27611 10.7761 8.49997 10.5 8.49997H5.5C5.22386 8.49997 5 8.27611 5 7.99997Z" fill="#0E1011"/>
<path fill-rule="evenodd" clip-rule="evenodd" d="M1 3.49988C1 2.11917 2.11929 0.999878 3.5 0.999878H12.5C13.8807 0.999878 15 2.11917 15 3.49988V12.4999C15 13.8806 13.8807 14.9999 12.5 14.9999H3.5C2.11929 14.9999 1 13.8806 1 12.4999V3.49988ZM3.5 1.99988H12.5C13.3284 1.99988 14 2.67145 14 3.49988V12.4999C14 13.3283 13.3284 13.9999 12.5 13.9999H3.5C2.67157 13.9999 2 13.3283 2 12.4999V3.49988C2 2.67145 2.67157 1.99988 3.5 1.99988Z" fill="#0E1011"/>
</svg>
