<svg viewBox="0 0 16 16" fill="none" xmlns="http://www.w3.org/2000/svg">
<path fill-rule="evenodd" clip-rule="evenodd" d="M10 0.5C10 0.223858 10.2239 0 10.5 0H16V5.5C16 5.77614 15.7761 6 15.5 6C15.2239 6 15 5.77614 15 5.5V1.70711L7.85355 8.85355C7.65829 9.04882 7.34171 9.04882 7.14645 8.85355C6.95118 8.65829 6.95118 8.34171 7.14645 8.14645L14.2929 1H10.5C10.2239 1 10 0.776142 10 0.5ZM1 4.25C1 3.00736 2.00736 2 3.25 2H7.5C7.77614 2 8 2.22386 8 2.5C8 2.77614 7.77614 3 7.5 3H3.25C2.55964 3 2 3.55964 2 4.25V12.75C2 13.4404 2.55964 14 3.25 14H11.75C12.4404 14 13 13.4404 13 12.75V8.5C13 8.22386 13.2239 8 13.5 8C13.7761 8 14 8.22386 14 8.5V12.75C14 13.9926 12.9926 15 11.75 15H3.25C2.00736 15 1 13.9926 1 12.75V4.25Z" fill="#0E1011"/>
</svg>
