<svg viewBox="0 0 16 16" fill="none" xmlns="http://www.w3.org/2000/svg">
<path d="M4.85355 11.8536C4.65829 12.0488 4.34171 12.0488 4.14645 11.8536C3.95118 11.6583 3.95118 11.3417 4.14645 11.1464L7.64645 7.64645C7.84171 7.45118 8.15829 7.45118 8.35355 7.64645L11.8536 11.1464C12.0488 11.3417 12.0488 11.6583 11.8536 11.8536C11.6583 12.0488 11.3417 12.0488 11.1464 11.8536L8 8.70711L4.85355 11.8536Z" fill="#0E1011"/>
<path d="M4.85355 7.85355C4.65829 8.04882 4.34171 8.04882 4.14645 7.85355C3.95118 7.65829 3.95118 7.34171 4.14645 7.14645L7.64645 3.64645C7.84171 3.45118 8.15829 3.45118 8.35355 3.64645L11.8536 7.14645C12.0488 7.34171 12.0488 7.65829 11.8536 7.85355C11.6583 8.04882 11.3417 8.04882 11.1464 7.85355L8 4.70711L4.85355 7.85355Z" fill="#0E1011"/>
</svg>
