<svg viewBox="0 0 12 12" fill="none" xmlns="http://www.w3.org/2000/svg">
<path d="M6.375 2.18566V8.78033C6.375 8.98744 6.20711 9.15533 6 9.15533C5.79289 9.15533 5.625 8.98744 5.625 8.78033V2.18566L4.01516 3.7955C3.86872 3.94194 3.63128 3.94194 3.48484 3.7955C3.33839 3.64905 3.33839 3.41161 3.48484 3.26516L6 0.75L8.51517 3.26516C8.66161 3.41161 8.66161 3.64905 8.51517 3.7955C8.36872 3.94194 8.13128 3.94194 7.98483 3.7955L6.375 2.18566Z" fill="#0E1011"/>
<path d="M1.75 7.875C1.75 7.66789 1.58211 7.5 1.375 7.5C1.16789 7.5 1 7.66789 1 7.875V10.0625C1 10.5803 1.41973 11 1.9375 11H10.0625C10.5803 11 11 10.5803 11 10.0625V7.625C11 7.41789 10.8321 7.25 10.625 7.25C10.4179 7.25 10.25 7.41789 10.25 7.625V10.0625C10.25 10.1661 10.1661 10.25 10.0625 10.25H1.9375C1.83395 10.25 1.75 10.1661 1.75 10.0625V7.875Z" fill="#0E1011"/>
</svg>
