<svg viewBox="0 0 12 12" fill="none" xmlns="http://www.w3.org/2000/svg">
<path d="M1.08326 1.75C1.08326 1.33579 1.41904 1 1.83326 1C3.03704 1 4.22904 1.2371 5.34119 1.69777C6.45334 2.15844 7.46387 2.83365 8.31507 3.68485C9.16627 4.53606 9.84149 5.54658 10.3022 6.65873C10.7628 7.77089 10.9999 8.96288 10.9999 10.1667C10.9999 10.5809 10.6641 10.9167 10.2499 10.9167C9.83571 10.9167 9.49992 10.5809 9.49992 10.1667C9.49992 9.15987 9.30162 8.16292 8.91634 7.23276C8.53105 6.3026 7.96633 5.45743 7.25441 4.74551C6.54249 4.0336 5.69733 3.46888 4.76716 3.08359C3.837 2.6983 2.84006 2.5 1.83326 2.5C1.41904 2.5 1.08326 2.16421 1.08326 1.75Z" fill="#0E1011"/>
<path d="M1.08341 5.9167C1.08341 5.50249 1.41919 5.1667 1.83341 5.1667C2.49002 5.1667 3.1402 5.29603 3.74682 5.54731C4.35345 5.79858 4.90465 6.16688 5.36894 6.63117C5.83323 7.09546 6.20153 7.64666 6.45281 8.25329C6.70408 8.85991 6.83341 9.51009 6.83341 10.1667C6.83341 10.5809 6.49762 10.9167 6.08341 10.9167C5.66919 10.9167 5.33341 10.5809 5.33341 10.1667C5.33341 9.70708 5.24288 9.25195 5.06699 8.82731C4.89109 8.40267 4.63329 8.01684 4.30828 7.69183C3.98328 7.36683 3.59744 7.10902 3.1728 6.93313C2.74816 6.75723 2.29303 6.6667 1.83341 6.6667C1.41919 6.6667 1.08341 6.33092 1.08341 5.9167Z" fill="#0E1011"/>
<path d="M1.83333 11C2.29357 11 2.66667 10.6269 2.66667 10.1666C2.66667 9.70639 2.29357 9.3333 1.83333 9.3333C1.3731 9.3333 1 9.70639 1 10.1666C1 10.6269 1.3731 11 1.83333 11Z" fill="#0E1011"/>
</svg>
