<svg viewBox="0 0 12 12" fill="none" xmlns="http://www.w3.org/2000/svg">
<path fill-rule="evenodd" clip-rule="evenodd" d="M4.5 1.5C4.5 0.671573 5.17157 0 6 0C6.82843 0 7.5 0.671573 7.5 1.5V6.40143C8.39611 6.91977 9 7.88904 9 9C9 10.6569 7.65685 12 6 12C4.34315 12 3 10.6569 3 9C3 7.88904 3.60389 6.91977 4.5 6.40143V1.5ZM6.1875 3.375C6.1875 3.27145 6.10355 3.1875 6 3.1875C5.89645 3.1875 5.8125 3.27145 5.8125 3.375V7.51161C5.07257 7.60387 4.5 8.23507 4.5 9C4.5 9.82843 5.17157 10.5 6 10.5C6.82843 10.5 7.5 9.82843 7.5 9C7.5 8.23507 6.92743 7.60387 6.1875 7.51161V3.375Z" fill="#0E1011"/>
<path d="M8.0625 1.78125C7.90717 1.78125 7.78125 1.90717 7.78125 2.0625C7.78125 2.21783 7.90717 2.34375 8.0625 2.34375H9.1875C9.34283 2.34375 9.46875 2.21783 9.46875 2.0625C9.46875 1.90717 9.34283 1.78125 9.1875 1.78125H8.0625Z" fill="#0E1011"/>
<path d="M8.0625 3.28125C7.90717 3.28125 7.78125 3.40717 7.78125 3.5625C7.78125 3.71783 7.90717 3.84375 8.0625 3.84375H9.1875C9.34283 3.84375 9.46875 3.71783 9.46875 3.5625C9.46875 3.40717 9.34283 3.28125 9.1875 3.28125H8.0625Z" fill="#0E1011"/>
<path d="M8.0625 4.78125C7.90717 4.78125 7.78125 4.90717 7.78125 5.0625C7.78125 5.21783 7.90717 5.34375 8.0625 5.34375H9.1875C9.34283 5.34375 9.46875 5.21783 9.46875 5.0625C9.46875 4.90717 9.34283 4.78125 9.1875 4.78125H8.0625Z" fill="#0E1011"/>
</svg>
