<svg viewBox="0 0 12 12" fill="none" xmlns="http://www.w3.org/2000/svg">
<path d="M9.10968 4.46682C9.24915 4.32735 9.24915 4.10122 9.10968 3.96175C8.97021 3.82227 8.74408 3.82227 8.6046 3.96175L5.28571 7.28064L3.75254 5.74746C3.61307 5.60799 3.38693 5.60799 3.24746 5.74746C3.10799 5.88693 3.10799 6.11307 3.24746 6.25254L5.03318 8.03825C5.17265 8.17773 5.39878 8.17773 5.53825 8.03825L9.10968 4.46682Z" fill="#0E1011"/>
<path fill-rule="evenodd" clip-rule="evenodd" d="M2.60714 1C1.71954 1 1 1.71954 1 2.60714V9.39286C1 10.2805 1.71954 11 2.60714 11H9.39286C10.2805 11 11 10.2805 11 9.39286V2.60714C11 1.71954 10.2805 1 9.39286 1H2.60714ZM1.71429 2.60714C1.71429 2.11403 2.11403 1.71429 2.60714 1.71429H9.39286C9.88597 1.71429 10.2857 2.11403 10.2857 2.60714V9.39286C10.2857 9.88597 9.88597 10.2857 9.39286 10.2857H2.60714C2.11403 10.2857 1.71429 9.88597 1.71429 9.39286V2.60714Z" fill="#0E1011"/>
</svg>
