<svg viewBox="0 0 16 16" fill="none" xmlns="http://www.w3.org/2000/svg">
<path d="M11.3536 7.64653C11.1583 7.45127 10.8417 7.45127 10.6464 7.64653L8.5 9.79298L8.5 5.00008C8.5 4.72394 8.27614 4.50008 8 4.50008C7.72386 4.50008 7.5 4.72394 7.5 5.00008L7.5 9.79298L5.35355 7.64653C5.15829 7.45127 4.84171 7.45127 4.64645 7.64653C4.45118 7.84179 4.45118 8.15838 4.64645 8.35364L7.64645 11.3536C7.74022 11.4474 7.86739 11.5001 8 11.5001C8.13261 11.5001 8.25979 11.4474 8.35355 11.3536L11.3536 8.35364C11.5488 8.15838 11.5488 7.84179 11.3536 7.64653Z" fill="#0E1011"/>
<path fill-rule="evenodd" clip-rule="evenodd" d="M15.2943 8.00016C15.2943 3.96877 12.0262 0.700684 7.99479 0.700684C3.9634 0.700684 0.695312 3.96877 0.695312 8.00016C0.695312 12.0316 3.9634 15.2996 7.99479 15.2996C12.0262 15.2996 15.2943 12.0316 15.2943 8.00016ZM14.2943 8.00016C14.2943 4.52106 11.4739 1.70068 7.99479 1.70068C4.51569 1.70068 1.69531 4.52106 1.69531 8.00016C1.69531 11.4793 4.51569 14.2996 7.99479 14.2996C11.4739 14.2996 14.2943 11.4793 14.2943 8.00016Z" fill="#0E1011"/>
</svg>
