<svg viewBox="0 0 12 12" fill="none" xmlns="http://www.w3.org/2000/svg">
<path d="M8.62477 0C8.41767 0 8.24977 0.167893 8.24977 0.375C8.24977 0.582107 8.41767 0.75 8.62477 0.75H10.7194L7.60961 3.85984C7.46316 4.00628 7.46316 4.24372 7.60961 4.39017C7.75605 4.53661 7.99349 4.53661 8.13994 4.39017L11.2498 1.28033V3.375C11.2498 3.58211 11.4177 3.75 11.6248 3.75C11.8319 3.75 11.9998 3.58211 11.9998 3.375V0H8.62477Z" fill="#0E1011"/>
<path d="M11.2497 9.75C11.2497 10.5784 10.5748 11.2613 9.75464 11.1444C8.39079 10.9499 7.11141 10.4934 5.96911 9.8275C4.44012 8.93612 3.15674 7.6695 2.24521 6.15385C1.53961 4.98063 1.05682 3.65819 0.855371 2.24508C0.738456 1.42495 1.42131 0.75 2.24974 0.75H3.74974C4.16395 0.75 4.49535 1.08681 4.54077 1.49852C4.61329 2.15587 4.78021 2.78478 5.02766 3.37141L3.8169 4.58216C3.70052 4.69855 3.67291 4.87767 3.75453 5.0206C4.54567 6.40612 5.70991 7.55108 7.11041 8.31865C7.25269 8.39663 7.42862 8.36799 7.54335 8.25326L8.76761 7.029C9.31412 7.24522 9.8956 7.39215 10.5012 7.45897C10.9129 7.50439 11.2497 7.83579 11.2497 8.25V9.75Z" fill="#0E1011"/>
</svg>
