<svg viewBox="0 0 12 12" fill="none" xmlns="http://www.w3.org/2000/svg">
<path fill-rule="evenodd" clip-rule="evenodd" d="M6 12C9.31371 12 12 9.31371 12 6C12 2.68629 9.31371 0 6 0C2.68629 0 0 2.68629 0 6C0 9.31371 2.68629 12 6 12ZM6.76868 0.543612C6.9032 0.621277 6.94929 0.793287 6.87162 0.927807L5.29635 3.65625H10.8293C10.9847 3.65625 11.1106 3.78217 11.1106 3.9375C11.1106 4.08313 10.9999 4.2029 10.8581 4.2173C10.8487 4.21826 10.8391 4.21875 10.8294 4.21875C10.8294 4.21875 10.8294 4.21875 10.8294 4.21875H7.67792L10.4439 9.00951C10.5215 9.14402 10.4754 9.31603 10.3409 9.3937C10.2989 9.41797 10.2532 9.43015 10.2078 9.43133C10.194 9.43169 10.1801 9.43102 10.1664 9.42935C10.0817 9.41901 10.0026 9.37038 9.95668 9.29076L8.38154 6.56254L5.61551 11.3534C5.56697 11.4375 5.48158 11.4871 5.39152 11.4934C5.37397 11.4947 5.35625 11.4943 5.33859 11.4922C5.30184 11.4878 5.26535 11.4761 5.23127 11.4564C5.09675 11.3787 5.05066 11.2067 5.12833 11.0722L6.7036 8.34375H1.17064C1.01531 8.34375 0.889343 8.21783 0.889343 8.0625C0.889343 7.90717 1.01526 7.78125 1.17059 7.78125H4.32203L1.55609 2.99051C1.47843 2.85599 1.52452 2.68398 1.65904 2.60632C1.70344 2.58068 1.75194 2.56853 1.79978 2.56859C1.89686 2.56871 1.99124 2.61914 2.04328 2.70926L3.6184 5.43747L6.38444 0.646557C6.43299 0.562468 6.5184 0.512937 6.60848 0.506585C6.62536 0.505392 6.64241 0.505716 6.65941 0.507614C6.69682 0.51179 6.73399 0.523588 6.76868 0.543612Z" fill="#0E1011"/>
</svg>
