<svg viewBox="0 0 12 12" fill="none" xmlns="http://www.w3.org/2000/svg">
<path fill-rule="evenodd" clip-rule="evenodd" d="M3 3.53033L0.297335 0.827665C0.150888 0.681218 0.150888 0.443782 0.297335 0.297335C0.443782 0.150888 0.681218 0.150888 0.827665 0.297335L11.7027 11.1723C11.8491 11.3188 11.8491 11.5562 11.7027 11.7027C11.5562 11.8491 11.3188 11.8491 11.1723 11.7027L8.68346 9.21379C8.11888 9.55418 7.45731 9.75 6.75 9.75H6.375V11.25H7.5C7.70711 11.25 7.875 11.4179 7.875 11.625C7.875 11.8321 7.70711 12 7.5 12H4.5C4.29289 12 4.125 11.8321 4.125 11.625C4.125 11.4179 4.29289 11.25 4.5 11.25H5.625V9.75H5.25C3.17893 9.75 1.5 8.07107 1.5 6V5.8125C1.5 5.60539 1.66789 5.4375 1.875 5.4375C2.08211 5.4375 2.25 5.60539 2.25 5.8125V6C2.25 7.65685 3.59315 9 5.25 9H6.75C7.24868 9 7.71894 8.87833 8.13272 8.66305L7.38272 7.91305C6.96894 8.12833 6.49868 8.25 6 8.25C4.34315 8.25 3 6.90685 3 5.25V3.53033ZM6.81682 7.34715C6.56361 7.44584 6.28813 7.5 6 7.5C4.75736 7.5 3.75 6.49264 3.75 5.25V4.28033L6.81682 7.34715Z" fill="#0E1011"/>
<path d="M8.73487 6.48487L8.1536 5.9036C8.21629 5.69676 8.25 5.47731 8.25 5.25V3C8.25 1.75736 7.24264 0.75 6 0.75C5.18648 0.75 4.47381 1.18174 4.0786 1.8286L3.5369 1.2869C4.07893 0.509023 4.98002 0 6 0C7.65685 0 9 1.34315 9 3V5.25C9 5.6902 8.90519 6.10826 8.73487 6.48487Z" fill="#0E1011"/>
<path d="M9.48487 7.23487L10.0439 7.7939C10.3347 7.26103 10.5 6.64982 10.5 6V5.8125C10.5 5.60539 10.3321 5.4375 10.125 5.4375C9.91789 5.4375 9.75 5.60539 9.75 5.8125V6C9.75 6.4402 9.65519 6.85826 9.48487 7.23487Z" fill="#0E1011"/>
</svg>
