<svg viewBox="0 0 12 12" fill="none" xmlns="http://www.w3.org/2000/svg">
<path fill-rule="evenodd" clip-rule="evenodd" d="M9.5 12C10.3284 12 11 11.3284 11 10.5V3.1875L7.8125 0H2.5C1.67157 0 1 0.671573 1 1.5V10.5C1 11.3284 1.67157 12 2.5 12H9.5ZM7.625 1.125C7.83211 1.125 8 1.29289 8 1.5V2.625C8 2.83211 8.16789 3 8.375 3H9.5C9.70711 3 9.875 3.16789 9.875 3.375C9.875 3.58211 9.70711 3.75 9.5 3.75H8.375C7.75368 3.75 7.25 3.24632 7.25 2.625V1.5C7.25 1.29289 7.41789 1.125 7.625 1.125ZM2.59375 4.875C2.59375 4.71967 2.71967 4.59375 2.875 4.59375H6.125C6.28033 4.59375 6.40625 4.71967 6.40625 4.875C6.40625 5.03033 6.28033 5.15625 6.125 5.15625H2.875C2.71967 5.15625 2.59375 5.03033 2.59375 4.875ZM2.59375 6.375C2.59375 6.21967 2.71967 6.09375 2.875 6.09375H9.125C9.28033 6.09375 9.40625 6.21967 9.40625 6.375C9.40625 6.53033 9.28033 6.65625 9.125 6.65625H2.875C2.71967 6.65625 2.59375 6.53033 2.59375 6.375ZM2.59375 7.875C2.59375 7.71967 2.71967 7.59375 2.875 7.59375H9.125C9.28033 7.59375 9.40625 7.71967 9.40625 7.875C9.40625 8.03033 9.28033 8.15625 9.125 8.15625H2.875C2.71967 8.15625 2.59375 8.03033 2.59375 7.875ZM2.59375 9.375C2.59375 9.21967 2.71967 9.09375 2.875 9.09375H7.625C7.78033 9.09375 7.90625 9.21967 7.90625 9.375C7.90625 9.53033 7.78033 9.65625 7.625 9.65625H2.875C2.71967 9.65625 2.59375 9.53033 2.59375 9.375Z" fill="#0E1011"/>
</svg>
