<svg viewBox="0 0 12 12" fill="none" xmlns="http://www.w3.org/2000/svg">
<path d="M6 9.25C6.69036 9.25 7.25 8.69036 7.25 8C7.25 7.30964 6.69036 6.75 6 6.75C5.30964 6.75 4.75 7.30964 4.75 8C4.75 8.69036 5.30964 9.25 6 9.25Z" fill="#0E1011"/>
<path fill-rule="evenodd" clip-rule="evenodd" d="M1 2C1 0.895431 1.89543 0 3 0H9C10.1046 0 11 0.895431 11 2V10C11 11.1046 10.1046 12 9 12H3C1.89543 12 1 11.1046 1 10V2ZM6 3.75C6.41421 3.75 6.75 3.41421 6.75 3C6.75 2.58579 6.41421 2.25 6 2.25C5.58579 2.25 5.25 2.58579 5.25 3C5.25 3.41421 5.58579 3.75 6 3.75ZM6 10C7.10457 10 8 9.10457 8 8C8 6.89543 7.10457 6 6 6C4.89543 6 4 6.89543 4 8C4 9.10457 4.89543 10 6 10Z" fill="#0E1011"/>
</svg>
