<svg viewBox="0 0 16 16" fill="none" xmlns="http://www.w3.org/2000/svg">
<path d="M9.64645 5.64645L7.64645 7.64645C7.45118 7.84171 7.45118 8.15829 7.64645 8.35355L9.14645 9.85355L9.85355 9.14645L8.70711 8L10.3536 6.35355L9.64645 5.64645Z" fill="#0E1011"/>
<path fill-rule="evenodd" clip-rule="evenodd" d="M4.99994 3.99968C4.99998 3.97645 5.00165 3.95295 5.00503 3.92929L5.38237 1.28787C5.48794 0.548893 6.12082 0 6.8673 0H9.1327C9.87918 0 10.5121 0.548895 10.6176 1.28787L10.995 3.92929C10.9984 3.95295 11 3.97645 11.0001 3.99968C12.2145 4.91189 13 6.36421 13 8C13 9.63579 12.2145 11.0881 11.0001 12.0003C11 12.0236 10.9984 12.0471 10.995 12.0707L10.6176 14.7121C10.5121 15.4511 9.87918 16 9.1327 16H6.8673C6.12082 16 5.48794 15.4511 5.38237 14.7121L5.00503 12.0707C5.00165 12.0471 4.99998 12.0236 4.99994 12.0003C3.78553 11.0881 3 9.63579 3 8C3 6.36421 3.78553 4.91189 4.99994 3.99968ZM6.37232 1.42929C6.40751 1.18296 6.61847 1 6.8673 1H9.1327C9.38153 1 9.59249 1.18296 9.62768 1.42929L9.90579 3.37603C9.31844 3.13369 8.67483 3 8 3C7.32517 3 6.68156 3.13369 6.09421 3.37603L6.37232 1.42929ZM8 13C8.67483 13 9.31844 12.8663 9.90579 12.624L9.62768 14.5707C9.59249 14.817 9.38153 15 9.1327 15H6.8673C6.61847 15 6.40751 14.817 6.37232 14.5707L6.09421 12.624C6.68156 12.8663 7.32517 13 8 13ZM4 8C4 5.79086 5.79086 4 8 4C10.2091 4 12 5.79086 12 8C12 10.2091 10.2091 12 8 12C5.79086 12 4 10.2091 4 8Z" fill="#0E1011"/>
</svg>
