<svg viewBox="0 0 12 12" fill="none" xmlns="http://www.w3.org/2000/svg">
<path d="M6.375 3.75C6.375 3.54289 6.20711 3.375 6 3.375C5.79289 3.375 5.625 3.54289 5.625 3.75L5.625 6.375C5.625 6.58211 5.79289 6.75 6 6.75C6.20711 6.75 6.375 6.58211 6.375 6.375V3.75Z" fill="#0E1011"/>
<path d="M6.375 7.87502C6.375 7.66791 6.20711 7.50002 6 7.50002C5.79289 7.50002 5.625 7.66791 5.625 7.87502V8.25002C5.625 8.45712 5.79289 8.62502 6 8.62502C6.20711 8.62502 6.375 8.45712 6.375 8.25002V7.87502Z" fill="#0E1011"/>
<path fill-rule="evenodd" clip-rule="evenodd" d="M6 12C9.31371 12 12 9.31371 12 6C12 2.68629 9.31371 0 6 0C2.68629 0 0 2.68629 0 6C0 9.31371 2.68629 12 6 12ZM11.25 6C11.25 8.8995 8.8995 11.25 6 11.25C3.1005 11.25 0.75 8.8995 0.75 6C0.75 3.1005 3.1005 0.75 6 0.75C8.8995 0.75 11.25 3.1005 11.25 6Z" fill="#0E1011"/>
</svg>
