<svg viewBox="0 0 12 12" fill="none" xmlns="http://www.w3.org/2000/svg">
<path d="M7.5 8.5C7.5 9.05228 7.05228 9.5 6.5 9.5C5.94772 9.5 5.5 9.05228 5.5 8.5C5.5 7.94772 5.94772 7.5 6.5 7.5C7.05228 7.5 7.5 7.94772 7.5 8.5Z" fill="#0E1011"/>
<path fill-rule="evenodd" clip-rule="evenodd" d="M3.875 3C3.875 1.82639 4.8264 0.875 6 0.875H7C8.1736 0.875 9.125 1.82639 9.125 3V3.5C9.125 3.70711 9.29289 3.875 9.5 3.875C9.70711 3.875 9.875 3.70711 9.875 3.5V3C9.875 1.41218 8.58782 0.125 7 0.125H6C4.41218 0.125 3.125 1.41218 3.125 3V5.04726C2.47804 5.21377 2 5.80106 2 6.5V10.5C2 11.3284 2.67157 12 3.5 12H9.5C10.3284 12 11 11.3284 11 10.5V6.5C11 5.67157 10.3284 5 9.5 5H3.875V3ZM2.75 6.5V10.5C2.75 10.9142 3.08579 11.25 3.5 11.25H9.5C9.91421 11.25 10.25 10.9142 10.25 10.5V6.5C10.25 6.08579 9.91421 5.75 9.5 5.75H3.5C3.08579 5.75 2.75 6.08579 2.75 6.5Z" fill="#0E1011"/>
</svg>
