<svg viewBox="0 0 12 12" fill="none" xmlns="http://www.w3.org/2000/svg">
<path fill-rule="evenodd" clip-rule="evenodd" d="M6 1.125C5.37868 1.125 4.875 1.62868 4.875 2.25C4.875 2.87132 5.37868 3.375 6 3.375C6.62132 3.375 7.125 2.87132 7.125 2.25C7.125 1.62868 6.62132 1.125 6 1.125ZM4.125 2.25C4.125 1.21447 4.96447 0.375 6 0.375C7.03553 0.375 7.875 1.21447 7.875 2.25C7.875 3.15711 7.23084 3.91377 6.375 4.08749V10.8625C8.59051 10.7137 10.3035 9.24827 10.4842 7.125H9.75C9.54289 7.125 9.375 6.95711 9.375 6.75C9.375 6.54289 9.54289 6.375 9.75 6.375H11.25V6.75C11.25 9.688 8.85877 11.625 6 11.625C3.14123 11.625 0.75 9.688 0.75 6.75V6.375H2.25C2.45711 6.375 2.625 6.54289 2.625 6.75C2.625 6.95711 2.45711 7.125 2.25 7.125H1.51578C1.69652 9.24827 3.40949 10.7137 5.625 10.8625V4.08749C4.76916 3.91377 4.125 3.15711 4.125 2.25Z" fill="#0E1011"/>
</svg>
