<svg viewBox="0 0 16 16" fill="none" xmlns="http://www.w3.org/2000/svg">
<path d="M4 5C4 3.34315 5.34315 2 7 2H9C10.6569 2 12 3.34315 12 5H11C11 3.89543 10.1046 3 9 3H7C5.89543 3 5 3.89543 5 5V5.0793C5 5.62712 5.22266 6.13355 5.59223 6.5H4.35761C4.12821 6.07371 4 5.58842 4 5.0793V5Z" fill="#0E1011"/>
<path d="M10.9078 9.5H12.1424C12.3718 9.92629 12.5 10.4116 12.5 10.9207V11C12.5 12.6569 11.1569 14 9.5 14H7C5.34315 14 4 12.6569 4 11H5C5 12.1046 5.89543 13 7 13H9.5C10.6046 13 11.5 12.1046 11.5 11V10.9207C11.5 10.3729 11.2773 9.86645 10.9078 9.5Z" fill="#0E1011"/>
<path d="M2.5 7.5C2.22386 7.5 2 7.72386 2 8C2 8.27614 2.22386 8.5 2.5 8.5H13.5C13.7761 8.5 14 8.27614 14 8C14 7.72386 13.7761 7.5 13.5 7.5H2.5Z" fill="#0E1011"/>
</svg>
