<svg viewBox="0 0 12 12" fill="none" xmlns="http://www.w3.org/2000/svg">
<path fill-rule="evenodd" clip-rule="evenodd" d="M3.25 0.125C2.21447 0.125 1.375 0.964466 1.375 2C1.375 2.99353 2.14775 3.80658 3.125 3.8709V8.5C3.125 8.70711 3.29289 8.875 3.5 8.875C3.70711 8.875 3.875 8.70711 3.875 8.5V5.38412C4.04794 5.51387 4.24532 5.61511 4.46122 5.67988L7.32327 6.53849C7.79912 6.68125 8.125 7.11924 8.125 7.61605V8.1291C7.14775 8.19342 6.375 9.00647 6.375 10C6.375 11.0355 7.21447 11.875 8.25 11.875H8.75C9.78553 11.875 10.625 11.0355 10.625 10C10.625 9.00647 9.85225 8.19342 8.875 8.1291V7.61605C8.875 6.78803 8.33187 6.05805 7.53878 5.82012L4.67673 4.96151C4.20088 4.81875 3.875 4.38076 3.875 3.88395V3.8709C4.85225 3.80658 5.625 2.99353 5.625 2C5.625 0.964466 4.78553 0.125 3.75 0.125H3.25ZM8.25 8.875C7.62868 8.875 7.125 9.37868 7.125 10C7.125 10.6213 7.62868 11.125 8.25 11.125H8.75C9.37132 11.125 9.875 10.6213 9.875 10C9.875 9.37868 9.37132 8.875 8.75 8.875H8.25ZM2.125 2C2.125 1.37868 2.62868 0.875 3.25 0.875H3.75C4.37132 0.875 4.875 1.37868 4.875 2C4.875 2.62132 4.37132 3.125 3.75 3.125H3.25C2.62868 3.125 2.125 2.62132 2.125 2Z" fill="#0E1011"/>
<path d="M3.875 10.5C3.875 10.2929 3.70711 10.125 3.5 10.125C3.29289 10.125 3.125 10.2929 3.125 10.5V11.5C3.125 11.7071 3.29289 11.875 3.5 11.875C3.70711 11.875 3.875 11.7071 3.875 11.5V10.5Z" fill="#0E1011"/>
</svg>
