<svg viewBox="0 0 16 16" fill="none" xmlns="http://www.w3.org/2000/svg">
<path fill-rule="evenodd" clip-rule="evenodd" d="M0 3C0 2.44771 0.447716 2 1 2H15C15.5523 2 16 2.44772 16 3V5C16 5.55228 15.5523 6 15 6V11.75C15 12.9926 13.9926 14 12.75 14H3.25C2.00736 14 1 12.9926 1 11.75V6C0.447715 6 0 5.55228 0 5V3ZM1.75 5.5C1.75 5.22386 1.97386 5 2.25 5H13.75C14.0261 5 14.25 5.22386 14.25 5.5C14.25 5.77614 14.0261 6 13.75 6H2.25C1.97386 6 1.75 5.77614 1.75 5.5ZM6.125 8.25C6.125 8.04289 6.29289 7.875 6.5 7.875H9.5C9.70711 7.875 9.875 8.04289 9.875 8.25C9.875 8.45711 9.70711 8.625 9.5 8.625H6.5C6.29289 8.625 6.125 8.45711 6.125 8.25Z" fill="#0E1011"/>
</svg>
