<svg viewBox="0 0 12 12" fill="none" xmlns="http://www.w3.org/2000/svg">
<path fill-rule="evenodd" clip-rule="evenodd" d="M8.5 11.5C8.5 11.6821 8.5487 11.8529 8.63378 12H2.5C1.67157 12 1 11.3284 1 10.5V1.5C1 0.671573 1.67157 0 2.5 0H7.8125L11 3.1875V8.5H10.5V7.5C10.5 6.94772 10.0523 6.5 9.5 6.5C8.94772 6.5 8.5 6.94772 8.5 7.5V8.5H7.5C6.94772 8.5 6.5 8.94772 6.5 9.5C6.5 10.0523 6.94772 10.5 7.5 10.5H8.5V11.5ZM8 1.5C8 1.29289 7.83211 1.125 7.625 1.125C7.41789 1.125 7.25 1.29289 7.25 1.5V2.625C7.25 3.24632 7.75368 3.75 8.375 3.75H9.5C9.70711 3.75 9.875 3.58211 9.875 3.375C9.875 3.16789 9.70711 3 9.5 3H8.375C8.16789 3 8 2.83211 8 2.625V1.5Z" fill="#0E1011"/>
<path d="M9.875 7.5C9.875 7.29289 9.70711 7.125 9.5 7.125C9.29289 7.125 9.125 7.29289 9.125 7.5V9.125H7.5C7.29289 9.125 7.125 9.29289 7.125 9.5C7.125 9.70711 7.29289 9.875 7.5 9.875H9.125V11.5C9.125 11.7071 9.29289 11.875 9.5 11.875C9.70711 11.875 9.875 11.7071 9.875 11.5V9.875H11.5C11.7071 9.875 11.875 9.70711 11.875 9.5C11.875 9.29289 11.7071 9.125 11.5 9.125H9.875V7.5Z" fill="#0E1011"/>
</svg>
