<svg viewBox="0 0 16 16" fill="none" xmlns="http://www.w3.org/2000/svg">
<path fill-rule="evenodd" clip-rule="evenodd" d="M0.146447 12.8536C0.341709 13.0488 0.658291 13.0488 0.853553 12.8536L6.5 7.20711L9.14645 9.85355C9.34171 10.0488 9.65829 10.0488 9.85355 9.85355L15 4.70711V7.5C15 7.77614 15.2239 8 15.5 8C15.7761 8 16 7.77614 16 7.5V3.5C16 3.22386 15.7761 3 15.5 3H11.5C11.2239 3 11 3.22386 11 3.5C11 3.77614 11.2239 4 11.5 4H14.2929L9.5 8.79289L6.85355 6.14645C6.65829 5.95118 6.34171 5.95118 6.14645 6.14645L0.146447 12.1464C-0.0488155 12.3417 -0.0488155 12.6583 0.146447 12.8536Z" fill="#0E1011"/>
</svg>
