<svg viewBox="0 0 16 16" fill="none" xmlns="http://www.w3.org/2000/svg">
<path d="M5 7.5C5 7.22386 5.22386 7 5.5 7H9.5C9.77614 7 10 7.22386 10 7.5C10 7.77614 9.77614 8 9.5 8H5.5C5.22386 8 5 7.77614 5 7.5Z" fill="#0E1011"/>
<path fill-rule="evenodd" clip-rule="evenodd" d="M1.25 7.5C1.25 4.04822 4.04822 1.25 7.5 1.25C10.9518 1.25 13.75 4.04822 13.75 7.5C13.75 9.0459 13.1887 10.4607 12.2589 11.5518L13.8536 13.1464C14.0488 13.3417 14.0488 13.6583 13.8536 13.8536C13.6583 14.0488 13.3417 14.0488 13.1464 13.8536L11.5518 12.2589C10.4607 13.1887 9.0459 13.75 7.5 13.75C4.04822 13.75 1.25 10.9518 1.25 7.5ZM7.5 2.25C4.60051 2.25 2.25 4.60051 2.25 7.5C2.25 10.3995 4.60051 12.75 7.5 12.75C10.3995 12.75 12.75 10.3995 12.75 7.5C12.75 4.60051 10.3995 2.25 7.5 2.25Z" fill="#0E1011"/>
</svg>
