<svg viewBox="0 0 12 12" fill="none" xmlns="http://www.w3.org/2000/svg">
<path fill-rule="evenodd" clip-rule="evenodd" d="M1.54135 1.29107C1.86336 1.13447 2.36596 1 3.14286 1C3.90946 1 4.99192 1.18232 6.03057 1.35726L6.05932 1.3621C7.13246 1.54284 8.15761 1.71429 8.85714 1.71429C9.57878 1.71429 10.0011 1.66418 10.2343 1.61882C10.3504 1.59622 10.4168 1.57534 10.4483 1.56382C10.4579 1.56032 10.464 1.55776 10.4672 1.55638C10.5737 1.49619 10.7043 1.49452 10.8129 1.55327C10.9282 1.61568 11 1.73624 11 1.86735V7.9898C11 8.12539 10.9232 8.24929 10.8018 8.30963L10.6429 7.9898C10.8018 8.30963 10.8018 8.30963 10.8018 8.30963L10.8009 8.31008L10.7996 8.31071L10.7959 8.31252L10.784 8.31822C10.7741 8.32292 10.7602 8.32937 10.7426 8.33732C10.7073 8.35321 10.6569 8.37512 10.5923 8.401C10.4633 8.45273 10.2777 8.52053 10.0446 8.58797C9.57903 8.72267 8.92011 8.85714 8.14286 8.85714C7.3703 8.85714 6.46001 8.67276 5.59679 8.49792L5.57196 8.49289C4.67914 8.31207 3.8361 8.14286 3.14286 8.14286C2.42122 8.14286 1.99892 8.19297 1.76574 8.23833C1.74736 8.2419 1.73023 8.24543 1.71429 8.24889V10.6429C1.71429 10.8401 1.55439 11 1.35714 11C1.1599 11 1 10.8401 1 10.6429V1.86735C1 1.80151 1.0182 1.73695 1.05259 1.68081L1.35714 1.86735C1.05259 1.68081 1.05259 1.68081 1.05259 1.68081L1.05337 1.67953L1.05419 1.67822L1.05594 1.67544L1.05988 1.66935C1.06271 1.66505 1.06596 1.66029 1.06963 1.6551C1.07699 1.64472 1.08608 1.63265 1.09711 1.61917C1.11921 1.59218 1.14896 1.55974 1.188 1.52405C1.26639 1.45238 1.38021 1.36943 1.54135 1.29107ZM1.71429 2.01542V7.52172C2.00957 7.4714 2.46034 7.42857 3.14286 7.42857C3.91541 7.42857 4.82571 7.61295 5.68893 7.78779L5.71375 7.79282C6.60658 7.97365 7.44961 8.14286 8.14286 8.14286C8.83882 8.14286 9.4299 8.02223 9.84605 7.90183C10.0294 7.84877 10.178 7.79599 10.2857 7.75412V2.33543C9.99043 2.38574 9.53966 2.42857 8.85714 2.42857C8.09054 2.42857 7.00808 2.24625 5.96943 2.07131L5.94068 2.06647C4.86754 1.88573 3.84239 1.71429 3.14286 1.71429C2.44654 1.71429 2.05628 1.83492 1.85374 1.93342C1.79138 1.96375 1.74604 1.99233 1.71429 2.01542Z" fill="#0E1011"/>
<path d="M1.71429 7.52172V2.01542C1.74604 1.99233 1.79138 1.96375 1.85374 1.93342C2.05628 1.83492 2.44654 1.71429 3.14286 1.71429C3.84239 1.71429 4.86754 1.88573 5.94068 2.06647L5.96943 2.07131C7.00808 2.24625 8.09054 2.42857 8.85714 2.42857C9.53966 2.42857 9.99043 2.38574 10.2857 2.33543V7.75412C10.178 7.79599 10.0294 7.84877 9.84605 7.90183C9.4299 8.02223 8.83882 8.14286 8.14286 8.14286C7.44961 8.14286 6.60658 7.97365 5.71375 7.79282L5.68893 7.78779C4.82571 7.61295 3.91541 7.42857 3.14286 7.42857C2.46034 7.42857 2.00957 7.4714 1.71429 7.52172Z" fill="#0E1011"/>
</svg>
