<svg viewBox="0 0 16 16" fill="none" xmlns="http://www.w3.org/2000/svg">
<path fill-rule="evenodd" clip-rule="evenodd" d="M3.5 0.5C3.77614 0.5 4 0.723858 4 1V3C4 3.27614 3.77614 3.5 3.5 3.5C3.22386 3.5 3 3.27614 3 3V1C3 0.723858 3.22386 0.5 3.5 0.5ZM6.5 0.5C6.77614 0.5 7 0.723858 7 1V3C7 3.27614 6.77614 3.5 6.5 3.5C6.22386 3.5 6 3.27614 6 3V1C6 0.723858 6.22386 0.5 6.5 0.5ZM9.5 0.5C9.77614 0.5 10 0.723858 10 1V3C10 3.27614 9.77614 3.5 9.5 3.5C9.22386 3.5 9 3.27614 9 3V1C9 0.723858 9.22386 0.5 9.5 0.5ZM2 6C1.44772 6 1 6.44772 1 7V11C1 12.1046 1.89543 13 3 13H10C11.1046 13 12 12.1046 12 11V6H2ZM13 6V9.69098L14.4472 8.96738C14.786 8.79799 15 8.45172 15 8.07295V7C15 6.44772 14.5523 6 14 6H13ZM13 10.809L14.8944 9.8618C15.572 9.52302 16 8.83049 16 8.07295V7C16 5.89543 15.1046 5 14 5H2C0.895431 5 0 5.89543 0 7V11C0 12.6569 1.34315 14 3 14H10C11.6569 14 13 12.6569 13 11V10.809Z" fill="#0E1011"/>
<path d="M1 7C1 6.44772 1.44772 6 2 6H12V11C12 12.1046 11.1046 13 10 13H3C1.89543 13 1 12.1046 1 11V7Z" fill="#0E1011"/>
</svg>
