<svg viewBox="0 0 12 12" fill="none" xmlns="http://www.w3.org/2000/svg">
<path fill-rule="evenodd" clip-rule="evenodd" d="M0.75 2.0625C0.75 1.33763 1.33763 0.75 2.0625 0.75C2.78737 0.75 3.375 1.33763 3.375 2.0625C3.375 2.78737 2.78737 3.375 2.0625 3.375C1.33763 3.375 0.75 2.78737 0.75 2.0625ZM4.5 7.3125C4.5 5.55209 5.92709 4.125 7.6875 4.125C9.44791 4.125 10.875 5.55209 10.875 7.3125V11.25H8.25V7.3125C8.25 7.00184 7.99816 6.75 7.6875 6.75C7.37684 6.75 7.125 7.00184 7.125 7.3125V11.25H4.5V7.3125ZM0.75 5.25C0.75 4.83579 1.08579 4.5 1.5 4.5H2.625C3.03921 4.5 3.375 4.83579 3.375 5.25V10.5C3.375 10.9142 3.03921 11.25 2.625 11.25H1.5C1.08579 11.25 0.75 10.9142 0.75 10.5V5.25Z" fill="#0E1011"/>
</svg>
