<svg viewBox="0 0 12 12" fill="none" xmlns="http://www.w3.org/2000/svg">
<path d="M5.10984 0.234835C5.25629 0.0883883 5.49373 0.0883883 5.64017 0.234835C5.78662 0.381282 5.78662 0.618718 5.64017 0.765165L4.40534 2H6.00001C7.0962 2 8.16201 2.36024 9.03342 3.02528C9.90483 3.69032 10.5335 4.6233 10.8228 5.68063C11.112 6.73797 11.0458 7.86107 10.6343 8.87708C10.2228 9.89309 9.48875 10.7457 8.54521 11.3037C7.60168 11.8617 6.50091 12.0942 5.41232 11.9653C4.32373 11.8365 3.30764 11.3535 2.52044 10.5906C1.73324 9.82778 1.21855 8.82737 1.05557 7.74336C0.892601 6.65935 1.09038 5.55183 1.61847 4.59123C1.71825 4.40974 1.94626 4.3435 2.12775 4.44327C2.30924 4.54305 2.37548 4.77106 2.2757 4.95255C1.82682 5.76905 1.65871 6.71045 1.79724 7.63186C1.93577 8.55326 2.37325 9.40361 3.04238 10.052C3.7115 10.7005 4.57517 11.111 5.50047 11.2205C6.42578 11.3301 7.36143 11.1325 8.16343 10.6582C8.96544 10.1838 9.58935 9.45913 9.93915 8.59552C10.2889 7.73191 10.3452 6.77728 10.0994 5.87854C9.85351 4.9798 9.31911 4.18677 8.57841 3.62149C7.83771 3.0562 6.93177 2.75 6.00001 2.75H4.40534L5.64017 3.98483C5.78662 4.13128 5.78662 4.36872 5.64017 4.51516C5.49373 4.66161 5.25629 4.66161 5.10984 4.51516L2.96968 2.375L5.10984 0.234835Z" fill="#0E1011"/>
</svg>
