<svg height="13" viewBox="0 0 12 13" fill="none" xmlns="http://www.w3.org/2000/svg">
<path fill-rule="evenodd" clip-rule="evenodd" d="M9.95086 1.29917C9.21863 0.566942 8.03144 0.566942 7.29921 1.29917L2.01152 6.58686C0.986395 7.61199 0.986393 9.27405 2.01152 10.2992L2.26888 10.5565C3.294 11.5817 4.95606 11.5817 5.98119 10.5565L10.0529 6.48486L10.5832 7.01519L6.51152 11.0869C5.1935 12.4049 3.05657 12.4049 1.73855 11.0869L1.48119 10.8295C0.163169 9.51149 0.163173 7.37455 1.48119 6.05653L6.76888 0.768845C7.79401 -0.256282 9.45606 -0.256282 10.4812 0.768845C11.5063 1.79397 11.5063 3.45603 10.4812 4.48116L5.41973 9.54262C4.70774 10.2546 3.54537 10.2277 2.86706 9.48358C2.2317 8.78657 2.25652 7.71321 2.92342 7.04631L7.05286 2.91687L7.58319 3.4472L3.45375 7.57664C3.07021 7.96018 3.05593 8.57748 3.42134 8.97834C3.81144 9.4063 4.47993 9.42176 4.8894 9.01229L9.95086 3.95083C10.6831 3.21859 10.6831 2.03141 9.95086 1.29917Z" fill="#0E1011"/>
</svg>
