<svg viewBox="0 0 12 12" fill="none" xmlns="http://www.w3.org/2000/svg">
<path fill-rule="evenodd" clip-rule="evenodd" d="M0 6.61339C0 6.41933 0.0406632 6.22794 0.118769 6.05437L1.97865 1.92131C2.23274 1.35667 2.75213 1 3.32029 1H8.67971C9.24787 1 9.76727 1.35667 10.0214 1.92131L11.8812 6.05437C11.9593 6.22794 12 6.41933 12 6.61339V9.125C12 10.1605 11.2445 11 10.3125 11H1.6875C0.755519 11 0 10.1605 0 9.125V6.61339ZM2.64947 2.29399C2.77651 2.01167 3.03621 1.83333 3.32029 1.83333H8.67971C8.96379 1.83333 9.22349 2.01167 9.35053 2.29399L11.112 6.20833H7.5V6.83333C7.5 7.75381 6.82843 8.5 6 8.5C5.17157 8.5 4.5 7.75381 4.5 6.83333V6.20833H0.888013L2.64947 2.29399Z" fill="#0E1011"/>
</svg>
