<svg viewBox="0 0 16 16" fill="none" xmlns="http://www.w3.org/2000/svg">
<path fill-rule="evenodd" clip-rule="evenodd" d="M6 3.5C6 1.567 7.067 0 9 0H11.75C12.1642 0 12.5 0.335786 12.5 0.75V2.75C12.5 3.16421 12.1642 3.5 11.75 3.5H10C9.72386 3.5 9.5 3.72386 9.5 4V6H11.6531C12.1651 6 12.5265 6.50152 12.3647 6.98717L11.5313 8.98717C11.4292 9.29343 11.1426 9.5 10.8198 9.5H9.5V15.25C9.5 15.6642 9.16421 16 8.75 16H6.75C6.33579 16 6 15.6642 6 15.25V9.5H4.75C4.33579 9.5 4 9.16421 4 8.75V6.75C4 6.33579 4.33579 6 4.75 6H6V3.5ZM9 1C7.61929 1 7 2.11929 7 3.5V7H5V8.5H7V15H8.5V8.5H10.6396L11.3063 7H8.5V4C8.5 3.17157 9.17157 2.5 10 2.5H11.5V1H9Z" fill="#0E1011"/>
<path d="M7 3.5C7 2.11929 7.61929 1 9 1H11.5V2.5H10C9.17157 2.5 8.5 3.17157 8.5 4V7H11.3063L10.6396 8.5H8.5V15H7V8.5H5V7H7V3.5Z" fill="#0E1011"/>
</svg>
