<svg viewBox="0 0 12 12" fill="none" xmlns="http://www.w3.org/2000/svg">
<path fill-rule="evenodd" clip-rule="evenodd" d="M2.78571 1.71429H9.21429C9.80602 1.71429 10.2857 2.19398 10.2857 2.78571V9.21429C10.2857 9.80602 9.80602 10.2857 9.21429 10.2857H2.78571C2.19398 10.2857 1.71429 9.80602 1.71429 9.21429V2.78571C1.71429 2.19398 2.19398 1.71429 2.78571 1.71429ZM1 2.78571C1 1.79949 1.79949 1 2.78571 1H9.21429C10.2005 1 11 1.79949 11 2.78571V9.21429C11 10.2005 10.2005 11 9.21429 11H2.78571C1.79949 11 1 10.2005 1 9.21429V2.78571ZM3.76517 7.76516C3.61872 7.91161 3.38128 7.91161 3.23483 7.76516C3.08839 7.61872 3.08839 7.38128 3.23483 7.23484L4.60225 5.86742C4.82192 5.64775 5.17808 5.64775 5.39775 5.86742L6 6.46967L7.59467 4.875H6.5C6.29289 4.875 6.125 4.70711 6.125 4.5C6.125 4.29289 6.29289 4.125 6.5 4.125H8.5H8.875V4.5V6.5C8.875 6.70711 8.70711 6.875 8.5 6.875C8.29289 6.875 8.125 6.70711 8.125 6.5V5.40533L6.39775 7.13258C6.17808 7.35225 5.82192 7.35225 5.60225 7.13258L5 6.53033L3.76517 7.76516Z" fill="#0E1011"/>
</svg>
