<svg viewBox="0 0 16 16" fill="none" xmlns="http://www.w3.org/2000/svg">
<path d="M8 1C8.27614 1 8.5 1.22386 8.5 1.5V4.29289L9.64645 3.14645C9.84171 2.95118 10.1583 2.95118 10.3536 3.14645C10.5488 3.34171 10.5488 3.65829 10.3536 3.85355L8 6.20711L5.64645 3.85355C5.45118 3.65829 5.45118 3.34171 5.64645 3.14645C5.84171 2.95118 6.15829 2.95118 6.35355 3.14645L7.5 4.29289V1.5C7.5 1.22386 7.72386 1 8 1Z" fill="#0E1011"/>
<path d="M2.6967 5.1967C2.89196 5.00144 3.20854 5.00144 3.40381 5.1967L4.81802 6.61091C5.01328 6.80617 5.01328 7.12276 4.81802 7.31802C4.62276 7.51328 4.30617 7.51328 4.11091 7.31802L2.6967 5.90381C2.50144 5.70854 2.50144 5.39196 2.6967 5.1967Z" fill="#0E1011"/>
<path d="M13.3033 5.1967C13.4986 5.39196 13.4986 5.70854 13.3033 5.90381L11.8891 7.31802C11.6938 7.51328 11.3772 7.51328 11.182 7.31802C10.9867 7.12276 10.9867 6.80617 11.182 6.61091L12.5962 5.1967C12.7915 5.00144 13.108 5.00144 13.3033 5.1967Z" fill="#0E1011"/>
<path d="M0.5 10.5C0.5 10.2239 0.723858 10 1 10H3C3.27614 10 3.5 10.2239 3.5 10.5C3.5 10.7761 3.27614 11 3 11H1C0.723858 11 0.5 10.7761 0.5 10.5Z" fill="#0E1011"/>
<path d="M12.5 10.5C12.5 10.2239 12.7239 10 13 10H15C15.2761 10 15.5 10.2239 15.5 10.5C15.5 10.7761 15.2761 11 15 11H13C12.7239 11 12.5 10.7761 12.5 10.5Z" fill="#0E1011"/>
<path d="M4.5 11V10.75C4.5 8.95507 5.95507 7.5 7.75 7.5H8.25C10.0449 7.5 11.5 8.95507 11.5 10.75V11H4.5Z" fill="#0E1011"/>
<path d="M1 13C0.723858 13 0.5 13.2239 0.5 13.5C0.5 13.7761 0.723858 14 1 14H15C15.2761 14 15.5 13.7761 15.5 13.5C15.5 13.2239 15.2761 13 15 13H1Z" fill="#0E1011"/>
</svg>
