<svg viewBox="0 0 16 16" fill="none" xmlns="http://www.w3.org/2000/svg">
<path d="M5.99988 9.5C7.93287 9.5 9.49988 7.933 9.49988 6C9.49988 4.067 7.93287 2.5 5.99988 2.5C4.06688 2.5 2.49988 4.067 2.49988 6C2.49988 7.933 4.06688 9.5 5.99988 9.5Z" fill="#0E1011"/>
<path d="M0.226118 12.1899L0.0703125 13.4364C1.53149 15.0131 3.62021 16 5.93944 16C8.31546 16 10.4496 14.9642 11.9148 13.3194L11.7736 12.1899C11.6172 10.9388 10.5537 10 9.2929 10H8.49986L6.92833 10.6286C6.33231 10.867 5.66741 10.867 5.07138 10.6286L3.49986 10H2.70681C1.446 10 0.382502 10.9388 0.226118 12.1899Z" fill="#0E1011"/>
<path d="M7.31445 1.1734C9.44041 1.74909 11.0043 3.69191 11.0043 6C11.0043 6.29123 10.9794 6.57671 10.9316 6.85438C12.3761 6.42337 13.4293 5.08467 13.4293 3.5C13.4293 1.567 11.8623 0 9.92926 0C8.88943 0 7.95551 0.453452 7.31445 1.1734Z" fill="#0E1011"/>
<path d="M13.3539 12.703C14.304 12.2425 15.1493 11.5994 15.8442 10.8194L15.703 9.68991C15.5466 8.43884 14.4831 7.5 13.2223 7.5H12.4292L10.8577 8.12861C10.7317 8.17903 10.6025 8.21879 10.4716 8.24788C10.4078 8.37449 10.3388 8.498 10.2648 8.61814C11.8366 9.00921 13.0575 10.3323 13.2665 12.0039L13.3539 12.703Z" fill="#0E1011"/>
</svg>
