<svg viewBox="0 0 12 12" fill="none" xmlns="http://www.w3.org/2000/svg">
<path fill-rule="evenodd" clip-rule="evenodd" d="M1.6875 1.75C1.16973 1.75 0.75 2.16973 0.75 2.6875V8.0625C0.75 8.58027 1.16973 9 1.6875 9H2.625C2.83211 9 3 9.16789 3 9.375C3 9.58211 2.83211 9.75 2.625 9.75H1.6875C0.755519 9.75 0 8.99448 0 8.0625V2.6875C0 1.75552 0.75552 1 1.6875 1H10.3125C11.2445 1 12 1.75552 12 2.6875V8.0625C12 8.99448 11.2445 9.75 10.3125 9.75H9.375C9.16789 9.75 9 9.58211 9 9.375C9 9.16789 9.16789 9 9.375 9H10.3125C10.8303 9 11.25 8.58027 11.25 8.0625V2.6875C11.25 2.16973 10.8303 1.75 10.3125 1.75H1.6875ZM6 6.88919L9.39174 11.25H2.60826L6 6.88919ZM4.14174 10.5H7.85826L6 8.11081L4.14174 10.5Z" fill="#0E1011"/>
</svg>
