<svg viewBox="0 0 16 16" fill="none" xmlns="http://www.w3.org/2000/svg">
<path d="M3.5 6.25C3.91421 6.25 4.25 5.91421 4.25 5.5C4.25 5.08579 3.91421 4.75 3.5 4.75C3.08579 4.75 2.75 5.08579 2.75 5.5C2.75 5.91421 3.08579 6.25 3.5 6.25Z" fill="#0E1011"/>
<path fill-rule="evenodd" clip-rule="evenodd" d="M2.5 2C1.11929 2 0 3.11929 0 4.5V11.5C0 12.8807 1.11929 14 2.5 14H8.25606C8.09023 13.5308 8 13.026 8 12.5C8 10.0248 9.9984 8.01636 12.4698 8.0001L10.5 6.03033L5.5 11.0303L3.5 9.03033L1.26516 11.2652C1.11872 11.4116 0.881282 11.4116 0.734835 11.2652C0.588388 11.1187 0.588388 10.8813 0.734835 10.7348L3.5 7.96967L5.5 9.96967L10.5 4.96967L13.6891 8.15878C14.6112 8.41077 15.4152 8.94869 16 9.67133V4.5C16 3.11929 14.8807 2 13.5 2H2.5ZM3.5 7C4.32843 7 5 6.32843 5 5.5C5 4.67157 4.32843 4 3.5 4C2.67157 4 2 4.67157 2 5.5C2 6.32843 2.67157 7 3.5 7Z" fill="#0E1011"/>
<path fill-rule="evenodd" clip-rule="evenodd" d="M16 12.5C16 14.433 14.433 16 12.5 16C10.567 16 9 14.433 9 12.5C9 10.567 10.567 9 12.5 9C14.433 9 16 10.567 16 12.5ZM12.5 10.5C12.7761 10.5 13 10.7239 13 11V12H14C14.2761 12 14.5 12.2239 14.5 12.5C14.5 12.7761 14.2761 13 14 13H13V14C13 14.2761 12.7761 14.5 12.5 14.5C12.2239 14.5 12 14.2761 12 14V13H11C10.7239 13 10.5 12.7761 10.5 12.5C10.5 12.2239 10.7239 12 11 12H12V11C12 10.7239 12.2239 10.5 12.5 10.5Z" fill="#0E1011"/>
</svg>
