<svg viewBox="0 0 12 12" fill="none" xmlns="http://www.w3.org/2000/svg">
<path d="M6 0.25C6.20711 0.25 6.375 0.417893 6.375 0.625V2.71967L7.23483 1.85984C7.38128 1.71339 7.61872 1.71339 7.76517 1.85984C7.91161 2.00628 7.91161 2.24372 7.76517 2.39016L6 4.15533L4.23484 2.39016C4.08839 2.24372 4.08839 2.00628 4.23484 1.85984C4.38128 1.71339 4.61872 1.71339 4.76516 1.85984L5.625 2.71967V0.625C5.625 0.417893 5.79289 0.25 6 0.25Z" fill="#0E1011"/>
<path d="M2.02252 3.39752C2.16897 3.25108 2.40641 3.25108 2.55285 3.39752L3.61351 4.45818C3.75996 4.60463 3.75996 4.84207 3.61351 4.98851C3.46707 5.13496 3.22963 5.13496 3.08318 4.98851L2.02252 3.92785C1.87608 3.78141 1.87608 3.54397 2.02252 3.39752Z" fill="#0E1011"/>
<path d="M9.97748 3.39752C10.1239 3.54397 10.1239 3.78141 9.97748 3.92785L8.91682 4.98851C8.77037 5.13496 8.53293 5.13496 8.38649 4.98851C8.24004 4.84207 8.24004 4.60463 8.38649 4.45818L9.44715 3.39752C9.59359 3.25108 9.83103 3.25108 9.97748 3.39752Z" fill="#0E1011"/>
<path d="M0.375 7.375C0.375 7.16789 0.542893 7 0.75 7H2.25C2.45711 7 2.625 7.16789 2.625 7.375C2.625 7.58211 2.45711 7.75 2.25 7.75H0.75C0.542893 7.75 0.375 7.58211 0.375 7.375Z" fill="#0E1011"/>
<path d="M9.375 7.375C9.375 7.16789 9.54289 7 9.75 7H11.25C11.4571 7 11.625 7.16789 11.625 7.375C11.625 7.58211 11.4571 7.75 11.25 7.75H9.75C9.54289 7.75 9.375 7.58211 9.375 7.375Z" fill="#0E1011"/>
<path d="M3.375 7.75V7.5625C3.375 6.21631 4.46631 5.125 5.8125 5.125H6.1875C7.53369 5.125 8.625 6.21631 8.625 7.5625V7.75H3.375Z" fill="#0E1011"/>
<path d="M0.75 9.25C0.542893 9.25 0.375 9.41789 0.375 9.625C0.375 9.83211 0.542893 10 0.75 10H11.25C11.4571 10 11.625 9.83211 11.625 9.625C11.625 9.41789 11.4571 9.25 11.25 9.25H0.75Z" fill="#0E1011"/>
</svg>
