<svg viewBox="0 0 12 12" fill="none" xmlns="http://www.w3.org/2000/svg">
<path d="M0.765165 0.234835C0.618718 0.0883883 0.381282 0.0883883 0.234835 0.234835C0.0883884 0.381282 0.0883884 0.618718 0.234835 0.765165L2.00302 2.53335C0.805753 3.22454 0 4.51816 0 5.99997V6.49997C0 8.98525 2.01472 11 4.5 11H8V10.9645C8.1633 10.9879 8.33024 11 8.5 11C9.0721 11 9.61214 10.8627 10.089 10.6193L11.2348 11.7652C11.3813 11.9116 11.6187 11.9116 11.7652 11.7652C11.9116 11.6187 11.9116 11.3813 11.7652 11.2348L0.765165 0.234835Z" fill="#0E1011"/>
<path d="M12 7.49997C12 8.08011 11.8589 8.62728 11.609 9.10902L4.53551 2.03551C5.84119 2.2102 6.94752 3.01479 7.5388 4.13361C7.84421 4.04657 8.16666 3.99997 8.5 3.99997C10.433 3.99997 12 5.56697 12 7.49997Z" fill="#0E1011"/>
</svg>
