<svg viewBox="0 0 12 12" fill="none" xmlns="http://www.w3.org/2000/svg">
<path fill-rule="evenodd" clip-rule="evenodd" d="M4.84451 3C4.47394 3 4.11649 3.13717 3.84106 3.38506L0.935568 6L3.84106 8.61494C4.1165 8.86283 4.47394 9 4.84451 9H10.3125C10.8303 9 11.25 8.58027 11.25 8.0625V3.9375C11.25 3.41973 10.8303 3 10.3125 3H4.84451ZM3.33933 2.82759C3.75249 2.45575 4.28866 2.25 4.84451 2.25H10.3125C11.2445 2.25 12 3.00552 12 3.9375V8.0625C12 8.99448 11.2445 9.75 10.3125 9.75H4.84451C4.28866 9.75 3.75249 9.54425 3.33933 9.17241L0.124138 6.27874C0.0451205 6.20762 0 6.10631 0 6C0 5.89369 0.0451205 5.79238 0.124138 5.72126L3.33933 2.82759ZM5.73484 4.23484C5.88128 4.08839 6.11872 4.08839 6.26517 4.23484L7.5 5.46967L8.73483 4.23484C8.88128 4.08839 9.11872 4.08839 9.26517 4.23484C9.41161 4.38128 9.41161 4.61872 9.26517 4.76516L8.03033 6L9.26517 7.23484C9.41161 7.38128 9.41161 7.61872 9.26517 7.76516C9.11872 7.91161 8.88128 7.91161 8.73483 7.76516L7.5 6.53033L6.26517 7.76516C6.11872 7.91161 5.88128 7.91161 5.73484 7.76516C5.58839 7.61872 5.58839 7.38128 5.73484 7.23484L6.96967 6L5.73484 4.76516C5.58839 4.61872 5.58839 4.38128 5.73484 4.23484Z" fill="#0E1011"/>
</svg>
