<svg viewBox="0 0 16 16" fill="none" xmlns="http://www.w3.org/2000/svg">
<path d="M8 0.792847L10.3536 3.1464C10.5488 3.34166 10.5488 3.65824 10.3536 3.85351C10.1583 4.04877 9.84171 4.04877 9.64645 3.85351L8.5 2.70706V5.49995C8.5 5.7761 8.27614 5.99995 8 5.99995C7.72386 5.99995 7.5 5.7761 7.5 5.49995V2.70706L6.35355 3.85351C6.15829 4.04877 5.84171 4.04877 5.64645 3.85351C5.45118 3.65824 5.45118 3.34166 5.64645 3.1464L8 0.792847Z" fill="#0E1011"/>
<path d="M2.6967 5.19665C2.89196 5.00139 3.20854 5.00139 3.40381 5.19665L4.81802 6.61087C5.01328 6.80613 5.01328 7.12271 4.81802 7.31797C4.62276 7.51324 4.30617 7.51324 4.11091 7.31797L2.6967 5.90376C2.50144 5.7085 2.50144 5.39191 2.6967 5.19665Z" fill="#0E1011"/>
<path d="M13.3033 5.19665C13.4986 5.39191 13.4986 5.7085 13.3033 5.90376L11.8891 7.31797C11.6938 7.51324 11.3772 7.51324 11.182 7.31797C10.9867 7.12271 10.9867 6.80613 11.182 6.61087L12.5962 5.19665C12.7915 5.00139 13.108 5.00139 13.3033 5.19665Z" fill="#0E1011"/>
<path d="M0.5 10.5C0.5 10.2238 0.723858 9.99995 1 9.99995H3C3.27614 9.99995 3.5 10.2238 3.5 10.5C3.5 10.7761 3.27614 11 3 11H1C0.723858 11 0.5 10.7761 0.5 10.5Z" fill="#0E1011"/>
<path d="M12.5 10.5C12.5 10.2238 12.7239 9.99995 13 9.99995H15C15.2761 9.99995 15.5 10.2238 15.5 10.5C15.5 10.7761 15.2761 11 15 11H13C12.7239 11 12.5 10.7761 12.5 10.5Z" fill="#0E1011"/>
<path d="M4.5 10.9999V10.7499C4.5 8.95501 5.95507 7.49994 7.75 7.49994H8.25C10.0449 7.49994 11.5 8.95501 11.5 10.7499V10.9999H4.5Z" fill="#0E1011"/>
<path d="M1 13C0.723858 13 0.5 13.2238 0.5 13.5C0.5 13.7761 0.723858 14 1 14H15C15.2761 14 15.5 13.7761 15.5 13.5C15.5 13.2238 15.2761 13 15 13H1Z" fill="#0E1011"/>
</svg>
