<svg viewBox="0 0 12 12" fill="none" xmlns="http://www.w3.org/2000/svg">
<path d="M7.23484 4.23484L5.73484 5.73484C5.58839 5.88128 5.58839 6.11872 5.73484 6.26517L6.85984 7.39017L7.39016 6.85983L6.53033 6L7.76516 4.76516L7.23484 4.23484Z" fill="#0E1011"/>
<path fill-rule="evenodd" clip-rule="evenodd" d="M3.74995 2.99976C3.74999 2.98234 3.75123 2.96471 3.75377 2.94697L4.03678 0.9659C4.11595 0.41167 4.59062 0 5.15047 0H6.84953C7.40939 0 7.88405 0.411671 7.96322 0.965901L8.24623 2.94697C8.24877 2.96471 8.25001 2.98234 8.25005 2.99976C9.16086 3.68392 9.75 4.77316 9.75 6C9.75 7.22684 9.16085 8.31608 8.25005 9.00024C8.25001 9.01766 8.24877 9.03529 8.24623 9.05303L7.96322 11.0341C7.88405 11.5883 7.40939 12 6.84953 12H5.15047C4.59062 12 4.11595 11.5883 4.03678 11.0341L3.75377 9.05303C3.75123 9.03529 3.74999 9.01766 3.74995 9.00024C2.83915 8.31608 2.25 7.22684 2.25 6C2.25 4.77316 2.83914 3.68392 3.74995 2.99976ZM4.77924 1.07197C4.80563 0.887223 4.96385 0.75 5.15047 0.75H6.84953C7.03615 0.75 7.19437 0.887224 7.22076 1.07197L7.42934 2.53202C6.98883 2.35027 6.50612 2.25 6 2.25C5.49388 2.25 5.01117 2.35027 4.57066 2.53202L4.77924 1.07197ZM6 9.75C6.50612 9.75 6.98883 9.64973 7.42934 9.46798L7.22076 10.928C7.19437 11.1128 7.03615 11.25 6.84953 11.25H5.15047C4.96385 11.25 4.80563 11.1128 4.77924 10.928L4.57066 9.46798C5.01117 9.64973 5.49388 9.75 6 9.75ZM3 6C3 4.34315 4.34315 3 6 3C7.65685 3 9 4.34315 9 6C9 7.65685 7.65685 9 6 9C4.34315 9 3 7.65685 3 6Z" fill="#0E1011"/>
</svg>
