<svg viewBox="0 0 12 12" fill="none" xmlns="http://www.w3.org/2000/svg">
<path fill-rule="evenodd" clip-rule="evenodd" d="M1 1.5C1 0.671573 1.67157 0 2.5 0H3.5C4.32843 0 5 0.671573 5 1.5V10.5C5 11.3284 4.32843 12 3.5 12H2.5C1.67157 12 1 11.3284 1 10.5V1.5ZM2.5 1H3.5C3.77614 1 4 1.22386 4 1.5V10.5C4 10.7761 3.77614 11 3.5 11H2.5C2.22386 11 2 10.7761 2 10.5V1.5C2 1.22386 2.22386 1 2.5 1Z" fill="#0E1011"/>
<path fill-rule="evenodd" clip-rule="evenodd" d="M7 1.5C7 0.671573 7.67157 0 8.5 0H9.5C10.3284 0 11 0.671573 11 1.5V10.5C11 11.3284 10.3284 12 9.5 12H8.5C7.67157 12 7 11.3284 7 10.5V1.5ZM8.5 1H9.5C9.77614 1 10 1.22386 10 1.5V10.5C10 10.7761 9.77614 11 9.5 11H8.5C8.22386 11 8 10.7761 8 10.5V1.5C8 1.22386 8.22386 1 8.5 1Z" fill="#0E1011"/>
</svg>
