<svg viewBox="0 0 16 16" fill="none" xmlns="http://www.w3.org/2000/svg">
<path d="M9.125 3V5H9.875V3H9.125Z" fill="#0E1011"/>
<path fill-rule="evenodd" clip-rule="evenodd" d="M3 1C1.89543 1 1 1.89543 1 3V13.5C1 14.3284 1.67157 15 2.5 15H13.5C14.3284 15 15 14.3284 15 13.5V3.29289L12.7071 1H3ZM2 3C2 2.44772 2.44772 2 3 2H4.125V5.5C4.125 6.25939 4.74061 6.875 5.5 6.875H10.5C11.2594 6.875 11.875 6.25939 11.875 5.5V2H12.2929L14 3.70711V13.5C14 13.7761 13.7761 14 13.5 14H12.875V9.5C12.875 8.74061 12.2594 8.125 11.5 8.125H4.5C3.74061 8.125 3.125 8.74061 3.125 9.5V14H2.5C2.22386 14 2 13.7761 2 13.5V3ZM11.125 2H4.875V5.5C4.875 5.84518 5.15482 6.125 5.5 6.125H10.5C10.8452 6.125 11.125 5.84518 11.125 5.5V2ZM12.125 9.5V14H3.875V9.5C3.875 9.15482 4.15482 8.875 4.5 8.875H11.5C11.8452 8.875 12.125 9.15482 12.125 9.5Z" fill="#0E1011"/>
</svg>
