<svg viewBox="0 0 12 12" fill="none" xmlns="http://www.w3.org/2000/svg">
<path fill-rule="evenodd" clip-rule="evenodd" d="M2 1.5C2 1.08579 2.33579 0.75 2.75 0.75H7V2.25C7 3.07843 7.67157 3.75 8.5 3.75H10V5.625C10 5.83211 10.1679 6 10.375 6C10.5821 6 10.75 5.83211 10.75 5.625V3.21967L7.53033 0H2.75C1.92157 0 1.25 0.671573 1.25 1.5V10.5C1.25 11.3284 1.92157 12 2.75 12H6C6.20711 12 6.375 11.8321 6.375 11.625C6.375 11.4179 6.20711 11.25 6 11.25H2.75C2.33579 11.25 2 10.9142 2 10.5V1.5ZM9.46967 3L7.75 1.28033V2.25C7.75 2.66421 8.08579 3 8.5 3H9.46967Z" fill="#0E1011"/>
<path fill-rule="evenodd" clip-rule="evenodd" d="M12 9.5C12 10.8807 10.8807 12 9.5 12C8.11929 12 7 10.8807 7 9.5C7 8.11929 8.11929 7 9.5 7C10.8807 7 12 8.11929 12 9.5ZM9.5 7.71429C9.69724 7.71429 9.85714 7.87418 9.85714 8.07143V9.14286H10.9286C11.1258 9.14286 11.2857 9.30276 11.2857 9.5C11.2857 9.69724 11.1258 9.85714 10.9286 9.85714H9.85714V11.1071C9.85714 11.3044 9.69724 11.4643 9.5 11.4643C9.30276 11.4643 9.14286 11.3044 9.14286 11.1071V9.85714H8.07143C7.87418 9.85714 7.71429 9.69724 7.71429 9.5C7.71429 9.30276 7.87418 9.14286 8.07143 9.14286H9.14286V8.07143C9.14286 7.87418 9.30276 7.71429 9.5 7.71429Z" fill="#0E1011"/>
</svg>
