<svg viewBox="0 0 16 16" fill="none" xmlns="http://www.w3.org/2000/svg">
<path fill-rule="evenodd" clip-rule="evenodd" d="M8 16C8 16 2 11 2 6.00018C2 2.68647 4.68629 0 8 0C11.3137 0 14 2.68646 14 6.00017C14 11 8 16 8 16ZM7.75958 14.4236C7.84452 14.5062 7.9249 14.5831 8 14.6541C8.0751 14.5831 8.15548 14.5062 8.24042 14.4236C8.78159 13.8975 9.50159 13.1472 10.2191 12.2503C11.6896 10.4123 13 8.14209 13 6.00017C13 3.23871 10.7614 1 8 1C5.23862 1 3 3.23872 3 6.00018C3 8.14211 4.31043 10.4123 5.78086 12.2503C6.49841 13.1472 7.21841 13.8975 7.75958 14.4236ZM11 6C11 7.65685 9.65685 9 8 9C6.34315 9 5 7.65685 5 6C5 4.34315 6.34315 3 8 3C9.65685 3 11 4.34315 11 6ZM10 6C10 7.10457 9.10457 8 8 8C6.89543 8 6 7.10457 6 6C6 4.89543 6.89543 4 8 4C9.10457 4 10 4.89543 10 6Z" fill="#0E1011"/>
</svg>
