<svg viewBox="0 0 12 12" fill="none" xmlns="http://www.w3.org/2000/svg">
<path fill-rule="evenodd" clip-rule="evenodd" d="M1.99999 0.849902C1.91715 0.849902 1.84999 0.91706 1.84999 0.999902V4.61687C1.84999 6.18794 2.85531 7.58274 4.34576 8.07956L5.99999 8.63097L7.65423 8.07956C9.14467 7.58274 10.15 6.18794 10.15 4.61687V0.999902C10.15 0.91706 10.0828 0.849902 9.99999 0.849902H1.99999ZM5.64999 9.25217L4.1244 8.74364C2.34811 8.15154 1.14999 6.48924 1.14999 4.61687V0.999902C1.14999 0.53046 1.53055 0.149902 1.99999 0.149902H9.99999C10.4694 0.149902 10.85 0.530461 10.85 0.999902V4.61687C10.85 6.48924 9.65187 8.15154 7.87559 8.74364L6.34999 9.25217V11.1499H7.99999C8.19329 11.1499 8.34999 11.3066 8.34999 11.4999C8.34999 11.6932 8.19329 11.8499 7.99999 11.8499H3.99999C3.80669 11.8499 3.64999 11.6932 3.64999 11.4999C3.64999 11.3066 3.80669 11.1499 3.99999 11.1499H5.64999V9.25217ZM0.499994 2.1499C0.693294 2.1499 0.849994 2.3066 0.849994 2.4999V5.4999C0.849994 5.6932 0.693294 5.8499 0.499994 5.8499C0.306694 5.8499 0.149994 5.6932 0.149994 5.4999V2.4999C0.149994 2.3066 0.306694 2.1499 0.499994 2.1499ZM11.5 2.1499C11.6933 2.1499 11.85 2.3066 11.85 2.4999V5.4999C11.85 5.6932 11.6933 5.8499 11.5 5.8499C11.3067 5.8499 11.15 5.6932 11.15 5.4999V2.4999C11.15 2.3066 11.3067 2.1499 11.5 2.1499Z" fill="#0E1011"/>
</svg>
