<svg viewBox="0 0 16 16" fill="none" xmlns="http://www.w3.org/2000/svg">
<path d="M4.50001 3.99998C4.22387 3.99998 4.00001 4.22383 4.00001 4.49998V11.5C4.00001 11.7761 4.22387 12 4.50001 12H6.50001C6.77615 12 7.00001 11.7761 7.00001 11.5V4.49998C7.00001 4.22383 6.77615 3.99998 6.50001 3.99998H4.50001Z" fill="#0E1011"/>
<path d="M9.50001 3.99998C9.22387 3.99998 9.00001 4.22383 9.00001 4.49998V8.49998C9.00001 8.77612 9.22387 8.99998 9.50001 8.99998H11.5C11.7762 8.99998 12 8.77612 12 8.49998V4.49998C12 4.22383 11.7762 3.99998 11.5 3.99998H9.50001Z" fill="#0E1011"/>
<path fill-rule="evenodd" clip-rule="evenodd" d="M1 3.5C1 2.11929 2.11929 1 3.5 1H12.5C13.8807 1 15 2.11929 15 3.5V12.5C15 13.8807 13.8807 15 12.5 15H3.5C2.11929 15 1 13.8807 1 12.5V3.5ZM3.5 2H12.5C13.3284 2 14 2.67157 14 3.5V12.5C14 13.3284 13.3284 14 12.5 14H3.5C2.67157 14 2 13.3284 2 12.5V3.5C2 2.67157 2.67157 2 3.5 2Z" fill="#0E1011"/>
</svg>
