<svg viewBox="0 0 12 12" fill="none" xmlns="http://www.w3.org/2000/svg">
<path d="M5.018 0.638187L0.153916 10.0114C0.0536295 10.2118 0.000566036 10.4391 4.50351e-06 10.6706C-0.00055703 10.9021 0.0514029 11.1297 0.150715 11.3308C0.250027 11.532 0.393229 11.6995 0.566075 11.8169C0.73892 11.9343 0.935384 11.9975 1.13592 12H10.8641C11.0646 11.9975 11.2611 11.9343 11.4339 11.8169C11.6068 11.6995 11.75 11.532 11.8493 11.3308C11.9486 11.1297 12.0006 10.9021 12 10.6706C11.9994 10.4391 11.9464 10.2118 11.8461 10.0114L6.982 0.638187C6.87963 0.443369 6.73548 0.282298 6.56347 0.170512C6.39146 0.0587261 6.1974 0 6 0C5.8026 0 5.60854 0.0587261 5.43653 0.170512C5.26452 0.282298 5.12037 0.443369 5.018 0.638187Z" fill="#0E1011"/>
</svg>
