<svg viewBox="0 0 16 16" fill="none" xmlns="http://www.w3.org/2000/svg">
<path fill-rule="evenodd" clip-rule="evenodd" d="M15.2943 7.99992C15.2943 12.0313 12.0262 15.2994 7.99479 15.2994C3.9634 15.2994 0.695312 12.0313 0.695312 7.99992C0.695312 3.96853 3.9634 0.700439 7.99479 0.700439C12.0262 0.700439 15.2943 3.96853 15.2943 7.99992ZM7.23223 14.2537L8.90856 11.2777C8.61935 11.3577 8.31466 11.4005 7.99999 11.4005C6.71615 11.4005 5.59849 10.689 5.01979 9.63881L2.40458 5.09315C1.95146 5.96281 1.69531 6.95145 1.69531 7.99992C1.69531 11.2209 4.11274 13.8773 7.23223 14.2537ZM8.3601 14.289C11.6692 14.0998 14.2943 11.3564 14.2943 7.99992C14.2943 7.15002 14.126 6.33944 13.8209 5.59968H10.4085C11.0215 6.2147 11.4004 7.06314 11.4004 8.00008C11.4004 8.63127 11.2284 9.2223 10.9288 9.72886L8.3601 14.289ZM13.2987 4.59968H7.99999C6.43054 4.59968 5.10943 5.66294 4.71769 7.10842L3.01251 4.14453C4.16481 2.65759 5.96802 1.70044 7.99479 1.70044C10.2215 1.70044 12.1784 2.85576 13.2987 4.59968ZM7.99999 10.4005C7.118 10.4005 6.34711 9.92479 5.92988 9.21597L5.92156 9.20094L5.89618 9.15683C5.70715 8.81376 5.59959 8.41948 5.59959 8.00008C5.59959 6.67437 6.67428 5.59968 7.99999 5.59968C9.3257 5.59968 10.4004 6.67437 10.4004 8.00008C10.4004 8.43067 10.287 8.83479 10.0885 9.18419C10.0842 9.19096 10.0801 9.19785 10.0762 9.20489L10.0663 9.22233C9.64826 9.92763 8.87935 10.4005 7.99999 10.4005Z" fill="#0E1011"/>
</svg>
