<svg viewBox="0 0 12 12" fill="none" xmlns="http://www.w3.org/2000/svg">
<path fill-rule="evenodd" clip-rule="evenodd" d="M1 5.64286C1 3.07868 3.07868 1 5.64286 1H6.35714C8.92132 1 11 3.07868 11 5.64286V9.77089C11 10.2321 10.7049 10.6415 10.2674 10.7873L9.84931 10.9267C9.70365 10.9752 9.55111 11 9.39756 11H9.21429C8.62255 11 8.14286 10.5203 8.14286 9.92857V7.78571C8.14286 7.19398 8.62255 6.71429 9.21429 6.71429H9.39756C9.55111 6.71429 9.70365 6.73904 9.84931 6.7876L10.2857 6.93306V5.64286C10.2857 3.47317 8.52683 1.71429 6.35714 1.71429H5.64286C3.47317 1.71429 1.71429 3.47317 1.71429 5.64286V6.93306L2.15069 6.7876C2.29635 6.73904 2.44889 6.71429 2.60244 6.71429H2.78571C3.37745 6.71429 3.85714 7.19398 3.85714 7.78571V9.92857C3.85714 10.5203 3.37745 11 2.78571 11H2.60244C2.44889 11 2.29635 10.9752 2.15069 10.9267L1.73261 10.7873C1.2951 10.6415 1 10.2321 1 9.77089V5.64286ZM1.71429 8.32143H2.78571V7.96429H1.71429V8.32143ZM9.21429 8.32143H10.2857V7.96429H9.21429V8.32143ZM1.71429 9.03571H2.78571V8.67857H1.71429V9.03571ZM9.21429 9.03571H10.2857V8.67857H9.21429V9.03571Z" fill="#0E1011"/>
</svg>
