<svg viewBox="0 0 16 16" fill="none" xmlns="http://www.w3.org/2000/svg">
<path fill-rule="evenodd" clip-rule="evenodd" d="M6 1C5.44772 1 5 1.44772 5 2V3H2C0.895431 3 0 3.89543 0 5V12C0 13.1046 0.895431 14 2 14H14C15.1046 14 16 13.1046 16 12V5C16 3.89543 15.1046 3 14 3H11V2C11 1.44772 10.5523 1 10 1H6ZM10 3H6V2H10V3ZM1 5C1 4.44772 1.44772 4 2 4H14C14.5523 4 15 4.44772 15 5V7.125H1V5ZM1 7.875V12C1 12.5523 1.44772 13 2 13H14C14.5523 13 15 12.5523 15 12V7.875H10.125V8.5C10.125 9.25939 9.50939 9.875 8.75 9.875H7.25C6.49061 9.875 5.875 9.25939 5.875 8.5V7.875H1ZM6.625 8.5V7.875H9.375V8.5C9.375 8.84518 9.09518 9.125 8.75 9.125H7.25C6.90482 9.125 6.625 8.84518 6.625 8.5Z" fill="#0E1011"/>
</svg>
