<svg viewBox="0 0 12 12" fill="none" xmlns="http://www.w3.org/2000/svg">
<path fill-rule="evenodd" clip-rule="evenodd" d="M3.5 1C2.11929 1 1 2.11929 1 3.5V8.5C1 9.88071 2.11929 11 3.5 11H8.5C9.88071 11 11 9.88071 11 8.5V3.5C11 2.11929 9.88071 1 8.5 1H3.5ZM9.21429 3.32143C9.21429 3.6173 8.97444 3.85714 8.67857 3.85714C8.38271 3.85714 8.14286 3.6173 8.14286 3.32143C8.14286 3.02556 8.38271 2.78571 8.67857 2.78571C8.97444 2.78571 9.21429 3.02556 9.21429 3.32143ZM8.14286 6C8.14286 7.18347 7.18347 8.14286 6 8.14286C4.81653 8.14286 3.85714 7.18347 3.85714 6C3.85714 4.81653 4.81653 3.85714 6 3.85714C7.18347 3.85714 8.14286 4.81653 8.14286 6Z" fill="#0E1011"/>
</svg>
