<svg viewBox="0 0 16 16" fill="none" xmlns="http://www.w3.org/2000/svg">
<path fill-rule="evenodd" clip-rule="evenodd" d="M6 3C3.23858 3 1 5.23858 1 8C1 9.75475 1.90353 11.2987 3.27309 12.1917C3.5044 12.3425 3.56966 12.6523 3.41884 12.8836C3.26801 13.1149 2.95823 13.1802 2.72691 13.0294C1.08626 11.9596 0 10.1068 0 8C0 4.68629 2.68629 2 6 2C8.61819 2 10.8437 3.67659 11.6634 6.014C11.7744 6.00472 11.8867 6 12 6C14.2091 6 16 7.79086 16 10C16 11.3597 15.3211 12.5608 14.286 13.2827C14.0596 13.4407 13.7479 13.3852 13.5899 13.1587C13.4319 12.9322 13.4875 12.6205 13.714 12.4626C14.4924 11.9196 15 11.019 15 10C15 8.34315 13.6569 7 12 7C11.7974 7 11.6 7.02002 11.4094 7.05802L10.9504 7.14957L10.8288 6.69756C10.2558 4.56733 8.31029 3 6 3ZM8.5 8C8.77614 8 9 8.22386 9 8.5V14.0858L11.1464 11.9393C11.3417 11.7441 11.6583 11.7441 11.8536 11.9393C12.0488 12.1346 12.0488 12.4512 11.8536 12.6464L8.5 16L5.14645 12.6464C4.95118 12.4512 4.95118 12.1346 5.14645 11.9393C5.34171 11.7441 5.65829 11.7441 5.85355 11.9393L8 14.0858V8.5C8 8.22386 8.22386 8 8.5 8Z" fill="#0E1011"/>
</svg>
