<svg viewBox="0 0 16 16" fill="none" xmlns="http://www.w3.org/2000/svg">
<path fill-rule="evenodd" clip-rule="evenodd" d="M4.53544 7H0.5C0.223858 7 0 7.22386 0 7.5C0 7.77614 0.223858 8 0.5 8H4.53544C4.77806 9.69615 6.23676 11 8 11C9.76324 11 11.2219 9.69615 11.4646 8H15.5C15.7761 8 16 7.77614 16 7.5C16 7.22386 15.7761 7 15.5 7H11.4646C11.2219 5.30385 9.76324 4 8 4C6.23676 4 4.77806 5.30385 4.53544 7ZM5.5 7.5C5.5 6.11929 6.61929 5 8 5C9.38071 5 10.5 6.11929 10.5 7.5C10.5 8.88071 9.38071 10 8 10C6.61929 10 5.5 8.88071 5.5 7.5Z" fill="#0E1011"/>
</svg>
