<svg viewBox="0 0 16 16" fill="none" xmlns="http://www.w3.org/2000/svg">
<path fill-rule="evenodd" clip-rule="evenodd" d="M14.2943 8.00004C14.2943 11.4791 11.4739 14.2995 7.99479 14.2995C4.51569 14.2995 1.69531 11.4791 1.69531 8.00004C1.69531 4.52094 4.51569 1.70056 7.99479 1.70056C11.4739 1.70056 14.2943 4.52094 14.2943 8.00004ZM15.2943 8.00004C15.2943 12.0314 12.0262 15.2995 7.99479 15.2995C3.9634 15.2995 0.695312 12.0314 0.695312 8.00004C0.695312 3.96865 3.9634 0.700562 7.99479 0.700562C12.0262 0.700562 15.2943 3.96865 15.2943 8.00004ZM5 6.25012C5 5.69784 5.44772 5.25012 6 5.25012C6.55228 5.25012 7 5.69784 7 6.25012C7 6.80241 6.55228 7.25012 6 7.25012C5.44772 7.25012 5 6.80241 5 6.25012ZM9 6.25012C9 5.69784 9.44772 5.25012 10 5.25012C10.5523 5.25012 11 5.69784 11 6.25012C11 6.80241 10.5523 7.25012 10 7.25012C9.44772 7.25012 9 6.80241 9 6.25012ZM5.35355 9.89657C5.98857 10.5316 6.97424 10.8751 8 10.8751C9.02576 10.8751 10.0114 10.5316 10.6464 9.89657C10.8417 9.70131 11.1583 9.70131 11.3536 9.89657C11.5488 10.0918 11.5488 10.4084 11.3536 10.6037C10.4886 11.4687 9.22424 11.8751 8 11.8751C6.77576 11.8751 5.51143 11.4687 4.64645 10.6037C4.45118 10.4084 4.45118 10.0918 4.64645 9.89657C4.84171 9.70131 5.15829 9.70131 5.35355 9.89657Z" fill="#0E1011"/>
</svg>
