<svg viewBox="0 0 16 16" fill="none" xmlns="http://www.w3.org/2000/svg">
<path fill-rule="evenodd" clip-rule="evenodd" d="M13.2678 1.72142C12.2915 0.751204 10.7085 0.751204 9.73224 1.72142L2.68199 8.72766C1.31515 10.086 1.31515 12.2882 2.68198 13.6465L3.02513 13.9875C4.39196 15.3458 6.60804 15.3458 7.97488 13.9875L13.4038 8.59251L14.1109 9.2952L8.68198 14.6902C6.92462 16.4366 4.07538 16.4366 2.31802 14.6902L1.97488 14.3492C0.217518 12.6028 0.217523 9.77136 1.97488 8.02497L9.02513 1.01873C10.392 -0.339576 12.608 -0.339576 13.9749 1.01873C15.3417 2.37703 15.3417 4.57927 13.9749 5.93758L7.22626 12.6441C6.27695 13.5875 4.72712 13.5518 3.8227 12.5658C2.97555 11.6423 3.00865 10.2201 3.89785 9.33643L9.40378 3.86488L10.1109 4.56757L4.60496 10.0391C4.09357 10.5473 4.07454 11.3652 4.56174 11.8964C5.08188 12.4634 5.9732 12.4839 6.51916 11.9414L13.2678 5.23488C14.2441 4.26467 14.2441 2.69164 13.2678 1.72142Z" fill="#0E1011"/>
</svg>
