<svg viewBox="0 0 12 12" fill="none" xmlns="http://www.w3.org/2000/svg">
<path fill-rule="evenodd" clip-rule="evenodd" d="M4.79551 10.6402C4.94196 10.4937 4.94196 10.2563 4.79551 10.1098L2.43568 7.75H7.90534C9.5622 7.75 10.9053 6.40685 10.9053 4.75V1.375C10.9053 1.16789 10.7375 1 10.5303 1C10.3232 1 10.1553 1.16789 10.1553 1.375V4.75C10.1553 5.99264 9.14799 7 7.90534 7H2.43568L4.79551 4.64016C4.94196 4.49372 4.94196 4.25628 4.79551 4.10983C4.64906 3.96339 4.41163 3.96339 4.26518 4.10983L1.00002 7.375L4.26518 10.6402C4.41163 10.7866 4.64906 10.7866 4.79551 10.6402Z" fill="#0E1011"/>
</svg>
