<svg viewBox="0 0 12 12" fill="none" xmlns="http://www.w3.org/2000/svg">
<path fill-rule="evenodd" clip-rule="evenodd" d="M3.99773 5.59055C3.7094 5.13514 3.80082 4.56428 4.15563 4.20947L4.64048 3.72462C4.43075 3.07605 4.29922 2.24827 4.2393 1.56424C4.23731 1.54149 4.22676 1.52149 4.21377 1.50893C4.20788 1.50325 4.20346 1.50102 4.20194 1.50038C4.20105 1.50001 4.201 1.5 4.2 1.5H2.25C1.80935 1.5 1.55358 1.83852 1.59327 2.1511C1.80084 3.78597 2.33691 5.47328 3.07236 6.54945C3.73284 7.51594 4.5759 8.34799 5.55161 8.99572C6.60541 9.69529 8.2529 10.206 9.84821 10.4072C10.1616 10.4467 10.5 10.1903 10.5 9.75V7.8C10.5 7.79896 10.5 7.79888 10.4996 7.79798C10.499 7.79648 10.4968 7.79216 10.4913 7.78643C10.479 7.77379 10.4598 7.76371 10.4379 7.76187C9.79578 7.70751 9.01963 7.59218 8.40855 7.40948L7.90358 7.91445C7.5543 8.26373 6.99493 8.35856 6.54133 8.08393C5.51245 7.46101 4.64046 6.60573 3.99773 5.59055ZM0.849243 2.24556C1.06569 3.9504 1.62785 5.76497 2.45314 6.97262C3.1681 8.01883 4.08055 8.91937 5.1368 9.62057C6.32037 10.4063 8.09211 10.9417 9.75439 11.1513C10.5763 11.2549 11.25 10.5784 11.25 9.75V7.8C11.25 7.38579 10.9139 7.04947 10.5012 7.01454C9.81233 6.95623 9.00555 6.82734 8.45783 6.63773C8.30961 6.58642 8.14201 6.61536 8.0311 6.72627L7.37325 7.38412C7.25516 7.50221 7.07263 7.52885 6.92976 7.44236C6.00022 6.87958 5.21214 6.10661 4.6314 5.18936C4.54063 5.04599 4.56597 4.85979 4.68596 4.7398L5.32775 4.09801C5.44106 3.9847 5.46856 3.81252 5.41255 3.66239C5.19646 3.08309 5.05028 2.22765 4.98644 1.49879C4.95029 1.08616 4.61422 0.75 4.2 0.75H2.25C1.42157 0.75 0.744901 1.42373 0.849243 2.24556Z" fill="#0E1011"/>
</svg>
