<svg viewBox="0 0 12 12" fill="none" xmlns="http://www.w3.org/2000/svg">
<path fill-rule="evenodd" clip-rule="evenodd" d="M5.64286 1C3.07868 1 1 3.07868 1 5.64286V9.77089C1 10.2321 1.2951 10.6415 1.73261 10.7873L2.15069 10.9267C2.29635 10.9752 2.44889 11 2.60244 11H2.78571C3.37745 11 3.85714 10.5203 3.85714 9.92857V7.78571C3.85714 7.19398 3.37745 6.71429 2.78571 6.71429H2.60244C2.44889 6.71429 2.29635 6.73904 2.15069 6.7876L1.71429 6.93306V5.64286C1.71429 3.47317 3.47317 1.71429 5.64286 1.71429H6.35714C8.52683 1.71429 10.2857 3.47317 10.2857 5.64286V6.93306L9.84931 6.7876C9.70365 6.73904 9.55111 6.71429 9.39756 6.71429H9.21429C8.62255 6.71429 8.14286 7.19398 8.14286 7.78571V9.92857C8.14286 10.5203 8.62255 11 9.21429 11H9.39756C9.55111 11 9.70365 10.9752 9.84931 10.9267L10.2674 10.7873C10.7049 10.6415 11 10.2321 11 9.77089V5.64286C11 3.07868 8.92132 1 6.35714 1H5.64286ZM1.71429 7.96429V7.68599L2.37656 7.46523C2.4494 7.44095 2.52567 7.42857 2.60244 7.42857H2.78571C2.98296 7.42857 3.14286 7.58847 3.14286 7.78571V9.92857C3.14286 10.1258 2.98296 10.2857 2.78571 10.2857H2.60244C2.52567 10.2857 2.4494 10.2733 2.37656 10.2491L1.95849 10.1097C1.81265 10.0611 1.71429 9.92461 1.71429 9.77089V9.03571H2.78571V8.67857H1.71429V8.32143H2.78571V7.96429H1.71429ZM9.62344 7.46523L10.2857 7.68599V7.96429H9.21429V8.32143H10.2857V8.67857H9.21429V9.03571H10.2857V9.77089C10.2857 9.92461 10.1873 10.0611 10.0415 10.1097L9.62344 10.2491C9.5506 10.2733 9.47433 10.2857 9.39756 10.2857H9.21429C9.01704 10.2857 8.85714 10.1258 8.85714 9.92857V7.78571C8.85714 7.58847 9.01704 7.42857 9.21429 7.42857H9.39756C9.47433 7.42857 9.5506 7.44095 9.62344 7.46523Z" fill="#0E1011"/>
</svg>
