<svg viewBox="0 0 16 16" fill="none" xmlns="http://www.w3.org/2000/svg">
<path fill-rule="evenodd" clip-rule="evenodd" d="M1.10355 0.396447C0.908291 0.201184 0.591709 0.201184 0.396447 0.396447C0.201184 0.591709 0.201184 0.908291 0.396447 1.10355L1.44224 2.14935C0.598648 2.47394 0 3.29206 0 4.25V11.75C0 12.9926 1.00736 14 2.25 14H13.2929L14.8964 15.6036C15.0917 15.7988 15.4083 15.7988 15.6036 15.6036C15.7988 15.4083 15.7988 15.0917 15.6036 14.8964L1.10355 0.396447ZM2.25 3H2.29289L4.9292 5.63631C4.42515 6.2903 4.125 7.11034 4.125 8C4.125 10.1401 5.8599 11.875 8 11.875C8.88966 11.875 9.7097 11.5748 10.3637 11.0708L12.2929 13H2.25C1.55964 13 1 12.4404 1 11.75V4.25C1 3.55964 1.55964 3 2.25 3ZM9.82788 10.535L5.46501 6.17212C5.09358 6.6862 4.875 7.31735 4.875 8C4.875 9.72589 6.27411 11.125 8 11.125C8.68265 11.125 9.3138 10.9064 9.82788 10.535Z" fill="#0E1011"/>
<path d="M5.70711 1C5.44189 1 5.18754 1.10536 5 1.29289L4.64645 1.64645C4.45118 1.84171 4.45118 2.15829 4.64645 2.35355C4.84171 2.54882 5.15829 2.54882 5.35355 2.35355L5.70711 2L10.2929 2L11 2.70711C11.1875 2.89464 11.4419 3 11.7071 3H13.75C14.4404 3 15 3.55964 15 4.25V11.75C15 11.9102 14.9701 12.0622 14.9161 12.2016C14.8163 12.459 14.9441 12.7487 15.2016 12.8485C15.459 12.9483 15.7487 12.8205 15.8485 12.563C15.9465 12.3102 16 12.0357 16 11.75V4.25C16 3.00736 14.9926 2 13.75 2L11.7071 2L11 1.29289C10.8125 1.10536 10.5581 1 10.2929 1H5.70711Z" fill="#0E1011"/>
<path d="M7.5809 4.90282C7.71781 4.88449 7.8577 4.875 8 4.875C9.72589 4.875 11.125 6.27411 11.125 8C11.125 8.1423 11.1155 8.28219 11.0972 8.4191C11.0697 8.62438 11.2138 8.81307 11.4191 8.84055C11.6244 8.86803 11.8131 8.7239 11.8405 8.51863C11.8633 8.34881 11.875 8.17568 11.875 8C11.875 5.8599 10.1401 4.125 8 4.125C7.82432 4.125 7.65119 4.13671 7.48137 4.15945C7.2761 4.18693 7.13197 4.37562 7.15945 4.5809C7.18693 4.78617 7.37562 4.9303 7.5809 4.90282Z" fill="#0E1011"/>
</svg>
