<svg viewBox="0 0 16 16" fill="none" xmlns="http://www.w3.org/2000/svg">
<path fill-rule="evenodd" clip-rule="evenodd" d="M6.47059 0.63279L0.61765 3.0547C0.243799 3.20939 0 3.57412 0 3.97872V12.0211C0 12.4257 0.243799 12.7905 0.61765 12.9452L6.47059 15.3671C7.44993 15.7723 8.55007 15.7723 9.52941 15.3671L15.3824 12.9452C15.7562 12.7905 16 12.4257 16 12.0211V3.97871C16 3.57412 15.7562 3.20939 15.3824 3.0547L9.52941 0.63279C8.55007 0.227547 7.44993 0.227546 6.47059 0.63279ZM1.95137 3.79228C1.69861 3.68106 1.40356 3.79581 1.29234 4.04856C1.18113 4.30132 1.29587 4.59638 1.54863 4.70759L7.5 7.32619V13.9999C7.5 14.2761 7.72386 14.4999 8 14.4999C8.27614 14.4999 8.5 14.2761 8.5 13.9999V7.32619L14.4514 4.70759C14.7041 4.59638 14.8189 4.30132 14.7077 4.04856C14.5964 3.79581 14.3014 3.68106 14.0486 3.79228L8 6.45367L1.95137 3.79228Z" fill="#0E1011"/>
</svg>
