<svg viewBox="0 0 16 16" fill="none" xmlns="http://www.w3.org/2000/svg">
<path fill-rule="evenodd" clip-rule="evenodd" d="M13.9684 7.48421C13.9684 9.10995 13.3701 10.5959 12.3817 11.734C12.4443 11.7584 12.503 11.7959 12.5535 11.8464L14.9114 14.2043C15.1067 14.3996 15.1067 14.7161 14.9114 14.9114C14.7161 15.1067 14.3996 15.1067 14.2043 14.9114L11.8464 12.5535C11.7959 12.503 11.7584 12.4443 11.734 12.3817C10.5959 13.3701 9.10995 13.9684 7.48421 13.9684C3.90308 13.9684 1 11.0653 1 7.48421C1 3.90308 3.90308 1 7.48421 1C11.0653 1 13.9684 3.90308 13.9684 7.48421ZM7.98421 5.12632C7.98421 4.85017 7.76035 4.62632 7.48421 4.62632C7.20807 4.62632 6.98421 4.85017 6.98421 5.12632V6.98421H5.12632C4.85017 6.98421 4.62632 7.20807 4.62632 7.48421C4.62632 7.76035 4.85017 7.98421 5.12632 7.98421H6.98421V9.8421C6.98421 10.1182 7.20807 10.3421 7.48421 10.3421C7.76035 10.3421 7.98421 10.1182 7.98421 9.8421V7.98421H9.8421C10.1182 7.98421 10.3421 7.76035 10.3421 7.48421C10.3421 7.20807 10.1182 6.98421 9.8421 6.98421H7.98421V5.12632Z" fill="#0E1011"/>
</svg>
