<svg viewBox="0 0 12 12" fill="none" xmlns="http://www.w3.org/2000/svg">
<path d="M4.875 1.875C4.875 1.66789 4.70711 1.5 4.5 1.5C4.29289 1.5 4.125 1.66789 4.125 1.875V3.375C4.125 3.78921 3.78921 4.125 3.375 4.125H1.875C1.66789 4.125 1.5 4.29289 1.5 4.5C1.5 4.70711 1.66789 4.875 1.875 4.875H3.375C4.20343 4.875 4.875 4.20343 4.875 3.375V1.875Z" fill="#0E1011"/>
<path d="M4.875 10.125C4.875 10.3321 4.70711 10.5 4.5 10.5C4.29289 10.5 4.125 10.3321 4.125 10.125V8.625C4.125 8.21079 3.78921 7.875 3.375 7.875H1.875C1.66789 7.875 1.5 7.70711 1.5 7.5C1.5 7.29289 1.66789 7.125 1.875 7.125H3.375C4.20343 7.125 4.875 7.79657 4.875 8.625V10.125Z" fill="#0E1011"/>
<path d="M7.5 1.5C7.29289 1.5 7.125 1.66789 7.125 1.875V3.375C7.125 4.20343 7.79657 4.875 8.625 4.875H10.125C10.3321 4.875 10.5 4.70711 10.5 4.5C10.5 4.29289 10.3321 4.125 10.125 4.125H8.625C8.21079 4.125 7.875 3.78921 7.875 3.375V1.875C7.875 1.66789 7.70711 1.5 7.5 1.5Z" fill="#0E1011"/>
<path d="M7 10C7 10.2071 7.16789 10.375 7.375 10.375C7.58211 10.375 7.75 10.2071 7.75 10V8.5C7.75 8.08579 8.08579 7.75 8.5 7.75H10C10.2071 7.75 10.375 7.58211 10.375 7.375C10.375 7.16789 10.2071 7 10 7H8.5C7.67157 7 7 7.67157 7 8.5V10Z" fill="#0E1011"/>
</svg>
