<svg viewBox="0 0 16 16" fill="none" xmlns="http://www.w3.org/2000/svg">
<path d="M8 10C10.7614 10 13 7.76142 13 5C13 2.23858 10.7614 0 8 0C5.23858 0 3 2.23858 3 5C3 7.76142 5.23858 10 8 10Z" fill="#0E1011"/>
<path d="M4.00583 15.424L4.82602 10.0927C5.74669 10.6677 6.83454 11 8 11C9.16547 11 10.2533 10.6677 11.174 10.0927L11.9942 15.424C12.0234 15.6137 11.9414 15.8033 11.7832 15.9121C11.625 16.0208 11.4186 16.0293 11.2519 15.9341L8.00001 14.0759L4.74808 15.9341C4.58144 16.0293 4.37499 16.0208 4.21681 15.9121C4.05863 15.8033 3.97664 15.6137 4.00583 15.424Z" fill="#0E1011"/>
</svg>
