<svg viewBox="0 0 16 16" fill="none" xmlns="http://www.w3.org/2000/svg">
<path d="M15.8536 0.853553C16.0489 0.658291 16.0489 0.341709 15.8536 0.146447C15.6583 -0.0488155 15.3417 -0.0488155 15.1465 0.146447L11 4.29289V1.5C11 1.22386 10.7762 1 10.5 1C10.2239 1 10 1.22386 10 1.5V6H14.5C14.7762 6 15 5.77614 15 5.5C15 5.22386 14.7762 5 14.5 5H11.7071L15.8536 0.853553Z" fill="#0E1011"/>
<path fill-rule="evenodd" clip-rule="evenodd" d="M3.27089 9.29683C2.17051 7.68663 1.42097 5.26721 1.13236 2.99408C0.993243 1.89831 1.89547 1 3.00004 1H5.60004C6.15233 1 6.60043 1.44821 6.64863 1.99839C6.73375 2.9702 6.92866 4.11078 7.21678 4.88319C7.29145 5.08336 7.25478 5.31294 7.1037 5.46401L6.24799 6.31973C6.088 6.47971 6.05421 6.72798 6.17524 6.91914C6.94955 8.14215 8.00033 9.17277 9.23972 9.92314C9.43021 10.0385 9.67358 10.0029 9.83104 9.84549L10.7082 8.96835C10.8561 8.82048 11.0795 8.78189 11.2771 8.8503C12.0074 9.10313 13.0831 9.27497 14.0016 9.35272C14.552 9.3993 15 9.84771 15 10.4V13C15 14.1046 14.1018 15.0065 13.0059 14.8684C10.7895 14.5889 8.4272 13.875 6.84911 12.8274C5.44078 11.8925 4.22418 10.6918 3.27089 9.29683ZM5.54088 5.61262C5.0678 6.08571 4.9459 6.84686 5.33034 7.45407C6.18731 8.80763 7.34998 9.94801 8.72181 10.7786C9.32661 11.1447 10.0724 11.0183 10.5381 10.5526L11.2114 9.87931C12.0262 10.1229 13.0611 10.2767 13.9173 10.3492C13.9464 10.3516 13.9721 10.3651 13.9884 10.3819C13.9958 10.3895 13.9987 10.3953 13.9995 10.3973L14 10.4V13C14 13.5871 13.5489 13.9289 13.131 13.8762C11.0039 13.608 8.80726 12.927 7.40219 11.9943C6.10124 11.1306 4.97716 10.0213 4.09652 8.7326C3.11593 7.29771 2.40116 5.04796 2.1244 2.86813C2.07149 2.45136 2.41251 2 3.00004 2H5.60004L5.60263 2.00051C5.60465 2.00136 5.61055 2.00433 5.6184 2.01191C5.63572 2.02866 5.64978 2.05532 5.65244 2.08565C5.73233 2.9977 5.90771 4.1014 6.18735 4.96615L5.54088 5.61262Z" fill="#0E1011"/>
</svg>
