<svg width="13" viewBox="0 0 13 12" fill="none" xmlns="http://www.w3.org/2000/svg">
<path fill-rule="evenodd" clip-rule="evenodd" d="M9.75 2.87487C9.74993 1.83939 8.91049 1 7.875 1H1.875C0.839466 1 0 1.83947 0 2.875V8.125C0 9.16053 0.839466 10 1.875 10H4.63374C4.54868 9.85293 4.5 9.68218 4.5 9.50006C4.5 8.94778 4.94772 8.50006 5.5 8.50006H9.08584L8.79288 8.2071C8.40236 7.81656 8.40237 7.1834 8.7929 6.79288C9.18344 6.40236 9.8166 6.40237 10.2071 6.7929L10.5 7.0858V4.375C10.5 3.76157 10.2054 3.21694 9.75 2.87487ZM8.25 6.25C8.25 6.66421 7.91421 7 7.5 7C7.08579 7 6.75 6.66421 6.75 6.25C6.75 5.83579 7.08579 5.5 7.5 5.5C7.91421 5.5 8.25 5.83579 8.25 6.25ZM1 3V2.74999C1 2.33578 1.33578 2 1.74999 1.99999L7.74999 1.99995C8.30228 1.99994 8.75 2.44771 8.75 3H1ZM9.76517 7.23484C9.61872 7.08839 9.38129 7.08839 9.23484 7.23483C9.08839 7.38127 9.08839 7.61871 9.23483 7.76516L10.5947 9.12506H5.5C5.29289 9.12506 5.125 9.29296 5.125 9.50006C5.125 9.70717 5.29289 9.87506 5.5 9.87506H10.5946L9.23484 11.2348C9.08839 11.3813 9.08839 11.6187 9.23483 11.7652C9.38128 11.9116 9.61871 11.9116 9.76516 11.7652L11.7652 9.76523L12.0303 9.50007L11.7652 9.2349L9.76517 7.23484Z" fill="#0E1011"/>
</svg>
