<svg viewBox="0 0 16 16" fill="none" xmlns="http://www.w3.org/2000/svg">
<path fill-rule="evenodd" clip-rule="evenodd" d="M11.312 0H4.688L0 4.688V11.312L4.688 16H11.312L16 11.312V4.688L11.312 0ZM8.875 5C8.875 4.51675 8.48325 4.125 8 4.125C7.51675 4.125 7.125 4.51675 7.125 5L7.125 8.5C7.125 8.98325 7.51675 9.375 8 9.375C8.48325 9.375 8.875 8.98325 8.875 8.5V5ZM8.875 10.5C8.875 10.0168 8.48325 9.62502 8 9.62502C7.51675 9.62502 7.125 10.0168 7.125 10.5V11C7.125 11.4833 7.51675 11.875 8 11.875C8.48325 11.875 8.875 11.4833 8.875 11V10.5Z" fill="#0E1011"/>
</svg>
