<svg viewBox="0 0 16 16" fill="none" xmlns="http://www.w3.org/2000/svg">
<path fill-rule="evenodd" clip-rule="evenodd" d="M6.45934 4C5.96526 4 5.48866 4.18289 5.12141 4.51341L1.24742 8L5.12141 11.4866C5.48866 11.8171 5.96526 12 6.45934 12H13.75C14.4404 12 15 11.4404 15 10.75V5.25C15 4.55964 14.4404 4 13.75 4H6.45934ZM4.45245 3.77012C5.00332 3.27433 5.71821 3 6.45934 3H13.75C14.9926 3 16 4.00736 16 5.25V10.75C16 11.9926 14.9926 13 13.75 13H6.45934C5.71821 13 5.00332 12.7257 4.45245 12.2299L0.165518 8.37165C0.0601607 8.27683 0 8.14174 0 8C0 7.85826 0.0601607 7.72317 0.165518 7.62835L4.45245 3.77012ZM7.64645 5.64645C7.84171 5.45118 8.15829 5.45118 8.35355 5.64645L10 7.29289L11.6464 5.64645C11.8417 5.45118 12.1583 5.45118 12.3536 5.64645C12.5488 5.84171 12.5488 6.15829 12.3536 6.35355L10.7071 8L12.3536 9.64645C12.5488 9.84171 12.5488 10.1583 12.3536 10.3536C12.1583 10.5488 11.8417 10.5488 11.6464 10.3536L10 8.70711L8.35355 10.3536C8.15829 10.5488 7.84171 10.5488 7.64645 10.3536C7.45118 10.1583 7.45118 9.84171 7.64645 9.64645L9.29289 8L7.64645 6.35355C7.45118 6.15829 7.45118 5.84171 7.64645 5.64645Z" fill="#0E1011"/>
</svg>
