<svg viewBox="0 0 16 16" fill="none" xmlns="http://www.w3.org/2000/svg">
<path d="M10 0.5C10 0.223858 10.2239 0 10.5 0C10.7761 0 11 0.223858 11 0.5V2.5C11 2.77614 10.7761 3 10.5 3C10.2239 3 10 2.77614 10 2.5V0.5Z" fill="#0E1011"/>
<path d="M5 0.5C5 0.223858 5.22386 0 5.5 0C5.77614 0 6 0.223858 6 0.5V2.5C6 2.77614 5.77614 3 5.5 3C5.22386 3 5 2.77614 5 2.5V0.5Z" fill="#0E1011"/>
<path d="M15 3.25C15 2.55964 14.4404 2 13.75 2H12.5C12.2239 2 12 1.77614 12 1.5C12 1.22386 12.2239 1 12.5 1H13.75C14.9926 1 16 2.00736 16 3.25V12.75C16 13.9926 14.9926 15 13.75 15H2.25C1.00736 15 0 13.9926 0 12.75V3.25C0 2.00736 1.00736 1 2.25 1H3.5C3.77614 1 4 1.22386 4 1.5C4 1.77614 3.77614 2 3.5 2H2.25C1.55964 2 1 2.55964 1 3.25V12.75C1 13.4404 1.55964 14 2.25 14H13.75C14.4404 14 15 13.4404 15 12.75V3.25Z" fill="#0E1011"/>
<path d="M9 2H7V1H9V2Z" fill="#0E1011"/>
<path d="M13.5 5.125C13.7071 5.125 13.875 5.29289 13.875 5.5C13.875 5.70711 13.7071 5.875 13.5 5.875H2.5C2.29289 5.875 2.125 5.70711 2.125 5.5C2.125 5.29289 2.29289 5.125 2.5 5.125H13.5Z" fill="#0E1011"/>
</svg>
