<svg viewBox="0 0 16 16" fill="none" xmlns="http://www.w3.org/2000/svg">
<path fill-rule="evenodd" clip-rule="evenodd" d="M10 1.5C11.4865 1.5 12.7205 2.58114 12.9585 4H15.25C15.5261 4 15.75 4.22386 15.75 4.5C15.75 4.77614 15.5261 5 15.25 5H12.9585C12.7205 6.41886 11.4865 7.5 10 7.5C8.34315 7.5 7 6.15685 7 4.5C7 2.84315 8.34315 1.5 10 1.5ZM10 2.5C8.89543 2.5 8 3.39543 8 4.5C8 5.60457 8.89543 6.5 10 6.5C11.1046 6.5 12 5.60457 12 4.5C12 3.39543 11.1046 2.5 10 2.5Z" fill="#0E1011"/>
<path d="M0.25 4.5C0.25 4.22386 0.473858 4 0.75 4H5.5C5.77614 4 6 4.22386 6 4.5C6 4.77614 5.77614 5 5.5 5H0.75C0.473858 5 0.25 4.77614 0.25 4.5Z" fill="#0E1011"/>
<path fill-rule="evenodd" clip-rule="evenodd" d="M6 8.5C4.5135 8.5 3.27952 9.58114 3.04148 11H0.75C0.473858 11 0.25 11.2239 0.25 11.5C0.25 11.7761 0.473858 12 0.75 12H3.04148C3.27952 13.4189 4.5135 14.5 6 14.5C7.65685 14.5 9 13.1569 9 11.5C9 9.84315 7.65685 8.5 6 8.5ZM6 9.5C7.10457 9.5 8 10.3954 8 11.5C8 12.6046 7.10457 13.5 6 13.5C4.89543 13.5 4 12.6046 4 11.5C4 10.3954 4.89543 9.5 6 9.5Z" fill="#0E1011"/>
<path d="M15.75 11.5C15.75 11.2239 15.5261 11 15.25 11H10.5C10.2239 11 10 11.2239 10 11.5C10 11.7761 10.2239 12 10.5 12H15.25C15.5261 12 15.75 11.7761 15.75 11.5Z" fill="#0E1011"/>
</svg>
