<svg viewBox="0 0 16 16" fill="none" xmlns="http://www.w3.org/2000/svg">
<path fill-rule="evenodd" clip-rule="evenodd" d="M2.25 2C1.00736 2 0 3.00736 0 4.25V11.75C0 12.9926 1.00736 14 2.25 14H13.75C14.9926 14 16 12.9926 16 11.75V4.25C16 3.00736 14.9926 2 13.75 2H2.25ZM2.5 5C2.22386 5 2 5.22386 2 5.5C2 5.77614 2.22386 6 2.5 6H3C5.76142 6 8 8.23858 8 11V11.5C8 11.7761 8.22386 12 8.5 12C8.77614 12 9 11.7761 9 11.5V11C9 7.68629 6.31371 5 3 5H2.5ZM2.5 8C2.22386 8 2 8.22386 2 8.5C2 8.77614 2.22386 9 2.5 9H3C4.10457 9 5 9.89543 5 11V11.5C5 11.7761 5.22386 12 5.5 12C5.77614 12 6 11.7761 6 11.5V11C6 9.34315 4.65685 8 3 8H2.5Z" fill="#0E1011"/>
</svg>
