<svg viewBox="0 0 16 16" fill="none" xmlns="http://www.w3.org/2000/svg">
<path fill-rule="evenodd" clip-rule="evenodd" d="M13 4.49982C12.9999 3.11919 11.8807 2 10.5 2H2.5C1.11929 2 0 3.11929 0 4.5V11.5C0 12.8807 1.11929 14 2.5 14H6.08535C6.03008 13.8436 6 13.6753 6 13.5C6 12.6716 6.67157 12 7.5 12H12.0854C11.8993 11.4723 12.0173 10.8614 12.4393 10.4393C12.8614 10.0173 13.4723 9.89933 14 10.0854V6.5C14 5.68209 13.6072 4.95592 13 4.49982ZM12.0001 4H1.72042C0.999996 4 1.38792 3.40809 1.76765 3.15494C1.91919 3.05391 2.09725 3 2.27938 3H10.882C11.2608 3 11.6071 3.214 11.7765 3.55279L12.0001 4ZM10.0001 10C10.5523 10 11.0001 9.55228 11.0001 9C11.0001 8.44772 10.5523 8 10.0001 8C9.44778 8 9.00006 8.44772 9.00006 9C9.00006 9.55228 9.44778 10 10.0001 10Z" fill="#0E1011"/>
<path d="M13.8536 11.1464C13.6583 10.9512 13.3417 10.9512 13.1464 11.1464C12.9512 11.3417 12.9512 11.6583 13.1464 11.8536L14.2929 13H7.5C7.22386 13 7 13.2239 7 13.5C7 13.7761 7.22386 14 7.5 14H14.2929L13.1464 15.1464C12.9512 15.3417 12.9512 15.6583 13.1464 15.8536C13.3417 16.0488 13.6583 16.0488 13.8536 15.8536L15.8536 13.8536C16.0488 13.6583 16.0488 13.3417 15.8536 13.1464L13.8536 11.1464Z" fill="#0E1011"/>
</svg>
