<svg viewBox="0 0 16 16" fill="none" xmlns="http://www.w3.org/2000/svg">
<path fill-rule="evenodd" clip-rule="evenodd" d="M5 5.5C5 5.22386 5.22386 5 5.5 5H10.5C10.7761 5 11 5.22386 11 5.5V10.5C11 10.7761 10.7761 11 10.5 11H5.5C5.22386 11 5 10.7761 5 10.5V5.5ZM6 6V10H10V6H6Z" fill="#0E1011"/>
<path fill-rule="evenodd" clip-rule="evenodd" d="M15.2943 7.99992C15.2943 12.0313 12.0262 15.2994 7.99479 15.2994C3.9634 15.2994 0.695312 12.0313 0.695312 7.99992C0.695312 3.96853 3.9634 0.700439 7.99479 0.700439C12.0262 0.700439 15.2943 3.96853 15.2943 7.99992ZM14.2943 7.99992C14.2943 11.479 11.4739 14.2994 7.99479 14.2994C4.51569 14.2994 1.69531 11.479 1.69531 7.99992C1.69531 4.52081 4.51569 1.70044 7.99479 1.70044C11.4739 1.70044 14.2943 4.52081 14.2943 7.99992Z" fill="#0E1011"/>
</svg>
