<svg viewBox="0 0 12 12" fill="none" xmlns="http://www.w3.org/2000/svg">
<path d="M3.75 5.625C3.75 5.41789 3.91789 5.25 4.125 5.25H7.125C7.33211 5.25 7.5 5.41789 7.5 5.625C7.5 5.83211 7.33211 6 7.125 6H4.125C3.91789 6 3.75 5.83211 3.75 5.625Z" fill="#0E1011"/>
<path fill-rule="evenodd" clip-rule="evenodd" d="M0.9375 5.625C0.9375 3.03617 3.03617 0.9375 5.625 0.9375C8.21383 0.9375 10.3125 3.03617 10.3125 5.625C10.3125 6.78442 9.89156 7.84553 9.19417 8.66384L10.3902 9.85983C10.5366 10.0063 10.5366 10.2437 10.3902 10.3902C10.2437 10.5366 10.0063 10.5366 9.85983 10.3902L8.66384 9.19417C7.84553 9.89156 6.78442 10.3125 5.625 10.3125C3.03617 10.3125 0.9375 8.21383 0.9375 5.625ZM5.625 1.6875C3.45038 1.6875 1.6875 3.45038 1.6875 5.625C1.6875 7.79962 3.45038 9.5625 5.625 9.5625C7.79962 9.5625 9.5625 7.79962 9.5625 5.625C9.5625 3.45038 7.79962 1.6875 5.625 1.6875Z" fill="#0E1011"/>
</svg>
