<svg viewBox="0 0 12 12" fill="none" xmlns="http://www.w3.org/2000/svg">
<path fill-rule="evenodd" clip-rule="evenodd" d="M10.5 1C11.3284 1 12 1.67157 12 2.5V3.5C12 4.32843 11.3284 5 10.5 5L1.5 5C0.671573 5 2.26057e-07 4.32843 2.62268e-07 3.5L3.05979e-07 2.5C3.42191e-07 1.67157 0.671573 1 1.5 1L10.5 1ZM11 2.5V3.5C11 3.77614 10.7761 4 10.5 4L1.5 4C1.22386 4 1 3.77614 1 3.5L1 2.5C1 2.22386 1.22386 2 1.5 2L10.5 2C10.7761 2 11 2.22386 11 2.5Z" fill="#0E1011"/>
<path fill-rule="evenodd" clip-rule="evenodd" d="M10.5 7C11.3284 7 12 7.67157 12 8.5V9.5C12 10.3284 11.3284 11 10.5 11H1.5C0.671573 11 -3.62117e-08 10.3284 0 9.5L4.37112e-08 8.5C7.99229e-08 7.67157 0.671573 7 1.5 7L10.5 7ZM11 8.5V9.5C11 9.77614 10.7761 10 10.5 10H1.5C1.22386 10 1 9.77614 1 9.5V8.5C1 8.22386 1.22386 8 1.5 8L10.5 8C10.7761 8 11 8.22386 11 8.5Z" fill="#0E1011"/>
</svg>
