<svg viewBox="0 0 16 16" fill="none" xmlns="http://www.w3.org/2000/svg">
<path fill-rule="evenodd" clip-rule="evenodd" d="M8.84408 15.3631C8.36144 15.8457 7.5478 15.7137 7.24255 15.1032L4.3695 9.35709C4.28695 9.19198 4.21784 9.02112 4.16257 8.84616C3.96277 8.94469 3.73785 9.00005 3.5 9.00005H1.5C0.671573 9.00005 0 8.32848 0 7.50005V1.50005C0 0.671622 0.671573 4.95911e-05 1.5 4.95911e-05H3.5C3.88418 4.95911e-05 4.23462 0.144476 4.5 0.381994C4.76538 0.144473 5.11582 4.57764e-05 5.5 4.57764e-05H10.8937C12.3684 4.57764e-05 13.6848 0.924318 14.1857 2.31129L15.7528 6.65093C16.3412 8.28049 15.1339 10 13.4014 10H9.64039L10.0731 11.7309C10.3713 12.9236 10.0218 14.1853 9.15248 15.0547L8.84408 15.3631ZM4 1.50005V7.50005C4 7.77619 3.77614 8.00005 3.5 8.00005H1.5C1.22386 8.00005 1 7.77619 1 7.50005V1.50005C1 1.22391 1.22386 1.00005 1.5 1.00005H3.5C3.77614 1.00005 4 1.22391 4 1.50005ZM5 1.50005C5 1.2239 5.22386 1.00005 5.5 1.00005H10.8937C11.947 1.00005 12.8874 1.66024 13.2451 2.65094L14.8122 6.99058C15.1653 7.96831 14.4409 9.00005 13.4014 9.00005H9C8.84603 9.00005 8.70065 9.07098 8.6059 9.19234C8.51114 9.3137 8.47759 9.47194 8.51493 9.62131L9.10296 11.9735C9.31595 12.8254 9.06633 13.7266 8.44538 14.3476L8.13698 14.656L5.26393 8.90988C5.09036 8.56274 5 8.17995 5 7.79184V1.50005Z" fill="#0E1011"/>
</svg>
