<svg viewBox="0 0 12 12" fill="none" xmlns="http://www.w3.org/2000/svg">
<path d="M5.625 5.25L6.75 1.5L3.9375 6L6 6.75L4.875 10.5L7.6875 6L5.625 5.25Z" fill="#0E1011"/>
<path d="M0.75 3.9375C0.75 3.41973 1.16973 3 1.6875 3H3.375C3.58211 3 3.75 2.83211 3.75 2.625C3.75 2.41789 3.58211 2.25 3.375 2.25H1.6875C0.755519 2.25 0 3.00552 0 3.9375V8.0625C0 8.99448 0.75552 9.75 1.6875 9.75H3.375C3.58211 9.75 3.75 9.58211 3.75 9.375C3.75 9.16789 3.58211 9 3.375 9H1.6875C1.16973 9 0.75 8.58027 0.75 8.0625V3.9375Z" fill="#0E1011"/>
<path d="M7.875 2.25C7.66789 2.25 7.5 2.41789 7.5 2.625C7.5 2.83211 7.66789 3 7.875 3H9.5625C10.0803 3 10.5 3.41973 10.5 3.9375V8.0625C10.5 8.58027 10.0803 9 9.5625 9H7.875C7.66789 9 7.5 9.16789 7.5 9.375C7.5 9.58211 7.66789 9.75 7.875 9.75H9.5625C10.4945 9.75 11.25 8.99448 11.25 8.0625V7.5H11.4375C11.7482 7.5 12 7.24816 12 6.9375V5.4375C12 5.12684 11.7482 4.875 11.4375 4.875H11.25V3.9375C11.25 3.00552 10.4945 2.25 9.5625 2.25H7.875Z" fill="#0E1011"/>
</svg>
