<svg viewBox="0 0 12 12" fill="none" xmlns="http://www.w3.org/2000/svg">
<path fill-rule="evenodd" clip-rule="evenodd" d="M7.5 0.375C7.5 0.167893 7.66789 0 7.875 0H12V4.125C12 4.33211 11.8321 4.5 11.625 4.5C11.4179 4.5 11.25 4.33211 11.25 4.125V1.28033L5.89016 6.64017C5.74372 6.78661 5.50628 6.78661 5.35984 6.64017C5.21339 6.49372 5.21339 6.25628 5.35984 6.10983L10.7197 0.75H7.875C7.66789 0.75 7.5 0.582107 7.5 0.375ZM1 2.9375C1 2.00552 1.75552 1.25 2.6875 1.25H5.625C5.83211 1.25 6 1.41789 6 1.625C6 1.83211 5.83211 2 5.625 2H2.6875C2.16973 2 1.75 2.41973 1.75 2.9375V9.3125C1.75 9.83027 2.16973 10.25 2.6875 10.25H9.0625C9.58027 10.25 10 9.83027 10 9.3125V6.375C10 6.16789 10.1679 6 10.375 6C10.5821 6 10.75 6.16789 10.75 6.375V9.3125C10.75 10.2445 9.99448 11 9.0625 11H2.6875C1.75552 11 1 10.2445 1 9.3125L1 2.9375Z" fill="#0E1011"/>
</svg>
