<svg viewBox="0 0 16 16" fill="none" xmlns="http://www.w3.org/2000/svg">
<path d="M5.375 10.5C5.375 9.05025 6.55025 7.875 8 7.875C9.44975 7.875 10.625 9.05025 10.625 10.5C10.625 11.9497 9.44975 13.125 8 13.125C6.55025 13.125 5.375 11.9497 5.375 10.5Z" fill="#0E1011"/>
<path fill-rule="evenodd" clip-rule="evenodd" d="M4.5 0C3.11929 0 2 1.11929 2 2.5V13.5C2 14.8807 3.11929 16 4.5 16H11.5C12.8807 16 14 14.8807 14 13.5V2.5C14 1.11929 12.8807 0 11.5 0H4.5ZM9 4C9 4.55228 8.55228 5 8 5C7.44772 5 7 4.55228 7 4C7 3.44772 7.44772 3 8 3C8.55228 3 9 3.44772 9 4ZM8 7.125C6.13604 7.125 4.625 8.63604 4.625 10.5C4.625 12.364 6.13604 13.875 8 13.875C9.86396 13.875 11.375 12.364 11.375 10.5C11.375 8.63604 9.86396 7.125 8 7.125Z" fill="#0E1011"/>
</svg>
