<svg viewBox="0 0 12 12" fill="none" xmlns="http://www.w3.org/2000/svg">
<path d="M9.75489 11.1444C10.575 11.2613 11.25 10.5784 11.25 9.75V8.25C11.25 7.83579 10.9132 7.50439 10.5015 7.45897C9.89585 7.39215 9.31436 7.24522 8.76785 7.029L7.54359 8.25326C7.42886 8.36799 7.25293 8.39663 7.11065 8.31865C5.71015 7.55108 4.54591 6.40612 3.75477 5.0206C3.67316 4.87767 3.70076 4.69855 3.81715 4.58216L5.0279 3.37141C4.78045 2.78478 4.61354 2.15587 4.54102 1.49852C4.4956 1.08681 4.1642 0.75 3.74998 0.75H2.24998C1.42156 0.75 0.7387 1.42495 0.855615 2.24508C1.05706 3.65819 1.53986 4.98063 2.24545 6.15385C3.15699 7.6695 4.44036 8.93612 5.96935 9.8275C7.11165 10.4934 8.39104 10.9499 9.75489 11.1444Z" fill="#0E1011"/>
</svg>
