<svg viewBox="0 0 12 12" fill="none" xmlns="http://www.w3.org/2000/svg">
<path d="M1.45826 1.375C1.45826 1.16789 1.62615 1 1.83326 1C3.03704 1 4.22904 1.2371 5.34119 1.69777C6.45334 2.15844 7.46387 2.83365 8.31507 3.68485C9.16627 4.53606 9.84149 5.54658 10.3022 6.65873C10.7628 7.77089 10.9999 8.96288 10.9999 10.1667C10.9999 10.3738 10.832 10.5417 10.6249 10.5417C10.4178 10.5417 10.2499 10.3738 10.2499 10.1667C10.2499 9.06137 10.0322 7.9669 9.60924 6.94575C9.18627 5.92459 8.5663 4.99674 7.78474 4.21518C7.00318 3.43362 6.07533 2.81366 5.05418 2.39068C4.03302 1.9677 2.93855 1.75 1.83326 1.75C1.62615 1.75 1.45826 1.58211 1.45826 1.375Z" fill="#0E1011"/>
<path d="M1.45841 5.5417C1.45841 5.3346 1.6263 5.1667 1.83341 5.1667C2.49002 5.1667 3.1402 5.29603 3.74682 5.54731C4.35345 5.79858 4.90465 6.16688 5.36894 6.63117C5.83323 7.09546 6.20153 7.64666 6.45281 8.25329C6.70408 8.85991 6.83341 9.51009 6.83341 10.1667C6.83341 10.3738 6.66551 10.5417 6.45841 10.5417C6.2513 10.5417 6.08341 10.3738 6.08341 10.1667C6.08341 9.60859 5.97348 9.05593 5.7599 8.5403C5.54631 8.02467 5.23326 7.55615 4.83861 7.1615C4.44396 6.76685 3.97545 6.4538 3.45981 6.24022C2.94418 6.02663 2.39153 5.9167 1.83341 5.9167C1.6263 5.9167 1.45841 5.74881 1.45841 5.5417Z" fill="#0E1011"/>
<path d="M1.83333 11C2.29357 11 2.66667 10.6269 2.66667 10.1666C2.66667 9.70639 2.29357 9.3333 1.83333 9.3333C1.3731 9.3333 1 9.70639 1 10.1666C1 10.6269 1.3731 11 1.83333 11Z" fill="#0E1011"/>
</svg>
