<svg viewBox="0 0 16 16" fill="none" xmlns="http://www.w3.org/2000/svg">
<path fill-rule="evenodd" clip-rule="evenodd" d="M2 13C2 13.5523 2.44772 14 3 14H5.5C5.77614 14 6 14.2239 6 14.5C6 14.7761 5.77614 15 5.5 15H3C1.89543 15 1 14.1046 1 13V3C1 1.89543 1.89543 1 3 1H5.5C5.77614 1 6 1.22386 6 1.5C6 1.77614 5.77614 2 5.5 2H3C2.44772 2 2 2.44772 2 3V13ZM3.5 8C3.5 7.72386 3.72386 7.5 4 7.5H13.7929L11.6464 5.35355C11.4512 5.15829 11.4512 4.84171 11.6464 4.64645C11.8417 4.45118 12.1583 4.45118 12.3536 4.64645L15.7071 8L12.3536 11.3536C12.1583 11.5488 11.8417 11.5488 11.6464 11.3536C11.4512 11.1583 11.4512 10.8417 11.6464 10.6464L13.7929 8.5H4C3.72386 8.5 3.5 8.27614 3.5 8Z" fill="#0E1011"/>
</svg>
