<svg viewBox="0 0 16 16" fill="none" xmlns="http://www.w3.org/2000/svg">
<path fill-rule="evenodd" clip-rule="evenodd" d="M1.14645 5.85363C1.34171 6.04889 1.65829 6.04889 1.85355 5.85363L5 2.70718V10.0001C5 12.2092 6.79086 14.0001 9 14.0001H13.5C13.7761 14.0001 14 13.7762 14 13.5001C14 13.2239 13.7761 13.0001 13.5 13.0001H9C7.34315 13.0001 6 11.6569 6 10.0001V2.70718L9.14645 5.85363C9.34171 6.04889 9.65829 6.04889 9.85355 5.85363C10.0488 5.65837 10.0488 5.34178 9.85355 5.14652L5.5 0.792969L1.14645 5.14652C0.951184 5.34178 0.951184 5.65837 1.14645 5.85363Z" fill="#0E1011"/>
</svg>
