<svg viewBox="0 0 16 16" fill="none" xmlns="http://www.w3.org/2000/svg">
<path fill-rule="evenodd" clip-rule="evenodd" d="M13 4.49982C12.9999 3.11919 11.8807 2 10.5 2H2.5C1.11929 2 0 3.11929 0 4.5V11.5C0 12.8807 1.11929 14 2.5 14H5.81802L5.37868 13.5607L8.43934 10.5C9.02513 9.91421 9.97487 9.91421 10.5607 10.5C10.9827 10.922 11.1007 11.533 10.9146 12.0607H13.9369C13.9782 11.8804 14 11.6928 14 11.5V6.5C14 5.68209 13.6072 4.95592 13 4.49982ZM12.0001 4H2.02352C1.56714 4 1.38792 3.40809 1.76765 3.15494C1.91919 3.05391 2.09725 3 2.27938 3H10.882C11.2608 3 11.6071 3.214 11.7765 3.55279L12.0001 4ZM10.0001 9C10.5523 9 11.0001 8.55228 11.0001 8C11.0001 7.44772 10.5523 7 10.0001 7C9.44778 7 9.00006 7.44772 9.00006 8C9.00006 8.55228 9.44778 9 10.0001 9ZM9.14645 11.1464C9.34171 10.9512 9.65829 10.9512 9.85355 11.1464C10.0488 11.3417 10.0488 11.6583 9.85355 11.8536L8.70711 13H15.5C15.7761 13 16 13.2239 16 13.5C16 13.7761 15.7761 14 15.5 14H8.70711L9.85355 15.1464C10.0488 15.3417 10.0488 15.6583 9.85355 15.8536C9.65829 16.0488 9.34171 16.0488 9.14645 15.8536L7.14645 13.8536C6.95118 13.6583 6.95118 13.3417 7.14645 13.1464L9.14645 11.1464Z" fill="#0E1011"/>
</svg>
