<svg viewBox="0 0 16 16" fill="none" xmlns="http://www.w3.org/2000/svg">
<path d="M11.1663 2.0045C11.0585 2.1671 10.9998 2.35904 10.9998 2.55702V3.99995C10.9998 4.55223 11.4475 4.99995 11.9998 4.99995H13.4427C13.6408 4.99995 13.8328 4.94118 13.9955 4.8333C14.0506 4.79673 14.1024 4.75453 14.1498 4.70705L14.8705 3.98642C14.955 4.31012 15 4.64981 15 5C15 5.0944 14.9967 5.18803 14.9903 5.2808C14.8993 6.59264 14.1758 7.73032 13.1226 8.39097L12.3419 7.72193L12.3135 7.69792C13.0295 7.34868 13.5858 6.72281 13.8433 5.95943C13.7124 5.98618 13.5783 5.99995 13.4427 5.99995H11.9998C10.8952 5.99995 9.99979 5.10452 9.99979 3.99995V2.55702C9.99979 2.42158 10.0135 2.28755 10.0402 2.15681C8.85407 2.55707 8 3.6788 8 5C8 5.33975 8.05609 5.66434 8.15871 5.96624L8.19529 6.07385L7.00176 4.88031C7.06229 2.82046 8.68013 1.15139 10.7186 1.00974C10.8116 1.00328 10.9054 1 11 1C11.35 1 11.6896 1.04496 12.0132 1.12943L11.2927 1.84991C11.2451 1.89745 11.2029 1.94929 11.1663 2.0045Z" fill="#0E1011"/>
<path d="M6.99948 10.3897C6.99945 10.7169 7.05289 11.0392 7.15539 11.3446L4.01777 14.4822C3.68625 14.8138 3.23661 15 2.76777 15C1.79146 15 1 14.2085 1 13.2322C1 12.7634 1.18625 12.3138 1.51777 11.9822L5.6894 7.8106L6.39651 8.51771L2.22487 12.6893C2.08089 12.8333 2 13.0286 2 13.2322C2 13.6563 2.34374 14 2.76777 14C2.97139 14 3.16668 13.9191 3.31066 13.7751L6.99952 10.0863L6.99948 10.3897Z" fill="#0E1011"/>
<path d="M10.7879 9.78787C10.6707 9.90503 10.6707 10.095 10.7879 10.2121L12.495 11.9192C12.6263 12.0505 12.7 12.2286 12.7 12.4142V12.5C12.7 12.6657 12.8343 12.8 13 12.8C13.1657 12.8 13.3 12.6657 13.3 12.5V12.4142C13.3 12.0694 13.163 11.7388 12.9192 11.495L11.2121 9.78787C11.095 9.67071 10.905 9.67071 10.7879 9.78787Z" fill="#0E1011"/>
<path fill-rule="evenodd" clip-rule="evenodd" d="M4.5 3.79289V2.5L2 1L1 2L2.5 4.5H3.79289L8.36566 9.07277C8.1342 9.43419 8 9.86388 8 10.3249C8 10.8799 8.19853 11.4166 8.55971 11.838L10.5217 14.127C10.9967 14.6811 11.6901 15 12.4199 15H12.5C13.8807 15 15 13.8807 15 12.5V12.4199C15 11.6901 14.6811 10.9967 14.127 10.5217L11.838 8.55971C11.4166 8.19853 10.8799 8 10.3249 8C9.86388 8 9.43419 8.1342 9.07277 8.36566L4.5 3.79289ZM10.3249 9C9.59319 9 9 9.59319 9 10.3249C9 10.6412 9.11314 10.947 9.31897 11.1872L11.281 13.4762C11.566 13.8087 11.982 14 12.4199 14H12.5C13.3284 14 14 13.3284 14 12.5V12.4199C14 11.982 13.8087 11.566 13.4762 11.281L11.1872 9.31896C10.947 9.11314 10.6412 9 10.3249 9Z" fill="#0E1011"/>
</svg>
