<svg viewBox="0 0 16 16" fill="none" xmlns="http://www.w3.org/2000/svg">
<path fill-rule="evenodd" clip-rule="evenodd" d="M1.5 1C0.671573 1 0 1.67157 0 2.5V12C0 13.1046 0.895431 14 2 14H8.25606C8.09023 13.5308 8 13.026 8 12.5C8 10.0147 10.0147 8 12.5 8C13.9136 8 15.175 8.65183 16 9.67133V4C16 2.89543 15.1046 2 14 2H8.12132C7.8561 2 7.60175 1.89464 7.41421 1.70711L7.29289 1.58579C6.91782 1.21071 6.40911 1 5.87868 1H1.5ZM7.35356 3.35353C7.54882 3.15826 7.54881 2.84168 7.35355 2.64642C7.15828 2.45116 6.8417 2.45116 6.64644 2.64643L6.58576 2.70711C6.39822 2.89465 6.14387 3.00002 5.87864 3.00002H1.5C1.22386 3.00002 1 3.22387 1 3.50002C1 3.77616 1.22386 4.00002 1.5 4.00002H5.87864C6.40909 4.00002 6.9178 3.78929 7.29288 3.41421L7.35356 3.35353Z" fill="#0E1011"/>
<path fill-rule="evenodd" clip-rule="evenodd" d="M16 12.5C16 14.433 14.433 16 12.5 16C10.567 16 9 14.433 9 12.5C9 10.567 10.567 9 12.5 9C14.433 9 16 10.567 16 12.5ZM12.5 10C12.7761 10 13 10.2239 13 10.5V12H14.5C14.7761 12 15 12.2239 15 12.5C15 12.7761 14.7761 13 14.5 13H13V14.75C13 15.0261 12.7761 15.25 12.5 15.25C12.2239 15.25 12 15.0261 12 14.75V13H10.5C10.2239 13 10 12.7761 10 12.5C10 12.2239 10.2239 12 10.5 12H12V10.5C12 10.2239 12.2239 10 12.5 10Z" fill="#0E1011"/>
</svg>
