<svg viewBox="0 0 16 16" fill="none" xmlns="http://www.w3.org/2000/svg">
<path d="M2.5 2C1.11929 2 0 3.11929 0 4.5V11.5C0 12.8807 1.11929 14 2.5 14H7.5C7.77614 14 8 13.7761 8 13.5C8 13.2239 7.77614 13 7.5 13H2.5C1.68161 13 1.01629 12.3446 1.00029 11.53L3.5 9.03033L5.5 11.0303L10.5 6.03033L12.2348 7.76517C12.3813 7.91161 12.6187 7.91161 12.7652 7.76517C12.9116 7.61872 12.9116 7.38128 12.7652 7.23483L10.5 4.96967L5.5 9.96967L3.5 7.96967L1 10.4697V4.5C1 3.67157 1.67157 3 2.5 3H13.5C14.3284 3 15 3.67157 15 4.5V7.5C15 7.77614 15.2239 8 15.5 8C15.7761 8 16 7.77614 16 7.5V4.5C16 3.11929 14.8807 2 13.5 2H2.5Z" fill="#0E1011"/>
<path fill-rule="evenodd" clip-rule="evenodd" d="M3.5 7C4.32843 7 5 6.32843 5 5.5C5 4.67157 4.32843 4 3.5 4C2.67157 4 2 4.67157 2 5.5C2 6.32843 2.67157 7 3.5 7ZM3.5 6.25C3.91421 6.25 4.25 5.91421 4.25 5.5C4.25 5.08579 3.91421 4.75 3.5 4.75C3.08579 4.75 2.75 5.08579 2.75 5.5C2.75 5.91421 3.08579 6.25 3.5 6.25Z" fill="#0E1011"/>
<path fill-rule="evenodd" clip-rule="evenodd" d="M16 12.5C16 14.433 14.433 16 12.5 16C10.567 16 9 14.433 9 12.5C9 10.567 10.567 9 12.5 9C14.433 9 16 10.567 16 12.5ZM12.5 10.5C12.7761 10.5 13 10.7239 13 11V12H14C14.2761 12 14.5 12.2239 14.5 12.5C14.5 12.7761 14.2761 13 14 13H13V14C13 14.2761 12.7761 14.5 12.5 14.5C12.2239 14.5 12 14.2761 12 14V13H11C10.7239 13 10.5 12.7761 10.5 12.5C10.5 12.2239 10.7239 12 11 12H12V11C12 10.7239 12.2239 10.5 12.5 10.5Z" fill="#0E1011"/>
</svg>
