<svg viewBox="0 0 12 12" fill="none" xmlns="http://www.w3.org/2000/svg">
<path d="M8.5 6.125C8.29289 6.125 8.125 6.29289 8.125 6.5C8.125 6.70711 8.29289 6.875 8.5 6.875H9.5C9.70711 6.875 9.875 6.70711 9.875 6.5C9.875 6.29289 9.70711 6.125 9.5 6.125H8.5Z" fill="#0E1011"/>
<path fill-rule="evenodd" clip-rule="evenodd" d="M2.125 1.5V4.125H1.75C0.852538 4.125 0.125 4.85254 0.125 5.75V8.25C0.125 9.14746 0.852537 9.875 1.75 9.875H2.125V10.75C2.125 11.3713 2.62868 11.875 3.25 11.875H8.75C9.37132 11.875 9.875 11.3713 9.875 10.75V9.875H10.25C11.1475 9.875 11.875 9.14746 11.875 8.25V5.75C11.875 4.85254 11.1475 4.125 10.25 4.125H9.875V1.5C9.875 0.740609 9.25939 0.125 8.5 0.125H3.5C2.74061 0.125 2.125 0.740608 2.125 1.5ZM3.5 0.875C3.15482 0.875 2.875 1.15482 2.875 1.5V4.125H9.125V1.5C9.125 1.15482 8.84518 0.875 8.5 0.875H3.5ZM1.75 4.875H10.25C10.7332 4.875 11.125 5.26675 11.125 5.75V8.25C11.125 8.73325 10.7332 9.125 10.25 9.125H9.875V8.25C9.875 7.62868 9.37132 7.125 8.75 7.125H3.25C2.62868 7.125 2.125 7.62868 2.125 8.25V9.125H1.75C1.26675 9.125 0.875 8.73325 0.875 8.25V5.75C0.875 5.26675 1.26675 4.875 1.75 4.875ZM3.25 7.875C3.04289 7.875 2.875 8.04289 2.875 8.25V10.75C2.875 10.9571 3.04289 11.125 3.25 11.125H8.75C8.95711 11.125 9.125 10.9571 9.125 10.75V8.25C9.125 8.04289 8.95711 7.875 8.75 7.875H3.25Z" fill="#0E1011"/>
</svg>
