<svg height="17" viewBox="0 0 16 17" fill="none" xmlns="http://www.w3.org/2000/svg">
<path fill-rule="evenodd" clip-rule="evenodd" d="M13.2678 1.73223C12.2915 0.755922 10.7085 0.755922 9.73224 1.73223L2.68199 8.78248C1.31515 10.1493 1.31515 12.3654 2.68198 13.7322L3.02513 14.0754C4.39196 15.4422 6.60804 15.4422 7.97488 14.0754L13.4038 8.64648L14.1109 9.35359L8.68198 14.7825C6.92462 16.5398 4.07538 16.5398 2.31802 14.7825L1.97488 14.4393C0.217518 12.682 0.217523 9.83274 1.97488 8.07538L9.02513 1.02513C10.392 -0.341709 12.608 -0.341709 13.9749 1.02513C15.3417 2.39196 15.3417 4.60804 13.9749 5.97487L7.22626 12.7235C6.27695 13.6728 4.72712 13.637 3.8227 12.6448C2.97555 11.7154 3.00865 10.2843 3.89785 9.39508L9.40378 3.88916L10.1109 4.59626L4.60496 10.1022C4.09357 10.6136 4.07454 11.4366 4.56174 11.9711C5.08188 12.5417 5.9732 12.5623 6.51916 12.0164L13.2678 5.26777C14.2441 4.29146 14.2441 2.70854 13.2678 1.73223Z" fill="#0E1011"/>
</svg>
