<svg viewBox="0 0 12 12" fill="none" xmlns="http://www.w3.org/2000/svg">
<path fill-rule="evenodd" clip-rule="evenodd" d="M1 2.625C1 1.72754 1.72754 1 2.625 1H9.375C10.2725 1 11 1.72754 11 2.625V9.375C11 10.2725 10.2725 11 9.375 11H2.625C1.72754 11 1 10.2725 1 9.375V2.625ZM6.4 4C6.4 3.77909 6.22091 3.6 6 3.6C5.77909 3.6 5.6 3.77909 5.6 4V5.6H4C3.77909 5.6 3.6 5.77909 3.6 6C3.6 6.22091 3.77909 6.4 4 6.4H5.6V8C5.6 8.22091 5.77909 8.4 6 8.4C6.22091 8.4 6.4 8.22091 6.4 8V6.4H8C8.22091 6.4 8.4 6.22091 8.4 6C8.4 5.77909 8.22091 5.6 8 5.6H6.4V4Z" fill="#0E1011"/>
</svg>
