<svg viewBox="0 0 12 12" fill="none" xmlns="http://www.w3.org/2000/svg">
<path fill-rule="evenodd" clip-rule="evenodd" d="M1.5 1C1.31097 1 1.12782 1.05279 0.96583 1.14989C0.397218 1.42679 0 2.05769 0 2.79167V8.91667C0 10.0673 0.839466 11 1.875 11H10.125C11.1605 11 12 10.0673 12 8.91667V4.75C12 4.06841 11.7054 3.38009 11.25 3V2.79182C11.25 1.75629 10.4945 1 9.5625 1H1.5ZM1.5 3H10.25C10.25 2.44772 9.80229 2 9.25 2H1.5C1.22386 2 1 2.22386 1 2.5C1 2.77614 1.22386 3 1.5 3ZM9 7C9 7.55228 8.55228 8 8 8C7.44772 8 7 7.55228 7 7C7 6.44772 7.44772 6 8 6C8.55228 6 9 6.44772 9 7Z" fill="#0E1011"/>
</svg>
