<svg viewBox="0 0 16 16" fill="none" xmlns="http://www.w3.org/2000/svg">
<path fill-rule="evenodd" clip-rule="evenodd" d="M15.5 5.25C15.5 7.87335 13.3734 10 10.75 10C9.95324 10 9.2023 9.80383 8.54285 9.45715L7 11V12C7 12.2761 6.77614 12.5 6.5 12.5H5.5V13.5C5.5 13.7761 5.27614 14 5 14H4V15C4 15.2761 3.77614 15.5 3.5 15.5H0.5V12.5L6.24378 6.75622C6.08565 6.28294 6 5.77647 6 5.25C6 2.62665 8.12665 0.5 10.75 0.5C13.3734 0.5 15.5 2.62665 15.5 5.25ZM11.5 5.5C12.0523 5.5 12.5 5.05228 12.5 4.5C12.5 3.94772 12.0523 3.5 11.5 3.5C10.9477 3.5 10.5 3.94772 10.5 4.5C10.5 5.05228 10.9477 5.5 11.5 5.5Z" fill="#0E1011"/>
</svg>
