<svg viewBox="0 0 16 16" fill="none" xmlns="http://www.w3.org/2000/svg">
<path fill-rule="evenodd" clip-rule="evenodd" d="M14.8536 5.85363C14.6583 6.04889 14.3417 6.04889 14.1464 5.85363L11 2.70718V10.0001C11 12.2092 9.20914 14.0001 7 14.0001H2.5C2.22386 14.0001 2 13.7762 2 13.5001C2 13.2239 2.22386 13.0001 2.5 13.0001H7C8.65685 13.0001 10 11.6569 10 10.0001V2.70718L6.85355 5.85363C6.65829 6.04889 6.34171 6.04889 6.14645 5.85363C5.95118 5.65837 5.95118 5.34178 6.14645 5.14652L10.5 0.792969L14.8536 5.14652C15.0488 5.34178 15.0488 5.65837 14.8536 5.85363Z" fill="#0E1011"/>
</svg>
