<svg viewBox="0 0 12 12" fill="none" xmlns="http://www.w3.org/2000/svg">
<path fill-rule="evenodd" clip-rule="evenodd" d="M0 2.5C0 1.67157 0.671573 1 1.5 1H10.5C11.3284 1 12 1.67157 12 2.5V8.5C12 9.32843 11.3284 10 10.5 10H1.5C0.671573 10 0 9.32843 0 8.5V2.5ZM1.5 1.75H10.5C10.9142 1.75 11.25 2.08579 11.25 2.5V8.5C11.25 8.91421 10.9142 9.25 10.5 9.25H1.5C1.08579 9.25 0.75 8.91421 0.75 8.5V2.5C0.75 2.08579 1.08579 1.75 1.5 1.75Z" fill="#0E1011"/>
<path d="M4.5 10.125C4.29289 10.125 4.125 10.2929 4.125 10.5C4.125 10.7071 4.29289 10.875 4.5 10.875H7.5C7.70711 10.875 7.875 10.7071 7.875 10.5C7.875 10.2929 7.70711 10.125 7.5 10.125H4.5Z" fill="#0E1011"/>
</svg>
