<svg viewBox="0 0 16 16" fill="none" xmlns="http://www.w3.org/2000/svg">
<path fill-rule="evenodd" clip-rule="evenodd" d="M12 4C12 6.20914 10.2091 8 8 8C5.79086 8 4 6.20914 4 4C4 1.79086 5.79086 0 8 0C10.2091 0 12 1.79086 12 4ZM11 4C11 5.65685 9.65685 7 8 7C6.34315 7 5 5.65685 5 4C5 2.34315 6.34315 1 8 1C9.65685 1 11 2.34315 11 4Z" fill="#0E1011"/>
<path d="M8.00005 15C5.78683 15 3.81328 13.9737 2.52919 12.3674L2.68341 11.2879C2.78897 10.5489 3.42185 10 4.16833 10H8.75777C9.01056 9.62236 9.31899 9.28512 9.67133 9H4.16833C2.9242 9 1.8694 9.91482 1.69346 11.1464L1.48047 12.6374C2.9308 14.6727 5.31042 16 8.00005 16C8.5145 16 9.0176 15.9514 9.50503 15.8587C9.21011 15.5955 8.95007 15.2941 8.73271 14.9621C8.49191 14.9872 8.24748 15 8.00005 15Z" fill="#0E1011"/>
<path fill-rule="evenodd" clip-rule="evenodd" d="M16 12.5C16 14.433 14.433 16 12.5 16C10.567 16 9 14.433 9 12.5C9 10.567 10.567 9 12.5 9C14.433 9 16 10.567 16 12.5ZM12.5 10C12.7761 10 13 10.2239 13 10.5V12H14.5C14.7761 12 15 12.2239 15 12.5C15 12.7761 14.7761 13 14.5 13H13V14.75C13 15.0261 12.7761 15.25 12.5 15.25C12.2239 15.25 12 15.0261 12 14.75V13H10.5C10.2239 13 10 12.7761 10 12.5C10 12.2239 10.2239 12 10.5 12H12V10.5C12 10.2239 12.2239 10 12.5 10Z" fill="#0E1011"/>
</svg>
