<svg viewBox="0 0 16 16" fill="none" xmlns="http://www.w3.org/2000/svg">
<path fill-rule="evenodd" clip-rule="evenodd" d="M8.00001 0.699951C3.96833 0.699951 0.700012 3.96827 0.700012 7.99995C0.700012 12.0316 3.96833 15.3 8.00001 15.3C12.0317 15.3 15.3 12.0316 15.3 7.99995C15.3 3.96827 12.0317 0.699951 8.00001 0.699951ZM9.3599 3.52693C9.40932 3.27984 9.24908 3.03948 9.00199 2.99006C8.7549 2.94064 8.51454 3.10089 8.46512 3.34797L7.55262 7.91047C7.52271 8.06006 7.56953 8.2147 7.67739 8.32257L10.4149 11.0601C10.5931 11.2382 10.882 11.2382 11.0601 11.0601C11.2383 10.8819 11.2383 10.593 11.0601 10.4148L8.49529 7.84999L9.3599 3.52693Z" fill="#0E1011"/>
</svg>
