<svg viewBox="0 0 12 12" fill="none" xmlns="http://www.w3.org/2000/svg">
<path fill-rule="evenodd" clip-rule="evenodd" d="M2.62688 0.375005C2.78388 0.37579 2.92377 0.474296 2.97742 0.621846L4.38766 4.5H7.61234L9.02258 0.621846C9.07623 0.474296 9.21613 0.37579 9.37313 0.375005C9.53013 0.37422 9.671 0.471322 9.72612 0.618329L11.8806 6.36371C11.9946 6.66747 11.9002 7.01004 11.6469 7.2127L6.35139 11.4491C6.14596 11.6135 5.85405 11.6135 5.64861 11.4491L0.353087 7.2127C0.0997579 7.01004 0.00545004 6.66747 0.119361 6.36371L2.27388 0.618329C2.32901 0.471322 2.46988 0.37422 2.62688 0.375005ZM2.61959 1.83243L0.821608 6.62705L6 10.7698L11.1784 6.62705L9.38041 1.83243L8.22742 5.00315C8.17354 5.15135 8.03269 5.25 7.875 5.25H4.125C3.96731 5.25 3.82647 5.15135 3.77258 5.00315L2.61959 1.83243Z" fill="#0E1011"/>
</svg>
