<svg viewBox="0 0 16 16" fill="none" xmlns="http://www.w3.org/2000/svg">
<path fill-rule="evenodd" clip-rule="evenodd" d="M2.25 3C1.55964 3 1 3.55964 1 4.25V10.75C1 11.4404 1.55964 12 2.25 12H3.5C3.77614 12 4 12.2239 4 12.5C4 12.7761 3.77614 13 3.5 13H2.25C1.00736 13 0 11.9926 0 10.75V4.25C0 3.00736 1.00736 2 2.25 2H13.75C14.9926 2 16 3.00736 16 4.25V10.75C16 11.9926 14.9926 13 13.75 13H12.5C12.2239 13 12 12.7761 12 12.5C12 12.2239 12.2239 12 12.5 12H13.75C14.4404 12 15 11.4404 15 10.75V4.25C15 3.55964 14.4404 3 13.75 3H2.25ZM8 9.18559L12.5223 15H3.47768L8 9.18559ZM5.52232 14H10.4777L8 10.8144L5.52232 14Z" fill="#0E1011"/>
</svg>
