<svg viewBox="0 0 16 16" fill="none" xmlns="http://www.w3.org/2000/svg">
<path fill-rule="evenodd" clip-rule="evenodd" d="M8.30843 1.98446C8.93877 1.35412 9.7937 1 10.6851 1H10.8282C13.1322 1 15 2.86778 15 5.17181C15 6.03479 14.6572 6.86242 14.047 7.47264L11.9749 9.54473C10.608 10.9116 8.39196 10.9116 7.02513 9.54473L6.14645 8.66605C5.95118 8.47079 5.95118 8.15421 6.14645 7.95895C6.34171 7.76368 6.65829 7.76368 6.85355 7.95895L7.73223 8.83763C8.70854 9.81394 10.2915 9.81394 11.2678 8.83763L13.3399 6.76553C13.7625 6.34285 14 5.76958 14 5.17181C14 3.42007 12.5799 2 10.8282 2H10.6851C10.0589 2 9.45834 2.24876 9.01554 2.69157L7.85355 3.85355C7.65829 4.04882 7.34171 4.04882 7.14645 3.85355C6.95118 3.65829 6.95118 3.34171 7.14645 3.14645L8.30843 1.98446ZM8.26777 6.97487C7.29146 5.99856 5.70855 5.99856 4.73224 6.97487L2.69157 9.01554C2.24876 9.45834 2 10.0589 2 10.6851C2 12.5159 3.48412 14 5.31487 14C5.94109 14 6.54166 13.7512 6.98446 13.3084L8.14645 12.1464C8.34171 11.9512 8.65829 11.9512 8.85355 12.1464C9.04882 12.3417 9.04882 12.6583 8.85355 12.8536L7.69157 14.0155C7.06123 14.6459 6.20631 15 5.31487 15C2.93183 15 1 13.0682 1 10.6851C1 9.7937 1.35412 8.93877 1.98446 8.30843L4.02513 6.26776C5.39196 4.90093 7.60804 4.90093 8.97487 6.26777L9.85355 7.14645C10.0488 7.34171 10.0488 7.65829 9.85355 7.85355C9.65829 8.04882 9.34171 8.04882 9.14645 7.85355L8.26777 6.97487Z" fill="#0E1011"/>
</svg>
