<svg viewBox="0 0 12 12" fill="none" xmlns="http://www.w3.org/2000/svg">
<path fill-rule="evenodd" clip-rule="evenodd" d="M4.73303 5.81523L9.94813 11.0303C10.0888 11.171 10.2796 11.25 10.4785 11.25H10.5C10.9142 11.25 11.25 10.9142 11.25 10.5V10.4785C11.25 10.2796 11.171 10.0888 11.0303 9.94813L5.81523 4.73303L5.9654 4.29126C6.05709 4.02153 6.10714 3.73167 6.10714 3.42857C6.10714 2.3271 5.4423 1.38091 4.49202 0.969409C4.65902 1.21594 4.75013 1.50861 4.75013 1.81068V3.25002C4.75013 4.07844 4.07856 4.75002 3.25013 4.75002H1.81079C1.50863 4.75002 1.21588 4.65885 0.969292 4.49175C1.38073 5.44217 2.327 6.10714 3.42857 6.10714C3.73167 6.10714 4.02153 6.05709 4.29126 5.9654L4.73303 5.81523ZM0.00259237 3.56314C0.000869409 3.5185 0 3.47364 0 3.42857C0 3.14307 0.0348969 2.86571 0.100658 2.60054L1.28046 3.78035C1.42111 3.921 1.61188 4.00002 1.81079 4.00002H3.25013C3.66434 4.00002 4.00013 3.66423 4.00013 3.25002V1.81068C4.00013 1.61176 3.92111 1.421 3.78046 1.28035L2.60073 0.100613C2.86584 0.0348809 3.14313 0 3.42857 0C3.47372 0 3.51866 0.00087249 3.56338 0.00260153C5.39444 0.0733966 6.85714 1.58017 6.85714 3.42857C6.85714 3.81484 6.79326 4.18619 6.6755 4.53264L11.5607 9.4178C11.842 9.69911 12 10.0806 12 10.4785V10.5C12 11.3284 11.3284 12 10.5 12H10.4785C10.0806 12 9.69911 11.842 9.4178 11.5607L4.53264 6.6755C4.18619 6.79326 3.81484 6.85714 3.42857 6.85714C1.58009 6.85714 0.0732664 5.39431 0.00259237 3.56314Z" fill="#0E1011"/>
</svg>
