<svg viewBox="0 0 12 12" fill="none" xmlns="http://www.w3.org/2000/svg">
<path d="M6.375 4.5C6.375 4.29289 6.20711 4.125 6 4.125C5.79289 4.125 5.625 4.29289 5.625 4.5V7.125C5.625 7.33211 5.79289 7.5 6 7.5C6.20711 7.5 6.375 7.33211 6.375 7.125V4.5Z" fill="#0E1011"/>
<path d="M6.375 8.62502C6.375 8.41791 6.20711 8.25002 6 8.25002C5.79289 8.25002 5.625 8.41791 5.625 8.62502V9.00002C5.625 9.20712 5.79289 9.37502 6 9.37502C6.20711 9.37502 6.375 9.20712 6.375 9.00002V8.62502Z" fill="#0E1011"/>
<path fill-rule="evenodd" clip-rule="evenodd" d="M6 0C5.73946 0 5.48696 0.0777305 5.2674 0.220421C5.04842 0.362731 4.87101 0.563669 4.74741 0.798858L5.07937 0.9733L4.74652 0.800571L0.186445 9.58791L0.18392 9.59287C0.0631194 9.83435 0.00066756 10.1048 5.32277e-06 10.3778C-0.000656915 10.6508 0.0604815 10.9215 0.180056 11.1637C0.299673 11.4059 0.475428 11.6145 0.694996 11.7636C0.915164 11.9131 1.17047 11.9966 1.43517 12L1.43992 12H10.5601L10.5648 12C10.8295 11.9966 11.0848 11.9131 11.305 11.7636C11.5246 11.6145 11.7003 11.4059 11.8199 11.1637C11.9395 10.9215 12.0007 10.6508 12 10.3778C11.9993 10.1048 11.9369 9.83435 11.8161 9.59287L11.8136 9.58791L7.25348 0.800569L7.25259 0.798858C7.12899 0.563669 6.95158 0.362731 6.7326 0.220421C6.51303 0.0777306 6.26054 0 6 0ZM5.41133 1.14774C5.47965 1.01803 5.57276 0.916441 5.67609 0.849288C5.77904 0.782381 5.89042 0.75 6 0.75C6.10958 0.75 6.22096 0.782381 6.32391 0.849288C6.42724 0.916441 6.51994 1.01724 6.58826 1.14696L11.1465 9.93068C11.213 10.0646 11.2496 10.2195 11.25 10.3796C11.2504 10.5406 11.2141 10.6967 11.1475 10.8316C11.0809 10.9665 10.9881 11.0722 10.8836 11.1432C10.7803 11.2133 10.668 11.2482 10.5574 11.25H1.44262C1.33198 11.2482 1.21967 11.2133 1.11639 11.1432C1.01188 11.0722 0.919128 10.9665 0.852535 10.8316C0.785899 10.6967 0.749612 10.5406 0.750003 10.3796C0.750392 10.2195 0.787017 10.0646 0.853533 9.9307L5.41133 1.14774Z" fill="#0E1011"/>
</svg>
