<svg viewBox="0 0 12 12" fill="none" xmlns="http://www.w3.org/2000/svg">
<path fill-rule="evenodd" clip-rule="evenodd" d="M0.763186 5.625H2.25C2.45711 5.625 2.625 5.79289 2.625 6C2.625 6.20711 2.45711 6.375 2.25 6.375H0.763186C0.946725 8.97562 3.02438 11.0533 5.625 11.2368V9.75C5.625 9.54289 5.79289 9.375 6 9.375C6.20711 9.375 6.375 9.54289 6.375 9.75V11.2368C8.97562 11.0533 11.0533 8.97562 11.2368 6.375H9.75C9.54289 6.375 9.375 6.20711 9.375 6C9.375 5.79289 9.54289 5.625 9.75 5.625H11.2368C11.0533 3.02438 8.97562 0.946725 6.375 0.763186V2.25C6.375 2.45711 6.20711 2.625 6 2.625C5.79289 2.625 5.625 2.45711 5.625 2.25V0.763186C3.02438 0.946725 0.946725 3.02438 0.763186 5.625ZM0 6C0 2.68629 2.68629 0 6 0C9.31371 0 12 2.68629 12 6C12 9.31371 9.31371 12 6 12C2.68629 12 0 9.31371 0 6Z" fill="#0E1011"/>
</svg>
