<svg viewBox="0 0 12 12" fill="none" xmlns="http://www.w3.org/2000/svg">
<path d="M6 0.344666L7.76517 2.10983C7.91161 2.25628 7.91161 2.49371 7.76517 2.64016C7.61872 2.78661 7.38128 2.78661 7.23483 2.64016L6.375 1.78033V3.875C6.375 4.0821 6.20711 4.25 6 4.25C5.79289 4.25 5.625 4.0821 5.625 3.875V1.78033L4.76516 2.64016C4.61872 2.78661 4.38128 2.78661 4.23484 2.64016C4.08839 2.49371 4.08839 2.25628 4.23484 2.10983L6 0.344666Z" fill="#0E1011"/>
<path d="M2.02252 3.64752C2.16897 3.50107 2.40641 3.50107 2.55285 3.64752L3.61351 4.70818C3.75996 4.85463 3.75996 5.09206 3.61351 5.23851C3.46707 5.38496 3.22963 5.38496 3.08318 5.23851L2.02252 4.17785C1.87608 4.0314 1.87608 3.79397 2.02252 3.64752Z" fill="#0E1011"/>
<path d="M9.97748 3.64752C10.1239 3.79397 10.1239 4.0314 9.97748 4.17785L8.91682 5.23851C8.77037 5.38496 8.53293 5.38496 8.38649 5.23851C8.24004 5.09206 8.24004 4.85463 8.38649 4.70818L9.44715 3.64752C9.59359 3.50107 9.83103 3.50107 9.97748 3.64752Z" fill="#0E1011"/>
<path d="M0.375 7.625C0.375 7.41789 0.542893 7.25 0.75 7.25H2.25C2.45711 7.25 2.625 7.41789 2.625 7.625C2.625 7.8321 2.45711 8 2.25 8H0.75C0.542893 8 0.375 7.8321 0.375 7.625Z" fill="#0E1011"/>
<path d="M9.375 7.625C9.375 7.41789 9.54289 7.25 9.75 7.25H11.25C11.4571 7.25 11.625 7.41789 11.625 7.625C11.625 7.8321 11.4571 8 11.25 8H9.75C9.54289 8 9.375 7.8321 9.375 7.625Z" fill="#0E1011"/>
<path d="M3.375 7.99998V7.81248C3.375 6.46629 4.46631 5.37498 5.8125 5.37498H6.1875C7.53369 5.37498 8.625 6.46629 8.625 7.81248V7.99998H3.375Z" fill="#0E1011"/>
<path d="M0.75 9.24998C0.542893 9.24998 0.375 9.41788 0.375 9.62498C0.375 9.83209 0.542893 9.99998 0.75 9.99998H11.25C11.4571 9.99998 11.625 9.83209 11.625 9.62498C11.625 9.41788 11.4571 9.24998 11.25 9.24998H0.75Z" fill="#0E1011"/>
</svg>
