<svg viewBox="0 0 12 12" fill="none" xmlns="http://www.w3.org/2000/svg">
<path fill-rule="evenodd" clip-rule="evenodd" d="M12 6C12 9.31371 9.31371 12 6 12C2.68629 12 0 9.31371 0 6C0 2.68629 2.68629 0 6 0C9.31371 0 12 2.68629 12 6ZM4.39016 3.85984C4.24372 3.71339 4.00628 3.71339 3.85984 3.85984C3.71339 4.00628 3.71339 4.24372 3.85984 4.39016L5.46967 6L3.85984 7.60983C3.71339 7.75628 3.71339 7.99372 3.85984 8.14017C4.00628 8.28661 4.24372 8.28661 4.39016 8.14017L6 6.53033L7.60983 8.14017C7.75628 8.28661 7.99372 8.28661 8.14017 8.14017C8.28661 7.99372 8.28661 7.75628 8.14017 7.60983L6.53033 6L8.14017 4.39016C8.28661 4.24372 8.28661 4.00628 8.14017 3.85984C7.99372 3.71339 7.75628 3.71339 7.60983 3.85984L6 5.46967L4.39016 3.85984Z" fill="#0E1011"/>
</svg>
