<svg viewBox="0 0 16 16" fill="none" xmlns="http://www.w3.org/2000/svg">
<path fill-rule="evenodd" clip-rule="evenodd" d="M0 8.73607C0 8.5032 0.0542176 8.27353 0.158359 8.06525L2.6382 3.10557C2.97698 2.428 3.66951 2 4.42705 2H11.5729C12.3305 2 13.023 2.428 13.3618 3.10557L15.8416 8.06525C15.9458 8.27353 16 8.5032 16 8.73607V11.75C16 12.9926 14.9926 14 13.75 14H2.25C1.00736 14 0 12.9926 0 11.75V8.73607ZM3.53262 3.55279C3.70202 3.214 4.04828 3 4.42705 3H11.5729C11.9517 3 12.298 3.214 12.4674 3.55279L14.816 8.25H10V9C10 10.1046 9.10457 11 8 11C6.89543 11 6 10.1046 6 9V8.25H1.18402L3.53262 3.55279Z" fill="#0E1011"/>
</svg>
