<svg viewBox="0 0 12 12" fill="none" xmlns="http://www.w3.org/2000/svg">
<path fill-rule="evenodd" clip-rule="evenodd" d="M1.125 1.25C0.50368 1.25 0 1.75368 0 2.375V9C0 9.82843 0.671573 10.5 1.5 10.5H6.20053C6.26472 10.3889 6.34433 10.2844 6.43934 10.1893L7.25368 9.375L6.43934 8.56066C5.85355 7.97487 5.85355 7.02513 6.43934 6.43934C7.02513 5.85355 7.97487 5.85355 8.56066 6.43934L9.375 7.25368L10.1893 6.43934C10.6801 5.94857 11.4264 5.86896 12 6.20053V3.5C12 2.67157 11.3284 2 10.5 2H6.09099C5.89208 2 5.70131 1.92098 5.56066 1.78033L5.46967 1.68934C5.18837 1.40804 4.80683 1.25 4.40901 1.25H1.125ZM5.51517 3.26514C5.66161 3.11869 5.66161 2.88126 5.51516 2.73481C5.36871 2.58837 5.13128 2.58837 4.98483 2.73482L4.93932 2.78033C4.79867 2.92099 4.6079 3.00001 4.40898 3.00001H1.125C0.917893 3.00001 0.75 3.1679 0.75 3.37501C0.75 3.58212 0.917893 3.75001 1.125 3.75001H4.40898C4.80682 3.75001 5.18835 3.59197 5.46966 3.31066L5.51517 3.26514Z" fill="#0E1011"/>
<path d="M12 9C12 9.25431 11.9367 9.49384 11.825 9.7037L11.4963 9.375L12 8.87132V9Z" fill="#0E1011"/>
<path d="M7.76517 7.23484C7.61872 7.08839 7.38128 7.08839 7.23483 7.23484C7.08839 7.38128 7.08839 7.61872 7.23483 7.76517L8.84467 9.375L7.23483 10.9848C7.08839 11.1313 7.08839 11.3687 7.23483 11.5152C7.38128 11.6616 7.61872 11.6616 7.76517 11.5152L9.375 9.90533L10.9848 11.5152C11.1313 11.6616 11.3687 11.6616 11.5152 11.5152C11.6616 11.3687 11.6616 11.1313 11.5152 10.9848L9.90533 9.375L11.5152 7.76517C11.6616 7.61872 11.6616 7.38128 11.5152 7.23484C11.3687 7.08839 11.1313 7.08839 10.9848 7.23484L9.375 8.84467L7.76517 7.23484Z" fill="#0E1011"/>
</svg>
