<svg viewBox="0 0 16 16" fill="none" xmlns="http://www.w3.org/2000/svg">
<path fill-rule="evenodd" clip-rule="evenodd" d="M2 13.5C2 13.7761 2.22386 14 2.5 14H5.5C5.77614 14 6 13.7761 6 13.5V2.5C6 2.22386 5.77614 2 5.5 2H2.5C2.22386 2 2 2.22386 2 2.5V13.5ZM2.5 15C1.67157 15 1 14.3284 1 13.5V2.5C1 1.67157 1.67157 1 2.5 1H5.5C6.32843 1 7 1.67157 7 2.5V13.5C7 14.3284 6.32843 15 5.5 15H2.5ZM10 13.5C10 13.7761 10.2239 14 10.5 14H13.5C13.7761 14 14 13.7761 14 13.5V2.5C14 2.22386 13.7761 2 13.5 2H10.5C10.2239 2 10 2.22386 10 2.5V13.5ZM10.5 15C9.67157 15 9 14.3284 9 13.5V2.5C9 1.67157 9.67157 1 10.5 1H13.5C14.3284 1 15 1.67157 15 2.5V13.5C15 14.3284 14.3284 15 13.5 15H10.5Z" fill="#0E1011"/>
</svg>
