<svg viewBox="0 0 16 16" fill="none" xmlns="http://www.w3.org/2000/svg">
<path fill-rule="evenodd" clip-rule="evenodd" d="M7 0C5.1788 0 3.5143 0.169931 2.29138 0.452145C1.68392 0.592326 1.15778 0.766364 0.771327 0.977211C0.578354 1.0825 0.396689 1.20951 0.257951 1.36597C0.116453 1.52554 0 1.73977 0 2V6.5C0 6.72949 0.0673761 6.93507 0.175913 7.11698L0 7.29289V11.5C0 12.0128 0.336367 12.4062 0.716665 12.6828C1.10791 12.9674 1.6419 13.2029 2.25676 13.3921C3.49261 13.7724 5.16948 14 7 14C7.27614 14 7.5 13.7761 7.5 13.5C7.5 13.2239 7.27614 13 7 13C5.24066 13 3.66754 12.7799 2.55085 12.4363C1.98944 12.2636 1.57153 12.0681 1.30494 11.8742C1.0274 11.6723 1 11.5395 1 11.5V7.8665C1.35089 8.07049 1.77946 8.24524 2.25676 8.3921C3.49261 8.77236 5.16948 9 7 9C8.83052 9 10.5074 8.77236 11.7432 8.3921C12.3581 8.20291 12.8921 7.96744 13.2833 7.68282C13.6636 7.40617 14 7.01277 14 6.5V2C14 1.73977 13.8835 1.52554 13.742 1.36597C13.6033 1.20951 13.4216 1.0825 13.2287 0.977211C12.8422 0.766364 12.3161 0.592326 11.7086 0.452145C10.4857 0.169931 8.8212 0 7 0ZM1.25028 2.14495C1.14483 2.08742 1.07681 2.03758 1.03553 2C1.07681 1.96242 1.14483 1.91258 1.25028 1.85505C1.52166 1.70699 1.94742 1.5578 2.51624 1.42654C3.64585 1.16585 5.23135 1 7 1C8.76865 1 10.3541 1.16585 11.4838 1.42654C12.0526 1.5578 12.4783 1.70699 12.7497 1.85505C12.8552 1.91258 12.9232 1.96242 12.9645 2C12.9232 2.03758 12.8552 2.08742 12.7497 2.14495C12.4783 2.29301 12.0526 2.4422 11.4838 2.57346C10.3541 2.83415 8.76865 3 7 3C5.23135 3 3.64585 2.83415 2.51624 2.57346C1.94742 2.4422 1.52166 2.29301 1.25028 2.14495ZM13 3.13615C12.6446 3.29693 12.2036 3.43363 11.7086 3.54786C10.4857 3.83007 8.8212 4 7 4C5.1788 4 3.5143 3.83007 2.29138 3.54786C1.7964 3.43363 1.35542 3.29693 1 3.13615V6.5C1 6.53952 1.0274 6.67226 1.30494 6.87416C1.57153 7.0681 1.98944 7.26358 2.55085 7.43632C3.66754 7.77992 5.24066 8 7 8C8.75934 8 10.3325 7.77992 11.4492 7.43632C12.0106 7.26358 12.4285 7.0681 12.6951 6.87416C12.9726 6.67226 13 6.53952 13 6.5V3.13615Z" fill="#0E1011"/>
<path fill-rule="evenodd" clip-rule="evenodd" d="M16 12.5C16 14.433 14.433 16 12.5 16C10.567 16 9 14.433 9 12.5C9 10.567 10.567 9 12.5 9C14.433 9 16 10.567 16 12.5ZM12.5 10C12.7761 10 13 10.2239 13 10.5V12H14.5C14.7761 12 15 12.2239 15 12.5C15 12.7761 14.7761 13 14.5 13H13V14.5C13 14.7761 12.7761 15 12.5 15C12.2239 15 12 14.7761 12 14.5V13H10.5C10.2239 13 10 12.7761 10 12.5C10 12.2239 10.2239 12 10.5 12H12V10.5C12 10.2239 12.2239 10 12.5 10Z" fill="#0E1011"/>
</svg>
