<svg viewBox="0 0 12 12" fill="none" xmlns="http://www.w3.org/2000/svg">
<path fill-rule="evenodd" clip-rule="evenodd" d="M5.87143 0.21816C5.95436 0.365324 5.94312 0.54748 5.84271 0.683324C5.28548 1.43719 5.01733 2.36602 5.08705 3.30088C5.15676 4.23574 5.55971 5.11453 6.22259 5.77741C6.88547 6.4403 7.76426 6.84324 8.69912 6.91295C9.63398 6.98267 10.5628 6.71452 11.3167 6.15729C11.4525 6.05688 11.6347 6.04564 11.7818 6.12858C11.929 6.21151 12.0137 6.37316 11.9982 6.54137C11.8931 7.67841 11.4664 8.76202 10.7679 9.66538C10.0695 10.5688 9.12818 11.2545 8.05421 11.6424C6.98023 12.0304 5.81799 12.1044 4.70347 11.8559C3.58896 11.6074 2.56826 11.0466 1.76083 10.2392C0.953392 9.43174 0.39261 8.41104 0.144099 7.29653C-0.104412 6.18201 -0.0303722 5.01977 0.357554 3.94579C0.745481 2.87182 1.43125 1.93054 2.33462 1.23208C3.23798 0.533633 4.32159 0.106903 5.45863 0.00182559C5.62684 -0.0137191 5.78849 0.0709964 5.87143 0.21816Z" fill="#0E1011"/>
</svg>
