<svg viewBox="0 0 16 16" fill="none" xmlns="http://www.w3.org/2000/svg">
<path fill-rule="evenodd" clip-rule="evenodd" d="M4.42705 2C3.66951 2 2.97698 2.428 2.6382 3.10557L0.158359 8.06525C0.0542176 8.27353 0 8.5032 0 8.73607V11.5C0 12.8807 1.11929 14 2.5 14H13.5C14.8807 14 16 12.8807 16 11.5V8.73607C16 8.5032 15.9458 8.27353 15.8416 8.06525L13.3618 3.10557C13.023 2.428 12.3305 2 11.5729 2H4.42705ZM3.53262 3.55279C3.70202 3.214 4.04828 3 4.42705 3H11.5729C11.9517 3 12.298 3.214 12.4674 3.55279L14.8785 8.375H10.125V9C10.125 10.1736 9.1736 11.125 8 11.125C6.8264 11.125 5.875 10.1736 5.875 9V8.375H1.12152L3.53262 3.55279ZM1 9.125V11.5C1 12.3284 1.67157 13 2.5 13H13.5C14.3284 13 15 12.3284 15 11.5V9.125H10.8723C10.8069 10.6548 9.54594 11.875 8 11.875C6.45406 11.875 5.19311 10.6548 5.12767 9.125H1Z" fill="#0E1011"/>
</svg>
