<svg viewBox="0 0 12 12" fill="none" xmlns="http://www.w3.org/2000/svg">
<path d="M9 8C9.55229 8 10 7.55228 10 7C10 6.44772 9.55229 6 9 6C8.44771 6 8 6.44772 8 7C8 7.55228 8.44771 8 9 8Z" fill="#0E1011"/>
<path fill-rule="evenodd" clip-rule="evenodd" d="M1.76619 1.125C1.44198 1.125 1.13374 1.23918 0.890944 1.43952C0.428149 1.75987 0.125 2.29453 0.125 2.9V9C0.125 10.0355 0.964466 10.875 2 10.875H10.0021C11.0366 10.875 11.8756 10.0371 11.8771 9.00258L11.8784 8.06149C11.8791 8.05216 11.8794 8.04273 11.8794 8.03321V7.29846L11.8795 7.2278L11.8794 7.21863V5C11.8794 4.27871 11.4721 3.65255 10.875 3.33894V3C10.875 1.96447 10.0355 1.125 9 1.125H1.76619ZM1.34542 2.03784C1.50529 1.93479 1.69566 1.875 1.9 1.875H9C9.62132 1.875 10.125 2.37868 10.125 3V3.12882C10.0851 3.12628 10.0449 3.125 10.0044 3.125H1.76619C1.28038 3.125 0.980311 2.59502 1.23026 2.17844C1.26204 2.12548 1.30098 2.0783 1.34542 2.03784ZM0.875 3.54891V9C0.875 9.62132 1.37868 10.125 2 10.125H10.0021C10.6228 10.125 11.1262 9.62226 11.1271 9.00155L11.1294 7.29746V5C11.1294 4.37868 10.6257 3.875 10.0044 3.875H1.76619C1.41579 3.875 1.10932 3.74968 0.875 3.54891Z" fill="#0E1011"/>
</svg>
