<svg viewBox="0 0 12 12" fill="none" xmlns="http://www.w3.org/2000/svg">
<path fill-rule="evenodd" clip-rule="evenodd" d="M1.35983 7.20456C1.50628 7.05811 1.74372 7.05811 1.89017 7.20456L4.25 9.5644V4.09473C4.25 2.43787 5.59315 1.09473 7.25 1.09473H10.625C10.8321 1.09473 11 1.26262 11 1.46973C11 1.67683 10.8321 1.84473 10.625 1.84473H7.25C6.00736 1.84473 5 2.85209 5 4.09473V9.5644L7.35984 7.20456C7.50628 7.05811 7.74372 7.05811 7.89017 7.20456C8.03661 7.35101 8.03661 7.58844 7.89017 7.73489L4.625 11.0001L1.35983 7.73489C1.21339 7.58844 1.21339 7.35101 1.35983 7.20456Z" fill="#0E1011"/>
</svg>
