<svg viewBox="0 0 16 16" fill="none" xmlns="http://www.w3.org/2000/svg">
<path d="M6 5.00012C5.44772 5.00012 5 5.44784 5 6.00012C5 6.55241 5.44772 7.00012 6 7.00012C6.55228 7.00012 7 6.55241 7 6.00012C7 5.44784 6.55228 5.00012 6 5.00012Z" fill="#0E1011"/>
<path d="M5.50496 9.83749C6.0749 9.42662 6.92529 9.00012 8 9.00012C9.07471 9.00012 9.9251 9.42662 10.495 9.83749C10.781 10.0436 11.002 10.2497 11.1528 10.4057C11.2284 10.4839 11.287 10.5501 11.3278 10.5983C11.3482 10.6224 11.3642 10.6421 11.3758 10.6566L11.3807 10.6628L11.3898 10.6743L11.3943 10.6801L11.3959 10.6822L11.3965 10.6831C11.5671 10.9085 11.5215 11.229 11.2941 11.3981C11.0669 11.567 10.7446 11.5215 10.5739 11.2966L10.5687 11.29C10.5629 11.2828 10.5531 11.2706 10.5393 11.2543C10.5116 11.2216 10.4681 11.1722 10.4096 11.1117C10.2922 10.9903 10.1167 10.8265 9.88957 10.6627C9.43332 10.3338 8.79108 10.0205 8 10.0205C7.20892 10.0205 6.56668 10.3338 6.11043 10.6627C5.88329 10.8265 5.70784 10.9903 5.59041 11.1117C5.53191 11.1722 5.48842 11.2216 5.46073 11.2543C5.4469 11.2706 5.43706 11.2828 5.43131 11.29L5.42578 11.297C5.25517 11.5221 4.93322 11.567 4.70591 11.3981C4.4785 11.229 4.43241 10.9092 4.60297 10.6838L4.60415 10.6822L4.60575 10.6801L4.61022 10.6743L4.61465 10.6687L4.62421 10.6566C4.63577 10.6421 4.65181 10.6224 4.67223 10.5983C4.71305 10.5501 4.7716 10.4839 4.84719 10.4057C4.99797 10.2497 5.219 10.0436 5.50496 9.83749Z" fill="#0E1011"/>
<path d="M9 6.00012C9 5.44784 9.44772 5.00012 10 5.00012C10.5523 5.00012 11 5.44784 11 6.00012C11 6.55241 10.5523 7.00012 10 7.00012C9.44772 7.00012 9 6.55241 9 6.00012Z" fill="#0E1011"/>
<path fill-rule="evenodd" clip-rule="evenodd" d="M15.2943 8.00004C15.2943 12.0314 12.0262 15.2995 7.99479 15.2995C3.9634 15.2995 0.695312 12.0314 0.695312 8.00004C0.695312 3.96865 3.9634 0.700562 7.99479 0.700562C12.0262 0.700562 15.2943 3.96865 15.2943 8.00004ZM14.2943 8.00004C14.2943 11.4791 11.4739 14.2995 7.99479 14.2995C4.51569 14.2995 1.69531 11.4791 1.69531 8.00004C1.69531 4.52094 4.51569 1.70056 7.99479 1.70056C11.4739 1.70056 14.2943 4.52094 14.2943 8.00004Z" fill="#0E1011"/>
</svg>
