<svg viewBox="0 0 16 16" fill="none" xmlns="http://www.w3.org/2000/svg">
<path fill-rule="evenodd" clip-rule="evenodd" d="M1.10355 0.396447C0.908291 0.201184 0.591709 0.201184 0.396447 0.396447C0.201184 0.591709 0.201184 0.908291 0.396447 1.10355L1.44224 2.14935C0.598648 2.47394 0 3.29206 0 4.25V11.75C0 12.9926 1.00736 14 2.25 14H13.2929L14.8964 15.6036C15.0917 15.7988 15.4083 15.7988 15.6036 15.6036C15.7988 15.4083 15.7988 15.0917 15.6036 14.8964L1.10355 0.396447ZM10.4528 11.1599L9.73827 10.4454C9.24786 10.7946 8.64791 11 8 11C6.34315 11 5 9.65685 5 8C5 7.35208 5.2054 6.75214 5.55463 6.26173L4.84007 5.54718C4.31354 6.22452 4 7.07564 4 8C4 10.2091 5.79086 12 8 12C8.92436 12 9.77548 11.6865 10.4528 11.1599ZM6.11839 6.8255C5.96347 7.09833 5.875 7.41383 5.875 7.75V8H6.625V7.75C6.625 7.62436 6.6456 7.50353 6.6836 7.3907L6.11839 6.8255Z" fill="#0E1011"/>
<path d="M16 11.75C16 12.1135 15.9138 12.4568 15.7607 12.7607L11.8987 8.89864C11.965 8.60978 12 8.30898 12 8C12 5.79086 10.2091 4 8 4C7.69102 4 7.39022 4.03503 7.10136 4.10134L4.64645 1.64644L5 1.29289C5.18754 1.10536 5.44189 1 5.70711 1H10.2929C10.5581 1 10.8125 1.10536 11 1.29289L11.7071 2H13.75C14.9926 2 16 3.00736 16 4.25V11.75Z" fill="#0E1011"/>
<path d="M11 8C11 6.34315 9.65685 5 8 5L11 8Z" fill="#0E1011"/>
</svg>
