<svg viewBox="0 0 12 12" fill="none" xmlns="http://www.w3.org/2000/svg">
<path fill-rule="evenodd" clip-rule="evenodd" d="M5.48149 0.0285561C5.62162 -0.0294867 5.78292 0.00259665 5.89017 0.109846L8.89017 3.10985C8.96049 3.18017 9 3.27555 9 3.37501C9 3.47447 8.96049 3.56985 8.89017 3.64018L6.53033 6.00001L8.89017 8.35985C8.96049 8.43017 9 8.52555 9 8.62501C9 8.72447 8.96049 8.81985 8.89017 8.89018L5.89017 11.8902C5.78292 11.9974 5.62162 12.0295 5.48149 11.9715C5.34137 11.9134 5.25 11.7767 5.25 11.625V7.28034L3.64017 8.89018C3.49372 9.03662 3.25628 9.03662 3.10983 8.89018C2.96339 8.74373 2.96339 8.50629 3.10983 8.35985L5.25 6.21968V5.78034L3.10983 3.64018C2.96339 3.49373 2.96339 3.25629 3.10983 3.10985C3.25628 2.9634 3.49372 2.9634 3.64017 3.10985L5.25 4.71968V0.375011C5.25 0.223338 5.34137 0.086599 5.48149 0.0285561ZM6 6.53034V10.7197L8.09467 8.62501L6 6.53034ZM6 5.46968L8.09467 3.37501L6 1.28034V5.46968Z" fill="#0E1011"/>
</svg>
