<svg viewBox="0 0 16 16" fill="none" xmlns="http://www.w3.org/2000/svg">
<path d="M8 0C5.79086 0 4 1.79086 4 4V7C4 9.20914 5.79086 11 8 11C10.2091 11 12 9.20914 12 7V4C12 1.79086 10.2091 0 8 0Z" fill="#0E1011"/>
<path d="M3 7.75C3 7.47386 2.77614 7.25 2.5 7.25C2.22386 7.25 2 7.47386 2 7.75V8C2 10.7614 4.23858 13 7 13H7.5V15H6C5.72386 15 5.5 15.2239 5.5 15.5C5.5 15.7761 5.72386 16 6 16H10C10.2761 16 10.5 15.7761 10.5 15.5C10.5 15.2239 10.2761 15 10 15H8.5V13H9C11.7614 13 14 10.7614 14 8V7.75C14 7.47386 13.7761 7.25 13.5 7.25C13.2239 7.25 13 7.47386 13 7.75V8C13 10.2091 11.2091 12 9 12H7C4.79086 12 3 10.2091 3 8V7.75Z" fill="#0E1011"/>
</svg>
