<svg viewBox="0 0 12 12" fill="none" xmlns="http://www.w3.org/2000/svg">
<path fill-rule="evenodd" clip-rule="evenodd" d="M1.75 9.5C1.75 9.91421 2.08579 10.25 2.5 10.25H4.375C4.58211 10.25 4.75 10.4179 4.75 10.625C4.75 10.8321 4.58211 11 4.375 11H2.5C1.67157 11 1 10.3284 1 9.5L1 2.5C1 1.67157 1.67157 1 2.5 1H4.375C4.58211 1 4.75 1.16789 4.75 1.375C4.75 1.58211 4.58211 1.75 4.375 1.75H2.5C2.08579 1.75 1.75 2.08579 1.75 2.5V9.5ZM2.875 5.99994C2.875 5.79283 3.04289 5.62494 3.25 5.62494H10.3447L8.73483 4.0151C8.58839 3.86866 8.58839 3.63122 8.73483 3.48477C8.88128 3.33833 9.11872 3.33833 9.26517 3.48477L11.7803 5.99994L9.26517 8.5151C9.11872 8.66155 8.88128 8.66155 8.73483 8.5151C8.58839 8.36866 8.58839 8.13122 8.73483 7.98477L10.3447 6.37494H3.25C3.04289 6.37494 2.875 6.20705 2.875 5.99994Z" fill="#0E1011"/>
</svg>
