<svg viewBox="0 0 16 16" fill="none" xmlns="http://www.w3.org/2000/svg">
<path fill-rule="evenodd" clip-rule="evenodd" d="M10 0.5C10 0.223858 10.2239 0 10.5 0C10.7761 0 11 0.223858 11 0.5V1H13.75C14.9926 1 16 2.00736 16 3.25V12.75C16 13.9926 14.9926 15 13.75 15H2.25C1.00736 15 0 13.9926 0 12.75V3.25C0 2.00736 1.00736 1 2.25 1H5V0.5C5 0.223858 5.22386 0 5.5 0C5.77614 0 6 0.223858 6 0.5V1H10V0.5ZM14.875 5.5C14.875 5.29289 14.7071 5.125 14.5 5.125H1.5C1.29289 5.125 1.125 5.29289 1.125 5.5C1.125 5.70711 1.29289 5.875 1.5 5.875H14.5C14.7071 5.875 14.875 5.70711 14.875 5.5Z" fill="#0E1011"/>
</svg>
