<svg viewBox="0 0 16 16" fill="none" xmlns="http://www.w3.org/2000/svg">
<path d="M1 14.9957C0.723858 14.9957 0.5 15.2196 0.5 15.4957C0.5 15.7718 0.723858 15.9957 1 15.9957H15C15.2761 15.9957 15.5 15.7718 15.5 15.4957C15.5 15.2196 15.2761 14.9957 15 14.9957H1Z" fill="#0E1011"/>
<path d="M13.5607 0.849252C12.9749 0.263467 12.0251 0.263464 11.4393 0.849251L10 2.28859L12.7071 4.9957L14.1464 3.55636C14.7322 2.97057 14.7322 2.02083 14.1464 1.43504L13.5607 0.849252Z" fill="#0E1011"/>
<path d="M1.14645 11.1421C1.05268 11.2359 1 11.3631 1 11.4957V13.4957C1 13.7718 1.22386 13.9957 1.5 13.9957H3.5C3.63261 13.9957 3.75979 13.943 3.85355 13.8493L12 5.70281L9.29289 2.9957L1.14645 11.1421Z" fill="#0E1011"/>
</svg>
