<svg viewBox="0 0 16 16" fill="none" xmlns="http://www.w3.org/2000/svg">
<path fill-rule="evenodd" clip-rule="evenodd" d="M15.3 7.99983C15.3 12.0315 12.0316 15.2998 7.99995 15.2998C3.96827 15.2998 0.699951 12.0315 0.699951 7.99983C0.699951 3.96815 3.96827 0.699829 7.99995 0.699829C12.0316 0.699829 15.3 3.96815 15.3 7.99983ZM9.47788 13.592L9.74207 13.7431C9.84792 13.711 9.95254 13.6761 10.0558 13.6384V13.592L9.96914 13.3993L9.91134 13.2341L9.85355 13.0964V12.9037L9.91134 12.7936L10.0558 12.6284L10.2581 12.298V11.7749L10.3159 11.472L11.2984 10.7561L11.6163 10.4258L11.5874 9.6273L11.7319 9.43457L11.9053 9.32444L12.0209 9.2143V8.93897L11.9053 8.85638L11.414 8.71871L11.125 8.58105L10.7783 8.36078L10.5182 8.05792L10.3737 7.83766L10.1714 7.67246L9.65127 7.50726L9.2467 7.287L8.98663 7.2044L8.61096 7.14934L7.97522 7.17687L7.77294 7.14934L7.65735 7.0392L7.54176 6.79141L7.28168 6.73634L7.13719 6.70881L6.99271 6.62621L7.0505 6.26828L7.0794 6.18568L7.0505 6.10309H6.90602L6.76153 6.13062H6.64594L6.38586 6.18568H6.21248L6.15468 6.02049L6.18358 5.80022L6.32807 5.49736L6.58814 5.2771L6.87712 5.24957H7.19499L7.48396 5.3597L7.77294 5.55243H7.83073L7.94632 5.49736L7.97522 5.41476L8.00412 4.89164L8.61096 4.45111L8.98663 4.09318L9.3045 3.84539L9.50678 3.73526L9.96914 3.68019L10.1714 3.62513L10.2003 3.57006V3.45993L10.1714 3.37733L10.1136 3.29473V3.21213L10.1714 3.15707H10.3737L10.5471 3.1846L10.7205 3.12953L10.8361 2.9368L10.8939 2.79914L10.6627 2.68901V2.62159C10.3287 2.45592 9.97708 2.32045 9.6114 2.21874L9.56457 2.24848L9.2467 2.44121L8.87104 2.57888L8.52427 2.63394L8.32199 2.57888L8.2064 2.33108L8.26419 2.08328L8.34169 2.00945C8.22859 2.0031 8.11466 1.99988 7.99997 1.99988C6.76023 1.99988 5.60831 2.37588 4.65202 3.02006V3.04693L4.53643 3.40486C4.469 3.51499 4.33415 3.74076 4.33415 3.76279C4.33415 3.78482 4.29562 4.12072 4.27636 4.28591V4.67138L4.33415 4.91917L4.36305 5.16697L4.44974 5.41476L4.53643 5.69009L4.56533 5.82776H4.8832L5.11438 5.91036L5.20107 6.10309L5.46115 6.57115L5.54784 6.73634L5.9235 6.79141L6.21248 6.84647L6.44366 6.95661L6.73263 7.14934L6.99271 7.42466C7.02161 7.4522 7.09096 7.51277 7.13719 7.5348C7.18343 7.55682 7.32984 7.54397 7.39727 7.5348C7.4647 7.57151 7.59955 7.65043 7.59955 7.67246C7.59955 7.68623 7.62845 7.73441 7.65735 7.78259C7.68624 7.83078 7.71514 7.87896 7.71514 7.89272C7.71514 7.89999 7.71715 7.91108 7.71958 7.92449C7.72637 7.96191 7.73642 8.01738 7.71514 8.05792C7.69984 8.08709 7.6359 8.13169 7.57913 8.1713C7.52872 8.20647 7.48396 8.2377 7.48396 8.25065V8.44338L7.59955 8.85638L7.71514 9.07664V9.35197C7.71514 9.3694 7.70935 9.38684 7.70326 9.40515C7.69013 9.44466 7.67565 9.48825 7.71514 9.5447C7.74587 9.58861 7.76842 9.6403 7.78716 9.68323C7.80366 9.72105 7.8172 9.75207 7.83073 9.76496C7.85963 9.7925 7.88853 9.82003 7.94632 9.84756C7.96783 9.85781 7.98933 9.86424 8.01233 9.87112C8.05113 9.88272 8.09418 9.89559 8.1486 9.93016C8.30834 10.0215 8.38861 10.0539 8.43822 10.0739C8.47835 10.0902 8.49842 10.0983 8.52427 10.1229C8.5628 10.1596 8.5628 10.1596 8.57564 10.18C8.58206 10.1902 8.59173 10.2055 8.61096 10.233C8.63422 10.2663 8.65279 10.2727 8.66669 10.2776C8.68733 10.2848 8.69765 10.2884 8.69765 10.3707V11.4169L8.95773 12.0227L9.16001 12.6834L9.2178 13.3167L9.47788 13.592ZM11.5325 3.14949C11.4226 3.0693 11.3098 2.99276 11.1944 2.92004L11.1539 3.07447L11.3273 3.12953L11.5007 3.15707L11.5325 3.14949Z" fill="#0E1011"/>
</svg>
