<svg viewBox="0 0 12 12" fill="none" xmlns="http://www.w3.org/2000/svg">
<path fill-rule="evenodd" clip-rule="evenodd" d="M3.22101 1.36221C2.90648 1.13735 2.48128 1.12427 2.18309 1.3704C1.88702 1.61478 1.61478 1.88702 1.3704 2.18309C1.12427 2.48128 1.13735 2.90648 1.36221 3.22101C1.76419 3.7833 1.43717 4.5723 0.755329 4.68565C0.373791 4.74908 0.0636947 5.04065 0.0271302 5.42569C0.0091805 5.61471 0 5.80628 0 6C0 6.19371 0.00917963 6.38527 0.0271276 6.57428C0.0636905 6.95933 0.373785 7.25089 0.755325 7.31432C1.43717 7.42768 1.76419 8.21668 1.3622 8.77897C1.13734 9.0935 1.12427 9.51871 1.37039 9.8169C1.61477 10.113 1.887 10.3852 2.18307 10.6296C2.48126 10.8757 2.90647 10.8626 3.221 10.6378C3.78329 10.2358 4.5723 10.5628 4.68566 11.2447C4.74908 11.6262 5.04065 11.9363 5.4257 11.9729C5.61471 11.9908 5.80629 12 6 12C6.19371 12 6.38527 11.9908 6.57427 11.9729C6.95932 11.9363 7.25089 11.6262 7.31432 11.2447C7.42767 10.5628 8.21669 10.2358 8.77898 10.6378C9.09352 10.8626 9.51873 10.8757 9.81692 10.6296C10.113 10.3852 10.3852 10.113 10.6296 9.81692C10.8757 9.51873 10.8626 9.09352 10.6378 8.77898C10.2358 8.21669 10.5628 7.42767 11.2447 7.31432C11.6262 7.25089 11.9363 6.95932 11.9729 6.57427C11.9908 6.38527 12 6.19371 12 6C12 5.80629 11.9908 5.61471 11.9729 5.4257C11.9363 5.04065 11.6262 4.74908 11.2447 4.68566C10.5628 4.5723 10.2358 3.78329 10.6378 3.221C10.8626 2.90647 10.8757 2.48126 10.6296 2.18307C10.3852 1.887 10.113 1.61477 9.8169 1.37039C9.51871 1.12427 9.0935 1.13734 8.77897 1.3622C8.21668 1.76419 7.42768 1.43717 7.31432 0.755325C7.25089 0.373785 6.95933 0.0636905 6.57428 0.0271276C6.38527 0.00917963 6.19371 0 6 0C5.80628 0 5.61471 0.0091805 5.42569 0.0271302C5.04065 0.0636947 4.74908 0.373791 4.68565 0.755329C4.5723 1.43717 3.7833 1.76419 3.22101 1.36221ZM7.71579 5.99999C7.71579 6.94757 6.94762 7.71574 6.00004 7.71574C5.05246 7.71574 4.28429 6.94757 4.28429 5.99999C4.28429 5.05241 5.05246 4.28424 6.00004 4.28424C6.94762 4.28424 7.71579 5.05241 7.71579 5.99999Z" fill="#0E1011"/>
</svg>
