<svg viewBox="0 0 12 12" fill="none" xmlns="http://www.w3.org/2000/svg">
<path fill-rule="evenodd" clip-rule="evenodd" d="M12 6C12 9.31371 9.31371 12 6 12C2.68629 12 0 9.31371 0 6C0 2.68629 2.68629 0 6 0C9.31371 0 12 2.68629 12 6ZM5.67797 0.984432L5.50044 0.938301C4.64814 1.02139 3.8575 1.31484 3.18109 1.76608L3.27226 1.78977L3.4023 1.91367L3.48899 2.05821V2.28536L3.4023 2.55381C3.35173 2.63641 3.25059 2.80573 3.25059 2.82225C3.25059 2.83877 3.22169 3.0907 3.20724 3.2146V3.50369L3.25059 3.68954L3.27226 3.87539L3.33728 4.06123L3.4023 4.26773L3.42397 4.37098H3.66237L3.83576 4.43293L3.90078 4.57747L4.09583 4.92852L4.16085 5.05242L4.4426 5.09372L4.65933 5.13502L4.83272 5.21761L5.04945 5.36216L5.2445 5.56866C5.26618 5.58931 5.31819 5.63474 5.35287 5.65126C5.38755 5.66778 5.49736 5.65814 5.54793 5.65126C5.5985 5.67879 5.69964 5.73799 5.69964 5.75451C5.69964 5.76483 5.72131 5.80097 5.74298 5.8371C5.76466 5.87324 5.78633 5.90938 5.78633 5.9197C5.78633 5.92515 5.78784 5.93347 5.78966 5.94353C5.79475 5.9716 5.80229 6.0132 5.78633 6.0436C5.77485 6.06547 5.7269 6.09893 5.68432 6.12863C5.64652 6.15501 5.61295 6.17844 5.61295 6.18815V6.3327L5.69964 6.64244L5.78633 6.80764V7.01414C5.78633 7.02721 5.78198 7.04029 5.77742 7.05402C5.76757 7.08366 5.75671 7.11635 5.78633 7.15868C5.80937 7.19162 5.82629 7.23039 5.84034 7.26258C5.85272 7.29095 5.86287 7.31421 5.87302 7.32388C5.8947 7.34453 5.91637 7.36518 5.95971 7.38583C5.97585 7.39352 5.99198 7.39834 6.00923 7.4035C6.03833 7.4122 6.07061 7.42185 6.11143 7.44778C6.23123 7.51627 6.29143 7.54059 6.32864 7.55562C6.35874 7.56778 6.37379 7.57386 6.39317 7.59233C6.42207 7.61986 6.42207 7.61986 6.4317 7.63516C6.43652 7.6428 6.44375 7.65428 6.45819 7.67493C6.47564 7.69985 6.48957 7.70472 6.49999 7.70836C6.51547 7.71377 6.52321 7.71647 6.52321 7.77817V8.56286L6.71827 9.01715L6.86998 9.51275L6.91333 9.98769L7.10838 10.1942L7.32512 10.3181L7.43348 10.3594L7.54185 10.3181V10.1942L7.47683 10.0496L7.43348 9.92574L7.39013 9.82249V9.67794L7.43348 9.59534L7.54185 9.47145L7.69356 9.22365V8.83131L7.7369 8.60416L8.47379 8.06727L8.71219 7.81947L8.69052 7.22063L8.79888 7.07609L8.92892 6.99349L9.01561 6.91089V6.70439L8.92892 6.64244L8.56048 6.53919L8.34375 6.43594L8.08367 6.27075L7.88861 6.0436L7.78025 5.8784L7.62854 5.75451L7.23842 5.63061L6.935 5.46541L6.73994 5.40346L6.45819 5.36216L5.98139 5.38281L5.82968 5.36216L5.74298 5.27956L5.65629 5.09372L5.46123 5.05242L5.35287 5.03177L5.2445 4.96982L5.28785 4.70137L5.30952 4.63942L5.28785 4.57747H5.17949L5.07112 4.59812H4.98443L4.78937 4.63942H4.65933L4.61599 4.51553L4.63766 4.35033L4.74602 4.12318L4.94108 3.95798L5.15781 3.93733H5.39622L5.61295 4.01993L5.82968 4.16448H5.87302L5.95971 4.12318L5.98139 4.06123L6.00306 3.66889L6.45819 3.33849L6.73994 3.07005L6.97835 2.8842L7.13006 2.8016L7.47683 2.7603L7.62854 2.719L7.65021 2.6777V2.59511L7.62854 2.53316L7.58519 2.47121V2.40926L7.62854 2.36796H7.78025L7.91029 2.38861L8.04033 2.34731L8.12702 2.20276L8.17036 2.09951L7.99698 2.01692V1.83107L7.95363 1.74847H7.82359L7.7369 1.70717L7.58519 1.64522L7.47683 1.54197L7.36846 1.56262L7.1734 1.68652L6.935 1.83107L6.65325 1.93432L6.39317 1.97562L6.24146 1.93432L6.15477 1.74847L6.19812 1.56262L6.28481 1.48002L6.54489 1.37678L6.73994 1.29418L7.02169 1.21158L7.06504 1.14963V1.02578C6.89466 0.989476 6.72112 0.961704 6.54489 0.942932V0.984432L6.39317 1.08768L6.28481 1.14963H6.06808L5.67797 0.984432ZM7.67188 1.29418V1.19528C7.8144 1.24487 7.95403 1.30061 8.09046 1.3622L7.95363 1.41807H7.78025L7.67188 1.29418ZM9.43397 2.2484C9.18556 2.02089 8.91447 1.81773 8.6245 1.6427L8.6255 1.64522L8.58215 1.83107L8.49546 1.97562L8.40877 2.14081L8.36542 2.30601L8.49546 2.34731L8.6255 2.36796L8.88557 2.30601L9.29736 2.24406L9.43397 2.2484Z" fill="#0E1011"/>
</svg>
