<svg viewBox="0 0 12 12" fill="none" xmlns="http://www.w3.org/2000/svg">
<path fill-rule="evenodd" clip-rule="evenodd" d="M11.625 3.9375C11.625 5.90501 10.03 7.5 8.0625 7.5C7.46493 7.5 6.90173 7.35287 6.40714 7.09286L5.25 8.25V9C5.25 9.20711 5.08211 9.375 4.875 9.375H4.125V10.125C4.125 10.3321 3.95711 10.5 3.75 10.5H3V11.25C3 11.4571 2.83211 11.625 2.625 11.625H0.375V9.375L4.68283 5.06717C4.56424 4.7122 4.5 4.33235 4.5 3.9375C4.5 1.96999 6.09499 0.375 8.0625 0.375C10.03 0.375 11.625 1.96999 11.625 3.9375ZM8.625 4.125C9.03921 4.125 9.375 3.78921 9.375 3.375C9.375 2.96079 9.03921 2.625 8.625 2.625C8.21079 2.625 7.875 2.96079 7.875 3.375C7.875 3.78921 8.21079 4.125 8.625 4.125Z" fill="#0E1011"/>
</svg>
