<svg viewBox="0 0 12 12" fill="none" xmlns="http://www.w3.org/2000/svg">
<path d="M4.12872 7.37803C4.55617 7.06987 5.19397 6.75 6 6.75C6.80603 6.75 7.44383 7.06987 7.87128 7.37803C8.08575 7.53264 8.25152 7.68722 8.3646 7.80419C8.4213 7.86283 8.46522 7.9125 8.49583 7.94865C8.51115 7.96675 8.52317 7.9815 8.53184 7.99236L8.53556 7.99703L8.54234 8.00566L8.54569 8.01001L8.54689 8.01158C8.54689 8.01158 8.54777 8.01274 8.23895 8.24233L8.54777 8.01274C8.67569 8.1818 8.64112 8.42165 8.47057 8.54845C8.30015 8.67514 8.05846 8.64104 7.93046 8.47235L7.92652 8.46738C7.92221 8.46198 7.91483 8.45289 7.90446 8.44064C7.88368 8.41611 7.85107 8.37908 7.80719 8.3337C7.71912 8.2426 7.58753 8.11976 7.41718 7.99695C7.07499 7.75026 6.59331 7.5153 6 7.5153C5.40669 7.5153 4.92501 7.75026 4.58282 7.99695C4.41247 8.11976 4.28088 8.2426 4.19281 8.3337C4.14893 8.37908 4.11632 8.41611 4.09554 8.44064C4.08517 8.45289 4.07779 8.46198 4.07348 8.46738L4.06934 8.47263C3.94137 8.6415 3.69991 8.67519 3.52943 8.54845C3.35888 8.42165 3.32431 8.1818 3.45223 8.01274L3.76105 8.24233C3.45223 8.01274 3.45223 8.01274 3.45223 8.01274L3.45311 8.01158L3.45431 8.01001L3.45766 8.00566L3.46099 8.00141L3.46816 7.99236C3.47683 7.9815 3.48885 7.96675 3.50417 7.94865C3.53478 7.9125 3.5787 7.86283 3.6354 7.80419C3.74848 7.68722 3.91425 7.53264 4.12872 7.37803Z" fill="#0E1011"/>
<path d="M4.5 3.75C4.08579 3.75 3.75 4.08579 3.75 4.5C3.75 4.91421 4.08579 5.25 4.5 5.25C4.91421 5.25 5.25 4.91421 5.25 4.5C5.25 4.08579 4.91421 3.75 4.5 3.75Z" fill="#0E1011"/>
<path d="M7.5 3.75C7.08579 3.75 6.75 4.08579 6.75 4.5C6.75 4.91421 7.08579 5.25 7.5 5.25C7.91421 5.25 8.25 4.91421 8.25 4.5C8.25 4.08579 7.91421 3.75 7.5 3.75Z" fill="#0E1011"/>
<path fill-rule="evenodd" clip-rule="evenodd" d="M12 6C12 9.31371 9.31371 12 6 12C2.68629 12 0 9.31371 0 6C0 2.68629 2.68629 0 6 0C9.31371 0 12 2.68629 12 6ZM6 11.25C8.8995 11.25 11.25 8.8995 11.25 6C11.25 3.1005 8.8995 0.75 6 0.75C3.1005 0.75 0.75 3.1005 0.75 6C0.75 8.8995 3.1005 11.25 6 11.25Z" fill="#0E1011"/>
</svg>
