<svg viewBox="0 0 12 12" fill="none" xmlns="http://www.w3.org/2000/svg">
<path fill-rule="evenodd" clip-rule="evenodd" d="M12 6C12 9.31371 9.31371 12 6 12C2.68629 12 0 9.31371 0 6C0 2.68629 2.68629 0 6 0C9.31371 0 12 2.68629 12 6ZM3.75002 4.5C3.75002 4.08579 4.08581 3.75 4.50002 3.75C4.91424 3.75 5.25002 4.08579 5.25002 4.5C5.25002 4.91421 4.91424 5.25 4.50002 5.25C4.08581 5.25 3.75002 4.91421 3.75002 4.5ZM6.75002 4.5C6.75002 4.08579 7.08581 3.75 7.50002 3.75C7.91424 3.75 8.25002 4.08579 8.25002 4.5C8.25002 4.91421 7.91424 5.25 7.50002 5.25C7.08581 5.25 6.75002 4.91421 6.75002 4.5ZM4.01519 7.42233C4.49145 7.89859 5.2307 8.15625 6.00002 8.15625C6.76934 8.15625 7.5086 7.89859 7.98486 7.42233C8.1313 7.27589 8.36874 7.27589 8.51519 7.42233C8.66163 7.56878 8.66163 7.80622 8.51519 7.95267C7.86645 8.60141 6.9182 8.90625 6.00002 8.90625C5.08184 8.90625 4.1336 8.60141 3.48486 7.95267C3.33841 7.80622 3.33841 7.56878 3.48486 7.42233C3.6313 7.27589 3.86874 7.27589 4.01519 7.42233Z" fill="#0E1011"/>
</svg>
