<svg viewBox="0 0 16 16" fill="none" xmlns="http://www.w3.org/2000/svg">
<path fill-rule="evenodd" clip-rule="evenodd" d="M15.2943 7.99992C15.2943 12.0313 12.0262 15.2994 7.99479 15.2994C3.9634 15.2994 0.695312 12.0313 0.695312 7.99992C0.695312 3.96853 3.9634 0.700439 7.99479 0.700439C12.0262 0.700439 15.2943 3.96853 15.2943 7.99992ZM7.38749 14.4084C7.2171 14.31 7.15872 14.0921 7.25709 13.9217L8.92667 11.0299H2.49999C2.30324 11.0299 2.14374 10.8704 2.14374 10.6737C2.14374 10.4769 2.30324 10.3174 2.49999 10.3174H5.83919L2.62586 4.7517C2.52748 4.5813 2.58586 4.36342 2.75625 4.26505C2.92664 4.16667 3.14452 4.22505 3.2429 4.39545L4.9125 7.28728L8.12584 1.7216C8.22422 1.55121 8.4421 1.49282 8.61249 1.5912C8.78288 1.68958 8.84126 1.90745 8.74289 2.07785L7.07329 4.96967L13.5 4.96973C13.6967 4.96973 13.8562 5.12923 13.8562 5.32598C13.8562 5.52273 13.6967 5.68223 13.5 5.68223H10.1608L13.3741 11.2479C13.4725 11.4183 13.4141 11.6361 13.2438 11.7345C13.0734 11.8329 12.8555 11.7745 12.7571 11.6041L11.0875 8.71229L7.87414 14.278C7.77576 14.4484 7.55788 14.5068 7.38749 14.4084Z" fill="#0E1011"/>
</svg>
