<svg viewBox="0 0 12 12" fill="none" xmlns="http://www.w3.org/2000/svg">
<path fill-rule="evenodd" clip-rule="evenodd" d="M2.625 1.125C2.83211 1.125 3 1.29289 3 1.5V3C3 3.20711 2.83211 3.375 2.625 3.375C2.41789 3.375 2.25 3.20711 2.25 3V1.5C2.25 1.29289 2.41789 1.125 2.625 1.125ZM4.875 1.125C5.08211 1.125 5.25 1.29289 5.25 1.5V3C5.25 3.20711 5.08211 3.375 4.875 3.375C4.66789 3.375 4.5 3.20711 4.5 3V1.5C4.5 1.29289 4.66789 1.125 4.875 1.125ZM7.125 1.125C7.33211 1.125 7.5 1.29289 7.5 1.5V3C7.5 3.20711 7.33211 3.375 7.125 3.375C6.91789 3.375 6.75 3.20711 6.75 3V1.5C6.75 1.29289 6.91789 1.125 7.125 1.125ZM1.5 5.25C1.08579 5.25 0.75 5.58579 0.75 6V9C0.75 9.82843 1.42157 10.5 2.25 10.5H7.5C8.32843 10.5 9 9.82843 9 9V5.25H1.5ZM9.75 5.25V8.01824L10.8354 7.47553C11.0895 7.34849 11.25 7.08879 11.25 6.80471V6C11.25 5.58579 10.9142 5.25 10.5 5.25H9.75ZM9.75 8.85676L11.1708 8.14635C11.679 7.89226 12 7.37287 12 6.80471V6C12 5.17157 11.3284 4.5 10.5 4.5H1.5C0.671573 4.5 0 5.17157 0 6V9C0 10.2426 1.00736 11.25 2.25 11.25H7.5C8.74264 11.25 9.75 10.2426 9.75 9V8.85676Z" fill="#0E1011"/>
<path d="M0.75 6C0.75 5.58579 1.08579 5.25 1.5 5.25H9V9C9 9.82843 8.32843 10.5 7.5 10.5H2.25C1.42157 10.5 0.75 9.82843 0.75 9V6Z" fill="#0E1011"/>
</svg>
