<svg viewBox="0 0 12 12" fill="none" xmlns="http://www.w3.org/2000/svg">
<path d="M9 3C9 4.65685 7.65685 6 6 6C4.34315 6 3 4.65685 3 3C3 1.34315 4.34315 0 6 0C7.65685 0 9 1.34315 9 3Z" fill="#0E1011"/>
<path d="M3.12625 6.75C2.19315 6.75 1.40205 7.43612 1.27009 8.35983L1.11035 9.47802C2.1981 11.0045 3.98282 12 6.00004 12C6.38588 12 6.7632 11.9636 7.12878 11.894C6.43612 11.2759 6 10.3764 6 9.375C6 8.31478 6.48888 7.36873 7.2535 6.75H3.12625Z" fill="#0E1011"/>
<path fill-rule="evenodd" clip-rule="evenodd" d="M12 9.375C12 10.8247 10.8247 12 9.375 12C7.92525 12 6.75 10.8247 6.75 9.375C6.75 7.92525 7.92525 6.75 9.375 6.75C10.8247 6.75 12 7.92525 12 9.375ZM9.375 7.5C9.58211 7.5 9.75 7.66789 9.75 7.875V9H10.875C11.0821 9 11.25 9.16789 11.25 9.375C11.25 9.58211 11.0821 9.75 10.875 9.75H9.75V11.0625C9.75 11.2696 9.58211 11.4375 9.375 11.4375C9.16789 11.4375 9 11.2696 9 11.0625V9.75H7.875C7.66789 9.75 7.5 9.58211 7.5 9.375C7.5 9.16789 7.66789 9 7.875 9H9V7.875C9 7.66789 9.16789 7.5 9.375 7.5Z" fill="#0E1011"/>
</svg>
