<svg width="16" height="16" viewBox="0 0 16 16" fill="none" xmlns="http://www.w3.org/2000/svg">
<path fill-rule="evenodd" clip-rule="evenodd" d="M15.2943 8.00004C15.2943 12.0314 12.0262 15.2995 7.99479 15.2995C3.9634 15.2995 0.695312 12.0314 0.695312 8.00004C0.695312 3.96865 3.9634 0.700562 7.99479 0.700562C12.0262 0.700562 15.2943 3.96865 15.2943 8.00004ZM8.00002 9.00012C9.65688 9.00012 11 7.65698 11 6.00012C11 4.34327 9.65688 3.00012 8.00002 3.00012C6.34317 3.00012 5.00002 4.34327 5.00002 6.00012C5.00002 7.65698 6.34317 9.00012 8.00002 9.00012ZM7.99476 14.2995C9.93164 14.2995 11.6644 13.4254 12.8199 12.0501L12.7315 11.6079C12.5445 10.673 11.7237 10.0001 10.7703 10.0001H10.2361C10.0032 10.0001 9.77355 10.0543 9.56527 10.1585L9.11806 10.3821C8.41424 10.734 7.58581 10.734 6.88199 10.3821L6.43477 10.1585C6.22649 10.0543 5.99682 10.0001 5.76395 10.0001H5.22973C4.27637 10.0001 3.45554 10.673 3.26857 11.6079L3.1781 12.0602C4.33366 13.4297 6.06263 14.2995 7.99476 14.2995Z" fill="#0E1011"/>
</svg>
