<svg viewBox="0 0 16 16" fill="none" xmlns="http://www.w3.org/2000/svg">
<path fill-rule="evenodd" clip-rule="evenodd" d="M15.233 9H8V12.5C8 13.3284 8.67157 14 9.5 14C10.3284 14 11 13.3284 11 12.5V12.25C11 11.9739 11.2239 11.75 11.5 11.75C11.7761 11.75 12 11.9739 12 12.25V12.5C12 13.8807 10.8807 15 9.5 15C8.11929 15 7 13.8807 7 12.5V9H0.766972C0.504017 9 0.285997 8.79632 0.268128 8.53398C0.256105 8.35747 0.25 8.17941 0.25 8C0.25 3.71979 3.71979 0.25 8 0.25C12.2802 0.25 15.75 3.71979 15.75 8C15.75 8.17941 15.7439 8.35747 15.7319 8.53398C15.714 8.79632 15.496 9 15.233 9ZM4.10416 4.11767C5.10055 3.11784 6.47765 2.5 8 2.5C8.27614 2.5 8.5 2.27614 8.5 2C8.5 1.72386 8.27614 1.5 8 1.5C6.20115 1.5 4.57218 2.23138 3.39584 3.41179C3.20091 3.60739 3.20146 3.92397 3.39706 4.11889C3.59266 4.31382 3.90924 4.31327 4.10416 4.11767Z" fill="#0E1011"/>
</svg>
