<svg viewBox="0 0 12 12" fill="none" xmlns="http://www.w3.org/2000/svg">
<path fill-rule="evenodd" clip-rule="evenodd" d="M6 12C9.31371 12 12 9.31371 12 6C12 2.68629 9.31371 0 6 0C2.68629 0 0 2.68629 0 6C0 9.31371 2.68629 12 6 12ZM11.25 6C11.25 8.8995 8.8995 11.25 6 11.25C3.1005 11.25 0.75 8.8995 0.75 6C0.75 3.1005 3.1005 0.75 6 0.75C8.8995 0.75 11.25 3.1005 11.25 6Z" fill="#0E1011"/>
<path fill-rule="evenodd" clip-rule="evenodd" d="M6 3.75C6.27614 3.75 6.5 3.97386 6.5 4.25V4.49998C6.5 4.77612 6.27614 4.99998 6 4.99998C5.72386 4.99998 5.5 4.77612 5.5 4.49998V4.25C5.5 3.97386 5.72386 3.75 6 3.75ZM6 5.49998C6.27614 5.49998 6.5 5.72384 6.5 5.99998V8.24137C6.5 8.51751 6.27614 8.74137 6 8.74137C5.72386 8.74137 5.5 8.51751 5.5 8.24137V5.99998C5.5 5.72384 5.72386 5.49998 6 5.49998Z" fill="#0E1011"/>
</svg>
