<svg viewBox="0 0 12 12" fill="none" xmlns="http://www.w3.org/2000/svg">
<path fill-rule="evenodd" clip-rule="evenodd" d="M4.5 2.2749C2.49797 2.2749 0.875 3.89787 0.875 5.8999V6.1999C0.875 8.36762 2.63228 10.1249 4.8 10.1249H8.5C9.94975 10.1249 11.125 8.94965 11.125 7.4999C11.125 6.05015 9.94975 4.8749 8.5 4.8749C8.42669 4.8749 8.35416 4.8779 8.28251 4.88376L7.9991 4.90696L7.90029 4.64032C7.38826 3.25865 6.05854 2.2749 4.5 2.2749ZM0.125 5.8999C0.125 3.48365 2.08375 1.5249 4.5 1.5249C6.28487 1.5249 7.81928 2.59357 8.49984 4.1249C8.49978 4.1249 8.49989 4.1249 8.49984 4.1249C10.3638 4.1249 11.875 5.63594 11.875 7.4999C11.875 9.36386 10.364 10.8749 8.5 10.8749H4.8C2.21807 10.8749 0.125 8.78183 0.125 6.1999V5.8999Z" fill="#0E1011"/>
</svg>
