<svg viewBox="0 0 16 16" fill="none" xmlns="http://www.w3.org/2000/svg">
<path fill-rule="evenodd" clip-rule="evenodd" d="M1.12109 1.14645C1.31635 0.951184 1.63293 0.951184 1.82819 1.14645L4.26743 3.58568L6.60621 5.89846L10.0411 9.33333C10.0828 9.35605 10.1215 9.3848 10.1558 9.41905L12.4411 11.7044C12.4758 11.7391 12.5048 11.7783 12.5276 11.8205L14.8535 14.1464C15.0488 14.3417 15.0488 14.6583 14.8535 14.8536C14.6583 15.0488 14.3417 15.0488 14.1464 14.8536L12.0134 12.7205C10.9044 13.4583 9.55836 14 7.99997 14C5.41222 14 3.41385 12.51 2.09402 11.0905C1.42939 10.3756 0.921458 9.66272 0.579642 9.12905C0.408423 8.86173 0.278065 8.63809 0.18983 8.47992C0.145693 8.4008 0.11204 8.33796 0.0890302 8.29411C0.0775237 8.27219 0.0686736 8.255 0.0625 8.24289L0.0552477 8.22858L0.0531305 8.22435L0.0524498 8.22299C0.0523533 8.22279 0.0520215 8.22212 0.499973 8C0.0520215 7.77788 0.0520764 7.77776 0.0521358 7.77764L0.0526462 7.77662L0.0537167 7.77448L0.0571928 7.76756L0.0694723 7.7435C0.0800199 7.72301 0.0952889 7.69373 0.115232 7.65647C0.155109 7.58195 0.213728 7.47541 0.290715 7.34321C0.444576 7.07899 0.67244 6.71121 0.971395 6.29124C1.4866 5.5675 2.2214 4.6768 3.16245 3.89492L1.12109 1.85355C0.925824 1.65829 0.925825 1.34171 1.12109 1.14645ZM3.87481 4.6038C2.98718 5.32615 2.28401 6.17167 1.78606 6.87117C1.50752 7.26246 1.29601 7.60406 1.15487 7.84644C1.12171 7.90338 1.09247 7.95478 1.06719 8C1.14674 8.1423 1.26537 8.34558 1.42172 8.5897C1.74042 9.08728 2.2126 9.74939 2.82638 10.4095C4.06337 11.74 5.815 13 7.99997 13C9.24933 13 10.3558 12.5892 11.3085 11.986L9.77859 10.4561C9.28106 10.8228 8.6656 11.04 7.99997 11.04C6.34312 11.04 4.99997 9.69686 4.99997 8.04C4.99997 7.38276 5.21172 6.77443 5.57011 6.28025L3.87481 4.6038ZM6.29208 6.99855C6.10659 7.30194 5.99997 7.65831 5.99997 8.04C5.99997 9.14457 6.8954 10.04 7.99997 10.04C8.38166 10.04 8.73804 9.93338 9.04142 9.7479L6.29208 6.99855ZM0.499973 8L0.0521358 7.77764C-0.0172621 7.9176 -0.0169481 8.08303 0.0524498 8.22299L0.499973 8ZM7.99997 3C7.34528 3 6.73174 3.11257 6.15972 3.30544C5.89805 3.39366 5.6144 3.25305 5.52618 2.99138C5.43795 2.72971 5.57856 2.44607 5.84023 2.35784C6.50718 2.13298 7.2285 2 7.99997 2C10.5877 2 12.5861 3.48999 13.9059 4.90954C14.5706 5.62439 15.0785 6.33728 15.4203 6.87095C15.5915 7.13827 15.7219 7.36191 15.8101 7.52008C15.8543 7.5992 15.8879 7.66204 15.9109 7.70589C15.9224 7.72781 15.9313 7.745 15.9374 7.75711L15.9447 7.77142L15.9468 7.77565L15.9477 7.77751C15.9478 7.7777 15.9479 7.77788 15.5 8C15.9479 8.22212 15.9479 8.2222 15.9478 8.22228L15.9469 8.2242L15.9449 8.22808L15.9383 8.24118C15.9327 8.25224 15.9246 8.26792 15.9142 8.28792C15.8932 8.32791 15.8627 8.38523 15.8226 8.45753C15.7424 8.60209 15.6241 8.80687 15.4686 9.05311C15.1582 9.5448 14.6971 10.206 14.0936 10.8841C13.91 11.0904 13.594 11.1088 13.3877 10.9253C13.1814 10.7417 13.163 10.4256 13.3466 10.2193C13.9051 9.59166 14.334 8.97698 14.623 8.51925C14.7574 8.30637 14.861 8.12835 14.9328 8C14.8532 7.8577 14.7346 7.65442 14.5782 7.4103C14.2595 6.91272 13.7873 6.25061 13.1736 5.59046C11.9366 4.26001 10.1849 3 7.99997 3ZM15.5 8L15.9478 8.22228C16.0172 8.08233 16.0171 7.91746 15.9477 7.77751L15.5 8Z" fill="#0E1011"/>
</svg>
