<svg viewBox="0 0 16 16" fill="none" xmlns="http://www.w3.org/2000/svg">
<path fill-rule="evenodd" clip-rule="evenodd" d="M8 1C8.27614 1 8.5 1.22386 8.5 1.5V10.2929L10.6464 8.14645C10.8417 7.95118 11.1583 7.95118 11.3536 8.14645C11.5488 8.34171 11.5488 8.65829 11.3536 8.85355L8 12.2071L4.64645 8.85355C4.45118 8.65829 4.45118 8.34171 4.64645 8.14645C4.84171 7.95118 5.15829 7.95118 5.35355 8.14645L7.5 10.2929V1.5C7.5 1.22386 7.72386 1 8 1ZM1.5 10C1.77614 10 2 10.2239 2 10.5V13C2 13.5523 2.44772 14 3 14H13C13.5523 14 14 13.5523 14 13V10.5C14 10.2239 14.2239 10 14.5 10C14.7761 10 15 10.2239 15 10.5V13C15 14.1046 14.1046 15 13 15H3C1.89543 15 1 14.1046 1 13V10.5C1 10.2239 1.22386 10 1.5 10Z" fill="#0E1011"/>
</svg>
