<svg viewBox="0 0 12 12" fill="none" xmlns="http://www.w3.org/2000/svg">
<path fill-rule="evenodd" clip-rule="evenodd" d="M3.25 2.47708C3.25 1.79938 3.79938 1.25 4.47708 1.25C4.88736 1.25 5.27049 1.45505 5.49808 1.79642L6 2.54931L6.50192 1.79642C6.72951 1.45505 7.11264 1.25 7.52292 1.25C8.20062 1.25 8.75 1.79938 8.75 2.47708V2.5C8.75 2.72768 8.68913 2.94114 8.58277 3.125H10.5C11.2594 3.125 11.875 3.74061 11.875 4.5C11.875 5.12939 11.4521 5.66001 10.875 5.82324V9C10.875 10.0355 10.0355 10.875 9 10.875H3C1.96447 10.875 1.125 10.0355 1.125 9V5.82324C0.547874 5.66001 0.125 5.12939 0.125 4.5C0.125 3.74061 0.740609 3.125 1.5 3.125H3.41723C3.31087 2.94114 3.25 2.72768 3.25 2.5V2.47708ZM8.25 2.5C8.25 2.76087 8.11681 2.99063 7.91472 3.125H6.25V3.07569L6.91795 2.07377C7.0528 1.8715 7.27982 1.75 7.52292 1.75C7.92447 1.75 8.25 2.07553 8.25 2.47708V2.5ZM5.75 3.07569V3.125H4.08528C3.88319 2.99063 3.75 2.76087 3.75 2.5V2.47708C3.75 2.07553 4.07553 1.75 4.47708 1.75C4.72018 1.75 4.9472 1.8715 5.08205 2.07377L5.75 3.07569ZM6.25 3.5C6.25 3.36193 6.13807 3.25 6 3.25C5.86193 3.25 5.75 3.36193 5.75 3.5V5.25H2.5C2.36193 5.25 2.25 5.36193 2.25 5.5C2.25 5.63807 2.36193 5.75 2.5 5.75H5.75V9.5C5.75 9.63807 5.86193 9.75 6 9.75C6.13807 9.75 6.25 9.63807 6.25 9.5V5.75H9.5C9.63807 5.75 9.75 5.63807 9.75 5.5C9.75 5.36193 9.63807 5.25 9.5 5.25H6.25V3.5Z" fill="#0E1011"/>
</svg>
