<svg viewBox="0 0 12 12" fill="none" xmlns="http://www.w3.org/2000/svg">
<path fill-rule="evenodd" clip-rule="evenodd" d="M0.125 2.5C0.125 1.74061 0.740608 1.125 1.5 1.125H4.65533L5.65533 2.125H10.3281C11.2256 2.125 11.9531 2.85254 11.9531 3.75V5.5C11.9531 5.70711 11.7852 5.875 11.5781 5.875C11.371 5.875 11.2031 5.70711 11.2031 5.5V3.75C11.2031 3.26675 10.8114 2.875 10.3281 2.875H5.65533L4.65533 3.875H0.875V9.25C0.875 9.73325 1.26675 10.125 1.75 10.125H5.5C5.70711 10.125 5.875 10.2929 5.875 10.5C5.875 10.7071 5.70711 10.875 5.5 10.875H1.75C0.852537 10.875 0.125 10.1475 0.125 9.25V2.5ZM4.34467 1.875L4.96967 2.5L4.34467 3.125H0.875V2.5C0.875 2.15482 1.15482 1.875 1.5 1.875H4.34467Z" fill="#0E1011"/>
<path fill-rule="evenodd" clip-rule="evenodd" d="M12 9.5C12 10.8807 10.8807 12 9.5 12C8.11929 12 7 10.8807 7 9.5C7 8.11929 8.11929 7 9.5 7C10.8807 7 12 8.11929 12 9.5ZM9.5 7.6C9.72091 7.6 9.9 7.77909 9.9 8V9.1H11C11.2209 9.1 11.4 9.27909 11.4 9.5C11.4 9.72091 11.2209 9.9 11 9.9H9.9V11C9.9 11.2209 9.72091 11.4 9.5 11.4C9.27909 11.4 9.1 11.2209 9.1 11V9.9H8C7.77909 9.9 7.6 9.72091 7.6 9.5C7.6 9.27909 7.77909 9.1 8 9.1H9.1V8C9.1 7.77909 9.27909 7.6 9.5 7.6Z" fill="#0E1011"/>
</svg>
