<svg viewBox="0 0 16 16" fill="none" xmlns="http://www.w3.org/2000/svg">
<path fill-rule="evenodd" clip-rule="evenodd" d="M5.88411 0.17992C5.70733 -0.0322181 5.39205 -0.0608801 5.17991 0.115902C4.96777 0.292684 4.93911 0.607966 5.11589 0.820105L6.93248 3.00001H2.25C1.00736 3.00001 0 4.00737 0 5.25001V11.75C0 12.9927 1.00736 14 2.25 14H13.75C14.9926 14 16 12.9927 16 11.75V5.25001C16 4.00737 14.9926 3.00001 13.75 3.00001H9.06752L10.8841 0.820105C11.0609 0.607966 11.0322 0.292684 10.8201 0.115902C10.608 -0.0608801 10.2927 -0.0322181 10.1159 0.17992L8 2.71899L5.88411 0.17992ZM2.625 6.25C2.625 5.90482 2.90482 5.625 3.25 5.625H4.25C4.45711 5.625 4.625 5.45711 4.625 5.25C4.625 5.04289 4.45711 4.875 4.25 4.875H3.25C2.49061 4.875 1.875 5.49061 1.875 6.25V7.25C1.875 7.45711 2.04289 7.625 2.25 7.625C2.45711 7.625 2.625 7.45711 2.625 7.25V6.25Z" fill="#0E1011"/>
</svg>
