<svg viewBox="0 0 16 16" fill="none" xmlns="http://www.w3.org/2000/svg">
<path d="M3.88569 1.69009C4.05188 1.91062 4.00782 2.22413 3.78729 2.39031C2.90506 3.05512 2.19269 3.91929 1.70844 4.91216C1.22418 5.90504 0.981786 6.99842 1.00107 8.10293C1.02035 9.20743 1.30076 10.2917 1.81937 11.2671C2.33798 12.2424 3.08007 13.0812 3.98496 13.7148C4.21117 13.8732 4.26614 14.185 4.10775 14.4112C3.94936 14.6374 3.63759 14.6924 3.41139 14.534C2.37722 13.8098 1.52912 12.8512 0.936421 11.7365C0.343721 10.6218 0.0232531 9.38267 0.00121873 8.12038C-0.0208156 6.85809 0.256209 5.60851 0.809644 4.47379C1.36308 3.33908 2.17721 2.35146 3.18547 1.59168C3.40601 1.42549 3.71951 1.46955 3.88569 1.69009Z" fill="#0E1011"/>
<path d="M12.1143 1.69009C11.9481 1.91062 11.9922 2.22413 12.2127 2.39031C13.0949 3.05512 13.8073 3.91929 14.2916 4.91216C14.7758 5.90504 15.0182 6.99842 14.9989 8.10293C14.9797 9.20743 14.6992 10.2917 14.1806 11.2671C13.662 12.2424 12.9199 13.0812 12.015 13.7148C11.7888 13.8732 11.7339 14.185 11.8922 14.4112C12.0506 14.6374 12.3624 14.6924 12.5886 14.534C13.6228 13.8098 14.4709 12.8512 15.0636 11.7365C15.6563 10.6218 15.9767 9.38267 15.9988 8.12038C16.0208 6.85809 15.7438 5.60851 15.1904 4.47379C14.6369 3.33908 13.8228 2.35146 12.8145 1.59168C12.594 1.42549 12.2805 1.46955 12.1143 1.69009Z" fill="#0E1011"/>
<path d="M5.59273 4.80546C5.81327 4.63927 5.85733 4.32577 5.69114 4.10524C5.52496 3.8847 5.21146 3.84064 4.99092 4.00683C4.36075 4.48169 3.85192 5.09895 3.50603 5.80815C3.16013 6.51734 2.98699 7.29833 3.00076 8.08727C3.01453 8.8762 3.21483 9.65067 3.58526 10.3474C3.9557 11.0441 4.48576 11.6432 5.13212 12.0958C5.35832 12.2541 5.67009 12.1992 5.82848 11.973C5.98687 11.7468 5.9319 11.435 5.70569 11.2766C5.18861 10.9145 4.76456 10.4352 4.46821 9.87789C4.17186 9.32053 4.01163 8.70096 4.00061 8.06981C3.98959 7.43867 4.1281 6.81388 4.40482 6.24652C4.68154 5.67916 5.0886 5.18535 5.59273 4.80546Z" fill="#0E1011"/>
<path d="M10.3089 4.10524C10.1427 4.32577 10.1867 4.63927 10.4073 4.80546C10.9114 5.18535 11.3185 5.67916 11.5952 6.24652C11.8719 6.81388 12.0104 7.43867 11.9994 8.06981C11.9884 8.70096 11.8281 9.32053 11.5318 9.87789C11.2354 10.4352 10.8114 10.9145 10.2943 11.2766C10.0681 11.435 10.0131 11.7468 10.1715 11.973C10.3299 12.1992 10.6417 12.2541 10.8679 12.0958C11.5142 11.6432 12.0443 11.0441 12.4147 10.3474C12.7852 9.65067 12.9855 8.8762 12.9992 8.08727C13.013 7.29833 12.8399 6.51734 12.494 5.80815C12.1481 5.09895 11.6392 4.48169 11.0091 4.00683C10.7885 3.84064 10.475 3.8847 10.3089 4.10524Z" fill="#0E1011"/>
<path fill-rule="evenodd" clip-rule="evenodd" d="M10 8.00003C10 9.1046 9.10457 10 8 10C6.89543 10 6 9.1046 6 8.00003C6 6.89546 6.89543 6.00003 8 6.00003C9.10457 6.00003 10 6.89546 10 8.00003ZM9 8.00003C9 8.55232 8.55228 9.00003 8 9.00003C7.44772 9.00003 7 8.55232 7 8.00003C7 7.44775 7.44772 7.00003 8 7.00003C8.55228 7.00003 9 7.44775 9 8.00003Z" fill="#0E1011"/>
</svg>
