<svg width="12" height="12" viewBox="0 0 12 12" fill="none" xmlns="http://www.w3.org/2000/svg">
<path fill-rule="evenodd" clip-rule="evenodd" d="M6 12C9.31371 12 12 9.31371 12 6C12 2.68629 9.31371 0 6 0C2.68629 0 0 2.68629 0 6C0 9.31371 2.68629 12 6 12ZM8.64099 4.375C8.64099 5.82475 7.46574 7 6.01599 7C4.56624 7 3.39099 5.82475 3.39099 4.375C3.39099 2.92525 4.56624 1.75 6.01599 1.75C7.46574 1.75 8.64099 2.92525 8.64099 4.375ZM1.85716 9.20473L1.87714 9.06486C1.9926 8.2566 2.68482 7.65625 3.50128 7.65625H4.37516L5.28208 8.10971C5.74396 8.34065 6.28762 8.34065 6.7495 8.10971L7.65641 7.65625H8.53046C9.34692 7.65625 10.0391 8.2566 10.1546 9.06486L10.1746 9.20473C9.21454 10.4487 7.70878 11.25 6.01587 11.25C4.32296 11.25 2.8172 10.4487 1.85716 9.20473Z" fill="#0E1011"/>
</svg>
