<svg viewBox="0 0 12 12" fill="none" xmlns="http://www.w3.org/2000/svg">
<path fill-rule="evenodd" clip-rule="evenodd" d="M1 1.6875C1 0.755519 1.75552 0 2.6875 0H11V9.375C11 9.58211 10.8321 9.75 10.625 9.75C10.5895 9.75 10.5551 9.74506 10.5225 9.73583V11.25H10.625C10.8321 11.25 11 11.4179 11 11.625C11 11.8321 10.8321 12 10.625 12H2.6875C1.75552 12 1 11.2445 1 10.3125V1.6875ZM2.6875 11.25C2.20222 11.25 1.80306 10.8813 1.75488 10.4087C1.80038 9.98567 2.1586 9.65625 2.59375 9.65625H9.96003V11.25H2.6875Z" fill="#0E1011"/>
</svg>
