<svg viewBox="0 0 12 12" fill="none" xmlns="http://www.w3.org/2000/svg">
<path fill-rule="evenodd" clip-rule="evenodd" d="M1.28571 0.857143C1.04902 0.857143 0.857143 1.04902 0.857143 1.28571V3.71429C0.857143 3.95098 1.04902 4.14286 1.28571 4.14286H3.71429C3.95098 4.14286 4.14286 3.95098 4.14286 3.71429V1.28571C4.14286 1.04902 3.95098 0.857143 3.71429 0.857143H1.28571ZM0 1.28571C0 0.575634 0.575634 0 1.28571 0H3.71429C4.42437 0 5 0.575634 5 1.28571V3.71429C5 4.42437 4.42437 5 3.71429 5H1.28571C0.575634 5 0 4.42437 0 3.71429V1.28571ZM7 1.28571C7 0.575634 7.57563 0 8.28572 0H10.7143C11.4244 0 12 0.575634 12 1.28571V3.71429C12 4.42437 11.4244 5 10.7143 5H8.28572C7.57563 5 7 4.42437 7 3.71429V1.28571ZM8.28572 0.857143C8.04902 0.857143 7.85714 1.04902 7.85714 1.28571V3.71429C7.85714 3.95098 8.04902 4.14286 8.28572 4.14286H10.7143C10.951 4.14286 11.1429 3.95098 11.1429 3.71429V1.28571C11.1429 1.04902 10.951 0.857143 10.7143 0.857143H8.28572ZM1.28571 7.85714C1.04902 7.85714 0.857143 8.04902 0.857143 8.28572V10.7143C0.857143 10.951 1.04902 11.1429 1.28571 11.1429H3.71429C3.95098 11.1429 4.14286 10.951 4.14286 10.7143V8.28572C4.14286 8.04902 3.95098 7.85714 3.71429 7.85714H1.28571ZM0 8.28572C0 7.57563 0.575634 7 1.28571 7H3.71429C4.42437 7 5 7.57563 5 8.28572V10.7143C5 11.4244 4.42437 12 3.71429 12H1.28571C0.575634 12 0 11.4244 0 10.7143V8.28572ZM8.28572 7.85714C8.04902 7.85714 7.85714 8.04902 7.85714 8.28572V10.7143C7.85714 10.951 8.04902 11.1429 8.28572 11.1429H10.7143C10.951 11.1429 11.1429 10.951 11.1429 10.7143V8.28572C11.1429 8.04902 10.951 7.85714 10.7143 7.85714H8.28572ZM7 8.28572C7 7.57563 7.57563 7 8.28572 7H10.7143C11.4244 7 12 7.57563 12 8.28572V10.7143C12 11.4244 11.4244 12 10.7143 12H8.28572C7.57563 12 7 11.4244 7 10.7143V8.28572Z" fill="#0E1011"/>
</svg>
