<svg viewBox="0 0 12 12" fill="none" xmlns="http://www.w3.org/2000/svg">
<path fill-rule="evenodd" clip-rule="evenodd" d="M1 2.5C1 1.67157 1.67157 1 2.5 1H3.5C4.32843 1 5 1.67157 5 2.5V9.5C5 10.3284 4.32843 11 3.5 11H2.5C1.67157 11 1 10.3284 1 9.5V2.5ZM2.5 2H3.5C3.77614 2 4 2.22386 4 2.5V9.5C4 9.77614 3.77614 10 3.5 10H2.5C2.22386 10 2 9.77614 2 9.5V2.5C2 2.22386 2.22386 2 2.5 2Z" fill="#0E1011"/>
<path fill-rule="evenodd" clip-rule="evenodd" d="M7 2.5C7 1.67157 7.67157 1 8.5 1H9.5C10.3284 1 11 1.67157 11 2.5V9.5C11 10.3284 10.3284 11 9.5 11H8.5C7.67157 11 7 10.3284 7 9.5V2.5ZM8.5 2H9.5C9.77614 2 10 2.22386 10 2.5V9.5C10 9.77614 9.77614 10 9.5 10H8.5C8.22386 10 8 9.77614 8 9.5V2.5C8 2.22386 8.22386 2 8.5 2Z" fill="#0E1011"/>
</svg>
