<svg viewBox="0 0 12 12" fill="none" xmlns="http://www.w3.org/2000/svg">
<path d="M0.93927 3.46973L3.76812 0.701696C3.91615 0.556849 4.15357 0.559429 4.29842 0.707459C4.44327 0.855488 4.44069 1.09291 4.29266 1.23776L2.39489 3.09473H9.53039C9.7375 3.09473 9.90539 3.26262 9.90539 3.46973C9.90539 3.67683 9.7375 3.84473 9.53039 3.84473H2.39489L4.29266 5.7017C4.44069 5.84654 4.44327 6.08397 4.29842 6.23199C4.15357 6.38002 3.91615 6.3826 3.76812 6.23776L0.93927 3.46973Z" fill="#0E1011"/>
<path d="M11.0607 8.46973L8.29556 5.70456C8.14911 5.55812 7.91167 5.55812 7.76522 5.70456C7.61878 5.85101 7.61878 6.08845 7.76522 6.23489L9.62506 8.09473H2.47546C2.26835 8.09473 2.10046 8.26262 2.10046 8.46973C2.10046 8.67683 2.26835 8.84473 2.47546 8.84473H9.62506L7.76522 10.7046C7.61878 10.851 7.61878 11.0884 7.76522 11.2349C7.91167 11.3813 8.14911 11.3813 8.29556 11.2349L11.0607 8.46973Z" fill="#0E1011"/>
</svg>
