<svg viewBox="0 0 12 12" fill="none" xmlns="http://www.w3.org/2000/svg">
<path d="M3.10983 3.64017C2.96339 3.49372 2.96339 3.25628 3.10983 3.10984C3.25628 2.96339 3.49372 2.96339 3.64017 3.10984L6.26516 5.73484C6.41161 5.88128 6.41161 6.11872 6.26516 6.26516L3.64017 8.89016C3.49372 9.03661 3.25628 9.03661 3.10984 8.89017C2.96339 8.74372 2.96339 8.50628 3.10984 8.35984L5.46967 6L3.10983 3.64017Z" fill="#0E1011"/>
<path d="M6.10984 3.64017C5.96339 3.49372 5.96339 3.25628 6.10984 3.10983C6.25628 2.96339 6.49372 2.96339 6.64016 3.10983L9.26516 5.73484C9.41161 5.88128 9.41161 6.11872 9.26516 6.26517L6.64017 8.89017C6.49372 9.03661 6.25628 9.03661 6.10984 8.89017C5.96339 8.74372 5.96339 8.50628 6.10984 8.35984L8.46967 6L6.10984 3.64017Z" fill="#0E1011"/>
</svg>
