<svg viewBox="0 0 12 12" fill="none" xmlns="http://www.w3.org/2000/svg">
<path fill-rule="evenodd" clip-rule="evenodd" d="M10.5 0.627808V8.24996C10.5 9.07838 9.82843 9.74996 9 9.74996H8.25C7.42157 9.74996 6.75 9.07838 6.75 8.24996C6.75 7.42153 7.42157 6.74996 8.25 6.74996H9.75V1.62211L5.52198 2.83011C5.36099 2.87611 5.25 3.02325 5.25 3.19068V9.74996C5.25 10.5784 4.57843 11.25 3.75 11.25H3C2.17157 11.25 1.5 10.5784 1.5 9.74996C1.5 8.92153 2.17157 8.24996 3 8.24996H4.5V3.19068C4.5 2.68839 4.83297 2.24696 5.31594 2.10897L10.5 0.627808ZM4.5 8.99996H3C2.58579 8.99996 2.25 9.33574 2.25 9.74996C2.25 10.1642 2.58579 10.5 3 10.5H3.75C4.16421 10.5 4.5 10.1642 4.5 9.74996V8.99996ZM9.75 7.49996H8.25C7.83579 7.49996 7.5 7.83574 7.5 8.24996C7.5 8.66417 7.83579 8.99996 8.25 8.99996H9C9.41421 8.99996 9.75 8.66417 9.75 8.24996V7.49996Z" fill="#0E1011"/>
<path d="M3 8.99996H4.5V9.74996C4.5 10.1642 4.16421 10.5 3.75 10.5H3C2.58579 10.5 2.25 10.1642 2.25 9.74996C2.25 9.33574 2.58579 8.99996 3 8.99996Z" fill="#0E1011"/>
<path d="M8.25 7.49996H9.75V8.24996C9.75 8.66417 9.41421 8.99996 9 8.99996H8.25C7.83579 8.99996 7.5 8.66417 7.5 8.24996C7.5 7.83574 7.83579 7.49996 8.25 7.49996Z" fill="#0E1011"/>
</svg>
