<svg viewBox="0 0 16 16" fill="none" xmlns="http://www.w3.org/2000/svg">
<path fill-rule="evenodd" clip-rule="evenodd" d="M8 1.5C7.17157 1.5 6.5 2.17157 6.5 3C6.5 3.82843 7.17157 4.5 8 4.5C8.82843 4.5 9.5 3.82843 9.5 3C9.5 2.17157 8.82843 1.5 8 1.5ZM5.5 3C5.5 1.61929 6.61929 0.5 8 0.5C9.38071 0.5 10.5 1.61929 10.5 3C10.5 4.20948 9.64112 5.21836 8.5 5.44999V14.4833C11.454 14.2849 13.738 12.331 13.979 9.5H13C12.7239 9.5 12.5 9.27614 12.5 9C12.5 8.72386 12.7239 8.5 13 8.5H15V9C15 12.9173 11.8117 15.5 8 15.5C4.18831 15.5 1 12.9173 1 9V8.5H3C3.27614 8.5 3.5 8.72386 3.5 9C3.5 9.27614 3.27614 9.5 3 9.5H2.02105C2.26203 12.331 4.54599 14.2849 7.5 14.4833V5.44999C6.35888 5.21836 5.5 4.20948 5.5 3Z" fill="#0E1011"/>
</svg>
