<svg viewBox="0 0 16 16" fill="none" xmlns="http://www.w3.org/2000/svg">
<path fill-rule="evenodd" clip-rule="evenodd" d="M8 0C8.27614 0 8.5 0.223858 8.5 0.5V6.26922C8.5 6.54536 8.27614 6.76922 8 6.76922C7.72386 6.76922 7.5 6.54536 7.5 6.26922V0.5C7.5 0.223858 7.72386 0 8 0ZM5.53862 2.07495C5.65276 2.3264 5.54145 2.62276 5.29 2.7369C3.05004 3.75367 1.5 5.98856 1.5 8.57694C1.5 12.1191 4.40492 15 8 15C11.5951 15 14.5 12.1191 14.5 8.57694C14.5 5.98856 12.95 3.75367 10.71 2.7369C10.4586 2.62276 10.3472 2.3264 10.4614 2.07495C10.5755 1.8235 10.8719 1.71218 11.1233 1.82632C13.7029 2.99726 15.5 5.57726 15.5 8.57694C15.5 12.6818 12.1369 16 8 16C3.86309 16 0.5 12.6818 0.5 8.57694C0.5 5.57726 2.29706 2.99726 4.87667 1.82632C5.12812 1.71218 5.42448 1.8235 5.53862 2.07495Z" fill="#0E1011"/>
</svg>
