<svg viewBox="0 0 16 16" fill="none" xmlns="http://www.w3.org/2000/svg">
<path fill-rule="evenodd" clip-rule="evenodd" d="M1.35985 2.06694C0.966118 1.67321 1.24498 1 1.80179 1H14.1982C14.7551 1 15.0339 1.67321 14.6402 2.06694L9.00001 7.70711V13.2071L7.00001 15.2071V7.70711L1.35985 2.06694ZM2.70712 2L8.00001 7.29289L4.29291 2H2.70712Z" fill="#0E1011"/>
<path fill-rule="evenodd" clip-rule="evenodd" d="M10.3965 10.3964C10.5917 10.2012 10.9083 10.2012 11.1036 10.3964L13 12.2929L14.8965 10.3964C15.0917 10.2012 15.4083 10.2012 15.6036 10.3964C15.7988 10.5917 15.7988 10.9083 15.6036 11.1036L13.7071 13L15.6036 14.8964C15.7988 15.0917 15.7988 15.4083 15.6036 15.6036C15.4083 15.7988 15.0917 15.7988 14.8965 15.6036L13 13.7071L11.1036 15.6036C10.9083 15.7988 10.5917 15.7988 10.3965 15.6036C10.2012 15.4083 10.2012 15.0917 10.3965 14.8964L12.2929 13L10.3965 11.1036C10.2012 10.9083 10.2012 10.5917 10.3965 10.3964Z" fill="#0E1011"/>
</svg>
