<svg viewBox="0 0 12 12" fill="none" xmlns="http://www.w3.org/2000/svg">
<path d="M1.5 2.75C1.36193 2.75 1.25 2.86193 1.25 3C1.25 3.13807 1.36193 3.25 1.5 3.25H3.5C3.63807 3.25 3.75 3.13807 3.75 3C3.75 2.86193 3.63807 2.75 3.5 2.75H1.5Z" fill="#0E1011"/>
<path d="M4.5 2.75C4.36193 2.75 4.25 2.86193 4.25 3C4.25 3.13807 4.36193 3.25 4.5 3.25H6.5C6.63807 3.25 6.75 3.13807 6.75 3C6.75 2.86193 6.63807 2.75 6.5 2.75H4.5Z" fill="#0E1011"/>
<path d="M7.5 2.75C7.36193 2.75 7.25 2.86193 7.25 3C7.25 3.13807 7.36193 3.25 7.5 3.25H9.5C9.63807 3.25 9.75 3.13807 9.75 3C9.75 2.86193 9.63807 2.75 9.5 2.75H7.5Z" fill="#0E1011"/>
<path fill-rule="evenodd" clip-rule="evenodd" d="M0 2.5C0 1.67157 0.671573 1 1.5 1H10.5C11.3284 1 12 1.67157 12 2.5V9.5C12 10.3284 11.3284 11 10.5 11H1.5C0.671573 11 0 10.3284 0 9.5V2.5ZM1.5 1.75H10.5C10.9142 1.75 11.25 2.08579 11.25 2.5V4.2H0.75V2.5C0.75 2.08579 1.08579 1.75 1.5 1.75ZM0.75 4.8V6.2H3.2V4.8H0.75ZM0.75 6.8H3.2L3.2 8.2H0.75V6.8ZM3.8 6.8L3.8 8.2H6.2L6.2 6.8H3.8ZM0.75 8.8H3.2V10.25H1.5C1.08579 10.25 0.75 9.91421 0.75 9.5V8.8ZM3.8 8.8V10.25H6.2V8.8H3.8ZM9.2 10.25H6.8V8.8H9.2V10.25ZM9.2 8.2H6.8V6.8H9.2V8.2ZM9.2 6.2H6.8V4.8H9.2V6.2ZM3.8 4.8H6.2V6.2H3.8V4.8ZM9.8 6.2V4.8H11.25V6.2H9.8ZM9.8 8.2V6.8H11.25V8.2H9.8ZM9.8 10.25V8.8H11.25V9.5C11.25 9.91421 10.9142 10.25 10.5 10.25H9.8Z" fill="#0E1011"/>
</svg>
