<svg viewBox="0 0 12 12" fill="none" xmlns="http://www.w3.org/2000/svg">
<path d="M3.75 4.6875C3.75 4.27329 4.08579 3.9375 4.5 3.9375C4.91421 3.9375 5.25 4.27329 5.25 4.6875C5.25 5.10171 4.91421 5.4375 4.5 5.4375C4.08579 5.4375 3.75 5.10171 3.75 4.6875Z" fill="#0E1011"/>
<path d="M6.75 4.6875C6.75 4.27329 7.08579 3.9375 7.5 3.9375C7.91421 3.9375 8.25 4.27329 8.25 4.6875C8.25 5.10171 7.91421 5.4375 7.5 5.4375C7.08579 5.4375 6.75 5.10171 6.75 4.6875Z" fill="#0E1011"/>
<path d="M6 8.15625C5.23068 8.15625 4.49143 7.89859 4.01516 7.42233C3.86872 7.27589 3.63128 7.27589 3.48484 7.42233C3.33839 7.56878 3.33839 7.80622 3.48484 7.95267C4.13357 8.60141 5.08182 8.90625 6 8.90625C6.91818 8.90625 7.86643 8.60141 8.51517 7.95267C8.66161 7.80622 8.66161 7.56878 8.51517 7.42233C8.36872 7.27589 8.13128 7.27589 7.98483 7.42233C7.50857 7.89859 6.76932 8.15625 6 8.15625Z" fill="#0E1011"/>
<path fill-rule="evenodd" clip-rule="evenodd" d="M12 6C12 9.31371 9.31371 12 6 12C2.68629 12 0 9.31371 0 6C0 2.68629 2.68629 0 6 0C9.31371 0 12 2.68629 12 6ZM6 11.25C8.8995 11.25 11.25 8.8995 11.25 6C11.25 3.1005 8.8995 0.75 6 0.75C3.1005 0.75 0.75 3.1005 0.75 6C0.75 8.8995 3.1005 11.25 6 11.25Z" fill="#0E1011"/>
</svg>
