<svg width="16" height="16" viewBox="0 0 16 16" fill="none" xmlns="http://www.w3.org/2000/svg">
<path fill-rule="evenodd" clip-rule="evenodd" d="M11.0001 6.00012C11.0001 7.65698 9.65691 9.00012 8.00006 9.00012C6.3432 9.00012 5.00006 7.65698 5.00006 6.00012C5.00006 4.34327 6.3432 3.00012 8.00006 3.00012C9.65691 3.00012 11.0001 4.34327 11.0001 6.00012ZM10.0001 6.00012C10.0001 7.10469 9.10463 8.00012 8.00006 8.00012C6.89549 8.00012 6.00006 7.10469 6.00006 6.00012C6.00006 4.89555 6.89549 4.00012 8.00006 4.00012C9.10463 4.00012 10.0001 4.89555 10.0001 6.00012Z" fill="#0E1011"/>
<path fill-rule="evenodd" clip-rule="evenodd" d="M15.2943 8.00004C15.2943 12.0314 12.0262 15.2995 7.99479 15.2995C3.9634 15.2995 0.695312 12.0314 0.695312 8.00004C0.695312 3.96865 3.9634 0.700562 7.99479 0.700562C12.0262 0.700562 15.2943 3.96865 15.2943 8.00004ZM11.9679 12.8888C10.884 13.7708 9.50113 14.2995 7.99479 14.2995C6.49265 14.2995 5.1133 13.7738 4.03074 12.8962L4.24918 11.804C4.34267 11.3366 4.75308 11.0001 5.22976 11.0001H5.76399C5.84161 11.0001 5.91817 11.0182 5.98759 11.0529L6.43481 11.2765C7.42016 11.7692 8.57996 11.7692 9.5653 11.2765L10.0125 11.0529C10.0819 11.0182 10.1585 11.0001 10.2361 11.0001H10.7703C11.247 11.0001 11.6574 11.3366 11.7509 11.804L11.9679 12.8888ZM12.82 12.0501L12.7315 11.6079C12.5445 10.673 11.7237 10.0001 10.7703 10.0001H10.2361C10.0033 10.0001 9.77359 10.0543 9.5653 10.1585L9.11809 10.3821C8.41427 10.734 7.58584 10.734 6.88202 10.3821L6.43481 10.1585C6.22653 10.0543 5.99686 10.0001 5.76399 10.0001H5.22976C4.2764 10.0001 3.45557 10.673 3.2686 11.6079L3.17814 12.0602C2.25293 10.9638 1.69531 9.54702 1.69531 8.00004C1.69531 4.52094 4.51569 1.70056 7.99479 1.70056C11.4739 1.70056 14.2943 4.52094 14.2943 8.00004C14.2943 9.54227 13.7401 10.9551 12.82 12.0501Z" fill="#0E1011"/>
</svg>
