<svg viewBox="0 0 12 12" fill="none" xmlns="http://www.w3.org/2000/svg">
<path fill-rule="evenodd" clip-rule="evenodd" d="M0.153916 10.0114L5.018 0.638187C5.12037 0.443369 5.26452 0.282298 5.43653 0.170512C5.60854 0.0587261 5.8026 0 6 0C6.1974 0 6.39146 0.0587261 6.56347 0.170512C6.73548 0.282298 6.87963 0.443369 6.982 0.638187L11.8461 10.0114C11.9464 10.2118 11.9994 10.4391 12 10.6706C12.0006 10.9021 11.9486 11.1297 11.8493 11.3308C11.75 11.532 11.6068 11.6995 11.4339 11.8169C11.2611 11.9343 11.0646 11.9975 10.8641 12H1.13592C0.935384 11.9975 0.73892 11.9343 0.566075 11.8169C0.393229 11.6995 0.250027 11.532 0.150715 11.3308C0.0514029 11.1297 -0.00055703 10.9021 4.50351e-06 10.6706C0.000566036 10.4391 0.0536295 10.2118 0.153916 10.0114ZM6.65625 4.5C6.65625 4.13756 6.36244 3.84375 6 3.84375C5.63756 3.84375 5.34375 4.13756 5.34375 4.5V7.125C5.34375 7.48744 5.63756 7.78125 6 7.78125C6.36244 7.78125 6.65625 7.48744 6.65625 7.125V4.5ZM6.65625 8.62502C6.65625 8.26258 6.36244 7.96877 6 7.96877C5.63756 7.96877 5.34375 8.26258 5.34375 8.62502V9.00002C5.34375 9.36245 5.63756 9.65627 6 9.65627C6.36244 9.65627 6.65625 9.36245 6.65625 9.00002V8.62502Z" fill="#0E1011"/>
</svg>
