<svg viewBox="0 0 16 16" fill="none" xmlns="http://www.w3.org/2000/svg">
<path fill-rule="evenodd" clip-rule="evenodd" d="M5.14639 2.85349C4.95113 2.65823 4.95113 2.34165 5.14639 2.14639L7.14645 0.146324C7.34171 -0.0489375 7.6583 -0.0489377 7.85356 0.146324C8.04882 0.341587 8.04882 0.658169 7.85356 0.853431L6.70705 1.99994L7.99995 1.99994C9.79063 1.99994 11.583 2.68345 12.9497 4.05019C15.6834 6.78386 15.6834 11.216 12.9497 13.9497C10.216 16.6834 5.78387 16.6834 3.0502 13.9497C0.681882 11.5814 0.365758 7.93932 2.10003 5.2303C2.24891 4.99773 2.55814 4.92989 2.79071 5.07878C3.02328 5.22766 3.09111 5.53689 2.94223 5.76946C1.45583 8.09129 1.72813 11.2134 3.75731 13.2426C6.10045 15.5857 9.89945 15.5857 12.2426 13.2426C14.5857 10.8994 14.5857 7.10044 12.2426 4.7573C11.0709 3.58563 9.53626 2.99994 7.99995 2.99994H6.70705L7.85356 4.14645C8.04882 4.34171 8.04882 4.65829 7.85356 4.85355C7.6583 5.04882 7.34171 5.04882 7.14645 4.85355L5.14639 2.85349Z" fill="#0E1011"/>
</svg>
