<svg viewBox="0 0 16 16" fill="none" xmlns="http://www.w3.org/2000/svg">
<path d="M7 4C10.866 4 14 3.10457 14 2C14 0.89543 10.866 0 7 0C3.13401 0 0 0.89543 0 2C0 3.10457 3.13401 4 7 4Z" fill="#0E1011"/>
<path d="M7 5C10.866 5 14 4.10457 14 3V6.5C14 6.72337 13.918 6.93991 13.7641 7.14596C13.3582 7.0505 12.935 7 12.5 7C10.812 7 9.30156 7.76045 8.29265 8.95746C7.87371 8.98539 7.44163 9 7 9C3.13401 9 0 7.88071 0 6.5V3C0 4.10457 3.13401 5 7 5Z" fill="#0E1011"/>
<path d="M7 12.5C7 11.5968 7.21769 10.7445 7.60346 9.99267C7.40457 9.99752 7.2033 10 7 10C3.13401 10 0 9.10457 0 8V11.5C0 12.8807 3.13401 14 7 14C7.06915 14 7.13806 13.9996 7.20673 13.9989C7.07206 13.5224 7 13.0196 7 12.5Z" fill="#0E1011"/>
<path fill-rule="evenodd" clip-rule="evenodd" d="M16 12.5C16 14.433 14.433 16 12.5 16C10.567 16 9 14.433 9 12.5C9 10.567 10.567 9 12.5 9C14.433 9 16 10.567 16 12.5ZM12.5 10C12.7761 10 13 10.2239 13 10.5V12H14.5C14.7761 12 15 12.2239 15 12.5C15 12.7761 14.7761 13 14.5 13H13V14.5C13 14.7761 12.7761 15 12.5 15C12.2239 15 12 14.7761 12 14.5V13H10.5C10.2239 13 10 12.7761 10 12.5C10 12.2239 10.2239 12 10.5 12H12V10.5C12 10.2239 12.2239 10 12.5 10Z" fill="#0E1011"/>
</svg>
