<svg viewBox="0 0 12 12" fill="none" xmlns="http://www.w3.org/2000/svg">
<path fill-rule="evenodd" clip-rule="evenodd" d="M3.1875 0.375C2.25552 0.375 1.5 1.13052 1.5 2.0625V9.9375C1.5 10.8695 2.25552 11.625 3.1875 11.625H8.8125C9.74448 11.625 10.5 10.8695 10.5 9.9375V2.0625C10.5 1.13052 9.74448 0.375 8.8125 0.375H3.1875ZM2.25 2.0625C2.25 1.54473 2.66973 1.125 3.1875 1.125H3.75V3H2.25V2.0625ZM3.75 3.75H2.25V5.625H3.75V3.75ZM2.25 6.375H3.75V8.25H2.25V6.375ZM2.25 9H3.75V10.875H3.1875C2.66973 10.875 2.25 10.4553 2.25 9.9375V9ZM9.75 2.0625C9.75 1.54473 9.33027 1.125 8.8125 1.125H8.25V3H9.75V2.0625ZM8.25 3.75H9.75V5.625H8.25V3.75ZM9.75 6.375H8.25V8.25H9.75V6.375ZM9.75 9H8.25V10.875H8.8125C9.33027 10.875 9.75 10.4553 9.75 9.9375V9Z" fill="#0E1011"/>
</svg>
