<svg viewBox="0 0 12 12" fill="none" xmlns="http://www.w3.org/2000/svg">
<path d="M10.5 3.125C10.7071 3.125 10.875 3.29289 10.875 3.5C10.875 3.70711 10.7071 3.875 10.5 3.875H1.5C1.29289 3.875 1.125 3.70711 1.125 3.5C1.125 3.29289 1.29289 3.125 1.5 3.125H10.5Z" fill="#0E1011"/>
<path d="M7.875 5.5C7.875 5.29289 7.70711 5.125 7.5 5.125H1.5C1.29289 5.125 1.125 5.29289 1.125 5.5C1.125 5.70711 1.29289 5.875 1.5 5.875H7.5C7.70711 5.875 7.875 5.70711 7.875 5.5Z" fill="#0E1011"/>
<path d="M10.5 7.125C10.7071 7.125 10.875 7.29289 10.875 7.5C10.875 7.70711 10.7071 7.875 10.5 7.875H1.5C1.29289 7.875 1.125 7.70711 1.125 7.5C1.125 7.29289 1.29289 7.125 1.5 7.125H10.5Z" fill="#0E1011"/>
<path d="M7.5 9.125C7.70711 9.125 7.875 9.29289 7.875 9.5C7.875 9.70711 7.70711 9.875 7.5 9.875H1.5C1.29289 9.875 1.125 9.70711 1.125 9.5C1.125 9.29289 1.29289 9.125 1.5 9.125H7.5Z" fill="#0E1011"/>
</svg>
