<svg viewBox="0 0 12 12" fill="none" xmlns="http://www.w3.org/2000/svg">
<path fill-rule="evenodd" clip-rule="evenodd" d="M5.50001 0.125C4.07694 0.125 2.80104 0.220245 1.87157 0.398734C1.41022 0.487327 1.01128 0.600599 0.718341 0.745508C0.572055 0.817874 0.432329 0.907696 0.324903 1.0229C0.213975 1.14186 0.125011 1.3029 0.125011 1.5V5C0.125011 5.10356 0.143285 5.20063 0.175601 5.29125L0.125 5.33955L0.125251 8.875C0.125262 9.25487 0.371997 9.55689 0.656082 9.77556C0.949497 10.0014 1.35252 10.1949 1.82255 10.3535C2.76665 10.672 4.05851 10.875 5.50001 10.875C5.70712 10.875 5.87501 10.7071 5.87501 10.5C5.87501 10.2929 5.70712 10.125 5.50001 10.125C4.12092 10.125 2.9129 9.92976 2.06227 9.64283C1.63493 9.49868 1.31687 9.33774 1.11355 9.18124C0.900907 9.01756 0.875251 8.90933 0.875251 8.875L0.875049 6.0232C1.14132 6.1772 1.46793 6.30896 1.83372 6.4196C2.77588 6.70458 4.06443 6.875 5.50001 6.875C6.9356 6.875 8.22414 6.70458 9.1663 6.4196C9.63506 6.27782 10.0395 6.10135 10.335 5.88784C10.6226 5.68004 10.875 5.38488 10.875 5V1.5C10.875 1.3029 10.786 1.14186 10.6751 1.0229C10.5677 0.907696 10.428 0.817874 10.2817 0.745508C9.98875 0.600599 9.5898 0.487327 9.12846 0.398734C8.19898 0.220245 6.92308 0.125 5.50001 0.125ZM1.05089 1.58225C0.987136 1.55071 0.942693 1.52261 0.912755 1.5C0.942693 1.47739 0.987136 1.44929 1.05089 1.41775C1.25474 1.31691 1.57693 1.21902 2.01301 1.13528C2.87839 0.969095 4.10248 0.875 5.50001 0.875C6.89754 0.875 8.12164 0.969095 8.98702 1.13528C9.42309 1.21902 9.74529 1.31691 9.94913 1.41775C10.0129 1.44929 10.0573 1.47739 10.0873 1.5C10.0573 1.52261 10.0129 1.55071 9.94913 1.58225C9.74529 1.68309 9.42309 1.78098 8.98702 1.86472C8.12164 2.0309 6.89754 2.125 5.50001 2.125C4.10248 2.125 2.87839 2.0309 2.01301 1.86472C1.57693 1.78098 1.25474 1.68309 1.05089 1.58225ZM10.125 2.32499C9.85272 2.43682 9.51217 2.52758 9.12846 2.60127C8.19898 2.77976 6.92308 2.875 5.50001 2.875C4.07694 2.875 2.80104 2.77976 1.87157 2.60127C1.48785 2.52758 1.1473 2.43682 0.875011 2.32499V5C0.875011 5.02934 0.895053 5.12878 1.10423 5.2799C1.30547 5.4253 1.62218 5.57206 2.05086 5.70172C2.90355 5.95964 4.115 6.125 5.50001 6.125C6.88502 6.125 8.09648 5.95964 8.94917 5.70172C9.37784 5.57206 9.69455 5.4253 9.8958 5.2799C10.105 5.12878 10.125 5.02934 10.125 5V2.32499Z" fill="#0E1011"/>
<path fill-rule="evenodd" clip-rule="evenodd" d="M12 9.5C12 10.8807 10.8807 12 9.5 12C8.11929 12 7 10.8807 7 9.5C7 8.11929 8.11929 7 9.5 7C10.8807 7 12 8.11929 12 9.5ZM9.5 7.6C9.72091 7.6 9.9 7.77909 9.9 8V9.1H11C11.2209 9.1 11.4 9.27909 11.4 9.5C11.4 9.72091 11.2209 9.9 11 9.9H9.9V11C9.9 11.2209 9.72091 11.4 9.5 11.4C9.27909 11.4 9.1 11.2209 9.1 11V9.9H8C7.77909 9.9 7.6 9.72091 7.6 9.5C7.6 9.27909 7.77909 9.1 8 9.1H9.1V8C9.1 7.77909 9.27909 7.6 9.5 7.6Z" fill="#0E1011"/>
</svg>
