<svg height="14" viewBox="0 0 12 14" fill="none" xmlns="http://www.w3.org/2000/svg">
<path d="M6 0.97998L10.478 2.45989C10.9388 2.61218 11.25 3.04277 11.25 3.52807V5.78349C11.25 6.97782 10.9508 8.13217 10.403 9.15289L3.16648 1.91642L6 0.97998Z" fill="#0E1011"/>
<path d="M9.22692 10.7572L11.1723 12.7026C11.3188 12.8491 11.5562 12.8491 11.7027 12.7026C11.8491 12.5562 11.8491 12.3187 11.7027 12.1723L0.827665 1.29727C0.681218 1.15083 0.443782 1.15083 0.297335 1.29727C0.150888 1.44372 0.150888 1.68116 0.297335 1.8276L1.14324 2.67351C0.898911 2.88284 0.75 3.19237 0.75 3.52807V5.78349C0.75 8.18578 1.96057 10.4263 3.9699 11.743L6 13.0733L8.0301 11.743C8.46849 11.4557 8.86885 11.1245 9.22692 10.7572Z" fill="#0E1011"/>
</svg>
