<svg viewBox="0 0 12 12" fill="none" xmlns="http://www.w3.org/2000/svg">
<path fill-rule="evenodd" clip-rule="evenodd" d="M6 0.219727L7.76517 1.98489C7.91161 2.13134 7.91161 2.36878 7.76517 2.51522C7.61872 2.66167 7.38128 2.66167 7.23484 2.51522L6.375 1.65539V5.62506H10.3447L9.48484 4.76522C9.33839 4.61877 9.33839 4.38134 9.48484 4.23489C9.63128 4.08844 9.86872 4.08844 10.0152 4.23489L11.7803 6.00006L10.0152 7.76522C9.86872 7.91167 9.63128 7.91167 9.48484 7.76522C9.33839 7.61877 9.33839 7.38134 9.48484 7.23489L10.3447 6.37506H6.375V10.3447L7.23484 9.48489C7.38128 9.33844 7.61872 9.33844 7.76517 9.48489C7.91161 9.63134 7.91161 9.86877 7.76517 10.0152L6 11.7804L4.23484 10.0152C4.08839 9.86877 4.08839 9.63134 4.23484 9.48489C4.38128 9.33844 4.61872 9.33844 4.76517 9.48489L5.625 10.3447V6.37506H1.65533L2.51517 7.23489C2.66161 7.38134 2.66161 7.61877 2.51517 7.76522C2.36872 7.91167 2.13128 7.91167 1.98484 7.76522L0.219673 6.00006L1.98484 4.23489C2.13128 4.08844 2.36872 4.08844 2.51517 4.23489C2.66161 4.38134 2.66161 4.61877 2.51517 4.76522L1.65533 5.62506H5.625V1.65539L4.76517 2.51522C4.61872 2.66167 4.38128 2.66167 4.23484 2.51522C4.08839 2.36878 4.08839 2.13134 4.23484 1.98489L6 0.219727Z" fill="#0E1011"/>
</svg>
