<svg viewBox="0 0 12 12" fill="none" xmlns="http://www.w3.org/2000/svg">
<path fill-rule="evenodd" clip-rule="evenodd" d="M9.5 12C10.3284 12 11 11.3284 11 10.5V3.1875L7.8125 0H2.5C1.67157 0 1 0.671573 1 1.5V10.5C1 11.3284 1.67157 12 2.5 12H9.5ZM8 1.5C8 1.29289 7.83211 1.125 7.625 1.125C7.41789 1.125 7.25 1.29289 7.25 1.5V2.625C7.25 3.24632 7.75368 3.75 8.375 3.75H9.5C9.70711 3.75 9.875 3.58211 9.875 3.375C9.875 3.16789 9.70711 3 9.5 3H8.375C8.16789 3 8 2.83211 8 2.625V1.5Z" fill="#0E1011"/>
</svg>
