<svg viewBox="0 0 16 16" fill="none" xmlns="http://www.w3.org/2000/svg">
<path d="M7.77618 0.88616C7.91694 0.815779 8.08263 0.815779 8.22339 0.88616L14.8901 4.21949C15.0595 4.30419 15.1665 4.47732 15.1665 4.66671C15.1665 4.85609 15.0595 5.02922 14.8901 5.11392L8.22339 8.44725C8.08263 8.51764 7.91694 8.51764 7.77618 8.44725L1.10951 5.11392C0.940119 5.02922 0.833117 4.85609 0.833117 4.66671C0.833117 4.47732 0.940119 4.30419 1.10951 4.21949L7.77618 0.88616Z" fill="#0E1011"/>
<path d="M0.885904 11.1098C1.0094 10.8628 1.30973 10.7627 1.55672 10.8862L7.99978 14.1077L14.4428 10.8862C14.6898 10.7627 14.9902 10.8628 15.1137 11.1098C15.2372 11.3568 15.137 11.6571 14.8901 11.7806L8.22339 15.1139C8.08263 15.1843 7.91694 15.1843 7.77618 15.1139L1.10951 11.7806C0.862521 11.6571 0.762409 11.3568 0.885904 11.1098Z" fill="#0E1011"/>
<path d="M1.55672 7.55282C1.30973 7.42932 1.0094 7.52943 0.885904 7.77642C0.762409 8.02341 0.862521 8.32375 1.10951 8.44724L7.77618 11.7806C7.91694 11.851 8.08263 11.851 8.22339 11.7806L14.8901 8.44724C15.137 8.32375 15.2372 8.02341 15.1137 7.77642C14.9902 7.52943 14.6898 7.42932 14.4428 7.55282L7.99978 10.7743L1.55672 7.55282Z" fill="#0E1011"/>
</svg>
