<svg viewBox="0 0 16 16" fill="none" xmlns="http://www.w3.org/2000/svg">
<path fill-rule="evenodd" clip-rule="evenodd" d="M1.12954 3.98642L1.85017 4.70705C2.03771 4.89459 2.29206 4.99995 2.55728 4.99995H4.00021C4.55249 4.99995 5.00021 4.55223 5.00021 3.99995V2.55702C5.00021 2.2918 4.89485 2.03745 4.70732 1.84991L3.98683 1.12943C4.31041 1.04496 4.64996 1 5 1C7.20914 1 9 2.79086 9 5C9 5.45065 8.92548 5.88389 8.78808 6.28808L14.4822 11.9822C14.8138 12.3138 15 12.7634 15 13.2322C15 14.2085 14.2085 15 13.2322 15C12.7634 15 12.3138 14.8138 11.9822 14.4822L6.28808 8.78808C5.88389 8.92548 5.45065 9 5 9C2.79086 9 1 7.20914 1 5C1 4.64981 1.045 4.31012 1.12954 3.98642ZM11.8536 11.1464C11.6583 10.9512 11.3417 10.9512 11.1464 11.1464C10.9512 11.3417 10.9512 11.6583 11.1464 11.8536L12.1464 12.8536C12.3417 13.0488 12.6583 13.0488 12.8536 12.8536C13.0488 12.6583 13.0488 12.3417 12.8536 12.1464L11.8536 11.1464Z" fill="#0E1011"/>
</svg>
