<svg viewBox="0 0 12 12" fill="none" xmlns="http://www.w3.org/2000/svg">
<path d="M11.8902 0.640165C12.0366 0.493718 12.0366 0.256282 11.8902 0.109835C11.7437 -0.0366117 11.5063 -0.0366117 11.3599 0.109835L8.25003 3.21967V1.125C8.25003 0.917893 8.08214 0.75 7.87503 0.75C7.66792 0.75 7.50003 0.917893 7.50003 1.125V4.5H10.875C11.0821 4.5 11.25 4.33211 11.25 4.125C11.25 3.91789 11.0821 3.75 10.875 3.75H8.78036L11.8902 0.640165Z" fill="#0E1011"/>
<path fill-rule="evenodd" clip-rule="evenodd" d="M2.45317 6.97262C1.62788 5.76497 1.06572 3.9504 0.849273 2.24556C0.744932 1.42373 1.4216 0.75 2.25003 0.75H4.20003C4.61425 0.75 4.95032 1.08616 4.98647 1.49879C5.05032 2.22765 5.1965 3.08309 5.41258 3.66239C5.46859 3.81252 5.44109 3.9847 5.32778 4.09801L4.68599 4.7398C4.566 4.85979 4.54066 5.04599 4.63143 5.18936C5.21217 6.10661 6.00025 6.87958 6.92979 7.44236C7.07266 7.52885 7.25519 7.50221 7.37328 7.38412L8.03113 6.72627C8.14204 6.61536 8.30964 6.58642 8.45786 6.63773C9.00558 6.82734 9.81236 6.95623 10.5012 7.01454C10.914 7.04947 11.25 7.38579 11.25 7.8V9.75C11.25 10.5784 10.5763 11.2549 9.75442 11.1513C8.09214 10.9417 6.3204 10.4063 5.13683 9.62057C4.08058 8.91937 3.16813 8.01883 2.45317 6.97262ZM4.15566 4.20947C3.80085 4.56428 3.70943 5.13514 3.99776 5.59055C4.64049 6.60573 5.51248 7.46101 6.54136 8.08393C6.99496 8.35856 7.55433 8.26373 7.90361 7.91445L8.40858 7.40948C9.01966 7.59218 9.79581 7.70751 10.438 7.76187C10.4598 7.76371 10.4791 7.77379 10.4913 7.78643C10.4968 7.79216 10.4996 7.79798 10.4996 7.79798L10.5 7.8V9.75C10.5 10.1903 10.1617 10.4467 9.84824 10.4072C8.25293 10.206 6.60544 9.69529 5.55164 8.99572C4.57593 8.34799 3.73287 7.51594 3.07239 6.54945C2.33695 5.47328 1.80087 3.78597 1.5933 2.1511C1.55361 1.83852 1.80938 1.5 2.25003 1.5H4.20003L4.20198 1.50038C4.20198 1.50038 4.20791 1.50325 4.2138 1.50893C4.22679 1.52149 4.23734 1.54149 4.23933 1.56424C4.29925 2.24827 4.43078 3.07605 4.64051 3.72462L4.15566 4.20947Z" fill="#0E1011"/>
</svg>
