<svg viewBox="0 0 16 16" fill="none" xmlns="http://www.w3.org/2000/svg">
<path fill-rule="evenodd" clip-rule="evenodd" d="M7.69134 2.03807C7.87818 2.11547 8 2.29778 8 2.50001V13.5C8 13.7022 7.87818 13.8846 7.69134 13.962C7.5045 14.0393 7.28945 13.9966 7.14645 13.8536L4.29289 11H2C0.895431 11 0 10.1046 0 9.00001V7.00001C0 5.89545 0.895431 5.00001 2 5.00001H4.29289L7.14645 2.14646C7.28945 2.00346 7.5045 1.96068 7.69134 2.03807ZM7 3.70712L4.70711 6.00001H2C1.44772 6.00001 1 6.44773 1 7.00001V9.00001C1 9.5523 1.44772 10 2 10H4.70711L7 12.2929V3.70712Z" fill="#0E1011"/>
</svg>
