<svg viewBox="0 0 16 16" fill="none" xmlns="http://www.w3.org/2000/svg">
<path fill-rule="evenodd" clip-rule="evenodd" d="M3.5025 0.500006C3.71183 0.501053 3.89835 0.632395 3.96989 0.829129L5.85021 6H10.1498L12.0301 0.829129C12.1016 0.632395 12.2882 0.501053 12.4975 0.500006C12.7068 0.49896 12.8947 0.62843 12.9682 0.824438L15.8409 8.48494C15.9927 8.88996 15.867 9.34672 15.5292 9.61694L8.46852 15.2655C8.1946 15.4846 7.80539 15.4846 7.53148 15.2655L0.470777 9.61694C0.133005 9.34672 0.00726163 8.88996 0.159143 8.48494L3.03183 0.824438C3.10534 0.62843 3.29316 0.49896 3.5025 0.500006ZM3.49278 2.44324L1.09547 8.83607L8 14.3597L14.9045 8.83607L12.5072 2.44324L10.9699 6.67087C10.898 6.86847 10.7102 7 10.5 7H5.5C5.28974 7 5.10195 6.86847 5.0301 6.67087L3.49278 2.44324Z" fill="#0E1011"/>
<path d="M1.09547 8.83607L3.49278 2.44324L5.0301 6.67087C5.10195 6.86847 5.28974 7 5.5 7H10.5C10.7102 7 10.898 6.86847 10.9699 6.67087L12.5072 2.44324L14.9045 8.83607L8 14.3597L1.09547 8.83607Z" fill="#0E1011"/>
</svg>
