<svg viewBox="0 0 16 16" fill="none" xmlns="http://www.w3.org/2000/svg">
<path fill-rule="evenodd" clip-rule="evenodd" d="M8 0C5.791 0 3.79031 0.895978 2.34315 2.34315C0.895978 3.79031 0 5.791 0 8C0 12.4183 3.58172 16 8 16C10.209 16 12.2097 15.104 13.6569 13.6569C13.8521 13.4616 13.8521 13.145 13.6569 12.9497C13.4616 12.7545 13.145 12.7545 12.9497 12.9497C11.6824 14.217 9.93314 15 8 15C4.13401 15 1 11.866 1 8C1 6.06686 1.78295 4.31755 3.05025 3.05025C4.31755 1.78295 6.06686 1 8 1C11.866 1 15 4.13401 15 8V8.75C15 9.7165 14.2165 10.5 13.25 10.5C12.2835 10.5 11.5 9.7165 11.5 8.75V5C11.5 4.72386 11.2761 4.5 11 4.5C10.7239 4.5 10.5 4.72386 10.5 5V5.55051C9.86474 4.90223 8.97934 4.5 8 4.5C6.067 4.5 4.5 6.067 4.5 8C4.5 9.933 6.067 11.5 8 11.5C9.1635 11.5 10.1944 10.9323 10.8308 10.0587C11.2961 10.9171 12.205 11.5 13.25 11.5C14.7688 11.5 16 10.2688 16 8.75V8C16 3.58172 12.4183 0 8 0ZM10.5 8C10.5 6.61929 9.38071 5.5 8 5.5C6.61929 5.5 5.5 6.61929 5.5 8C5.5 9.38071 6.61929 10.5 8 10.5C9.38071 10.5 10.5 9.38071 10.5 8Z" fill="#0E1011"/>
</svg>
