<svg viewBox="0 0 16 16" fill="none" xmlns="http://www.w3.org/2000/svg">
<path fill-rule="evenodd" clip-rule="evenodd" d="M2.5 2C1.11929 2 0 3.11929 0 4.5V11.5C0 12.8807 1.11929 14 2.5 14H13.5C14.8807 14 16 12.8807 16 11.5V4.5C16 3.11929 14.8807 2 13.5 2H2.5ZM2.07817 5.23172C2.22643 4.99875 2.53547 4.93007 2.76844 5.07832L7.99616 8.40505L13.0723 5.08183C13.3033 4.93058 13.6132 4.99525 13.7645 5.22629C13.9157 5.45732 13.8511 5.76723 13.62 5.91848L8.00385 9.59526L2.23156 5.92199C1.99859 5.77373 1.92992 5.46469 2.07817 5.23172Z" fill="#0E1011"/>
</svg>
