<svg viewBox="0 0 12 12" fill="none" xmlns="http://www.w3.org/2000/svg">
<path fill-rule="evenodd" clip-rule="evenodd" d="M8.39964 0.407101C9.41755 -0.305648 10.8205 -0.0582659 11.5333 0.959646C12.246 1.97756 11.9986 3.38054 10.9807 4.09328C10.0675 4.7327 8.84445 4.59939 8.08783 3.83024L5.24328 5.8248C5.24773 5.88263 5.25 5.94106 5.25 6.00003C5.25 6.03667 5.24912 6.07311 5.24739 6.10932L8.09143 8.16617C8.84833 7.40025 10.069 7.26837 10.9807 7.90678C11.9986 8.61953 12.246 10.0225 11.5333 11.0404C10.8205 12.0583 9.41755 12.3057 8.39964 11.593C7.4849 10.9525 7.19241 9.75453 7.65977 8.77957L5.06233 6.90107C4.71489 7.69517 3.92224 8.25003 3 8.25003C1.75736 8.25003 0.75 7.24267 0.75 6.00003C0.75 4.75739 1.75736 3.75003 3 3.75003C3.90351 3.75003 4.68264 4.28258 5.04061 5.05091L7.65759 3.21592C7.19332 2.24179 7.48632 1.04661 8.39964 0.407101Z" fill="#0E1011"/>
</svg>
