<svg viewBox="0 0 16 16" fill="none" xmlns="http://www.w3.org/2000/svg">
<path fill-rule="evenodd" clip-rule="evenodd" d="M8 16C4.68629 16 2 13.3137 2 10C2 5.86027 3.26943 2.98998 6.9761 0.610583C7.29868 0.403509 7.63973 0.200152 8 0C7.94963 0.402959 7.9703 0.775473 8.04821 1.1247C8.34548 2.45725 9.47614 3.45072 10.6734 4.50269C12.277 5.91171 14 7.42569 14 10C14 13.3137 11.3137 16 8 16ZM9.44792 14.7871C8.98959 14.9256 8.50349 15 8 15C7.49651 15 7.01041 14.9256 6.55208 14.7871C6.03224 14.3655 5.7 13.7215 5.7 13C5.7 11.952 5.87462 11.1473 6.26258 10.4748C6.53158 10.0085 6.92209 9.57312 7.48685 9.15534C7.57163 9.34674 7.67869 9.52377 7.79899 9.68765C8.09982 10.0975 8.50943 10.4568 8.8613 10.7655L8.94381 10.838C9.74575 11.5437 10.3 12.1016 10.3 13C10.3 13.7215 9.96776 14.3655 9.44792 14.7871ZM10.7646 14.1668C10.9162 13.8081 11 13.4138 11 13C11 11.7128 10.1385 10.9559 9.33669 10.2513C8.79896 9.77886 8.2881 9.32998 8.08199 8.76062C7.99852 8.53003 7.96504 8.27968 8 8C7.74675 8.1407 7.5125 8.28456 7.29619 8.4323C5.59067 9.59717 5 11.0033 5 13C5 13.4138 5.0838 13.8081 5.23535 14.1668C3.88801 13.271 3 11.7392 3 10C3 7.85998 3.3566 6.17466 4.17869 4.74972C4.81639 3.64437 5.76803 2.63721 7.16407 1.68507C7.33195 2.2192 7.59903 2.70076 7.92043 3.13861C8.49491 3.92124 9.28186 4.61196 9.99241 5.23563L10.1519 5.37571C11.7439 6.77672 13 8.00228 13 10C13 11.7392 12.112 13.271 10.7646 14.1668Z" fill="#0E1011"/>
</svg>
