<svg viewBox="0 0 12 12" fill="none" xmlns="http://www.w3.org/2000/svg">
<path fill-rule="evenodd" clip-rule="evenodd" d="M1.875 1C0.839466 1 0 1.83947 0 2.875L2.77758e-05 9.125C2.77758e-05 10.1605 0.839494 11 1.87503 11H10.125C11.1606 11 12 10.1605 12 9.125L12 2.875C12 1.83947 11.1605 1 10.125 1H1.875ZM2.07636 3.80865C1.90163 3.69746 1.66985 3.74897 1.55865 3.9237C1.44746 4.09843 1.49897 4.33021 1.6737 4.4414L6.00291 7.19635L10.215 4.43877C10.3883 4.32533 10.4368 4.0929 10.3234 3.91963C10.2099 3.74635 9.97752 3.69784 9.80424 3.81128L5.99714 6.3037L2.07636 3.80865Z" fill="#0E1011"/>
</svg>
