<svg viewBox="0 0 12 12" fill="none" xmlns="http://www.w3.org/2000/svg">
<path d="M2.75 5.5C2.75 5.08579 3.08579 4.75 3.5 4.75H4.5C4.63807 4.75 4.75 4.63807 4.75 4.5C4.75 4.36193 4.63807 4.25 4.5 4.25H3.5C2.80964 4.25 2.25 4.80964 2.25 5.5V6.5C2.25 6.63807 2.36193 6.75 2.5 6.75C2.63807 6.75 2.75 6.63807 2.75 6.5V5.5Z" fill="#0E1011"/>
<path fill-rule="evenodd" clip-rule="evenodd" d="M3.23483 0.234835C3.38128 0.0883883 3.61872 0.0883883 3.76517 0.234835L5.26517 1.73483C5.33839 1.80806 5.375 1.90403 5.375 2H6.625C6.625 1.90403 6.66161 1.80806 6.73483 1.73483L8.23483 0.234835C8.38128 0.0883883 8.61872 0.0883883 8.76517 0.234835C8.91161 0.381282 8.91161 0.618718 8.76517 0.765165L7.53033 2H10C11.1046 2 12 2.89543 12 4V9C12 10.1046 11.1046 11 10 11H2C0.895431 11 0 10.1046 0 9V4C0 2.89543 0.895431 2 2 2H4.46967L3.23483 0.765165C3.08839 0.618718 3.08839 0.381282 3.23483 0.234835ZM10 2.75H2C1.30964 2.75 0.75 3.30964 0.75 4V9C0.75 9.69036 1.30964 10.25 2 10.25H10C10.6904 10.25 11.25 9.69036 11.25 9V4C11.25 3.30964 10.6904 2.75 10 2.75Z" fill="#0E1011"/>
</svg>
