<svg viewBox="0 0 12 12" fill="none" xmlns="http://www.w3.org/2000/svg">
<path fill-rule="evenodd" clip-rule="evenodd" d="M5.48929 6.64338C5.47604 6.42164 5.45044 6.20701 5.41336 5.99985C5.13139 4.42481 4.18522 3.28121 2.94951 2.72709C2.40131 2.48126 1.79612 2.35144 1.16667 2.35144C1.71568 2.74464 2.06375 3.13783 2.26604 3.53103L2.26664 3.5322C2.36348 3.7207 2.42683 3.9092 2.46276 4.09771C2.48831 4.2318 2.5 4.36589 2.5 4.49998L2.50002 4.51119C1.09838 4.63749 0 5.81547 0 7.24998C0 8.76876 1.23122 9.99998 2.75 9.99998C4.18181 9.99998 5.35804 8.90574 5.48806 7.5079C5.49505 7.43284 5.49901 7.35689 5.49984 7.2802L5.5 7.24998L5.49984 7.21976C5.49904 7.14576 5.49532 7.07246 5.48879 6.99996H5.49984L5.41336 5.99985L5.49984 6.99896C5.49982 6.8785 5.49626 6.75996 5.48929 6.64338ZM3.5 4.49998C3.5 4.43333 3.49801 4.36711 3.494 4.30133C3.92026 4.73302 4.23978 5.30544 4.39509 6.0053L4.49282 7.08971C4.49756 7.14226 4.5 7.19571 4.5 7.24998C4.5 8.21648 3.7165 8.99998 2.75 8.99998C1.7835 8.99998 1 8.21648 1 7.24998C1 6.33765 1.69887 5.58743 2.58976 5.50716L3.50247 5.42491L3.50001 4.50851L3.5 4.49998Z" fill="#0E1011"/>
<path fill-rule="evenodd" clip-rule="evenodd" d="M11.9893 6.64338C11.976 6.42164 11.9504 6.20701 11.9134 5.99985C11.6314 4.42481 10.6852 3.28121 9.44951 2.72709C8.90131 2.48126 8.29612 2.35144 7.66667 2.35144C8.21568 2.74464 8.56376 3.13783 8.76604 3.53103L8.76664 3.5322C8.86348 3.7207 8.92683 3.9092 8.96276 4.09771C8.98831 4.2318 9 4.36589 9 4.49998L9.00002 4.51119C7.59838 4.63749 6.5 5.81547 6.5 7.24998C6.5 8.76876 7.73122 9.99998 9.25 9.99998C10.6818 9.99998 11.858 8.90574 11.9881 7.5079C11.995 7.43284 11.999 7.35689 11.9998 7.2802L12 7.24998L11.9998 7.21976C11.999 7.14576 11.9953 7.07246 11.9888 6.99996H11.9998L11.9134 5.99985L11.9998 6.99896C11.9998 6.8785 11.9963 6.75996 11.9893 6.64338ZM10 4.49998C10 4.43333 9.99801 4.36711 9.994 4.30133C10.4203 4.73302 10.7398 5.30544 10.8951 6.0053L10.9928 7.08971C10.9976 7.14226 11 7.19571 11 7.24998C11 8.21648 10.2165 8.99998 9.25 8.99998C8.2835 8.99998 7.5 8.21648 7.5 7.24998C7.5 6.33765 8.19887 5.58743 9.08976 5.50716L10.0025 5.42491L10 4.50851L10 4.49998Z" fill="#0E1011"/>
</svg>
