<svg viewBox="0 0 12 12" fill="none" xmlns="http://www.w3.org/2000/svg">
<path fill-rule="evenodd" clip-rule="evenodd" d="M7.5 0.625C7.5 0.417893 7.66789 0.25 7.875 0.25C8.08211 0.25 8.25 0.417893 8.25 0.625V1H10.3125C11.2445 1 12 1.75552 12 2.6875V10.3125C12 11.2445 11.2445 12 10.3125 12H1.6875C0.75552 12 0 11.2445 0 10.3125V2.6875C0 1.75552 0.75552 1 1.6875 1H3.75V0.625C3.75 0.417893 3.91789 0.25 4.125 0.25C4.33211 0.25 4.5 0.417893 4.5 0.625V1H7.5V0.625ZM11.1562 4.375C11.1562 4.21967 11.0303 4.09375 10.875 4.09375H1.125C0.96967 4.09375 0.84375 4.21967 0.84375 4.375C0.84375 4.53033 0.96967 4.65625 1.125 4.65625H10.875C11.0303 4.65625 11.1562 4.53033 11.1562 4.375Z" fill="#0E1011"/>
</svg>
