<svg viewBox="0 0 12 12" fill="none" xmlns="http://www.w3.org/2000/svg">
<path d="M5.625 9.25V10.8608C3.2316 10.6787 1.32128 8.7684 1.13921 6.375H2.75C2.95711 6.375 3.125 6.20711 3.125 6C3.125 5.79289 2.95711 5.625 2.75 5.625H1.13921C1.32128 3.2316 3.2316 1.32128 5.625 1.13921V2.75C5.625 2.95711 5.79289 3.125 6 3.125C6.20711 3.125 6.375 2.95711 6.375 2.75V1.13921C8.7684 1.32128 10.6787 3.2316 10.8608 5.625H9.25C9.04289 5.625 8.875 5.79289 8.875 6C8.875 6.20711 9.04289 6.375 9.25 6.375H10.8608C10.6787 8.7684 8.7684 10.6787 6.375 10.8608V9.25C6.375 9.04289 6.20711 8.875 6 8.875C5.79289 8.875 5.625 9.04289 5.625 9.25Z" fill="#0E1011"/>
<path fill-rule="evenodd" clip-rule="evenodd" d="M12 6C12 9.31371 9.31371 12 6 12C2.68629 12 0 9.31371 0 6C0 2.68629 2.68629 0 6 0C9.31371 0 12 2.68629 12 6ZM0.75 6C0.75 8.8995 3.1005 11.25 6 11.25C8.8995 11.25 11.25 8.8995 11.25 6C11.25 3.1005 8.8995 0.75 6 0.75C3.1005 0.75 0.75 3.1005 0.75 6Z" fill="#0E1011"/>
</svg>
