<svg viewBox="0 0 12 12" fill="none" xmlns="http://www.w3.org/2000/svg">
<path fill-rule="evenodd" clip-rule="evenodd" d="M1.875 2.25C1.25368 2.25 0.75 2.75368 0.75 3.375V9.96967L1.60984 9.10983C1.68016 9.03951 1.77554 9 1.875 9H10.125C10.7463 9 11.25 8.49632 11.25 7.875V3.375C11.25 2.75368 10.7463 2.25 10.125 2.25H1.875ZM0 3.375C0 2.33947 0.839466 1.5 1.875 1.5H10.125C11.1605 1.5 12 2.33947 12 3.375V7.875C12 8.91053 11.1605 9.75 10.125 9.75H2.03033L0 11.7803V3.375Z" fill="#0E1011"/>
<path d="M0.75 3.375C0.75 2.75368 1.25368 2.25 1.875 2.25H10.125C10.7463 2.25 11.25 2.75368 11.25 3.375V7.875C11.25 8.49632 10.7463 9 10.125 9H1.875C1.77554 9 1.68016 9.03951 1.60984 9.10983L0.75 9.96967V3.375Z" fill="#0E1011"/>
</svg>
