<svg viewBox="0 0 12 12" fill="none" xmlns="http://www.w3.org/2000/svg">
<path d="M7.11772 2.32354C7.15833 2.12046 7.02663 1.9229 6.82354 1.88228C6.62046 1.84167 6.4229 1.97337 6.38228 2.17646L5.63228 5.92646C5.60769 6.0494 5.64618 6.17651 5.73484 6.26517L7.98483 8.51517C8.13128 8.66161 8.36872 8.66161 8.51517 8.51517C8.66161 8.36872 8.66161 8.13128 8.51517 7.98483L6.40708 5.87675L7.11772 2.32354Z" fill="#0E1011"/>
<path fill-rule="evenodd" clip-rule="evenodd" d="M6 12C9.31371 12 12 9.31371 12 6C12 2.68629 9.31371 0 6 0C2.68629 0 0 2.68629 0 6C0 9.31371 2.68629 12 6 12ZM11.25 6C11.25 8.8995 8.8995 11.25 6 11.25C3.1005 11.25 0.75 8.8995 0.75 6C0.75 3.1005 3.1005 0.75 6 0.75C8.8995 0.75 11.25 3.1005 11.25 6Z" fill="#0E1011"/>
</svg>
