<svg viewBox="0 0 12 12" fill="none" xmlns="http://www.w3.org/2000/svg">
<path d="M6 0.344788L7.76517 2.10995C7.91161 2.2564 7.91161 2.49384 7.76517 2.64028C7.61872 2.78673 7.38128 2.78673 7.23483 2.64028L6.375 1.78045V3.87512C6.375 4.08222 6.20711 4.25012 6 4.25012C5.79289 4.25012 5.625 4.08222 5.625 3.87512V1.78045L4.76516 2.64028C4.61872 2.78673 4.38128 2.78673 4.23484 2.64028C4.08839 2.49384 4.08839 2.2564 4.23484 2.10995L6 0.344788Z" fill="#0E1011"/>
<path d="M2.02252 3.64764C2.16897 3.5012 2.40641 3.5012 2.55285 3.64764L3.61351 4.7083C3.75996 4.85475 3.75996 5.09219 3.61351 5.23863C3.46707 5.38508 3.22963 5.38508 3.08318 5.23863L2.02252 4.17797C1.87608 4.03153 1.87608 3.79409 2.02252 3.64764Z" fill="#0E1011"/>
<path d="M9.97748 3.64764C10.1239 3.79409 10.1239 4.03153 9.97748 4.17797L8.91682 5.23863C8.77037 5.38508 8.53293 5.38508 8.38649 5.23863C8.24004 5.09219 8.24004 4.85475 8.38649 4.7083L9.44715 3.64764C9.59359 3.5012 9.83103 3.5012 9.97748 3.64764Z" fill="#0E1011"/>
<path d="M0.375 7.62512C0.375 7.41801 0.542893 7.25012 0.75 7.25012H2.25C2.45711 7.25012 2.625 7.41801 2.625 7.62512C2.625 7.83222 2.45711 8.00012 2.25 8.00012H0.75C0.542893 8.00012 0.375 7.83222 0.375 7.62512Z" fill="#0E1011"/>
<path d="M9.375 7.62512C9.375 7.41801 9.54289 7.25012 9.75 7.25012H11.25C11.4571 7.25012 11.625 7.41801 11.625 7.62512C11.625 7.83222 11.4571 8.00012 11.25 8.00012H9.75C9.54289 8.00012 9.375 7.83222 9.375 7.62512Z" fill="#0E1011"/>
<path fill-rule="evenodd" clip-rule="evenodd" d="M3.375 7.43762C3.375 6.09142 4.46631 5.00012 5.8125 5.00012H6.1875C7.53369 5.00012 8.625 6.09142 8.625 7.43762V8.00012H3.375V7.43762ZM4.1353 7.25012H7.8647C7.77143 6.40638 7.0561 5.75012 6.1875 5.75012H5.8125C4.9439 5.75012 4.22857 6.40638 4.1353 7.25012Z" fill="#0E1011"/>
<path d="M0.75 9.25006C0.542893 9.25006 0.375 9.41795 0.375 9.62506C0.375 9.83217 0.542893 10.0001 0.75 10.0001H11.25C11.4571 10.0001 11.625 9.83217 11.625 9.62506C11.625 9.41795 11.4571 9.25006 11.25 9.25006H0.75Z" fill="#0E1011"/>
</svg>
