<svg viewBox="0 0 12 12" fill="none" xmlns="http://www.w3.org/2000/svg">
<path d="M1.00012 1.17004C0.817861 1.17004 0.670115 1.31779 0.670115 1.50004C0.670115 1.6823 0.817861 1.83004 1.00012 1.83004H1.17012V3.17004H1.00012C0.817861 3.17004 0.670115 3.31779 0.670115 3.50004C0.670115 3.6823 0.817861 3.83004 1.00012 3.83004H2.00012C2.18237 3.83004 2.33012 3.6823 2.33012 3.50004C2.33012 3.31779 2.18237 3.17004 2.00012 3.17004H1.83012V1.17004H1.00012Z" fill="#0E1011"/>
<path d="M4.50012 2.12504C4.29301 2.12504 4.12512 2.29294 4.12512 2.50004C4.12512 2.70715 4.29301 2.87504 4.50012 2.87504H9.50012C9.70722 2.87504 9.87512 2.70715 9.87512 2.50004C9.87512 2.29294 9.70722 2.12504 9.50012 2.12504H4.50012Z" fill="#0E1011"/>
<path d="M4.50012 5.62504C4.29301 5.62504 4.12512 5.79294 4.12512 6.00004C4.12512 6.20715 4.29301 6.37504 4.50012 6.37504H11.5001C11.7072 6.37504 11.8751 6.20715 11.8751 6.00004C11.8751 5.79294 11.7072 5.62504 11.5001 5.62504H4.50012Z" fill="#0E1011"/>
<path d="M4.50012 9.12504C4.29301 9.12504 4.12512 9.29294 4.12512 9.50004C4.12512 9.70715 4.29301 9.87504 4.50012 9.87504H7.50012C7.70722 9.87504 7.87512 9.70715 7.87512 9.50004C7.87512 9.29294 7.70722 9.12504 7.50012 9.12504H4.50012Z" fill="#0E1011"/>
<path d="M0.499999 4.66995C0.317745 4.66995 0.169999 4.81769 0.169999 4.99995C0.169999 5.1822 0.317745 5.32995 0.499999 5.32995H1.92V5.34817L0.285238 6.74939C0.180386 6.83926 0.142584 6.98492 0.190497 7.11444C0.238409 7.24396 0.361902 7.32995 0.499999 7.32995H2.5C2.68225 7.32995 2.83 7.1822 2.83 6.99995C2.83 6.81769 2.68225 6.66995 2.5 6.66995H1.39207L2.39492 5.81037C2.51239 5.70967 2.58 5.56268 2.58 5.40796V5.19995C2.58 4.90723 2.34271 4.66995 2.05 4.66995H0.499999Z" fill="#0E1011"/>
<path d="M0.169999 8.49995C0.169999 8.31769 0.317745 8.16995 0.499999 8.16995H2.3C2.59271 8.16995 2.83 8.40724 2.83 8.69995V8.87634C2.83 9.07709 2.71658 9.26061 2.53702 9.35039L2.2379 9.49995L2.53702 9.64951C2.71658 9.73928 2.83 9.9228 2.83 10.1236V10.2999C2.83 10.5927 2.59271 10.8299 2.3 10.8299H0.499999C0.317745 10.8299 0.169999 10.6822 0.169999 10.4999C0.169999 10.3177 0.317745 10.1699 0.499999 10.1699H2.1021L1.35242 9.79511C1.24062 9.73921 1.17 9.62494 1.17 9.49995C1.17 9.37495 1.24062 9.26068 1.35242 9.20479L2.1021 8.82995H0.499999C0.317745 8.82995 0.169999 8.6822 0.169999 8.49995Z" fill="#0E1011"/>
</svg>
