<svg viewBox="0 0 16 16" fill="none" xmlns="http://www.w3.org/2000/svg">
<path fill-rule="evenodd" clip-rule="evenodd" d="M0.5 8C0.5 7.72386 0.723858 7.5 1 7.5H10.7929L8.64645 5.35355C8.45118 5.15829 8.45118 4.84171 8.64645 4.64645C8.84171 4.45118 9.15829 4.45118 9.35355 4.64645L12.7071 8L9.35355 11.3536C9.15829 11.5488 8.84171 11.5488 8.64645 11.3536C8.45118 11.1583 8.45118 10.8417 8.64645 10.6464L10.7929 8.5H1C0.723858 8.5 0.5 8.27614 0.5 8ZM10 14.5C10 14.2239 10.2239 14 10.5 14H13C13.5523 14 14 13.5523 14 13V3C14 2.44772 13.5523 2 13 2H10.5C10.2239 2 10 1.77614 10 1.5C10 1.22386 10.2239 1 10.5 1H13C14.1046 1 15 1.89543 15 3V13C15 14.1046 14.1046 15 13 15H10.5C10.2239 15 10 14.7761 10 14.5Z" fill="#0E1011"/>
</svg>
