<svg viewBox="0 0 12 12" fill="none" xmlns="http://www.w3.org/2000/svg">
<path fill-rule="evenodd" clip-rule="evenodd" d="M5.0625 5.0625L9 3L6.9375 6.9375L3 9L5.0625 5.0625ZM4.77799 7.22201L5.61812 5.61812L7.22201 4.77799L6.38188 6.38188L4.77799 7.22201Z" fill="#0E1011"/>
<path fill-rule="evenodd" clip-rule="evenodd" d="M6 12C9.31371 12 12 9.31371 12 6C12 2.68629 9.31371 0 6 0C2.68629 0 0 2.68629 0 6C0 9.31371 2.68629 12 6 12ZM11.25 6C11.25 8.8995 8.8995 11.25 6 11.25C3.1005 11.25 0.75 8.8995 0.75 6C0.75 3.1005 3.1005 0.75 6 0.75C8.8995 0.75 11.25 3.1005 11.25 6Z" fill="#0E1011"/>
</svg>
