<svg viewBox="0 0 16 16" fill="none" xmlns="http://www.w3.org/2000/svg">
<path fill-rule="evenodd" clip-rule="evenodd" d="M15.5534 6.44663C15.399 6.26868 15.2382 6.09599 15.0711 5.92893C14.1425 5.00035 13.0401 4.26375 11.8269 3.76121C10.6136 3.25866 9.31325 3 8.00003 3C6.68681 3 5.38645 3.25866 4.17319 3.7612C2.95994 4.26375 1.85755 5.00035 0.92896 5.92893C0.761896 6.096 0.601046 6.26869 0.446655 6.44664L1.86531 7.86529C2.01656 7.68458 2.17598 7.51034 2.34317 7.34315C3.08604 6.60028 3.96796 6.011 4.93856 5.60896C5.90917 5.20693 6.94945 5 8.00003 5C9.0506 5 10.0909 5.20693 11.0615 5.60896C12.0321 6.011 12.914 6.60028 13.6569 7.34315C13.8241 7.51034 13.9835 7.68458 14.1347 7.86528L15.5534 6.44663ZM12.7133 9.28674C11.6145 7.89401 9.91168 7 8.00003 7C6.08837 7 4.38552 7.89401 3.28677 9.28675L4.71589 10.7159C5.4386 9.6787 6.64005 9 8.00003 9C9.36 9 10.5615 9.6787 11.2842 10.7159L12.7133 9.28674ZM9.82327 12.1767C9.50945 11.4828 8.81112 11 8.00003 11C7.18892 11 6.49059 11.4828 6.17678 12.1768L8.00002 14L9.82327 12.1767Z" fill="black"/>
</svg>
