<svg viewBox="0 0 12 12" fill="none" xmlns="http://www.w3.org/2000/svg">
<path fill-rule="evenodd" clip-rule="evenodd" d="M5.99721 1H6.00277L6.04057 1.00006L6.15458 1.00049C6.25305 1.00099 6.39453 1.00197 6.56699 1.00394C6.91173 1.00788 7.38101 1.01576 7.87838 1.03154C8.3751 1.0473 8.90308 1.07103 9.36422 1.10695C9.8141 1.14198 10.2346 1.1908 10.496 1.26543C10.5011 1.26688 10.5061 1.26843 10.5111 1.27008C10.8246 1.3738 11.1017 1.56994 11.318 1.83069C11.534 2.09111 11.6834 2.40841 11.7563 2.7487C11.7578 2.75598 11.7592 2.7633 11.7603 2.77065C11.9253 3.84044 12.0055 4.9256 11.9997 6.01237C12.0029 7.0829 11.9228 8.15164 11.7603 9.20544C11.7592 9.2128 11.7578 9.22013 11.7563 9.22742C11.6834 9.56771 11.534 9.885 11.318 10.1454C11.1017 10.4062 10.8246 10.6023 10.5111 10.706L10.5051 10.708C10.2405 10.7907 9.81682 10.8444 9.36702 10.8828C8.9051 10.9221 8.3765 10.9482 7.87953 10.9654C7.38185 10.9827 6.9123 10.9914 6.5674 10.9957C6.39486 10.9978 6.2533 10.9989 6.15476 10.9995L6.04065 10.9999L5.99924 11L5.95935 10.9999L5.84524 10.9995C5.7467 10.9989 5.60514 10.9978 5.4326 10.9957C5.0877 10.9914 4.61816 10.9827 4.12047 10.9654C3.6235 10.9482 3.0949 10.9221 2.63298 10.8828C2.18318 10.8444 1.75955 10.7907 1.49487 10.708L1.49248 10.7072C1.18517 10.6089 0.911811 10.4218 0.695593 10.1716C0.479641 9.92165 0.326541 9.61586 0.246139 9.28573C0.243525 9.27499 0.241372 9.26415 0.239688 9.25323C0.0746754 8.18351 -0.00544996 7.09842 0.000287582 6.01172C-0.00417324 4.93315 0.0759465 3.85627 0.239686 2.79455C0.240821 2.78719 0.242168 2.77987 0.243727 2.77259C0.316568 2.43229 0.465985 2.115 0.682019 1.85457C0.898317 1.59382 1.1754 1.39768 1.48891 1.29396L1.49487 1.29205C1.75955 1.20927 2.18318 1.15561 2.63298 1.11725C3.0949 1.07785 3.6235 1.05183 4.12047 1.03456C4.61816 1.01727 5.0877 1.00864 5.4326 1.00432C5.60514 1.00216 5.7467 1.00108 5.84524 1.00054L5.95935 1.00007L5.99721 1ZM4.68052 3.6287C4.563 3.55002 4.4119 3.54268 4.28737 3.60961C4.16285 3.67654 4.08511 3.80687 4.08511 3.94872V8.05128C4.08511 8.19313 4.16285 8.32346 4.28737 8.39039C4.4119 8.45732 4.563 8.44998 4.68052 8.3713L7.74435 6.32002C7.8509 6.24869 7.91489 6.1286 7.91489 6C7.91489 5.8714 7.8509 5.75131 7.74435 5.67998L4.68052 3.6287Z" fill="#0E1011"/>
</svg>
