<svg viewBox="0 0 16 16" fill="none" xmlns="http://www.w3.org/2000/svg">
<path d="M7.5 7L9 2L5.25 8L8 9L6.5 14L10.25 8L7.5 7Z" fill="#0E1011"/>
<path d="M1 5.25C1 4.55964 1.55964 4 2.25 4H4.5C4.77614 4 5 3.77614 5 3.5C5 3.22386 4.77614 3 4.5 3H2.25C1.00736 3 0 4.00736 0 5.25V10.75C0 11.9926 1.00736 13 2.25 13H4.5C4.77614 13 5 12.7761 5 12.5C5 12.2239 4.77614 12 4.5 12H2.25C1.55964 12 1 11.4404 1 10.75V5.25Z" fill="#0E1011"/>
<path d="M10.5 3C10.2239 3 10 3.22386 10 3.5C10 3.77614 10.2239 4 10.5 4H12.75C13.4404 4 14 4.55964 14 5.25V10.75C14 11.4404 13.4404 12 12.75 12H10.5C10.2239 12 10 12.2239 10 12.5C10 12.7761 10.2239 13 10.5 13H12.75C13.9926 13 15 11.9926 15 10.75V10H15.25C15.6642 10 16 9.66421 16 9.25V7.25C16 6.83579 15.6642 6.5 15.25 6.5H15V5.25C15 4.00736 13.9926 3 12.75 3H10.5Z" fill="#0E1011"/>
</svg>
