<svg viewBox="0 0 16 16" fill="none" xmlns="http://www.w3.org/2000/svg">
<path d="M9.89695 0.253101C9.6225 0.222612 9.37529 0.420384 9.34481 0.694838C9.31432 0.969292 9.51209 1.2165 9.78654 1.24699C11.0267 1.38475 12.1831 1.94009 13.0659 2.82182C13.9488 3.70356 14.5055 4.85927 14.6449 6.09921C14.6757 6.37362 14.9232 6.57108 15.1976 6.54025C15.472 6.50941 15.6695 6.26196 15.6386 5.98755C15.474 4.52216 14.8159 3.15632 13.7726 2.11427C12.7292 1.07223 11.3625 0.415916 9.89695 0.253101Z" fill="#0E1011"/>
<path d="M9.9375 2.92596C9.66646 2.87308 9.40388 3.04993 9.351 3.32096C9.29812 3.592 9.47497 3.85458 9.746 3.90746C10.2995 4.01544 10.8082 4.28614 11.2069 4.68489C11.6057 5.08364 11.8763 5.59231 11.9843 6.14579C12.0372 6.41682 12.2998 6.59367 12.5708 6.54079C12.8419 6.48791 13.0187 6.22533 12.9658 5.9543C12.8197 5.20547 12.4535 4.51727 11.914 3.97778C11.3745 3.43829 10.6863 3.07206 9.9375 2.92596Z" fill="#0E1011"/>
<path d="M14.9997 13.0001C14.9997 14.1046 14.0997 15.0151 13.0062 14.8592C11.1877 14.6 9.48188 13.9913 7.95881 13.1034C5.92016 11.9149 4.20899 10.2261 2.99361 8.2052C2.05282 6.6409 1.40909 4.87765 1.1405 2.9935C0.984608 1.89999 1.89508 1.00006 2.99965 1.00006H4.99965C5.55194 1.00006 5.9938 1.44914 6.05437 1.99809C6.15106 2.87456 6.37361 3.7131 6.70354 4.49527L5.0892 6.10961C4.93402 6.26479 4.89722 6.50362 5.00604 6.69419C6.06089 8.54155 7.61321 10.0682 9.48054 11.0916C9.67025 11.1956 9.90483 11.1574 10.0578 11.0044L11.6901 9.37206C12.4188 9.66036 13.1941 9.85627 14.0016 9.94535C14.5506 10.0059 14.9997 10.4478 14.9997 11.0001V13.0001Z" fill="#0E1011"/>
</svg>
