<svg viewBox="0 0 16 16" fill="none" xmlns="http://www.w3.org/2000/svg">
<path fill-rule="evenodd" clip-rule="evenodd" d="M6 3C3.23858 3 1 5.23858 1 8C1 10.7614 3.23858 13 6 13H12C13.6569 13 15 11.6569 15 10C15 8.34315 13.6569 7 12 7C11.7974 7 11.6 7.02001 11.4094 7.05801L10.9504 7.14957L10.8288 6.69755C10.2558 4.56733 8.31029 3 6 3ZM0 8C0 4.68629 2.68629 2 6 2C8.61819 2 10.8437 3.67659 11.6634 6.01399C11.7744 6.00472 11.8867 6 12 6C14.2091 6 16 7.79086 16 10C16 12.2091 14.2091 14 12 14H6C2.68629 14 0 11.3137 0 8Z" fill="#0E1011"/>
</svg>
