<svg viewBox="0 0 16 16" fill="none" xmlns="http://www.w3.org/2000/svg">
<path fill-rule="evenodd" clip-rule="evenodd" d="M16 8C16 12.4183 12.4183 16 8 16C3.58172 16 0 12.4183 0 8C0 3.58172 3.58172 0 8 0C12.4183 0 16 3.58172 16 8ZM5.00003 6C5.00003 5.44772 5.44774 5 6.00003 5C6.55231 5 7.00003 5.44772 7.00003 6C7.00003 6.55228 6.55231 7 6.00003 7C5.44774 7 5.00003 6.55228 5.00003 6ZM9.00003 6C9.00003 5.44772 9.44775 5 10 5C10.5523 5 11 5.44772 11 6C11 6.55228 10.5523 7 10 7C9.44775 7 9.00003 6.55228 9.00003 6ZM5.35358 11.7286C5.9886 11.0935 6.97427 10.75 8.00003 10.75C9.02579 10.75 10.0115 11.0935 10.6465 11.7286C10.8417 11.9238 11.1583 11.9238 11.3536 11.7286C11.5488 11.5333 11.5488 11.2167 11.3536 11.0214C10.4886 10.1565 9.22427 9.75 8.00003 9.75C6.77579 9.75 5.51146 10.1565 4.64648 11.0214C4.45121 11.2167 4.45121 11.5333 4.64648 11.7286C4.84174 11.9238 5.15832 11.9238 5.35358 11.7286Z" fill="#0E1011"/>
</svg>
