<svg viewBox="0 0 16 16" fill="none" xmlns="http://www.w3.org/2000/svg">
<path d="M8 4.5C8.27614 4.5 8.5 4.72386 8.5 5V8.5C8.5 8.77614 8.27614 9 8 9C7.72386 9 7.5 8.77614 7.5 8.5L7.5 5C7.5 4.72386 7.72386 4.5 8 4.5Z" fill="#0E1011"/>
<path d="M8 10C8.27614 10 8.5 10.2239 8.5 10.5V11C8.5 11.2762 8.27614 11.5 8 11.5C7.72386 11.5 7.5 11.2762 7.5 11V10.5C7.5 10.2239 7.72386 10 8 10Z" fill="#0E1011"/>
<path fill-rule="evenodd" clip-rule="evenodd" d="M11.003 0.75L15.25 4.99695V11.003L11.003 15.25L4.99695 15.25L0.75 11.003V4.99695L4.99695 0.75H11.003ZM5.41117 1.75L10.5888 1.75L14.25 5.41116V10.5888L10.5888 14.25L5.41117 14.25L1.75 10.5888L1.75 5.41116L5.41117 1.75Z" fill="#0E1011"/>
</svg>
