<svg viewBox="0 0 12 12" fill="none" xmlns="http://www.w3.org/2000/svg">
<path fill-rule="evenodd" clip-rule="evenodd" d="M11.1402 0.859846C11.2513 0.970939 11.2813 1.13951 11.2155 1.28216L6.7155 11.0322C6.64653 11.1816 6.48818 11.2686 6.32505 11.2467C6.16193 11.2247 6.03218 11.099 6.00512 10.9367L5.29915 6.70087L1.06337 5.99491C0.901018 5.96785 0.775288 5.83809 0.75336 5.67497C0.731431 5.51185 0.818431 5.3535 0.96787 5.28453L10.7179 0.784526C10.8605 0.718688 11.0291 0.748752 11.1402 0.859846ZM2.38764 5.45527L5.68667 6.00511C5.84472 6.03145 5.96857 6.15531 5.99491 6.31336L6.54475 9.61239L10.108 1.89204L2.38764 5.45527Z" fill="#0E1011"/>
<path d="M5.68667 6.00511L2.38764 5.45527L10.108 1.89204L6.54475 9.61239L5.99491 6.31336C5.96857 6.15531 5.84472 6.03145 5.68667 6.00511Z" fill="#0E1011"/>
</svg>
