<svg viewBox="0 0 16 16" fill="none" xmlns="http://www.w3.org/2000/svg">
<path d="M13.8536 2.39645C14.0488 2.59171 14.0488 2.90829 13.8536 3.10355L2.85355 14.1036C2.65829 14.2988 2.34171 14.2988 2.14645 14.1036C1.95118 13.9083 1.95118 13.5917 2.14645 13.3964L13.1464 2.39645C13.3417 2.20118 13.6583 2.20118 13.8536 2.39645Z" fill="#0E1011"/>
<path fill-rule="evenodd" clip-rule="evenodd" d="M2 4.25C2 3.14543 2.89543 2.25 4 2.25C5.10457 2.25 6 3.14543 6 4.25C6 5.35457 5.10457 6.25 4 6.25C2.89543 6.25 2 5.35457 2 4.25ZM4 3.25C3.44772 3.25 3 3.69772 3 4.25C3 4.80228 3.44772 5.25 4 5.25C4.55228 5.25 5 4.80228 5 4.25C5 3.69772 4.55228 3.25 4 3.25Z" fill="#0E1011"/>
<path fill-rule="evenodd" clip-rule="evenodd" d="M12 10.25C10.8954 10.25 10 11.1454 10 12.25C10 13.3546 10.8954 14.25 12 14.25C13.1046 14.25 14 13.3546 14 12.25C14 11.1454 13.1046 10.25 12 10.25ZM11 12.25C11 11.6977 11.4477 11.25 12 11.25C12.5523 11.25 13 11.6977 13 12.25C13 12.8023 12.5523 13.25 12 13.25C11.4477 13.25 11 12.8023 11 12.25Z" fill="#0E1011"/>
</svg>
