<svg viewBox="0 0 12 12" fill="none" xmlns="http://www.w3.org/2000/svg">
<path d="M2.57029 2.25C2.00213 2.25 1.48274 2.571 1.22865 3.07918L0.277129 4.98222C0.23865 5.05917 0.204066 5.1378 0.173447 5.21779C0.499827 5.00118 0.891428 4.875 1.3125 4.875H10.6875C11.1086 4.875 11.5002 5.00118 11.8266 5.21779C11.7959 5.1378 11.7613 5.05917 11.7229 4.98222L10.7714 3.07918C10.5173 2.571 9.99787 2.25 9.42971 2.25H2.57029Z" fill="#0E1011"/>
<path fill-rule="evenodd" clip-rule="evenodd" d="M12 6.9375C12 6.21263 11.4124 5.625 10.6875 5.625H1.3125C0.587626 5.625 0 6.21263 0 6.9375V8.25C0 9.07843 0.671573 9.75 1.5 9.75H10.5C11.3284 9.75 12 9.07843 12 8.25V6.9375ZM8.25 7.125C8.25 6.91789 8.41789 6.75 8.625 6.75H10.125C10.3321 6.75 10.5 6.91789 10.5 7.125C10.5 7.33211 10.3321 7.5 10.125 7.5H8.625C8.41789 7.5 8.25 7.33211 8.25 7.125Z" fill="#0E1011"/>
</svg>
