<svg viewBox="0 0 16 16" fill="none" xmlns="http://www.w3.org/2000/svg">
<path d="M3.01688 2.89282C2.81962 2.69958 2.50305 2.70285 2.30981 2.90011C2.11657 3.09737 2.11984 3.41394 2.3171 3.60718L6.03954 7.25366L2.39675 10.8964C2.20149 11.0917 2.20149 11.4083 2.39675 11.6036C2.59201 11.7988 2.9086 11.7988 3.10386 11.6036L7.10386 7.60355C7.19826 7.50915 7.25099 7.38092 7.2503 7.24742C7.24961 7.11392 7.19556 6.98624 7.1002 6.89282L3.01688 2.89282Z" fill="#0E1011"/>
<path d="M8 12C7.72386 12 7.5 12.2238 7.5 12.5C7.5 12.7761 7.72386 13 8 13H13.5C13.7761 13 14 12.7761 14 12.5C14 12.2238 13.7761 12 13.5 12H8Z" fill="#0E1011"/>
</svg>
