<svg viewBox="0 0 16 16" fill="none" xmlns="http://www.w3.org/2000/svg">
<path d="M1.14645 4.85355C0.951184 4.65829 0.951184 4.34171 1.14645 4.14645L5.14645 0.146447C5.34171 -0.0488155 5.65829 -0.0488155 5.85355 0.146447C6.04882 0.341709 6.04882 0.658291 5.85355 0.853553L2.70711 4L12.5 4C12.7761 4 13 4.22386 13 4.5C13 4.77614 12.7761 5 12.5 5L2.70711 5L5.85355 8.14645C6.04882 8.34171 6.04882 8.65829 5.85355 8.85355C5.65829 9.04882 5.34171 9.04882 5.14645 8.85355L1.14645 4.85355Z" fill="#0E1011"/>
<path d="M14.8536 11.8536C15.0488 11.6583 15.0488 11.3417 14.8536 11.1464L10.8536 7.14645C10.6583 6.95118 10.3417 6.95118 10.1464 7.14645C9.95118 7.34171 9.95118 7.65829 10.1464 7.85355L13.2929 11L3.5 11C3.22386 11 3 11.2239 3 11.5C3 11.7761 3.22386 12 3.5 12L13.2929 12L10.1464 15.1464C9.95118 15.3417 9.95118 15.6583 10.1464 15.8536C10.3417 16.0488 10.6583 16.0488 10.8536 15.8536L14.8536 11.8536Z" fill="#0E1011"/>
</svg>
