<svg viewBox="0 0 16 16" fill="none" xmlns="http://www.w3.org/2000/svg">
<path fill-rule="evenodd" clip-rule="evenodd" d="M7.8431 0.0252541C7.94499 -0.00841805 8.05501 -0.00841805 8.1569 0.0252541L13.9707 1.94662C14.5851 2.14966 15 2.72379 15 3.37086V6.37808C15 7.91567 14.628 9.40367 13.9449 10.7294L13.0559 10.2714C13.6672 9.08508 14 7.75386 14 6.37808V3.37086C14 3.15517 13.8617 2.96379 13.6569 2.89611L8 1.0266L4.77467 2.09252L4.46088 1.14303L7.8431 0.0252541ZM1.52433 2.23143L0.146446 0.853553L0.853553 0.146447L15.8536 15.1464L15.1464 15.8536L12.3026 13.0097C11.8251 13.4994 11.2913 13.9411 10.7068 14.3241L8.27404 15.9182C8.10762 16.0273 7.89238 16.0273 7.72596 15.9182L5.2932 14.3241C2.61409 12.5686 1 9.58114 1 6.37808V3.37086C1 2.92325 1.19855 2.51055 1.52433 2.23143ZM2.23791 2.94502C2.09237 3.03457 2 3.1946 2 3.37086V6.37808C2 9.24397 3.44418 11.9169 5.84129 13.4877L8 14.9022L10.1587 13.4877C10.6854 13.1426 11.166 12.7443 11.5954 12.3025L2.23791 2.94502Z" fill="#0E1011"/>
</svg>
