<svg viewBox="0 0 16 16" fill="none" xmlns="http://www.w3.org/2000/svg">
<path d="M8.5 2.91421V11.7071C8.5 11.9832 8.27614 12.2071 8 12.2071C7.72386 12.2071 7.5 11.9832 7.5 11.7071V2.91421L5.35355 5.06066C5.15829 5.25592 4.84171 5.25592 4.64645 5.06066C4.45118 4.8654 4.45118 4.54882 4.64645 4.35355L8 1L11.3536 4.35355C11.5488 4.54882 11.5488 4.8654 11.3536 5.06066C11.1583 5.25592 10.8417 5.25592 10.6464 5.06066L8.5 2.91421Z" fill="#0E1011"/>
<path d="M2 10.5C2 10.2239 1.77614 10 1.5 10C1.22386 10 1 10.2239 1 10.5V13.75C1 14.4404 1.55964 15 2.25 15H13.75C14.4404 15 15 14.4404 15 13.75V10.5C15 10.2239 14.7761 10 14.5 10C14.2239 10 14 10.2239 14 10.5V13.75C14 13.8881 13.8881 14 13.75 14H2.25C2.11193 14 2 13.8881 2 13.75V10.5Z" fill="#0E1011"/>
</svg>
