<svg viewBox="0 0 16 16" fill="none" xmlns="http://www.w3.org/2000/svg">
<path d="M1.00012 2.1001C0.779203 2.1001 0.600117 2.27918 0.600117 2.5001C0.600117 2.72101 0.779203 2.9001 1.00012 2.9001H1.10012V4.1001H1.00012C0.779203 4.1001 0.600117 4.27918 0.600117 4.5001C0.600117 4.72101 0.779203 4.9001 1.00012 4.9001H2.00012C2.22103 4.9001 2.40012 4.72101 2.40012 4.5001C2.40012 4.27918 2.22103 4.1001 2.00012 4.1001H1.90012V2.1001H1.00012Z" fill="#0E1011"/>
<path d="M4.50012 3.1001C4.2792 3.1001 4.10012 3.27918 4.10012 3.5001C4.10012 3.72101 4.2792 3.9001 4.50012 3.9001H13.5001C13.721 3.9001 13.9001 3.72101 13.9001 3.5001C13.9001 3.27918 13.721 3.1001 13.5001 3.1001H4.50012Z" fill="#0E1011"/>
<path d="M4.50012 7.6001C4.2792 7.6001 4.10012 7.77918 4.10012 8.0001C4.10012 8.22101 4.2792 8.4001 4.50012 8.4001H15.5001C15.721 8.4001 15.9001 8.22101 15.9001 8.0001C15.9001 7.77918 15.721 7.6001 15.5001 7.6001H4.50012Z" fill="#0E1011"/>
<path d="M4.50012 12.1001C4.2792 12.1001 4.10012 12.2792 4.10012 12.5001C4.10012 12.721 4.2792 12.9001 4.50012 12.9001H10.5001C10.721 12.9001 10.9001 12.721 10.9001 12.5001C10.9001 12.2792 10.721 12.1001 10.5001 12.1001H4.50012Z" fill="#0E1011"/>
<path d="M0.500117 6.6001C0.279203 6.6001 0.100117 6.77918 0.100117 7.0001C0.100117 7.22101 0.279203 7.4001 0.500117 7.4001H1.75215L0.2398 8.69639C0.112708 8.80533 0.0668873 8.98188 0.124963 9.13888C0.183038 9.29587 0.332726 9.4001 0.500117 9.4001H2.50012C2.72103 9.4001 2.90012 9.22101 2.90012 9.0001C2.90012 8.77918 2.72103 8.6001 2.50012 8.6001H1.58142L2.44059 7.86366C2.57358 7.74968 2.65012 7.58327 2.65012 7.40811V7.2001C2.65012 6.86873 2.38149 6.6001 2.05012 6.6001H0.500117Z" fill="#0E1011"/>
<path d="M0.100117 11.5001C0.100117 11.2792 0.279203 11.1001 0.500117 11.1001H2.30012C2.63149 11.1001 2.90012 11.3687 2.90012 11.7001V11.8765C2.90012 12.1038 2.77172 12.3115 2.56844 12.4131L2.39454 12.5001L2.56844 12.587C2.77172 12.6887 2.90012 12.8964 2.90012 13.1237V13.3001C2.90012 13.6315 2.63149 13.9001 2.30012 13.9001H0.500117C0.279203 13.9001 0.100117 13.721 0.100117 13.5001C0.100117 13.2792 0.279203 13.1001 0.500117 13.1001H1.80569L1.32123 12.8579C1.18572 12.7901 1.10012 12.6516 1.10012 12.5001C1.10012 12.3486 1.18572 12.2101 1.32123 12.1423L1.80569 11.9001H0.500117C0.279203 11.9001 0.100117 11.721 0.100117 11.5001Z" fill="#0E1011"/>
</svg>
