<svg viewBox="0 0 12 12" fill="none" xmlns="http://www.w3.org/2000/svg">
<path fill-rule="evenodd" clip-rule="evenodd" d="M12 6C12 9.31371 9.31371 12 6 12C2.68629 12 0 9.31371 0 6C0 2.68629 2.68629 0 6 0C9.31371 0 12 2.68629 12 6ZM6.375 3.75C6.375 3.54289 6.20711 3.375 6 3.375C5.79289 3.375 5.625 3.54289 5.625 3.75V7.34467L4.01516 5.73484C3.86872 5.58839 3.63128 5.58839 3.48484 5.73484C3.33839 5.88128 3.33839 6.11872 3.48484 6.26517L5.73484 8.51517C5.88128 8.66161 6.11872 8.66161 6.26517 8.51517L8.51517 6.26517C8.66161 6.11872 8.66161 5.88128 8.51517 5.73484C8.36872 5.58839 8.13128 5.58839 7.98483 5.73484L6.375 7.34467V3.75Z" fill="#0E1011"/>
</svg>
