<svg viewBox="0 0 12 12" fill="none" xmlns="http://www.w3.org/2000/svg">
<path d="M6.28125 0.5625C6.28125 0.40717 6.15533 0.28125 6 0.28125C5.84467 0.28125 5.71875 0.40717 5.71875 0.5625V2.625C5.71875 2.78033 5.84467 2.90625 6 2.90625C6.15533 2.90625 6.28125 2.78033 6.28125 2.625V0.5625Z" fill="#0E1011"/>
<path d="M10.0438 2.35398C10.1536 2.24414 10.1536 2.06607 10.0438 1.95623C9.93393 1.8464 9.75585 1.8464 9.64602 1.95623L8.18761 3.41464C8.07778 3.52447 8.07778 3.70255 8.18761 3.81239C8.29745 3.92222 8.47552 3.92222 8.58536 3.81239L10.0438 2.35398Z" fill="#0E1011"/>
<path d="M2.35398 1.95623C2.24415 1.8464 2.06607 1.8464 1.95623 1.95623C1.8464 2.06607 1.8464 2.24415 1.95623 2.35398L3.41464 3.81239C3.52448 3.92222 3.70255 3.92222 3.81239 3.81239C3.92222 3.70255 3.92222 3.52448 3.81239 3.41464L2.35398 1.95623Z" fill="#0E1011"/>
<path d="M0.5625 5.71875C0.40717 5.71875 0.28125 5.84467 0.28125 6C0.28125 6.15533 0.40717 6.28125 0.5625 6.28125H2.625C2.78033 6.28125 2.90625 6.15533 2.90625 6C2.90625 5.84467 2.78033 5.71875 2.625 5.71875H0.5625Z" fill="#0E1011"/>
<path d="M9.375 5.71875C9.21967 5.71875 9.09375 5.84467 9.09375 6C9.09375 6.15533 9.21967 6.28125 9.375 6.28125H11.4375C11.5928 6.28125 11.7188 6.15533 11.7188 6C11.7188 5.84467 11.5928 5.71875 11.4375 5.71875H9.375Z" fill="#0E1011"/>
<path d="M3.81239 8.58536C3.92222 8.47552 3.92222 8.29745 3.81239 8.18761C3.70255 8.07778 3.52448 8.07778 3.41464 8.18761L1.95623 9.64602C1.8464 9.75585 1.8464 9.93393 1.95623 10.0438C2.06607 10.1536 2.24414 10.1536 2.35398 10.0438L3.81239 8.58536Z" fill="#0E1011"/>
<path d="M8.58536 8.18761C8.47552 8.07778 8.29745 8.07778 8.18761 8.18761C8.07778 8.29745 8.07778 8.47552 8.18761 8.58536L9.64602 10.0438C9.75585 10.1536 9.93393 10.1536 10.0438 10.0438C10.1536 9.93393 10.1536 9.75585 10.0438 9.64602L8.58536 8.18761Z" fill="#0E1011"/>
<path d="M6.28125 9.375C6.28125 9.21967 6.15533 9.09375 6 9.09375C5.84467 9.09375 5.71875 9.21967 5.71875 9.375V11.4375C5.71875 11.5928 5.84467 11.7188 6 11.7188C6.15533 11.7188 6.28125 11.5928 6.28125 11.4375V9.375Z" fill="#0E1011"/>
<path d="M6 3.75C4.75736 3.75 3.75 4.75736 3.75 6C3.75 7.24264 4.75736 8.25 6 8.25C7.24264 8.25 8.25 7.24264 8.25 6C8.25 4.75736 7.24264 3.75 6 3.75Z" fill="#0E1011"/>
</svg>
