<svg viewBox="0 0 16 16" fill="none" xmlns="http://www.w3.org/2000/svg">
<path fill-rule="evenodd" clip-rule="evenodd" d="M14.8535 1.14646C15.0017 1.29459 15.0418 1.51934 14.954 1.70954L8.95397 14.7095C8.86201 14.9088 8.65087 15.0248 8.43338 14.9956C8.21588 14.9663 8.04287 14.7987 8.00679 14.5822L7.06551 8.9345L1.41779 7.99321C1.20133 7.95713 1.03369 7.78412 1.00445 7.56663C0.975211 7.34914 1.09121 7.138 1.29046 7.04603L14.2905 1.04603C14.4807 0.95825 14.7054 0.998336 14.8535 1.14646ZM3.18349 7.2737L7.58219 8.00682C7.79293 8.04194 7.95807 8.20708 7.99319 8.41781L8.72631 12.8165L13.4773 2.52272L3.18349 7.2737Z" fill="#0E1011"/>
</svg>
