<svg viewBox="0 0 12 12" fill="none" xmlns="http://www.w3.org/2000/svg">
<path fill-rule="evenodd" clip-rule="evenodd" d="M11.4186 1.05525C11.4503 0.95947 11.4413 0.857951 11.3989 0.771801C11.381 0.735373 11.3571 0.701693 11.3277 0.672356C11.2981 0.642755 11.2641 0.618686 11.2273 0.600705C11.1413 0.558621 11.04 0.549882 10.9444 0.58161C10.9403 0.582962 10.9363 0.584386 10.9322 0.58588L0.621847 4.33513C0.475698 4.38828 0.377515 4.52611 0.375048 4.68161C0.37258 4.8371 0.46634 4.97798 0.610729 5.03574L5.14901 6.85105L6.96432 11.3893C7.02208 11.5337 7.16296 11.6275 7.31845 11.625C7.47394 11.6225 7.61178 11.5244 7.66492 11.3782L11.4141 1.06799C11.4157 1.06377 11.4172 1.05952 11.4186 1.05525ZM5.87751 6.65287L7.29582 10.1986L10.1324 2.39797L5.87751 6.65287ZM5.34718 6.12254L9.60209 1.86762L1.80143 4.70424L5.34718 6.12254Z" fill="#0E1011"/>
</svg>
