<svg viewBox="0 0 12 12" fill="none" xmlns="http://www.w3.org/2000/svg">
<path fill-rule="evenodd" clip-rule="evenodd" d="M7 4L5 2L7 0V1.625H8C9.03553 1.625 9.875 2.46447 9.875 3.5V8.1291C10.8523 8.19342 11.625 9.00647 11.625 10C11.625 11.0355 10.7855 11.875 9.75 11.875H9.25C8.21447 11.875 7.375 11.0355 7.375 10C7.375 9.00647 8.14775 8.19342 9.125 8.1291V3.5C9.125 2.87868 8.62132 2.375 8 2.375H7V4ZM9.25 8.875C8.62868 8.875 8.125 9.37868 8.125 10C8.125 10.6213 8.62868 11.125 9.25 11.125H9.75C10.3713 11.125 10.875 10.6213 10.875 10C10.875 9.37868 10.3713 8.875 9.75 8.875H9.25Z" fill="#0E1011"/>
<path fill-rule="evenodd" clip-rule="evenodd" d="M2.25 0.125C1.21447 0.125 0.375 0.964466 0.375 2C0.375 2.99353 1.14775 3.80658 2.125 3.8709V9.17676C1.54787 9.33999 1.125 9.87061 1.125 10.5C1.125 11.2594 1.74061 11.875 2.5 11.875C3.25939 11.875 3.875 11.2594 3.875 10.5C3.875 9.87061 3.45213 9.33999 2.875 9.17676V3.8709C3.85225 3.80658 4.625 2.99353 4.625 2C4.625 0.964466 3.78553 0.125 2.75 0.125H2.25ZM1.875 10.5C1.875 10.1548 2.15482 9.875 2.5 9.875C2.84518 9.875 3.125 10.1548 3.125 10.5C3.125 10.8452 2.84518 11.125 2.5 11.125C2.15482 11.125 1.875 10.8452 1.875 10.5ZM2.75 3.125C3.37132 3.125 3.875 2.62132 3.875 2C3.875 1.37868 3.37132 0.875 2.75 0.875H2.25C1.62868 0.875 1.125 1.37868 1.125 2C1.125 2.62132 1.62868 3.125 2.25 3.125H2.75Z" fill="#0E1011"/>
</svg>
