<svg viewBox="0 0 16 16" fill="none" xmlns="http://www.w3.org/2000/svg">
<path d="M12.3536 5.14654C12.5488 5.3418 12.5488 5.65838 12.3536 5.85364L7.35355 10.8536C7.15829 11.0489 6.84171 11.0489 6.64645 10.8536L4.14645 8.35364C3.95118 8.15838 3.95118 7.8418 4.14645 7.64654C4.34171 7.45128 4.65829 7.45128 4.85355 7.64654L7 9.79298L11.6464 5.14654C11.8417 4.95128 12.1583 4.95128 12.3536 5.14654Z" fill="#0E1011"/>
<path fill-rule="evenodd" clip-rule="evenodd" d="M1 3.5C1 2.11929 2.11929 1 3.5 1H12.5C13.8807 1 15 2.11929 15 3.5V12.5C15 13.8807 13.8807 15 12.5 15H3.5C2.11929 15 1 13.8807 1 12.5V3.5ZM3.5 2H12.5C13.3284 2 14 2.67157 14 3.5V12.5C14 13.3284 13.3284 14 12.5 14H3.5C2.67157 14 2 13.3284 2 12.5V3.5C2 2.67157 2.67157 2 3.5 2Z" fill="#0E1011"/>
</svg>
