<svg viewBox="0 0 16 16" fill="none" xmlns="http://www.w3.org/2000/svg">
<path fill-rule="evenodd" clip-rule="evenodd" d="M15.2943 8.00004C15.2943 3.96865 12.0262 0.700562 7.99479 0.700562C3.9634 0.700562 0.695312 3.96865 0.695312 8.00004C0.695312 12.0314 3.9634 15.2995 7.99479 15.2995C12.0262 15.2995 15.2943 12.0314 15.2943 8.00004ZM5.25 7.99996C5.25 8.69032 4.69036 9.24996 4 9.24996C3.30964 9.24996 2.75 8.69032 2.75 7.99996C2.75 7.30961 3.30964 6.74996 4 6.74996C4.69036 6.74996 5.25 7.30961 5.25 7.99996ZM8 9.24996C8.69036 9.24996 9.25 8.69032 9.25 7.99996C9.25 7.30961 8.69036 6.74996 8 6.74996C7.30964 6.74996 6.75 7.30961 6.75 7.99996C6.75 8.69032 7.30964 9.24996 8 9.24996ZM13.25 7.99996C13.25 8.69032 12.6904 9.24996 12 9.24996C11.3096 9.24996 10.75 8.69032 10.75 7.99996C10.75 7.30961 11.3096 6.74996 12 6.74996C12.6904 6.74996 13.25 7.30961 13.25 7.99996Z" fill="#0E1011"/>
</svg>
