<svg viewBox="0 0 16 16" fill="none" xmlns="http://www.w3.org/2000/svg">
<path fill-rule="evenodd" clip-rule="evenodd" d="M12.4393 0.853402C13.0251 0.267616 13.9749 0.267616 14.5607 0.853402L15.1464 1.43919C15.7322 2.02498 15.7322 2.97472 15.1464 3.56051L3.85355 14.8534C3.75979 14.9472 3.63261 14.9998 3.5 14.9998H1.5C1.22386 14.9998 1 14.776 1 14.4998V12.4998C1 12.3672 1.05268 12.2401 1.14645 12.1463L12.4393 0.853402ZM13.8536 1.56051C13.6583 1.36525 13.3417 1.36525 13.1464 1.56051L11.2071 3.49985L12.5 4.79274L14.4393 2.8534C14.6346 2.65814 14.6346 2.34156 14.4393 2.1463L13.8536 1.56051ZM11.7929 5.49985L10.5 4.20696L2 12.707V13.9998H3.29289L11.7929 5.49985Z" fill="#0E1011"/>
</svg>
