<svg viewBox="0 0 16 16" fill="none" xmlns="http://www.w3.org/2000/svg">
<path fill-rule="evenodd" clip-rule="evenodd" d="M15.2943 8.00004C15.2943 12.0314 12.0262 15.2995 7.99479 15.2995C3.9634 15.2995 0.695312 12.0314 0.695312 8.00004C0.695312 3.96865 3.9634 0.700562 7.99479 0.700562C12.0262 0.700562 15.2943 3.96865 15.2943 8.00004ZM14.2943 8.00004C14.2943 11.4791 11.4739 14.2995 7.99479 14.2995C7.45252 14.2995 6.92625 14.231 6.42417 14.1022C6.519 13.8896 6.6017 13.6699 6.66226 13.4502C6.75314 13.1201 7.18413 11.4108 7.18413 11.4108C7.44189 11.9025 8.19534 12.3356 8.99659 12.3356C11.3817 12.3356 13 10.1612 13 7.25055C13 5.04972 11.1359 3 8.30264 3C4.77742 3 3 5.52741 3 7.63505C3 8.9112 3.48315 10.0465 4.51941 10.4695C4.68933 10.5391 4.84155 10.4719 4.89083 10.2838C4.90744 10.2207 4.93505 10.111 4.96321 9.99921C4.99315 9.88027 5.02372 9.75887 5.04237 9.68832C5.09216 9.50223 5.0728 9.43698 4.93566 9.2748C4.63687 8.92233 4.44591 8.46604 4.44591 7.81974C4.44591 5.94466 5.84881 4.26602 8.09902 4.26602C10.0916 4.26602 11.1862 5.4835 11.1862 7.10946C11.1862 9.24884 10.2395 11.0545 8.8339 11.0545C8.05773 11.0545 7.47667 10.4125 7.66291 9.62519C7.74356 9.28525 7.85154 8.93556 7.95654 8.59555C8.14186 7.99544 8.31787 7.42546 8.31787 6.99238C8.31787 6.38504 7.99188 5.87846 7.31723 5.87846C6.52373 5.87846 5.88631 6.69933 5.88631 7.79897C5.88631 8.49935 6.12297 8.97303 6.12297 8.97303L5.16862 13.0162C5.12511 13.2003 5.09395 13.3909 5.07245 13.5821C3.06484 12.5289 1.69531 10.4244 1.69531 8.00004C1.69531 4.52094 4.51569 1.70056 7.99479 1.70056C11.4739 1.70056 14.2943 4.52094 14.2943 8.00004Z" fill="#0E1011"/>
</svg>
