<svg viewBox="0 0 16 16" fill="none" xmlns="http://www.w3.org/2000/svg">
<path d="M8.375 5C8.375 4.79289 8.20711 4.625 8 4.625C7.79289 4.625 7.625 4.79289 7.625 5V7.625H5C4.79289 7.625 4.625 7.79289 4.625 8C4.625 8.20711 4.79289 8.375 5 8.375H7.625V11C7.625 11.2071 7.79289 11.375 8 11.375C8.20711 11.375 8.375 11.2071 8.375 11V8.375H11C11.2071 8.375 11.375 8.20711 11.375 8C11.375 7.79289 11.2071 7.625 11 7.625H8.375V5Z" fill="#0E1011"/>
<path fill-rule="evenodd" clip-rule="evenodd" d="M3.5 1C2.11929 1 1 2.11929 1 3.5V12.5C1 13.8807 2.11929 15 3.5 15H12.5C13.8807 15 15 13.8807 15 12.5V3.5C15 2.11929 13.8807 1 12.5 1H3.5ZM2 3.5C2 2.67157 2.67157 2 3.5 2H12.5C13.3284 2 14 2.67157 14 3.5V12.5C14 13.3284 13.3284 14 12.5 14H3.5C2.67157 14 2 13.3284 2 12.5V3.5Z" fill="#0E1011"/>
</svg>
