<svg viewBox="0 0 12 12" fill="none" xmlns="http://www.w3.org/2000/svg">
<path fill-rule="evenodd" clip-rule="evenodd" d="M1.20002 1.15002C0.620126 1.15002 0.150024 1.62013 0.150024 2.20002V9.80002C0.150024 10.3799 0.620126 10.85 1.20002 10.85H10.8C11.3799 10.85 11.85 10.3799 11.85 9.80002V3.20002C11.85 2.62013 11.3799 2.15002 10.8 2.15002H5.645L4.645 1.15002H1.20002ZM5.24749 3.24749C5.38417 3.1108 5.38417 2.8892 5.24749 2.75251C5.1108 2.61583 4.8892 2.61583 4.75251 2.75251L4.35503 3.15H1.5C1.3067 3.15 1.15 3.3067 1.15 3.5C1.15 3.6933 1.3067 3.85 1.5 3.85H4.64497L5.24749 3.24749Z" fill="#0E1011"/>
</svg>
