<svg viewBox="0 0 12 12" fill="none" xmlns="http://www.w3.org/2000/svg">
<path fill-rule="evenodd" clip-rule="evenodd" d="M6 0C2.68629 0 0 2.68629 0 6C0 9.31371 2.68629 12 6 12C9.31371 12 12 9.31371 12 6C12 2.68629 9.31371 0 6 0ZM5.08301 3.43798C4.96794 3.36127 4.81999 3.35412 4.69805 3.41937C4.57612 3.48463 4.5 3.6117 4.5 3.75V8.25C4.5 8.3883 4.57612 8.51537 4.69805 8.58063C4.81999 8.64589 4.96794 8.63873 5.08301 8.56202L8.45801 6.31202C8.56234 6.24247 8.625 6.12538 8.625 6C8.625 5.87462 8.56234 5.75753 8.45801 5.68798L5.08301 3.43798Z" fill="#0E1011"/>
</svg>
