<svg viewBox="0 0 12 12" fill="none" xmlns="http://www.w3.org/2000/svg">
<path d="M2 2H2.75V2.75H2V2Z" fill="#0E1011"/>
<path d="M4 2H4.75V2.75H4V2Z" fill="#0E1011"/>
<path fill-rule="evenodd" clip-rule="evenodd" d="M10.5 1C11.3284 1 12 1.67157 12 2.5V3.5C12 4.32843 11.3284 5 10.5 5L1.5 5C0.671573 5 2.26057e-07 4.32843 2.62268e-07 3.5L3.05979e-07 2.5C3.42191e-07 1.67157 0.671573 1 1.5 1L10.5 1ZM11.25 2.5V3.5C11.25 3.91421 10.9142 4.25 10.5 4.25L1.5 4.25C1.08579 4.25 0.75 3.91421 0.75 3.5L0.75 2.5C0.75 2.08579 1.08579 1.75 1.5 1.75L10.5 1.75C10.9142 1.75 11.25 2.08579 11.25 2.5Z" fill="#0E1011"/>
<path d="M2.75 8H2V8.75H2.75V8Z" fill="#0E1011"/>
<path d="M4.75 8H4V8.75H4.75V8Z" fill="#0E1011"/>
<path fill-rule="evenodd" clip-rule="evenodd" d="M10.5 7C11.3284 7 12 7.67157 12 8.5V9.5C12 10.3284 11.3284 11 10.5 11H1.5C0.671573 11 -3.62117e-08 10.3284 0 9.5L4.37112e-08 8.5C7.99229e-08 7.67157 0.671573 7 1.5 7L10.5 7ZM11.25 8.5V9.5C11.25 9.91421 10.9142 10.25 10.5 10.25H1.5C1.08579 10.25 0.75 9.91421 0.75 9.5L0.75 8.5C0.75 8.08579 1.08579 7.75 1.5 7.75L10.5 7.75C10.9142 7.75 11.25 8.08579 11.25 8.5Z" fill="#0E1011"/>
</svg>
