<svg viewBox="0 0 12 12" fill="none" xmlns="http://www.w3.org/2000/svg">
<path d="M4.5 0C4.08579 0 3.75 0.335786 3.75 0.75V1.125C3.75 1.53921 4.08579 1.875 4.5 1.875H7.5C7.91421 1.875 8.25 1.53921 8.25 1.125V0.75C8.25 0.335786 7.91421 0 7.5 0H4.5Z" fill="#0E1011"/>
<path d="M1.5 2.25C1.5 1.42157 2.17157 0.75 3 0.75V1.125C3 1.95343 3.67157 2.625 4.5 2.625H7.5C8.32843 2.625 9 1.95343 9 1.125V0.75C9.82843 0.75 10.5 1.42157 10.5 2.25V10.5C10.5 11.3284 9.82843 12 9 12H3C2.17157 12 1.5 11.3284 1.5 10.5V2.25Z" fill="#0E1011"/>
</svg>
