<svg viewBox="0 0 16 16" fill="none" xmlns="http://www.w3.org/2000/svg">
<path fill-rule="evenodd" clip-rule="evenodd" d="M8.16669 1C8.37617 1 8.56344 1.13058 8.63586 1.32715L13.3025 13.9938C13.3752 14.191 13.3168 14.4126 13.1564 14.5483C12.9959 14.6841 12.7678 14.7051 12.5853 14.6008L8.16669 12.0759L3.74809 14.6008C3.56563 14.7051 3.33745 14.6841 3.17703 14.5483C3.01661 14.4126 2.9582 14.191 3.03085 13.9938L7.69752 1.32715C7.76994 1.13058 7.95721 1 8.16669 1ZM4.44371 13.0515L7.91862 11.0659C8.07234 10.978 8.26104 10.978 8.41476 11.0659L11.8897 13.0515L8.16669 2.94632L4.44371 13.0515Z" fill="#0E1011"/>
<path d="M7.91862 11.0659L4.44371 13.0515L8.16669 2.94632L11.8897 13.0515L8.41476 11.0659C8.26104 10.978 8.07234 10.978 7.91862 11.0659Z" fill="#0E1011"/>
</svg>
