<svg viewBox="0 0 16 16" fill="none" xmlns="http://www.w3.org/2000/svg">
<path fill-rule="evenodd" clip-rule="evenodd" d="M2.55279 0.276381C2.67628 0.0293914 2.97662 -0.0707208 3.22361 0.0527739L4.15103 0.516487C4.24717 0.564555 4.33493 0.627807 4.41093 0.703808L4.85437 1.14725C5.22058 1.05109 5.60464 0.999987 6 0.999987H10C10.3954 0.999987 10.7794 1.05109 11.1456 1.14725L11.5891 0.703808C11.6651 0.627806 11.7528 0.564555 11.849 0.516487L12.7764 0.0527739C13.0234 -0.0707207 13.3237 0.0293913 13.4472 0.27638L13.6163 0.61464C13.8832 1.14842 13.9504 1.76005 13.8056 2.33901L13.6674 2.89179C14.1915 3.62755 14.5 4.52832 14.5 5.49999V6.49999C14.5 9.08001 12.7238 11.2447 10.3273 11.8387C10.4409 12.115 10.5 12.4124 10.5 12.7071V15.5C10.5 15.7761 10.2761 16 10 16C9.72386 16 9.5 15.7761 9.5 15.5V12.7071C9.5 12.3794 9.3676 12.05 9.14645 11.8289C9.00979 11.6922 8.96413 11.489 9.02916 11.307C9.0942 11.1251 9.25829 10.9968 9.4506 10.9777C11.7241 10.752 13.5 8.83309 13.5 6.49999V5.49999C13.5 4.67268 13.2136 3.91364 12.7341 3.31465C12.6366 3.19279 12.6015 3.03236 12.6394 2.88092L12.8355 2.09648C12.9124 1.78867 12.8896 1.46547 12.772 1.17302L12.2962 1.41091L11.6416 2.06546C11.507 2.20013 11.3075 2.2466 11.1272 2.1853C10.7741 2.06529 10.3952 1.99999 10 1.99999H6C5.6048 1.99999 5.22588 2.06529 4.87284 2.1853C4.69252 2.2466 4.49304 2.20013 4.35837 2.06546L3.70382 1.41091L3.22804 1.17302C3.11042 1.46547 3.08756 1.78867 3.16451 2.09648L3.36062 2.88092C3.39848 3.03236 3.36344 3.19279 3.26589 3.31465C2.78641 3.91364 2.5 4.67268 2.5 5.49999V6.49999C2.5 8.70047 4.07992 10.533 6.16743 10.9232C6.3498 10.9573 6.4983 11.0896 6.55318 11.2668C6.60806 11.444 6.5603 11.6371 6.42911 11.7683C6.34005 11.8573 6.25786 11.9938 6.21248 12.1462C6.16662 12.3002 6.17006 12.429 6.19795 12.5127L6.37036 13.0299C6.45622 13.2875 6.5 13.5573 6.5 13.8288V15.5C6.5 15.7761 6.27614 16 6 16C5.72386 16 5.5 15.7761 5.5 15.5V14H5C4.04056 14 3.40717 13.3653 2.93991 12.8971C2.92526 12.8824 2.91078 12.8679 2.89645 12.8535C2.36778 12.3249 2.01048 12 1.5 12H1C0.723858 12 0.5 11.7761 0.5 11.5C0.5 11.2238 0.723858 11 1 11H1.5C2.45944 11 3.09283 11.6347 3.56009 12.1029C3.57474 12.1176 3.58922 12.1321 3.60355 12.1464C4.13222 12.6751 4.48952 13 5 13H5.30629L5.24927 12.8289C5.14011 12.5015 5.16631 12.1555 5.25408 11.8608C5.26702 11.8173 5.28155 11.7741 5.29761 11.7313C3.09329 11.0144 1.5 8.94369 1.5 6.49999V5.49999C1.5 4.52832 1.80849 3.62755 2.33256 2.89179L2.19437 2.33901C2.04963 1.76005 2.11677 1.14842 2.38366 0.614641L2.55279 0.276381Z" fill="#0E1011"/>
</svg>
