<svg viewBox="0 0 16 16" fill="none" xmlns="http://www.w3.org/2000/svg">
<path d="M6.625 8.5V7.875H9.375V8.5C9.375 8.84518 9.09518 9.125 8.75 9.125H7.25C6.90482 9.125 6.625 8.84518 6.625 8.5Z" fill="#0E1011"/>
<path fill-rule="evenodd" clip-rule="evenodd" d="M6 1C5.44772 1 5 1.44772 5 2V3H1.25C0.559644 3 0 3.55964 0 4.25V12.75C0 13.4404 0.559644 14 1.25 14H14.75C15.4404 14 16 13.4404 16 12.75V4.25C16 3.55964 15.4404 3 14.75 3H11V2C11 1.44772 10.5523 1 10 1H6ZM10 3H6V2H10V3ZM1.5 7.125C1.29289 7.125 1.125 7.29289 1.125 7.5C1.125 7.70711 1.29289 7.875 1.5 7.875H5.875V8.5C5.875 9.25939 6.49061 9.875 7.25 9.875H8.75C9.50939 9.875 10.125 9.25939 10.125 8.5V7.875H14.5C14.7071 7.875 14.875 7.70711 14.875 7.5C14.875 7.29289 14.7071 7.125 14.5 7.125H1.5Z" fill="#0E1011"/>
</svg>
