<svg viewBox="0 0 12 12" fill="none" xmlns="http://www.w3.org/2000/svg">
<path fill-rule="evenodd" clip-rule="evenodd" d="M11.833 1.56298C11.9373 1.63253 12 1.74962 12 1.875V10.125C12 10.2568 11.9308 10.3789 11.8178 10.4467C11.7048 10.5144 11.5646 10.5178 11.4485 10.4559L11.4464 10.4547L11.4367 10.4497C11.4277 10.445 11.4136 10.4378 11.3948 10.4285C11.3572 10.4097 11.3008 10.3823 11.2284 10.3491C11.1148 10.2972 10.9624 10.2313 10.7812 10.1624V10.875C10.7812 10.9605 10.7423 11.0414 10.6755 11.0948C10.6086 11.1482 10.5211 11.1682 10.4377 11.1493L6.55095 10.2659C6.49275 10.2904 6.44026 10.3133 6.39418 10.334C6.32168 10.3666 6.26531 10.3934 6.22772 10.4118C6.20894 10.421 6.19487 10.4281 6.18585 10.4327L6.17617 10.4376L6.17433 10.4386C6.06528 10.4958 5.93499 10.4959 5.82593 10.4387L5.82383 10.4376L5.81415 10.4327C5.80513 10.4281 5.79106 10.421 5.77228 10.4118C5.73469 10.3934 5.67832 10.3666 5.60582 10.334C5.55974 10.3133 5.50726 10.2904 5.44905 10.2659L1.56233 11.1493C1.47891 11.1682 1.3914 11.1482 1.32454 11.0948C1.25768 11.0414 1.21875 10.9605 1.21875 10.875V10.1624C1.03762 10.2313 0.885191 10.2972 0.771638 10.3491C0.699151 10.3823 0.642778 10.4097 0.605194 10.4285C0.58641 10.4378 0.572342 10.445 0.563325 10.4497L0.553638 10.4547L0.551796 10.4557C0.435596 10.5178 0.295225 10.5144 0.182222 10.4467C0.0691805 10.3789 0 10.2568 0 10.125V1.875C0 1.74962 0.0626629 1.63253 0.166987 1.56298L0.168041 1.56228L0.169513 1.56131L0.173705 1.55856L0.187043 1.55C0.198119 1.54297 0.213548 1.53335 0.233192 1.52152C0.27247 1.49787 0.328667 1.46534 0.400678 1.42693C0.544598 1.35017 0.75232 1.24961 1.01494 1.14957C1.53957 0.949708 2.28836 0.75 3.1875 0.75C4.11517 0.75 4.88253 1.059 5.41261 1.36191C5.65933 1.50289 5.85747 1.64412 6 1.75595C6.14253 1.64412 6.34067 1.50289 6.58739 1.36191C7.11747 1.059 7.88483 0.75 8.8125 0.75C9.71164 0.75 10.4604 0.949708 10.9851 1.14957C11.2477 1.24961 11.4554 1.35017 11.5993 1.42693C11.6713 1.46534 11.7275 1.49787 11.7668 1.52152C11.7865 1.53335 11.8019 1.54297 11.813 1.55L11.8263 1.55856L11.8305 1.56131L11.832 1.56228L11.833 1.56298ZM7.57085 9.92086L10.2188 10.5227V9.97338C9.7894 9.84852 9.29766 9.75087 8.81183 9.75C8.38742 9.74924 7.95861 9.8214 7.57085 9.92086ZM3.18817 9.75C3.61258 9.74924 4.04139 9.8214 4.42915 9.92086L1.78125 10.5227V9.97338C2.2106 9.84852 2.70234 9.75087 3.18817 9.75ZM6.375 2.625C6.375 2.26256 6.20711 1.96875 6 1.96875C5.79289 1.96875 5.625 2.26256 5.625 2.625V9C5.625 9.36244 5.79289 9.65625 6 9.65625C6.20711 9.65625 6.375 9.36244 6.375 9V2.625Z" fill="#0E1011"/>
</svg>
