<svg viewBox="0 0 12 12" fill="none" xmlns="http://www.w3.org/2000/svg">
<path d="M7.5 0.625C7.5 0.417893 7.66789 0.25 7.875 0.25C8.08211 0.25 8.25 0.417893 8.25 0.625V2.125C8.25 2.33211 8.08211 2.5 7.875 2.5C7.66789 2.5 7.5 2.33211 7.5 2.125V0.625Z" fill="#0E1011"/>
<path d="M3.75 0.625C3.75 0.417893 3.91789 0.25 4.125 0.25C4.33211 0.25 4.5 0.417893 4.5 0.625V2.125C4.5 2.33211 4.33211 2.5 4.125 2.5C3.91789 2.5 3.75 2.33211 3.75 2.125V0.625Z" fill="#0E1011"/>
<path d="M11.25 2.6875C11.25 2.16973 10.8303 1.75 10.3125 1.75H9.375C9.16789 1.75 9 1.58211 9 1.375C9 1.16789 9.16789 1 9.375 1H10.3125C11.2445 1 12 1.75552 12 2.6875V10.3125C12 11.2445 11.2445 12 10.3125 12H1.6875C0.75552 12 0 11.2445 0 10.3125V2.6875C0 1.75552 0.75552 1 1.6875 1H2.625C2.83211 1 3 1.16789 3 1.375C3 1.58211 2.83211 1.75 2.625 1.75H1.6875C1.16973 1.75 0.75 2.16973 0.75 2.6875V10.3125C0.75 10.8303 1.16973 11.25 1.6875 11.25H10.3125C10.8303 11.25 11.25 10.8303 11.25 10.3125V2.6875Z" fill="#0E1011"/>
<path d="M6.75 1.75H5.25V1H6.75V1.75Z" fill="#0E1011"/>
<path d="M10.125 4C10.2803 4 10.4062 4.12592 10.4062 4.28125C10.4062 4.43658 10.2803 4.5625 10.125 4.5625H1.875C1.71967 4.5625 1.59375 4.43658 1.59375 4.28125C1.59375 4.12592 1.71967 4 1.875 4H10.125Z" fill="#0E1011"/>
</svg>
