<svg viewBox="0 0 16 16" fill="none" xmlns="http://www.w3.org/2000/svg">
<path d="M0.5 1C0.223858 1 0 1.22386 0 1.5C0 1.77614 0.223858 2 0.5 2H2.10961L4.1362 10.1063C4.41443 11.2193 5.41438 12 6.56155 12H12.8057C14.0278 12 15.0708 11.1165 15.2717 9.911L15.7991 6.7466C15.9515 5.8323 15.2464 5 14.3195 5H3.89039L3.07975 1.75746C2.96846 1.3123 2.56848 1 2.10961 1H0.5Z" fill="#0E1011"/>
<path fill-rule="evenodd" clip-rule="evenodd" d="M6.5 13C5.67157 13 5 13.6716 5 14.5C5 15.3284 5.67157 16 6.5 16C7.32843 16 8 15.3284 8 14.5C8 13.6716 7.32843 13 6.5 13ZM6 14.5C6 14.2239 6.22386 14 6.5 14C6.77614 14 7 14.2239 7 14.5C7 14.7761 6.77614 15 6.5 15C6.22386 15 6 14.7761 6 14.5Z" fill="#0E1011"/>
<path fill-rule="evenodd" clip-rule="evenodd" d="M12.5 13C11.6716 13 11 13.6716 11 14.5C11 15.3284 11.6716 16 12.5 16C13.3284 16 14 15.3284 14 14.5C14 13.6716 13.3284 13 12.5 13ZM12 14.5C12 14.2239 12.2239 14 12.5 14C12.7761 14 13 14.2239 13 14.5C13 14.7761 12.7761 15 12.5 15C12.2239 15 12 14.7761 12 14.5Z" fill="#0E1011"/>
</svg>
