<svg viewBox="0 0 12 12" fill="none" xmlns="http://www.w3.org/2000/svg">
<path d="M3.64017 3.10983C3.49372 2.96339 3.25628 2.96339 3.10983 3.10983C2.96339 3.25628 2.96339 3.49372 3.10983 3.64017L5.73484 6.26516C5.88128 6.41161 6.11872 6.41161 6.26516 6.26516L8.89016 3.64017C9.03661 3.49372 9.03661 3.25628 8.89016 3.10983C8.74372 2.96339 8.50628 2.96339 8.35984 3.10983L6 5.46967L3.64017 3.10983Z" fill="#0E1011"/>
<path d="M3.64017 6.10984C3.49372 5.96339 3.25628 5.96339 3.10983 6.10984C2.96339 6.25628 2.96339 6.49372 3.10983 6.64016L5.73484 9.26517C5.88128 9.41161 6.11872 9.41161 6.26516 9.26517L8.89016 6.64016C9.03661 6.49372 9.03661 6.25628 8.89016 6.10984C8.74372 5.96339 8.50628 5.96339 8.35984 6.10984L6 8.46967L3.64017 6.10984Z" fill="#0E1011"/>
</svg>
