<svg viewBox="0 0 16 16" fill="none" xmlns="http://www.w3.org/2000/svg">
<path d="M8.35355 4.64653C8.54882 4.84179 8.54882 5.15838 8.35355 5.35364L6.20711 7.50008L11 7.50009C11.2761 7.50009 11.5 7.72394 11.5 8.00009C11.5 8.27623 11.2761 8.50009 11 8.50009L6.20711 8.50008L8.35355 10.6465C8.54881 10.8418 8.54881 11.1584 8.35355 11.3536C8.15829 11.5489 7.84171 11.5489 7.64645 11.3536L4.64645 8.35364C4.55268 8.25987 4.5 8.13269 4.5 8.00008C4.5 7.86748 4.55268 7.7403 4.64645 7.64653L7.64645 4.64653C7.84171 4.45127 8.15829 4.45127 8.35355 4.64653Z" fill="#0E1011"/>
<path fill-rule="evenodd" clip-rule="evenodd" d="M7.99992 0.705811C12.0313 0.705811 15.2994 3.9739 15.2994 8.00529C15.2994 12.0367 12.0313 15.3048 7.99992 15.3048C3.96853 15.3048 0.700439 12.0367 0.700439 8.00529C0.700439 3.9739 3.96853 0.705811 7.99992 0.705811ZM7.99992 1.70581C11.479 1.70581 14.2994 4.52618 14.2994 8.00529C14.2994 11.4844 11.479 14.3048 7.99992 14.3048C4.52081 14.3048 1.70044 11.4844 1.70044 8.00529C1.70044 4.52618 4.52081 1.70581 7.99992 1.70581Z" fill="#0E1011"/>
</svg>
