<svg viewBox="0 0 16 16" fill="none" xmlns="http://www.w3.org/2000/svg">
<path fill-rule="evenodd" clip-rule="evenodd" d="M4 1.5C4 1.22386 3.77614 1 3.5 1C3.22386 1 3 1.22386 3 1.5V3H1.5C1.22386 3 1 3.22386 1 3.5C1 3.77614 1.22386 4 1.5 4H3V10.75C3 11.9926 4.00736 13 5.25 13H12V14.5C12 14.7761 12.2239 15 12.5 15C12.7761 15 13 14.7761 13 14.5V13H14.5C14.7761 13 15 12.7761 15 12.5C15 12.2239 14.7761 12 14.5 12H13V5.25C13 4.00736 11.9926 3 10.75 3H4V1.5ZM4 4V10.75C4 11.4404 4.55964 12 5.25 12H12V5.25C12 4.55964 11.4404 4 10.75 4H4Z" fill="#0E1011"/>
</svg>
