<svg viewBox="0 0 12 12" fill="none" xmlns="http://www.w3.org/2000/svg">
<path d="M11.1723 0.297335C11.3188 0.150888 11.5562 0.150888 11.7027 0.297335C11.8491 0.443782 11.8491 0.681218 11.7027 0.827665L5.4221 7.10823C5.93228 7.57611 6.49893 7.98338 7.11067 8.31865C7.25295 8.39663 7.42888 8.36799 7.54361 8.25326L8.76787 7.029C9.31438 7.24522 9.89586 7.39215 10.5015 7.45897C10.9132 7.50439 11.25 7.83579 11.25 8.25V9.75C11.25 10.5784 10.575 11.2613 9.7549 11.1444C8.39106 10.9499 7.11167 10.4934 5.96937 9.8275C5.29295 9.43316 4.6646 8.96537 4.09525 8.43508L0.827666 11.7027C0.681218 11.8491 0.443782 11.8491 0.297335 11.7027C0.150888 11.5562 0.150888 11.3188 0.297335 11.1723L11.1723 0.297335Z" fill="#0E1011"/>
<path d="M2.24547 6.15385C2.41319 6.43273 2.5935 6.70317 2.78561 6.96439L4.13027 5.61973C3.99723 5.42559 3.87192 5.22573 3.75479 5.0206C3.67317 4.87767 3.70078 4.69855 3.81716 4.58216L5.02792 3.37141C4.78046 2.78478 4.61355 2.15587 4.54103 1.49852C4.49561 1.08681 4.16421 0.75 3.75 0.75H2.25C1.42157 0.75 0.738716 1.42495 0.855631 2.24508C1.05708 3.65819 1.53987 4.98063 2.24547 6.15385Z" fill="#0E1011"/>
</svg>
