<svg viewBox="0 0 12 12" fill="none" xmlns="http://www.w3.org/2000/svg">
<path fill-rule="evenodd" clip-rule="evenodd" d="M6 12C9.31371 12 12 9.31371 12 6C12 2.68629 9.31371 0 6 0C2.68629 0 0 2.68629 0 6C0 9.31371 2.68629 12 6 12ZM11.25 6C11.25 8.8995 8.8995 11.25 6 11.25C5.9899 11.25 5.97981 11.25 5.96972 11.2499L8.19658 7.29658C8.42132 6.91667 8.5503 6.47339 8.5503 6C8.5503 5.29729 8.2661 4.66097 7.80637 4.1997H10.5873C10.7055 4.1997 10.811 4.14497 10.8797 4.05945C11.1186 4.65975 11.25 5.31453 11.25 6ZM10.59 3.44971L10.5873 3.4497H6C4.82291 3.4497 3.83208 4.24714 3.53828 5.33126L2.15236 2.92231C2.09348 2.81997 1.99366 2.75588 1.88546 2.73883C2.84716 1.5271 4.33283 0.75 6 0.75C7.97392 0.75 9.69341 1.83937 10.59 3.44971ZM1.50058 3.29335C1.02411 4.08371 0.75 5.00985 0.75 6C0.75 8.6567 2.72334 10.8525 5.28422 11.2016C5.24908 11.1029 5.25527 10.9901 5.31072 10.8917L6.68143 8.45825C6.46452 8.51824 6.236 8.5503 6 8.5503C5.03712 8.5503 4.19888 8.01669 3.76485 7.22905L1.50227 3.29632L1.50058 3.29335ZM6 7.8003C5.33851 7.8003 4.76034 7.44353 4.44742 6.91192C4.44541 6.90814 4.44333 6.90438 4.44118 6.90065L4.42215 6.86756C4.28037 6.61026 4.1997 6.31455 4.1997 6C4.1997 5.00572 5.00572 4.1997 6 4.1997C6.99428 4.1997 7.8003 5.00572 7.8003 6C7.8003 6.32295 7.71527 6.62603 7.56637 6.88809C7.56319 6.89316 7.56011 6.89833 7.55714 6.90361L7.54977 6.91669C7.2362 7.44567 6.65952 7.8003 6 7.8003Z" fill="#0E1011"/>
</svg>
