<svg viewBox="0 0 12 12" fill="none" xmlns="http://www.w3.org/2000/svg">
<path fill-rule="evenodd" clip-rule="evenodd" d="M5.82043 1.17079C5.93236 1.10974 6.06764 1.10974 6.17957 1.17079L11.6796 4.17079C11.8 4.2365 11.875 4.36277 11.875 4.5V7.5C11.875 7.63723 11.8 7.7635 11.6796 7.82921L6.17957 10.8292C6.06764 10.8903 5.93236 10.8903 5.82043 10.8292L0.32043 7.82921C0.199958 7.7635 0.125 7.63723 0.125 7.5V4.5C0.125 4.36277 0.199958 4.2365 0.32043 4.17079L5.82043 1.17079ZM0.875 6.95373V5.04627L2.6235 6L0.875 6.95373ZM1.20481 7.45728L5.7 9.90921V7.67809L3.25 6.34173L1.20481 7.45728ZM3.8765 6L6 7.15827L8.1235 6L6 4.84173L3.8765 6ZM8.75 6.34173L6.3 7.67809V9.90921L10.7952 7.45728L8.75 6.34173ZM11.125 6.95373L9.3765 6L11.125 5.04627V6.95373ZM8.75 5.65827L6.3 4.32191V2.09079L10.7952 4.54272L8.75 5.65827ZM5.7 2.09079L1.20481 4.54272L3.25 5.65827L5.7 4.32191V2.09079Z" fill="#0E1011"/>
</svg>
