<svg viewBox="0 0 12 12" fill="none" xmlns="http://www.w3.org/2000/svg">
<path fill-rule="evenodd" clip-rule="evenodd" d="M1 7.5C1 4.36807 2.07643 2.20493 5.22821 0.41123C5.47282 0.272021 5.72992 0.135038 6 0C5.95904 0.294918 5.97445 0.56809 6.03555 0.824507C6.27597 1.8335 7.2238 2.58304 8.22781 3.37702C9.56413 4.43378 11 5.56927 11 7.5C11 9.98528 8.76142 12 6 12C3.23858 12 1 9.98528 1 7.5ZM3.66572 10.6355C3.34075 10.1726 3.15 9.60857 3.15 9C3.15 8.21223 3.28119 7.39941 3.69274 6.6449C4.10631 5.88669 4.7882 5.21459 5.84348 4.68695L6.48355 4.36691L6.3432 5.06864C6.23142 5.62755 6.32477 5.92804 6.465 6.1254C6.6221 6.34651 6.87647 6.49985 7.2301 6.69274L7.29374 6.72734C7.61162 6.89997 7.99636 7.10889 8.2965 7.43476C8.63425 7.80146 8.85 8.29448 8.85 9C8.85 9.60857 8.65925 10.1726 8.33428 10.6355C9.50457 9.95272 10.25 8.77684 10.25 7.5C10.25 6.03557 9.22234 5.12133 7.8781 4.05669L7.74527 3.95167C7.15324 3.48398 6.50107 2.96879 6.02427 2.38419C5.73942 2.03494 5.5018 1.6431 5.36203 1.2012C4.11471 1.94534 3.27692 2.73151 2.72516 3.59225C2.04417 4.65459 1.75 5.90682 1.75 7.5C1.75 8.77684 2.49542 9.95272 3.66572 10.6355ZM3.85 9C3.85 8.28777 3.96881 7.60059 4.30726 6.9801C4.57119 6.49624 4.97769 6.03631 5.59675 5.63249C5.61476 5.98791 5.71766 6.28214 5.89437 6.53085C6.15915 6.90349 6.56103 7.12515 6.8949 7.30726L6.92986 7.32632C7.27304 7.51338 7.56262 7.67122 7.78162 7.90899C7.99075 8.13604 8.15 8.45552 8.15 9C8.15 10.1874 7.18741 11.15 6 11.15C4.81259 11.15 3.85 10.1874 3.85 9Z" fill="#0E1011"/>
</svg>
