<svg viewBox="0 0 12 12" fill="none" xmlns="http://www.w3.org/2000/svg">
<path fill-rule="evenodd" clip-rule="evenodd" d="M0 5.5C0 4.11929 1.17525 3 2.625 3C4.07475 3 5.25 4.11929 5.25 5.5C5.25 6.19953 4.94832 6.83196 4.46212 7.28571H7.53788C7.05167 6.83196 6.75 6.19953 6.75 5.5C6.75 4.11929 7.92525 3 9.375 3C10.8247 3 12 4.11929 12 5.5C12 6.88071 10.8247 8 9.375 8C9.32931 8 9.28388 7.99889 9.23876 7.99669C9.222 7.99887 9.20489 8 9.1875 8H2.8125C2.79511 8 2.778 7.99887 2.76124 7.99669C2.71612 7.99889 2.6707 8 2.625 8C1.17525 8 0 6.88071 0 5.5ZM2.625 3.71429C1.58947 3.71429 0.75 4.51378 0.75 5.5C0.75 6.48622 1.58947 7.28571 2.625 7.28571C3.66053 7.28571 4.5 6.48622 4.5 5.5C4.5 4.51378 3.66053 3.71429 2.625 3.71429ZM7.5 5.5C7.5 4.51378 8.33947 3.71429 9.375 3.71429C10.4105 3.71429 11.25 4.51378 11.25 5.5C11.25 6.48622 10.4105 7.28571 9.375 7.28571C8.33947 7.28571 7.5 6.48622 7.5 5.5Z" fill="#0E1011"/>
</svg>
