<svg viewBox="0 0 12 12" fill="none" xmlns="http://www.w3.org/2000/svg">
<path d="M5.678 0.984423L5.50047 0.938292C4.64818 1.02138 3.85753 1.31483 3.18113 1.76607L3.27229 1.78976L3.40233 1.91366L3.48902 2.05821V2.28535L3.40233 2.5538C3.35176 2.6364 3.25062 2.80572 3.25062 2.82224C3.25062 2.83876 3.22172 3.09069 3.20727 3.21459V3.50368L3.25062 3.68953L3.27229 3.87538L3.33731 4.06122L3.40233 4.26772L3.424 4.37097H3.66241L3.83579 4.43292L3.90081 4.57747L4.09587 4.92851L4.16089 5.05241L4.44264 5.09371L4.65937 5.13501L4.83275 5.21761L5.04948 5.36215L5.24454 5.56865C5.26621 5.5893 5.31823 5.63473 5.3529 5.65125C5.38758 5.66777 5.49739 5.65813 5.54796 5.65125C5.59853 5.67878 5.69967 5.73798 5.69967 5.7545C5.69967 5.76482 5.72134 5.80096 5.74302 5.8371C5.76469 5.87323 5.78636 5.90937 5.78636 5.91969C5.78636 5.92514 5.78787 5.93346 5.78969 5.94352C5.79478 5.97159 5.80232 6.01319 5.78636 6.04359C5.77489 6.06546 5.72693 6.09892 5.68436 6.12862C5.64655 6.15501 5.61298 6.17843 5.61298 6.18814V6.33269L5.69967 6.64243L5.78636 6.80763V7.01413C5.78636 7.0272 5.78202 7.04028 5.77746 7.05401C5.76761 7.08365 5.75674 7.11634 5.78636 7.15867C5.80941 7.19161 5.82633 7.23038 5.84038 7.26257C5.85275 7.29094 5.86291 7.3142 5.87306 7.32387C5.89473 7.34452 5.9164 7.36517 5.95975 7.38582C5.97588 7.39351 5.99202 7.39833 6.00927 7.40349C6.03836 7.41219 6.07065 7.42185 6.11146 7.44777C6.23127 7.51626 6.29147 7.54058 6.32867 7.55561C6.35877 7.56777 6.37382 7.57385 6.39321 7.59232C6.42211 7.61985 6.42211 7.61985 6.43174 7.63515C6.43655 7.64279 6.44378 7.65427 6.45823 7.67492C6.47567 7.69984 6.4896 7.70471 6.50003 7.70835C6.51551 7.71376 6.52325 7.71646 6.52325 7.77816V8.56285L6.7183 9.01715L6.87002 9.51274L6.91336 9.98768L7.10842 10.1942L7.32515 10.3181L7.43351 10.3594L7.54188 10.3181V10.1942L7.47686 10.0496L7.43351 9.92573L7.39017 9.82248V9.67793L7.43351 9.59534L7.54188 9.47144L7.69359 9.22364V8.8313L7.73694 8.60415L8.47382 8.06726L8.71222 7.81946L8.69055 7.22062L8.79891 7.07608L8.92895 6.99348L9.01565 6.91088V6.70438L8.92895 6.64243L8.56051 6.53918L8.34378 6.43594L8.0837 6.27074L7.88865 6.04359L7.78028 5.87839L7.62857 5.7545L7.23846 5.6306L6.93503 5.4654L6.73998 5.40345L6.45823 5.36215L5.98142 5.3828L5.82971 5.36215L5.74302 5.27955L5.65633 5.09371L5.46127 5.05241L5.3529 5.03176L5.24454 4.96981L5.28788 4.70136L5.30956 4.63941L5.28788 4.57747H5.17952L5.07115 4.59811H4.98446L4.7894 4.63941H4.65937L4.61602 4.51552L4.63769 4.35032L4.74606 4.12317L4.94112 3.95798L5.15785 3.93733H5.39625L5.61298 4.01992L5.82971 4.16447H5.87306L5.95975 4.12317L5.98142 4.06122L6.00309 3.66888L6.45823 3.33849L6.73998 3.07004L6.97838 2.88419L7.13009 2.80159L7.47686 2.76029L7.62857 2.719L7.65024 2.6777V2.5951L7.62857 2.53315L7.58523 2.4712V2.40925L7.62857 2.36795H7.78028L7.91032 2.3886L8.04036 2.3473L8.12705 2.20275L8.1704 2.0995L7.99701 2.01691V1.83106L7.95367 1.74846H7.82363L7.73694 1.70716L7.58523 1.64521L7.47686 1.54196L7.36849 1.56261L7.17344 1.68651L6.93503 1.83106L6.65329 1.93431L6.39321 1.97561L6.2415 1.93431L6.15481 1.74846L6.19815 1.56261L6.28484 1.48001L6.54492 1.37677L6.73998 1.29417L7.02173 1.21157L7.06507 1.14962V1.02577C6.89469 0.989467 6.72115 0.961695 6.54492 0.942923V0.984423L6.39321 1.08767L6.28484 1.14962H6.06811L5.678 0.984423Z" fill="#0E1011"/>
<path d="M7.67192 1.29417V1.19527C7.81443 1.24486 7.95407 1.3006 8.09049 1.3622L7.95367 1.41807H7.78028L7.67192 1.29417Z" fill="#0E1011"/>
<path d="M9.434 2.24839C9.18559 2.02088 8.91451 1.81772 8.62454 1.64269L8.62553 1.64521L8.58218 1.83106L8.49549 1.97561L8.4088 2.1408L8.36545 2.306L8.49549 2.3473L8.62553 2.36795L8.88561 2.306L9.29739 2.24405L9.434 2.24839Z" fill="#0E1011"/>
<path fill-rule="evenodd" clip-rule="evenodd" d="M6 12C9.31371 12 12 9.31371 12 6C12 2.68629 9.31371 0 6 0C2.68629 0 0 2.68629 0 6C0 9.31371 2.68629 12 6 12ZM11.25 6C11.25 8.8995 8.8995 11.25 6 11.25C3.1005 11.25 0.75 8.8995 0.75 6C0.75 3.1005 3.1005 0.75 6 0.75C8.8995 0.75 11.25 3.1005 11.25 6Z" fill="#0E1011"/>
</svg>
