<svg viewBox="0 0 12 12" fill="none" xmlns="http://www.w3.org/2000/svg">
<path fill-rule="evenodd" clip-rule="evenodd" d="M2.625 1H7.125C8.16053 1 9 1.83947 9 2.875V4.125C9 4.69509 8.74557 5.20576 8.34407 5.54964C9.17992 5.98874 9.75 6.8653 9.75 7.875V8.75C9.75 9.99264 8.74264 11 7.5 11H2.625V10.25H3V1.75H2.625V1ZM3.75 1.75V5.25H7.125C7.74632 5.25 8.25 4.74632 8.25 4.125V2.875C8.25 2.25368 7.74632 1.75 7.125 1.75H3.75ZM7.125 6H3.75V10.25H7.5C8.32843 10.25 9 9.57843 9 8.75V7.875C9 6.83947 8.16053 6 7.125 6Z" fill="#0E1011"/>
</svg>
