<svg viewBox="0 0 16 16" fill="none" xmlns="http://www.w3.org/2000/svg">
<path fill-rule="evenodd" clip-rule="evenodd" d="M5 5.5C5 6.32843 4.32843 7 3.5 7C2.67157 7 2 6.32843 2 5.5C2 4.67157 2.67157 4 3.5 4C4.32843 4 5 4.67157 5 5.5ZM4.25 5.5C4.25 5.91421 3.91421 6.25 3.5 6.25C3.08579 6.25 2.75 5.91421 2.75 5.5C2.75 5.08579 3.08579 4.75 3.5 4.75C3.91421 4.75 4.25 5.08579 4.25 5.5Z" fill="#0E1011"/>
<path fill-rule="evenodd" clip-rule="evenodd" d="M2.5 2C1.11929 2 0 3.11929 0 4.5V11.5C0 12.8807 1.11929 14 2.5 14H13.5C14.8807 14 16 12.8807 16 11.5V4.5C16 3.11929 14.8807 2 13.5 2H2.5ZM13.5 3H2.5C1.67157 3 1 3.67157 1 4.5V10.4697L3.5 7.96967L5.5 9.96967L10.5 4.96967L15 9.46967V4.5C15 3.67157 14.3284 3 13.5 3ZM2.5 13C1.68161 13 1.01629 12.3446 1.00029 11.53L3.5 9.03033L5.5 11.0303L10.5 6.03033L15 10.5303V11.5C15 12.3284 14.3284 13 13.5 13H2.5Z" fill="#0E1011"/>
</svg>
