<svg viewBox="0 0 16 16" fill="none" xmlns="http://www.w3.org/2000/svg">
<path fill-rule="evenodd" clip-rule="evenodd" d="M8.00197 15.4974C10.5036 13.4963 16 8.99829 16 4.99985C16 2.23851 13.7615 0 11.0002 0C9.87447 0 8.83568 0.372006 8 0.999787C7.16432 0.372006 6.12553 0 4.99985 0C2.23851 0 0 2.23851 0 4.99985C0 8.99947 5.49912 13.499 7.99976 15.4991L8.00197 15.4974ZM7.99976 14.215C6.78272 13.2254 5.18145 11.8593 3.80543 10.3303C2.13407 8.47325 1 6.59567 1 4.99985C1 2.79079 2.79079 1 4.99985 1C5.90154 1 6.73093 1.29717 7.39937 1.79932L8 2.25052L8.60063 1.79932C9.26907 1.29717 10.0985 1 11.0002 1C13.2092 1 15 2.79079 15 4.99985C15 6.59564 13.8658 8.47321 12.1943 10.3303C10.8182 11.8592 9.21684 13.2254 7.99976 14.215Z" fill="#0E1011"/>
</svg>
