<svg viewBox="0 0 12 12" fill="none" xmlns="http://www.w3.org/2000/svg">
<path fill-rule="evenodd" clip-rule="evenodd" d="M11.7027 0.297335C11.8491 0.443782 11.8491 0.681218 11.7027 0.827665L6.0118 6.51853C6.42059 6.81787 6.94962 7.07438 7.22616 7.19945L7.99492 6.68694C8.17799 6.5649 8.40543 6.52939 8.61699 6.58984L10.706 7.18671C11.028 7.27871 11.25 7.573 11.25 7.90786V9.74999C11.25 10.5654 10.5777 11.2832 9.70916 11.1836C7.50947 10.9313 5.52444 9.97421 3.9856 8.54473L0.827665 11.7027C0.681218 11.8491 0.443782 11.8491 0.297335 11.7027C0.150888 11.5562 0.150888 11.3188 0.297335 11.1723L4.928 6.54166L4.93068 6.53899L11.1723 0.297335C11.3188 0.150888 11.5562 0.150888 11.7027 0.297335ZM5.45905 7.07128C5.45836 7.07156 5.4592 7.07114 5.45905 7.07128C5.46042 7.07072 5.46466 7.0695 5.47088 7.06935C5.48459 7.06902 5.50199 7.07384 5.51647 7.08479C6.09608 7.523 6.87994 7.86895 7.07122 7.95074C7.22127 8.01489 7.38669 7.99382 7.51336 7.90937L8.41094 7.31098L10.5 7.90786V9.74999C10.5 10.1772 10.1606 10.4804 9.79462 10.4384C7.7688 10.2061 5.93902 9.32789 4.51631 8.01402L5.4577 7.07262L5.19324 6.8069L5.45905 7.07128ZM2.25 1.49999C1.8228 1.49999 1.51957 1.83938 1.56154 2.20538C1.75778 3.91632 2.41462 5.48719 3.40546 6.79125C3.53075 6.95616 3.49864 7.19142 3.33374 7.31671C3.16883 7.44201 2.93358 7.4099 2.80828 7.24499C1.7384 5.83689 1.02846 4.13955 0.816428 2.29084C0.716812 1.42229 1.43456 0.749992 2.25 0.749992H4.09214C4.427 0.749992 4.72129 0.971975 4.81328 1.29395L5.41015 3.38301C5.4706 3.59457 5.4351 3.822 5.31305 4.00507L4.80053 4.77385C4.85474 4.89375 4.93452 5.06302 5.03271 5.25046C5.12881 5.43392 5.05799 5.66055 4.87453 5.75665C4.69107 5.85275 4.46444 5.78193 4.36834 5.59847C4.20851 5.29336 4.09396 5.03333 4.04926 4.92878C3.9851 4.77871 4.00618 4.61329 4.09062 4.48663L4.68901 3.58905L4.09214 1.49999H2.25Z" fill="#0E1011"/>
</svg>
