<svg viewBox="0 0 12 12" fill="none" xmlns="http://www.w3.org/2000/svg">
<path fill-rule="evenodd" clip-rule="evenodd" d="M6.12502 0.75C6.28213 0.75 6.42258 0.847937 6.4769 0.99536L9.9769 10.4954C10.0314 10.6433 9.98758 10.8094 9.86727 10.9113C9.74695 11.0131 9.57581 11.0288 9.43897 10.9506L6.12502 9.05691L2.81107 10.9506C2.67422 11.0288 2.50309 11.0131 2.38277 10.9113C2.26246 10.8094 2.21865 10.6433 2.27314 10.4954L5.77314 0.99536C5.82745 0.847937 5.96791 0.75 6.12502 0.75ZM3.33279 9.78866L5.93897 8.29941C6.05425 8.23353 6.19578 8.23353 6.31107 8.29941L8.91725 9.78866L6.12502 2.20974L3.33279 9.78866Z" fill="#0E1011"/>
<path d="M5.93897 8.29941L3.33279 9.78866L6.12502 2.20974L8.91725 9.78866L6.31107 8.29941C6.19578 8.23353 6.05425 8.23353 5.93897 8.29941Z" fill="#0E1011"/>
</svg>
