<svg viewBox="0 0 12 12" fill="none" xmlns="http://www.w3.org/2000/svg">
<path d="M8.625 4.125C9.03921 4.125 9.375 3.78921 9.375 3.375C9.375 2.96079 9.03921 2.625 8.625 2.625C8.21079 2.625 7.875 2.96079 7.875 3.375C7.875 3.78921 8.21079 4.125 8.625 4.125Z" fill="#0E1011"/>
<path fill-rule="evenodd" clip-rule="evenodd" d="M8.0625 0C5.88788 0 4.125 1.76288 4.125 3.9375C4.125 4.29088 4.17165 4.63387 4.25927 4.9604L0 9.21967V12H2.625C3.03921 12 3.375 11.6642 3.375 11.25V10.875H3.75C4.16421 10.875 4.5 10.5392 4.5 10.125V9.75H4.875C5.28921 9.75 5.625 9.41421 5.625 9V8.40533L6.48442 7.54591C6.9679 7.75762 7.50189 7.875 8.0625 7.875C10.2371 7.875 12 6.11212 12 3.9375C12 1.76288 10.2371 0 8.0625 0ZM4.875 3.9375C4.875 2.17709 6.30209 0.75 8.0625 0.75C9.82291 0.75 11.25 2.17709 11.25 3.9375C11.25 5.69791 9.82291 7.125 8.0625 7.125C7.52717 7.125 7.0237 6.99333 6.58163 6.76094L6.33722 6.63245L4.875 8.09467V9H3.75V10.125H2.625V11.25H0.75V9.53033L5.11201 5.16832L5.03851 4.94834C4.93255 4.63119 4.875 4.29145 4.875 3.9375Z" fill="#0E1011"/>
</svg>
