<svg viewBox="0 0 12 12" fill="none" xmlns="http://www.w3.org/2000/svg">
<path fill-rule="evenodd" clip-rule="evenodd" d="M1.6875 1C0.75552 1 0 1.75552 0 2.6875V9.3125C0 10.2445 0.755519 11 1.6875 11H10.3125C11.2445 11 12 10.2445 12 9.3125V2.6875C12 1.75552 11.2445 1 10.3125 1H1.6875ZM1.875 3.75C1.66789 3.75 1.5 3.91789 1.5 4.125C1.5 4.33211 1.66789 4.5 1.875 4.5H2.25C4.32107 4.5 6 6.17893 6 8.25V8.625C6 8.83211 6.16789 9 6.375 9C6.58211 9 6.75 8.83211 6.75 8.625V8.25C6.75 5.76472 4.73528 3.75 2.25 3.75H1.875ZM1.875 6C1.66789 6 1.5 6.16789 1.5 6.375C1.5 6.58211 1.66789 6.75 1.875 6.75H2.25C3.07843 6.75 3.75 7.42157 3.75 8.25V8.625C3.75 8.83211 3.91789 9 4.125 9C4.33211 9 4.5 8.83211 4.5 8.625V8.25C4.5 7.00736 3.49264 6 2.25 6H1.875Z" fill="#0E1011"/>
</svg>
