<svg viewBox="0 0 12 12" fill="none" xmlns="http://www.w3.org/2000/svg">
<path fill-rule="evenodd" clip-rule="evenodd" d="M12 5.625C12 5.75101 11.9959 5.87605 11.9877 6H6V0.0123017C6.12395 0.00414351 6.24899 0 6.375 0C6.50101 0 6.62605 0.00414351 6.75 0.0123017C9.55782 0.197113 11.8029 2.44218 11.9877 5.25C11.9959 5.37395 12 5.49899 12 5.625ZM11.2358 5.25H6.75V0.764209C9.1434 0.946278 11.0537 2.8566 11.2358 5.25Z" fill="#0E1011"/>
<path fill-rule="evenodd" clip-rule="evenodd" d="M11.2377 6.74995H5.25V0.762268C4.99498 0.779053 4.74461 0.812834 4.5 0.862487C1.93248 1.38367 0 3.65364 0 6.37497C0 9.48157 2.5184 12 5.625 12C8.34633 12 10.6163 10.0675 11.1375 7.49995C11.1871 7.25534 11.2209 7.00497 11.2377 6.74995ZM4.5 6.74995C4.5 7.16417 4.83579 7.49995 5.25 7.49995H10.3697C9.86197 9.64974 7.93012 11.25 5.625 11.25C2.93261 11.25 0.75 9.06736 0.75 6.37497C0.75 4.06985 2.35022 2.138 4.5 1.63031V6.74995Z" fill="#0E1011"/>
</svg>
