<svg viewBox="0 0 16 16" fill="none" xmlns="http://www.w3.org/2000/svg">
<path d="M1.6923 1.03847C1.50528 0.960551 1.28972 1.0032 1.14646 1.14646C1.0032 1.28972 0.960551 1.50528 1.03847 1.6923L6.4545 14.6923C6.53449 14.8843 6.72499 15.0067 6.93287 14.9997C7.14075 14.9927 7.32259 14.8578 7.38948 14.6608L8.9161 10.1661L12.4911 13.7411C12.6569 13.9069 12.8817 14 13.1161 14C13.6043 14 14 13.6043 14 13.1161C14 12.8817 13.9069 12.6569 13.7411 12.4911L10.1661 8.9161L14.6608 7.38948C14.8578 7.32259 14.9927 7.14075 14.9997 6.93287C15.0067 6.72499 14.8843 6.53449 14.6923 6.4545L1.6923 1.03847Z" fill="#0E1011"/>
</svg>
