<svg viewBox="0 0 12 12" fill="none" xmlns="http://www.w3.org/2000/svg">
<path d="M1.5 7.125C2.12132 7.125 2.625 6.62132 2.625 6C2.625 5.37868 2.12132 4.875 1.5 4.875C0.87868 4.875 0.375 5.37868 0.375 6C0.375 6.62132 0.87868 7.125 1.5 7.125Z" fill="#0E1011"/>
<path d="M7.125 6C7.125 6.62132 6.62132 7.125 6 7.125C5.37868 7.125 4.875 6.62132 4.875 6C4.875 5.37868 5.37868 4.875 6 4.875C6.62132 4.875 7.125 5.37868 7.125 6Z" fill="#0E1011"/>
<path d="M11.625 6C11.625 6.62132 11.1213 7.125 10.5 7.125C9.87868 7.125 9.375 6.62132 9.375 6C9.375 5.37868 9.87868 4.875 10.5 4.875C11.1213 4.875 11.625 5.37868 11.625 6Z" fill="#0E1011"/>
</svg>
