<svg viewBox="0 0 12 12" fill="none" xmlns="http://www.w3.org/2000/svg">
<path d="M6.5 3.5C6.5 3.22386 6.27614 3 6 3C5.72386 3 5.5 3.22386 5.5 3.5V5.5H3.5C3.22386 5.5 3 5.72386 3 6C3 6.27614 3.22386 6.5 3.5 6.5H5.5V8.5C5.5 8.77614 5.72386 9 6 9C6.27614 9 6.5 8.77614 6.5 8.5V6.5H8.5C8.77614 6.5 9 6.27614 9 6C9 5.72386 8.77614 5.5 8.5 5.5H6.5V3.5Z" fill="#0E1011"/>
<path fill-rule="evenodd" clip-rule="evenodd" d="M6 0.125C2.75533 0.125 0.125 2.75533 0.125 6C0.125 9.24467 2.75533 11.875 6 11.875C9.24467 11.875 11.875 9.24467 11.875 6C11.875 2.75533 9.24467 0.125 6 0.125ZM0.875 6C0.875 3.16954 3.16954 0.875 6 0.875C8.83046 0.875 11.125 3.16954 11.125 6C11.125 8.83046 8.83046 11.125 6 11.125C3.16954 11.125 0.875 8.83046 0.875 6Z" fill="#0E1011"/>
</svg>
