<svg viewBox="0 0 12 12" fill="none" xmlns="http://www.w3.org/2000/svg">
<path d="M4.875 5C4.875 4.79289 4.70711 4.625 4.5 4.625C4.29289 4.625 4.125 4.79289 4.125 5V8.5C4.125 8.70711 4.29289 8.875 4.5 8.875C4.70711 8.875 4.875 8.70711 4.875 8.5V5Z" fill="#0E1011"/>
<path d="M7.875 5C7.875 4.79289 7.70711 4.625 7.5 4.625C7.29289 4.625 7.125 4.79289 7.125 5V8.5C7.125 8.70711 7.29289 8.875 7.5 8.875C7.70711 8.875 7.875 8.70711 7.875 8.5V5Z" fill="#0E1011"/>
<path fill-rule="evenodd" clip-rule="evenodd" d="M5 0.125C4.51675 0.125 4.125 0.516751 4.125 1V1.125H0.5C0.292893 1.125 0.125 1.29289 0.125 1.5C0.125 1.70711 0.292893 1.875 0.5 1.875H1.125V5.5C1.125 7.27164 1.46457 9.03347 1.74931 10.2016C1.99763 11.2204 2.92303 11.875 3.94152 11.875H8.05848C9.07697 11.875 10.0024 11.2204 10.2507 10.2016C10.5354 9.03347 10.875 7.27164 10.875 5.5V1.87513L11.5 1.875C11.7071 1.875 11.875 1.70711 11.875 1.5C11.875 1.29289 11.7071 1.125 11.5 1.125H7.875V1C7.875 0.516751 7.48325 0.125 7 0.125H5ZM1.875 1.87513L10.125 1.875V5.5C10.125 7.1865 9.8002 8.8828 9.52202 10.024C9.36261 10.678 8.76171 11.125 8.05848 11.125H3.94152C3.23829 11.125 2.63739 10.678 2.47798 10.024C2.1998 8.8828 1.875 7.1865 1.875 5.5V1.87513ZM7.125 1.125H4.875V1C4.875 0.930964 4.93096 0.875 5 0.875H7C7.06904 0.875 7.125 0.930964 7.125 1V1.125Z" fill="#0E1011"/>
</svg>
