<svg viewBox="0 0 12 12" fill="none" xmlns="http://www.w3.org/2000/svg">
<path fill-rule="evenodd" clip-rule="evenodd" d="M3 1.125C3 0.917893 2.83211 0.75 2.625 0.75C2.41789 0.75 2.25 0.917893 2.25 1.125V2.25H1.125C0.917893 2.25 0.75 2.41789 0.75 2.625C0.75 2.83211 0.917893 3 1.125 3H2.25V8.0625C2.25 8.99448 3.00552 9.75 3.9375 9.75H9V10.875C9 11.0821 9.16789 11.25 9.375 11.25C9.58211 11.25 9.75 11.0821 9.75 10.875V9.75H10.875C11.0821 9.75 11.25 9.58211 11.25 9.375C11.25 9.16789 11.0821 9 10.875 9H9.75V3.9375C9.75 3.00552 8.99448 2.25 8.0625 2.25H3V1.125ZM3 3V8.0625C3 8.58027 3.41973 9 3.9375 9H9V3.9375C9 3.41973 8.58027 3 8.0625 3H3Z" fill="#0E1011"/>
</svg>
