<svg viewBox="0 0 16 16" fill="none" xmlns="http://www.w3.org/2000/svg">
<path fill-rule="evenodd" clip-rule="evenodd" d="M13.5 7.5C13.5 8.97719 12.9662 10.3297 12.0809 11.3751C12.0886 11.382 12.0962 11.3891 12.1036 11.3964L13.8536 13.1464C14.0488 13.3417 14.0488 13.6583 13.8536 13.8536C13.6583 14.0488 13.3417 14.0488 13.1464 13.8536L11.3964 12.1036C11.3891 12.0962 11.382 12.0886 11.3751 12.0809C10.3297 12.9662 8.97719 13.5 7.5 13.5C4.18629 13.5 1.5 10.8137 1.5 7.5C1.5 4.18629 4.18629 1.5 7.5 1.5C10.8137 1.5 13.5 4.18629 13.5 7.5ZM5.5 7C5.22386 7 5 7.22386 5 7.5C5 7.77614 5.22386 8 5.5 8H9.5C9.77614 8 10 7.77614 10 7.5C10 7.22386 9.77614 7 9.5 7H5.5Z" fill="#0E1011"/>
</svg>
