<svg viewBox="0 0 16 16" fill="none" xmlns="http://www.w3.org/2000/svg">
<path d="M1.75 3.99997C1.75 3.8619 1.86193 3.74997 2 3.74997H4.5C4.63807 3.74997 4.75 3.8619 4.75 3.99997C4.75 4.13804 4.63807 4.24997 4.5 4.24997H2C1.86193 4.24997 1.75 4.13804 1.75 3.99997Z" fill="#0E1011"/>
<path d="M6.5 3.74997C6.36193 3.74997 6.25 3.8619 6.25 3.99997C6.25 4.13804 6.36193 4.24997 6.5 4.24997H9.5C9.63807 4.24997 9.75 4.13804 9.75 3.99997C9.75 3.8619 9.63807 3.74997 9.5 3.74997H6.5Z" fill="#0E1011"/>
<path d="M11.25 3.99997C11.25 3.8619 11.3619 3.74997 11.5 3.74997H14C14.1381 3.74997 14.25 3.8619 14.25 3.99997C14.25 4.13804 14.1381 4.24997 14 4.24997H11.5C11.3619 4.24997 11.25 4.13804 11.25 3.99997Z" fill="#0E1011"/>
<path fill-rule="evenodd" clip-rule="evenodd" d="M0 4.5C0 3.11929 1.11929 2 2.5 2H13.5C14.8807 2 16 3.11929 16 4.5V11.5C16 12.8807 14.8807 14 13.5 14H2.5C1.11929 14 0 12.8807 0 11.5V4.5ZM2.5 3H13.5C14.3284 3 15 3.67157 15 4.5V5.12497H1V4.5C1 3.67157 1.67157 3 2.5 3ZM1 5.87497V9.12497H5.125V5.87497H1ZM1 9.87497V11.5C1 12.3284 1.67157 13 2.5 13H5.125V9.87497H1ZM5.875 13H10.125V9.87497H5.875V13ZM10.875 13H13.5C14.3284 13 15 12.3284 15 11.5V9.87497H10.875V13ZM15 9.12497V5.87497H10.875V9.12497H15ZM5.875 9.12497H10.125V5.87497H5.875V9.12497Z" fill="#0E1011"/>
</svg>
