<svg viewBox="0 0 16 16" fill="none" xmlns="http://www.w3.org/2000/svg">
<path d="M10.0117 2.00001H12.25C12.5261 2.00001 12.75 2.22387 12.75 2.50001C12.75 2.77616 12.5261 3.00001 12.25 3.00001H10.3502L6.71385 13H8.75C9.02614 13 9.25 13.2239 9.25 13.5C9.25 13.7762 9.02614 14 8.75 14H6.01157C6.00385 14.0002 5.99611 14.0002 5.98835 14H3.75C3.47386 14 3.25 13.7762 3.25 13.5C3.25 13.2239 3.47386 13 3.75 13H5.64979L9.28615 3.00001H7.25C6.97386 3.00001 6.75 2.77616 6.75 2.50001C6.75 2.22387 6.97386 2.00001 7.25 2.00001H9.98842C9.99614 1.99983 10.0039 1.99983 10.0117 2.00001Z" fill="#0E1011"/>
</svg>
