<svg viewBox="0 0 12 12" fill="none" xmlns="http://www.w3.org/2000/svg">
<path d="M6.14402 0.113239C6.09427 0.106812 6.04554 0.110449 5.99987 0.122571C5.95421 0.110449 5.90548 0.106812 5.85572 0.113239C5.76078 0.125504 5.66703 0.149937 5.57686 0.186524L3.99325 0.829131C3.80134 0.907005 3.7089 1.12571 3.78677 1.31761C3.86464 1.50952 4.08334 1.60197 4.27525 1.52409L5.85887 0.881486C5.88895 0.869282 5.92018 0.861145 5.95181 0.857059C5.96824 0.854937 5.98428 0.851782 5.99987 0.847669C6.01547 0.851782 6.03151 0.854937 6.04793 0.857059C6.07957 0.861145 6.1108 0.869282 6.14087 0.881486L7.72449 1.52409C7.9164 1.60197 8.1351 1.50952 8.21297 1.31761C8.29085 1.12571 8.1984 0.907004 8.0065 0.829131L6.42288 0.186524C6.33272 0.149937 6.23896 0.125504 6.14402 0.113239Z" fill="#0E1011"/>
<path d="M9.59011 1.47174C9.3982 1.39386 9.1795 1.48631 9.10163 1.67822C9.02375 1.87013 9.1162 2.08883 9.30811 2.1667L10.5033 2.65171L9.5261 3.04826C9.33419 3.12614 9.24175 3.34484 9.31962 3.53675C9.3975 3.72866 9.6162 3.8211 9.80811 3.74323L11.1257 3.20856V5.05224C11.1257 5.25935 11.2936 5.42724 11.5007 5.42724C11.7078 5.42724 11.8757 5.25935 11.8757 5.05224V3.15679C11.8757 3.00522 11.8453 2.8584 11.789 2.72368C11.7587 2.65108 11.7083 2.59304 11.6468 2.55333C11.6331 2.48148 11.5983 2.41289 11.5425 2.35752C11.4388 2.25478 11.3142 2.17133 11.1737 2.11434L9.59011 1.47174Z" fill="#0E1011"/>
<path d="M2.69164 2.1667C2.88354 2.08883 2.97599 1.87013 2.89812 1.67822C2.82024 1.48631 2.60154 1.39386 2.40963 1.47174L0.826015 2.11435C0.685572 2.17133 0.560975 2.25478 0.457283 2.35752C0.401405 2.41289 0.366594 2.48148 0.352896 2.55333C0.291475 2.59304 0.241006 2.65108 0.210711 2.72368C0.154493 2.8584 0.124023 3.00522 0.124023 3.15679V5.05224C0.124023 5.25935 0.291917 5.42724 0.499023 5.42724C0.70613 5.42724 0.874023 5.25935 0.874023 5.05224V3.20856L2.19164 3.74323C2.38355 3.8211 2.60225 3.72866 2.68012 3.53675C2.75799 3.34484 2.66555 3.12614 2.47364 3.04826L1.49639 2.65171L2.69164 2.1667Z" fill="#0E1011"/>
<path d="M0.874023 6.9477C0.874023 6.74059 0.70613 6.5727 0.499023 6.5727C0.291917 6.5727 0.124023 6.74059 0.124023 6.9477V8.84315C0.124023 8.99472 0.154494 9.14155 0.210711 9.27626C0.241006 9.34886 0.291476 9.40691 0.352896 9.44661C0.366595 9.51846 0.401406 9.58705 0.457284 9.64242C0.560976 9.74516 0.685572 9.82861 0.826016 9.8856L2.40963 10.5282C2.60154 10.6061 2.82024 10.5136 2.89812 10.3217C2.97599 10.1298 2.88355 9.91111 2.69164 9.83324L1.10802 9.19063C1.06102 9.17156 1.01964 9.14381 0.985181 9.10966C0.966505 9.09116 0.946373 9.07502 0.925158 9.06125C0.920372 9.03641 0.912987 9.01169 0.902862 8.98742C0.884177 8.94265 0.874023 8.89388 0.874023 8.84315V6.9477Z" fill="#0E1011"/>
<path d="M11.8757 6.9477C11.8757 6.74059 11.7078 6.5727 11.5007 6.5727C11.2936 6.5727 11.1257 6.74059 11.1257 6.9477V8.84315C11.1257 8.89388 11.1156 8.94265 11.0969 8.98742C11.0868 9.01169 11.0794 9.03641 11.0746 9.06125C11.0534 9.07502 11.0332 9.09116 11.0146 9.10966C10.9801 9.14381 10.9387 9.17156 10.8917 9.19063L9.30811 9.83324C9.1162 9.91111 9.02376 10.1298 9.10163 10.3217C9.1795 10.5136 9.3982 10.6061 9.59011 10.5282L11.1737 9.8856C11.3142 9.82861 11.4388 9.74516 11.5425 9.64242C11.5983 9.58705 11.6331 9.51846 11.6468 9.44661C11.7083 9.40691 11.7587 9.34886 11.789 9.27626C11.8453 9.14155 11.8757 8.99472 11.8757 8.84315V6.9477Z" fill="#0E1011"/>
<path d="M4.27525 10.4758C4.08334 10.398 3.86464 10.4904 3.78677 10.6823C3.7089 10.8742 3.80134 11.0929 3.99325 11.1708L5.57686 11.8134C5.66703 11.85 5.76078 11.8744 5.85573 11.8867C5.90548 11.8931 5.95421 11.8895 5.99987 11.8774C6.04554 11.8895 6.09427 11.8931 6.14402 11.8867C6.23896 11.8744 6.33272 11.85 6.42288 11.8134L8.0065 11.1708C8.1984 11.0929 8.29085 10.8742 8.21297 10.6823C8.1351 10.4904 7.9164 10.398 7.72449 10.4758L6.37487 11.0235V9.34817C6.37487 9.14106 6.20698 8.97317 5.99987 8.97317C5.79277 8.97317 5.62487 9.14106 5.62487 9.34817V11.0235L4.27525 10.4758Z" fill="#0E1011"/>
<path d="M7.97449 4.48728C8.1664 4.40941 8.25884 4.1907 8.18097 3.9988C8.1031 3.80689 7.88439 3.71444 7.69249 3.79232L5.99987 4.47915L4.30726 3.79232C4.11535 3.71444 3.89665 3.80689 3.81877 3.9988C3.7409 4.1907 3.83334 4.40941 4.02525 4.48728L5.62487 5.13638V7.11601C5.62487 7.32312 5.79277 7.49101 5.99987 7.49101C6.20698 7.49101 6.37487 7.32312 6.37487 7.11601V5.13638L7.97449 4.48728Z" fill="#0E1011"/>
</svg>
