<svg viewBox="0 0 16 16" fill="none" xmlns="http://www.w3.org/2000/svg">
<path fill-rule="evenodd" clip-rule="evenodd" d="M0.180638 0.180638C0.307246 0.0540294 0.49189 0.00478594 0.664731 0.0515326L11.6305 3.01735C11.8018 3.06367 11.9357 3.19728 11.9824 3.36845L13.3333 8.32179C13.7062 8.27189 14.0973 8.39023 14.3839 8.67681L15.3232 9.61615C15.8114 10.1043 15.8114 10.8958 15.3232 11.3839L11.3839 15.3233C10.8957 15.8114 10.1043 15.8114 9.61612 15.3233L8.67678 14.3839C8.39019 14.0973 8.27186 13.7062 8.32176 13.3333L3.36845 11.9824C3.19728 11.9357 3.06367 11.8018 3.01735 11.6306L0.0515325 0.664731C0.00478595 0.49189 0.0540296 0.307246 0.180638 0.180638ZM8.85162 12.4413L12.4413 8.85163L11.093 3.90789L1.97116 1.4408L5.96206 5.43172C6.78216 4.86174 7.91737 4.94228 8.64841 5.67332C9.46996 6.49486 9.46996 7.82685 8.64841 8.6484C7.82687 9.46994 6.49488 9.46994 5.67333 8.6484C4.94229 7.91736 4.86176 6.78214 5.43173 5.96205L1.44077 1.97107L3.90789 11.093L8.85162 12.4413ZM9.38388 13.3233C9.28625 13.4209 9.28625 13.5792 9.38388 13.6768L10.3232 14.6161C10.4209 14.7138 10.5791 14.7138 10.6768 14.6161L14.6161 10.6768C14.7137 10.5792 14.7137 10.4209 14.6161 10.3233L13.6768 9.38391C13.5791 9.28628 13.4209 9.28628 13.3232 9.38391L9.38388 13.3233ZM6.20366 6.20365C5.67501 6.7323 5.67501 7.58942 6.20366 8.11807C6.73232 8.64672 7.58943 8.64672 8.11808 8.11807C8.64674 7.58942 8.64674 6.7323 8.11808 6.20365C7.58943 5.675 6.73232 5.675 6.20366 6.20365Z" fill="#0E1011"/>
</svg>
