<svg viewBox="0 0 12 12" fill="none" xmlns="http://www.w3.org/2000/svg">
<path d="M11.9287 4.56673C10.4852 2.91695 8.36422 1.875 5.99987 1.875C3.63552 1.875 1.51454 2.91695 0.0710449 4.56672L0.618563 5.08002C1.9249 3.576 3.85133 2.625 5.99987 2.625C8.14842 2.625 10.0748 3.576 11.3812 5.08002L11.9287 4.56673Z" fill="#0E1011"/>
<path d="M10.2859 6.10689C9.25409 4.89425 7.71681 4.125 5.99987 4.125C4.28293 4.125 2.74565 4.89425 1.71389 6.10689L2.26179 6.62055C3.15605 5.5535 4.49873 4.875 5.99987 4.875C7.50102 4.875 8.84369 5.5535 9.73796 6.62055L10.2859 6.10689Z" fill="#0E1011"/>
<path d="M8.64116 7.64879C8.02281 6.87253 7.06944 6.375 5.99987 6.375C4.9303 6.375 3.97693 6.87253 3.35858 7.64879L3.90805 8.16392C4.38745 7.53264 5.14605 7.125 5.99987 7.125C6.85369 7.125 7.6123 7.53264 8.09169 8.16392L8.64116 7.64879Z" fill="#0E1011"/>
<path d="M7.26307 8.94075C6.99635 8.52528 6.53026 8.25 5.99987 8.25C5.46949 8.25 5.00339 8.52528 4.73667 8.94075L5.99987 10.125L7.26307 8.94075Z" fill="#0E1011"/>
</svg>
