<svg viewBox="0 0 16 16" fill="none" xmlns="http://www.w3.org/2000/svg">
<path fill-rule="evenodd" clip-rule="evenodd" d="M8.84408 0.636991C8.36144 0.154349 7.5478 0.286387 7.24255 0.896885L4.3695 6.64297C4.28695 6.80808 4.21784 6.97894 4.16257 7.1539C3.96277 7.05537 3.73785 7.00001 3.5 7.00001H1.5C0.671573 7.00001 0 7.67158 0 8.50001V14.5C0 15.3284 0.671573 16 1.5 16H3.5C3.88418 16 4.23462 15.8556 4.5 15.6181C4.76538 15.8556 5.11582 16 5.5 16H10.8937C12.3684 16 13.6848 15.0757 14.1857 13.6888L15.7528 9.34913C16.3412 7.71957 15.1339 6.00002 13.4014 6.00002H9.64039L10.0731 4.26914C10.3713 3.07643 10.0218 1.81472 9.15248 0.945391L8.84408 0.636991ZM4 14.5V8.50001C4 8.22387 3.77614 8.00001 3.5 8.00001H1.5C1.22386 8.00001 1 8.22387 1 8.50001V14.5C1 14.7762 1.22386 15 1.5 15H3.5C3.77614 15 4 14.7762 4 14.5ZM5 14.5C5 14.7762 5.22386 15 5.5 15H10.8937C11.947 15 12.8874 14.3398 13.2451 13.3491L14.8122 9.00948C15.1653 8.03175 14.4409 7.00002 13.4014 7.00002H9C8.84603 7.00002 8.70065 6.92908 8.6059 6.80772C8.51114 6.68636 8.47759 6.52812 8.51493 6.37875L9.10296 4.0266C9.31595 3.17467 9.06633 2.27345 8.44538 1.6525L8.13698 1.3441L5.26393 7.09019C5.09036 7.43732 5 7.82011 5 8.20822V14.5Z" fill="#0E1011"/>
</svg>
