<svg viewBox="0 0 12 12" fill="none" xmlns="http://www.w3.org/2000/svg">
<path fill-rule="evenodd" clip-rule="evenodd" d="M6 0C6.20711 0 6.375 0.167893 6.375 0.375V4.70191C6.375 4.90902 6.20711 5.07691 6 5.07691C5.79289 5.07691 5.625 4.90902 5.625 4.70191V0.375C5.625 0.167893 5.79289 0 6 0ZM4.15397 1.55621C4.23957 1.7448 4.15609 1.96707 3.9675 2.05268C2.28753 2.81525 1.125 4.49142 1.125 6.4327C1.125 9.08933 3.30369 11.25 6 11.25C8.69631 11.25 10.875 9.08933 10.875 6.4327C10.875 4.49142 9.71247 2.81525 8.0325 2.05268C7.84391 1.96707 7.76043 1.7448 7.84603 1.55621C7.93164 1.36762 8.15391 1.28414 8.3425 1.36974C10.2772 2.24795 11.625 4.18294 11.625 6.4327C11.625 9.51133 9.10268 12 6 12C2.89732 12 0.375 9.51133 0.375 6.4327C0.375 4.18294 1.72279 2.24795 3.6575 1.36974C3.84609 1.28414 4.06836 1.36762 4.15397 1.55621Z" fill="#0E1011"/>
</svg>
