<svg viewBox="0 0 12 12" fill="none" xmlns="http://www.w3.org/2000/svg">
<path fill-rule="evenodd" clip-rule="evenodd" d="M0.765165 0.234835C0.618718 0.0883883 0.381282 0.0883883 0.234835 0.234835C0.0883884 0.381282 0.0883884 0.618718 0.234835 0.765165L1.87177 2.4021C0.810967 3.20043 0.125 4.4701 0.125 5.89999V6.19999C0.125 8.78192 2.21807 10.875 4.8 10.875H8.5C9.03718 10.875 9.54505 10.7495 9.99588 10.5262L11.2348 11.7652C11.3813 11.9116 11.6187 11.9116 11.7652 11.7652C11.9116 11.6187 11.9116 11.3813 11.7652 11.2348L0.765165 0.234835ZM9.42649 9.95682L2.40851 2.93884C1.4807 3.59535 0.875 4.67694 0.875 5.89999V6.19999C0.875 8.36771 2.63228 10.125 4.8 10.125H8.5C8.82614 10.125 9.13839 10.0655 9.42649 9.95682Z" fill="#0E1011"/>
<path d="M4.5 1.52499C4.3474 1.52499 4.19663 1.53281 4.04805 1.54805L4.78612 2.28612C6.21973 2.39807 7.41989 3.34411 7.90029 4.64041L7.9991 4.90705L8.28251 4.88385C8.35416 4.87799 8.42669 4.87499 8.5 4.87499C9.94975 4.87499 11.125 6.05025 11.125 7.49999C11.125 7.83443 11.0625 8.15426 10.9484 8.44843L11.5161 9.01612C11.7457 8.56026 11.875 8.04523 11.875 7.49999C11.875 5.63603 10.364 4.12499 8.5 4.12499C7.81945 2.59367 6.28487 1.52499 4.5 1.52499Z" fill="#0E1011"/>
</svg>
