<svg viewBox="0 0 12 12" fill="none" xmlns="http://www.w3.org/2000/svg">
<path fill-rule="evenodd" clip-rule="evenodd" d="M4.75 1.26562V0.265625H4V1.26562H2.9375C2.00552 1.26562 1.25 2.02114 1.25 2.95312V4.01562H0.25V4.76562H1.25V7.25H0.25V8H1.25V9.0625C1.25 9.99448 2.00552 10.75 2.9375 10.75H4V11.75H4.75V10.75H7.25V11.75H8V10.75H9.0625C9.99448 10.75 10.75 9.99448 10.75 9.0625V8H11.75V7.25H10.75V4.76562H11.75V4.01562H10.75V2.95312C10.75 2.02114 9.99448 1.26562 9.0625 1.26562H8V0.265625H7.25V1.26562H4.75ZM4 4.75C4 4.33579 4.33579 4 4.75 4H7.25C7.66421 4 8 4.33579 8 4.75V7.25C8 7.66421 7.66421 8 7.25 8H4.75C4.33579 8 4 7.66421 4 7.25V4.75ZM5 5H7V7H5V5Z" fill="#0E1011"/>
</svg>
