<svg viewBox="0 0 12 12" fill="none" xmlns="http://www.w3.org/2000/svg">
<path fill-rule="evenodd" clip-rule="evenodd" d="M1 2.96429C1 1.87944 1.87944 1 2.96429 1C4.04913 1 4.92857 1.87944 4.92857 2.96429V4.21429H7.07143V2.96429C7.07143 1.87944 7.95087 1 9.03571 1C10.1206 1 11 1.87944 11 2.96429C11 4.04913 10.1206 4.92857 9.03571 4.92857H7.78571V7.07143H9.03571C10.1206 7.07143 11 7.95087 11 9.03571C11 10.1206 10.1206 11 9.03571 11C7.95087 11 7.07143 10.1206 7.07143 9.03571V7.78571H4.92857V9.03571C4.92857 10.1206 4.04913 11 2.96429 11C1.87944 11 1 10.1206 1 9.03571C1 7.95087 1.87944 7.07143 2.96429 7.07143H4.21429V4.92857H2.96429C1.87944 4.92857 1 4.04913 1 2.96429ZM4.21429 4.21429V2.96429C4.21429 2.27393 3.65464 1.71429 2.96429 1.71429C2.27393 1.71429 1.71429 2.27393 1.71429 2.96429C1.71429 3.65464 2.27393 4.21429 2.96429 4.21429H4.21429ZM4.92857 4.92857V7.07143H7.07143V4.92857H4.92857ZM4.21429 7.78571H2.96429C2.27393 7.78571 1.71429 8.34536 1.71429 9.03571C1.71429 9.72607 2.27393 10.2857 2.96429 10.2857C3.65464 10.2857 4.21429 9.72607 4.21429 9.03571V7.78571ZM7.78571 7.78571V9.03571C7.78571 9.72607 8.34536 10.2857 9.03571 10.2857C9.72607 10.2857 10.2857 9.72607 10.2857 9.03571C10.2857 8.34536 9.72607 7.78571 9.03571 7.78571H7.78571ZM7.78571 4.21429H9.03571C9.72607 4.21429 10.2857 3.65464 10.2857 2.96429C10.2857 2.27393 9.72607 1.71429 9.03571 1.71429C8.34536 1.71429 7.78571 2.27393 7.78571 2.96429V4.21429Z" fill="#0E1011"/>
</svg>
