<svg viewBox="0 0 16 16" fill="none" xmlns="http://www.w3.org/2000/svg">
<path d="M8.14246 0.0838371C8.09366 0.0791813 8.04582 0.081707 8 0.0905494C7.95418 0.081707 7.90634 0.0791813 7.85754 0.0838371C7.71642 0.0972978 7.57676 0.130806 7.44291 0.184343L5.00541 1.15934C4.74902 1.2619 4.62431 1.55288 4.72687 1.80928C4.82943 2.06567 5.12041 2.19038 5.3768 2.08782L7.8143 1.11282C7.85894 1.09496 7.90547 1.0838 7.9525 1.07932C7.96859 1.07778 7.98444 1.0755 8 1.07251C8.01556 1.0755 8.03141 1.07778 8.0475 1.07932C8.09453 1.0838 8.14106 1.09496 8.1857 1.11282L10.6232 2.08782C10.8796 2.19038 11.1706 2.06567 11.2731 1.80928C11.3757 1.55288 11.251 1.2619 10.9946 1.15934L8.55709 0.184343C8.42324 0.130806 8.28358 0.0972978 8.14246 0.0838371Z" fill="#0E1011"/>
<path d="M3.7518 2.73782C4.0082 2.63526 4.1329 2.34428 4.03035 2.08789C3.92779 1.83149 3.63681 1.70679 3.38041 1.80934L0.942914 2.78434C0.730452 2.86933 0.54498 2.99961 0.396193 3.16135C0.343468 3.21866 0.306663 3.28497 0.285549 3.35483C0.228523 3.40038 0.180627 3.45918 0.146993 3.52942C0.0520783 3.72764 0 3.94823 0 4.17706V7.04428C0 7.32043 0.223858 7.54428 0.5 7.54428C0.776142 7.54428 1 7.32043 1 7.04428V4.23854L3.1268 5.08926C3.3832 5.19182 3.67418 5.06711 3.77674 4.81072C3.8793 4.55433 3.75459 4.26334 3.4982 4.16079L1.84629 3.50002L3.7518 2.73782Z" fill="#0E1011"/>
<path d="M12.6196 1.80934C12.3632 1.70679 12.0722 1.83149 11.9697 2.08789C11.8671 2.34428 11.9918 2.63526 12.2482 2.73782L14.1537 3.50002L12.5018 4.16079C12.2454 4.26334 12.1207 4.55433 12.2233 4.81072C12.3258 5.06711 12.6168 5.19182 12.8732 5.08926L15 4.23854V7.04428C15 7.32043 15.2239 7.54428 15.5 7.54428C15.7761 7.54428 16 7.32043 16 7.04428V4.17706C16 3.94823 15.9479 3.72764 15.853 3.52942C15.8194 3.45918 15.7715 3.40038 15.7145 3.35483C15.6933 3.28497 15.6565 3.21866 15.6038 3.16135C15.455 2.99961 15.2695 2.86933 15.0571 2.78434L12.6196 1.80934Z" fill="#0E1011"/>
<path d="M16 8.95577C16 8.67962 15.7761 8.45577 15.5 8.45577C15.2239 8.45577 15 8.67962 15 8.95577V11.823C15 11.8995 14.9827 11.9728 14.9511 12.0387C14.9399 12.062 14.9307 12.0857 14.9235 12.1097C14.9039 12.1254 14.8853 12.1427 14.8678 12.1617C14.8183 12.2155 14.7567 12.2588 14.6857 12.2872L12.2482 13.2622C11.9918 13.3648 11.8671 13.6558 11.9697 13.9122C12.0722 14.1686 12.3632 14.2933 12.6196 14.1907L15.0571 13.2157C15.2695 13.1307 15.455 13.0004 15.6038 12.8387C15.6565 12.7814 15.6933 12.7151 15.7145 12.6452C15.7715 12.5997 15.8194 12.5409 15.853 12.4706C15.9479 12.2724 16 12.0518 16 11.823V8.95577Z" fill="#0E1011"/>
<path d="M1 8.95577C1 8.67962 0.776142 8.45577 0.5 8.45577C0.223858 8.45577 0 8.67962 0 8.95577V11.823C0 12.0518 0.0520781 12.2724 0.146993 12.4706C0.180627 12.5409 0.228523 12.5997 0.285549 12.6452C0.306663 12.7151 0.343468 12.7814 0.396193 12.8387C0.54498 13.0004 0.730451 13.1307 0.942914 13.2157L3.38041 14.1907C3.63681 14.2933 3.92779 14.1686 4.03035 13.9122C4.1329 13.6558 4.0082 13.3648 3.7518 13.2622L1.3143 12.2872C1.24327 12.2588 1.18168 12.2155 1.13216 12.1617C1.11468 12.1427 1.09608 12.1254 1.07654 12.1097C1.06925 12.0857 1.06007 12.062 1.04892 12.0387C1.01733 11.9728 1 11.8995 1 11.823V8.95577Z" fill="#0E1011"/>
<path d="M5.3768 13.9122C5.12041 13.8097 4.82943 13.9344 4.72687 14.1908C4.62431 14.4472 4.74902 14.7382 5.00541 14.8407L7.44291 15.8157C7.57676 15.8692 7.71642 15.9028 7.85754 15.9162C7.90634 15.9209 7.95418 15.9183 8 15.9095C8.04582 15.9183 8.09366 15.9209 8.14246 15.9162C8.28358 15.9028 8.42324 15.8692 8.55709 15.8157L10.9946 14.8407C11.251 14.7382 11.3757 14.4472 11.2731 14.1908C11.1706 13.9344 10.8796 13.8097 10.6232 13.9122L8.5 14.7615V12.125C8.5 11.8489 8.27614 11.625 8 11.625C7.72386 11.625 7.5 11.8489 7.5 12.125V14.7615L5.3768 13.9122Z" fill="#0E1011"/>
<path d="M5.3732 4.91079C5.1168 4.80823 4.82582 4.93294 4.72326 5.18933C4.62071 5.44572 4.74541 5.73671 5.0018 5.83926L7.5 6.83854V9.87502C7.5 10.1512 7.72386 10.375 8 10.375C8.27614 10.375 8.5 10.1512 8.5 9.87502V6.83854L10.9982 5.83926C11.2546 5.73671 11.3793 5.44572 11.2767 5.18933C11.1742 4.93294 10.8832 4.80823 10.6268 4.91079L8 5.96151L5.3732 4.91079Z" fill="#0E1011"/>
</svg>
