<svg viewBox="0 0 16 16" fill="none" xmlns="http://www.w3.org/2000/svg">
<path fill-rule="evenodd" clip-rule="evenodd" d="M8 0.292847L10.3536 2.6464C10.5488 2.84166 10.5488 3.15824 10.3536 3.35351C10.1583 3.54877 9.84171 3.54877 9.64645 3.35351L8.5 2.20706V7.49995H13.7929L12.6464 6.35351C12.4512 6.15824 12.4512 5.84166 12.6464 5.6464C12.8417 5.45114 13.1583 5.45114 13.3536 5.6464L15.7071 7.99995L13.3536 10.3535C13.1583 10.5488 12.8417 10.5488 12.6464 10.3535C12.4512 10.1582 12.4512 9.84166 12.6464 9.6464L13.7929 8.49995H8.5V13.7928L9.64645 12.6464C9.84171 12.4511 10.1583 12.4511 10.3536 12.6464C10.5488 12.8417 10.5488 13.1582 10.3536 13.3535L8 15.7071L5.64645 13.3535C5.45118 13.1582 5.45118 12.8417 5.64645 12.6464C5.84171 12.4511 6.15829 12.4511 6.35355 12.6464L7.5 13.7928V8.49995H2.20711L3.35355 9.6464C3.54881 9.84166 3.54881 10.1582 3.35355 10.3535C3.15829 10.5488 2.84171 10.5488 2.64645 10.3535L0.292892 7.99995L2.64645 5.6464C2.84171 5.45114 3.15829 5.45114 3.35355 5.6464C3.54881 5.84166 3.54881 6.15824 3.35355 6.35351L2.20711 7.49995H7.5V2.20706L6.35355 3.35351C6.15829 3.54877 5.84171 3.54877 5.64645 3.35351C5.45118 3.15824 5.45118 2.84166 5.64645 2.6464L8 0.292847Z" fill="#0E1011"/>
</svg>
