<svg viewBox="0 0 12 12" fill="none" xmlns="http://www.w3.org/2000/svg">
<path d="M1.12506 5.5C1.12506 5.70711 1.29295 5.875 1.50006 5.875C1.70716 5.875 1.87506 5.70711 1.87506 5.5V4.5C1.87506 3.60254 2.60259 2.875 3.50006 2.875H9.59473L8.23489 4.23483C8.08844 4.38128 8.08844 4.61872 8.23489 4.76516C8.38134 4.91161 8.61877 4.91161 8.76522 4.76516L11.0304 2.5L8.76522 0.234835C8.61877 0.0883883 8.38134 0.0883883 8.23489 0.234835C8.08844 0.381281 8.08844 0.618719 8.23489 0.765165L9.59473 2.125H3.50006C2.18838 2.125 1.12506 3.18832 1.12506 4.5V5.5Z" fill="#0E1011"/>
<path d="M10.8751 7.5V6.5C10.8751 6.29289 10.7072 6.125 10.5001 6.125C10.2929 6.125 10.1251 6.29289 10.1251 6.5V7.5C10.1251 8.39746 9.39752 9.125 8.50006 9.125H2.40539L3.76522 7.76517C3.91167 7.61872 3.91167 7.38128 3.76522 7.23484C3.61877 7.08839 3.38134 7.08839 3.23489 7.23484L0.969727 9.5L3.23489 11.7652C3.38134 11.9116 3.61877 11.9116 3.76522 11.7652C3.91167 11.6187 3.91167 11.3813 3.76522 11.2348L2.40539 9.875H8.50006C9.81173 9.875 10.8751 8.81168 10.8751 7.5Z" fill="#0E1011"/>
</svg>
