<svg viewBox="0 0 12 12" fill="none" xmlns="http://www.w3.org/2000/svg">
<path d="M5.25 4.5C5.25 4.29289 5.08211 4.125 4.875 4.125C4.66789 4.125 4.5 4.29289 4.5 4.5V7.5C4.5 7.70711 4.66789 7.875 4.875 7.875C5.08211 7.875 5.25 7.70711 5.25 7.5V4.5Z" fill="#0E1011"/>
<path d="M7.5 4.5C7.5 4.29289 7.33211 4.125 7.125 4.125C6.91789 4.125 6.75 4.29289 6.75 4.5V7.5C6.75 7.70711 6.91789 7.875 7.125 7.875C7.33211 7.875 7.5 7.70711 7.5 7.5V4.5Z" fill="#0E1011"/>
<path fill-rule="evenodd" clip-rule="evenodd" d="M6 0.1875C2.78984 0.1875 0.1875 2.78984 0.1875 6C0.1875 9.21016 2.78984 11.8125 6 11.8125C9.21016 11.8125 11.8125 9.21016 11.8125 6C11.8125 2.78984 9.21016 0.1875 6 0.1875ZM0.9375 6C0.9375 3.20406 3.20406 0.9375 6 0.9375C8.79594 0.9375 11.0625 3.20406 11.0625 6C11.0625 8.79594 8.79594 11.0625 6 11.0625C3.20406 11.0625 0.9375 8.79594 0.9375 6Z" fill="#0E1011"/>
</svg>
