<svg viewBox="0 0 16 16" fill="none" xmlns="http://www.w3.org/2000/svg">
<path d="M2 3V4H3V3H2Z" fill="#0E1011"/>
<path d="M4 3V4H5V3H4Z" fill="#0E1011"/>
<path fill-rule="evenodd" clip-rule="evenodd" d="M0 3C0 1.89543 0.895431 1 2 1H14C15.1046 1 16 1.89543 16 3V5C16 6.10457 15.1046 7 14 7H2C0.895431 7 0 6.10457 0 5V3ZM2 2C1.44772 2 1 2.44772 1 3V5C1 5.55228 1.44772 6 2 6H14C14.5523 6 15 5.55228 15 5V3C15 2.44772 14.5523 2 14 2H2Z" fill="#0E1011"/>
<path d="M2 11V12H3V11H2Z" fill="#0E1011"/>
<path d="M4 11V12H5V11H4Z" fill="#0E1011"/>
<path fill-rule="evenodd" clip-rule="evenodd" d="M2 9C0.895431 9 0 9.89543 0 11V13C0 14.1046 0.895431 15 2 15H14C15.1046 15 16 14.1046 16 13V11C16 9.89543 15.1046 9 14 9H2ZM1 11C1 10.4477 1.44772 10 2 10H14C14.5523 10 15 10.4477 15 11V13C15 13.5523 14.5523 14 14 14H2C1.44772 14 1 13.5523 1 13V11Z" fill="#0E1011"/>
</svg>
