<svg viewBox="0 0 12 12" fill="none" xmlns="http://www.w3.org/2000/svg">
<path d="M6 0C4.98002 0 4.07893 0.509023 3.5369 1.2869L8.73487 6.48487C8.90519 6.10826 9 5.6902 9 5.25V3C9 1.34315 7.65685 0 6 0Z" fill="#0E1011"/>
<path d="M3 3.53033V5.25C3 6.90685 4.34315 8.25 6 8.25C6.49868 8.25 6.96894 8.12833 7.38272 7.91305L8.13272 8.66305C7.71894 8.87833 7.24868 9 6.75 9H5.25C3.59315 9 2.25 7.65685 2.25 6V5.8125C2.25 5.60539 2.08211 5.4375 1.875 5.4375C1.66789 5.4375 1.5 5.60539 1.5 5.8125V6C1.5 8.07107 3.17893 9.75 5.25 9.75H5.625V11.25H4.5C4.29289 11.25 4.125 11.4179 4.125 11.625C4.125 11.8321 4.29289 12 4.5 12H7.5C7.70711 12 7.875 11.8321 7.875 11.625C7.875 11.4179 7.70711 11.25 7.5 11.25H6.375V9.75H6.75C7.45731 9.75 8.11888 9.55418 8.68346 9.21379L11.1723 11.7027C11.3188 11.8491 11.5562 11.8491 11.7027 11.7027C11.8491 11.5562 11.8491 11.3188 11.7027 11.1723L0.827665 0.297335C0.681218 0.150888 0.443782 0.150888 0.297335 0.297335C0.150888 0.443782 0.150888 0.681218 0.297335 0.827665L3 3.53033Z" fill="#0E1011"/>
<path d="M10.5 6C10.5 6.64982 10.3347 7.26103 10.0439 7.7939L9.48487 7.23487C9.65519 6.85826 9.75 6.4402 9.75 6V5.8125C9.75 5.60539 9.91789 5.4375 10.125 5.4375C10.3321 5.4375 10.5 5.60539 10.5 5.8125V6Z" fill="#0E1011"/>
</svg>
