<svg viewBox="0 0 12 12" fill="none" xmlns="http://www.w3.org/2000/svg">
<path fill-rule="evenodd" clip-rule="evenodd" d="M12.0022 5.99805C12.0022 9.31176 9.31591 11.998 6.0022 11.998C2.68849 11.998 0.00219727 9.31176 0.00219727 5.99805C0.00219727 2.68434 2.68849 -0.00195312 6.0022 -0.00195312C9.31591 -0.00195312 12.0022 2.68434 12.0022 5.99805ZM10.0257 9.37073C9.06268 10.5184 7.61764 11.248 6.0022 11.248C5.8947 11.248 5.78796 11.2448 5.68206 11.2384L8.38168 6.56258L9.95683 9.29082C9.97514 9.32252 9.99868 9.34931 10.0257 9.37073ZM10.3794 8.89777L7.67803 4.21882H10.8295C10.867 4.21882 10.9028 4.21147 10.9355 4.19814C11.1404 4.75954 11.2522 5.36574 11.2522 5.99805C11.2522 7.07 10.9309 8.06692 10.3794 8.89777ZM10.7023 3.65632H5.29646L6.87173 0.927876C6.89049 0.895384 6.90203 0.860706 6.90685 0.825698C8.57357 1.11518 9.97064 2.19064 10.7023 3.65632ZM6.32056 0.757541C6.21524 0.751242 6.10909 0.748047 6.0022 0.748047C4.38467 0.748047 2.938 1.47955 1.97495 2.62979C2.00181 2.65115 2.02519 2.67781 2.04339 2.70933L3.61854 5.43757L6.32056 0.757541ZM1.62149 3.10358C1.07211 3.93338 0.752197 4.92835 0.752197 5.99805C0.752197 6.63114 0.864257 7.23806 1.06962 7.80005C1.10101 7.78796 1.1351 7.78132 1.17075 7.78132H4.32218L1.62149 3.10358ZM1.30412 8.34382C2.03582 9.80641 3.43041 10.8797 5.09405 11.1698C5.09923 11.1364 5.11056 11.1033 5.12849 11.0723L6.70376 8.34382H1.30412ZM4.9717 7.78132L3.9433 6.00007L4.9717 4.21882H7.02851L8.05692 6.00008L7.02851 7.78132H4.9717Z" fill="#0E1011"/>
</svg>
