<svg viewBox="0 0 12 12" fill="none" xmlns="http://www.w3.org/2000/svg">
<path fill-rule="evenodd" clip-rule="evenodd" d="M7.875 1C8.91049 1 9.74993 1.83939 9.75 2.87487C10.2054 3.21694 10.5 3.76157 10.5 4.375V8.125C10.5 8.25345 10.4871 8.37888 10.4625 8.50006H7.91416L8.20712 8.2071C8.59764 7.81656 8.59763 7.1834 8.2071 6.79288C7.81656 6.40236 7.1834 6.40237 6.79288 6.7929L4.79288 8.79297L4.08579 9.50009L4.58572 10H1.875C0.839466 10 0 9.16053 0 8.125V2.875C0 1.83947 0.839466 1 1.875 1H7.875ZM1 3V2.74999C1 2.33578 1.33578 2 1.74999 1.99999L7.74999 1.99995C8.30228 1.99994 8.75 2.44771 8.75 3H1ZM7.23483 7.23484C7.38127 7.08839 7.61871 7.08839 7.76516 7.23483C7.91161 7.38127 7.91161 7.61871 7.76517 7.76516L6.40531 9.12506H11.5C11.7071 9.12506 11.875 9.29296 11.875 9.50006C11.875 9.70717 11.7071 9.87506 11.5 9.87506H6.40535L7.76516 11.2348C7.91161 11.3813 7.91161 11.6187 7.76517 11.7652C7.61872 11.9116 7.38129 11.9116 7.23484 11.7652L5.23484 9.76523L4.96967 9.50007L5.23483 9.2349L7.23483 7.23484Z" fill="#0E1011"/>
</svg>
