<svg viewBox="0 0 16 16" fill="none" xmlns="http://www.w3.org/2000/svg">
<path d="M7.48421 4.62632C7.76035 4.62632 7.98421 4.85017 7.98421 5.12632V6.98421H9.8421C10.1182 6.98421 10.3421 7.20807 10.3421 7.48421C10.3421 7.76035 10.1182 7.98421 9.8421 7.98421H7.98421V9.8421C7.98421 10.1182 7.76035 10.3421 7.48421 10.3421C7.20807 10.3421 6.98421 10.1182 6.98421 9.8421V7.98421H5.12632C4.85017 7.98421 4.62632 7.76035 4.62632 7.48421C4.62632 7.20807 4.85017 6.98421 5.12632 6.98421H6.98421V5.12632C6.98421 4.85017 7.20807 4.62632 7.48421 4.62632Z" fill="#0E1011"/>
<path fill-rule="evenodd" clip-rule="evenodd" d="M12.3817 11.734C13.3701 10.596 13.9684 9.10996 13.9684 7.48421C13.9684 3.90308 11.0653 1 7.48421 1C3.90308 1 1 3.90308 1 7.48421C1 11.0653 3.90308 13.9684 7.48421 13.9684C9.10996 13.9684 10.596 13.3701 11.734 12.3817C11.7584 12.4443 11.7959 12.503 11.8464 12.5536L14.2043 14.9114C14.3996 15.1067 14.7162 15.1067 14.9114 14.9114C15.1067 14.7162 15.1067 14.3996 14.9114 14.2043L12.5536 11.8464C12.503 11.7959 12.4443 11.7584 12.3817 11.734ZM7.48421 12.9684C10.5131 12.9684 12.9684 10.5131 12.9684 7.48421C12.9684 4.45536 10.5131 2 7.48421 2C4.45536 2 2 4.45536 2 7.48421C2 10.5131 4.45536 12.9684 7.48421 12.9684Z" fill="#0E1011"/>
</svg>
