<svg viewBox="0 0 16 16" fill="none" xmlns="http://www.w3.org/2000/svg">
<path fill-rule="evenodd" clip-rule="evenodd" d="M7.76714 13.9179L7.76511 13.9168L7.75219 13.9102C7.74017 13.9041 7.72142 13.8947 7.69637 13.8825C7.64625 13.8579 7.57109 13.8221 7.47443 13.7787C7.41299 13.7511 7.34301 13.7205 7.26539 13.6879L2.08311 14.8657C1.97188 14.891 1.8552 14.8642 1.76606 14.7931C1.67691 14.7219 1.625 14.6141 1.625 14.5V13.5498C1.38349 13.6417 1.18025 13.7296 1.02885 13.7989C0.932201 13.8431 0.857038 13.8796 0.806926 13.9046C0.78188 13.9171 0.763122 13.9267 0.7511 13.9329L0.738184 13.9396L0.735728 13.9409C0.580794 14.0237 0.393634 14.0192 0.242963 13.9289C0.0922407 13.8385 0 13.6757 0 13.5V2.5C0 2.33282 0.0835506 2.17671 0.22265 2.08397L0.5 2.5C0.22265 2.08397 0.222498 2.08408 0.22265 2.08397L0.224055 2.08304L0.226017 2.08174L0.231607 2.07809L0.249391 2.06666C0.264159 2.05729 0.28473 2.04446 0.310923 2.02869C0.363294 1.99716 0.438223 1.95378 0.534237 1.90257C0.72613 1.80023 1.00309 1.66615 1.35325 1.53276C2.05276 1.26628 3.05115 1 4.25 1C5.48689 1 6.51004 1.412 7.21682 1.81588C7.54577 2.00385 7.80995 2.19216 8 2.34127C8.19005 2.19216 8.45422 2.00385 8.78318 1.81588C9.48996 1.412 10.5131 1 11.75 1C12.9489 1 13.9472 1.26628 14.6467 1.53276C14.9969 1.66615 15.2739 1.80023 15.4658 1.90257C15.5618 1.95378 15.6367 1.99716 15.6891 2.02869C15.7153 2.04446 15.7358 2.05729 15.7506 2.06666L15.7684 2.07809L15.774 2.08174L15.7759 2.08304C15.7761 2.08314 15.7774 2.08397 15.5 2.5L15.7774 2.08397C15.9164 2.17671 16 2.33282 16 2.5V13.5C16 13.6757 15.9078 13.8385 15.757 13.9289C15.6064 14.0192 15.4194 14.0238 15.2644 13.941L15.2618 13.9396L15.2489 13.9329C15.2369 13.9267 15.2181 13.9171 15.1931 13.9046C15.143 13.8796 15.0678 13.8431 14.9711 13.7989C14.8197 13.7296 14.6165 13.6417 14.375 13.5498V14.5C14.375 14.6141 14.3231 14.7219 14.2339 14.7931C14.1448 14.8642 14.0281 14.891 13.9169 14.8657L8.73461 13.6879C8.65699 13.7205 8.58701 13.7511 8.52557 13.7787C8.42891 13.8221 8.35375 13.8579 8.30363 13.8825C8.27859 13.8947 8.25983 13.9041 8.24781 13.9102L8.23489 13.9168L8.23287 13.9179C8.08811 13.9938 7.91303 13.9944 7.76714 13.9179ZM1 12.7217V2.7875L1.00483 2.78493C1.16449 2.69977 1.40316 2.58385 1.70925 2.46724C2.32224 2.23372 3.19885 2 4.25 2C5.26311 2 6.11496 2.338 6.72068 2.68412C7.0225 2.85659 7.25889 3.02868 7.41812 3.15606C7.44827 3.18018 7.47559 3.20265 7.5 3.22315V12.7031C7.3502 12.6428 7.18114 12.5785 6.99654 12.5142C6.2686 12.2608 5.27107 11.9982 4.2491 12C3.22629 12.0018 2.22825 12.2713 1.5003 12.5302C1.31699 12.5954 1.14901 12.6605 1 12.7217ZM10.0945 13.2278L13.625 14.0302V13.2978C13.0525 13.1314 12.3969 13.0012 11.7491 13C11.1832 12.999 10.6115 13.0952 10.0945 13.2278ZM4.2509 13C4.81678 12.999 5.38852 13.0952 5.90553 13.2278L2.375 14.0302V13.2978C2.94746 13.1314 3.60313 13.0012 4.2509 13ZM8.5 12.7031C8.6498 12.6428 8.81886 12.5785 9.00346 12.5142C9.7314 12.2608 10.7289 11.9982 11.7509 12C12.7737 12.0018 13.7717 12.2713 14.4997 12.5302C14.683 12.5954 14.851 12.6605 15 12.7217V2.7875L14.9952 2.78493C14.8355 2.69977 14.5968 2.58385 14.2908 2.46724C13.6778 2.23372 12.8011 2 11.75 2C10.7369 2 9.88504 2.338 9.27932 2.68412C8.9775 2.85659 8.74111 3.02868 8.58188 3.15606C8.55173 3.18018 8.52441 3.20265 8.5 3.22315V12.7031Z" fill="#0E1011"/>
</svg>
