<svg viewBox="0 0 12 12" fill="none" xmlns="http://www.w3.org/2000/svg">
<path fill-rule="evenodd" clip-rule="evenodd" d="M6 0C4.34325 0 2.84274 0.671983 1.75736 1.75736C0.671983 2.84274 0 4.34325 0 6C0 9.31371 2.68629 12 6 12C7.65675 12 9.15726 11.328 10.2426 10.2426C10.3891 10.0962 10.3891 9.85876 10.2426 9.71231C10.0962 9.56586 9.85876 9.56586 9.71231 9.71231C8.76184 10.6628 7.44985 11.25 6 11.25C3.1005 11.25 0.75 8.8995 0.75 6C0.75 4.55015 1.33722 3.23816 2.28769 2.28769C3.23816 1.33722 4.55015 0.75 6 0.75C8.8995 0.75 11.25 3.1005 11.25 6V6.5625C11.25 7.28737 10.6624 7.875 9.9375 7.875C9.21263 7.875 8.625 7.28737 8.625 6.5625V3.75C8.625 3.54289 8.45711 3.375 8.25 3.375C8.04289 3.375 7.875 3.54289 7.875 3.75V4.16288C7.39856 3.67668 6.73451 3.375 6 3.375C4.55025 3.375 3.375 4.55025 3.375 6C3.375 7.44975 4.55025 8.625 6 8.625C6.87262 8.625 7.64579 8.19921 8.12309 7.54405C8.47209 8.18784 9.15374 8.625 9.9375 8.625C11.0766 8.625 12 7.70159 12 6.5625V6C12 2.68629 9.31371 0 6 0ZM7.875 6C7.875 4.96447 7.03553 4.125 6 4.125C4.96447 4.125 4.125 4.96447 4.125 6C4.125 7.03553 4.96447 7.875 6 7.875C7.03553 7.875 7.875 7.03553 7.875 6Z" fill="#0E1011"/>
</svg>
