<svg viewBox="0 0 12 12" fill="none" xmlns="http://www.w3.org/2000/svg">
<path fill-rule="evenodd" clip-rule="evenodd" d="M6 12C9.31371 12 12 9.31371 12 6C12 2.68629 9.31371 0 6 0C2.68629 0 0 2.68629 0 6C0 9.31371 2.68629 12 6 12ZM4.125 7.87499C3.08946 6.83945 3.08946 5.16052 4.125 4.12498C5.16053 3.08944 6.83947 3.08944 7.875 4.12498C8.91054 5.16052 8.91054 6.83945 7.875 7.87499C6.83947 8.91052 5.16053 8.91052 4.125 7.87499ZM10.0152 2.51517C10.1616 2.36872 10.1616 2.13128 10.0152 1.98484C9.86872 1.83839 9.63128 1.83839 9.48484 1.98484L8.37506 3.09461C8.22862 3.24106 8.22862 3.4785 8.37506 3.62494C8.52151 3.77139 8.75895 3.77139 8.90539 3.62494L10.0152 2.51517ZM2.51516 1.98484C2.36872 1.83839 2.13128 1.83839 1.98483 1.98484C1.83839 2.13128 1.83839 2.36872 1.98483 2.51517L3.09461 3.62494C3.24105 3.77139 3.47849 3.77139 3.62494 3.62494C3.77138 3.4785 3.77138 3.24106 3.62494 3.09461L2.51516 1.98484ZM8.90539 8.37507C8.75895 8.22862 8.52151 8.22862 8.37506 8.37507C8.22862 8.52151 8.22862 8.75895 8.37506 8.9054L9.48484 10.0152C9.63128 10.1616 9.86872 10.1616 10.0152 10.0152C10.1616 9.86873 10.1616 9.63129 10.0152 9.48484L8.90539 8.37507ZM3.62494 8.9054C3.77138 8.75895 3.77138 8.52151 3.62494 8.37507C3.47849 8.22862 3.24105 8.22862 3.09461 8.37507L1.98483 9.48484C1.83839 9.63129 1.83839 9.86872 1.98483 10.0152C2.13128 10.1616 2.36872 10.1616 2.51516 10.0152L3.62494 8.9054Z" fill="#0E1011"/>
</svg>
