<svg viewBox="0 0 16 16" fill="none" xmlns="http://www.w3.org/2000/svg">
<path d="M2.07817 5.23172C2.22643 4.99875 2.53547 4.93007 2.76844 5.07832L7.99616 8.40505L13.0723 5.08183C13.3033 4.93058 13.6132 4.99525 13.7645 5.22629C13.9157 5.45732 13.8511 5.76723 13.62 5.91848L8.00385 9.59526L2.23156 5.92199C1.99859 5.77373 1.92992 5.46469 2.07817 5.23172Z" fill="#0E1011"/>
<path fill-rule="evenodd" clip-rule="evenodd" d="M0 4.5C0 3.11929 1.11929 2 2.5 2H13.5C14.8807 2 16 3.11929 16 4.5V11.5C16 12.8807 14.8807 14 13.5 14H2.5C1.11929 14 0 12.8807 0 11.5V4.5ZM2.5 3H13.5C14.3284 3 15 3.67157 15 4.5V11.5C15 12.3284 14.3284 13 13.5 13H2.5C1.67157 13 1 12.3284 1 11.5V4.5C1 3.67157 1.67157 3 2.5 3Z" fill="#0E1011"/>
</svg>
