<svg viewBox="0 0 12 12" fill="none" xmlns="http://www.w3.org/2000/svg">
<path fill-rule="evenodd" clip-rule="evenodd" d="M3.40609 0.109835C3.47641 0.0395088 3.57179 0 3.67125 0H8.32875C8.42821 0 8.52359 0.0395088 8.59391 0.109835L11.8902 3.40609C11.9605 3.47641 12 3.57179 12 3.67125V8.32875C12 8.42821 11.9605 8.52359 11.8902 8.59391L8.59391 11.8902C8.52359 11.9605 8.42821 12 8.32875 12H3.67125C3.57179 12 3.47641 11.9605 3.40609 11.8902L0.109835 8.59391C0.0395088 8.52359 0 8.42821 0 8.32875V3.67125C0 3.57179 0.0395088 3.47641 0.109835 3.40609L3.40609 0.109835ZM3.82658 0.75L0.75 3.82658V8.17342L3.82658 11.25H8.17342L11.25 8.17342V3.82658L8.17342 0.75H3.82658Z" fill="#0E1011"/>
<path d="M0.75 3.82658L3.82658 0.75H8.17342L11.25 3.82658V8.17342L8.17342 11.25H3.82658L0.75 8.17342V3.82658Z" fill="#0E1011"/>
</svg>
