<svg viewBox="0 0 12 12" fill="none" xmlns="http://www.w3.org/2000/svg">
<path d="M3.75 4.5C3.75 4.08579 4.08579 3.75 4.5 3.75C4.91421 3.75 5.25 4.08579 5.25 4.5C5.25 4.91421 4.91421 5.25 4.5 5.25C4.08579 5.25 3.75 4.91421 3.75 4.5Z" fill="#0E1011"/>
<path d="M6.75 4.5C6.75 4.08579 7.08579 3.75 7.5 3.75C7.91421 3.75 8.25 4.08579 8.25 4.5C8.25 4.91421 7.91421 5.25 7.5 5.25C7.08579 5.25 6.75 4.91421 6.75 4.5Z" fill="#0E1011"/>
<path d="M4.125 7.5C3.91789 7.5 3.75 7.66789 3.75 7.875C3.75 8.08211 3.91789 8.25 4.125 8.25H7.875C8.08211 8.25 8.25 8.08211 8.25 7.875C8.25 7.66789 8.08211 7.5 7.875 7.5H4.125Z" fill="#0E1011"/>
<path fill-rule="evenodd" clip-rule="evenodd" d="M0.1875 6C0.1875 2.78984 2.78984 0.1875 6 0.1875C9.21016 0.1875 11.8125 2.78984 11.8125 6C11.8125 9.21016 9.21016 11.8125 6 11.8125C2.78984 11.8125 0.1875 9.21016 0.1875 6ZM6 0.9375C3.20406 0.9375 0.9375 3.20406 0.9375 6C0.9375 8.79594 3.20406 11.0625 6 11.0625C8.79594 11.0625 11.0625 8.79594 11.0625 6C11.0625 3.20406 8.79594 0.9375 6 0.9375Z" fill="#0E1011"/>
</svg>
