<svg viewBox="0 0 16 16" fill="none" xmlns="http://www.w3.org/2000/svg">
<path fill-rule="evenodd" clip-rule="evenodd" d="M15.2943 8.00004C15.2943 12.0314 12.0262 15.2995 7.99479 15.2995C3.9634 15.2995 0.695312 12.0314 0.695312 8.00004C0.695312 3.96865 3.9634 0.700562 7.99479 0.700562C12.0262 0.700562 15.2943 3.96865 15.2943 8.00004ZM14.2943 8.00004C14.2943 11.4791 11.4739 14.2995 7.99479 14.2995C4.51569 14.2995 1.69531 11.4791 1.69531 8.00004C1.69531 5.76453 2.85977 3.801 4.61522 2.68291L4.65205 2.74432V3.04718L4.53646 3.40511C4.46903 3.51524 4.33418 3.74101 4.33418 3.76303C4.33418 3.78506 4.29565 4.12096 4.27638 4.28616V4.67162L4.33418 4.91942L4.36307 5.16721L4.44976 5.41501L4.53646 5.69034L4.56535 5.828H4.88323L5.1144 5.9106L5.2011 6.10333L5.46117 6.57139L5.54786 6.73659L5.92353 6.79165L6.2125 6.84672L6.44368 6.95685L6.73266 7.14958L6.99273 7.42491C7.02163 7.45244 7.09098 7.51301 7.13722 7.53504C7.18346 7.55707 7.32987 7.54422 7.3973 7.53504C7.46472 7.57175 7.59958 7.65068 7.59958 7.6727C7.59958 7.68647 7.62848 7.73465 7.65737 7.78284C7.68627 7.83102 7.71517 7.8792 7.71517 7.89297C7.71517 7.90023 7.71718 7.91132 7.71961 7.92473C7.72639 7.96216 7.73644 8.01762 7.71517 8.05817C7.69986 8.08733 7.63593 8.13194 7.57916 8.17154C7.52875 8.20672 7.48399 8.23795 7.48399 8.2509V8.44363L7.59958 8.85662L7.71517 9.07688V9.35221C7.71517 9.36965 7.70937 9.38708 7.70329 9.40539C7.69016 9.44491 7.67567 9.4885 7.71517 9.54494C7.74589 9.58885 7.76845 9.64055 7.78718 9.68347C7.80369 9.72129 7.81722 9.75231 7.83076 9.76521C7.85965 9.79274 7.88855 9.82027 7.94635 9.8478C7.96785 9.85805 7.98935 9.86448 8.01234 9.87135C8.05113 9.88295 8.09421 9.89584 8.14863 9.9304C8.30837 10.0217 8.38864 10.0541 8.43825 10.0742C8.47838 10.0904 8.49845 10.0985 8.52429 10.1231C8.56282 10.1598 8.56282 10.1598 8.57567 10.1802C8.58209 10.1904 8.59176 10.2058 8.61099 10.2333C8.63424 10.2665 8.65282 10.273 8.66672 10.2778C8.68736 10.2851 8.69768 10.2887 8.69768 10.3709V11.4172L8.95775 12.0229L9.16004 12.6837L9.21783 13.3169L9.47791 13.5923L9.76688 13.7575L9.91137 13.8125L10.0559 13.7575V13.5923L9.96916 13.3995L9.91137 13.2344L9.85357 13.0967V12.904L9.91137 12.7938L10.0559 12.6286L10.2581 12.2982V11.7751L10.3159 11.4722L11.2984 10.7564L11.6163 10.426L11.5874 9.62754L11.7319 9.43481L11.9053 9.32468L12.0209 9.21455V8.93922L11.9053 8.85662L11.414 8.71896L11.1251 8.58129L10.7783 8.36103L10.5182 8.05817L10.3737 7.8379L10.1714 7.6727L9.65129 7.50751L9.24673 7.28724L8.98665 7.20465L8.61099 7.14958L7.97524 7.17711L7.77296 7.14958L7.65737 7.03945L7.54178 6.79165L7.28171 6.73659L7.13722 6.70905L6.99273 6.62646L7.05053 6.26853L7.07943 6.18593L7.05053 6.10333H6.90604L6.76155 6.13086H6.64597L6.38589 6.18593H6.2125L6.15471 6.02073L6.18361 5.80047L6.32809 5.49761L6.58817 5.27734L6.87714 5.24981H7.19501L7.48399 5.35994L7.77296 5.55267H7.83076L7.94635 5.49761L7.97524 5.41501L8.00414 4.89188L8.61099 4.45136L8.98665 4.09343L9.30452 3.84563L9.50681 3.7355L9.96916 3.68044L10.1714 3.62537L10.2003 3.5703V3.46017L10.1714 3.37757L10.1136 3.29497V3.21238L10.1714 3.15731H10.3737L10.5471 3.18484L10.7205 3.12978L10.8361 2.93705L10.8939 2.79938L10.6627 2.68925V2.44146L10.6049 2.33132H10.4315L10.3159 2.27626L10.1136 2.19366L9.96916 2.05599L9.82468 2.08353L9.5646 2.24872L9.24673 2.44146L8.87106 2.57912L8.52429 2.63419L8.32201 2.57912L8.20642 2.33132L8.26422 2.08353L8.37981 1.9734L8.72658 1.83573L8.89503 1.7644C9.77507 1.89032 10.5964 2.19814 11.3198 2.64854L11.2118 2.85445L11.154 3.07471L11.3273 3.12978L11.5007 3.15731L11.8475 3.07471L11.9107 3.06521C13.363 4.21923 14.2943 6.00088 14.2943 8.00004Z" fill="#0E1011"/>
</svg>
