<svg viewBox="0 0 12 12" fill="none" xmlns="http://www.w3.org/2000/svg">
<path d="M7.42298 0.189826C7.21713 0.166959 7.03173 0.315288 7.00886 0.521128C6.986 0.726969 7.13433 0.912373 7.34017 0.93524C8.27025 1.03857 9.13756 1.45507 9.79969 2.11637C10.4618 2.77767 10.8794 3.64445 10.9839 4.57441C11.007 4.78022 11.1926 4.92831 11.3984 4.90519C11.6043 4.88206 11.7524 4.69647 11.7292 4.49066C11.6057 3.39162 11.1122 2.36724 10.3297 1.5857C9.54717 0.80417 8.52217 0.311937 7.42298 0.189826Z" fill="#0E1011"/>
<path d="M7.45338 2.19447C7.25011 2.15481 7.05317 2.28745 7.01351 2.49072C6.97385 2.694 7.10649 2.89093 7.30976 2.93059C7.72487 3.01158 8.10638 3.2146 8.40544 3.51367C8.7045 3.81273 8.90752 4.19423 8.98851 4.60934C9.02817 4.81262 9.22511 4.94525 9.42838 4.90559C9.63165 4.86593 9.76429 4.669 9.72463 4.46572C9.61506 3.9041 9.34038 3.38795 8.93577 2.98334C8.53115 2.57872 8.015 2.30405 7.45338 2.19447Z" fill="#0E1011"/>
<path fill-rule="evenodd" clip-rule="evenodd" d="M2.45317 6.97265C1.62788 5.765 1.06572 3.95044 0.849273 2.24559C0.744932 1.42376 1.4216 0.750033 2.25003 0.750033H4.20003C4.61425 0.750033 4.95032 1.08619 4.98647 1.49882C5.05032 2.22768 5.1965 3.08312 5.41258 3.66242C5.46859 3.81256 5.44109 3.98474 5.32778 4.09804L4.68599 4.73983C4.566 4.85982 4.54066 5.04602 4.63143 5.18939C5.21217 6.10665 6.00025 6.87961 6.92979 7.44239C7.07266 7.52889 7.25519 7.50224 7.37328 7.38415L8.03113 6.7263C8.14204 6.61539 8.30964 6.58645 8.45786 6.63776C9.00558 6.82738 9.81236 6.95626 10.5012 7.01457C10.914 7.04951 11.25 7.38582 11.25 7.80003V9.75003C11.25 10.5785 10.5763 11.2549 9.75442 11.1513C8.09214 10.9417 6.3204 10.4063 5.13683 9.6206C4.08058 8.9194 3.16813 8.01886 2.45317 6.97265ZM4.15566 4.2095C3.80085 4.56431 3.70943 5.13518 3.99776 5.59058C4.64049 6.60576 5.51248 7.46104 6.54136 8.08396C6.99496 8.35859 7.55433 8.26377 7.90361 7.91448L8.40858 7.40952C9.01966 7.59222 9.79581 7.70755 10.438 7.7619C10.4598 7.76375 10.4791 7.77382 10.4913 7.78646C10.4968 7.79219 10.4996 7.79802 10.4996 7.79802L10.5 7.80003V9.75003C10.5 10.1904 10.1617 10.4467 9.84824 10.4072C8.25293 10.2061 6.60544 9.69532 5.55164 8.99575C4.57593 8.34802 3.73287 7.51597 3.07239 6.54949C2.33695 5.47331 1.80087 3.786 1.5933 2.15113C1.55361 1.83855 1.80938 1.50003 2.25003 1.50003H4.20003L4.20198 1.50042C4.20198 1.50042 4.20791 1.50328 4.2138 1.50897C4.22679 1.52153 4.23734 1.54152 4.23933 1.56427C4.29925 2.24831 4.43078 3.07609 4.64051 3.72465L4.15566 4.2095Z" fill="#0E1011"/>
</svg>
