<svg viewBox="0 0 12 12" fill="none" xmlns="http://www.w3.org/2000/svg">
<path fill-rule="evenodd" clip-rule="evenodd" d="M6.431 0.147726C6.15506 0.0332778 5.84494 0.0332776 5.569 0.147726L0.693998 2.16967C0.273872 2.34392 0 2.75401 0 3.20884V8.81729C0 9.27212 0.273871 9.6822 0.693998 9.85645L5.569 11.8784C5.84494 11.9929 6.15506 11.9929 6.431 11.8784L11.306 9.85645C11.7261 9.6822 12 9.27212 12 8.81729V3.20884C12 2.75401 11.7261 2.34392 11.306 2.16967L6.431 0.147726ZM5.85633 0.840502C5.94831 0.802352 6.05169 0.802352 6.14367 0.840502L10.554 2.66974L8.63004 3.49431L4.27121 1.49795L5.85633 0.840502ZM3.32603 1.88997L1.44596 2.66974L6 4.62147L7.69959 3.89307L3.32603 1.88997ZM0.750593 3.1877C0.750199 3.19471 0.75 3.20176 0.75 3.20884V8.81729C0.75 8.9689 0.84129 9.1056 0.981333 9.16368L5.625 11.0897V5.27673L0.750593 3.1877ZM6.375 11.0897L11.0187 9.16368C11.1587 9.1056 11.25 8.9689 11.25 8.81729V3.20884C11.25 3.20176 11.2498 3.19471 11.2494 3.1877L6.375 5.27673V11.0897Z" fill="#0E1011"/>
</svg>
