<svg viewBox="0 0 12 12" fill="none" xmlns="http://www.w3.org/2000/svg">
<path fill-rule="evenodd" clip-rule="evenodd" d="M3.6875 10.2501C3.16973 10.2501 2.75 9.83032 2.75 9.31256V5.81256C2.75 5.29479 3.16973 4.87506 3.6875 4.87506H3.875C4.08211 4.87506 4.25 4.70716 4.25 4.50006C4.25 4.29295 4.08211 4.12506 3.875 4.12506H3.6875C2.75552 4.12506 2 4.88058 2 5.81256V9.31256C2 10.2445 2.75552 11.0001 3.6875 11.0001H8.3125C9.24448 11.0001 10 10.2445 10 9.31256V5.81256C10 4.88058 9.24448 4.12506 8.3125 4.12506H8.125C7.91789 4.12506 7.75 4.29295 7.75 4.50006C7.75 4.70716 7.91789 4.87506 8.125 4.87506H8.3125C8.83027 4.87506 9.25 5.29479 9.25 5.81256V9.31256C9.25 9.83032 8.83027 10.2501 8.3125 10.2501H3.6875ZM6 8.25006C6.20711 8.25006 6.375 8.08216 6.375 7.87506V1.65539L7.98483 3.26522C8.13128 3.41167 8.36872 3.41167 8.51517 3.26522C8.66161 3.11877 8.66161 2.88134 8.51517 2.73489L6 0.219727L3.48484 2.73489C3.33839 2.88134 3.33839 3.11877 3.48484 3.26522C3.63128 3.41167 3.86872 3.41167 4.01516 3.26522L5.625 1.65539V7.87506C5.625 8.08216 5.79289 8.25006 6 8.25006Z" fill="#0E1011"/>
</svg>
