<svg viewBox="0 0 12 12" fill="none" xmlns="http://www.w3.org/2000/svg">
<path d="M0.875 5.5C0.875 3.49797 2.49797 1.875 4.5 1.875C5.85739 1.875 7.04106 2.6209 7.66261 3.72696L7.79219 3.95755L8.05289 3.91286C8.19795 3.88799 8.34731 3.87499 8.5 3.87499C9.94975 3.87499 11.125 5.05025 11.125 6.49999C11.125 7.80031 10.1792 8.88045 8.93795 9.08868L9.06205 9.82835C10.6585 9.5605 11.875 8.17268 11.875 6.49999C11.875 4.63603 10.364 3.12499 8.5 3.12499C8.39359 3.12499 8.28825 3.12993 8.18421 3.1396C7.40675 1.92853 6.04743 1.125 4.5 1.125C2.08375 1.125 0.125 3.08375 0.125 5.5C0.125 7.73132 1.79507 9.572 3.9536 9.84117L4.0464 9.09693C2.25861 8.874 0.875 7.34829 0.875 5.5Z" fill="#0E1011"/>
<path d="M5.25 8V11H5.75V8H5.25Z" fill="#0E1011"/>
<path d="M7.25 9V12H7.75V9H7.25Z" fill="#0E1011"/>
</svg>
