<svg viewBox="0 0 12 12" fill="none" xmlns="http://www.w3.org/2000/svg">
<path d="M3.64017 8.89017C3.49372 9.03661 3.25628 9.03661 3.10983 8.89017C2.96339 8.74372 2.96339 8.50628 3.10983 8.35984L5.73484 5.73484C5.88128 5.58839 6.11872 5.58839 6.26516 5.73484L8.89016 8.35984C9.03661 8.50628 9.03661 8.74372 8.89016 8.89017C8.74372 9.03661 8.50628 9.03661 8.35984 8.89017L6 6.53033L3.64017 8.89017Z" fill="#0E1011"/>
<path d="M3.64017 5.89017C3.49372 6.03661 3.25628 6.03661 3.10983 5.89017C2.96339 5.74372 2.96339 5.50628 3.10983 5.35984L5.73484 2.73483C5.88128 2.58839 6.11872 2.58839 6.26516 2.73483L8.89016 5.35984C9.03661 5.50628 9.03661 5.74372 8.89016 5.89017C8.74372 6.03661 8.50628 6.03661 8.35984 5.89017L6 3.53033L3.64017 5.89017Z" fill="#0E1011"/>
</svg>
