<svg viewBox="0 0 16 16" fill="none" xmlns="http://www.w3.org/2000/svg">
<path fill-rule="evenodd" clip-rule="evenodd" d="M9.92131 7.59154L2.78834 2.5565C2.45713 2.32271 2 2.55958 2 2.96499V13.0351C2 13.4405 2.45713 13.6773 2.78834 13.4435L9.92131 8.40851C10.2035 8.2093 10.2035 7.79075 9.92131 7.59154ZM8.76595 8.00003L3 12.0701V3.92995L8.76595 8.00003Z" fill="#0E1011"/>
<path d="M14 3.00003C14 2.72388 13.7761 2.50003 13.5 2.50003C13.2239 2.50003 13 2.72388 13 3.00003V13C13 13.2762 13.2239 13.5 13.5 13.5C13.7761 13.5 14 13.2762 14 13V3.00003Z" fill="#0E1011"/>
</svg>
