<svg viewBox="0 0 12 12" fill="none" xmlns="http://www.w3.org/2000/svg">
<path fill-rule="evenodd" clip-rule="evenodd" d="M0.109835 9.64016C0.256282 9.78661 0.493718 9.78661 0.640165 9.64016L4.875 5.40533L6.85983 7.39016C7.00628 7.53661 7.24372 7.53661 7.39017 7.39016L11.25 3.53033V5.625C11.25 5.83211 11.4179 6 11.625 6C11.8321 6 12 5.83211 12 5.625V2.625C12 2.41789 11.8321 2.25 11.625 2.25H8.625C8.41789 2.25 8.25 2.41789 8.25 2.625C8.25 2.83211 8.41789 3 8.625 3H10.7197L7.125 6.59467L5.14016 4.60984C4.99372 4.46339 4.75628 4.46339 4.60984 4.60984L0.109835 9.10983C-0.0366117 9.25628 -0.0366117 9.49372 0.109835 9.64016Z" fill="#0E1011"/>
</svg>
