<svg viewBox="0 0 16 16" fill="none" xmlns="http://www.w3.org/2000/svg">
<path d="M12 10C12.5523 10 13 9.55228 13 9C13 8.44772 12.5523 8 12 8C11.4477 8 11 8.44772 11 9C11 9.55228 11.4477 10 12 10Z" fill="#0E1011"/>
<path fill-rule="evenodd" clip-rule="evenodd" d="M2 1C1.74796 1 1.50376 1.06335 1.28777 1.17987C0.529624 1.51215 0 2.26923 0 3.15V12.5C0 13.8807 1.11929 15 2.5 15H13.5C14.8807 15 16 13.8807 16 12.5V5.5C16 4.68209 15.6072 3.95592 15 3.49982V3.25C15 2.00736 13.9926 1 12.75 1H2ZM1.73023 2.07902C1.86027 2.02801 2.00187 2 2.15 2H12.75C13.3711 2 13.8865 2.45305 13.9836 3.04673C13.8271 3.01607 13.6654 3 13.5 3H2C1.58798 3 1.35279 2.52962 1.6 2.2C1.63631 2.15159 1.68056 2.11084 1.73023 2.07902ZM1 3.62085V12.5C1 13.3284 1.67157 14 2.5 14H13.5C14.3284 14 15 13.3284 15 12.5V5.5C15 4.67157 14.3284 4 13.5 4H2C1.60117 4 1.25758 3.85309 1 3.62085Z" fill="#0E1011"/>
</svg>
