<svg viewBox="0 0 16 16" fill="none" xmlns="http://www.w3.org/2000/svg">
<path fill-rule="evenodd" clip-rule="evenodd" d="M0.396441 0.396447C0.591704 0.201184 0.908286 0.201184 1.10355 0.396447L15.6035 14.8964C15.7988 15.0917 15.7988 15.4083 15.6035 15.6036C15.4083 15.7988 15.0917 15.7988 14.8964 15.6036L13.1307 13.8378C12.7717 13.9434 12.3921 14 12 14H6C2.68629 14 0 11.3137 0 8C0 6.01271 0.966368 4.25159 2.45309 3.1602L0.396442 1.10355C0.201179 0.908291 0.201179 0.591709 0.396441 0.396447ZM5.47759 2.02246C5.64986 2.00758 5.8241 2 6 2C8.61819 2 10.8437 3.67659 11.6634 6.01399C11.7744 6.00472 11.8867 6 12 6C14.2091 6 16 7.79086 16 10C16 10.8116 15.7578 11.5681 15.3416 12.1994L15.0041 12.7112L4.40773 2.11483L5.47759 2.02246Z" fill="#0E1011"/>
</svg>
