<svg viewBox="0 0 16 16" fill="none" xmlns="http://www.w3.org/2000/svg">
<path fill-rule="evenodd" clip-rule="evenodd" d="M6.26407 4.55916C6.42665 4.47215 6.62392 4.48169 6.77735 4.58398L11.2773 7.58398C11.4164 7.67671 11.5 7.83282 11.5 8C11.5 8.16718 11.4164 8.32329 11.2773 8.41603L6.77735 11.416C6.62392 11.5183 6.42665 11.5278 6.26407 11.4408C6.10149 11.3538 6 11.1844 6 11V5C6 4.8156 6.10149 4.64617 6.26407 4.55916ZM7 10.0657L10.0986 8L7 5.93426V10.0657Z" fill="#0E1011"/>
<path fill-rule="evenodd" clip-rule="evenodd" d="M15.2943 8.00004C15.2943 12.0314 12.0262 15.2995 7.99479 15.2995C3.9634 15.2995 0.695312 12.0314 0.695312 8.00004C0.695312 3.96865 3.9634 0.700562 7.99479 0.700562C12.0262 0.700562 15.2943 3.96865 15.2943 8.00004ZM14.2943 8.00004C14.2943 11.4791 11.4739 14.2995 7.99479 14.2995C4.51569 14.2995 1.69531 11.4791 1.69531 8.00004C1.69531 4.52094 4.51569 1.70056 7.99479 1.70056C11.4739 1.70056 14.2943 4.52094 14.2943 8.00004Z" fill="#0E1011"/>
</svg>
