<svg viewBox="0 0 12 12" fill="none" xmlns="http://www.w3.org/2000/svg">
<path d="M7.28033 9.75003H2.78033L0.640165 11.8902C0.493718 12.0366 0.256282 12.0366 0.109835 11.8902C-0.0366117 11.7438 -0.0366117 11.5063 0.109835 11.3599L2.25 9.2197V4.7197L5.86351 1.10619C7.18153 -0.211829 9.31846 -0.21183 10.6365 1.10619L10.8938 1.36355C12.2119 2.68157 12.2119 4.8185 10.8938 6.13652L10.2803 6.75003H5.78033L10.2027 2.3277C10.3491 2.18125 10.3491 1.94381 10.2027 1.79737C10.0562 1.65092 9.81878 1.65092 9.67233 1.79737L2.35983 9.10986C2.21339 9.25631 2.21339 9.49375 2.35983 9.64019C2.50628 9.78664 2.74372 9.78664 2.89016 9.64019L5.03033 7.50003H9.53033L7.28033 9.75003Z" fill="#0E1011"/>
</svg>
