<svg viewBox="0 0 12 12" fill="none" xmlns="http://www.w3.org/2000/svg">
<path fill-rule="evenodd" clip-rule="evenodd" d="M6 0.875C4.8264 0.875 3.875 1.82639 3.875 3V5H9.5C10.3284 5 11 5.67157 11 6.5V10.5C11 11.3284 10.3284 12 9.5 12H3.5C2.67157 12 2 11.3284 2 10.5V6.5C2 5.80106 2.47804 5.21377 3.125 5.04726V3C3.125 1.41218 4.41218 0.125 6 0.125H7C8.58782 0.125 9.875 1.41218 9.875 3V3.5C9.875 3.70711 9.70711 3.875 9.5 3.875C9.29289 3.875 9.125 3.70711 9.125 3.5V3C9.125 1.82639 8.1736 0.875 7 0.875H6ZM6.5 9.5C7.05228 9.5 7.5 9.05229 7.5 8.5C7.5 7.94772 7.05228 7.5 6.5 7.5C5.94772 7.5 5.5 7.94772 5.5 8.5C5.5 9.05229 5.94772 9.5 6.5 9.5Z" fill="#0E1011"/>
</svg>
