<svg viewBox="0 0 12 12" fill="none" xmlns="http://www.w3.org/2000/svg">
<path d="M7.42272 0.189826C7.21688 0.166959 7.03147 0.315288 7.0086 0.521128C6.98574 0.726969 7.13407 0.912373 7.33991 0.93524C8.26999 1.03857 9.1373 1.45507 9.79943 2.11637C10.4616 2.77767 10.8792 3.64445 10.9837 4.57441C11.0068 4.78022 11.1924 4.92831 11.3982 4.90519C11.604 4.88206 11.7521 4.69647 11.729 4.49066C11.6055 3.39162 11.1119 2.36724 10.3294 1.58571C9.54691 0.804171 8.52191 0.311937 7.42272 0.189826Z" fill="#0E1011"/>
<path d="M7.45312 2.19447C7.24985 2.15481 7.05291 2.28745 7.01325 2.49072C6.97359 2.694 7.10623 2.89093 7.3095 2.93059C7.72461 3.01158 8.10612 3.2146 8.40518 3.51367C8.70424 3.81273 8.90726 4.19423 8.98825 4.60934C9.02791 4.81262 9.22485 4.94525 9.42812 4.90559C9.6314 4.86593 9.76403 4.669 9.72437 4.46572C9.6148 3.9041 9.34012 3.38795 8.93551 2.98334C8.53089 2.57872 8.01474 2.30405 7.45312 2.19447Z" fill="#0E1011"/>
<path d="M11.2497 9.75005C11.2497 10.5785 10.5748 11.2613 9.75464 11.1444C8.39079 10.95 7.11141 10.4935 5.96911 9.82754C4.44012 8.93617 3.15674 7.66954 2.24521 6.1539C1.53961 4.98067 1.05682 3.65824 0.855371 2.24513C0.738456 1.42499 1.42131 0.750046 2.24974 0.750046H3.74974C4.16395 0.750046 4.49535 1.08685 4.54077 1.49857C4.61329 2.15592 4.78021 2.78483 5.02766 3.37145L3.8169 4.58221C3.70052 4.69859 3.67291 4.87771 3.75453 5.02065C4.54567 6.40616 5.70991 7.55113 7.11041 8.3187C7.25269 8.39668 7.42862 8.36804 7.54335 8.25331L8.76761 7.02905C9.31412 7.24527 9.8956 7.3922 10.5012 7.45901C10.9129 7.50443 11.2497 7.83583 11.2497 8.25005V9.75005Z" fill="#0E1011"/>
</svg>
