<svg viewBox="0 0 12 12" fill="none" xmlns="http://www.w3.org/2000/svg">
<path fill-rule="evenodd" clip-rule="evenodd" d="M0.800434 6C0.8601 6.10673 0.949068 6.25918 1.06634 6.44228C1.30536 6.81546 1.65949 7.31204 2.11983 7.80716C3.04757 8.80499 4.36129 9.75 6.00002 9.75C7.63875 9.75 8.95248 8.80499 9.88022 7.80716C10.3406 7.31204 10.6947 6.81546 10.9337 6.44228C11.051 6.25918 11.1399 6.10673 11.1996 6C11.1399 5.89327 11.051 5.74082 10.9337 5.55772C10.6947 5.18454 10.3406 4.68796 9.88022 4.19284C8.95248 3.19501 7.63875 2.25 6.00002 2.25C4.36129 2.25 3.04757 3.19501 2.11983 4.19284C1.65949 4.68796 1.30536 5.18454 1.06634 5.55772C0.949068 5.74082 0.8601 5.89327 0.800434 6ZM11.625 6C11.961 5.83341 11.9609 5.83328 11.9608 5.83313L11.9602 5.83174L11.9586 5.82857L11.9531 5.81783C11.9485 5.80875 11.9419 5.79586 11.9332 5.77942C11.916 5.74653 11.8907 5.6994 11.8576 5.64006C11.7915 5.52144 11.6937 5.3537 11.5653 5.15321C11.3089 4.75296 10.928 4.21829 10.4295 3.68216C9.43961 2.61749 7.94084 1.5 6.00002 1.5C4.05921 1.5 2.56043 2.61749 1.57056 3.68216C1.07209 4.21829 0.691136 4.75296 0.434775 5.15321C0.30636 5.3537 0.208592 5.52144 0.142415 5.64006C0.109313 5.6994 0.084073 5.74653 0.0668157 5.77942C0.0581858 5.79586 0.0515483 5.80875 0.0469181 5.81783L0.0414788 5.82857L0.0398909 5.83174L0.0393804 5.83276C0.039308 5.83291 0.0390592 5.83341 0.375023 6L0.0393804 5.83276C-0.012668 5.93772 -0.0129893 6.06163 0.0390592 6.16659L0.375023 6C0.0390592 6.16659 0.0389868 6.16645 0.0390592 6.16659L0.0398909 6.16826L0.0414788 6.17143L0.0469181 6.18217C0.0515483 6.19125 0.0581858 6.20414 0.0668157 6.22058C0.084073 6.25347 0.109313 6.3006 0.142415 6.35994C0.208592 6.47856 0.30636 6.6463 0.434775 6.84679C0.691136 7.24704 1.07209 7.78171 1.57056 8.31784C2.56043 9.38251 4.05921 10.5 6.00002 10.5C7.94084 10.5 9.43961 9.38251 10.4295 8.31784C10.928 7.78171 11.3089 7.24704 11.5653 6.84679C11.6937 6.6463 11.7915 6.47856 11.8576 6.35994C11.8907 6.3006 11.916 6.25347 11.9332 6.22058C11.9419 6.20414 11.9485 6.19125 11.9531 6.18217L11.9586 6.17143L11.9602 6.16826L11.9608 6.16687C11.9609 6.16672 11.961 6.16659 11.625 6ZM11.625 6L11.9608 6.16687C12.0129 6.06191 12.0129 5.93809 11.9608 5.83313L11.625 6ZM6.00002 4.53C5.1716 4.53 4.50002 5.20157 4.50002 6.03C4.50002 6.85843 5.1716 7.53 6.00002 7.53C6.82845 7.53 7.50002 6.85843 7.50002 6.03C7.50002 5.20157 6.82845 4.53 6.00002 4.53ZM3.75002 6.03C3.75002 4.78736 4.75738 3.78 6.00002 3.78C7.24266 3.78 8.25002 4.78736 8.25002 6.03C8.25002 7.27264 7.24266 8.28 6.00002 8.28C4.75738 8.28 3.75002 7.27264 3.75002 6.03Z" fill="#0E1011"/>
</svg>
