<svg viewBox="0 0 12 12" fill="none" xmlns="http://www.w3.org/2000/svg">
<path d="M1.26923 0.778851C1.12896 0.720413 0.967293 0.752399 0.859846 0.859846C0.752399 0.967293 0.720413 1.12896 0.778851 1.26923L4.84087 11.0192C4.90087 11.1632 5.04374 11.255 5.19965 11.2498C5.35556 11.2445 5.49194 11.1433 5.54211 10.9956L6.68708 7.62458L9.36834 10.3058C9.49266 10.4302 9.66127 10.5 9.83709 10.5C10.2032 10.5 10.5 10.2032 10.5 9.83709C10.5 9.66127 10.4302 9.49266 10.3058 9.36834L7.62458 6.68708L10.9956 5.54211C11.1433 5.49194 11.2445 5.35556 11.2498 5.19965C11.255 5.04374 11.1632 4.90087 11.0192 4.84087L1.26923 0.778851Z" fill="#0E1011"/>
</svg>
