<svg width="80" height="80" viewBox="0 0 80 80" fill="none" xmlns="http://www.w3.org/2000/svg">
    <path d="M20 42.857H10c-5.523 0-10 4.478-10 10v-.059a24 24 0 0 1 7.03-16.97l.226-.227a24 24 0 0 1 16.97-7.03h13.631c2.761 0 5-2.209 5-4.97a12 12 0 0 1-3.514 8.485l-7.257 7.256a12 12 0 0 1-8.485 3.515H20Z" fill="#fff" fill-opacity=".7"/>
    <path d="M20 42.857H10c-5.523 0-10 4.478-10 10v-.059a24 24 0 0 1 7.03-16.97l.226-.227a24 24 0 0 1 16.97-7.03h13.631c2.761 0 5-2.209 5-4.97a12 12 0 0 1-3.514 8.485l-7.257 7.256a12 12 0 0 1-8.485 3.515H20Z" fill="url(#a)"/>
    <path d="M20 42.857H10c-5.523 0-10 4.478-10 10v-.059a24 24 0 0 1 7.03-16.97l.226-.227a24 24 0 0 1 16.97-7.03h13.631c2.761 0 5-2.209 5-4.97a12 12 0 0 1-3.514 8.485l-7.257 7.256a12 12 0 0 1-8.485 3.515H20Z" fill="url(#b)"/>
    <path d="m57.143 14.286 9.488-9.123C68.578 3.29 67.253 0 64.55 0H52.799a24 24 0 0 0-16.97 7.03l-.227.226a24 24 0 0 0-7.03 16.97v.06c0-5.523 4.478-10 10-10h18.572Z" fill="#fff" fill-opacity=".7"/>
    <path d="m57.143 14.286 9.488-9.123C68.578 3.29 67.253 0 64.55 0H52.799a24 24 0 0 0-16.97 7.03l-.227.226a24 24 0 0 0-7.03 16.97v.06c0-5.523 4.478-10 10-10h18.572Z" fill="url(#c)"/>
    <path d="M14.286 43.87v-1.013H10c-5.523 0-10 4.478-10 10v11.329c0 2.673 3.231 4.012 5.121 2.122l9.165-9.165V43.87Z" fill="#fff" fill-opacity=".2"/>
    <path d="M14.286 43.87v-1.013H10c-5.523 0-10 4.478-10 10v11.329c0 2.673 3.231 4.012 5.121 2.122l9.165-9.165V43.87Z" fill="url(#d)" fill-opacity=".3"/>
    <path d="M42.857 23.571v-9.285h-4.285c-5.523 0-10 4.477-10 10v4.285h9.285a5 5 0 0 0 5-5Z" fill="#fff" fill-opacity=".2"/>
    <path d="M42.857 23.571v-9.285h-4.285c-5.523 0-10 4.477-10 10v4.285h9.285a5 5 0 0 0 5-5Z" fill="url(#e)" fill-opacity=".3"/>
    <path d="m22.857 65.714-9.488 9.124C11.422 76.71 12.747 80 15.45 80h11.753a24 24 0 0 0 16.97-7.03l.227-.226a24 24 0 0 0 7.03-16.97v-.06c0 5.523-4.478 10-10 10H22.856Z" fill="#fff" fill-opacity=".7"/>
    <path d="m22.857 65.714-9.488 9.124C11.422 76.71 12.747 80 15.45 80h11.753a24 24 0 0 0 16.97-7.03l.227-.226a24 24 0 0 0 7.03-16.97v-.06c0 5.523-4.478 10-10 10H22.856Z" fill="url(#f)"/>
    <path d="M60 37.143h10c5.523 0 10-4.478 10-10v.059a24 24 0 0 1-7.03 16.97l-.226.227a24 24 0 0 1-16.97 7.03H42.142c-2.761 0-5 2.209-5 4.97a12 12 0 0 1 3.514-8.485l7.257-7.256a12 12 0 0 1 8.485-3.515H60Z" fill="#fff" fill-opacity=".7"/>
    <path d="M60 37.143h10c5.523 0 10-4.478 10-10v.059a24 24 0 0 1-7.03 16.97l-.226.227a24 24 0 0 1-16.97 7.03H42.142c-2.761 0-5 2.209-5 4.97a12 12 0 0 1 3.514-8.485l7.257-7.256a12 12 0 0 1 8.485-3.515H60Z" fill="url(#g)"/>
    <path d="M60 37.143h10c5.523 0 10-4.478 10-10v.059a24 24 0 0 1-7.03 16.97l-.226.227a24 24 0 0 1-16.97 7.03H42.142c-2.761 0-5 2.209-5 4.97a12 12 0 0 1 3.514-8.485l7.257-7.256a12 12 0 0 1 8.485-3.515H60Z" fill="url(#h)"/>
    <path d="M37.143 56.429v9.285h4.285c5.523 0 10-4.477 10-10V51.43h-9.285a5 5 0 0 0-5 5Z" fill="#fff" fill-opacity=".2"/>
    <path d="M37.143 56.429v9.285h4.285c5.523 0 10-4.477 10-10V51.43h-9.285a5 5 0 0 0-5 5Z" fill="url(#i)" fill-opacity=".3"/>
    <path d="M65.714 36.13v1.013H70c5.523 0 10-4.478 10-10v-11.33c0-2.672-3.231-4.01-5.121-2.12l-9.165 9.164V36.13Z" fill="#fff" fill-opacity=".2"/>
    <path d="M65.714 36.13v1.013H70c5.523 0 10-4.478 10-10v-11.33c0-2.672-3.231-4.01-5.121-2.12l-9.165 9.164V36.13Z" fill="url(#j)" fill-opacity=".3"/>
    <defs>
        <linearGradient id="a" x1="35" y1="28" x2="1" y2="45" gradientUnits="userSpaceOnUse">
            <stop offset=".322" stop-color="#fff" stop-opacity="0"/>
            <stop offset=".735" stop-color="#fff"/>
            <stop offset="1" stop-color="#fff" stop-opacity="0"/>
        </linearGradient>
        <linearGradient id="b" x1="36.5" y1="36.5" x2="22.5" y2="21.5" gradientUnits="userSpaceOnUse">
            <stop stop-color="#fff" stop-opacity="0"/>
            <stop offset=".175" stop-color="#fff"/>
            <stop offset=".457" stop-color="#fff" stop-opacity="0"/>
        </linearGradient>
        <linearGradient id="c" x1="73" y1="2" x2="40" y2="10" gradientUnits="userSpaceOnUse">
            <stop offset=".241" stop-color="#fff"/>
            <stop offset=".796" stop-color="#fff" stop-opacity="0"/>
        </linearGradient>
        <linearGradient id="d" x1="4.5" y1="43.5" x2="13.5" y2="62" gradientUnits="userSpaceOnUse">
            <stop offset=".296" stop-color="#fff" stop-opacity="0"/>
            <stop offset=".892" stop-color="#fff"/>
        </linearGradient>
        <linearGradient id="e" x1="32" y1="8" x2="28.919" y2="36.647" gradientUnits="userSpaceOnUse">
            <stop offset=".209" stop-color="#fff" stop-opacity="0"/>
            <stop offset=".475" stop-color="#fff"/>
            <stop offset=".686" stop-color="#fff" stop-opacity="0"/>
        </linearGradient>
        <linearGradient id="f" x1="7" y1="78" x2="40" y2="70" gradientUnits="userSpaceOnUse">
            <stop offset=".241" stop-color="#fff"/>
            <stop offset=".796" stop-color="#fff" stop-opacity="0"/>
        </linearGradient>
        <linearGradient id="g" x1="45" y1="52" x2="79" y2="35" gradientUnits="userSpaceOnUse">
            <stop offset=".322" stop-color="#fff" stop-opacity="0"/>
            <stop offset=".735" stop-color="#fff"/>
            <stop offset="1" stop-color="#fff" stop-opacity="0"/>
        </linearGradient>
        <linearGradient id="h" x1="43.5" y1="43.5" x2="57.5" y2="58.5" gradientUnits="userSpaceOnUse">
            <stop stop-color="#fff" stop-opacity="0"/>
            <stop offset=".175" stop-color="#fff"/>
            <stop offset=".457" stop-color="#fff" stop-opacity="0"/>
        </linearGradient>
        <linearGradient id="i" x1="57.5" y1="72.5" x2="48.23" y2="46.929" gradientUnits="userSpaceOnUse">
            <stop offset=".387" stop-color="#fff" stop-opacity="0"/>
            <stop offset=".676" stop-color="#fff"/>
            <stop offset=".947" stop-color="#fff" stop-opacity="0"/>
        </linearGradient>
        <linearGradient id="j" x1="77.5" y1="40" x2="70.917" y2="14.783" gradientUnits="userSpaceOnUse">
            <stop offset=".184" stop-color="#fff" stop-opacity="0"/>
            <stop offset="1" stop-color="#fff"/>
        </linearGradient>
    </defs>
</svg>
