<svg xmlns="http://www.w3.org/2000/svg" fill="none" viewBox="0 0 16 16"><path fill="#0E1011" fill-rule="evenodd" d="M9.324.523a1.937 1.937 0 0 0-2.648 0l-.746.698c-.343.321-.79.507-1.26.522l-1.021.034a1.937 1.937 0 0 0-1.872 1.872L1.743 4.67c-.015.469-.2.916-.522 1.259l-.698.746a1.937 1.937 0 0 0 0 2.648l.698.746c.321.343.507.79.522 1.26l.034 1.021a1.937 1.937 0 0 0 1.872 1.872l1.022.034c.469.015.916.2 1.259.522l.746.698a1.937 1.937 0 0 0 2.648 0l.746-.698c.343-.321.79-.507 1.26-.522l1.021-.034a1.937 1.937 0 0 0 1.872-1.872l.034-1.022c.015-.469.2-.916.522-1.259l.698-.746a1.937 1.937 0 0 0 0-2.648l-.698-.746a1.937 1.937 0 0 1-.522-1.26l-.034-1.021a1.937 1.937 0 0 0-1.872-1.872l-1.022-.034c-.469-.015-.916-.2-1.259-.522L9.324.523Zm3.03 5.83a.5.5 0 0 0-.708-.707L7.5 9.793 5.354 7.646a.5.5 0 1 0-.708.708L7.5 11.207l4.854-4.853Z" clip-rule="evenodd"/></svg>