<svg xmlns="http://www.w3.org/2000/svg" fill="none" viewBox="0 0 12 12"><path fill="#0E1011" d="M4.5 7.125a2.625 2.625 0 1 0 0-5.25 2.625 2.625 0 0 0 0 5.25ZM.17 9.142l-.117.935A5.984 5.984 0 0 0 4.455 12a5.985 5.985 0 0 0 4.481-2.01l-.106-.848A1.875 1.875 0 0 0 6.97 7.5h-.595l-1.179.471a1.875 1.875 0 0 1-1.392 0L2.624 7.5H2.03c-.945 0-1.743.704-1.86 1.642ZM5.486.88a3.752 3.752 0 0 1 2.713 4.26A2.626 2.626 0 1 0 5.486.88ZM10.015 9.527a6.02 6.02 0 0 0 1.868-1.412l-.106-.848a1.875 1.875 0 0 0-1.86-1.642h-.595l-1.179.471a1.875 1.875 0 0 1-.29.09c-.047.095-.099.188-.154.278a3 3 0 0 1 2.25 2.539l.066.524Z"/></svg>