<svg xmlns="http://www.w3.org/2000/svg" fill="none" viewBox="0 0 12 12"><path fill="#0E1011" d="M6.4 4a.4.4 0 0 0-.8 0v1.6H4a.4.4 0 0 0 0 .8h1.6V8a.4.4 0 0 0 .8 0V6.4H8a.4.4 0 0 0 0-.8H6.4V4Z"/><path fill="#0E1011" fill-rule="evenodd" d="M2.75 1.125c-.897 0-1.625.728-1.625 1.625v6.5c0 .898.728 1.625 1.625 1.625h6.5c.898 0 1.625-.727 1.625-1.625v-6.5c0-.897-.727-1.625-1.625-1.625h-6.5ZM1.875 2.75c0-.483.392-.875.875-.875h6.5c.483 0 .875.392.875.875v6.5a.875.875 0 0 1-.875.875h-6.5a.875.875 0 0 1-.875-.875v-6.5Z" clip-rule="evenodd"/></svg>