<svg xmlns="http://www.w3.org/2000/svg" fill="none" viewBox="0 0 16 16"><path fill="#0E1011" d="M8 16a2.5 2.5 0 0 1-2.5-2.5h1a1.5 1.5 0 0 0 3 0h1A2.5 2.5 0 0 1 8 16Z"/><path fill="#0E1011" fill-rule="evenodd" d="M8 1a5 5 0 0 0-5 5v1.343a3.5 3.5 0 0 1-1.025 2.475l-.536.536A1.5 1.5 0 0 0 1 11.414V12a1 1 0 0 0 1 1h12a1 1 0 0 0 1-1v-.586a1.5 1.5 0 0 0-.44-1.06l-.535-.536A3.5 3.5 0 0 1 13 7.343V6a5 5 0 0 0-5-5ZM6.586 4.586A2 2 0 0 1 8 4a.5.5 0 0 0 0-1 3 3 0 0 0-3 3 .5.5 0 0 0 1 0 2 2 0 0 1 .586-1.414Z" clip-rule="evenodd"/></svg>