<svg xmlns="http://www.w3.org/2000/svg" fill="none" viewBox="0 0 16 16"><path fill="#0E1011" fill-rule="evenodd" d="M3 3.25C3 2.56 3.56 2 4.25 2h1.5C6.44 2 7 2.56 7 3.25v9.5C7 13.44 6.44 14 5.75 14h-1.5C3.56 14 3 13.44 3 12.75v-9.5ZM4.25 3a.25.25 0 0 0-.25.25v9.5c0 .138.112.25.25.25h1.5a.25.25 0 0 0 .25-.25v-9.5A.25.25 0 0 0 5.75 3h-1.5Zm6 0a.25.25 0 0 0-.25.25v9.5c0 .138.112.25.25.25h1.5a.25.25 0 0 0 .25-.25v-9.5a.25.25 0 0 0-.25-.25h-1.5ZM9 3.25C9 2.56 9.56 2 10.25 2h1.5c.69 0 1.25.56 1.25 1.25v9.5c0 .69-.56 1.25-1.25 1.25h-1.5C9.56 14 9 13.44 9 12.75v-9.5Z" clip-rule="evenodd"/></svg>