<svg xmlns="http://www.w3.org/2000/svg" fill="none" viewBox="0 0 12 12"><path fill="#0E1011" d="M11.172.297a.375.375 0 0 1 .53.53l-6.28 6.281a8.65 8.65 0 0 0 1.689 1.21c.142.079.318.05.433-.065L8.768 7.03a6.708 6.708 0 0 0 1.733.43c.412.045.749.377.749.791v1.5c0 .828-.675 1.511-1.495 1.394a10.433 10.433 0 0 1-3.786-1.316 10.537 10.537 0 0 1-1.874-1.393L.828 11.703a.375.375 0 0 1-.53-.53L11.171.296ZM2.245 6.154c.168.279.349.55.54.81L4.13 5.62a8.63 8.63 0 0 1-.375-.6.365.365 0 0 1 .062-.438l1.21-1.21a6.706 6.706 0 0 1-.486-1.873C4.496 1.087 4.164.75 3.75.75h-1.5C1.422.75.739 1.425.856 2.245a10.432 10.432 0 0 0 1.39 3.909Z"/></svg>