<svg xmlns="http://www.w3.org/2000/svg" fill="none" viewBox="0 0 16 16"><path fill="#0E1011" fill-rule="evenodd" d="M0 9.5a3.5 3.5 0 0 1 3-3.465V6a2.743 2.743 0 0 0-.167-.95c-.11-.301-.28-.602-.523-.903C2.001 3.765 1.574 3.382 1 3c.66 0 1.284.089 1.863.26C5.353 3.996 7 6.254 7 9.5a3.5 3.5 0 1 1-7 0ZM4 6c0-.42-.065-.827-.2-1.221.288.189.55.41.785.658C5.444 6.345 6 7.71 6 9.5a2.5 2.5 0 1 1-2.858-2.475A1 1 0 0 0 4 6.028V6ZM9 9.5a3.5 3.5 0 0 1 3-3.465V6a2.743 2.743 0 0 0-.167-.95c-.11-.301-.28-.602-.523-.903-.309-.382-.736-.765-1.31-1.147.66 0 1.284.089 1.863.26C14.353 3.996 16 6.254 16 9.5a3.5 3.5 0 1 1-7 0ZM13 6c0-.42-.065-.827-.2-1.221.288.189.55.41.785.658C14.444 6.345 15 7.71 15 9.5a2.5 2.5 0 1 1-2.858-2.475A1 1 0 0 0 13 6.03V6Z" clip-rule="evenodd"/></svg>