<svg xmlns="http://www.w3.org/2000/svg" fill="none" viewBox="0 0 12 12"><path fill="#0E1011" fill-rule="evenodd" d="M9.75 3.75a1.5 1.5 0 1 0-3 0 1.5 1.5 0 0 0 3 0ZM8.25 3a.75.75 0 1 1 0 1.5.75.75 0 0 1 0-1.5Z" clip-rule="evenodd"/><path fill="#0E1011" fill-rule="evenodd" d="M12 4.94V1.124C12 .504 11.496 0 10.875 0H7.061c-.299 0-.585.119-.796.33L.608 5.987a1.875 1.875 0 0 0 0 2.651l2.754 2.754c.732.732 1.92.732 2.651 0l5.658-5.657c.21-.211.329-.497.329-.796Zm-.75-3.815v3.814c0 .1-.04.195-.11.266l-5.657 5.657c-.44.439-1.152.439-1.591 0L1.138 8.108a1.125 1.125 0 0 1 0-1.591L6.796.86c.07-.07.165-.11.265-.11h3.814c.207 0 .375.168.375.375Z" clip-rule="evenodd"/></svg>