<svg xmlns="http://www.w3.org/2000/svg" fill="none" viewBox="0 0 12 12"><path fill="#0E1011" fill-rule="evenodd" d="M6 3.281A2.719 2.719 0 1 0 6 8.72 2.719 2.719 0 0 0 6 3.28ZM3.844 6a2.156 2.156 0 1 1 4.312 0 2.156 2.156 0 0 1-4.312 0Z" clip-rule="evenodd"/><path fill="#0E1011" fill-rule="evenodd" d="M1.781 6a4.219 4.219 0 1 1 8.438 0A4.219 4.219 0 0 1 1.78 6ZM6 2.344a3.656 3.656 0 1 0 0 7.312 3.656 3.656 0 0 0 0-7.312Z" clip-rule="evenodd"/><path fill="#0E1011" fill-rule="evenodd" d="M.188 6a5.812 5.812 0 1 1 11.624 0A5.812 5.812 0 0 1 .188 6ZM6 .937a5.063 5.063 0 1 0 0 10.126A5.063 5.063 0 0 0 6 .937Z" clip-rule="evenodd"/></svg>