<svg xmlns="http://www.w3.org/2000/svg" fill="none" viewBox="0 0 16 16"><path fill="#0E1011" d="M11.166 2.005a1 1 0 0 0-.166.552V4a1 1 0 0 0 1 1h1.443a1 1 0 0 0 .707-.293l.72-.72a4.008 4.008 0 0 1-1.747 4.404l-.781-.67-.029-.023a3.01 3.01 0 0 0 1.53-1.739 2 2 0 0 1-.4.041H12a2 2 0 0 1-2-2V2.557a2 2 0 0 1 .04-.4 3.001 3.001 0 0 0-1.881 3.81l.036.107L7.002 4.88a4 4 0 0 1 5.011-3.75l-.72.72a.997.997 0 0 0-.127.155M7 10.39a3 3 0 0 0 .155.955l-3.137 3.137a1.767 1.767 0 1 1-2.5-2.5l4.171-4.171.708.707-4.172 4.171a.768.768 0 0 0 1.086 1.086L7 10.086v.304M10.788 9.788a.3.3 0 0 0 0 .424l1.707 1.707a.7.7 0 0 1 .205.495v.086a.3.3 0 1 0 .6 0v-.086a1.3 1.3 0 0 0-.38-.919l-1.708-1.707a.3.3 0 0 0-.424 0"/><path fill="#0E1011" fill-rule="evenodd" d="M4.5 3.793V2.5L2 1 1 2l1.5 2.5h1.293l4.573 4.573a2.325 2.325 0 0 0 .194 2.765l1.962 2.289A2.5 2.5 0 0 0 12.42 15h.08a2.5 2.5 0 0 0 2.5-2.5v-.08a2.5 2.5 0 0 0-.873-1.898L11.838 8.56a2.325 2.325 0 0 0-2.765-.194L4.5 3.793M10.325 9a1.325 1.325 0 0 0-1.006 2.187l1.962 2.29A1.5 1.5 0 0 0 12.42 14h.08a1.5 1.5 0 0 0 1.5-1.5v-.08a1.5 1.5 0 0 0-.524-1.139l-2.289-1.962A1.325 1.325 0 0 0 10.325 9" clip-rule="evenodd"/></svg>