<svg xmlns="http://www.w3.org/2000/svg" fill="none" viewBox="0 0 12 12"><path fill="#0E1011" fill-rule="evenodd" d="M3.671 0c-.1 0-.195.04-.265.11L.11 3.406a.375.375 0 0 0-.11.265V8.33c0 .1.04.195.11.265l3.296 3.296c.07.07.166.11.265.11H8.33c.1 0 .195-.04.265-.11l3.296-3.296c.07-.07.11-.166.11-.265V3.67c0-.1-.04-.195-.11-.265L8.594.11A.375.375 0 0 0 8.329 0H3.67Zm.898 4.098a.333.333 0 0 0-.471.471L5.528 6l-1.43 1.431a.333.333 0 0 0 .471.471L6 6.472l1.431 1.43a.333.333 0 0 0 .471-.471L6.472 6l1.43-1.431a.333.333 0 0 0-.471-.471L6 5.528l-1.431-1.43Z" clip-rule="evenodd"/></svg>