<svg xmlns="http://www.w3.org/2000/svg" fill="none" viewBox="0 0 12 12"><path fill="#0E1011" fill-rule="evenodd" d="M5.82 1.17a.375.375 0 0 1 .36 0l5.5 3c.12.067.195.193.195.33v3a.375.375 0 0 1-.195.33l-5.5 3a.375.375 0 0 1-.36 0l-5.5-3a.375.375 0 0 1-.195-.33v-3c0-.137.075-.263.195-.33l5.5-3ZM.875 6.955V5.046L2.623 6l-1.748.954Zm.33.503L5.7 9.91V7.68L3.25 6.341 1.205 7.457ZM3.876 6 6 7.158 8.123 6 6 4.842 3.877 6Zm4.874.342L6.3 7.678V9.91l4.495-2.452L8.75 6.342Zm2.375.612L9.377 6l1.748-.954v1.908ZM8.75 5.658 6.3 4.322V2.09l4.495 2.452L8.75 5.658ZM5.7 2.091 1.205 4.543 3.25 5.658 5.7 4.322V2.09Z" clip-rule="evenodd"/></svg>