<svg xmlns="http://www.w3.org/2000/svg" fill="none" viewBox="0 0 12 12"><path fill="#0E1011" fill-rule="evenodd" d="M11.833 1.563c.104.07.167.187.167.312v8.25a.375.375 0 0 1-.552.33h-.002l-.01-.005a7.475 7.475 0 0 0-.655-.287v.712a.281.281 0 0 1-.343.274l-3.887-.883a7.226 7.226 0 0 0-.365.167l-.01.005h-.002a.375.375 0 0 1-.348 0h-.002l-.01-.005a5.732 5.732 0 0 0-.365-.167l-3.887.883a.281.281 0 0 1-.343-.274v-.713a7.476 7.476 0 0 0-.656.288l-.01.005H.553a.375.375 0 0 1-.552-.33v-8.25c0-.125.063-.242.167-.312h.001L.17 1.56l.004-.002.013-.009a3.728 3.728 0 0 1 .214-.123c.144-.077.351-.177.614-.277.525-.2 1.273-.4 2.172-.4.928 0 1.696.309 2.226.612.246.14.444.282.587.394.143-.112.34-.253.587-.394A4.499 4.499 0 0 1 8.813.75c.899 0 1.647.2 2.172.4a5.39 5.39 0 0 1 .782.372c.02.011.035.021.046.028l.013.009.005.002.001.001.001.001ZM7.571 9.921l2.648.602v-.55a5.175 5.175 0 0 0-1.407-.223c-.425 0-.853.071-1.241.17ZM3.188 9.75c.425 0 .853.071 1.241.17l-2.648.603v-.55c.43-.124.921-.222 1.407-.223Zm3.187-7.125c0-.362-.168-.656-.375-.656s-.375.294-.375.656V9c0 .362.168.656.375.656s.375-.294.375-.656V2.625Z" clip-rule="evenodd"/></svg>