<svg xmlns="http://www.w3.org/2000/svg" height="13" fill="none" viewBox="0 0 12 13"><path fill="#0E1011" fill-rule="evenodd" d="M10.17.672a1.125 1.125 0 0 0-1.59 0L.86 8.392a.375.375 0 0 0-.11.265v1.5c0 .207.168.375.375.375h1.5c.1 0 .195-.04.265-.11l7.72-7.72c.44-.439.44-1.151 0-1.59l-.44-.44Zm-1.06.53a.375.375 0 0 1 .53 0l.44.44a.375.375 0 0 1 0 .53L9 3.252l-.97-.97 1.08-1.08ZM7.5 2.813l.97.97-6 6H1.5v-.97l6-6Z" clip-rule="evenodd"/><path fill="#0E1011" d="M.75 11.282a.375.375 0 0 0 0 .75h10.5a.375.375 0 0 0 0-.75H.75Z"/></svg>