<svg xmlns="http://www.w3.org/2000/svg" fill="none" viewBox="0 0 16 16"><path fill="#0E1011" d="M4.023 2.15 1.117 3.354a.999.999 0 0 0-.275.17.498.498 0 0 1 .366.02l6.785 3.108 2.378-1.159-6.095-3.047a.498.498 0 0 1-.253-.298M5.058 1.72l6.458 3.229 3.287-1.409a.498.498 0 0 1 .355-.014.998.998 0 0 0-.275-.171L8.383.659a1 1 0 0 0-.766 0L5.058 1.72M15.487 4.115a.5.5 0 0 1-.29.344l-3.489 1.496L8.5 7.518V15a.5.5 0 0 1-.215.41c.033-.009.066-.02.098-.034l6.5-2.696a1 1 0 0 0 .617-.924V4.278c0-.055-.005-.11-.013-.163M7.715 15.41A.5.5 0 0 1 7.5 15V7.527L.792 4.455a.5.5 0 0 1-.279-.34 1.001 1.001 0 0 0-.013.163v7.478a1 1 0 0 0 .617.924l6.5 2.696c.032.013.065.025.098.035"/></svg>