<svg xmlns="http://www.w3.org/2000/svg" fill="none" viewBox="0 0 12 12"><path fill="#0E1011" fill-rule="evenodd" d="M4.708 3.688A.375.375 0 0 0 4.125 4v4a.375.375 0 0 0 .583.312l3-2a.375.375 0 0 0 0-.624l-3-2ZM6.824 6 4.875 7.3V4.7L6.824 6Z" clip-rule="evenodd"/><path fill="#0E1011" fill-rule="evenodd" d="M5.997 1.125h-.149a58.712 58.712 0 0 0-1.688.034c-.487.017-1.005.042-1.457.08-.44.038-.855.09-1.114.17l-.006.003a1.742 1.742 0 0 0-.79.546 2.081 2.081 0 0 0-.433.917A19.963 19.963 0 0 0 .125 6.01a19.964 19.964 0 0 0 .241 3.193c.079.321.229.62.44.863.212.244.48.427.78.522l.003.001c.259.081.674.133 1.114.17.452.04.97.065 1.457.081a58.982 58.982 0 0 0 1.688.034h.304a63.883 63.883 0 0 0 1.688-.034 30.226 30.226 0 0 0 1.457-.08c.44-.038.855-.09 1.114-.17l.006-.003c.307-.1.578-.292.79-.546a2.083 2.083 0 0 0 .433-.917c.16-1.027.238-2.07.235-3.113a19.966 19.966 0 0 0-.239-3.182 2.083 2.083 0 0 0-.429-.895 1.742 1.742 0 0 0-.805-.551c-.256-.073-.667-.12-1.108-.155a33.075 33.075 0 0 0-1.455-.073 64.836 64.836 0 0 0-1.688-.03H6.04l-.037-.001h-.006Zm.003.75h.148a63.62 63.62 0 0 1 1.668.03c.48.016.985.038 1.42.072.44.034.777.077.954.126.16.055.314.16.441.312.127.153.222.346.27.563.154 1 .23 2.015.224 3.032v.003a19.21 19.21 0 0 1-.224 2.986 1.33 1.33 0 0 1-.27.563.995.995 0 0 1-.446.313c-.171.053-.508.1-.952.138-.434.037-.938.062-1.419.079a58.13 58.13 0 0 1-1.667.032h-.11l-.028.001h-.157a55.846 55.846 0 0 1-1.666-.033c-.481-.017-.985-.042-1.42-.079-.445-.037-.782-.085-.953-.138a.985.985 0 0 1-.44-.3 1.313 1.313 0 0 1-.275-.535 19.214 19.214 0 0 1-.223-3.026V6.01C.871 5.001.945 3.994 1.1 3a1.33 1.33 0 0 1 .27-.562.994.994 0 0 1 .446-.313c.171-.053.508-.1.952-.138.434-.037.938-.062 1.419-.079a58.517 58.517 0 0 1 1.667-.032h.11l.028-.001H6Z" clip-rule="evenodd"/></svg>