<svg xmlns="http://www.w3.org/2000/svg" fill="none" viewBox="0 0 16 16"><path fill="#0E1011" fill-rule="evenodd" d="M11 8a3 3 0 1 1-6 0 3 3 0 0 1 6 0m-1 0a2 2 0 1 1-4 0 2 2 0 0 1 4 0" clip-rule="evenodd"/><path fill="#0E1011" fill-rule="evenodd" d="m2.303 11.457.182-.254a1 1 0 0 0-.65-1.568l-.309-.051c-.408-.068-.74-.38-.784-.792a7.382 7.382 0 0 1 0-1.584c.045-.412.376-.724.784-.792l.309-.051a1 1 0 0 0 .65-1.568l-.182-.254c-.241-.337-.254-.792.005-1.114a7.344 7.344 0 0 1 1.12-1.12c.323-.26.778-.247 1.115-.006l.254.182a1 1 0 0 0 1.568-.65l.051-.309c.068-.408.38-.74.792-.784a7.382 7.382 0 0 1 1.584 0c.412.045.724.376.792.784l.05.309a1 1 0 0 0 1.569.65l.254-.182c.337-.241.791-.254 1.114.005.413.332.789.708 1.12 1.12.26.323.247.778.006 1.115l-.182.254a1 1 0 0 0 .65 1.568l.309.051c.408.068.739.38.784.792a7.404 7.404 0 0 1 0 1.584c-.045.412-.376.724-.784.792l-.31.05a1 1 0 0 0-.649 1.569l.182.254c.24.337.254.792-.005 1.114a7.339 7.339 0 0 1-1.12 1.12c-.323.26-.778.247-1.115.006l-.254-.182a1 1 0 0 0-1.568.65l-.051.309c-.068.408-.38.74-.792.784a7.374 7.374 0 0 1-1.584 0c-.412-.045-.724-.376-.792-.784l-.051-.31a1 1 0 0 0-1.568-.649l-.254.182c-.337.24-.792.254-1.114-.005a7.346 7.346 0 0 1-1.121-1.12c-.26-.323-.246-.778-.005-1.115m.836-7.465c.256-.31.542-.597.853-.853l.223.159a2 2 0 0 0 3.136-1.299l.045-.27a6.389 6.389 0 0 1 1.207 0l.045.27a2 2 0 0 0 3.137 1.299l.223-.16c.31.257.596.543.853.854l-.16.223a2 2 0 0 0 1.3 3.136l.27.045a6.398 6.398 0 0 1 0 1.207l-.27.045a2 2 0 0 0-1.3 3.137l.16.223c-.257.31-.543.597-.854.853l-.223-.16a2 2 0 0 0-3.136 1.3l-.045.27a6.395 6.395 0 0 1-1.207 0l-.045-.27a2 2 0 0 0-3.136-1.3l-.223.16a6.348 6.348 0 0 1-.853-.854l.159-.223a2 2 0 0 0-1.299-3.136l-.27-.045a6.389 6.389 0 0 1 0-1.207l.27-.045a2 2 0 0 0 1.299-3.136l-.16-.223Z" clip-rule="evenodd"/></svg>