<svg xmlns="http://www.w3.org/2000/svg" fill="none" viewBox="0 0 16 16"><path fill="#0E1011" fill-rule="evenodd" d="M9 2.438C9 2.225 9.192 2 9.5 2s.5.225.5.438v3.125c0 .212-.192.437-.5.437S9 5.775 9 5.563V2.438M9.5 1C8.701 1 8 1.613 8 2.438v3.125C8 6.387 8.701 7 9.5 7S11 6.387 11 5.563V2.438C11 1.613 10.299 1 9.5 1M13 5.5c0-.277.223-.5.5-.5s.5.223.5.5-.223.5-.5.5H13zm.5-1.5c-.83 0-1.5.67-1.5 1.5v1a.5.5 0 0 0 .5.5h1c.83 0 1.5-.67 1.5-1.5S14.33 4 13.5 4m-7 6c-.308 0-.5.225-.5.438v3.124c0 .213.192.438.5.438s.5-.225.5-.437v-3.126c0-.212-.192-.437-.5-.437m-1.5.438C5 9.613 5.701 9 6.5 9S8 9.613 8 10.438v3.124C8 14.388 7.299 15 6.5 15S5 14.387 5 13.563v-3.126M2 10.5c0-.277.223-.5.5-.5H3v.5c0 .277-.223.5-.5.5a.499.499 0 0 1-.5-.5M2.5 9C1.67 9 1 9.67 1 10.5S1.67 12 2.5 12 4 11.33 4 10.5v-1a.5.5 0 0 0-.5-.5zm7.938 0c-.213 0-.438.192-.438.5s.225.5.438.5h3.124c.213 0 .438-.192.438-.5s-.225-.5-.437-.5h-3.126M9 9.5c0-.799.613-1.5 1.438-1.5h3.124C14.388 8 15 8.701 15 9.5s-.613 1.5-1.437 1.5h-3.126C9.614 11 9 10.299 9 9.5m.5 2.5a.5.5 0 0 0-.5.5v1c0 .83.67 1.5 1.5 1.5s1.5-.67 1.5-1.5-.67-1.5-1.5-1.5zm.5 1.5V13h.5c.277 0 .5.223.5.5s-.223.5-.5.5a.499.499 0 0 1-.5-.5m-9-7C1 5.701 1.613 5 2.438 5h3.125C6.387 5 7 5.701 7 6.5S6.387 8 5.563 8H2.438C1.613 8 1 7.299 1 6.5M2.438 6C2.225 6 2 6.192 2 6.5s.225.5.438.5h3.125C5.775 7 6 6.808 6 6.5S5.775 6 5.563 6H2.438M5.5 1C4.67 1 4 1.67 4 2.5S4.67 4 5.5 4h1a.5.5 0 0 0 .5-.5v-1C7 1.67 6.33 1 5.5 1M5 2.5c0-.277.223-.5.5-.5s.5.223.5.5V3h-.5a.499.499 0 0 1-.5-.5" clip-rule="evenodd"/><path fill="#0E1011" d="M2.438 6C2.225 6 2 6.192 2 6.5s.225.5.438.5h3.125C5.775 7 6 6.808 6 6.5S5.775 6 5.563 6H2.438M9 2.438C9 2.225 9.192 2 9.5 2s.5.225.5.438v3.125c0 .212-.192.437-.5.437S9 5.775 9 5.563V2.438M5 2.5c0-.277.223-.5.5-.5s.5.223.5.5V3h-.5a.499.499 0 0 1-.5-.5M2 10.5c0-.277.223-.5.5-.5H3v.5c0 .277-.223.5-.5.5a.499.499 0 0 1-.5-.5M6.5 10c-.308 0-.5.225-.5.438v3.124c0 .213.192.438.5.438s.5-.225.5-.437v-3.126c0-.212-.192-.437-.5-.437M10 13.5V13h.5c.277 0 .5.223.5.5s-.223.5-.5.5a.499.499 0 0 1-.5-.5M10.438 9c-.213 0-.438.192-.438.5s.225.5.438.5h3.124c.213 0 .438-.192.438-.5s-.225-.5-.437-.5h-3.126M13 5.5c0-.277.223-.5.5-.5s.5.223.5.5-.223.5-.5.5H13z"/></svg>