<svg xmlns="http://www.w3.org/2000/svg" fill="none" viewBox="0 0 12 12"><path fill="#0E1011" fill-rule="evenodd" d="M6.231 1.488A2.52 2.52 0 0 1 8.014.75h.107c1.728 0 3.129 1.4 3.129 3.129a2.44 2.44 0 0 1-.715 1.725L8.981 7.16a2.625 2.625 0 0 1-3.712 0l-.66-.66a.375.375 0 1 1 .531-.53l.66.66c.731.731 1.919.731 2.65 0l1.555-1.555A1.69 1.69 0 0 0 10.5 3.88 2.379 2.379 0 0 0 8.121 1.5h-.107c-.47 0-.92.187-1.252.519l-.872.871a.375.375 0 1 1-.53-.53l.871-.872Zm-.03 3.743a1.875 1.875 0 0 0-2.652 0l-1.53 1.53A1.77 1.77 0 0 0 1.5 8.015 2.486 2.486 0 0 0 3.986 10.5c.47 0 .92-.187 1.252-.519l.872-.871a.375.375 0 1 1 .53.53l-.871.872a2.521 2.521 0 0 1-1.783.738A3.236 3.236 0 0 1 .75 8.014c0-.669.266-1.31.738-1.783l1.53-1.53a2.625 2.625 0 0 1 3.713 0l.66.659a.375.375 0 1 1-.531.53l-.66-.659Z" clip-rule="evenodd"/></svg>