<svg xmlns="http://www.w3.org/2000/svg" fill="none" viewBox="0 0 16 16"><path fill="#0E1011" d="M2 3v1h1V3H2ZM4 3v1h1V3H4Z"/><path fill="#0E1011" fill-rule="evenodd" d="M0 3a2 2 0 0 1 2-2h12a2 2 0 0 1 2 2v2a2 2 0 0 1-2 2H2a2 2 0 0 1-2-2V3Zm2-1a1 1 0 0 0-1 1v2a1 1 0 0 0 1 1h12a1 1 0 0 0 1-1V3a1 1 0 0 0-1-1H2Z" clip-rule="evenodd"/><path fill="#0E1011" d="M2 11v1h1v-1H2ZM4 11v1h1v-1H4Z"/><path fill="#0E1011" fill-rule="evenodd" d="M2 9a2 2 0 0 0-2 2v2a2 2 0 0 0 2 2h12a2 2 0 0 0 2-2v-2a2 2 0 0 0-2-2H2Zm-1 2a1 1 0 0 1 1-1h12a1 1 0 0 1 1 1v2a1 1 0 0 1-1 1H2a1 1 0 0 1-1-1v-2Z" clip-rule="evenodd"/></svg>