<svg xmlns="http://www.w3.org/2000/svg" fill="none" viewBox="0 0 12 12"><path fill="#0E1011" fill-rule="evenodd" d="M2.625 1.125c.207 0 .375.168.375.375V3a.375.375 0 1 1-.75 0V1.5c0-.207.168-.375.375-.375Zm2.25 0c.207 0 .375.168.375.375V3a.375.375 0 1 1-.75 0V1.5c0-.207.168-.375.375-.375Zm2.25 0c.207 0 .375.168.375.375V3a.375.375 0 1 1-.75 0V1.5c0-.207.168-.375.375-.375ZM1.5 5.25A.75.75 0 0 0 .75 6v3a1.5 1.5 0 0 0 1.5 1.5H7.5A1.5 1.5 0 0 0 9 9V5.25H1.5Zm8.25 0v2.768l1.085-.542a.75.75 0 0 0 .415-.671V6a.75.75 0 0 0-.75-.75h-.75Zm0 3.607 1.42-.71A1.5 1.5 0 0 0 12 6.804V6a1.5 1.5 0 0 0-1.5-1.5h-9A1.5 1.5 0 0 0 0 6v3a2.25 2.25 0 0 0 2.25 2.25H7.5A2.25 2.25 0 0 0 9.75 9v-.143Z" clip-rule="evenodd"/><path fill="#0E1011" d="M.75 6a.75.75 0 0 1 .75-.75H9V9a1.5 1.5 0 0 1-1.5 1.5H2.25A1.5 1.5 0 0 1 .75 9V6Z"/></svg>