<svg xmlns="http://www.w3.org/2000/svg" fill="none" viewBox="0 0 16 16"><path fill="#0E1011" fill-rule="evenodd" d="M15.56.44a1.5 1.5 0 0 0-2.12 0l-1.647 1.646-.707.707-5.647 5.646c-.408.409-.704 1.25-.845 2.06A5.959 5.959 0 0 0 4.5 11.5c.303 0 .65-.032 1.001-.094.81-.141 1.651-.437 2.06-.845l8-8a1.5 1.5 0 0 0 0-2.122ZM6.147 9.145 11.793 3.5l.707.707-5.646 5.647c-.11.108-.423.286-.942.434a5.52 5.52 0 0 1-.27.07c.021-.09.044-.18.07-.27.148-.52.326-.833.434-.942ZM12.5 2.793l.707.707 1.647-1.646a.5.5 0 0 0-.707-.708l-.705-.704.704.704L12.5 2.793ZM1 3.25A2.25 2.25 0 0 1 3.25 1H8.5a.5.5 0 0 1 0 1H3.25C2.56 2 2 2.56 2 3.25v9.5c0 .69.56 1.25 1.25 1.25h9.5c.69 0 1.25-.56 1.25-1.25V7.5a.5.5 0 0 1 1 0v5.25A2.25 2.25 0 0 1 12.75 15h-9.5A2.25 2.25 0 0 1 1 12.75v-9.5Z" clip-rule="evenodd"/></svg>