<svg xmlns="http://www.w3.org/2000/svg" height="13" fill="none" viewBox="0 0 12 13"><path fill="#0E1011" fill-rule="evenodd" d="M4.5 2.25a3.75 3.75 0 0 0-2.045 6.894.375.375 0 0 1-.41.628A4.5 4.5 0 1 1 8.747 4.51a3 3 0 0 1 1.967 5.452.375.375 0 0 1-.428-.615 2.25 2.25 0 0 0-1.728-4.053l-.345.068-.091-.339A3.752 3.752 0 0 0 4.5 2.25ZM6.375 6c.207 0 .375.168.375.375v4.345l1.61-1.61a.375.375 0 0 1 .53.53l-2.515 2.515L3.86 9.64a.375.375 0 0 1 .53-.53L6 10.72V6.375C6 6.168 6.168 6 6.375 6Z" clip-rule="evenodd"/></svg>