<svg xmlns="http://www.w3.org/2000/svg" fill="none" viewBox="0 0 16 16"><path fill="#0E1011" d="M10 .5a.5.5 0 0 1 1 0v2a.5.5 0 0 1-1 0v-2ZM5 .5a.5.5 0 0 1 1 0v2a.5.5 0 0 1-1 0v-2Z"/><path fill="#0E1011" d="M15 3.25C15 2.56 14.44 2 13.75 2H12.5a.5.5 0 0 1 0-1h1.25A2.25 2.25 0 0 1 16 3.25v9.5A2.25 2.25 0 0 1 13.75 15H2.25A2.25 2.25 0 0 1 0 12.75v-9.5A2.25 2.25 0 0 1 2.25 1H3.5a.5.5 0 0 1 0 1H2.25C1.56 2 1 2.56 1 3.25v9.5c0 .69.56 1.25 1.25 1.25h11.5c.69 0 1.25-.56 1.25-1.25v-9.5Z"/><path fill="#0E1011" d="M9 2H7V1h2v1ZM13.5 5.125a.375.375 0 0 1 0 .75h-11a.375.375 0 1 1 0-.75h11Z"/></svg>