<svg xmlns="http://www.w3.org/2000/svg" width="17" fill="none" viewBox="0 0 17 16"><path fill="#0E1011" d="M.5 12a.5.5 0 0 1 0-1h1.964a2 2 0 0 0 1.415-.586l1.267-1.268a.5.5 0 1 1 .708.708L4.586 11.12A3 3 0 0 1 2.464 12H.5ZM8.854 6.854a.5.5 0 1 1-.708-.708L9.414 4.88A3 3 0 0 1 11.536 4h2.757l-1.147-1.146a.5.5 0 0 1 .708-.708L16.207 4.5l-2.353 2.354a.5.5 0 0 1-.708-.708L14.293 5h-2.757a2 2 0 0 0-1.415.586L8.854 6.854Z"/><path fill="#0E1011" d="M.5 4a.5.5 0 0 0 0 1h1.964a2 2 0 0 1 1.415.586l5.535 5.535a3 3 0 0 0 2.122.879h2.757l-1.147 1.146a.5.5 0 0 0 .708.708l2.353-2.354-2.353-2.354a.5.5 0 0 0-.708.708L14.293 11h-2.757a2 2 0 0 1-1.415-.586L4.586 4.88A3 3 0 0 0 2.464 4H.5Z"/></svg>