<svg xmlns="http://www.w3.org/2000/svg" fill="none" viewBox="0 0 12 12"><path fill="#0E1011" fill-rule="evenodd" d="M4.5 2.625A2.625 2.625 0 0 1 7.125 0h2.063c.31 0 .562.252.562.563v1.875c0 .31-.252.562-.563.562H7.875a.375.375 0 0 0-.375.375V4.5h1.615c.384 0 .655.376.533.74l-.625 1.875a.562.562 0 0 1-.533.385H7.5v3.938c0 .31-.252.562-.563.562H5.063a.562.562 0 0 1-.562-.563V7.5h-.938A.563.563 0 0 1 3 6.937V5.063c0-.31.252-.562.563-.562H4.5V2.625ZM7.125.75c-1.036 0-1.875.84-1.875 1.875V5.25h-1.5v1.5h1.5v4.5h1.5v-4.5h1.605l.5-1.5H6.75V3.375c0-.621.504-1.125 1.125-1.125H9V.75H7.125Z" clip-rule="evenodd"/></svg>