<svg xmlns="http://www.w3.org/2000/svg" fill="none" viewBox="0 0 12 12"><path fill="#0E1011" d="M8.625 0a.375.375 0 0 0 0 .75h2.094L7.61 3.86a.375.375 0 1 0 .53.53l3.11-3.11v2.095a.375.375 0 0 0 .75 0V0H8.626Z"/><path fill="#0E1011" d="M11.25 9.75c0 .828-.675 1.511-1.495 1.394a10.433 10.433 0 0 1-3.786-1.316 10.552 10.552 0 0 1-3.724-3.674 10.432 10.432 0 0 1-1.39-3.909C.738 1.425 1.421.75 2.25.75h1.5c.414 0 .745.337.79.749.073.657.24 1.286.488 1.872L3.817 4.582a.365.365 0 0 0-.062.439A8.666 8.666 0 0 0 7.11 8.319c.143.078.319.049.433-.066L8.768 7.03a6.708 6.708 0 0 0 1.733.43c.412.045.749.377.749.791v1.5Z"/></svg>