<svg xmlns="http://www.w3.org/2000/svg" fill="none" viewBox="0 0 16 16"><path fill="#0E1011" d="M7.5 7 9 2 5.25 8 8 9l-1.5 5 3.75-6L7.5 7ZM1 5.25C1 4.56 1.56 4 2.25 4H4.5a.5.5 0 0 0 0-1H2.25A2.25 2.25 0 0 0 0 5.25v5.5A2.25 2.25 0 0 0 2.25 13H4.5a.5.5 0 0 0 0-1H2.25C1.56 12 1 11.44 1 10.75v-5.5Z"/><path fill="#0E1011" d="M10.5 3a.5.5 0 0 0 0 1h2.25c.69 0 1.25.56 1.25 1.25v5.5c0 .69-.56 1.25-1.25 1.25H10.5a.5.5 0 0 0 0 1h2.25A2.25 2.25 0 0 0 15 10.75V10h.25a.75.75 0 0 0 .75-.75v-2a.75.75 0 0 0-.75-.75H15V5.25A2.25 2.25 0 0 0 12.75 3H10.5Z"/></svg>