<svg xmlns="http://www.w3.org/2000/svg" fill="none" viewBox="0 0 12 12"><path fill="#0E1011" fill-rule="evenodd" d="M12 5.625c0 .126-.004.251-.012.375H6V.012a5.71 5.71 0 0 1 .75 0A5.626 5.626 0 0 1 12 5.625Zm-.764-.375H6.75V.764a4.876 4.876 0 0 1 4.486 4.486Z" clip-rule="evenodd"/><path fill="#0E1011" fill-rule="evenodd" d="M11.238 6.75H5.25V.762A5.627 5.627 0 0 0 5.625 12a5.627 5.627 0 0 0 5.613-5.25Zm-6.738 0c0 .414.336.75.75.75h5.12A4.875 4.875 0 1 1 4.5 1.63v5.12Z" clip-rule="evenodd"/></svg>