<svg xmlns="http://www.w3.org/2000/svg" fill="none" viewBox="0 0 12 12"><path fill="#0E1011" fill-rule="evenodd" d="M2.571 1.714c-.434 0-.785.32-.785.715 0 .394.351.714.785.714.434 0 .786-.32.786-.714 0-.395-.352-.715-.786-.715ZM1 2.43C1 1.639 1.704 1 2.571 1c.868 0 1.572.64 1.572 1.429S3.439 3.857 2.57 3.857C1.704 3.857 1 3.217 1 2.43ZM4.929 7.07c0-1.775 1.583-3.214 3.535-3.214 1.953 0 3.536 1.44 3.536 3.214V11H8.857V7.071c0-.197-.176-.357-.393-.357-.217 0-.393.16-.393.357V11H4.93V7.071Zm3.535-2.5c-1.519 0-2.75 1.12-2.75 2.5v3.215h1.572V7.07C7.286 6.48 7.813 6 8.464 6c.651 0 1.179.48 1.179 1.071v3.215h1.571V7.07c0-1.38-1.23-2.5-2.75-2.5ZM1 5.286c0-.395.352-.715.786-.715h1.571c.434 0 .786.32.786.715v5c0 .394-.352.714-.786.714H1.786C1.352 11 1 10.68 1 10.286v-5Zm.786 0v5h1.571v-5H1.786Z" clip-rule="evenodd"/></svg>