<svg xmlns="http://www.w3.org/2000/svg" width="13" fill="none" viewBox="0 0 13 12"><path fill="#0E1011" fill-rule="evenodd" d="M2.5.75a.75.75 0 0 0-.75.75v8.75c0 .414.336.75.75.75H7a.375.375 0 0 1 0 .75H2.5a1.5 1.5 0 0 1-1.5-1.5V1.5A1.5 1.5 0 0 1 2.5 0h5.03l3.22 3.22v3.155a.375.375 0 0 1-.75 0V3.75H8.5A1.5 1.5 0 0 1 7 2.25V.75H2.5Zm5.25.53L9.47 3H8.5a.75.75 0 0 1-.75-.75v-.97Zm.297 6.517a.375.375 0 0 1 .53 0L10 9.22l1.422-1.423a.375.375 0 0 1 .53.53L10.53 9.75l1.423 1.422a.375.375 0 0 1-.53.53L10 10.28l-1.422 1.423a.375.375 0 0 1-.53-.53L9.47 9.75 8.047 8.328a.375.375 0 0 1 0-.53Z" clip-rule="evenodd"/></svg>