<svg xmlns="http://www.w3.org/2000/svg" fill="none" viewBox="0 0 12 12"><path fill="#0E1011" fill-rule="evenodd" d="M8.5 6a2.5 2.5 0 0 0 2.472-2.126l.028.001h.5a.375.375 0 0 0 0-.75H11l-.028.001A2.5 2.5 0 1 0 8.5 6Zm1.75-2.5a1.75 1.75 0 1 1-3.5 0 1.75 1.75 0 0 1 3.5 0ZM1.028 8.874a2.5 2.5 0 1 0 0-.748A.382.382 0 0 0 1 8.125H.5a.375.375 0 1 0 0 .75H1l.028-.001ZM1.75 8.5a1.75 1.75 0 1 0 3.5 0 1.75 1.75 0 0 0-3.5 0Z" clip-rule="evenodd"/><path fill="#0E1011" d="M.125 3.5c0-.207.168-.375.375-.375H5a.375.375 0 1 1 0 .75H.5A.375.375 0 0 1 .125 3.5ZM11.5 8.125a.375.375 0 0 1 0 .75H7a.375.375 0 1 1 0-.75h4.5Z"/></svg>