<svg xmlns="http://www.w3.org/2000/svg" fill="none" viewBox="0 0 16 16"><path fill="#0E1011" fill-rule="evenodd" d="M1 7.5A6.5 6.5 0 0 1 7.5 1h1A6.5 6.5 0 0 1 15 7.5v5.78a1.5 1.5 0 0 1-1.026 1.422l-.585.195a2.002 2.002 0 0 1-.632.103H12.5a1.5 1.5 0 0 1-1.5-1.5v-3A1.5 1.5 0 0 1 12.5 9h.257a2 2 0 0 1 .632.103l.611.203V7.5A5.5 5.5 0 0 0 8.5 2h-1A5.5 5.5 0 0 0 2 7.5v1.806l.611-.203A2 2 0 0 1 3.243 9H3.5A1.5 1.5 0 0 1 5 10.5v3A1.5 1.5 0 0 1 3.5 15h-.257c-.215 0-.428-.035-.632-.103l-.585-.195A1.5 1.5 0 0 1 1 13.28zm1 3.75h1.5v-.5H2zm10.5 0H14v-.5h-1.5zm-10.5 1h1.5v-.5H2zm10.5 0H14v-.5h-1.5z" clip-rule="evenodd"/></svg>