<svg xmlns="http://www.w3.org/2000/svg" fill="none" viewBox="0 0 16 16"><path fill="#0E1011" fill-rule="evenodd" d="M0 4.5A2.5 2.5 0 0 1 2.5 2h11A2.5 2.5 0 0 1 16 4.5v7a2.5 2.5 0 0 1-2.5 2.5h-11A2.5 2.5 0 0 1 0 11.5v-7ZM1 4a.25.25 0 0 1 .25-.25H4.5a.25.25 0 0 1 0 .5H1.25A.25.25 0 0 1 1 4Zm13.625 1.875h-3.75v3.25h3.75a.375.375 0 0 1 0 .75h-3.75v2.75a.375.375 0 0 1-.75 0v-2.75h-4.25v2.75a.375.375 0 0 1-.75 0v-2.75h-3.75a.375.375 0 1 1 0-.75h3.75v-3.25h-3.75a.375.375 0 1 1 0-.75h13.25a.375.375 0 0 1 0 .75Zm-8.75 3.25h4.25v-3.25h-4.25v3.25ZM6.5 3.75a.25.25 0 0 0 0 .5h3a.25.25 0 0 0 0-.5h-3Zm4.75.25a.25.25 0 0 1 .25-.25h3.25a.25.25 0 1 1 0 .5H11.5a.25.25 0 0 1-.25-.25Z" clip-rule="evenodd"/></svg>