<svg xmlns="http://www.w3.org/2000/svg" fill="none" viewBox="0 0 12 12"><path fill="#0E1011" fill-rule="evenodd" d="M6.375 1.125a.375.375 0 1 0-.75 0V1.5H5.25A2.25 2.25 0 0 0 3 3.75v.06a2.25 2.25 0 0 0 1.67 2.174l.955.254V9.75H5.25a1.5 1.5 0 0 1-1.5-1.5H3a2.25 2.25 0 0 0 2.25 2.25h.375v.375a.375.375 0 0 0 .75 0V10.5h.75a2.25 2.25 0 0 0 2.25-2.25v-.06a2.25 2.25 0 0 0-1.67-2.174l-1.33-.354V2.25h.375a1.5 1.5 0 0 1 1.5 1.5H9A2.25 2.25 0 0 0 6.75 1.5h-.375v-.375Zm-.75 1.125H5.25a1.5 1.5 0 0 0-1.5 1.5v.06a1.5 1.5 0 0 0 1.114 1.449l.761.203V2.25Zm.75 4.188V9.75h.75a1.5 1.5 0 0 0 1.5-1.5v-.06a1.5 1.5 0 0 0-1.114-1.449l-1.136-.303Z" clip-rule="evenodd"/></svg>