<svg xmlns="http://www.w3.org/2000/svg" fill="none" viewBox="0 0 16 16"><path fill="#0E1011" fill-rule="evenodd" d="M7.5 2a.5.5 0 0 0-.5.5v11a.5.5 0 0 0 .5.5h1a.5.5 0 0 0 .5-.5v-11a.5.5 0 0 0-.5-.5h-1ZM6 2.5A1.5 1.5 0 0 1 7.5 1h1A1.5 1.5 0 0 1 10 2.5v11A1.5 1.5 0 0 1 8.5 15h-1A1.5 1.5 0 0 1 6 13.5v-11Zm6.5 4a.5.5 0 0 0-.5.5v6.5a.5.5 0 0 0 .5.5h1a.5.5 0 0 0 .5-.5V7a.5.5 0 0 0-.5-.5h-1ZM11 7a1.5 1.5 0 0 1 1.5-1.5h1A1.5 1.5 0 0 1 15 7v6.5a1.5 1.5 0 0 1-1.5 1.5h-1a1.5 1.5 0 0 1-1.5-1.5V7ZM2.5 9a.5.5 0 0 0-.5.5v4a.5.5 0 0 0 .5.5h1a.5.5 0 0 0 .5-.5v-4a.5.5 0 0 0-.5-.5h-1ZM1 9.5A1.5 1.5 0 0 1 2.5 8h1A1.5 1.5 0 0 1 5 9.5v4A1.5 1.5 0 0 1 3.5 15h-1A1.5 1.5 0 0 1 1 13.5v-4Z" clip-rule="evenodd"/></svg>