<svg xmlns="http://www.w3.org/2000/svg" fill="none" viewBox="0 0 12 12"><path fill="#0E1011" d="M7.423.19a.375.375 0 0 0-.083.745 4.125 4.125 0 0 1 3.644 3.64.375.375 0 1 0 .745-.084A4.875 4.875 0 0 0 7.423.19ZM7.453 2.194a.375.375 0 0 0-.144.737 2.125 2.125 0 0 1 1.68 1.678.375.375 0 1 0 .735-.143 2.875 2.875 0 0 0-2.27-2.272ZM11.25 9.75c0 .829-.675 1.511-1.495 1.394a10.43 10.43 0 0 1-3.786-1.316 10.552 10.552 0 0 1-3.724-3.674 10.432 10.432 0 0 1-1.39-3.909C.738 1.425 1.421.75 2.25.75h1.5c.414 0 .745.337.79.749.073.657.24 1.286.488 1.872L3.817 4.582a.365.365 0 0 0-.062.439A8.666 8.666 0 0 0 7.11 8.319c.143.078.319.049.433-.066L8.768 7.03a6.707 6.707 0 0 0 1.733.43c.412.045.749.377.749.791v1.5Z"/></svg>