<svg xmlns="http://www.w3.org/2000/svg" fill="none" viewBox="0 0 16 16"><path fill="#0E1011" fill-rule="evenodd" d="M15.294 8A7.3 7.3 0 1 1 .695 8a7.3 7.3 0 0 1 14.6 0m-8.062 6.254 1.677-2.976a3.404 3.404 0 0 1-3.89-1.64L2.406 5.094a6.3 6.3 0 0 0 4.828 9.16Zm1.128.035a6.3 6.3 0 0 0 5.46-8.69H10.41A3.39 3.39 0 0 1 11.4 8c0 .631-.172 1.222-.471 1.729l-2.569 4.56m4.939-9.69H8a3.402 3.402 0 0 0-3.282 2.51L3.013 4.144A6.289 6.289 0 0 1 7.995 1.7a6.295 6.295 0 0 1 5.304 2.9ZM8 10.4a2.4 2.4 0 0 1-2.07-1.184l-.008-.015-.026-.044a2.4 2.4 0 1 1 4.18.048l-.01.017A2.4 2.4 0 0 1 8 10.4" clip-rule="evenodd"/></svg>