<svg xmlns="http://www.w3.org/2000/svg" fill="none" viewBox="0 0 12 12"><path fill="#0E1011" fill-rule="evenodd" d="M3 1.125a1.875 1.875 0 1 0 1.034 3.44L5.47 6 4.034 7.436a1.875 1.875 0 1 0 .53.53l6.201-6.2a.375.375 0 0 0-.53-.531L6 5.47 4.564 4.034A1.875 1.875 0 0 0 3 1.125ZM1.875 3a1.125 1.125 0 1 1 2.25 0 1.125 1.125 0 0 1-2.25 0ZM3 7.875a1.125 1.125 0 1 0 0 2.25 1.125 1.125 0 0 0 0-2.25Z" clip-rule="evenodd"/><path fill="#0E1011" d="M7.235 7.235a.375.375 0 0 1 .53 0l3 3a.375.375 0 0 1-.53.53l-3-3a.375.375 0 0 1 0-.53Z"/></svg>