<svg xmlns="http://www.w3.org/2000/svg" fill="none" viewBox="0 0 12 12"><path fill="#0E1011" d="M4.653 4.653a1.015 1.015 0 1 0 1.436 1.436 1.015 1.015 0 0 0-1.436-1.436Z"/><path fill="#0E1011" fill-rule="evenodd" d="M.135.135A.375.375 0 0 1 .5.04l8.224 2.224a.375.375 0 0 1 .264.263L10 6.241a.936.936 0 0 1 .788.267l.704.704a.938.938 0 0 1 0 1.326l-2.954 2.954a.938.938 0 0 1-1.326 0l-.704-.704A.936.936 0 0 1 6.24 10L2.526 8.987a.375.375 0 0 1-.263-.264L.039.499A.375.375 0 0 1 .135.135Zm.067.067c.11-.11.288-.11.398 0l3.872 3.872a1.578 1.578 0 1 1-.398.397L.202.6a.281.281 0 0 1 0-.397Zm9.56 6.162c.11.11.11.288 0 .397l-3 3a.281.281 0 1 1-.398-.397l3-3c.11-.11.288-.11.397 0Z" clip-rule="evenodd"/></svg>