<svg xmlns="http://www.w3.org/2000/svg" fill="none" viewBox="0 0 12 12"><path fill="#0E1011" fill-rule="evenodd" d="M7.125.75C6.526.75 6 1.21 6 1.828v2.344c0 .618.526 1.078 1.125 1.078S8.25 4.79 8.25 4.172V1.828C8.25 1.21 7.724.75 7.125.75ZM6.75 1.828c0-.16.144-.328.375-.328s.375.169.375.328v2.344c0 .16-.144.328-.375.328s-.375-.169-.375-.328V1.828ZM10.125 3C9.503 3 9 3.503 9 4.125v.75c0 .207.168.375.375.375h.75a1.124 1.124 0 1 0 0-2.25ZM9.75 4.125c0-.208.167-.375.375-.375s.375.167.375.375a.374.374 0 0 1-.375.375H9.75v-.375ZM3.75 7.828c0-.618.526-1.078 1.125-1.078S6 7.21 6 7.828v2.344c0 .618-.526 1.078-1.125 1.078s-1.125-.46-1.125-1.078V7.828ZM4.875 7.5c-.231 0-.375.169-.375.328v2.344c0 .16.144.328.375.328s.375-.169.375-.328V7.828c0-.16-.144-.328-.375-.328ZM1.875 6.75a1.124 1.124 0 1 0 0 2.25C2.497 9 3 8.497 3 7.875v-.75a.375.375 0 0 0-.375-.375h-.75ZM1.5 7.875c0-.208.167-.375.375-.375h.375v.375a.374.374 0 0 1-.375.375.374.374 0 0 1-.375-.375ZM6.75 7.125C6.75 6.526 7.21 6 7.828 6h2.344c.618 0 1.078.526 1.078 1.125s-.46 1.125-1.078 1.125H7.828c-.618 0-1.078-.526-1.078-1.125Zm1.078-.375c-.16 0-.328.144-.328.375s.169.375.328.375h2.344c.16 0 .328-.144.328-.375s-.169-.375-.328-.375H7.828ZM7.125 9a.375.375 0 0 0-.375.375v.75a1.124 1.124 0 1 0 2.25 0C9 9.503 8.497 9 7.875 9h-.75Zm.375 1.125V9.75h.375c.208 0 .375.167.375.375a.374.374 0 0 1-.375.375.374.374 0 0 1-.375-.375ZM.75 4.875c0-.599.46-1.125 1.078-1.125h2.344c.618 0 1.078.526 1.078 1.125S4.79 6 4.172 6H1.828C1.21 6 .75 5.474.75 4.875ZM1.828 4.5c-.16 0-.328.144-.328.375s.169.375.328.375h2.344c.16 0 .328-.144.328-.375S4.331 4.5 4.172 4.5H1.828ZM4.125.75a1.124 1.124 0 1 0 0 2.25h.75a.375.375 0 0 0 .375-.375v-.75C5.25 1.253 4.747.75 4.125.75ZM3.75 1.875c0-.208.167-.375.375-.375s.375.167.375.375v.375h-.375a.374.374 0 0 1-.375-.375Z" clip-rule="evenodd"/></svg>