<svg xmlns="http://www.w3.org/2000/svg" fill="none" viewBox="0 0 12 12"><path fill="#0E1011" d="M10.25 1.75h-8.5a1 1 0 0 0-1 1v4.97L2.5 5.97l1.517 1.517 4-3.5 2.06 2.06a3.524 3.524 0 0 0-1.073-.012L7.983 5.013l-4 3.5L2.5 7.03.765 8.765a.378.378 0 0 1-.015.015v.47a1 1 0 0 0 1 1h4.33c.058.262.144.513.257.75H1.75A1.75 1.75 0 0 1 0 9.25v-6.5C0 1.784.784 1 1.75 1h8.5c.966 0 1.75.784 1.75 1.75v4.3a3.514 3.514 0 0 0-.75-.582V2.75a1 1 0 0 0-1-1Z"/><path fill="#0E1011" d="M3 5a1 1 0 1 0 0-2 1 1 0 0 0 0 2ZM9.9 8a.4.4 0 0 0-.8 0v1.1H8a.4.4 0 0 0 0 .8h1.1V11a.4.4 0 0 0 .8 0V9.9H11a.4.4 0 0 0 0-.8H9.9V8Z"/></svg>