<svg xmlns="http://www.w3.org/2000/svg" width="13" fill="none" viewBox="0 0 13 12"><path fill="#0E1011" fill-rule="evenodd" d="M.125 2.75c0-.025 0-.05.002-.074A1.486 1.486 0 0 1 1.61 1.125H8c1.036 0 1.875.84 1.875 1.875v.341c.595.315 1 .94 1 1.659v.5a.375.375 0 0 1-.75 0V5c0-.621-.504-1.125-1.125-1.125H1.389a1.26 1.26 0 0 1-.514-.109V9c0 .621.504 1.125 1.125 1.125h1.5a.375.375 0 0 1 0 .75H2A1.875 1.875 0 0 1 .125 9V2.75Zm1.625-.875H8c.621 0 1.125.504 1.125 1.125v.125H1.389a.514.514 0 0 1-.51-.454.875.875 0 0 1 .871-.796Z" clip-rule="evenodd"/><path fill="#0E1011" d="M7 7.75a.75.75 0 1 0 0-1.5.75.75 0 0 0 0 1.5ZM9.765 7.235a.375.375 0 0 0-.53.53l1.36 1.36H5.5a.375.375 0 0 0 0 .75h5.095l-1.36 1.36a.375.375 0 1 0 .53.53L12.03 9.5 9.765 7.235Z"/></svg>