<svg xmlns="http://www.w3.org/2000/svg" fill="none" viewBox="0 0 16 16"><path fill="#0E1011" fill-rule="evenodd" d="M3.5 2h9A1.5 1.5 0 0 1 14 3.5v9a1.5 1.5 0 0 1-1.5 1.5h-9A1.5 1.5 0 0 1 2 12.5v-9A1.5 1.5 0 0 1 3.5 2ZM1 3.5A2.5 2.5 0 0 1 3.5 1h9A2.5 2.5 0 0 1 15 3.5v9a2.5 2.5 0 0 1-2.5 2.5h-9A2.5 2.5 0 0 1 1 12.5v-9Zm5.5 4.293L3.854 5.146a.5.5 0 1 0-.708.708L5.97 8.677a.75.75 0 0 0 1.06 0l1.47-1.47L11.293 10H9.5a.5.5 0 0 0 0 1H13V7.5a.5.5 0 0 0-1 0v1.793l-2.97-2.97a.75.75 0 0 0-1.06 0L6.5 7.793Z" clip-rule="evenodd"/></svg>