<svg xmlns="http://www.w3.org/2000/svg" fill="none" viewBox="0 0 16 16"><path fill="#0E1011" fill-rule="evenodd" d="M13 4.5A2.5 2.5 0 0 0 10.5 2h-8A2.5 2.5 0 0 0 0 4.5v7A2.5 2.5 0 0 0 2.5 14h3.318l-.44-.44L8.44 10.5a1.5 1.5 0 0 1 2.476 1.56h3.022c.041-.18.063-.367.063-.56v-5c0-.818-.393-1.544-1-2M12 4H2.024a.461.461 0 0 1-.256-.845A.923.923 0 0 1 2.279 3h8.603a1 1 0 0 1 .895.553L12 4m-2 5a1 1 0 1 0 0-2 1 1 0 0 0 0 2m-.854 2.146a.5.5 0 0 1 .708.708L8.707 13H15.5a.5.5 0 0 1 0 1H8.707l1.147 1.146a.5.5 0 0 1-.708.708l-2-2a.5.5 0 0 1 0-.708l2-2" clip-rule="evenodd"/></svg>