<svg xmlns="http://www.w3.org/2000/svg" fill="none" viewBox="0 0 16 16"><path fill="#0E1011" fill-rule="evenodd" d="M4.834 2.005A1 1 0 0 1 5 2.557V4a1 1 0 0 1-1 1H2.557a1 1 0 0 1-.707-.293l-.72-.72a4.006 4.006 0 0 0-.12 1.294 4 4 0 0 0 5.278 3.507l5.694 5.694a1.768 1.768 0 1 0 2.5-2.5L8.788 6.288A4 4 0 0 0 3.987 1.13l.72.72a1 1 0 0 1 .127.156Zm1.126.152a2 2 0 0 1 .04.4V4a2 2 0 0 1-2 2H2.557a2 2 0 0 1-.4-.04 3.001 3.001 0 0 0 3.81 1.881l.588-.2 6.134 6.134a.768.768 0 1 0 1.086-1.086L7.641 6.555l.2-.589a3.001 3.001 0 0 0-1.882-3.81Z" clip-rule="evenodd"/></svg>