<svg xmlns="http://www.w3.org/2000/svg" fill="none" viewBox="0 0 16 16"><path fill="#0E1011" d="M6.5 5.75c0-.69.56-1.25 1.25-1.25h.5c.69 0 1.25.56 1.25 1.25v.422a1.5 1.5 0 0 1-.44 1.06l-.828.829A2.5 2.5 0 0 0 7.5 9.828V10a.5.5 0 0 0 1 0v-.172c0-.397.158-.779.44-1.06l.828-.829a2.5 2.5 0 0 0 .732-1.767V5.75A2.25 2.25 0 0 0 8.25 3.5h-.5A2.25 2.25 0 0 0 5.5 5.75V6a.5.5 0 0 0 1 0v-.25ZM8.6 12a.6.6 0 1 1-1.2 0 .6.6 0 0 1 1.2 0Z"/><path fill="#0E1011" fill-rule="evenodd" d="M15.294 8A7.3 7.3 0 1 1 .695 8a7.3 7.3 0 0 1 14.6 0Zm-1 0A6.3 6.3 0 1 1 1.695 8a6.3 6.3 0 0 1 12.6 0Z" clip-rule="evenodd"/></svg>