<svg xmlns="http://www.w3.org/2000/svg" fill="none" viewBox="0 0 12 12"><path fill="#0E1011" fill-rule="evenodd" d="M10 1a1 1 0 0 0-1 1v8a1 1 0 0 0 1 1h1a1 1 0 0 0 1-1V2a1 1 0 0 0-1-1h-1Zm1 .75h-1a.25.25 0 0 0-.25.25v8c0 .138.112.25.25.25h1a.25.25 0 0 0 .25-.25V2a.25.25 0 0 0-.25-.25ZM2 6a1 1 0 0 0-1 1v3a1 1 0 0 0 1 1h1a1 1 0 0 0 1-1V7a1 1 0 0 0-1-1H2Zm1 .75H2a.25.25 0 0 0-.25.25v3c0 .138.112.25.25.25h1a.25.25 0 0 0 .25-.25V7A.25.25 0 0 0 3 6.75ZM5 5a1 1 0 0 1 1-1h1a1 1 0 0 1 1 1v5a1 1 0 0 1-1 1H6a1 1 0 0 1-1-1V5Zm1-.25h1a.25.25 0 0 1 .25.25v5a.25.25 0 0 1-.25.25H6a.25.25 0 0 1-.25-.25V5A.25.25 0 0 1 6 4.75Z" clip-rule="evenodd"/></svg>