<svg xmlns="http://www.w3.org/2000/svg" fill="none" viewBox="0 0 12 12"><path fill="#0E1011" fill-rule="evenodd" d="M1.688 1.75a.937.937 0 0 0-.938.938v5.374c0 .518.42.938.938.938h.937a.375.375 0 1 1 0 .75h-.938A1.688 1.688 0 0 1 0 8.062V2.689C0 1.756.756 1 1.688 1h8.624C11.245 1 12 1.756 12 2.688v5.374c0 .932-.755 1.688-1.688 1.688h-.937a.375.375 0 1 1 0-.75h.938c.517 0 .937-.42.937-.938V2.689a.937.937 0 0 0-.938-.938H1.688ZM6 6.89l3.392 4.36H2.608L6 6.89ZM4.142 10.5h3.716L6 8.11 4.142 10.5Z" clip-rule="evenodd"/></svg>