<svg xmlns="http://www.w3.org/2000/svg" fill="none" viewBox="0 0 12 12"><path fill="#0E1011" fill-rule="evenodd" d="M6.431.148a1.125 1.125 0 0 0-.862 0L.694 2.17C.274 2.344 0 2.754 0 3.209v5.608c0 .455.274.865.694 1.04l4.875 2.021c.276.115.586.115.862 0l4.875-2.022c.42-.174.694-.584.694-1.039V3.21c0-.455-.274-.865-.694-1.04L6.431.149ZM5.856.84a.375.375 0 0 1 .288 0l4.41 1.829-1.924.824-4.359-1.996L5.856.84ZM3.326 1.89l-1.88.78L6 4.62l1.7-.728L3.326 1.89ZM.751 3.188l-.001.02v5.61c0 .15.091.288.231.346l4.644 1.926V5.277L.751 3.187Zm5.624 7.902 4.644-1.926a.375.375 0 0 0 .231-.347V3.188L6.374 5.277v5.813Z" clip-rule="evenodd"/></svg>