<svg xmlns="http://www.w3.org/2000/svg" fill="none" viewBox="0 0 12 12"><path fill="#0E1011" fill-rule="evenodd" d="M0 2.625c0-.207.168-.375.375-.375h.75a.375.375 0 1 1 0 .75h-.75A.375.375 0 0 1 0 2.625Zm2.25 0c0-.207.168-.375.375-.375h7.5a.375.375 0 0 1 0 .75h-7.5a.375.375 0 0 1-.375-.375ZM0 6c0-.207.168-.375.375-.375h.75a.375.375 0 1 1 0 .75h-.75A.375.375 0 0 1 0 6Zm2.25 0c0-.207.168-.375.375-.375h9a.375.375 0 0 1 0 .75h-9A.375.375 0 0 1 2.25 6ZM0 9.375C0 9.168.168 9 .375 9h.75a.375.375 0 1 1 0 .75h-.75A.375.375 0 0 1 0 9.375Zm2.25 0c0-.207.168-.375.375-.375h5.25a.375.375 0 1 1 0 .75h-5.25a.375.375 0 0 1-.375-.375Z" clip-rule="evenodd"/></svg>