<svg xmlns="http://www.w3.org/2000/svg" fill="none" viewBox="0 0 12 12"><path fill="#0E1011" fill-rule="evenodd" d="M7.182 1.272a2.615 2.615 0 0 1 2.73.544 5.075 5.075 0 0 0 1.247-.642.375.375 0 0 1 .58.395 4.234 4.234 0 0 1-1.006 1.874c.011.095.017.19.017.286v.001c0 3.006-1.445 5.2-3.511 6.3-2.057 1.095-4.692 1.085-7.046-.222a.375.375 0 0 1 .197-.703 5.445 5.445 0 0 0 2.706-.598c-.841-.478-1.43-1.059-1.827-1.686-.488-.77-.673-1.587-.706-2.324-.034-.736.083-1.4.207-1.877a6.417 6.417 0 0 1 .254-.774l.006-.012.001-.004.001-.001.343.151-.343-.151a.377.377 0 0 1 .65-.065A4.955 4.955 0 0 0 5.5 3.866v-.119a2.615 2.615 0 0 1 1.682-2.475ZM1.512 2.75l-.016.058a5.677 5.677 0 0 0-.184 1.655c.03.638.188 1.32.59 1.957.402.634 1.06 1.244 2.125 1.717a.375.375 0 0 1 .059.653 6.195 6.195 0 0 1-2.212.938c1.76.574 3.56.412 5.012-.36C8.695 8.405 10 6.474 10 3.73c0-.116-.012-.232-.033-.346a.375.375 0 0 1 .105-.337c.216-.213.402-.452.554-.71-.231.104-.47.193-.713.266a.375.375 0 0 1-.39-.113A1.865 1.865 0 0 0 6.25 3.74v.505c0 .203-.162.37-.365.375A5.705 5.705 0 0 1 1.51 2.75Z" clip-rule="evenodd"/><path fill="#0E1011" d="m1.496 2.808.015-.058a5.705 5.705 0 0 0 4.374 1.87.375.375 0 0 0 .365-.375V3.74a1.865 1.865 0 0 1 3.272-1.249c.097.111.25.156.391.113.244-.073.482-.162.713-.267a3.484 3.484 0 0 1-.554.711.375.375 0 0 0-.105.337c.021.114.033.23.033.346 0 2.743-1.305 4.674-3.114 5.637-1.451.772-3.252.934-5.012.36a6.195 6.195 0 0 0 2.212-.938.375.375 0 0 0-.059-.653C2.962 7.664 2.304 7.054 1.903 6.42c-.403-.636-.562-1.32-.59-1.957-.03-.64.072-1.226.183-1.655Z"/></svg>