<svg xmlns="http://www.w3.org/2000/svg" fill="none" viewBox="0 0 12 12"><path fill="#0E1011" fill-rule="evenodd" d="M12.002 5.998a6 6 0 1 1-12 0 6 6 0 0 1 12 0Zm-1.976 3.373a5.239 5.239 0 0 1-4.344 1.867l2.7-4.675L9.957 9.29a.281.281 0 0 0 .069.08Zm.353-.473-2.701-4.68h3.151a.28.28 0 0 0 .106-.02 5.24 5.24 0 0 1 .317 1.8 5.226 5.226 0 0 1-.873 2.9Zm.323-5.242H5.296L6.872.928a.28.28 0 0 0 .035-.102 5.257 5.257 0 0 1 3.795 2.83ZM6.321.758A5.239 5.239 0 0 0 1.975 2.63a.28.28 0 0 1 .068.08L3.62 5.437 6.32.758Zm-4.7 2.346c-.549.83-.869 1.824-.869 2.894 0 .633.112 1.24.318 1.802a.28.28 0 0 1 .1-.019h3.152l-2.7-4.677Zm-.317 5.24a5.257 5.257 0 0 0 3.79 2.826.28.28 0 0 1 .034-.098l1.576-2.728h-5.4Zm3.668-.563-1.029-1.78 1.029-1.782h2.057L8.057 6 7.029 7.781H4.972Z" clip-rule="evenodd"/></svg>