<svg xmlns="http://www.w3.org/2000/svg" fill="none" viewBox="0 0 12 12"><path fill="#0E1011" fill-rule="evenodd" d="M7.5.375C7.5.168 7.668 0 7.875 0H12v4.125a.375.375 0 0 1-.75 0V1.28L5.89 6.64a.375.375 0 1 1-.53-.53L10.72.75H7.875A.375.375 0 0 1 7.5.375ZM1 2.938c0-.932.756-1.688 1.688-1.688h2.937a.375.375 0 1 1 0 .75H2.687a.937.937 0 0 0-.937.938v6.374c0 .518.42.938.938.938h6.374c.518 0 .938-.42.938-.938V6.376a.375.375 0 0 1 .75 0v2.938c0 .931-.756 1.687-1.688 1.687H2.689A1.687 1.687 0 0 1 1 9.312V2.939Z" clip-rule="evenodd"/></svg>