<svg xmlns="http://www.w3.org/2000/svg" fill="none" viewBox="0 0 16 16"><path fill="#0E1011" fill-rule="evenodd" d="M5 6a1 1 0 0 1 1-1h4a1 1 0 0 1 1 1v4a1 1 0 0 1-1 1H6a1 1 0 0 1-1-1zm5 0H6v4h4z" clip-rule="evenodd"/><path fill="#0E1011" fill-rule="evenodd" d="M6 1h4V0h1v1h1.5A2.5 2.5 0 0 1 15 3.5V5h1v1h-1v4h1v1h-1v1.5a2.5 2.5 0 0 1-2.5 2.5H11v1h-1v-1H6v1H5v-1H3.5A2.5 2.5 0 0 1 1 12.5V11H0v-1h1V6H0V5h1V3.5A2.5 2.5 0 0 1 3.5 1H5V0h1zm6.5 1h-9A1.5 1.5 0 0 0 2 3.5v9A1.5 1.5 0 0 0 3.5 14h9a1.5 1.5 0 0 0 1.5-1.5v-9A1.5 1.5 0 0 0 12.5 2" clip-rule="evenodd"/></svg>