<svg xmlns="http://www.w3.org/2000/svg" fill="none" viewBox="0 0 16 16"><path fill="#0E1011" fill-rule="evenodd" d="M12 4a4 4 0 1 1-8 0 4 4 0 0 1 8 0Zm-1 0a3 3 0 1 1-6 0 3 3 0 0 1 6 0ZM4.168 9H5.5l1.382.691a2.5 2.5 0 0 0 2.236 0L10.5 9h1.332a2.5 2.5 0 0 1 2.475 2.146l.213 1.491A7.99 7.99 0 0 1 8 16a7.99 7.99 0 0 1-6.52-3.363l.213-1.49A2.5 2.5 0 0 1 4.168 9ZM8 15a6.986 6.986 0 0 1-5.47-2.633l.153-1.08A1.5 1.5 0 0 1 4.168 10h1.096l1.17.585a3.5 3.5 0 0 0 3.131 0L10.736 10h1.096a1.5 1.5 0 0 1 1.485 1.288l.154 1.08A6.986 6.986 0 0 1 8 15Z" clip-rule="evenodd"/></svg>