<svg xmlns="http://www.w3.org/2000/svg" fill="none" viewBox="0 0 16 16"><path fill="#0E1011" d="M8 5.444a2.556 2.556 0 1 0 0 5.112 2.556 2.556 0 0 0 0-5.112Z"/><path fill="#0E1011" fill-rule="evenodd" d="M3.667 8a4.333 4.333 0 1 1 8.666 0 4.333 4.333 0 0 1-8.666 0Zm1.11 0a3.222 3.222 0 1 1 6.445 0 3.222 3.222 0 0 1-6.444 0Z" clip-rule="evenodd"/><path fill="#0E1011" fill-rule="evenodd" d="M15.294 8A7.3 7.3 0 1 1 .695 8a7.3 7.3 0 0 1 14.6 0ZM8 3a5 5 0 1 0 0 10A5 5 0 0 0 8 3Z" clip-rule="evenodd"/></svg>