<svg xmlns="http://www.w3.org/2000/svg" fill="none" viewBox="0 0 12 12"><path fill="#0E1011" fill-rule="evenodd" d="M1.688 3a.937.937 0 0 0-.938.938v4.124c0 .518.42.938.938.938h5.625c.517 0 .937-.42.937-.938V3.939A.937.937 0 0 0 7.312 3H1.688ZM0 3.938C0 3.006.756 2.25 1.688 2.25h5.625C8.244 2.25 9 3.006 9 3.938v4.124c0 .932-.756 1.688-1.688 1.688H1.688A1.688 1.688 0 0 1 0 8.062V3.939Zm11.807-.891c.119.066.193.192.193.328v5.25a.375.375 0 0 1-.574.318L9.375 7.661V4.339l2.051-1.282a.375.375 0 0 1 .38-.01Zm-1.682 1.708v2.49l1.125.703V4.052l-1.125.703Z" clip-rule="evenodd"/><path fill="#0E1011" d="M10.125 7.245v-2.49l1.125-.703v3.896l-1.125-.703ZM.75 3.938c0-.518.42-.938.938-.938h5.625c.517 0 .937.42.937.938v4.124c0 .518-.42.938-.938.938H1.688a.937.937 0 0 1-.937-.938V3.939Z"/></svg>