<svg xmlns="http://www.w3.org/2000/svg" fill="none" viewBox="0 0 16 16"><path fill="#0E1011" fill-rule="evenodd" d="M7.843.025a.5.5 0 0 1 .314 0l5.814 1.922A1.5 1.5 0 0 1 15 3.37v3.007a9.495 9.495 0 0 1-1.055 4.351l-.89-.458A8.495 8.495 0 0 0 14 6.378V3.371a.5.5 0 0 0-.343-.475L8 1.026 4.775 2.094l-.314-.95L7.843.025ZM1.524 2.231.146.854.854.146l15 15-.708.708-2.843-2.844a9.502 9.502 0 0 1-1.596 1.314l-2.433 1.594a.5.5 0 0 1-.548 0l-2.433-1.594A9.5 9.5 0 0 1 1 6.378V3.371c0-.448.199-.86.524-1.14Zm.714.714A.5.5 0 0 0 2 3.371v3.007a8.5 8.5 0 0 0 3.841 7.11L8 14.902l2.159-1.414a8.495 8.495 0 0 0 1.436-1.185L2.238 2.944Z" clip-rule="evenodd"/></svg>