<svg xmlns="http://www.w3.org/2000/svg" fill="none" viewBox="0 0 12 12"><path fill="#0E1011" d="M3.387 3.397a4.205 4.205 0 0 1 2.988-1.24.281.281 0 0 0 0-.563A4.767 4.767 0 0 0 2.988 3a.281.281 0 0 0 .399.397Z"/><path fill="#0E1011" fill-rule="evenodd" d="M11.425 6.75H6v2.625a1.125 1.125 0 0 0 2.25 0v-.188a.375.375 0 1 1 .75 0v.188a1.875 1.875 0 0 1-3.75 0V6.75H.575a.375.375 0 0 1-.374-.35 5.812 5.812 0 1 1 11.598 0 .375.375 0 0 1-.374.35ZM6 .937A5.063 5.063 0 0 0 .937 6h10.126A5.063 5.063 0 0 0 6 .937Z" clip-rule="evenodd"/></svg>