<svg xmlns="http://www.w3.org/2000/svg" fill="none" viewBox="0 0 12 12"><path fill="#0E1011" d="M6 0C4.98 0 4.079.509 3.537 1.287l5.198 5.198A2.99 2.99 0 0 0 9 5.25V3a3 3 0 0 0-3-3ZM3 3.53v1.72a3 3 0 0 0 4.383 2.663l.75.75A2.987 2.987 0 0 1 6.75 9h-1.5a3 3 0 0 1-3-3v-.188a.375.375 0 1 0-.75 0V6a3.75 3.75 0 0 0 3.75 3.75h.375v1.5H4.5a.375.375 0 0 0 0 .75h3a.375.375 0 0 0 0-.75H6.375v-1.5h.375c.707 0 1.369-.196 1.933-.536l2.49 2.489a.375.375 0 0 0 .53-.53L.828.296a.375.375 0 1 0-.53.53L3 3.53ZM10.5 6c0 .65-.165 1.261-.456 1.794l-.56-.56A2.99 2.99 0 0 0 9.75 6v-.188a.375.375 0 1 1 .75 0V6Z"/></svg>