<svg xmlns="http://www.w3.org/2000/svg" fill="none" viewBox="0 0 16 16"><path fill="#0E1011" d="M8.375.75a.375.375 0 1 0-.75 0V3.5a.375.375 0 1 0 .75 0V.75ZM13.392 3.139a.375.375 0 0 0-.53-.53l-1.945 1.944a.375.375 0 0 0 .53.53l1.945-1.944ZM3.139 2.608a.375.375 0 1 0-.53.53l1.944 1.945a.375.375 0 1 0 .53-.53L3.14 2.608ZM.75 7.625a.375.375 0 1 0 0 .75H3.5a.375.375 0 1 0 0-.75H.75ZM12.5 7.625a.375.375 0 0 0 0 .75h2.75a.375.375 0 0 0 0-.75H12.5ZM5.083 11.447a.375.375 0 1 0-.53-.53L2.608 12.86a.375.375 0 1 0 .53.53l1.945-1.944ZM11.447 10.917a.375.375 0 0 0-.53.53l1.944 1.945a.375.375 0 0 0 .53-.53l-1.944-1.945ZM8.375 12.5a.375.375 0 0 0-.75 0v2.75a.375.375 0 0 0 .75 0V12.5Z"/><path fill="#0E1011" fill-rule="evenodd" d="M8 5a3 3 0 1 0 0 6 3 3 0 0 0 0-6ZM6 8a2 2 0 1 1 4 0 2 2 0 0 1-4 0Z" clip-rule="evenodd"/></svg>