<svg xmlns="http://www.w3.org/2000/svg" fill="none" viewBox="0 0 12 12"><path fill="#0E1011" fill-rule="evenodd" d="M9 3a3 3 0 1 1-6 0 3 3 0 0 1 6 0Zm-.75 0a2.25 2.25 0 1 1-4.5 0 2.25 2.25 0 0 1 4.5 0Z" clip-rule="evenodd"/><path fill="#0E1011" d="M6 6.75v.75H3.126c-.56 0-1.034.412-1.113.966l-.116.81A5.239 5.239 0 0 0 6 11.25V12a5.992 5.992 0 0 1-4.89-2.522l.16-1.118a1.875 1.875 0 0 1 1.856-1.61H6ZM11.89 8.89a.375.375 0 0 0-.53-.53l-2.735 2.735L7.39 9.86a.375.375 0 1 0-.53.53l1.5 1.5a.375.375 0 0 0 .53 0l3-3Z"/></svg>