<svg xmlns="http://www.w3.org/2000/svg" fill="none" viewBox="0 0 16 16"><path fill="#0E1011" fill-rule="evenodd" d="M13 4.5A2.5 2.5 0 0 0 10.5 2h-8A2.5 2.5 0 0 0 0 4.5v7A2.5 2.5 0 0 0 2.5 14h3.585A1.5 1.5 0 0 1 7.5 12h4.585A1.5 1.5 0 0 1 14 10.085V6.5c0-.818-.393-1.544-1-2M12 4H1.72c-.72 0-.332-.592.048-.845A.923.923 0 0 1 2.279 3h8.603a1 1 0 0 1 .895.553L12 4m-2 6a1 1 0 1 0 0-2 1 1 0 0 0 0 2" clip-rule="evenodd"/><path fill="#0E1011" d="M13.854 11.146a.5.5 0 0 0-.708.708L14.293 13H7.5a.5.5 0 0 0 0 1h6.793l-1.147 1.146a.5.5 0 0 0 .708.708l2-2a.5.5 0 0 0 0-.708l-2-2"/></svg>