<svg xmlns="http://www.w3.org/2000/svg" fill="none" viewBox="0 0 16 16"><path fill="#0E1011" d="M7.571 11.714v1.841A5.573 5.573 0 0 1 2.445 8.43h1.84a.429.429 0 1 0 0-.858h-1.84A5.573 5.573 0 0 1 7.57 2.445v1.84a.429.429 0 1 0 .858 0v-1.84a5.573 5.573 0 0 1 5.126 5.126h-1.84a.429.429 0 1 0 0 .858h1.84a5.573 5.573 0 0 1-5.126 5.126v-1.84a.429.429 0 1 0-.858 0"/><path fill="#0E1011" fill-rule="evenodd" d="M15.294 8A7.3 7.3 0 1 1 .695 8a7.3 7.3 0 0 1 14.6 0M2 8a6 6 0 1 0 12 0A6 6 0 0 0 2 8" clip-rule="evenodd"/></svg>