<svg xmlns="http://www.w3.org/2000/svg" fill="none" viewBox="0 0 12 12"><path fill="#0E1011" d="M9 3a3 3 0 1 1-6 0 3 3 0 0 1 6 0ZM3.126 6.75c-.933 0-1.724.686-1.856 1.61l-.16 1.118a5.993 5.993 0 0 0 6.019 2.416A3.367 3.367 0 0 1 6 9.375c0-1.06.489-2.006 1.253-2.625H3.127Z"/><path fill="#0E1011" fill-rule="evenodd" d="M12 9.375a2.625 2.625 0 1 1-5.25 0 2.625 2.625 0 0 1 5.25 0ZM9.375 7.5c.207 0 .375.168.375.375V9h1.125a.375.375 0 0 1 0 .75H9.75v1.313a.375.375 0 0 1-.75 0V9.75H7.875a.375.375 0 1 1 0-.75H9V7.875c0-.207.168-.375.375-.375Z" clip-rule="evenodd"/></svg>