<svg xmlns="http://www.w3.org/2000/svg" fill="none" viewBox="0 0 12 12"><path fill="#0E1011" fill-rule="evenodd" d="M12 6A6 6 0 1 1 0 6a6 6 0 0 1 12 0ZM5.678.984 5.5.938a5.056 5.056 0 0 0-2.319.828l.091.024.13.124.087.144v.227l-.087.269c-.05.082-.151.252-.151.268 0 .017-.03.269-.044.393v.289l.044.186.021.185.065.186.065.207.022.103h.238l.174.062.065.144.195.352.065.123.282.042.216.041.174.083.216.144.196.207c.021.02.073.066.108.082a.544.544 0 0 0 .195 0c.05.028.152.087.152.104 0 .01.021.046.043.082a.376.376 0 0 1 .043.083l.004.024c.005.028.012.07-.004.1a.414.414 0 0 1-.102.085c-.037.026-.071.05-.071.06v.144l.087.31.086.165v.206c0 .013-.004.026-.009.04-.01.03-.02.062.01.105.022.033.04.071.053.104.013.028.023.051.033.06.022.022.043.042.087.063.016.008.032.012.05.018.028.008.06.018.101.044.12.068.18.093.218.108.03.012.045.018.064.036.03.028.03.028.039.043l.026.04c.018.025.032.03.042.033.015.006.023.008.023.07v.785l.195.454.152.496.043.475.195.206.217.124.108.041.109-.04v-.125l-.065-.144-.044-.124-.043-.104v-.144l.043-.083.109-.124.152-.247V8.83l.043-.227.737-.537.238-.248-.021-.598.108-.145.13-.083.087-.082v-.207l-.087-.062-.369-.103-.216-.103-.26-.165-.195-.227-.109-.166-.151-.123-.39-.124-.304-.166-.195-.062-.282-.04-.477.02-.151-.02-.087-.083-.087-.186-.195-.042-.108-.02-.108-.062.043-.269.022-.062-.022-.062h-.109l-.108.021h-.087l-.195.041h-.13l-.043-.123.022-.166.108-.227.195-.165.217-.02h.238l.217.082.217.144h.043l.087-.04.021-.063.022-.392.455-.33.282-.269.238-.186.152-.082.347-.042.152-.041.021-.041v-.083l-.021-.062-.044-.062V2.41l.044-.041h.151l.13.02.13-.04.087-.145.043-.103-.173-.083V1.83l-.043-.083h-.13l-.087-.04-.152-.063-.108-.103-.109.02-.195.125-.238.144-.282.103-.26.042-.152-.042-.086-.186.043-.185.087-.083.26-.103.195-.083.282-.082.043-.062v-.124a5.075 5.075 0 0 0-.52-.083v.041l-.152.104-.108.062h-.217l-.39-.166Zm1.994.31v-.099c.142.05.282.106.418.167l-.136.056H7.78l-.108-.124Zm1.762.954a5.104 5.104 0 0 0-.81-.605l.002.002-.044.186-.087.145-.086.165-.044.165.13.041.13.021.26-.062.412-.062.137.004Z" clip-rule="evenodd"/></svg>