<svg xmlns="http://www.w3.org/2000/svg" fill="none" viewBox="0 0 12 12"><path fill="#0E1011" fill-rule="evenodd" d="M7.126 2.106 6.896 4.4H9.71c.825 0 1.438.76 1.259 1.562l-.805 3.602A1.84 1.84 0 0 1 8.366 11H1.737A.735.735 0 0 1 1 10.267V5.133c0-.405.33-.733.737-.733h1.474L5.42 0l.556.221a1.832 1.832 0 0 1 1.15 1.885ZM3.948 4.573 5.776.934c.414.2.663.638.617 1.099l-.312 3.1H9.71a.55.55 0 0 1 .54.67l-.805 3.602a1.104 1.104 0 0 1-1.08.862H3.949V4.573Zm-.737.56H1.737v5.134h1.474V5.133Z" clip-rule="evenodd"/></svg>