<svg xmlns="http://www.w3.org/2000/svg" fill="none" viewBox="0 0 16 16"><path fill="#0E1011" fill-rule="evenodd" d="M3 2a1 1 0 0 1 1-1h5v2a2 2 0 0 0 2 2h2v2.5a.5.5 0 0 0 1 0V4.293L9.707 0H4a2 2 0 0 0-2 2v12a2 2 0 0 0 2 2h4a.5.5 0 0 0 0-1H4a1 1 0 0 1-1-1zm9.293 2L10 1.707V3a1 1 0 0 0 1 1h1.293" clip-rule="evenodd"/><path fill="#0E1011" fill-rule="evenodd" d="M16 12.5a3.5 3.5 0 1 1-7 0 3.5 3.5 0 0 1 7 0M12.5 10a.5.5 0 0 1 .5.5V12h1.5a.5.5 0 0 1 0 1H13v1.75a.5.5 0 0 1-1 0V13h-1.5a.5.5 0 0 1 0-1H12v-1.5a.5.5 0 0 1 .5-.5" clip-rule="evenodd"/></svg>