<svg xmlns="http://www.w3.org/2000/svg" height="14" fill="none" viewBox="0 0 12 14"><path fill="#0E1011" fill-rule="evenodd" d="m7.36.984-.805 4.027a.375.375 0 0 1-.735-.147l.32-1.598-.812.812a.375.375 0 1 1-.53-.53L7.36.983Zm-7.063.313a.375.375 0 0 1 .53 0l10.876 10.875a.375.375 0 0 1-.53.53L7.975 9.508 4.12 13.088l1.41-4.702-4.377-1.194 2.254-2.255-3.11-3.11a.375.375 0 0 1 0-.53Zm3.64 4.17-1.34 1.341 3.686 1.006-2.346-2.346ZM6.438 7.97l-.808 2.693 1.816-1.686L6.438 7.97Zm.747-1.77c.055-.2.26-.318.46-.264l3.23.88-1.467 1.363a.375.375 0 1 1-.51-.55l.477-.444-1.927-.525a.375.375 0 0 1-.263-.46Z" clip-rule="evenodd"/></svg>