<svg xmlns="http://www.w3.org/2000/svg" fill="none" viewBox="0 0 12 12"><path fill="#0E1011" fill-rule="evenodd" d="M3.998 5.59a1.112 1.112 0 0 1 .158-1.38l.484-.485c-.21-.649-.34-1.477-.4-2.16a.09.09 0 0 0-.026-.056.042.042 0 0 0-.012-.009H2.25c-.44 0-.696.339-.657.651.208 1.635.744 3.322 1.48 4.398a9.104 9.104 0 0 0 2.479 2.447c1.053.7 2.7 1.21 4.296 1.411.314.04.652-.217.652-.657V7.798a.04.04 0 0 0-.009-.012.086.086 0 0 0-.053-.024c-.642-.054-1.418-.17-2.03-.353l-.504.505c-.35.35-.91.445-1.363.17A7.786 7.786 0 0 1 3.998 5.59ZM.849 2.247c.217 1.704.779 3.519 1.604 4.727A9.854 9.854 0 0 0 5.137 9.62c1.183.785 2.955 1.32 4.617 1.53.822.104 1.496-.573 1.496-1.401V7.8c0-.414-.336-.75-.749-.785-.689-.059-1.495-.188-2.043-.377a.412.412 0 0 0-.427.088l-.658.658a.362.362 0 0 1-.443.058A7.036 7.036 0 0 1 4.63 5.19a.362.362 0 0 1 .055-.45l.642-.641a.411.411 0 0 0 .085-.436c-.217-.579-.363-1.434-.427-2.163C4.95 1.086 4.614.75 4.2.75H2.25c-.828 0-1.505.674-1.4 1.496Z" clip-rule="evenodd"/></svg>