<svg xmlns="http://www.w3.org/2000/svg" fill="none" viewBox="0 0 16 16"><path fill="#0E1011" fill-rule="evenodd" d="M8.557.184a1.5 1.5 0 0 0-1.114 0l-6.5 2.6A1.5 1.5 0 0 0 0 4.177v7.646a1.5 1.5 0 0 0 .943 1.393l6.5 2.6a1.5 1.5 0 0 0 1.114 0l6.5-2.6A1.5 1.5 0 0 0 16 11.823V4.177a1.5 1.5 0 0 0-.943-1.393l-6.5-2.6Zm-.743.929a.5.5 0 0 1 .372 0l6.102 2.441L8 6.069 1.712 3.554l6.102-2.441ZM1.002 4.132A.499.499 0 0 0 1 4.177v7.646a.5.5 0 0 0 .314.464L7.6 14.802V6.77L1.002 4.13ZM8.4 14.802l6.286-2.515a.5.5 0 0 0 .314-.464V4.177c0-.015 0-.03-.002-.045L8.4 6.77v8.03Z" clip-rule="evenodd"/></svg>