<svg xmlns="http://www.w3.org/2000/svg" fill="none" viewBox="0 0 12 12"><path fill="#0E1011" d="M6.144.113A.374.374 0 0 0 6 .123a.374.374 0 0 0-.144-.01 1.125 1.125 0 0 0-.28.074L3.994.829a.375.375 0 0 0 .282.695L5.86.881a.375.375 0 0 1 .093-.024A.378.378 0 0 0 6 .847a.379.379 0 0 0 .048.01.375.375 0 0 1 .093.024l1.583.643A.375.375 0 1 0 8.007.83L6.423.187a1.125 1.125 0 0 0-.279-.074ZM9.59 1.472a.375.375 0 1 0-.282.695l1.195.485-.977.396a.375.375 0 0 0 .282.695l1.318-.534v1.843a.375.375 0 0 0 .75 0V3.157c0-.152-.03-.299-.087-.433a.373.373 0 0 0-.142-.17.374.374 0 0 0-.104-.196 1.124 1.124 0 0 0-.37-.244L9.59 1.472ZM2.692 2.167a.375.375 0 0 0-.282-.695l-1.584.642c-.14.057-.265.14-.369.244a.373.373 0 0 0-.104.195.373.373 0 0 0-.142.17 1.124 1.124 0 0 0-.087.434v1.895a.375.375 0 1 0 .75 0V3.21l1.318.534a.375.375 0 1 0 .282-.695l-.978-.396 1.196-.485ZM.874 6.948a.375.375 0 1 0-.75 0v1.895c0 .152.03.299.087.433.03.073.08.13.142.17.014.072.048.141.104.196.104.103.229.187.369.244l1.584.642a.375.375 0 0 0 .282-.695l-1.584-.642a.374.374 0 0 1-.123-.081.377.377 0 0 0-.06-.049.377.377 0 0 0-.022-.074.374.374 0 0 1-.029-.144V6.948ZM11.876 6.948a.375.375 0 0 0-.75 0v1.895c0 .05-.01.1-.03.144a.38.38 0 0 0-.021.074.374.374 0 0 0-.06.049.374.374 0 0 1-.123.08l-1.584.643a.375.375 0 1 0 .282.695l1.584-.642c.14-.057.265-.14.369-.244a.374.374 0 0 0 .104-.195.373.373 0 0 0 .142-.17c.056-.135.087-.282.087-.434V6.948ZM4.275 10.476a.375.375 0 0 0-.282.695l1.584.642c.09.037.184.061.279.074.05.006.098.002.144-.01a.375.375 0 0 0 .144.01c.095-.013.189-.037.279-.074l1.584-.642a.375.375 0 0 0-.283-.695l-1.35.547V9.348a.375.375 0 1 0-.75 0v1.675l-1.349-.547ZM7.974 4.487a.375.375 0 0 0-.282-.695L6 4.48l-1.693-.687a.375.375 0 0 0-.282.695l1.6.65v1.979a.375.375 0 0 0 .75 0v-1.98l1.6-.649Z"/></svg>