<svg xmlns="http://www.w3.org/2000/svg" fill="none" viewBox="0 0 16 16"><path fill="#000" fill-rule="evenodd" d="M.854.146a.5.5 0 1 0-.708.708L3.38 4.086A4.985 4.985 0 0 0 3 6v1.343a3.5 3.5 0 0 1-1.025 2.475l-.536.536A1.5 1.5 0 0 0 1 11.414V12a1 1 0 0 0 1 1h10.293l2.853 2.854a.5.5 0 0 0 .708-.708l-15-15ZM11.293 12 5.735 6.442A.5.5 0 0 1 5 6c0-.094.004-.187.013-.28l-.85-.85A4.001 4.001 0 0 0 4 6v1.343a4.5 4.5 0 0 1-1.318 3.182l-.536.536a.5.5 0 0 0-.146.353V12h9.293M8 1c-1.38 0-2.63.56-3.536 1.464l.708.708A4 4 0 0 1 12 6v1.343a4.5 4.5 0 0 0 1.318 3.182l.536.536a.5.5 0 0 1 .146.353V12l.707.707A.997.997 0 0 0 15 12v-.586a1.5 1.5 0 0 0-.44-1.06l-.535-.536A3.5 3.5 0 0 1 13 7.343V6a5 5 0 0 0-5-5M5.879 3.879l.707.707A2 2 0 0 1 8 4a.5.5 0 0 0 0-1 3 3 0 0 0-2.121.879M8 16a2.5 2.5 0 0 1-2.5-2.5h1a1.5 1.5 0 0 0 3 0h1A2.5 2.5 0 0 1 8 16" clip-rule="evenodd"/></svg>