<svg xmlns="http://www.w3.org/2000/svg" fill="none" viewBox="0 0 12 12"><path fill="#0E1011" fill-rule="evenodd" d="M3 3.53.297.828a.375.375 0 1 1 .53-.53l10.876 10.874a.375.375 0 0 1-.53.53l-2.49-2.488a3.733 3.733 0 0 1-1.933.536h-.375v1.5H7.5a.375.375 0 0 1 0 .75h-3a.375.375 0 0 1 0-.75h1.125v-1.5H5.25A3.75 3.75 0 0 1 1.5 6v-.188a.375.375 0 1 1 .75 0V6a3 3 0 0 0 3 3h1.5c.499 0 .969-.122 1.383-.337l-.75-.75A3 3 0 0 1 3 5.25V3.53Zm3.817 3.817A2.25 2.25 0 0 1 3.75 5.25v-.97l3.067 3.067Z" clip-rule="evenodd"/><path fill="#0E1011" d="m8.735 6.485-.581-.581a2.25 2.25 0 0 0 .096-.654V3a2.25 2.25 0 0 0-4.171-1.171l-.542-.542A3 3 0 0 1 9 3v2.25c0 .44-.095.858-.265 1.235ZM9.485 7.235l.559.559c.29-.533.456-1.144.456-1.794v-.188a.375.375 0 0 0-.75 0V6c0 .44-.095.858-.265 1.235Z"/></svg>