<svg xmlns="http://www.w3.org/2000/svg" fill="none" viewBox="0 0 16 16"><path fill="#0E1011" d="M8 4.5a.5.5 0 0 1 .5.5v3.5a.5.5 0 1 1-1 0V5a.5.5 0 0 1 .5-.5M8 10a.5.5 0 0 1 .5.5v.5a.5.5 0 1 1-1 0v-.5A.5.5 0 0 1 8 10"/><path fill="#0E1011" fill-rule="evenodd" d="M6.453.921C7.111-.32 8.89-.32 9.547.921l6.093 11.51A1.75 1.75 0 0 1 14.093 15H1.907A1.75 1.75 0 0 1 .36 12.431L6.453.921Zm2.21.468 6.093 11.51A.75.75 0 0 1 14.093 14H1.907a.75.75 0 0 1-.663-1.1L7.337 1.39a.75.75 0 0 1 1.326 0" clip-rule="evenodd"/></svg>