<svg xmlns="http://www.w3.org/2000/svg" fill="none" viewBox="0 0 12 12"><path fill="#0E1011" d="M3 4.594a.281.281 0 0 0 0 .562h2.625a.281.281 0 0 0 0-.562H3ZM3 6.094a.281.281 0 0 0 0 .562h5.875a.281.281 0 0 0 0-.562H3ZM3 7.594a.281.281 0 0 0 0 .562h5.875a.281.281 0 0 0 0-.562H3ZM3 9.094a.281.281 0 0 0 0 .562h4.375a.281.281 0 0 0 0-.562H3Z"/><path fill="#0E1011" fill-rule="evenodd" d="M7.563 0H2.625a1.5 1.5 0 0 0-1.5 1.5v9a1.5 1.5 0 0 0 1.5 1.5H9.25a1.5 1.5 0 0 0 1.5-1.5V3.187L7.562 0ZM2.625 11.25H9.25a.75.75 0 0 0 .75-.75V3.75H8.125A1.125 1.125 0 0 1 7 2.625V.75H2.625a.75.75 0 0 0-.75.75v9c0 .414.336.75.75.75ZM7.75 1.248 9.502 3H8.125a.375.375 0 0 1-.375-.375V1.248Z" clip-rule="evenodd"/></svg>