<svg xmlns="http://www.w3.org/2000/svg" fill="none" viewBox="0 0 16 16"><path fill="#0E1011" fill-rule="evenodd" d="M12 4a4 4 0 1 1-8 0 4 4 0 0 1 8 0Zm-1 0a3 3 0 1 1-6 0 3 3 0 0 1 6 0Z" clip-rule="evenodd"/><path fill="#0E1011" d="M8 15a6.986 6.986 0 0 1-5.47-2.633l.153-1.08A1.5 1.5 0 0 1 4.168 10h4.59c.253-.378.561-.715.913-1H4.168a2.5 2.5 0 0 0-2.475 2.146l-.213 1.491A7.99 7.99 0 0 0 8 16a8.05 8.05 0 0 0 1.505-.141 4.522 4.522 0 0 1-.772-.897C8.492 14.987 8.247 15 8 15Z"/><path fill="#0E1011" fill-rule="evenodd" d="M16 12.5a3.5 3.5 0 1 1-7 0 3.5 3.5 0 0 1 7 0ZM12.5 10a.5.5 0 0 1 .5.5V12h1.5a.5.5 0 0 1 0 1H13v1.75a.5.5 0 0 1-1 0V13h-1.5a.5.5 0 0 1 0-1H12v-1.5a.5.5 0 0 1 .5-.5Z" clip-rule="evenodd"/></svg>