<svg xmlns="http://www.w3.org/2000/svg" fill="none" viewBox="0 0 12 12"><path fill="#0E1011" fill-rule="evenodd" d="M3.75 3a1.5 1.5 0 1 1 1.5 1.5H1.125a.375.375 0 1 1 0-.75H5.25A.75.75 0 1 0 4.5 3v.071a.375.375 0 0 1-.75 0V3ZM7.5 4.5a1.875 1.875 0 0 1 3.75 0v.188c0 1.139-.923 2.062-2.063 2.062H1.126a.375.375 0 1 1 0-.75h8.063c.724 0 1.312-.588 1.312-1.313V4.5a1.125 1.125 0 0 0-2.25 0v.038a.375.375 0 1 1-.75 0V4.5ZM.75 8.625c0-.207.168-.375.375-.375H6.75a1.5 1.5 0 1 1-1.5 1.5v-.093a.375.375 0 1 1 .75 0v.093A.75.75 0 1 0 6.75 9H1.125a.375.375 0 0 1-.375-.375Z" clip-rule="evenodd"/></svg>