<svg xmlns="http://www.w3.org/2000/svg" fill="none" viewBox="0 0 12 12"><path fill="#0E1011" fill-rule="evenodd" d="M1.5 1.5A1.5 1.5 0 0 1 3 0h4.28l3.22 3.22v2.972A3.375 3.375 0 0 0 7.253 12H3a1.5 1.5 0 0 1-1.5-1.5v-9Zm6 0a.375.375 0 1 0-.75 0v1.125c0 .621.504 1.125 1.125 1.125H9A.375.375 0 1 0 9 3H7.875a.375.375 0 0 1-.375-.375V1.5Z" clip-rule="evenodd"/><path fill="#0E1011" fill-rule="evenodd" d="M12 9.375a2.625 2.625 0 1 1-5.25 0 2.625 2.625 0 0 1 5.25 0ZM9.375 7.5c.207 0 .375.168.375.375V9h1.125a.375.375 0 0 1 0 .75H9.75v1.313a.375.375 0 0 1-.75 0V9.75H7.875a.375.375 0 1 1 0-.75H9V7.875c0-.207.168-.375.375-.375Z" clip-rule="evenodd"/></svg>