<svg xmlns="http://www.w3.org/2000/svg" fill="none" viewBox="0 0 16 16"><path fill="#0E1011" fill-rule="evenodd" d="M8 15c2.732 0 5-2.295 5-5.194 0-1.43-.51-2.65-1.505-4.061-.708-1.006-1.607-2.037-2.686-3.276-.26-.298-.529-.607-.809-.932-.28.325-.55.634-.81.932-1.078 1.239-1.977 2.27-2.685 3.276C3.51 7.156 3 8.375 3 9.806 3 12.705 5.268 15 8 15M7.342.77c-.297.344-.586.675-.865.995C3.797 4.843 2 6.906 2 9.806 2 13.227 4.686 16 8 16s6-2.773 6-6.194c0-2.9-1.797-4.963-4.477-8.04-.28-.32-.568-.652-.865-.996C8.443.52 8.224.264 8 0c-.224.264-.443.52-.658.77Z" clip-rule="evenodd"/></svg>