<svg xmlns="http://www.w3.org/2000/svg" fill="none" viewBox="0 0 12 12"><path fill="#0E1011" fill-rule="evenodd" d="M8.5 11.5c0 .182.049.353.134.5H2.5A1.5 1.5 0 0 1 1 10.5v-9A1.5 1.5 0 0 1 2.5 0h5.313L11 3.188V8.5h-.5v-1a1 1 0 1 0-2 0v1h-1a1 1 0 0 0 0 2h1v1ZM8 1.5a.375.375 0 1 0-.75 0v1.125c0 .621.504 1.125 1.125 1.125H9.5a.375.375 0 1 0 0-.75H8.375A.375.375 0 0 1 8 2.625V1.5Z" clip-rule="evenodd"/><path fill="#0E1011" d="M9.875 7.5a.375.375 0 1 0-.75 0v1.625H7.5a.375.375 0 1 0 0 .75h1.625V11.5a.375.375 0 0 0 .75 0V9.875H11.5a.375.375 0 0 0 0-.75H9.875V7.5Z"/></svg>