<svg xmlns="http://www.w3.org/2000/svg" fill="none" viewBox="0 0 12 12"><path fill="#0E1011" d="M5.625 5.25 6.75 1.5 3.937 6 6 6.75 4.875 10.5 7.688 6l-2.063-.75ZM.75 3.938c0-.518.42-.938.938-.938h1.687a.375.375 0 1 0 0-.75H1.687C.756 2.25 0 3.006 0 3.938v4.124C0 8.995.756 9.75 1.688 9.75h1.687a.375.375 0 1 0 0-.75H1.687a.937.937 0 0 1-.937-.938V3.939Z"/><path fill="#0E1011" d="M7.875 2.25a.375.375 0 1 0 0 .75h1.688c.517 0 .937.42.937.938v4.124c0 .518-.42.938-.938.938H7.875a.375.375 0 1 0 0 .75h1.688c.931 0 1.687-.756 1.687-1.688V7.5h.188c.31 0 .562-.252.562-.563v-1.5a.562.562 0 0 0-.563-.562h-.187v-.938c0-.931-.755-1.687-1.688-1.687H7.875Z"/></svg>