<svg xmlns="http://www.w3.org/2000/svg" fill="none" viewBox="0 0 12 12"><path fill="#0E1011" fill-rule="evenodd" d="M7.875 1C8.91 1 9.75 1.84 9.75 2.875c.455.342.75.887.75 1.5v3.75c0 .128-.013.254-.037.375H7.914l.293-.293a1 1 0 0 0-1.414-1.414l-2 2-.707.707.5.5H1.875A1.875 1.875 0 0 1 0 8.125v-5.25C0 1.839.84 1 1.875 1h6ZM1 3v-.25A.75.75 0 0 1 1.75 2h6a1 1 0 0 1 1 1H1Zm6.235 4.235a.375.375 0 0 1 .53.53l-1.36 1.36H11.5a.375.375 0 0 1 0 .75H6.405l1.36 1.36a.375.375 0 0 1-.53.53l-2-2L4.97 9.5l.265-.265 2-2Z" clip-rule="evenodd"/></svg>