<svg xmlns="http://www.w3.org/2000/svg" fill="none" viewBox="0 0 12 12"><path fill="#0E1011" d="M3 3.75A2.25 2.25 0 0 1 5.25 1.5h1.5A2.25 2.25 0 0 1 9 3.75h-.75a1.5 1.5 0 0 0-1.5-1.5h-1.5a1.5 1.5 0 0 0-1.5 1.5v.06c0 .41.167.79.444 1.065h-.926A2.245 2.245 0 0 1 3 3.809V3.75ZM8.18 7.125h.927c.172.32.268.684.268 1.066v.059a2.25 2.25 0 0 1-2.25 2.25H5.25A2.25 2.25 0 0 1 3 8.25h.75a1.5 1.5 0 0 0 1.5 1.5h1.875a1.5 1.5 0 0 0 1.5-1.5v-.06c0-.41-.167-.79-.444-1.065ZM1.875 5.625a.375.375 0 1 0 0 .75h8.25a.375.375 0 0 0 0-.75h-8.25Z"/></svg>