<svg xmlns="http://www.w3.org/2000/svg" fill="none" viewBox="0 0 16 16"><path fill="#0E1011" d="M7.484 4.626a.5.5 0 0 1 .5.5v1.858h1.858a.5.5 0 0 1 0 1H7.984v1.858a.5.5 0 0 1-1 0V7.984H5.126a.5.5 0 1 1 0-1h1.858V5.126a.5.5 0 0 1 .5-.5Z"/><path fill="#0E1011" fill-rule="evenodd" d="M12.382 11.734a6.484 6.484 0 1 0-.648.648.5.5 0 0 0 .112.172l2.358 2.357a.5.5 0 1 0 .707-.707l-2.357-2.358a.5.5 0 0 0-.172-.112Zm-4.898 1.234A5.484 5.484 0 1 0 7.484 2a5.484 5.484 0 0 0 0 10.968Z" clip-rule="evenodd"/></svg>