<svg xmlns="http://www.w3.org/2000/svg" fill="none" viewBox="0 0 16 16"><path fill="#0E1011" fill-rule="evenodd" d="M2.25 4C1.56 4 1 4.56 1 5.25v5.5c0 .69.56 1.25 1.25 1.25h7.5c.69 0 1.25-.56 1.25-1.25v-5.5C11 4.56 10.44 4 9.75 4zM0 5.25A2.25 2.25 0 0 1 2.25 3h7.5A2.25 2.25 0 0 1 12 5.25v5.5A2.25 2.25 0 0 1 9.75 13h-7.5A2.25 2.25 0 0 1 0 10.75zm15.742-1.187A.5.5 0 0 1 16 4.5v7a.5.5 0 0 1-.765.424l-2.735-1.71V5.786l2.735-1.709a.5.5 0 0 1 .507-.013M13.5 6.34v3.32l1.5.938V5.402l-1.5.938" clip-rule="evenodd"/><path fill="#0E1011" d="M13.5 9.66V6.34l1.5-.938v5.196l-1.5-.938M1 5.25C1 4.56 1.56 4 2.25 4h7.5c.69 0 1.25.56 1.25 1.25v5.5c0 .69-.56 1.25-1.25 1.25h-7.5C1.56 12 1 11.44 1 10.75z"/></svg>