<svg xmlns="http://www.w3.org/2000/svg" fill="none" viewBox="0 0 12 12"><path fill="#0E1011" fill-rule="evenodd" d="M6 0c.207 0 .375.168.375.375v4.327a.375.375 0 1 1-.75 0V.375C5.625.168 5.793 0 6 0ZM4.154 1.556a.375.375 0 0 1-.187.497c-1.68.762-2.842 2.438-2.842 4.38 0 2.656 2.179 4.817 4.875 4.817s4.875-2.16 4.875-4.817c0-1.942-1.163-3.618-2.842-4.38a.375.375 0 0 1 .31-.683c1.934.878 3.282 2.813 3.282 5.063C11.625 9.51 9.103 12 6 12S.375 9.511.375 6.433c0-2.25 1.348-4.185 3.283-5.063a.375.375 0 0 1 .496.186Z" clip-rule="evenodd"/></svg>