<svg xmlns="http://www.w3.org/2000/svg" fill="none" viewBox="0 0 16 16"><path fill="#0E1011" d="M15.294 8a7.3 7.3 0 0 1-9.357 7.005c.276-.44.572-.998.725-1.555.091-.33.522-2.04.522-2.04.258.492 1.011.926 1.813.926C11.382 12.336 13 10.16 13 7.25 13 5.05 11.136 3 8.303 3 4.777 3 3 5.527 3 7.635c0 1.276.483 2.412 1.52 2.835.17.07.322.002.37-.186l.073-.285c.03-.119.06-.24.08-.31.05-.187.03-.252-.107-.414-.3-.353-.49-.809-.49-1.455 0-1.875 1.403-3.554 3.653-3.554 1.993 0 3.087 1.218 3.087 2.843 0 2.14-.947 3.946-2.352 3.946-.776 0-1.357-.643-1.171-1.43.08-.34.189-.69.294-1.03.185-.6.36-1.17.36-1.603 0-.607-.325-1.114-1-1.114-.793 0-1.43.821-1.43 1.921 0 .7.236 1.174.236 1.174l-.954 4.043c-.13.547-.15 1.15-.132 1.66A7.301 7.301 0 0 1 7.995.7 7.3 7.3 0 0 1 15.295 8Z"/></svg>