<svg xmlns="http://www.w3.org/2000/svg" fill="none" viewBox="0 0 16 16"><path fill="#0E1011" d="m9.646 5.646-2 2a.5.5 0 0 0 0 .708l1.5 1.5.708-.708L8.707 8l1.647-1.646-.708-.708"/><path fill="#0E1011" fill-rule="evenodd" d="M5 4c0-.024.002-.047.005-.07l.377-2.642A1.5 1.5 0 0 1 6.867 0h2.266a1.5 1.5 0 0 1 1.485 1.288l.377 2.641A.51.51 0 0 1 11 4c1.214.913 2 2.365 2 4.001a4.992 4.992 0 0 1-2 4 .509.509 0 0 1-.005.07l-.377 2.642A1.5 1.5 0 0 1 9.133 16H6.867a1.5 1.5 0 0 1-1.485-1.288l-.377-2.641A.502.502 0 0 1 5 12 4.992 4.992 0 0 1 3 8c0-1.636.786-3.088 2-4Zm1.372-2.57A.5.5 0 0 1 6.867 1h2.266a.5.5 0 0 1 .495.43l.278 1.946A4.985 4.985 0 0 0 8 3c-.675 0-1.318.134-1.906.376l.278-1.947M8 13c.675 0 1.318-.134 1.906-.376l-.278 1.947a.5.5 0 0 1-.495.429H6.867a.5.5 0 0 1-.495-.43l-.278-1.946A4.986 4.986 0 0 0 8 13M4 8a4 4 0 1 1 8 0 4 4 0 0 1-8 0" clip-rule="evenodd"/></svg>