<svg xmlns="http://www.w3.org/2000/svg" fill="none" viewBox="0 0 16 16"><path fill="#0E1011" d="m14.87 3.986-.72.721a1 1 0 0 1-.707.293H12a1 1 0 0 1-1-1V2.557a1 1 0 0 1 .293-.707l.72-.72A4 4 0 0 0 7.002 4.88l2.22 2.22C9.47 7.035 9.732 7 10 7h.39a3 3 0 0 1 1.953.722l.78.669a3.997 3.997 0 0 0 1.748-4.405Z"/><path fill="#0E1011" fill-rule="evenodd" d="m1.518 11.982 4.171-4.171 1.412 1.411a3.004 3.004 0 0 0-.102.778v.39a3 3 0 0 0 .156.955l-3.137 3.137a1.767 1.767 0 1 1-2.5-2.5Zm1.628.164 1-1a.5.5 0 0 1 .708.708l-1 1a.5.5 0 0 1-.708-.708Z" clip-rule="evenodd"/><path fill="#0E1011" fill-rule="evenodd" d="M4.5 3.793V2.5L2 1 1 2l1.5 2.5h1.293l4.484 4.484A1.99 1.99 0 0 0 8 10v.248a2 2 0 0 0 .495 1.318l2.407 2.751a2 2 0 0 0 1.506.683H13a2 2 0 0 0 2-2v-.592a2 2 0 0 0-.683-1.506l-2.752-2.407A2 2 0 0 0 10.25 8H10c-.37 0-.718.101-1.016.277L4.5 3.793Zm6.288 6.42 1.707 1.706a.7.7 0 0 1 .205.495v.086a.3.3 0 1 0 .6 0v-.086a1.3 1.3 0 0 0-.38-.919l-1.708-1.707a.3.3 0 1 0-.424.424Z" clip-rule="evenodd"/></svg>