<svg xmlns="http://www.w3.org/2000/svg" fill="none" viewBox="0 0 12 12"><path fill="#0E1011" d="M6.281.563a.281.281 0 0 0-.562 0v2.062a.281.281 0 0 0 .562 0V.562ZM10.044 2.354a.281.281 0 0 0-.398-.398L8.188 3.415a.281.281 0 0 0 .397.397l1.459-1.458ZM2.354 1.956a.281.281 0 0 0-.398.398l1.459 1.458a.281.281 0 0 0 .397-.397L2.354 1.956ZM.563 5.719a.281.281 0 0 0 0 .562h2.062a.281.281 0 0 0 0-.562H.562ZM9.375 5.719a.281.281 0 0 0 0 .562h2.063a.281.281 0 0 0 0-.562H9.374ZM3.812 8.585a.281.281 0 0 0-.397-.397L1.956 9.646a.281.281 0 0 0 .398.398l1.458-1.459ZM8.585 8.188a.281.281 0 0 0-.397.397l1.458 1.459a.281.281 0 0 0 .398-.398L8.585 8.188ZM6.281 9.375a.281.281 0 0 0-.562 0v2.063a.281.281 0 0 0 .562 0V9.374Z"/><path fill="#0E1011" fill-rule="evenodd" d="M6 3.75a2.25 2.25 0 1 0 0 4.5 2.25 2.25 0 0 0 0-4.5ZM4.5 6a1.5 1.5 0 1 1 3 0 1.5 1.5 0 0 1-3 0Z" clip-rule="evenodd"/></svg>