<svg xmlns="http://www.w3.org/2000/svg" fill="none" viewBox="0 0 16 16"><path fill="#0E1011" fill-rule="evenodd" d="M8.575.197a1.5 1.5 0 0 0-1.15 0l-6.5 2.696A1.5 1.5 0 0 0 0 4.278v7.478a1.5 1.5 0 0 0 .925 1.386l6.5 2.696a1.5 1.5 0 0 0 1.15 0l6.5-2.696A1.5 1.5 0 0 0 16 11.756V4.278a1.5 1.5 0 0 0-.925-1.385L8.575.197Zm-.767.924a.5.5 0 0 1 .384 0l5.88 2.439-2.565 1.1-5.812-2.663 2.113-.876M4.435 2.52 1.928 3.56 8 6.162l2.266-.971L4.435 2.52M1 4.25 1 4.278v7.478a.5.5 0 0 0 .308.462L7.5 14.786v-7.75L1 4.25M8.5 14.786l6.192-2.568a.5.5 0 0 0 .308-.462V4.25L8.5 7.036v7.75" clip-rule="evenodd"/></svg>