<svg xmlns="http://www.w3.org/2000/svg" fill="none" viewBox="0 0 12 12"><path fill="#0E1011" fill-rule="evenodd" d="M.84.86a.375.375 0 0 1 .531 0l1.83 1.83 1.754 1.734L7.53 7c.031.017.06.039.086.064L9.33 8.778a.375.375 0 0 1 .065.087l1.744 1.745a.375.375 0 1 1-.53.53l-1.6-1.6c-.832.554-1.841.96-3.01.96-1.94 0-3.44-1.117-4.43-2.182A10.51 10.51 0 0 1 .068 6.22a3.676 3.676 0 0 1-.02-.039l-.006-.01-.001-.004L.374 6a68.412 68.412 0 0 1-.336-.167l.001-.002.003-.005.01-.018a7.566 7.566 0 0 1 .166-.3c.114-.199.285-.475.51-.79a9.566 9.566 0 0 1 1.643-1.797L.84 1.391a.375.375 0 0 1 0-.531Zm2.066 2.593a8.76 8.76 0 0 0-1.566 1.7A9.637 9.637 0 0 0 .8 6a9.761 9.761 0 0 0 1.32 1.807C3.048 8.805 4.36 9.75 6 9.75c.937 0 1.767-.308 2.481-.76L7.334 7.841A2.25 2.25 0 0 1 4.178 4.71L2.906 3.453ZM4.72 5.249A1.5 1.5 0 0 0 6.781 7.31L4.72 5.249ZM.375 6l-.336-.167a.377.377 0 0 0 0 .334L.375 6ZM6 2.25c-.491 0-.951.084-1.38.23a.375.375 0 0 1-.24-.712A5.046 5.046 0 0 1 6 1.5c1.94 0 3.44 1.117 4.43 2.182a10.511 10.511 0 0 1 1.503 2.097l.02.039.006.01.001.004v.001L11.626 6l.336.167v.001l-.002.003-.005.01a4.236 4.236 0 0 1-.087.162 10.6 10.6 0 0 1-1.297 1.82.375.375 0 1 1-.56-.498A9.857 9.857 0 0 0 11.2 6a9.756 9.756 0 0 0-1.32-1.807C8.953 3.195 7.64 2.25 6 2.25ZM11.625 6l.336.167a.376.376 0 0 0 0-.334L11.625 6Z" clip-rule="evenodd"/></svg>