<svg xmlns="http://www.w3.org/2000/svg" fill="none" viewBox="0 0 16 16"><path fill="#0E1011" fill-rule="evenodd" d="M15.294 8A7.3 7.3 0 1 1 .695 8a7.3 7.3 0 0 1 14.6 0m-1 0a6.3 6.3 0 1 1-9.679-5.317l.037.061v.303l-.116.358c-.067.11-.202.336-.202.358 0 .022-.038.358-.058.523v.386l.058.247.03.248.086.248.086.275.03.138h.317l.231.083.087.192.26.468.087.166.376.055.289.055.23.11.29.193.26.275a.74.74 0 0 0 .144.11c.046.022.193.01.26 0 .068.037.203.116.203.138 0 .013.028.062.057.11a.502.502 0 0 1 .058.11c0 .007.002.018.005.032.006.037.016.093-.005.133a.553.553 0 0 1-.136.114c-.05.035-.095.066-.095.079v.193l.116.413.115.22v.275c0 .018-.006.035-.012.053-.013.04-.027.084.012.14.03.044.053.096.072.138.017.038.03.07.044.082a.397.397 0 0 0 .181.106.491.491 0 0 1 .137.06c.16.09.24.123.29.143.04.016.06.024.085.05.039.036.039.036.052.056l.035.053c.023.034.042.04.056.045.02.007.03.01.03.093v1.046l.26.606.203.66.058.634.26.275.289.165.144.056.145-.056v-.165l-.087-.193-.058-.165-.057-.137v-.193l.057-.11.145-.165.202-.33v-.524l.058-.303.982-.716.318-.33-.029-.798.145-.193.173-.11.116-.11v-.276l-.116-.082-.491-.138-.289-.138-.347-.22-.26-.303-.144-.22-.203-.165-.52-.165-.404-.22-.26-.083-.376-.055-.636.027-.202-.027-.116-.11-.115-.248-.26-.055-.145-.028-.144-.083.058-.357.028-.083-.028-.083h-.145l-.144.028h-.116l-.26.055h-.173l-.058-.165.029-.22.144-.303.26-.22.29-.028h.317l.289.11.289.193h.058l.115-.055.03-.083.028-.523.607-.44.376-.359.318-.247.202-.11.462-.056.202-.055.03-.055v-.11l-.03-.082-.057-.083v-.083l.057-.055h.203l.173.028.173-.055.116-.193.058-.138-.231-.11v-.248l-.058-.11h-.174l-.115-.055-.202-.082-.145-.138-.144.028-.26.165-.318.192-.376.138-.347.055-.202-.055-.116-.248.058-.247.116-.11.347-.138.168-.072a6.26 6.26 0 0 1 2.425.885l-.108.205-.058.22.173.056.174.027.347-.082.063-.01A6.288 6.288 0 0 1 14.294 8" clip-rule="evenodd"/></svg>