<svg xmlns="http://www.w3.org/2000/svg" fill="none" viewBox="0 0 12 12"><path fill="#0E1011" d="M6.356 2.846c.14.059.302.026.41-.08l1-1a.375.375 0 0 0 0-.531l-1-1A.375.375 0 0 0 6.124.5v.625H6a4.875 4.875 0 0 0-3.756 7.982.375.375 0 1 0 .578-.478A4.125 4.125 0 0 1 6 1.875h.125V2.5c0 .152.091.288.231.346ZM6 10.125h-.125V9.5a.375.375 0 0 0-.64-.265l-1 1a.375.375 0 0 0 0 .53l1 1a.375.375 0 0 0 .64-.265v-.625H6a4.875 4.875 0 0 0 3.756-7.982.375.375 0 0 0-.578.478A4.125 4.125 0 0 1 6 10.125Z"/></svg>