<svg xmlns="http://www.w3.org/2000/svg" fill="none" viewBox="0 0 16 16"><path fill="#0E1011" fill-rule="evenodd" d="M15.294 8A7.3 7.3 0 1 1 .695 8a7.3 7.3 0 0 1 14.6 0m-3.62-1.585 2.034-2.112a6.837 6.837 0 0 0-2.011-2.011L9.585 4.326a4.015 4.015 0 0 1 2.089 2.09m-7.348 0L2.292 4.303a6.836 6.836 0 0 1 2.011-2.011l2.112 2.034a4.014 4.014 0 0 0-2.089 2.09m2.09 5.259-2.113 2.034a6.837 6.837 0 0 1-2.011-2.011l2.034-2.112a4.014 4.014 0 0 0 2.09 2.089m7.292.023a6.836 6.836 0 0 1-2.011 2.011l-2.112-2.034a4.014 4.014 0 0 0 2.089-2.089l2.034 2.112M11 8a3 3 0 1 1-6 0 3 3 0 0 1 6 0" clip-rule="evenodd"/></svg>