<svg xmlns="http://www.w3.org/2000/svg" fill="none" viewBox="0 0 16 16"><path fill="#0E1011" fill-rule="evenodd" d="M7.776.886a.5.5 0 0 1 .447 0l6.667 3.333a.5.5 0 0 1 0 .895L8.223 8.447a.5.5 0 0 1-.447 0L1.11 5.114a.5.5 0 0 1 0-.895L7.776.886Zm-5.325 3.78L8 7.442l5.548-2.774L8 1.892 2.45 4.667Z" clip-rule="evenodd"/><path fill="#0E1011" d="M.886 11.11a.5.5 0 0 1 .67-.224L8 14.108l6.443-3.222a.5.5 0 0 1 .447.895l-6.667 3.333a.5.5 0 0 1-.447 0L1.11 11.78a.5.5 0 0 1-.224-.67Z"/><path fill="#0E1011" d="M1.557 7.553a.5.5 0 1 0-.447.894l6.666 3.334a.5.5 0 0 0 .447 0l6.667-3.334a.5.5 0 0 0-.447-.894L8 10.774 1.557 7.553Z"/></svg>