<svg xmlns="http://www.w3.org/2000/svg" fill="none" viewBox="0 0 16 16"><path fill="#0E1011" d="M.494 12A.497.497 0 0 1 0 11.5c0-.276.221-.5.494-.5h1.939c.524 0 1.026-.21 1.396-.586l1.252-1.268a.49.49 0 0 1 .698 0 .505.505 0 0 1 0 .708L4.527 11.12A2.943 2.943 0 0 1 2.433 12H.493M8.74 6.854a.49.49 0 0 1-.698 0 .505.505 0 0 1 0-.708L9.294 4.88A2.943 2.943 0 0 1 11.388 4h2.722L12.98 2.854a.505.505 0 0 1 0-.708.49.49 0 0 1 .698 0L16 4.5l-2.323 2.354a.49.49 0 0 1-.698 0 .505.505 0 0 1 0-.708L14.11 5h-2.722c-.524 0-1.026.21-1.396.586L8.74 6.854"/><path fill="#0E1011" d="M.494 4A.497.497 0 0 0 0 4.5c0 .276.221.5.494.5h1.939c.524 0 1.026.21 1.396.586l5.465 5.535a2.943 2.943 0 0 0 2.094.879h2.722l-1.131 1.146a.505.505 0 0 0 0 .708.49.49 0 0 0 .698 0L16 11.5l-2.323-2.354a.49.49 0 0 0-.698 0 .505.505 0 0 0 0 .708L14.11 11h-2.722c-.524 0-1.026-.21-1.396-.586L4.527 4.88A2.943 2.943 0 0 0 2.433 4H.493"/></svg>