<svg xmlns="http://www.w3.org/2000/svg" fill="none" viewBox="0 0 12 12"><path fill="#0E1011" d="M7.5.625a.375.375 0 1 1 .75 0v1.5a.375.375 0 1 1-.75 0v-1.5ZM3.75.625a.375.375 0 1 1 .75 0v1.5a.375.375 0 1 1-.75 0v-1.5Z"/><path fill="#0E1011" d="M11.25 2.688a.937.937 0 0 0-.938-.938h-.937a.375.375 0 1 1 0-.75h.938C11.244 1 12 1.756 12 2.688v7.624c0 .933-.755 1.688-1.688 1.688H1.688A1.687 1.687 0 0 1 0 10.312V2.689C0 1.756.756 1 1.688 1h.937a.375.375 0 1 1 0 .75h-.938a.937.937 0 0 0-.937.938v7.624c0 .518.42.938.938.938h8.624c.518 0 .938-.42.938-.938V2.689Z"/><path fill="#0E1011" d="M6.75 1.75h-1.5V1h1.5v.75ZM10.125 4a.281.281 0 0 1 0 .563h-8.25a.281.281 0 0 1 0-.563h8.25Z"/></svg>