<svg xmlns="http://www.w3.org/2000/svg" fill="none" viewBox="0 0 12 12"><path fill="#0E1011" fill-rule="evenodd" d="M4.845 3a1.5 1.5 0 0 0-1.004.385L.936 6 3.84 8.615A1.5 1.5 0 0 0 4.845 9h5.468c.517 0 .937-.42.937-.938V3.939A.937.937 0 0 0 10.312 3H4.846Zm-1.506-.172a2.25 2.25 0 0 1 1.506-.578h5.468c.931 0 1.687.756 1.687 1.688v4.124c0 .932-.755 1.688-1.688 1.688H4.846a2.25 2.25 0 0 1-1.506-.578L.124 6.28a.375.375 0 0 1 0-.558L3.34 2.828Zm2.396 1.407a.375.375 0 0 1 .53 0L7.5 5.47l1.235-1.235a.375.375 0 0 1 .53.53L8.03 6l1.235 1.235a.375.375 0 1 1-.53.53L7.5 6.53 6.265 7.765a.375.375 0 1 1-.53-.53L6.97 6 5.735 4.765a.375.375 0 0 1 0-.53Z" clip-rule="evenodd"/></svg>