<svg xmlns="http://www.w3.org/2000/svg" fill="none" viewBox="0 0 12 12"><path fill="#0E1011" fill-rule="evenodd" d="M.765.235a.375.375 0 1 0-.53.53l1.637 1.637A4.368 4.368 0 0 0 .125 5.9v.3A4.675 4.675 0 0 0 4.8 10.875h3.7a3.36 3.36 0 0 0 1.496-.349l1.239 1.24a.375.375 0 0 0 .53-.531l-11-11Zm8.661 9.722L2.41 2.939A3.62 3.62 0 0 0 .875 5.9v.3A3.925 3.925 0 0 0 4.8 10.125h3.7c.326 0 .638-.06.926-.168Z" clip-rule="evenodd"/><path fill="#0E1011" d="M4.5 1.525c-.153 0-.303.008-.452.023l.738.738A3.628 3.628 0 0 1 7.9 4.64l.1.267.283-.023a2.625 2.625 0 0 1 2.666 3.565l.567.567A3.375 3.375 0 0 0 8.5 4.125a4.376 4.376 0 0 0-4-2.6Z"/></svg>