<svg xmlns="http://www.w3.org/2000/svg" fill="none" viewBox="0 0 16 16"><path fill="#0E1011" fill-rule="evenodd" d="M2.25 4C1.56 4 1 4.56 1 5.25v5.5c0 .69.56 1.25 1.25 1.25h10.5c.69 0 1.25-.56 1.25-1.25v-5.5C14 4.56 13.44 4 12.75 4H2.25ZM0 5.25A2.25 2.25 0 0 1 2.25 3h10.5A2.25 2.25 0 0 1 15 5.25V6.5h.25a.75.75 0 0 1 .75.75v2a.75.75 0 0 1-.75.75H15v.75A2.25 2.25 0 0 1 12.75 13H2.25A2.25 2.25 0 0 1 0 10.75v-5.5Z" clip-rule="evenodd"/><path fill="#0E1011" d="M2 5.5a.5.5 0 0 1 .5-.5h2a.5.5 0 0 1 .5.5v5a.5.5 0 0 1-.5.5h-2a.5.5 0 0 1-.5-.5v-5Z"/></svg>