<svg xmlns="http://www.w3.org/2000/svg" fill="none" viewBox="0 0 16 16"><path fill="#0E1011" d="M3.427 3a2 2 0 0 0-1.789 1.106L.37 6.643a3.5 3.5 0 0 0-.139.314A2.737 2.737 0 0 1 1.75 6.5h12.5c.561 0 1.084.168 1.519.457a3.494 3.494 0 0 0-.139-.314l-1.268-2.537A2 2 0 0 0 12.572 3H3.428Z"/><path fill="#0E1011" fill-rule="evenodd" d="M16 9.25a1.75 1.75 0 0 0-1.75-1.75H1.75A1.75 1.75 0 0 0 0 9.25V11a2 2 0 0 0 2 2h12a2 2 0 0 0 2-2V9.25Zm-5 .25a.5.5 0 0 1 .5-.5h2a.5.5 0 0 1 0 1h-2a.5.5 0 0 1-.5-.5Z" clip-rule="evenodd"/></svg>