<svg xmlns="http://www.w3.org/2000/svg" width="16" height="16" fill="none"><path fill="#0E1011" fill-rule="evenodd" d="M3 2a1 1 0 0 0-1 1v2a.5.5 0 0 1-1 0V3a2 2 0 0 1 2-2h2a.5.5 0 0 1 0 1H3Zm7.5-.5A.5.5 0 0 1 11 1h2a2 2 0 0 1 2 2v2a.5.5 0 0 1-1 0V3a1 1 0 0 0-1-1h-2a.5.5 0 0 1-.5-.5Zm-9 9a.5.5 0 0 1 .5.5v2a1 1 0 0 0 1 1h2a.5.5 0 0 1 0 1H3a2 2 0 0 1-2-2v-2a.5.5 0 0 1 .5-.5Zm13 0a.5.5 0 0 1 .5.5v2a2 2 0 0 1-2 2h-2a.5.5 0 0 1 0-1h2a1 1 0 0 0 1-1v-2a.5.5 0 0 1 .5-.5ZM3 8a.5.5 0 0 1 .5-.5h9a.5.5 0 0 1 0 1h-9A.5.5 0 0 1 3 8Zm2-2.75A.25.25 0 0 1 5.25 5h5.5a.25.25 0 0 1 .25.25V6a.5.5 0 0 0 1 0v-.75C12 4.56 11.44 4 10.75 4h-5.5C4.56 4 4 4.56 4 5.25V6a.5.5 0 0 0 1 0v-.75ZM5 10a.5.5 0 0 0-1 0v.75c0 .69.56 1.25 1.25 1.25h5.5c.69 0 1.25-.56 1.25-1.25V10a.5.5 0 0 0-1 0v.75a.25.25 0 0 1-.25.25h-5.5a.25.25 0 0 1-.25-.25V10Z" clip-rule="evenodd"/></svg>