<svg xmlns="http://www.w3.org/2000/svg" fill="none" viewBox="0 0 16 16"><path fill="#0E1011" d="m8 .793 2.354 2.353a.5.5 0 0 1-.708.708L8.5 2.707V5.5a.5.5 0 1 1-1 0V2.707L6.354 3.854a.5.5 0 1 1-.708-.708L8 .793ZM2.697 5.197a.5.5 0 0 1 .707 0L4.818 6.61a.5.5 0 1 1-.707.707L2.697 5.904a.5.5 0 0 1 0-.707M13.303 5.197a.5.5 0 0 1 0 .707L11.89 7.318a.5.5 0 1 1-.707-.707l1.414-1.414a.5.5 0 0 1 .707 0M.5 10.5A.5.5 0 0 1 1 10h2a.5.5 0 0 1 0 1H1a.5.5 0 0 1-.5-.5M12.5 10.5a.5.5 0 0 1 .5-.5h2a.5.5 0 0 1 0 1h-2a.5.5 0 0 1-.5-.5M4.5 11v-.25A3.25 3.25 0 0 1 7.75 7.5h.5a3.25 3.25 0 0 1 3.25 3.25V11h-7M1 13a.5.5 0 1 0 0 1h14a.5.5 0 0 0 0-1z"/></svg>