<svg xmlns="http://www.w3.org/2000/svg" fill="none" viewBox="0 0 16 16"><path fill="#0E1011" d="M9.125 3v2h.75V3h-.75Z"/><path fill="#0E1011" fill-rule="evenodd" d="M3 1a2 2 0 0 0-2 2v10.5A1.5 1.5 0 0 0 2.5 15h11a1.5 1.5 0 0 0 1.5-1.5V3.293L12.707 1H3ZM2 3a1 1 0 0 1 1-1h1.125v3.5c0 .76.616 1.375 1.375 1.375h5c.76 0 1.375-.616 1.375-1.375V2h.418L14 3.707V13.5a.5.5 0 0 1-.5.5h-.625V9.5c0-.76-.616-1.375-1.375-1.375h-7c-.76 0-1.375.616-1.375 1.375V14H2.5a.5.5 0 0 1-.5-.5V3Zm9.125-1h-6.25v3.5c0 .345.28.625.625.625h5c.345 0 .625-.28.625-.625V2Zm1 7.5V14h-8.25V9.5c0-.345.28-.625.625-.625h7c.345 0 .625.28.625.625Z" clip-rule="evenodd"/></svg>