<svg xmlns="http://www.w3.org/2000/svg" fill="none" viewBox="0 0 12 12"><path fill="#0E1011" fill-rule="evenodd" d="M4.5.5a.75.75 0 0 0-.75.75V2H1.5A1.5 1.5 0 0 0 0 3.5v5.75a1.5 1.5 0 0 0 1.5 1.5h9a1.5 1.5 0 0 0 1.5-1.5V3.5A1.5 1.5 0 0 0 10.5 2H8.25v-.75A.75.75 0 0 0 7.5.5h-3Zm3 1.5h-3v-.75h3V2ZM.75 3.5a.75.75 0 0 1 .75-.75h9a.75.75 0 0 1 .75.75v1.938H.75V3.5Zm0 2.5v3.25c0 .414.336.75.75.75h9a.75.75 0 0 0 .75-.75V6H7.594v.469c0 .57-.462 1.031-1.032 1.031H5.438c-.569 0-1.03-.462-1.03-1.031V6H.75Zm4.219.469V6H7.03v.469c0 .259-.21.468-.468.468H5.438a.469.469 0 0 1-.47-.468Z" clip-rule="evenodd"/></svg>