<svg xmlns="http://www.w3.org/2000/svg" fill="none" viewBox="0 0 16 16"><path fill="#0E1011" d="M2.768 6.578a.5.5 0 1 0-.536.844l5.772 3.673 5.616-3.677a.5.5 0 1 0-.548-.836L7.996 9.905 2.768 6.578"/><path fill="#0E1011" fill-rule="evenodd" d="M8.588.747a1.25 1.25 0 0 0-1.176 0L1.324 3.994A2.5 2.5 0 0 0 0 6.2v6.3A2.5 2.5 0 0 0 2.5 15h11a2.5 2.5 0 0 0 2.5-2.5V6.2a2.5 2.5 0 0 0-1.323-2.206L8.588.747Zm-.706.882a.25.25 0 0 1 .236 0l6.088 3.247c.489.261.794.77.794 1.324v6.3a1.5 1.5 0 0 1-1.5 1.5h-11A1.5 1.5 0 0 1 1 12.5V6.2a1.5 1.5 0 0 1 .794-1.324L7.882 1.63Z" clip-rule="evenodd"/></svg>