<svg xmlns="http://www.w3.org/2000/svg" fill="none" viewBox="0 0 16 16"><path fill="#0E1011" fill-rule="evenodd" d="M3.5 2h9A1.5 1.5 0 0 1 14 3.5v9a1.5 1.5 0 0 1-1.5 1.5h-9A1.5 1.5 0 0 1 2 12.5v-9A1.5 1.5 0 0 1 3.5 2ZM1 3.5A2.5 2.5 0 0 1 3.5 1h9A2.5 2.5 0 0 1 15 3.5v9a2.5 2.5 0 0 1-2.5 2.5h-9A2.5 2.5 0 0 1 1 12.5v-9Zm5.5 4.707-2.646 2.647a.5.5 0 0 1-.708-.708L5.97 7.323a.75.75 0 0 1 1.06 0l1.47 1.47L11.293 6H9.5a.5.5 0 0 1 0-1H13v3.5a.5.5 0 0 1-1 0V6.707l-2.97 2.97a.75.75 0 0 1-1.06 0L6.5 8.207Z" clip-rule="evenodd"/></svg>