<svg xmlns="http://www.w3.org/2000/svg" fill="none" viewBox="0 0 16 16"><path fill="#0E1011" d="M5.854 5.146a.5.5 0 1 0-.708.708L7.293 8l-2.147 2.146a.5.5 0 0 0 .708.708L8 8.707l2.146 2.147a.5.5 0 0 0 .708-.708L8.707 8l2.147-2.146a.5.5 0 0 0-.708-.708L8 7.293 5.854 5.146Z"/><path fill="#0E1011" fill-rule="evenodd" d="M3.25 1A2.25 2.25 0 0 0 1 3.25v9.5A2.25 2.25 0 0 0 3.25 15h9.5A2.25 2.25 0 0 0 15 12.75v-9.5A2.25 2.25 0 0 0 12.75 1h-9.5ZM2 3.25C2 2.56 2.56 2 3.25 2h9.5c.69 0 1.25.56 1.25 1.25v9.5c0 .69-.56 1.25-1.25 1.25h-9.5C2.56 14 2 13.44 2 12.75v-9.5Z" clip-rule="evenodd"/></svg>