<svg xmlns="http://www.w3.org/2000/svg" fill="none" viewBox="0 0 16 16"><path fill="#0E1011" fill-rule="evenodd" d="M1.5 1A1.5 1.5 0 0 0 0 2.5V12a2 2 0 0 0 2 2h6.256A4.5 4.5 0 0 1 16 9.671V4a2 2 0 0 0-2-2H8.121a1 1 0 0 1-.707-.293l-.121-.121A2 2 0 0 0 5.879 1H1.5Zm5.854 2.354a.5.5 0 0 0-.708-.708l-.06.061A1 1 0 0 1 5.879 3H1.5a.5.5 0 1 0 0 1h4.379a2 2 0 0 0 1.414-.586l.06-.06Z" clip-rule="evenodd"/><path fill="#0E1011" fill-rule="evenodd" d="M16 12.5a3.5 3.5 0 1 1-7 0 3.5 3.5 0 0 1 7 0ZM12.5 10a.5.5 0 0 1 .5.5V12h1.5a.5.5 0 0 1 0 1H13v1.75a.5.5 0 0 1-1 0V13h-1.5a.5.5 0 0 1 0-1H12v-1.5a.5.5 0 0 1 .5-.5Z" clip-rule="evenodd"/></svg>