<svg xmlns="http://www.w3.org/2000/svg" fill="none" viewBox="0 0 12 12"><path fill="#0E1011" d="M1.875 2.75c0-.483.392-.875.875-.875H4a.375.375 0 1 0 0-.75H2.75c-.897 0-1.625.728-1.625 1.625V4a.375.375 0 1 0 .75 0V2.75ZM1.875 9.25c0 .483.392.875.875.875H4a.375.375 0 0 1 0 .75H2.75A1.625 1.625 0 0 1 1.125 9.25V8a.375.375 0 1 1 .75 0v1.25ZM10.125 2.75a.875.875 0 0 0-.875-.875H8a.375.375 0 1 1 0-.75h1.25c.898 0 1.625.728 1.625 1.625V4a.375.375 0 0 1-.75 0V2.75ZM9.25 10.125a.875.875 0 0 0 .875-.875V8a.375.375 0 0 1 .75 0v1.25c0 .898-.727 1.625-1.625 1.625H8a.375.375 0 0 1 0-.75h1.25Z"/></svg>