<svg xmlns="http://www.w3.org/2000/svg" fill="none" viewBox="0 0 12 12"><path fill="#0E1011" d="M7.5 8.5a1 1 0 1 1-2 0 1 1 0 0 1 2 0Z"/><path fill="#0E1011" fill-rule="evenodd" d="M3.875 3C3.875 1.826 4.826.875 6 .875h1c1.174 0 2.125.951 2.125 2.125v.5a.375.375 0 1 0 .75 0V3A2.875 2.875 0 0 0 7 .125H6A2.875 2.875 0 0 0 3.125 3v2.047A1.5 1.5 0 0 0 2 6.5v4A1.5 1.5 0 0 0 3.5 12h6a1.5 1.5 0 0 0 1.5-1.5v-4A1.5 1.5 0 0 0 9.5 5H3.875V3ZM2.75 6.5v4c0 .414.336.75.75.75h6a.75.75 0 0 0 .75-.75v-4a.75.75 0 0 0-.75-.75h-6a.75.75 0 0 0-.75.75Z" clip-rule="evenodd"/></svg>