<svg xmlns="http://www.w3.org/2000/svg" fill="none" viewBox="0 0 12 12"><path fill="#0E1011" d="M2.076 4.109a.375.375 0 0 0-.402.632l4.329 2.755 4.212-2.757a.375.375 0 1 0-.41-.628L5.996 6.604l-3.92-2.495Z"/><path fill="#0E1011" fill-rule="evenodd" d="M6.441.11a.938.938 0 0 0-.882 0L.993 2.546A1.875 1.875 0 0 0 0 4.2v4.925C0 10.161.84 11 1.875 11h8.25C11.161 11 12 10.16 12 9.125V4.2c0-.692-.382-1.329-.993-1.654L6.441.11Zm-.53.662a.187.187 0 0 1 .177 0l4.566 2.435c.367.196.596.578.596.993v4.925c0 .621-.504 1.125-1.125 1.125h-8.25A1.125 1.125 0 0 1 .75 9.125V4.2c0-.415.229-.797.596-.993L5.912.772Z" clip-rule="evenodd"/></svg>