<svg xmlns="http://www.w3.org/2000/svg" fill="none" viewBox="0 0 12 12"><path fill="#0E1011" fill-rule="evenodd" d="M4 4.75A.75.75 0 0 1 4.75 4h2.5a.75.75 0 0 1 .75.75v2.5a.75.75 0 0 1-.75.75h-2.5A.75.75 0 0 1 4 7.25v-2.5Zm3.25 0h-2.5v2.5h2.5v-2.5Z" clip-rule="evenodd"/><path fill="#0E1011" fill-rule="evenodd" d="M4.75.266v1h2.5v-1H8v1h1.063c.931 0 1.687.755 1.687 1.687v1.063h1v.75h-1V7.25h1V8h-1v1.063c0 .931-.756 1.687-1.688 1.687H8v1h-.75v-1h-2.5v1H4v-1H2.937A1.688 1.688 0 0 1 1.25 9.062V8h-1v-.75h1V4.766h-1v-.75h1V2.953c0-.932.756-1.687 1.688-1.687H4v-1h.75ZM2 9.062c0 .518.42.938.938.938h6.124c.518 0 .938-.42.938-.938V2.954a.938.938 0 0 0-.938-.937H2.939A.938.938 0 0 0 2 2.953v6.11Z" clip-rule="evenodd"/></svg>