<svg xmlns="http://www.w3.org/2000/svg" fill="none" viewBox="0 0 12 12"><path fill="#0E1011" fill-rule="evenodd" d="M1.286.857a.429.429 0 0 0-.429.429v2.428c0 .237.192.429.429.429h2.428a.429.429 0 0 0 .429-.429V1.286a.429.429 0 0 0-.429-.429H1.286ZM0 1.286C0 .576.576 0 1.286 0h2.428C4.424 0 5 .576 5 1.286v2.428C5 4.424 4.424 5 3.714 5H1.286C.576 5 0 4.424 0 3.714V1.286Zm7 0C7 .576 7.576 0 8.286 0h2.428C11.424 0 12 .576 12 1.286v2.428C12 4.424 11.424 5 10.714 5H8.286C7.576 5 7 4.424 7 3.714V1.286ZM8.286.857a.429.429 0 0 0-.429.429v2.428c0 .237.192.429.429.429h2.428a.429.429 0 0 0 .429-.429V1.286a.429.429 0 0 0-.429-.429H8.286Zm-7 7a.429.429 0 0 0-.429.429v2.428c0 .237.192.429.429.429h2.428a.429.429 0 0 0 .429-.429V8.286a.429.429 0 0 0-.429-.429H1.286ZM0 8.286C0 7.576.576 7 1.286 7h2.428C4.424 7 5 7.576 5 8.286v2.428C5 11.424 4.424 12 3.714 12H1.286C.576 12 0 11.424 0 10.714V8.286Zm8.286-.429a.429.429 0 0 0-.429.429v2.428c0 .237.192.429.429.429h2.428a.429.429 0 0 0 .429-.429V8.286a.429.429 0 0 0-.429-.429H8.286ZM7 8.286C7 7.576 7.576 7 8.286 7h2.428C11.424 7 12 7.576 12 8.286v2.428c0 .71-.576 1.286-1.286 1.286H8.286C7.576 12 7 11.424 7 10.714V8.286Z" clip-rule="evenodd"/></svg>