<svg xmlns="http://www.w3.org/2000/svg" fill="none" viewBox="0 0 16 16"><path fill="#0E1011" d="M6 9.5a3.5 3.5 0 1 0 0-7 3.5 3.5 0 0 0 0 7ZM.226 12.19.07 13.436A7.979 7.979 0 0 0 5.94 16a7.98 7.98 0 0 0 5.975-2.68l-.141-1.13A2.5 2.5 0 0 0 9.293 10H8.5l-1.572.629a2.5 2.5 0 0 1-1.857 0L3.5 10h-.793a2.5 2.5 0 0 0-2.48 2.19ZM7.314 1.173a5.002 5.002 0 0 1 3.618 5.681A3.502 3.502 0 0 0 9.929 0C8.89 0 7.956.453 7.314 1.173ZM13.354 12.703a8.027 8.027 0 0 0 2.49-1.884l-.141-1.13a2.5 2.5 0 0 0-2.48-2.189h-.794l-1.571.629c-.126.05-.256.09-.386.119-.064.126-.133.25-.207.37a4.001 4.001 0 0 1 3.002 3.386l.087.699Z"/></svg>