<svg xmlns="http://www.w3.org/2000/svg" fill="none" viewBox="0 0 12 12"><path fill="#0E1011" fill-rule="evenodd" d="M1.125 1.25C.504 1.25 0 1.754 0 2.375V9a1.5 1.5 0 0 0 1.5 1.5h4.7c.065-.111.144-.216.24-.31l.814-.815-.815-.814a1.5 1.5 0 1 1 2.122-2.122l.814.815.814-.815A1.5 1.5 0 0 1 12 6.201V3.5A1.5 1.5 0 0 0 10.5 2H6.091a.75.75 0 0 1-.53-.22l-.091-.09a1.5 1.5 0 0 0-1.061-.44H1.125Zm4.39 2.015a.375.375 0 0 0-.53-.53l-.046.045a.75.75 0 0 1-.53.22H1.125a.375.375 0 1 0 0 .75h3.284a1.5 1.5 0 0 0 1.06-.44l.046-.045Z" clip-rule="evenodd"/><path fill="#0E1011" d="M12 9c0 .254-.063.494-.175.704l-.329-.329.504-.504V9Z"/><path fill="#0E1011" d="M7.765 7.235a.375.375 0 0 0-.53.53l1.61 1.61-1.61 1.61a.375.375 0 0 0 .53.53l1.61-1.61 1.61 1.61a.375.375 0 0 0 .53-.53l-1.61-1.61 1.61-1.61a.375.375 0 0 0-.53-.53l-1.61 1.61-1.61-1.61Z"/></svg>