<svg xmlns="http://www.w3.org/2000/svg" fill="none" viewBox="0 0 12 12"><path fill="#0E1011" fill-rule="evenodd" d="M3.406.11c.07-.07.166-.11.265-.11H8.33c.1 0 .195.04.265.11l3.296 3.296c.07.07.11.166.11.265V8.33c0 .1-.04.195-.11.265L8.594 11.89a.375.375 0 0 1-.265.11H3.67c-.1 0-.195-.04-.265-.11L.11 8.594A.375.375 0 0 1 0 8.329V3.67c0-.1.04-.195.11-.265L3.406.11Zm.42.64L.75 3.827v4.346l3.077 3.077h4.346l3.077-3.077V3.827L8.173.75H3.827Z" clip-rule="evenodd"/><path fill="#0E1011" d="M.75 3.827 3.827.75h4.346l3.077 3.077v4.346L8.173 11.25H3.827L.75 8.173V3.827Z"/></svg>