<svg xmlns="http://www.w3.org/2000/svg" fill="none" viewBox="0 0 12 12"><path fill="#0E1011" d="M1.5 2.75a.25.25 0 0 0 0 .5h2a.25.25 0 0 0 0-.5h-2ZM4.5 2.75a.25.25 0 0 0 0 .5h2a.25.25 0 0 0 0-.5h-2ZM7.5 2.75a.25.25 0 0 0 0 .5h2a.25.25 0 0 0 0-.5h-2Z"/><path fill="#0E1011" fill-rule="evenodd" d="M0 2.5A1.5 1.5 0 0 1 1.5 1h9A1.5 1.5 0 0 1 12 2.5v7a1.5 1.5 0 0 1-1.5 1.5h-9A1.5 1.5 0 0 1 0 9.5v-7Zm1.5-.75h9a.75.75 0 0 1 .75.75v1.7H.75V2.5a.75.75 0 0 1 .75-.75ZM.75 4.8v1.4H3.2V4.8H.75Zm0 2H3.2v1.4H.75V6.8Zm3.05 0v1.4h2.4V6.8H3.8Zm-3.05 2H3.2v1.45H1.5a.75.75 0 0 1-.75-.75v-.7Zm3.05 0v1.45h2.4V8.8H3.8Zm5.4 1.45H6.8V8.8h2.4v1.45Zm0-2.05H6.8V6.8h2.4v1.4Zm0-2H6.8V4.8h2.4v1.4ZM3.8 4.8h2.4v1.4H3.8V4.8Zm6 1.4V4.8h1.45v1.4H9.8Zm0 2V6.8h1.45v1.4H9.8Zm0 2.05V8.8h1.45v.7a.75.75 0 0 1-.75.75h-.7Z" clip-rule="evenodd"/></svg>