<svg xmlns="http://www.w3.org/2000/svg" fill="none" viewBox="0 0 12 12"><path fill="#0E1011" d="M3.75 4.688a.75.75 0 1 1 1.5 0 .75.75 0 0 1-1.5 0ZM6.75 4.688a.75.75 0 1 1 1.5 0 .75.75 0 0 1-1.5 0ZM6 8.156c-.77 0-1.509-.257-1.985-.734a.375.375 0 1 0-.53.53c.649.65 1.597.954 2.515.954.918 0 1.866-.305 2.515-.953a.375.375 0 0 0-.53-.53c-.476.476-1.216.733-1.985.733Z"/><path fill="#0E1011" fill-rule="evenodd" d="M12 6A6 6 0 1 1 0 6a6 6 0 0 1 12 0Zm-6 5.25A5.25 5.25 0 1 0 6 .75a5.25 5.25 0 0 0 0 10.5Z" clip-rule="evenodd"/></svg>