<svg xmlns="http://www.w3.org/2000/svg" fill="none" viewBox="0 0 12 12"><path fill="#0E1011" fill-rule="evenodd" d="M0 5.5C0 4.12 1.175 3 2.625 3S5.25 4.12 5.25 5.5c0 .7-.302 1.332-.788 1.786h3.076A2.436 2.436 0 0 1 6.75 5.5C6.75 4.12 7.925 3 9.375 3S12 4.12 12 5.5 10.825 8 9.375 8c-.046 0-.091-.001-.136-.003A.397.397 0 0 1 9.187 8H2.814a.397.397 0 0 1-.052-.003c-.045.002-.09.003-.136.003C1.175 8 0 6.88 0 5.5Zm2.625-1.786C1.589 3.714.75 4.514.75 5.5s.84 1.786 1.875 1.786c1.036 0 1.875-.8 1.875-1.786s-.84-1.786-1.875-1.786ZM7.5 5.5c0-.986.84-1.786 1.875-1.786 1.036 0 1.875.8 1.875 1.786s-.84 1.786-1.875 1.786c-1.036 0-1.875-.8-1.875-1.786Z" clip-rule="evenodd"/></svg>