<svg xmlns="http://www.w3.org/2000/svg" fill="none" viewBox="0 0 12 12"><path fill="#0E1011" fill-rule="evenodd" d="M11.835.814c.103.07.165.187.165.311v8.25c0 .15-.089.285-.226.344l-3.75 1.625a.375.375 0 0 1-.298 0l-3.601-1.56-3.6 1.56A.375.375 0 0 1 0 11V2.625c0-.153.093-.291.236-.348l3.75-1.5a.375.375 0 0 1 .278 0L7.875 2.22l3.61-1.444a.375.375 0 0 1 .35.037ZM.75 2.88v7.55l3.094-1.34V1.64L.75 2.88Zm6.844 7.59L4.406 9.09V1.64l3.188 1.275v7.553Zm.562 0 3.094-1.34v-7.45L8.156 2.916v7.553Z" clip-rule="evenodd"/></svg>