<svg xmlns="http://www.w3.org/2000/svg" fill="none" viewBox="0 0 12 12"><path fill="#0E1011" fill-rule="evenodd" d="M11.703.297a.375.375 0 0 1 0 .53L6.012 6.52c.409.299.938.555 1.214.68l.769-.512a.75.75 0 0 1 .622-.097l2.089.597a.75.75 0 0 1 .544.72V9.75c0 .815-.672 1.533-1.54 1.434a10.09 10.09 0 0 1-5.724-2.64L.828 11.704a.375.375 0 0 1-.53-.53l4.63-4.631.003-.003L11.172.297a.375.375 0 0 1 .53 0ZM5.459 7.071a.037.037 0 0 1 .012-.002c.014 0 .031.005.045.016.58.438 1.364.784 1.555.866.15.064.316.043.442-.042l.898-.598 2.089.597V9.75c0 .427-.34.73-.705.688a9.34 9.34 0 0 1-5.279-2.424l.942-.941-.265-.266.266.264ZM2.25 1.5c-.427 0-.73.34-.688.705a9.325 9.325 0 0 0 1.843 4.586.375.375 0 0 1-.597.454A10.075 10.075 0 0 1 .816 2.291C.716 1.422 1.435.75 2.25.75h1.842a.75.75 0 0 1 .721.544l.597 2.089a.75.75 0 0 1-.097.622l-.512.769c.054.12.134.289.232.476a.375.375 0 0 1-.665.348 9.821 9.821 0 0 1-.319-.67.466.466 0 0 1 .042-.441l.598-.898L4.092 1.5H2.25Z" clip-rule="evenodd"/></svg>