<svg xmlns="http://www.w3.org/2000/svg" fill="none" viewBox="0 0 16 16"><path fill="#0E1011" d="M1.603 1.396a.5.5 0 1 0-.707.708l1.82 1.82A10.55 10.55 0 0 0 .096 6.089l.73.684A9.54 9.54 0 0 1 3.45 4.658L4.942 6.15a7.523 7.523 0 0 0-2.657 1.993l.73.684a6.514 6.514 0 0 1 2.693-1.912l1.633 1.633a4.496 4.496 0 0 0-2.863 1.65l.733.687a3.494 3.494 0 0 1 3.095-1.372l4.09 4.09a.5.5 0 0 0 .707-.707l-11.5-11.5ZM12.984 8.827A6.493 6.493 0 0 0 9.09 6.591L8 5.5a7.484 7.484 0 0 1 5.714 2.643l-.73.684M8 3.5c-.624 0-1.234.06-1.825.175L5.34 2.84C6.19 2.618 7.08 2.5 8 2.5c3.152 0 5.98 1.39 7.905 3.589l-.73.684A9.478 9.478 0 0 0 8 3.5"/><path fill="#0E1011" d="M9.684 11.921a1.998 1.998 0 0 0-3.368 0L8 13.5l1.684-1.579"/></svg>