<svg xmlns="http://www.w3.org/2000/svg" fill="none" viewBox="0 0 12 12"><path fill="#0E1011" fill-rule="evenodd" d="M7.126 9.894 6.896 7.6H9.71c.825 0 1.438-.76 1.259-1.562l-.805-3.602A1.84 1.84 0 0 0 8.366 1H1.737A.735.735 0 0 0 1 1.733v5.134c0 .405.33.733.737.733h1.474L5.42 12l.556-.221a1.833 1.833 0 0 0 1.15-1.885ZM3.948 7.427l1.828 3.639a1.1 1.1 0 0 0 .617-1.099l-.312-3.1H9.71a.55.55 0 0 0 .54-.67l-.805-3.602a1.104 1.104 0 0 0-1.08-.862H3.949v5.694Zm-.737-.56H1.737V1.733h1.474v5.134Z" clip-rule="evenodd"/></svg>