<svg xmlns="http://www.w3.org/2000/svg" fill="none" viewBox="0 0 16 16"><path fill="#0E1011" d="M9.897.253a.5.5 0 1 0-.11.994 5.5 5.5 0 0 1 4.858 4.852.5.5 0 1 0 .994-.111A6.5 6.5 0 0 0 9.897.253ZM9.938 2.926a.5.5 0 1 0-.192.981 2.833 2.833 0 0 1 2.238 2.239.5.5 0 0 0 .982-.192 3.833 3.833 0 0 0-3.028-3.028ZM15 13c0 1.105-.9 2.015-1.994 1.86a13.908 13.908 0 0 1-5.047-1.757 14.07 14.07 0 0 1-4.965-4.898A13.91 13.91 0 0 1 1.14 2.993C.986 1.9 1.896 1 3 1h2c.552 0 .994.45 1.054.998.097.877.32 1.715.65 2.497L5.089 6.11a.486.486 0 0 0-.083.584 11.555 11.555 0 0 0 4.475 4.398c.19.104.424.065.577-.088l1.632-1.632a8.943 8.943 0 0 0 2.312.573c.549.06.998.503.998 1.055v2Z"/></svg>