<svg xmlns="http://www.w3.org/2000/svg" fill="none" viewBox="0 0 16 16"><path fill="#0E1011" d="M8.142.084A.5.5 0 0 0 8 .09a.5.5 0 0 0-.142-.007 1.5 1.5 0 0 0-.415.1l-2.438.975a.5.5 0 0 0 .372.929l2.437-.975a.5.5 0 0 1 .138-.034A.508.508 0 0 0 8 1.073a.508.508 0 0 0 .047.006.5.5 0 0 1 .139.034l2.437.975a.5.5 0 1 0 .372-.929L8.557.184a1.5 1.5 0 0 0-.415-.1M3.752 2.738a.5.5 0 1 0-.372-.929l-2.437.975a1.499 1.499 0 0 0-.547.377.498.498 0 0 0-.11.194.498.498 0 0 0-.139.174A1.498 1.498 0 0 0 0 4.177v2.867a.5.5 0 1 0 1 0V4.24l2.127.85a.5.5 0 0 0 .371-.928L1.846 3.5l1.906-.762M12.62 1.81a.5.5 0 1 0-.372.928l1.906.762-1.652.66a.5.5 0 1 0 .371.93L15 4.238v2.805a.5.5 0 0 0 1 0V4.177c0-.229-.052-.45-.147-.648a.498.498 0 0 0-.139-.174.5.5 0 0 0-.11-.194 1.5 1.5 0 0 0-.547-.377L12.62 1.81M16 8.956a.5.5 0 0 0-1 0v2.867c0 .076-.017.15-.049.216a.486.486 0 0 0-.027.07.504.504 0 0 0-.056.053.498.498 0 0 1-.182.125l-2.438.975a.5.5 0 0 0 .372.929l2.437-.975a1.5 1.5 0 0 0 .547-.377.5.5 0 0 0 .11-.194.497.497 0 0 0 .139-.174c.095-.199.147-.42.147-.648V8.956M1 8.956a.5.5 0 1 0-1 0v2.867c0 .229.052.45.147.648.034.07.082.129.139.174.02.07.057.136.11.194a1.5 1.5 0 0 0 .547.377l2.437.975a.5.5 0 1 0 .372-.929l-2.438-.975a.499.499 0 0 1-.182-.125.507.507 0 0 0-.055-.052.503.503 0 0 0-.028-.071.498.498 0 0 1-.049-.216V8.956M5.377 13.912a.5.5 0 0 0-.372.929l2.438.975c.134.053.273.087.415.1A.5.5 0 0 0 8 15.91a.5.5 0 0 0 .142.007c.142-.013.281-.047.415-.1l2.438-.975a.5.5 0 1 0-.372-.929l-2.123.85v-2.637a.5.5 0 0 0-1 0v2.637l-2.123-.85M5.373 4.91a.5.5 0 0 0-.371.93l2.498.999v3.036a.5.5 0 1 0 1 0V6.839l2.498-1a.5.5 0 1 0-.371-.928L8 5.96l-2.627-1.05"/></svg>