<svg xmlns="http://www.w3.org/2000/svg" fill="none" viewBox="0 0 12 12"><path fill="#0E1011" fill-rule="evenodd" d="M9 3a3 3 0 1 1-6 0 3 3 0 0 1 6 0Zm-.75 0a2.25 2.25 0 1 1-4.5 0 2.25 2.25 0 0 1 4.5 0Z" clip-rule="evenodd"/><path fill="#0E1011" d="M6 11.25a5.24 5.24 0 0 1-4.103-1.974l.116-.81c.079-.554.553-.966 1.113-.966h3.442c.19-.283.421-.536.686-.75H3.125c-.933 0-1.724.686-1.856 1.61l-.16 1.118a5.993 5.993 0 0 0 6.019 2.416 3.394 3.394 0 0 1-.58-.672c-.18.018-.363.028-.549.028Z"/><path fill="#0E1011" fill-rule="evenodd" d="M12 9.375a2.625 2.625 0 1 1-5.25 0 2.625 2.625 0 0 1 5.25 0ZM9.375 7.5c.207 0 .375.168.375.375V9h1.125a.375.375 0 0 1 0 .75H9.75v1.313a.375.375 0 0 1-.75 0V9.75H7.875a.375.375 0 1 1 0-.75H9V7.875c0-.207.168-.375.375-.375Z" clip-rule="evenodd"/></svg>