<svg xmlns="http://www.w3.org/2000/svg" fill="none" viewBox="0 0 12 12"><path fill="#0E1011" fill-rule="evenodd" d="M2.973 1.275v1.168l3.79 3.79a2.05 2.05 0 0 1 2.495.134l1.928 1.653a2.246 2.246 0 1 1-3.167 3.167l-1.653-1.93a2.05 2.05 0 0 1-.134-2.494l-3.789-3.79H1.274L0 .85.85 0l2.123 1.275Zm3.9 6.648a1.05 1.05 0 0 1 1.734-.797l1.928 1.653a1.246 1.246 0 1 1-1.757 1.757L7.125 8.607a1.05 1.05 0 0 1-.253-.684Z" clip-rule="evenodd"/><path fill="#0E1011" d="M8.717.759a1 1 0 0 0-.22.626V2.4a1 1 0 0 0 1 1h1.013a1 1 0 0 0 .707-.293l.569-.568A3.405 3.405 0 0 1 10.3 6.28l-.595-.51-.01-.008a2.654 2.654 0 0 0 1.368-1.703 1.75 1.75 0 0 1-.553.09H9.497a1.75 1.75 0 0 1-1.75-1.75V1.385c0-.19.03-.375.09-.552A2.65 2.65 0 0 0 5.87 3.75L5.121 3A3.4 3.4 0 0 1 9.358.11L8.79.678a1 1 0 0 0-.073.081ZM5.098 7.889c0 .304.05.604.145.888l-2.679 2.679A1.502 1.502 0 0 1 .44 9.332l3.385-3.385.53.53L.97 9.862a.752.752 0 0 0 1.064 1.063l3.064-3.064v.028Z"/></svg>