<svg xmlns="http://www.w3.org/2000/svg" fill="none" viewBox="0 0 12 12"><path fill="#0E1011" fill-rule="evenodd" d="M6 8.143a2.143 2.143 0 1 0 0-4.286 2.143 2.143 0 0 0 0 4.286Zm0-.536a1.607 1.607 0 1 0 0-3.214 1.607 1.607 0 0 0 0 3.214Z" clip-rule="evenodd"/><path fill="#0E1011" d="M8.679 3.857a.536.536 0 1 0 0-1.071.536.536 0 0 0 0 1.071Z"/><path fill="#0E1011" fill-rule="evenodd" d="M3.5 1A2.5 2.5 0 0 0 1 3.5v5A2.5 2.5 0 0 0 3.5 11h5A2.5 2.5 0 0 0 11 8.5v-5A2.5 2.5 0 0 0 8.5 1h-5Zm5 .714h-5c-.986 0-1.786.8-1.786 1.786v5c0 .986.8 1.786 1.786 1.786h5c.986 0 1.786-.8 1.786-1.786v-5c0-.986-.8-1.786-1.786-1.786Z" clip-rule="evenodd"/></svg>