<svg xmlns="http://www.w3.org/2000/svg" fill="none" viewBox="0 0 16 16"><path fill="#0E1011" fill-rule="evenodd" d="M1.067 8a13.011 13.011 0 0 0 1.76 2.41C4.062 11.74 5.814 13 8 13s3.937-1.26 5.174-2.59A13.001 13.001 0 0 0 14.933 8a13.003 13.003 0 0 0-1.76-2.41C11.938 4.26 10.186 3 8 3S4.063 4.26 2.826 5.59A13.014 13.014 0 0 0 1.067 8ZM15.5 8l.448-.222-.001-.002-.002-.005-.008-.014a5.964 5.964 0 0 0-.127-.237 14.013 14.013 0 0 0-1.904-2.61C12.586 3.49 10.588 2 8 2 5.412 2 3.414 3.49 2.094 4.91A14.014 14.014 0 0 0 .19 7.52a8.32 8.32 0 0 0-.127.237l-.008.014-.002.005v.001L.5 8l-.448-.223a.502.502 0 0 0 0 .445L.5 8l-.448.222.001.002.002.005.008.014a4.859 4.859 0 0 0 .127.237 14.017 14.017 0 0 0 1.904 2.61C3.414 12.51 5.412 14 8 14c2.588 0 4.586-1.49 5.906-2.91a14.016 14.016 0 0 0 1.904-2.61 8.027 8.027 0 0 0 .127-.237l.008-.014.002-.005v-.002L15.5 8Zm0 0 .448.222a.502.502 0 0 0 0-.444L15.5 8ZM8 6.04a2 2 0 1 0 0 4 2 2 0 0 0 0-4Zm-3 2a3 3 0 1 1 6 0 3 3 0 0 1-6 0Z" clip-rule="evenodd"/></svg>