<svg xmlns="http://www.w3.org/2000/svg" fill="none" viewBox="0 0 12 12"><path fill="#0E1011" fill-rule="evenodd" d="M6.993.392a1.453 1.453 0 0 0-1.986 0l-.56.524c-.257.24-.592.38-.944.391l-.766.026a1.453 1.453 0 0 0-1.404 1.404l-.026.766c-.011.352-.15.687-.391.945l-.524.56a1.453 1.453 0 0 0 0 1.985l.524.56c.24.257.38.592.391.944l.026.766c.025.765.639 1.379 1.404 1.404l.766.026c.352.011.687.15.945.391l.56.524a1.453 1.453 0 0 0 1.985 0l.56-.524c.257-.24.592-.38.944-.391l.766-.026a1.453 1.453 0 0 0 1.404-1.404l.026-.766c.011-.352.15-.687.391-.945l.524-.56a1.453 1.453 0 0 0 0-1.985l-.524-.56a1.452 1.452 0 0 1-.391-.944l-.026-.766a1.453 1.453 0 0 0-1.404-1.404l-.766-.026a1.453 1.453 0 0 1-.945-.391l-.56-.524Zm1.772 4.373a.375.375 0 1 0-.53-.53L5.5 6.97 4.265 5.735a.375.375 0 0 0-.53.53L5.5 8.03l3.265-3.265Z" clip-rule="evenodd"/></svg>