<svg xmlns="http://www.w3.org/2000/svg" fill="none" viewBox="0 0 16 16"><path fill="#0E1011" d="M5.875 7.75c0-1.036.84-1.875 1.875-1.875H8v.75h-.25c-.621 0-1.125.504-1.125 1.125V8h-.75z"/><path fill="#0E1011" fill-rule="evenodd" d="M8 4a4 4 0 1 0 0 8 4 4 0 0 0 0-8M5 8a3 3 0 1 1 6 0 3 3 0 0 1-6 0" clip-rule="evenodd"/><path fill="#0E1011" fill-rule="evenodd" d="M5 1.293A1 1 0 0 1 5.707 1h4.586a1 1 0 0 1 .707.293l.707.707h2.043A2.25 2.25 0 0 1 16 4.25v7.5A2.25 2.25 0 0 1 13.75 14H2.25A2.25 2.25 0 0 1 0 11.75v-7.5A2.25 2.25 0 0 1 2.25 2h2.043L5 1.293M10.293 2H5.707L5 2.707A1 1 0 0 1 4.293 3H2.25C1.56 3 1 3.56 1 4.25v7.5c0 .69.56 1.25 1.25 1.25h11.5c.69 0 1.25-.56 1.25-1.25v-7.5C15 3.56 14.44 3 13.75 3h-2.043A1 1 0 0 1 11 2.707L10.293 2" clip-rule="evenodd"/></svg>