<svg xmlns="http://www.w3.org/2000/svg" fill="none" viewBox="0 0 12 12"><path fill="#0E1011" fill-rule="evenodd" d="M2.429.22A.697.697 0 0 1 2.934 0h6.132c.19 0 .371.079.505.22L11 1.72v7.655C11 10.825 9.88 12 8.5 12h-5C2.12 12 1 10.825 1 9.375V1.72L2.429.22Zm6.637.53H2.934l-.715.75h7.562L9.066.75Zm1.22 1.5H8.857v1.125c0 1.036-.8 1.875-1.786 1.875H4.93c-.987 0-1.786-.84-1.786-1.875V2.25H1.714v7.125c0 1.036.8 1.875 1.786 1.875h5c.986 0 1.786-.84 1.786-1.875V2.25Zm-6.429 0v1.125c0 .621.48 1.125 1.072 1.125H7.07c.592 0 1.072-.504 1.072-1.125V2.25H3.857Z" clip-rule="evenodd"/></svg>