<svg xmlns="http://www.w3.org/2000/svg" fill="none" viewBox="0 0 12 12"><path fill="#0E1011" fill-rule="evenodd" d="M4.932.754a.375.375 0 0 1 .314.428L4.85 3.75h3.74l.413-2.682a.375.375 0 0 1 .742.114L9.35 3.75h1.899a.375.375 0 0 1 0 .75H9.235l-.461 3H10.5a.375.375 0 0 1 0 .75H8.658l-.412 2.682a.375.375 0 1 1-.742-.114L7.9 8.25H4.16l-.413 2.682a.375.375 0 1 1-.742-.114L3.4 8.25H1.125a.375.375 0 1 1 0-.75h2.39l.461-3H1.875a.375.375 0 1 1 0-.75h2.217l.412-2.682a.375.375 0 0 1 .428-.314ZM8.015 7.5l.461-3h-3.74l-.462 3h3.74Z" clip-rule="evenodd"/></svg>