<svg xmlns="http://www.w3.org/2000/svg" fill="none" viewBox="0 0 12 12"><path fill="#0E1011" d="M1.203 1.047a.375.375 0 0 0-.53.53l1.365 1.366A7.912 7.912 0 0 0 .07 4.567l.548.513a7.155 7.155 0 0 1 1.969-1.587l1.119 1.12a5.642 5.642 0 0 0-1.993 1.494l.548.514a4.885 4.885 0 0 1 2.02-1.434L5.504 6.41A3.372 3.372 0 0 0 3.36 7.649l.549.515a2.62 2.62 0 0 1 2.321-1.03l3.068 3.069a.375.375 0 0 0 .53-.53L1.204 1.046ZM9.738 6.62a4.87 4.87 0 0 0-2.92-1.677L6 4.125c1.717 0 3.254.77 4.286 1.982l-.548.514ZM6 2.625c-.468 0-.926.045-1.369.131l-.626-.626A7.888 7.888 0 0 1 6 1.875a7.856 7.856 0 0 1 5.929 2.692l-.548.513A7.109 7.109 0 0 0 6 2.625Z"/><path fill="#0E1011" d="M7.263 8.94a1.499 1.499 0 0 0-2.526 0L6 10.126l1.263-1.184Z"/></svg>