<svg xmlns="http://www.w3.org/2000/svg" fill="none" viewBox="0 0 12 12"><path fill="#0E1011" d="M5.5 3.125c.207 0 .375.168.375.375v1.625H7.5a.375.375 0 1 1 0 .75H5.875V7.5a.375.375 0 1 1-.75 0V5.875H3.5a.375.375 0 1 1 0-.75h1.625V3.5c0-.207.168-.375.375-.375Z"/><path fill="#0E1011" fill-rule="evenodd" d="M9.62 9.144a5.5 5.5 0 1 0-.475.475.374.374 0 0 0 .09.146l2 2a.375.375 0 0 0 .53-.53l-2-2a.374.374 0 0 0-.146-.09ZM5.5 10.25a4.75 4.75 0 1 0 0-9.5 4.75 4.75 0 0 0 0 9.5Z" clip-rule="evenodd"/></svg>