<svg xmlns="http://www.w3.org/2000/svg" fill="none" viewBox="0 0 16 16"><path fill="#0E1011" fill-rule="evenodd" d="M5.268 1.732a2.5 2.5 0 1 0-.39 3.854L7.294 8l-2.414 2.414a2.5 2.5 0 1 0 .707.707l8.268-8.267a.5.5 0 0 0-.708-.708L8 7.293 5.586 4.879a2.5 2.5 0 0 0-.318-3.147m-2.829.707a1.5 1.5 0 1 1 2.122 2.122 1.5 1.5 0 0 1-2.122-2.122m0 9a1.5 1.5 0 1 1 2.122 2.122 1.5 1.5 0 0 1-2.122-2.122" clip-rule="evenodd"/><path fill="#0E1011" d="M10.854 10.146a.5.5 0 0 0-.708.708l3 3a.5.5 0 0 0 .708-.708l-3-3"/></svg>