<svg xmlns="http://www.w3.org/2000/svg" fill="none" viewBox="0 0 12 12"><path fill="#0E1011" fill-rule="evenodd" d="m4.733 5.815 5.215 5.215c.14.141.332.22.53.22h.022a.75.75 0 0 0 .75-.75v-.021a.75.75 0 0 0-.22-.53L5.815 4.732l.15-.442A2.68 2.68 0 0 0 4.492.97a1.5 1.5 0 0 1 .258.842V3.25a1.5 1.5 0 0 1-1.5 1.5H1.81a1.5 1.5 0 0 1-.84-.258A2.68 2.68 0 0 0 4.29 5.965l.442-.15ZM.003 3.563A3.489 3.489 0 0 1 .1 2.601l1.18 1.18c.14.14.33.219.53.219h1.44A.75.75 0 0 0 4 3.25V1.81a.75.75 0 0 0-.22-.53L2.6.1a3.436 3.436 0 0 1 .962-.097 3.429 3.429 0 0 1 3.113 4.53l4.885 4.885a1.5 1.5 0 0 1 .439 1.06v.022a1.5 1.5 0 0 1-1.5 1.5h-.021a1.5 1.5 0 0 1-1.061-.44L4.533 6.676a3.429 3.429 0 0 1-4.53-3.112Z" clip-rule="evenodd"/></svg>