<svg xmlns="http://www.w3.org/2000/svg" fill="none" viewBox="0 0 12 12"><path fill="#0E1011" fill-rule="evenodd" d="M2 .85a.15.15 0 0 0-.15.15v3.617A3.65 3.65 0 0 0 4.346 8.08L6 8.63l1.654-.551a3.65 3.65 0 0 0 2.496-3.463V1A.15.15 0 0 0 10 .85H2Zm3.65 8.402-1.526-.508A4.35 4.35 0 0 1 1.15 4.617V1c0-.47.38-.85.85-.85h8c.47 0 .85.38.85.85v3.617a4.35 4.35 0 0 1-2.974 4.127l-1.526.508v1.898H8a.35.35 0 1 1 0 .7H4a.35.35 0 1 1 0-.7h1.65V9.252ZM.5 2.15a.35.35 0 0 1 .35.35v3a.35.35 0 1 1-.7 0v-3a.35.35 0 0 1 .35-.35Zm11 0a.35.35 0 0 1 .35.35v3a.35.35 0 1 1-.7 0v-3a.35.35 0 0 1 .35-.35Z" clip-rule="evenodd"/></svg>