<svg xmlns="http://www.w3.org/2000/svg" fill="none" viewBox="0 0 12 12"><path fill="#0E1011" d="M8.765 4.765a.375.375 0 1 0-.53-.53L5.5 6.97 4.265 5.735a.375.375 0 0 0-.53.53L5.5 8.03l3.265-3.265Z"/><path fill="#0E1011" fill-rule="evenodd" d="M.392 6.993a1.453 1.453 0 0 1 0-1.986l.524-.56c.24-.257.38-.592.391-.944l.026-.766a1.453 1.453 0 0 1 1.404-1.404l.766-.026c.352-.011.687-.15.945-.391l.56-.524a1.453 1.453 0 0 1 1.985 0l.56.524c.257.24.592.38.944.391l.766.026c.765.025 1.379.639 1.404 1.404l.026.766c.011.352.15.687.391.945l.524.56a1.453 1.453 0 0 1 0 1.985l-.524.56c-.24.257-.38.592-.391.944l-.026.766a1.453 1.453 0 0 1-1.404 1.404l-.766.026c-.352.011-.687.15-.945.391l-.56.524a1.453 1.453 0 0 1-1.985 0l-.56-.524a1.452 1.452 0 0 0-.944-.391l-.766-.026a1.453 1.453 0 0 1-1.404-1.404l-.026-.766a1.453 1.453 0 0 0-.391-.945l-.524-.56ZM6.48.94l.56.524c.39.364.899.575 1.432.593l.767.025c.37.013.666.31.679.68l.025.766c.018.533.229 1.042.593 1.432l.524.56c.253.27.253.69 0 .96l-.524.56c-.364.39-.575.899-.593 1.432l-.025.767a.703.703 0 0 1-.68.679l-.766.025a2.203 2.203 0 0 0-1.432.593l-.56.524a.703.703 0 0 1-.96 0l-.56-.524a2.203 2.203 0 0 0-1.432-.593l-.767-.025a.703.703 0 0 1-.679-.68l-.025-.766a2.203 2.203 0 0 0-.593-1.432L.94 6.48a.703.703 0 0 1 0-.96l.524-.56c.364-.39.575-.899.593-1.432l.025-.767a.703.703 0 0 1 .68-.679l.766-.025a2.203 2.203 0 0 0 1.432-.593L5.52.94a.703.703 0 0 1 .96 0Z" clip-rule="evenodd"/></svg>