<svg xmlns="http://www.w3.org/2000/svg" fill="none" viewBox="0 0 12 12"><path fill="#0E1011" d="M6.375 3.75a.375.375 0 1 0-.75 0v2.625a.375.375 0 1 0 .75 0V3.75ZM6.375 7.875a.375.375 0 1 0-.75 0v.375a.375.375 0 0 0 .75 0v-.375Z"/><path fill="#0E1011" fill-rule="evenodd" d="M3.671 0c-.1 0-.195.04-.265.11L.11 3.406a.375.375 0 0 0-.11.265V8.33c0 .1.04.195.11.265l3.296 3.296c.07.07.166.11.265.11H8.33c.1 0 .195-.04.265-.11l3.296-3.296c.07-.07.11-.166.11-.265V3.67c0-.1-.04-.195-.11-.265L8.594.11A.375.375 0 0 0 8.329 0H3.67ZM.75 3.827 3.827.75h4.346l3.077 3.077v4.346L8.173 11.25H3.827L.75 8.173V3.827Z" clip-rule="evenodd"/></svg>