<svg xmlns="http://www.w3.org/2000/svg" fill="none" viewBox="0 0 16 16"><path fill="#0E1011" d="M8 10.4a2.4 2.4 0 0 1-2.078-1.2l-.026-.043a2.4 2.4 0 1 1 4.18.048l-.01.017A2.4 2.4 0 0 1 8 10.4"/><path fill="#0E1011" fill-rule="evenodd" d="M16 8A8 8 0 1 1 0 8a8 8 0 0 1 16 0M2.87 3.896a.5.5 0 1 0-.867.5L5.02 9.638a3.4 3.4 0 0 0 3.889 1.639L7.08 14.522a.5.5 0 0 0 .871.491l2.977-5.284c.3-.507.471-1.098.471-1.729a3.39 3.39 0 0 0-.992-2.4h3.708a.5.5 0 1 0 0-1H8a3.402 3.402 0 0 0-3.282 2.508L2.87 3.896Z" clip-rule="evenodd"/></svg>