<svg xmlns="http://www.w3.org/2000/svg" fill="none" viewBox="0 0 16 16"><path fill="#0E1011" fill-rule="evenodd" d="M10 0 8.74 5.348a.5.5 0 1 1-.98-.196l.426-2.13-1.082 1.082a.5.5 0 1 1-.708-.708zM.396.396a.5.5 0 0 1 .708 0l14.5 14.5a.5.5 0 0 1-.708.708l-4.26-4.262L5.5 16l1.874-6.153-5.837-1.591L4.543 5.25.396 1.104a.5.5 0 0 1 0-.708ZM5.25 5.957 3.463 7.744l4.915 1.34L5.25 5.958m3.335 3.335-1.078 3.59 2.42-2.247-1.342-1.343M9.58 6.93a.5.5 0 0 1 .614-.35L14.5 7.753 12.544 9.57a.5.5 0 1 1-.68-.733l.637-.591-2.57-.701a.5.5 0 0 1-.35-.614" clip-rule="evenodd"/></svg>