<svg xmlns="http://www.w3.org/2000/svg" fill="none" viewBox="0 0 12 12"><path fill="#0E1011" d="M4.129 7.378C4.556 7.07 5.194 6.75 6 6.75s1.444.32 1.871.628a3.704 3.704 0 0 1 .66.614l.005.005.006.009.004.004v.002s.002 0-.307.23l.309-.23a.38.38 0 0 1-.077.536.388.388 0 0 1-.54-.076l-.004-.005a2.219 2.219 0 0 0-.12-.134 2.935 2.935 0 0 0-.39-.336A2.42 2.42 0 0 0 6 7.515a2.42 2.42 0 0 0-1.417.482 2.935 2.935 0 0 0-.51.47l-.004.006a.388.388 0 0 1-.54.075.38.38 0 0 1-.077-.535l.31.23-.31-.23.001-.001.001-.002.004-.004L3.46 8l.007-.009.036-.043a3.704 3.704 0 0 1 .625-.57ZM4.5 3.75a.75.75 0 1 0 0 1.5.75.75 0 0 0 0-1.5ZM7.5 3.75a.75.75 0 1 0 0 1.5.75.75 0 0 0 0-1.5Z"/><path fill="#0E1011" fill-rule="evenodd" d="M12 6A6 6 0 1 1 0 6a6 6 0 0 1 12 0Zm-6 5.25A5.25 5.25 0 1 0 6 .75a5.25 5.25 0 0 0 0 10.5Z" clip-rule="evenodd"/></svg>