<svg xmlns="http://www.w3.org/2000/svg" fill="none" viewBox="0 0 16 16"><path fill="#0E1011" fill-rule="evenodd" d="M7.691 2.038A.5.5 0 0 1 8 2.5v11a.5.5 0 0 1-.854.354L4.293 11H2a2 2 0 0 1-2-2V7a2 2 0 0 1 2-2h2.293l2.853-2.854a.5.5 0 0 1 .545-.108ZM7 3.708 4.707 6H2a1 1 0 0 0-1 1v2a1 1 0 0 0 1 1h2.707L7 12.293V3.707Zm3.146 1.438a.5.5 0 0 1 .708 0L13 7.293l2.146-2.147a.5.5 0 0 1 .708.708L13.707 8l2.147 2.146a.5.5 0 0 1-.708.708L13 8.707l-2.146 2.147a.5.5 0 0 1-.708-.707L12.293 8l-2.147-2.146a.5.5 0 0 1 0-.708Z" clip-rule="evenodd"/><path fill="#0E1011" d="M1 7a1 1 0 0 1 1-1h2.707L7 3.707v8.586L4.707 10H2a1 1 0 0 1-1-1V7Z"/></svg>