<svg xmlns="http://www.w3.org/2000/svg" fill="none" viewBox="0 0 16 16"><path fill="#0E1011" d="M3.5 6.25a.75.75 0 1 0 0-1.5.75.75 0 0 0 0 1.5"/><path fill="#0E1011" fill-rule="evenodd" d="M2.5 2A2.5 2.5 0 0 0 0 4.5v7A2.5 2.5 0 0 0 2.5 14h5.756a4.5 4.5 0 0 1 4.214-6L10.5 6.03l-5 5-2-2-2.235 2.235a.375.375 0 0 1-.53-.53L3.5 7.97l2 2 5-5 3.19 3.189c.921.252 1.725.79 2.31 1.512V4.5A2.5 2.5 0 0 0 13.5 2zm1 5a1.5 1.5 0 1 0 0-3 1.5 1.5 0 0 0 0 3" clip-rule="evenodd"/><path fill="#0E1011" fill-rule="evenodd" d="M16 12.5a3.5 3.5 0 1 1-7 0 3.5 3.5 0 0 1 7 0m-3.5-2a.5.5 0 0 1 .5.5v1h1a.5.5 0 0 1 0 1h-1v1a.5.5 0 0 1-1 0v-1h-1a.5.5 0 0 1 0-1h1v-1a.5.5 0 0 1 .5-.5" clip-rule="evenodd"/></svg>