<svg xmlns="http://www.w3.org/2000/svg" fill="none" viewBox="0 0 12 12"><path fill="#0E1011" d="M5.644 2.846a.375.375 0 0 1-.41-.08l-1-1a.375.375 0 0 1 0-.531l1-1A.375.375 0 0 1 5.876.5v.625H6a4.875 4.875 0 0 1 3.756 7.982.375.375 0 1 1-.578-.478A4.125 4.125 0 0 0 6 1.875h-.125V2.5a.375.375 0 0 1-.231.346ZM6 10.125h.125V9.5a.375.375 0 0 1 .64-.265l1 1a.375.375 0 0 1 0 .53l-1 1a.375.375 0 0 1-.64-.265v-.625H6a4.875 4.875 0 0 1-3.756-7.982.375.375 0 0 1 .578.478A4.125 4.125 0 0 0 6 10.125Z"/></svg>