<svg xmlns="http://www.w3.org/2000/svg" fill="none" viewBox="0 0 16 16"><path fill="#0E1011" fill-rule="evenodd" d="M4.5 2.5v1.293l3.484 3.484A1.99 1.99 0 0 1 9 7h.233a2 2 0 0 1 1.337.513l3.768 3.391A2 2 0 0 1 15 12.391V13a2 2 0 0 1-2 2h-.61a2 2 0 0 1-1.486-.662l-3.39-3.768A2 2 0 0 1 7 9.233V9c0-.37.101-.718.277-1.016L3.793 4.5H2.5L1 2l1-1 2.5 1.5Zm4.788 6.212a.3.3 0 1 1 .424-.424l3.207 3.207a1.3 1.3 0 0 1 .381.92v.085a.3.3 0 1 1-.6 0v-.086a.7.7 0 0 0-.205-.495L9.288 8.712Z" clip-rule="evenodd"/></svg>