<svg xmlns="http://www.w3.org/2000/svg" fill="none" viewBox="0 0 12 12"><path fill="#0E1011" d="M1.75 7.5A.25.25 0 0 1 2 7.25h3.5a.25.25 0 0 1 0 .5H2a.25.25 0 0 1-.25-.25ZM1.75 9A.25.25 0 0 1 2 8.75h1.5a.25.25 0 0 1 0 .5H2A.25.25 0 0 1 1.75 9Z"/><path fill="#0E1011" fill-rule="evenodd" d="M1.5 1A1.5 1.5 0 0 0 0 2.5v7A1.5 1.5 0 0 0 1.5 11h4.125a.375.375 0 0 0 0-.75H1.5a.75.75 0 0 1-.75-.75v-4h10.5v1.125a.375.375 0 0 0 .75 0V2.5A1.5 1.5 0 0 0 10.5 1h-9Zm0 .75h9a.75.75 0 0 1 .75.75v1H.75v-1a.75.75 0 0 1 .75-.75Z" clip-rule="evenodd"/><path fill="#0E1011" d="M9.875 7.5a.375.375 0 1 0-.75 0v1.625H7.5a.375.375 0 1 0 0 .75h1.625V11.5a.375.375 0 0 0 .75 0V9.875H11.5a.375.375 0 0 0 0-.75H9.875V7.5Z"/></svg>