<svg xmlns="http://www.w3.org/2000/svg" fill="none" viewBox="0 0 12 12"><path fill="#0E1011" d="M1 1.17a.33.33 0 1 0 0 .66h.17v1.34H1a.33.33 0 1 0 0 .66h1a.33.33 0 1 0 0-.66h-.17v-2H1ZM4.5 2.125a.375.375 0 0 0 0 .75h5a.375.375 0 0 0 0-.75h-5ZM4.5 5.625a.375.375 0 0 0 0 .75h7a.375.375 0 0 0 0-.75h-7ZM4.5 9.125a.375.375 0 0 0 0 .75h3a.375.375 0 0 0 0-.75h-3ZM.5 4.67a.33.33 0 1 0 0 .66h1.42v.018L.285 6.75A.33.33 0 0 0 .5 7.33h2a.33.33 0 0 0 0-.66H1.392l1.003-.86a.53.53 0 0 0 .185-.402V5.2a.53.53 0 0 0-.53-.53H.5ZM.17 8.5a.33.33 0 0 1 .33-.33h1.8a.53.53 0 0 1 .53.53v.176a.53.53 0 0 1-.293.474l-.3.15.3.15a.53.53 0 0 1 .293.474v.176a.53.53 0 0 1-.53.53H.5a.33.33 0 1 1 0-.66h1.602l-.75-.375a.33.33 0 0 1 0-.59l.75-.375H.5a.33.33 0 0 1-.33-.33Z"/></svg>