<svg xmlns="http://www.w3.org/2000/svg" fill="none" viewBox="0 0 12 12"><path fill="#0E1011" d="M2 2h.75v.75H2V2ZM4 2h.75v.75H4V2Z"/><path fill="#0E1011" fill-rule="evenodd" d="M10.5 1A1.5 1.5 0 0 1 12 2.5v1A1.5 1.5 0 0 1 10.5 5h-9A1.5 1.5 0 0 1 0 3.5v-1A1.5 1.5 0 0 1 1.5 1h9Zm.75 1.5v1a.75.75 0 0 1-.75.75h-9a.75.75 0 0 1-.75-.75v-1a.75.75 0 0 1 .75-.75h9a.75.75 0 0 1 .75.75Z" clip-rule="evenodd"/><path fill="#0E1011" d="M2.75 8H2v.75h.75V8ZM4.75 8H4v.75h.75V8Z"/><path fill="#0E1011" fill-rule="evenodd" d="M10.5 7A1.5 1.5 0 0 1 12 8.5v1a1.5 1.5 0 0 1-1.5 1.5h-9A1.5 1.5 0 0 1 0 9.5v-1A1.5 1.5 0 0 1 1.5 7h9Zm.75 1.5v1a.75.75 0 0 1-.75.75h-9a.75.75 0 0 1-.75-.75v-1a.75.75 0 0 1 .75-.75h9a.75.75 0 0 1 .75.75Z" clip-rule="evenodd"/></svg>