<svg xmlns="http://www.w3.org/2000/svg" fill="none" viewBox="0 0 16 16"><path fill="#0E1011" fill-rule="evenodd" d="M6 3a5 5 0 0 0-2.086 9.546l-.417.908a6 6 0 1 1 8.166-7.44 4 4 0 0 1 1.48 7.82l-.286-.958a3.002 3.002 0 0 0-1.448-5.818l-.459.092-.121-.452A5.002 5.002 0 0 0 6 3m2.5 6a.5.5 0 0 1 .5.5V12a.5.5 0 0 1-1 0V9.5a.5.5 0 0 1 .5-.5m-2 1a.5.5 0 0 1 .5.5V12a.5.5 0 0 1-1 0v-1.5a.5.5 0 0 1 .5-.5m4 0a.5.5 0 0 1 .5.5V12a.5.5 0 0 1-1 0v-1.5a.5.5 0 0 1 .5-.5m-4 2.855a.5.5 0 0 1 .5.5V14.5a.5.5 0 0 1-1 0v-1.145a.5.5 0 0 1 .5-.5m2 0a.5.5 0 0 1 .5.5V15.5a.5.5 0 0 1-1 0v-2.145a.5.5 0 0 1 .5-.5m2 0a.5.5 0 0 1 .5.5V14.5a.5.5 0 0 1-1 0v-1.145a.5.5 0 0 1 .5-.5" clip-rule="evenodd"/></svg>