<svg xmlns="http://www.w3.org/2000/svg" fill="none" viewBox="0 0 12 12"><path fill="#0E1011" d="M2.57 2.25a1.5 1.5 0 0 0-1.341.83L.277 4.981a2.624 2.624 0 0 0-.104.236 2.053 2.053 0 0 1 1.14-.343h9.374c.422 0 .813.126 1.14.343a2.671 2.671 0 0 0-.104-.236L10.77 3.08A1.5 1.5 0 0 0 9.43 2.25H2.57Z"/><path fill="#0E1011" fill-rule="evenodd" d="M12 6.938c0-.725-.588-1.313-1.313-1.313H1.313C.588 5.625 0 6.213 0 6.938V8.25a1.5 1.5 0 0 0 1.5 1.5h9a1.5 1.5 0 0 0 1.5-1.5V6.937Zm-3.75.187c0-.207.168-.375.375-.375h1.5a.375.375 0 0 1 0 .75h-1.5a.375.375 0 0 1-.375-.375Z" clip-rule="evenodd"/></svg>