<svg xmlns="http://www.w3.org/2000/svg" fill="none" viewBox="0 0 12 12"><path fill="#0E1011" fill-rule="evenodd" d="M1.375 2c0-1.036.84-1.875 1.875-1.875h.25a1.875 1.875 0 0 1 .375 3.712v3.206l2.944-.59A1.625 1.625 0 0 0 8.125 4.86V3.837A1.876 1.876 0 0 1 8.5.125h.25a1.875 1.875 0 0 1 .125 3.746v.99c0 1.132-.8 2.106-1.91 2.328l-3.09.618v1.37a1.376 1.376 0 1 1-.75 0V3.87A1.875 1.875 0 0 1 1.375 2ZM3.5 9.875a.625.625 0 1 0 0 1.25.625.625 0 0 0 0-1.25Zm5.25-6.75H8.5a1.125 1.125 0 0 1 0-2.25h.25a1.125 1.125 0 0 1 0 2.25ZM4.625 2c0 .621-.504 1.125-1.125 1.125h-.25a1.125 1.125 0 0 1 0-2.25h.25c.621 0 1.125.504 1.125 1.125Z" clip-rule="evenodd"/></svg>