<svg xmlns="http://www.w3.org/2000/svg" fill="none" viewBox="0 0 12 12"><path fill="#0E1011" d="M3 5a1 1 0 1 0 0-2 1 1 0 0 0 0 2Z"/><path fill="#0E1011" fill-rule="evenodd" d="M1.75 1A1.75 1.75 0 0 0 0 2.75v6.5C0 10.216.784 11 1.75 11h8.5A1.75 1.75 0 0 0 12 9.25v-6.5A1.75 1.75 0 0 0 10.25 1h-8.5Zm8.5.75h-8.5a1 1 0 0 0-1 1v4.97L2.5 5.97l1.517 1.517 4-3.5L11.25 7.22V2.75a1 1 0 0 0-1-1Zm-9.5 7.5v-.47a.378.378 0 0 0 .015-.015L2.5 7.03l1.483 1.483 4-3.5 3.252 3.252.015.015v.97a1 1 0 0 1-1 1h-8.5a1 1 0 0 1-1-1Z" clip-rule="evenodd"/></svg>