<svg xmlns="http://www.w3.org/2000/svg" fill="none" viewBox="0 0 12 12"><path fill="#0E1011" d="M2.076 3.809a.375.375 0 1 0-.402.632l4.329 2.755 4.212-2.757a.375.375 0 1 0-.41-.628L5.996 6.304l-3.92-2.495Z"/><path fill="#0E1011" fill-rule="evenodd" d="M1.875 1.25C.839 1.25 0 2.09 0 3.125v5.75c0 1.036.84 1.875 1.875 1.875h8.25c1.036 0 1.875-.84 1.875-1.875v-5.75c0-1.036-.84-1.875-1.875-1.875h-8.25ZM.75 3.125C.75 2.504 1.254 2 1.875 2h8.25c.621 0 1.125.504 1.125 1.125v5.75c0 .621-.504 1.125-1.125 1.125h-8.25A1.125 1.125 0 0 1 .75 8.875v-5.75Z" clip-rule="evenodd"/></svg>