<svg xmlns="http://www.w3.org/2000/svg" fill="none" viewBox="0 0 12 12"><path fill="#0E1011" d="M.875 5.5a3.625 3.625 0 0 1 6.788-1.773l.13.23.26-.044a2.625 2.625 0 1 1 .885 5.176l.124.74a3.376 3.376 0 0 0-.878-6.69 4.375 4.375 0 1 0-4.23 6.702l.092-.744A3.626 3.626 0 0 1 .875 5.5Z"/><path fill="#0E1011" d="M6.75 7.5a.25.25 0 0 0-.5 0V9a.25.25 0 0 0 .5 0V7.5ZM5.5 8.5a.25.25 0 0 0-.5 0V9a.25.25 0 1 0 .5 0v-.5ZM8 8.5a.25.25 0 0 0-.5 0V9A.25.25 0 0 0 8 9v-.5ZM5.5 10a.25.25 0 0 0-.5 0v.5a.25.25 0 1 0 .5 0V10ZM6.75 10a.25.25 0 0 0-.5 0v1.5a.25.25 0 1 0 .5 0V10ZM8 10a.25.25 0 0 0-.5 0v.5a.25.25 0 1 0 .5 0V10Z"/></svg>