<svg xmlns="http://www.w3.org/2000/svg" fill="none" viewBox="0 0 12 12"><path fill="#0E1011" d="M1.75 7.5A.25.25 0 0 1 2 7.25h3.5a.25.25 0 0 1 0 .5H2a.25.25 0 0 1-.25-.25ZM1.75 9A.25.25 0 0 1 2 8.75h1.5a.25.25 0 0 1 0 .5H2A.25.25 0 0 1 1.75 9Z"/><path fill="#0E1011" fill-rule="evenodd" d="M1.5 1A1.5 1.5 0 0 0 0 2.5v7A1.5 1.5 0 0 0 1.5 11h9A1.5 1.5 0 0 0 12 9.5v-7A1.5 1.5 0 0 0 10.5 1h-9Zm9 .75h-9a.75.75 0 0 0-.75.75v1h10.5v-1a.75.75 0 0 0-.75-.75Zm.75 3.75H.75v4c0 .414.336.75.75.75h9a.75.75 0 0 0 .75-.75v-4Z" clip-rule="evenodd"/></svg>