<svg xmlns="http://www.w3.org/2000/svg" fill="none" viewBox="0 0 16 16"><path fill="#0E1011" fill-rule="evenodd" d="M12.5 2a.5.5 0 0 0-.5.5v11a.5.5 0 0 0 .5.5h1a.5.5 0 0 0 .5-.5v-11a.5.5 0 0 0-.5-.5zm-1.5.5A1.5 1.5 0 0 1 12.5 1h1A1.5 1.5 0 0 1 15 2.5v11a1.5 1.5 0 0 1-1.5 1.5h-1a1.5 1.5 0 0 1-1.5-1.5zM7.5 6a.5.5 0 0 0-.5.5v7a.5.5 0 0 0 .5.5h1a.5.5 0 0 0 .5-.5v-7a.5.5 0 0 0-.5-.5h-1M6 6.5A1.5 1.5 0 0 1 7.5 5h1A1.5 1.5 0 0 1 10 6.5v7A1.5 1.5 0 0 1 8.5 15h-1A1.5 1.5 0 0 1 6 13.5v-7M2.5 10a.5.5 0 0 0-.5.5v3a.5.5 0 0 0 .5.5h1a.5.5 0 0 0 .5-.5v-3a.5.5 0 0 0-.5-.5zm-1.5.5A1.5 1.5 0 0 1 2.5 9h1A1.5 1.5 0 0 1 5 10.5v3A1.5 1.5 0 0 1 3.5 15h-1A1.5 1.5 0 0 1 1 13.5z" clip-rule="evenodd"/></svg>