<svg xmlns="http://www.w3.org/2000/svg" fill="none" viewBox="0 0 12 12"><path fill="#0E1011" d="M6 3.765a2.235 2.235 0 1 0 0 4.47 2.235 2.235 0 0 0 0-4.47Z"/><path fill="#0E1011" fill-rule="evenodd" d="M6 2.031a3.971 3.971 0 1 0 0 7.943A3.971 3.971 0 0 0 6 2.03ZM3.203 6a2.797 2.797 0 1 1 5.594 0 2.797 2.797 0 0 1-5.594 0Z" clip-rule="evenodd"/><path fill="#0E1011" fill-rule="evenodd" d="M12 6A6 6 0 1 1 0 6a6 6 0 0 1 12 0Zm-10.534.002a4.534 4.534 0 1 1 9.068 0 4.534 4.534 0 0 1-9.068 0Z" clip-rule="evenodd"/></svg>