<svg xmlns="http://www.w3.org/2000/svg" fill="none" viewBox="0 0 16 16"><path fill="#0E1011" fill-rule="evenodd" d="M5 5.5a1.5 1.5 0 1 1-3 0 1.5 1.5 0 0 1 3 0Zm-.75 0a.75.75 0 1 1-1.5 0 .75.75 0 0 1 1.5 0Z" clip-rule="evenodd"/><path fill="#0E1011" fill-rule="evenodd" d="M2.5 2A2.5 2.5 0 0 0 0 4.5v7A2.5 2.5 0 0 0 2.5 14h11a2.5 2.5 0 0 0 2.5-2.5v-7A2.5 2.5 0 0 0 13.5 2h-11Zm11 1h-11A1.5 1.5 0 0 0 1 4.5v5.97l2.5-2.5 2 2 5-5 4.5 4.5V4.5A1.5 1.5 0 0 0 13.5 3Zm-11 10A1.5 1.5 0 0 1 1 11.53l2.5-2.5 2 2 5-5 4.5 4.5v.97a1.5 1.5 0 0 1-1.5 1.5h-11Z" clip-rule="evenodd"/></svg>