<svg xmlns="http://www.w3.org/2000/svg" height="17" fill="none" viewBox="0 0 16 17"><path fill="#0E1011" fill-rule="evenodd" d="M13.56.896a1.5 1.5 0 0 0-2.12 0L1.145 11.19a.5.5 0 0 0-.146.354v2a.5.5 0 0 0 .5.5h2a.5.5 0 0 0 .354-.147L14.146 3.603a1.5 1.5 0 0 0 0-2.12l-.585-.587Zm-1.414.707a.5.5 0 0 1 .708 0l.585.586a.5.5 0 0 1 0 .707L12 4.336l-1.293-1.293 1.44-1.44ZM10 3.75l1.293 1.293-8 8H2V11.75l8-8Z" clip-rule="evenodd"/><path fill="#0E1011" d="M1 15.043a.5.5 0 0 0 0 1h14a.5.5 0 1 0 0-1H1Z"/></svg>