<svg xmlns="http://www.w3.org/2000/svg" fill="none" viewBox="0 0 12 12"><path fill="#0E1011" fill-rule="evenodd" d="M0 6.613c0-.194.04-.385.119-.559l1.86-4.133C2.233 1.357 2.752 1 3.32 1h5.36c.568 0 1.087.357 1.341.921l1.86 4.133c.078.174.119.365.119.56v2.511C12 10.161 11.245 11 10.312 11H1.688C.755 11 0 10.16 0 9.125V6.613Zm2.65-4.319c.127-.282.386-.46.67-.46h5.36c.284 0 .543.178.67.46l1.762 3.914H7.5v.625C7.5 7.753 6.828 8.5 6 8.5s-1.5-.746-1.5-1.667v-.625H.888l1.761-3.914Z" clip-rule="evenodd"/></svg>