<svg xmlns="http://www.w3.org/2000/svg" fill="none" viewBox="0 0 12 12"><path fill="#0E1011" fill-rule="evenodd" d="M2.163 4.333a3.833 3.833 0 1 1 7.667 0v1.03c0 .712.283 1.394.786 1.897l.41.411c.216.216.337.508.337.813v.45a.767.767 0 0 1-.766.766h-9.2a.767.767 0 0 1-.767-.767v-.449c0-.305.121-.597.337-.813l.41-.41a2.683 2.683 0 0 0 .786-1.898v-1.03Zm3.834-3.066A3.067 3.067 0 0 0 2.93 4.333v1.03a3.45 3.45 0 0 1-1.01 2.44l-.411.41a.383.383 0 0 0-.112.271v.45h9.2v-.45c0-.101-.04-.199-.113-.27l-.41-.411a3.45 3.45 0 0 1-1.01-2.44v-1.03a3.067 3.067 0 0 0-3.067-3.066Zm0 10.733a1.917 1.917 0 0 1-1.917-1.917h.767a1.15 1.15 0 1 0 2.3 0h.766A1.917 1.917 0 0 1 5.997 12ZM4.912 3.25c.288-.288.678-.45 1.085-.45a.383.383 0 1 0 0-.767 2.3 2.3 0 0 0-2.3 2.3.383.383 0 0 0 .766 0c0-.406.162-.796.45-1.084Z" clip-rule="evenodd"/></svg>