<svg xmlns="http://www.w3.org/2000/svg" fill="none" viewBox="0 0 16 16"><path fill="#0E1011" fill-rule="evenodd" d="M4 4.707.396 1.104a.5.5 0 1 1 .708-.708l14.5 14.5a.5.5 0 0 1-.708.708l-3.318-3.319A4.977 4.977 0 0 1 9 13h-.5v2H10a.5.5 0 0 1 0 1H6a.5.5 0 0 1 0-1h1.5v-2H7a5 5 0 0 1-5-5v-.25a.5.5 0 0 1 1 0V8a4 4 0 0 0 4 4h2c.665 0 1.292-.162 1.844-.45l-1-1A4 4 0 0 1 4 7V4.707Zm5.09 5.09A3 3 0 0 1 5 7V5.706l4.09 4.09Z" clip-rule="evenodd"/><path fill="#0E1011" d="m11.646 8.646-.775-.775A3 3 0 0 0 11 7V4a3 3 0 0 0-5.562-1.562l-.722-.722A4 4 0 0 1 12 4v3c0 .587-.126 1.144-.354 1.646ZM12.646 9.646l.746.746C13.78 9.682 14 8.866 14 8v-.25a.5.5 0 0 0-1 0V8c0 .587-.126 1.144-.354 1.646Z"/></svg>