<svg xmlns="http://www.w3.org/2000/svg" fill="none" viewBox="0 0 16 16"><path fill="#0E1011" fill-rule="evenodd" d="M6.576 1.006a.5.5 0 0 1 .418.57L6.467 5h4.989l.55-3.576a.5.5 0 0 1 .988.152L12.467 5H15a.5.5 0 0 1 0 1h-2.686l-.616 4H14a.5.5 0 1 1 0 1h-2.456l-.55 3.576a.5.5 0 0 1-.988-.152L10.533 11H5.544l-.55 3.576a.5.5 0 0 1-.988-.152L4.533 11H1.5a.5.5 0 0 1 0-1h3.186l.616-4H2.5a.5.5 0 0 1 0-1h2.956l.55-3.576a.5.5 0 0 1 .57-.418M10.686 10l.616-4H6.314l-.616 4h4.988" clip-rule="evenodd"/></svg>