<svg xmlns="http://www.w3.org/2000/svg" fill="none" viewBox="0 0 16 16"><path fill="#0E1011" fill-rule="evenodd" d="M1.5 1A1.5 1.5 0 0 0 0 2.5V12a2 2 0 0 0 2 2h5.5v-1H2a1 1 0 0 1-1-1V4h4.879a2 2 0 0 0 1.414-.586L7.707 3H14a1 1 0 0 1 1 1v4.5h1V4a2 2 0 0 0-2-2H7.707l-.414-.414A2 2 0 0 0 5.879 1H1.5Zm4.379 2H1v-.5a.5.5 0 0 1 .5-.5h4.379a1 1 0 0 1 .707.293l.207.207-.207.207A1 1 0 0 1 5.879 3Z" clip-rule="evenodd"/><path fill="#0E1011" fill-rule="evenodd" d="M16 12.5a3.5 3.5 0 1 1-7 0 3.5 3.5 0 0 1 7 0ZM12.5 10a.5.5 0 0 1 .5.5V12h1.5a.5.5 0 0 1 0 1H13v1.75a.5.5 0 0 1-1 0V13h-1.5a.5.5 0 0 1 0-1H12v-1.5a.5.5 0 0 1 .5-.5Z" clip-rule="evenodd"/></svg>