<svg xmlns="http://www.w3.org/2000/svg" fill="none" viewBox="0 0 12 12"><path fill="#0E1011" d="M2.914 1.282c.125.165.092.4-.074.525a5.25 5.25 0 0 0 .149 8.494.375.375 0 1 1-.43.614 6 6 0 0 1-.17-9.707.375.375 0 0 1 .525.074ZM9.086 1.282a.375.375 0 0 0 .074.525 5.25 5.25 0 0 1-.149 8.494.375.375 0 1 0 .43.614 6 6 0 0 0 .17-9.707.375.375 0 0 0-.525.074Z"/><path fill="#0E1011" d="M4.044 3.404a.375.375 0 0 0-.451-.599 4 4 0 0 0 .113 6.472.375.375 0 0 0 .43-.615 3.25 3.25 0 0 1-.092-5.258ZM7.882 2.88a.375.375 0 0 0 .074.524 3.25 3.25 0 0 1-.092 5.258.375.375 0 0 0 .43.615 4 4 0 0 0 .113-6.472.375.375 0 0 0-.525.074Z"/><path fill="#0E1011" fill-rule="evenodd" d="M8 6a2 2 0 1 1-4 0 2 2 0 0 1 4 0Zm-.75 0a1.25 1.25 0 1 1-2.5 0 1.25 1.25 0 0 1 2.5 0Z" clip-rule="evenodd"/></svg>