<svg xmlns="http://www.w3.org/2000/svg" fill="none" viewBox="0 0 12 12"><path fill="#0E1011" fill-rule="evenodd" d="M8.466 6a2.466 2.466 0 1 1-4.932 0 2.466 2.466 0 0 1 4.932 0Zm-.75 0a1.716 1.716 0 1 1-3.432 0 1.716 1.716 0 0 1 3.432 0Z" clip-rule="evenodd"/><path fill="#0E1011" fill-rule="evenodd" d="M2.183 1.37c.298-.246.723-.233 1.038-.008A.934.934 0 0 0 4.686.755c.063-.381.355-.691.74-.728a6.074 6.074 0 0 1 1.148 0c.385.037.677.347.74.728a.934.934 0 0 0 1.465.607c.315-.225.74-.238 1.038.008.296.245.568.517.813.813.246.298.233.723.008 1.038a.934.934 0 0 0 .607 1.465c.381.063.691.355.728.74a6.09 6.09 0 0 1 0 1.148c-.037.385-.347.677-.728.74a.934.934 0 0 0-.607 1.465c.225.315.238.74-.008 1.038a6.038 6.038 0 0 1-.813.813c-.298.246-.723.233-1.038.008a.934.934 0 0 0-1.465.607c-.063.381-.355.691-.74.728a6.09 6.09 0 0 1-1.148 0c-.385-.037-.677-.347-.74-.728a.934.934 0 0 0-1.465-.607c-.315.225-.74.238-1.038-.008a6.036 6.036 0 0 1-.813-.813c-.246-.298-.233-.723-.008-1.038a.934.934 0 0 0-.607-1.465c-.381-.063-.691-.355-.728-.74a6.074 6.074 0 0 1 0-1.148c.037-.385.347-.677.728-.74a.934.934 0 0 0 .607-1.465c-.225-.315-.238-.74.008-1.038.245-.296.517-.568.813-.813ZM5.497.774a5.324 5.324 0 0 1 1.006 0c.006 0 .016.002.03.016a.164.164 0 0 1 .041.088 1.684 1.684 0 0 0 2.641 1.094.164.164 0 0 1 .092-.032c.02 0 .028.005.032.009.26.214.498.452.712.711.004.005.01.013.01.033a.164.164 0 0 1-.033.092 1.684 1.684 0 0 0 1.094 2.64.164.164 0 0 1 .088.042c.014.014.016.024.016.03a5.328 5.328 0 0 1 0 1.006c0 .006-.002.016-.017.03a.164.164 0 0 1-.087.041 1.684 1.684 0 0 0-1.094 2.641.164.164 0 0 1 .032.092c0 .02-.005.028-.009.032-.214.26-.452.498-.712.712-.004.004-.012.01-.032.01a.164.164 0 0 1-.092-.033 1.684 1.684 0 0 0-2.64 1.094.164.164 0 0 1-.042.088c-.014.014-.024.016-.03.016a5.328 5.328 0 0 1-1.006 0c-.006 0-.016-.002-.03-.017a.164.164 0 0 1-.041-.087 1.684 1.684 0 0 0-2.641-1.094.164.164 0 0 1-.092.032c-.02 0-.028-.005-.033-.009a5.288 5.288 0 0 1-.711-.712c-.004-.004-.01-.012-.01-.032 0-.024.009-.058.033-.092a1.684 1.684 0 0 0-1.094-2.64.164.164 0 0 1-.088-.042c-.014-.014-.016-.024-.016-.03a5.323 5.323 0 0 1 0-1.006c0-.006.002-.016.016-.03a.164.164 0 0 1 .088-.041 1.684 1.684 0 0 0 1.094-2.641.164.164 0 0 1-.032-.092c0-.02.005-.028.009-.032.214-.26.452-.498.712-.712.004-.004.012-.01.032-.01.024 0 .058.009.092.033A1.684 1.684 0 0 0 5.425.878.164.164 0 0 1 5.468.79c.014-.014.024-.016.03-.016Z" clip-rule="evenodd"/></svg>