<svg xmlns="http://www.w3.org/2000/svg" fill="none" viewBox="0 0 12 12"><path fill="#0E1011" fill-rule="evenodd" d="M4.477 1.25c-.678 0-1.227.55-1.227 1.227V2.5c0 .228.06.441.167.625H1.5a1.375 1.375 0 0 0-.375 2.698V9c0 1.036.84 1.875 1.875 1.875h6c1.036 0 1.875-.84 1.875-1.875V5.823a1.376 1.376 0 0 0-.375-2.698H8.583c.106-.184.167-.397.167-.625v-.023a1.227 1.227 0 0 0-2.248-.68L6 2.548l-.502-.753a1.227 1.227 0 0 0-1.02-.546ZM5.75 3.875H1.5a.625.625 0 1 0 0 1.25h4.25v-1.25Zm.5 1.25v-1.25h4.25a.625.625 0 1 1 0 1.25H6.25Zm-.5.75H1.875V9c0 .621.504 1.125 1.125 1.125h2.75v-4.25Zm.5 4.25v-4.25h3.875V9c0 .621-.504 1.125-1.125 1.125H6.25Zm1.665-7A.75.75 0 0 0 8.25 2.5v-.023a.727.727 0 0 0-1.332-.403L6.25 3.076v.049h1.665Zm-2.165 0v-.05l-.668-1.001a.727.727 0 0 0-1.332.403V2.5c0 .26.133.49.335.625H5.75Z" clip-rule="evenodd"/></svg>