<svg xmlns="http://www.w3.org/2000/svg" fill="none" viewBox="0 0 16 16"><path fill="#0E1011" fill-rule="evenodd" d="M2 2a2 2 0 0 1 2-2h5.707L14 4.293v3.963A4.5 4.5 0 0 0 9.671 16H4a2 2 0 0 1-2-2V2Zm8 0a.5.5 0 0 0-1 0v1.5A1.5 1.5 0 0 0 10.5 5H12a.5.5 0 0 0 0-1h-1.5a.5.5 0 0 1-.5-.5V2Z" clip-rule="evenodd"/><path fill="#0E1011" fill-rule="evenodd" d="M16 12.5a3.5 3.5 0 1 1-7 0 3.5 3.5 0 0 1 7 0ZM12.5 10a.5.5 0 0 1 .5.5V12h1.5a.5.5 0 0 1 0 1H13v1.75a.5.5 0 0 1-1 0V13h-1.5a.5.5 0 0 1 0-1H12v-1.5a.5.5 0 0 1 .5-.5Z" clip-rule="evenodd"/></svg>