<svg xmlns="http://www.w3.org/2000/svg" fill="none" viewBox="0 0 12 12"><path fill="#0E1011" fill-rule="evenodd" d="M5.5.125c-1.423 0-2.699.095-3.628.274C1.41.487 1.012.6.718.746a1.356 1.356 0 0 0-.393.277c-.111.119-.2.28-.2.477V5c0 .104.018.2.05.291l-.05.049v3.535c0 .38.247.682.531.9.293.226.697.42 1.167.579.944.318 2.236.521 3.677.521a.375.375 0 0 0 0-.75c-1.38 0-2.587-.195-3.438-.482-.427-.144-.745-.305-.948-.462C.9 9.018.875 8.91.875 8.875V6.023c.266.154.593.286.959.397.942.285 2.23.455 3.666.455s2.724-.17 3.666-.455c.47-.142.873-.319 1.169-.532.288-.208.54-.503.54-.888V1.5a.697.697 0 0 0-.2-.477 1.356 1.356 0 0 0-.393-.277C9.989.6 9.59.487 9.128.399 8.2.22 6.923.125 5.5.125ZM1.05 1.582A.875.875 0 0 1 .914 1.5a.875.875 0 0 1 .138-.082c.204-.101.526-.199.962-.283C2.878.97 4.103.875 5.5.875c1.398 0 2.622.094 3.487.26.436.084.758.182.962.283.064.031.108.06.138.082a.878.878 0 0 1-.138.082c-.204.101-.526.199-.962.283-.865.166-2.09.26-3.487.26-1.398 0-2.622-.094-3.487-.26-.436-.084-.758-.182-.962-.283Zm9.075.743a5.345 5.345 0 0 1-.997.276c-.929.179-2.205.274-3.628.274s-2.699-.095-3.628-.274a5.345 5.345 0 0 1-.997-.276V5c0 .03.02.129.23.28.2.145.517.292.946.422.853.258 2.064.423 3.449.423 1.385 0 2.596-.165 3.45-.423.428-.13.745-.277.946-.422.209-.151.229-.25.229-.28V2.325Z" clip-rule="evenodd"/><path fill="#0E1011" fill-rule="evenodd" d="M12 9.5a2.5 2.5 0 1 1-5 0 2.5 2.5 0 0 1 5 0ZM9.5 7.6c.22 0 .4.18.4.4v1.1H11a.4.4 0 0 1 0 .8H9.9V11a.4.4 0 0 1-.8 0V9.9H8a.4.4 0 0 1 0-.8h1.1V8c0-.22.18-.4.4-.4Z" clip-rule="evenodd"/></svg>