<svg xmlns="http://www.w3.org/2000/svg" fill="none" viewBox="0 0 16 16"><path fill="#0E1011" fill-rule="evenodd" d="M1.104.396a.5.5 0 1 0-.708.708l1.046 1.045A2.25 2.25 0 0 0 0 4.25v7.5A2.25 2.25 0 0 0 2.25 14h11.043l1.603 1.604a.5.5 0 0 0 .708-.708L1.104.396Zm9.349 10.764-.715-.715a3 3 0 0 1-4.184-4.184l-.714-.714a4 4 0 0 0 5.613 5.613M6.118 6.826a1.866 1.866 0 0 0-.243.924V8h.75v-.25c0-.126.02-.246.059-.36l-.566-.564" clip-rule="evenodd"/><path fill="#0E1011" d="M16 11.75c0 .364-.086.707-.24 1.01L11.9 8.9a4 4 0 0 0-4.797-4.797L4.645 1.645 5 1.293A1 1 0 0 1 5.707 1h4.586a1 1 0 0 1 .707.293l.707.707h2.043A2.25 2.25 0 0 1 16 4.25z"/><path fill="#0E1011" d="M11 8a3 3 0 0 0-3-3z"/></svg>