<svg xmlns="http://www.w3.org/2000/svg" fill="none" viewBox="0 0 16 16"><path fill="#0E1011" fill-rule="evenodd" d="M7.691 2.038A.5.5 0 0 1 8 2.5v11a.5.5 0 0 1-.854.354L4.293 11H1.25C.56 11 0 10.44 0 9.75v-3.5C0 5.56.56 5 1.25 5h3.043l2.853-2.854a.5.5 0 0 1 .545-.108M7 3.708 4.854 5.853A.5.5 0 0 1 4.5 6H1.25a.25.25 0 0 0-.25.25v3.5c0 .138.112.25.25.25H4.5a.5.5 0 0 1 .354.146L7 12.294V3.707Zm3.146 6.438a3.035 3.035 0 0 0 0-4.292l.708-.708a4.036 4.036 0 0 1 0 5.708l-.708-.707" clip-rule="evenodd"/><path fill="#0E1011" d="M4.854 5.854 7 3.707v8.586l-2.146-2.146A.5.5 0 0 0 4.5 10H1.25A.25.25 0 0 1 1 9.75v-3.5A.25.25 0 0 1 1.25 6H4.5a.5.5 0 0 0 .354-.146"/></svg>