<svg xmlns="http://www.w3.org/2000/svg" width="13" fill="none" viewBox="0 0 13 12"><path fill="#0E1011" d="M.375 9a.375.375 0 1 1 0-.75h1.473a1.5 1.5 0 0 0 1.061-.44l.95-.95a.375.375 0 1 1 .531.53l-.95.951A2.25 2.25 0 0 1 1.847 9H.375ZM6.64 5.14a.375.375 0 0 1-.53-.53l.95-.951A2.25 2.25 0 0 1 8.653 3h2.068l-.86-.86a.375.375 0 0 1 .53-.53l1.765 1.765L10.39 5.14a.375.375 0 0 1-.53-.53l.86-.86H8.652a1.5 1.5 0 0 0-1.061.44l-.95.95Z"/><path fill="#0E1011" d="M.375 3a.375.375 0 1 0 0 .75h1.473a1.5 1.5 0 0 1 1.061.44L7.061 8.34A2.25 2.25 0 0 0 8.65 9h2.069l-.86.86a.375.375 0 0 0 .53.53l1.765-1.765L10.39 6.86a.375.375 0 0 0-.53.53l.86.86H8.652a1.5 1.5 0 0 1-1.061-.44L3.439 3.66A2.25 2.25 0 0 0 1.85 3H.374Z"/></svg>