<svg xmlns="http://www.w3.org/2000/svg" fill="none" viewBox="0 0 16 16"><path fill="#0E1011" fill-rule="evenodd" d="M6 1a1 1 0 0 0-1 1v1H2a2 2 0 0 0-2 2v7a2 2 0 0 0 2 2h12a2 2 0 0 0 2-2V5a2 2 0 0 0-2-2h-3V2a1 1 0 0 0-1-1zm4 2H6V2h4zM1 5a1 1 0 0 1 1-1h12a1 1 0 0 1 1 1v2.125H1zm0 2.875V12a1 1 0 0 0 1 1h12a1 1 0 0 0 1-1V7.875h-4.875V8.5c0 .76-.616 1.375-1.375 1.375h-1.5c-.76 0-1.375-.616-1.375-1.375v-.625zm5.625.625v-.625h2.75V8.5c0 .345-.28.625-.625.625h-1.5a.625.625 0 0 1-.625-.625" clip-rule="evenodd"/></svg>