<svg xmlns="http://www.w3.org/2000/svg" fill="none" viewBox="0 0 16 16"><path fill="#0E1011" d="M4.5 4a.5.5 0 0 0-.5.5v7a.5.5 0 0 0 .5.5h2a.5.5 0 0 0 .5-.5v-7a.5.5 0 0 0-.5-.5h-2ZM9.5 4a.5.5 0 0 0-.5.5v4a.5.5 0 0 0 .5.5h2a.5.5 0 0 0 .5-.5v-4a.5.5 0 0 0-.5-.5h-2Z"/><path fill="#0E1011" fill-rule="evenodd" d="M1 3.5A2.5 2.5 0 0 1 3.5 1h9A2.5 2.5 0 0 1 15 3.5v9a2.5 2.5 0 0 1-2.5 2.5h-9A2.5 2.5 0 0 1 1 12.5v-9ZM3.5 2h9A1.5 1.5 0 0 1 14 3.5v9a1.5 1.5 0 0 1-1.5 1.5h-9A1.5 1.5 0 0 1 2 12.5v-9A1.5 1.5 0 0 1 3.5 2Z" clip-rule="evenodd"/></svg>