<svg xmlns="http://www.w3.org/2000/svg" fill="none" viewBox="0 0 12 12"><path fill="#0E1011" fill-rule="evenodd" d="M4.5 1.875a2.625 2.625 0 1 0 0 5.25 2.625 2.625 0 0 0 0-5.25ZM2.625 4.5a1.875 1.875 0 1 1 3.75 0 1.875 1.875 0 0 1-3.75 0ZM2.03 7.5h.595l1.179.471c.447.18.945.18 1.392 0L6.375 7.5h.595c.945 0 1.743.704 1.86 1.642l.106.848A5.985 5.985 0 0 1 4.455 12c-1.74 0-3.306-.74-4.402-1.923l.117-.935A1.875 1.875 0 0 1 2.03 7.5Zm2.425 3.75A5.23 5.23 0 0 1 .842 9.81l.072-.575c.07-.563.549-.985 1.116-.985h.45l1.045.418c.626.25 1.324.25 1.95 0l1.044-.418h.45c.568 0 1.047.422 1.117.985l.062.496a5.231 5.231 0 0 1-3.693 1.519Z" clip-rule="evenodd"/><path fill="#0E1011" d="M6.743.787a1.969 1.969 0 1 1 1.32 3.708.281.281 0 1 0 .175.535A2.531 2.531 0 1 0 5.594.9a.281.281 0 0 0 .412.384c.205-.22.457-.39.737-.497ZM9.114 5.719l-1.126.41c-.159.057-.327.089-.496.094a.281.281 0 1 0 .016.562c.228-.006.456-.049.673-.128l1.032-.376h.495c.746 0 1.34.503 1.425 1.126l.078.567c-.44.426-.967.778-1.556 1.034a.281.281 0 1 0 .224.516 5.779 5.779 0 0 0 1.83-1.253l.097-.098-.116-.843c-.129-.94-.996-1.611-1.982-1.611h-.594Z"/></svg>