<svg xmlns="http://www.w3.org/2000/svg" fill="none" viewBox="0 0 16 16"><path fill="#0E1011" fill-rule="evenodd" d="M1.104.396a.5.5 0 1 0-.708.708l1.046 1.045A2.25 2.25 0 0 0 0 4.25v7.5A2.25 2.25 0 0 0 2.25 14h11.043l1.603 1.604a.5.5 0 0 0 .708-.708L1.104.396ZM2.25 3h.043l2.636 2.636a3.875 3.875 0 0 0 5.435 5.434L12.293 13H2.25C1.56 13 1 12.44 1 11.75v-7.5C1 3.56 1.56 3 2.25 3m7.578 7.535L5.465 6.172a3.125 3.125 0 0 0 4.363 4.363" clip-rule="evenodd"/><path fill="#0E1011" d="M5.707 1A1 1 0 0 0 5 1.293l-.354.353a.5.5 0 1 0 .708.708L5.707 2h4.586l.707.707a1 1 0 0 0 .707.293h2.043c.69 0 1.25.56 1.25 1.25v7.5c0 .16-.03.312-.084.452a.5.5 0 0 0 .932.361c.098-.253.152-.527.152-.813v-7.5A2.25 2.25 0 0 0 13.75 2h-2.043L11 1.293A1 1 0 0 0 10.293 1H5.707"/><path fill="#0E1011" d="M7.58 4.903a3.125 3.125 0 0 1 3.516 3.516.375.375 0 1 0 .745.1 3.875 3.875 0 0 0-4.36-4.36.375.375 0 0 0 .1.744"/></svg>