<svg xmlns="http://www.w3.org/2000/svg" fill="none" viewBox="0 0 16 16"><path fill="#0E1011" d="M9.897.253a.5.5 0 0 0-.11.994 5.5 5.5 0 0 1 4.858 4.852.5.5 0 0 0 .994-.111A6.5 6.5 0 0 0 9.897.253ZM9.938 2.926a.5.5 0 1 0-.192.981 2.834 2.834 0 0 1 2.239 2.239.5.5 0 1 0 .981-.192 3.834 3.834 0 0 0-3.028-3.028Z"/><path fill="#0E1011" fill-rule="evenodd" d="M3.27 9.297c-1.1-1.61-1.849-4.03-2.138-6.303C.993 1.898 1.895 1 3 1h2.6c.552 0 1 .448 1.049.998.085.972.28 2.113.568 2.885.074.2.038.43-.113.581l-.856.856a.483.483 0 0 0-.073.6A9.382 9.382 0 0 0 9.24 9.922c.19.116.434.08.591-.077l.877-.878a.549.549 0 0 1 .57-.118c.73.253 1.805.425 2.724.503.55.046.998.495.998 1.047V13c0 1.105-.898 2.007-1.994 1.868-2.216-.279-4.579-.993-6.157-2.04a13.14 13.14 0 0 1-3.578-3.531Zm2.27-3.684a1.483 1.483 0 0 0-.21 1.841 10.381 10.381 0 0 0 3.392 3.325c.605.366 1.35.24 1.816-.226l.673-.674c.815.244 1.85.398 2.706.47.03.003.055.016.071.033.008.008.01.013.011.015L14 10.4V13c0 .587-.451.929-.869.876-2.127-.268-4.324-.949-5.729-1.882a12.138 12.138 0 0 1-3.305-3.261C3.116 7.298 2.4 5.048 2.124 2.868 2.071 2.451 2.413 2 3 2h2.603c.002.001.008.004.015.012a.119.119 0 0 1 .034.074c.08.912.256 2.015.535 2.88l-.646.647Z" clip-rule="evenodd"/></svg>