<svg xmlns="http://www.w3.org/2000/svg" fill="none" viewBox="0 0 12 12"><path fill="#0E1011" fill-rule="evenodd" d="M3.25.125a1.875 1.875 0 0 0-.125 3.746V8.5a.375.375 0 1 0 .75 0V5.384c.173.13.37.231.586.296l2.862.858c.476.143.802.581.802 1.078v.513a1.875 1.875 0 0 0 .125 3.746h.5a1.875 1.875 0 0 0 .125-3.746v-.513c0-.828-.543-1.558-1.336-1.796l-2.862-.858a1.125 1.125 0 0 1-.802-1.078v-.013A1.875 1.875 0 0 0 3.75.125h-.5Zm5 8.75a1.125 1.125 0 0 0 0 2.25h.5a1.125 1.125 0 0 0 0-2.25h-.5ZM2.125 2c0-.621.504-1.125 1.125-1.125h.5a1.125 1.125 0 0 1 0 2.25h-.5A1.125 1.125 0 0 1 2.125 2Z" clip-rule="evenodd"/><path fill="#0E1011" d="M3.875 10.5a.375.375 0 0 0-.75 0v1a.375.375 0 0 0 .75 0v-1Z"/></svg>