<svg xmlns="http://www.w3.org/2000/svg" fill="none" viewBox="0 0 12 12"><path fill="#0E1011" d="M8.625 4.125a.75.75 0 1 0 0-1.5.75.75 0 0 0 0 1.5Z"/><path fill="#0E1011" fill-rule="evenodd" d="M8.063 0a3.938 3.938 0 0 0-3.804 4.96L0 9.22V12h2.625a.75.75 0 0 0 .75-.75v-.375h.375a.75.75 0 0 0 .75-.75V9.75h.375a.75.75 0 0 0 .75-.75v-.595l.86-.86A3.938 3.938 0 1 0 8.062 0ZM4.874 3.938A3.187 3.187 0 1 1 6.582 6.76l-.245-.129-1.462 1.463V9H3.75v1.125H2.625v1.125H.75V9.53l4.362-4.362-.073-.22a3.184 3.184 0 0 1-.164-1.01Z" clip-rule="evenodd"/></svg>