<svg xmlns="http://www.w3.org/2000/svg" fill="none" viewBox="0 0 16 16"><path fill="#0E1011" fill-rule="evenodd" d="M11 6a3 3 0 1 1-6 0 3 3 0 0 1 6 0m-1 0a2 2 0 1 1-4 0 2 2 0 0 1 4 0" clip-rule="evenodd"/><path fill="#0E1011" fill-rule="evenodd" d="M15.294 8A7.3 7.3 0 1 1 .695 8a7.3 7.3 0 0 1 14.6 0m-3.326 4.889a6.273 6.273 0 0 1-3.973 1.41 6.273 6.273 0 0 1-3.964-1.403l.218-1.092A1 1 0 0 1 5.23 11h.535a.5.5 0 0 1 .224.053l.447.223a3.5 3.5 0 0 0 3.13 0l.447-.223a.5.5 0 0 1 .224-.053h.534a1 1 0 0 1 .98.804l.218 1.085m.852-.839-.088-.442A2 2 0 0 0 10.77 10h-.534a1.5 1.5 0 0 0-.67.159l-.448.223a2.5 2.5 0 0 1-2.236 0l-.447-.223A1.5 1.5 0 0 0 5.764 10H5.23a2 2 0 0 0-1.961 1.608l-.09.452a6.3 6.3 0 1 1 9.642-.01" clip-rule="evenodd"/></svg>