<svg xmlns="http://www.w3.org/2000/svg" fill="none" viewBox="0 0 12 12"><path fill="#0E1011" fill-rule="evenodd" d="M10.5.628V8.25A1.5 1.5 0 0 1 9 9.75h-.75a1.5 1.5 0 0 1 0-3h1.5V1.622L5.522 2.83a.375.375 0 0 0-.272.36v6.56a1.5 1.5 0 0 1-1.5 1.5H3a1.5 1.5 0 0 1 0-3h1.5V3.19c0-.502.333-.943.816-1.081L10.5.628ZM4.5 9H3a.75.75 0 1 0 0 1.5h.75a.75.75 0 0 0 .75-.75V9Zm5.25-1.5h-1.5a.75.75 0 1 0 0 1.5H9a.75.75 0 0 0 .75-.75V7.5Z" clip-rule="evenodd"/><path fill="#0E1011" d="M3 9h1.5v.75a.75.75 0 0 1-.75.75H3A.75.75 0 0 1 3 9ZM8.25 7.5h1.5v.75A.75.75 0 0 1 9 9h-.75a.75.75 0 0 1 0-1.5Z"/></svg>