<svg xmlns="http://www.w3.org/2000/svg" fill="none" viewBox="0 0 12 12"><path fill="#0E1011" fill-rule="evenodd" d="M9.5 12a1.5 1.5 0 0 0 1.5-1.5V3.187L7.812 0H2.5A1.5 1.5 0 0 0 1 1.5v9A1.5 1.5 0 0 0 2.5 12h7ZM7.625 1.125c.207 0 .375.168.375.375v1.125c0 .207.168.375.375.375H9.5a.375.375 0 1 1 0 .75H8.375A1.125 1.125 0 0 1 7.25 2.625V1.5c0-.207.168-.375.375-.375Zm-5.031 3.75c0-.155.126-.281.281-.281h3.25a.281.281 0 0 1 0 .562h-3.25a.281.281 0 0 1-.281-.281Zm0 1.5c0-.155.126-.281.281-.281h6.25a.281.281 0 0 1 0 .562h-6.25a.281.281 0 0 1-.281-.281Zm0 1.5c0-.155.126-.281.281-.281h6.25a.281.281 0 0 1 0 .562h-6.25a.281.281 0 0 1-.281-.281Zm0 1.5c0-.155.126-.281.281-.281h4.75a.281.281 0 0 1 0 .562h-4.75a.281.281 0 0 1-.281-.281Z" clip-rule="evenodd"/></svg>