<svg xmlns="http://www.w3.org/2000/svg" fill="none" viewBox="0 0 12 12"><path fill="#0E1011" d="M1.875 3.75a.375.375 0 1 0 0 .75h.375A3.75 3.75 0 0 1 6 8.25v.375a.375.375 0 1 0 .75 0V8.25a4.5 4.5 0 0 0-4.5-4.5h-.375Z"/><path fill="#0E1011" d="M1.875 6a.375.375 0 1 0 0 .75h.375a1.5 1.5 0 0 1 1.5 1.5v.375a.375.375 0 1 0 .75 0V8.25A2.25 2.25 0 0 0 2.25 6h-.375Z"/><path fill="#0E1011" fill-rule="evenodd" d="M1.688 1.25C.755 1.25 0 2.006 0 2.938v6.124c0 .932.756 1.688 1.688 1.688h8.624c.933 0 1.688-.756 1.688-1.688V2.939c0-.932-.755-1.688-1.688-1.688H1.688ZM.75 2.938c0-.518.42-.938.938-.938h8.624c.518 0 .938.42.938.938v6.124c0 .518-.42.938-.938.938H1.688a.937.937 0 0 1-.938-.938V2.939Z" clip-rule="evenodd"/></svg>