<svg xmlns="http://www.w3.org/2000/svg" fill="none" viewBox="0 0 12 12"><path fill="#0E1011" fill-rule="evenodd" d="M2.637 1.323C3.51 1.121 4.699 1 6 1c1.3 0 2.49.121 3.363.323.434.1.81.224 1.086.375.138.075.268.166.367.278a.682.682 0 0 1 .184.453c0 .064-.01.125-.027.181l.027.028v3.005a.85.85 0 0 1-.126.44L11 6.21v3.005c0 .367-.24.648-.512.845-.28.204-.66.372-1.1.507C8.505 10.837 7.308 11 6 11c-1.308 0-2.505-.163-3.388-.434-.44-.135-.82-.304-1.1-.507C1.24 9.862 1 9.581 1 9.214V6.21l.126-.125A.85.85 0 0 1 1 5.643V2.638l.027-.028A.615.615 0 0 1 1 2.43c0-.186.083-.34.184-.453.1-.112.23-.203.367-.278.276-.15.652-.275 1.086-.375ZM1.74 2.429a.8.8 0 0 0 .153.103c.194.106.498.212.904.306.807.186 1.94.305 3.203.305s2.396-.119 3.203-.305c.406-.094.71-.2.904-.306a.797.797 0 0 0 .153-.103.797.797 0 0 0-.153-.104c-.194-.106-.498-.212-.904-.306-.807-.186-1.94-.305-3.203-.305s-2.396.119-3.203.305c-.406.094-.71.2-.904.306a.8.8 0 0 0-.153.104Zm-.026 4.19v2.595c0 .029.02.123.218.268.19.138.489.278.89.401.798.246 1.921.403 3.178.403s2.38-.157 3.178-.403c.401-.123.7-.263.89-.401.198-.145.218-.24.218-.268V6.62c-.25.146-.557.27-.898.375-.883.272-2.08.435-3.388.435-1.308 0-2.505-.163-3.388-.435a4.356 4.356 0 0 1-.898-.375Zm7.65-3.085c.353-.081.668-.179.922-.294v2.403c0 .028-.02.123-.218.267-.19.139-.489.278-.89.402-.798.245-1.921.402-3.178.402s-2.38-.157-3.178-.402c-.401-.124-.7-.263-.89-.402-.198-.144-.218-.239-.218-.267V3.24c.254.115.57.213.923.294.873.202 2.062.323 3.363.323 1.3 0 2.49-.121 3.363-.323Z" clip-rule="evenodd"/></svg>