<svg xmlns="http://www.w3.org/2000/svg" fill="none" viewBox="0 0 16 16"><path fill="#0E1011" d="M3.886 1.69a.5.5 0 0 1-.099.7 7 7 0 0 0 .198 11.325.5.5 0 0 1-.574.819 8 8 0 0 1-.226-12.942.5.5 0 0 1 .7.098M12.114 1.69a.5.5 0 0 0 .099.7 7 7 0 0 1-.198 11.325.5.5 0 0 0 .574.819 8 8 0 0 0 .226-12.942.5.5 0 0 0-.7.098"/><path fill="#0E1011" d="M5.593 4.805a.5.5 0 1 0-.602-.798 5 5 0 0 0 .141 8.089.5.5 0 0 0 .574-.82 4 4 0 0 1-.113-6.47M10.309 4.105a.5.5 0 0 0 .098.7 4 4 0 0 1-.113 6.472.5.5 0 0 0 .574.819 5 5 0 0 0 .141-8.09.5.5 0 0 0-.7.1"/><path fill="#0E1011" fill-rule="evenodd" d="M10 8a2 2 0 1 1-4 0 2 2 0 0 1 4 0M9 8a1 1 0 1 1-2 0 1 1 0 0 1 2 0" clip-rule="evenodd"/></svg>