<svg xmlns="http://www.w3.org/2000/svg" fill="none" viewBox="0 0 16 16"><path fill="#0E1011" fill-rule="evenodd" d="M15.294 8A7.3 7.3 0 1 1 .695 8a7.3 7.3 0 0 1 14.6 0Zm-4.369 5.578a6.272 6.272 0 0 1-2.93.722c-1.056 0-2.05-.26-2.924-.719l2.165-2.164a3.513 3.513 0 0 0 1.528 0l2.162 2.16Zm.66-.401c.62-.431 1.16-.971 1.59-1.592L11.14 9.549c-.34.69-.901 1.25-1.59 1.591l2.036 2.037Zm1.99-2.252A6.272 6.272 0 0 0 14.296 8c0-1.055-.26-2.05-.719-2.924l-2.16 2.16a3.513 3.513 0 0 1 0 1.53l2.16 2.159Zm-.4-6.51a6.334 6.334 0 0 0-1.59-1.591L9.55 4.86c.69.34 1.25.901 1.59 1.59l2.037-2.035Zm-2.249-1.992L8.765 4.584a3.512 3.512 0 0 0-1.53 0L5.07 2.42a6.272 6.272 0 0 1 2.925-.718c1.058 0 2.056.26 2.931.722Zm-6.516.396c-.621.43-1.16.97-1.592 1.59L4.86 6.453c.34-.69.902-1.25 1.591-1.591L4.41 2.819ZM2.417 5.07A6.272 6.272 0 0 0 1.695 8c0 1.058.261 2.056.722 2.931l2.167-2.166a3.512 3.512 0 0 1 0-1.529L2.417 5.069Zm.401 6.522c.432.62.972 1.16 1.592 1.59l2.042-2.041A3.515 3.515 0 0 1 4.86 9.55L2.817 11.59ZM8 5.501a2.5 2.5 0 1 0 0 5 2.5 2.5 0 0 0 0-5Z" clip-rule="evenodd"/></svg>