<svg xmlns="http://www.w3.org/2000/svg" fill="none" viewBox="0 0 12 12"><path fill="#0E1011" fill-rule="evenodd" d="M4.845 2.25a2.25 2.25 0 0 0-1.506.578L.124 5.72a.375.375 0 0 0 0 .558L3.34 9.172c.413.372.95.578 1.506.578h5.468c.931 0 1.687-.756 1.687-1.688V3.939c0-.932-.755-1.688-1.688-1.688H4.846Zm1.42 1.985a.375.375 0 1 0-.53.53L6.97 6 5.735 7.235a.375.375 0 1 0 .53.53L7.5 6.53l1.235 1.235a.375.375 0 0 0 .53-.53L8.03 6l1.235-1.235a.375.375 0 1 0-.53-.53L7.5 5.47 6.265 4.235Z" clip-rule="evenodd"/></svg>