<svg xmlns="http://www.w3.org/2000/svg" fill="none" viewBox="0 0 16 16"><path fill="#0E1011" fill-rule="evenodd" d="M6 3.5C6 1.567 7.067 0 9 0h2.75a.75.75 0 0 1 .75.75v2a.75.75 0 0 1-.75.75H10a.5.5 0 0 0-.5.5v2h2.153a.75.75 0 0 1 .712.987l-.834 2a.75.75 0 0 1-.711.513H9.5v5.75a.75.75 0 0 1-.75.75h-2a.75.75 0 0 1-.75-.75V9.5H4.75A.75.75 0 0 1 4 8.75v-2A.75.75 0 0 1 4.75 6H6V3.5ZM9 1C7.62 1 7 2.12 7 3.5V7H5v1.5h2V15h1.5V8.5h2.14l.666-1.5H8.5V4A1.5 1.5 0 0 1 10 2.5h1.5V1H9Z" clip-rule="evenodd"/><path fill="#0E1011" d="M7 3.5C7 2.12 7.62 1 9 1h2.5v1.5H10A1.5 1.5 0 0 0 8.5 4v3h2.806l-.666 1.5H8.5V15H7V8.5H5V7h2V3.5Z"/></svg>