<svg xmlns="http://www.w3.org/2000/svg" fill="none" viewBox="0 0 16 16"><path fill="#0E1011" fill-rule="evenodd" d="M13.268 1.721a2.511 2.511 0 0 0-3.536 0l-7.05 7.007a3.463 3.463 0 0 0 0 4.919l.343.34a3.516 3.516 0 0 0 4.95 0l5.429-5.394.707.702-5.429 5.395a4.52 4.52 0 0 1-6.364 0l-.343-.34a4.452 4.452 0 0 1 0-6.325l7.05-7.006a3.516 3.516 0 0 1 4.95 0 3.463 3.463 0 0 1 0 4.919l-6.749 6.706c-.949.944-2.499.908-3.403-.078a2.328 2.328 0 0 1 .075-3.23l5.506-5.471.707.703-5.506 5.471a1.34 1.34 0 0 0-.043 1.857 1.36 1.36 0 0 0 1.957.045l6.749-6.706a2.473 2.473 0 0 0 0-3.514Z" clip-rule="evenodd"/></svg>