<svg xmlns="http://www.w3.org/2000/svg" fill="none" viewBox="0 0 12 12"><path fill="#0E1011" d="M3 .5a.375.375 0 1 0-.75 0v2.125a.375.375 0 1 0 .75 0V.5ZM5 .5a.375.375 0 1 0-.75 0v2.125a.375.375 0 1 0 .75 0V.5ZM7 .5a.375.375 0 1 0-.75 0v2.125a.375.375 0 1 0 .75 0V.5Z"/><path fill="#0E1011" fill-rule="evenodd" d="m11.17 8.146-1.42.46v.144A2.25 2.25 0 0 1 7.5 11H2.25A2.25 2.25 0 0 1 0 8.75v-3a1.5 1.5 0 0 1 1.5-1.5h9a1.5 1.5 0 0 1 1.5 1.5v1.055a1.5 1.5 0 0 1-.83 1.341ZM.75 5.75A.75.75 0 0 1 1.5 5H9v3.75a1.5 1.5 0 0 1-1.5 1.5H2.25a1.5 1.5 0 0 1-1.5-1.5v-3Zm9 2.268V5h.75a.75.75 0 0 1 .75.75v1.055a.75.75 0 0 1-.415.67l-1.085.543Z" clip-rule="evenodd"/></svg>