<svg xmlns="http://www.w3.org/2000/svg" fill="none" viewBox="0 0 12 12"><path fill="#0E1011" fill-rule="evenodd" d="M1 2.5A1.5 1.5 0 0 1 2.5 1h1A1.5 1.5 0 0 1 5 2.5v7A1.5 1.5 0 0 1 3.5 11h-1A1.5 1.5 0 0 1 1 9.5v-7ZM2.5 2h1a.5.5 0 0 1 .5.5v7a.5.5 0 0 1-.5.5h-1a.5.5 0 0 1-.5-.5v-7a.5.5 0 0 1 .5-.5ZM7 2.5A1.5 1.5 0 0 1 8.5 1h1A1.5 1.5 0 0 1 11 2.5v7A1.5 1.5 0 0 1 9.5 11h-1A1.5 1.5 0 0 1 7 9.5v-7ZM8.5 2h1a.5.5 0 0 1 .5.5v7a.5.5 0 0 1-.5.5h-1a.5.5 0 0 1-.5-.5v-7a.5.5 0 0 1 .5-.5Z" clip-rule="evenodd"/></svg>