<svg xmlns="http://www.w3.org/2000/svg" fill="none" viewBox="0 0 12 12"><path fill="#0E1011" fill-rule="evenodd" d="M3.32 1c-.568 0-1.087.357-1.341.921L.119 6.054a1.365 1.365 0 0 0-.119.56v2.303C0 10.067.84 11 1.875 11h8.25C11.161 11 12 10.067 12 8.917V6.613c0-.194-.04-.385-.119-.559l-1.86-4.133C9.767 1.357 9.248 1 8.68 1H3.32Zm-.67 1.294c.127-.282.386-.46.67-.46h5.36c.284 0 .543.178.67.46l1.809 4.018H7.594v.521c0 .978-.714 1.771-1.594 1.771-.88 0-1.594-.793-1.594-1.77v-.521H.841L2.65 2.293ZM.75 6.937v1.98c0 .69.504 1.25 1.125 1.25h8.25c.621 0 1.125-.56 1.125-1.25v-1.98H8.154C8.105 8.213 7.16 9.23 6 9.23c-1.16 0-2.105-1.017-2.154-2.291H.75Z" clip-rule="evenodd"/></svg>