<svg xmlns="http://www.w3.org/2000/svg" fill="none" viewBox="0 0 16 16"><path fill="#0E1011" fill-rule="evenodd" d="m2.485 11.203-.182.254c-.241.337-.254.791.005 1.114.332.413.708.789 1.12 1.12.323.26.778.247 1.115.006l.254-.182a1 1 0 0 1 1.568.65l.051.309c.068.408.38.739.792.784a7.404 7.404 0 0 0 1.584 0c.412-.045.724-.376.792-.784l.05-.31a1 1 0 0 1 1.569-.649l.254.182c.337.24.792.254 1.114-.005a7.339 7.339 0 0 0 1.12-1.12c.26-.323.247-.778.006-1.115l-.182-.254a1 1 0 0 1 .65-1.568l.309-.051c.408-.068.74-.38.784-.792a7.4 7.4 0 0 0 0-1.584c-.045-.412-.376-.724-.784-.792l-.31-.051a1 1 0 0 1-.649-1.568l.182-.254c.24-.337.254-.792-.005-1.114a7.346 7.346 0 0 0-1.12-1.121c-.323-.26-.778-.246-1.115-.005l-.254.182a1 1 0 0 1-1.568-.65l-.051-.309c-.068-.408-.38-.74-.792-.784a7.382 7.382 0 0 0-1.584 0c-.412.045-.724.376-.792.784l-.051.309a1 1 0 0 1-1.568.65l-.254-.182c-.337-.24-.792-.254-1.114.005a7.344 7.344 0 0 0-1.121 1.12c-.26.323-.246.778-.005 1.115l.182.254a1 1 0 0 1-.65 1.568l-.309.051c-.408.068-.74.38-.784.792a7.382 7.382 0 0 0 0 1.584c.045.412.376.724.784.792l.309.05a1 1 0 0 1 .65 1.569M10 8a2 2 0 1 1-4 0 2 2 0 0 1 4 0" clip-rule="evenodd"/></svg>