<svg xmlns="http://www.w3.org/2000/svg" fill="none" viewBox="0 0 12 12"><path fill="#0E1011" fill-rule="evenodd" d="M5.769 1.529c.14.058.231.194.231.346v8.25a.375.375 0 0 1-.64.265L3.22 8.25H1.5A1.5 1.5 0 0 1 0 6.75v-1.5a1.5 1.5 0 0 1 1.5-1.5h1.72l2.14-2.14a.375.375 0 0 1 .409-.081ZM5.25 2.78 3.53 4.5H1.5a.75.75 0 0 0-.75.75v1.5c0 .414.336.75.75.75h2.03l1.72 1.72V2.78Z" clip-rule="evenodd"/><path fill="#0E1011" d="M.75 5.25a.75.75 0 0 1 .75-.75h2.03l1.72-1.72v6.44L3.53 7.5H1.5a.75.75 0 0 1-.75-.75v-1.5Z"/></svg>