<svg xmlns="http://www.w3.org/2000/svg" fill="none" viewBox="0 0 16 16"><path fill="#0E1011" fill-rule="evenodd" d="M4.15 3.531a1.923 1.923 0 0 1 3.649-1.216L8 2.919l.201-.604A1.923 1.923 0 0 1 11.85 3.53l-.148.443a2.035 2.035 0 0 1-.008.026H14.5A1.5 1.5 0 0 1 16 5.5v1a1.5 1.5 0 0 1-1 1.415V13a2 2 0 0 1-2 2H3a2 2 0 0 1-2-2V7.915A1.5 1.5 0 0 1 0 6.5v-1A1.5 1.5 0 0 1 1.5 4h2.807a1.549 1.549 0 0 1-.01-.026l-.147-.443M5.72 4h1.586L6.85 2.631a.923.923 0 0 0-1.751.584l.147.443A.5.5 0 0 0 5.721 4M7.5 5v2h-6a.5.5 0 0 1-.5-.5v-1a.5.5 0 0 1 .5-.5zm1 2V5h6a.5.5 0 0 1 .5.5v1a.5.5 0 0 1-.5.5zm-1 1H2v5a1 1 0 0 0 1 1h4.5zm1 6V8H14v5a1 1 0 0 1-1 1zm1.78-10a.5.5 0 0 0 .474-.342l.147-.443A.923.923 0 1 0 9.15 2.63L8.694 4h1.585" clip-rule="evenodd"/></svg>