<svg xmlns="http://www.w3.org/2000/svg" fill="none" viewBox="0 0 16 16"><path fill="#0E1011" fill-rule="evenodd" d="M1.81 2a1.94 1.94 0 0 1 .087-.002l6.852-.01V2H10.5A2.5 2.5 0 0 1 13 4.5c.607.456 1 1.182 1 2v2a.5.5 0 0 1-1 0v-2A1.5 1.5 0 0 0 11.5 5H1.78c-.288 0-.555-.08-.78-.218V11.5A1.5 1.5 0 0 0 2.5 13h2a.5.5 0 0 1 0 1h-2A2.5 2.5 0 0 1 0 11.5V3.898a1.9 1.9 0 0 1 .939-1.64C1.18 2.095 1.472 2 1.78 2h.028Zm-.335 1.104A.5.5 0 0 0 1.781 4h10.134A1.5 1.5 0 0 0 10.5 3H1.838a.895.895 0 0 0-.363.104Z" clip-rule="evenodd"/><path fill="#0E1011" d="M11 9a1 1 0 1 1-2 0 1 1 0 0 1 2 0ZM15.854 13.146l-2-2a.5.5 0 0 0-.708.708L14.293 13H7.5a.5.5 0 0 0 0 1h6.793l-1.147 1.146a.5.5 0 0 0 .708.708l2-2a.5.5 0 0 0 0-.708Z"/></svg>