<svg xmlns="http://www.w3.org/2000/svg" fill="none" viewBox="0 0 12 12"><path fill="#0E1011" fill-rule="evenodd" d="M4.688 1a.188.188 0 0 0-.188.188v.375c0 .103.084.187.188.187h2.625a.188.188 0 0 0 .187-.188v-.375A.188.188 0 0 0 7.312 1H4.688Zm-.92 0a.938.938 0 0 1 .92-.75h2.625c.453 0 .831.322.918.75H9.25a1.5 1.5 0 0 1 1.5 1.5v8a1.5 1.5 0 0 1-1.5 1.5h-6.5a1.5 1.5 0 0 1-1.5-1.5v-8A1.5 1.5 0 0 1 2.75 1h1.019Zm0 .75H2.75A.75.75 0 0 0 2 2.5v8c0 .414.336.75.75.75h6.5a.75.75 0 0 0 .75-.75v-8a.75.75 0 0 0-.75-.75H8.231a.938.938 0 0 1-.918.75H4.688a.938.938 0 0 1-.92-.75Z" clip-rule="evenodd"/></svg>