<svg xmlns="http://www.w3.org/2000/svg" fill="none" viewBox="0 0 16 16"><path fill="#0E1011" fill-rule="evenodd" d="M5.33 7.454a1.483 1.483 0 0 1 .21-1.841l.647-.647c-.28-.865-.455-1.968-.535-2.88a.119.119 0 0 0-.034-.074A.055.055 0 0 0 5.603 2L5.6 2H3c-.588 0-.929.451-.876.868.277 2.18.992 4.43 1.972 5.865a12.139 12.139 0 0 0 3.306 3.261c1.405.933 3.602 1.614 5.729 1.882.418.053.869-.289.869-.876v-2.603a.055.055 0 0 0-.012-.015.113.113 0 0 0-.07-.033c-.857-.072-1.892-.226-2.707-.47l-.673.674a1.483 1.483 0 0 1-1.816.226A10.382 10.382 0 0 1 5.33 7.454Zm-4.198-4.46c.289 2.273 1.038 4.693 2.139 6.303a13.138 13.138 0 0 0 3.578 3.53c1.578 1.048 3.94 1.762 6.157 2.041C14.102 15.007 15 14.105 15 13v-2.6c0-.552-.448-1-.998-1.047-.919-.078-1.995-.25-2.725-.503a.549.549 0 0 0-.569.118l-.877.877a.483.483 0 0 1-.591.078A9.382 9.382 0 0 1 6.175 6.92a.483.483 0 0 1 .073-.6l.856-.855a.549.549 0 0 0 .113-.58c-.288-.773-.483-1.914-.568-2.886C6.6 1.448 6.152 1 5.6 1H3c-1.105 0-2.007.898-1.868 1.994Z" clip-rule="evenodd"/></svg>