<svg xmlns="http://www.w3.org/2000/svg" fill="none" viewBox="0 0 12 12"><path fill="#0E1011" d="M1.39.86a.375.375 0 0 0-.53.53l.86.86h-.032C.755 2.25 0 3.006 0 3.938v4.124C0 8.995.756 9.75 1.688 9.75h6.187a.375.375 0 1 0 0-.75H1.687a.937.937 0 0 1-.937-.938V3.939c0-.518.42-.938.938-.938h.782l8.14 8.14a.375.375 0 0 0 .53-.53L1.39.86ZM7.313 2.25H4.874a.375.375 0 1 0 0 .75h2.438c.517 0 .937.42.937.938V6a.375.375 0 0 0 .622.282l2.378-2.08v4.423a.375.375 0 0 0 .75 0v-5.25a.375.375 0 0 0-.622-.282L9 5.173V3.938c0-.931-.756-1.687-1.688-1.687Z"/></svg>