<svg xmlns="http://www.w3.org/2000/svg" fill="none" viewBox="0 0 12 12"><path fill="#0E1011" fill-rule="evenodd" d="M2.75.75A.75.75 0 0 0 2 1.5v9c0 .414.336.75.75.75H6A.375.375 0 0 1 6 12H2.75a1.5 1.5 0 0 1-1.5-1.5v-9A1.5 1.5 0 0 1 2.75 0h4.78l3.22 3.22v2.405a.375.375 0 0 1-.75 0V3.75H8.5A1.5 1.5 0 0 1 7 2.25V.75H2.75Zm5 .53L9.47 3H8.5a.75.75 0 0 1-.75-.75v-.97Z" clip-rule="evenodd"/><path fill="#0E1011" d="M9.875 7.5a.375.375 0 1 0-.75 0v1.625H7.5a.375.375 0 1 0 0 .75h1.625V11.5a.375.375 0 0 0 .75 0V9.875H11.5a.375.375 0 0 0 0-.75H9.875V7.5Z"/></svg>