<svg xmlns="http://www.w3.org/2000/svg" fill="none" viewBox="0 0 16 16"><path fill="#0E1011" fill-rule="evenodd" d="M4.25 14C3.56 14 3 13.44 3 12.75v-5c0-.69.56-1.25 1.25-1.25h.25a.5.5 0 1 0 0-1h-.25A2.25 2.25 0 0 0 2 7.75v5A2.25 2.25 0 0 0 4.25 15h7.5A2.25 2.25 0 0 0 14 12.75v-5a2.25 2.25 0 0 0-2.25-2.25h-.25a.5.5 0 0 0 0 1h.25c.69 0 1.25.56 1.25 1.25v5c0 .69-.56 1.25-1.25 1.25h-7.5ZM8 11a.5.5 0 0 0 .5-.5V2.207l2.146 2.147a.5.5 0 0 0 .708-.708L8 .293 4.646 3.646a.5.5 0 1 0 .708.708L7.5 2.207V10.5a.5.5 0 0 0 .5.5Z" clip-rule="evenodd"/></svg>