<svg xmlns="http://www.w3.org/2000/svg" width="13" fill="none" viewBox="0 0 13 12"><path fill="#0E1011" fill-rule="evenodd" d="M9.75 2.875C9.75 1.839 8.91 1 7.875 1h-6C.839 1 0 1.84 0 2.875v5.25C0 9.161.84 10 1.875 10h2.759A1 1 0 0 1 5.5 8.5h3.586l-.293-.293a1 1 0 0 1 1.414-1.414l.293.293V4.375c0-.613-.295-1.158-.75-1.5ZM8.25 6.25a.75.75 0 1 1-1.5 0 .75.75 0 0 1 1.5 0ZM1 3v-.25A.75.75 0 0 1 1.75 2h6a1 1 0 0 1 1 1H1Zm8.765 4.235a.375.375 0 0 0-.53.53l1.36 1.36H5.5a.375.375 0 0 0 0 .75h5.095l-1.36 1.36a.375.375 0 0 0 .53.53l2-2 .265-.265-.265-.265-2-2Z" clip-rule="evenodd"/></svg>