<svg xmlns="http://www.w3.org/2000/svg" fill="none" viewBox="0 0 16 16"><path fill="#0E1011" d="M2.5 5a.5.5 0 0 0 0 1H3a5 5 0 0 1 5 5v.5a.5.5 0 0 0 1 0V11a6 6 0 0 0-6-6h-.5Z"/><path fill="#0E1011" d="M2.5 8a.5.5 0 0 0 0 1H3a2 2 0 0 1 2 2v.5a.5.5 0 0 0 1 0V11a3 3 0 0 0-3-3h-.5Z"/><path fill="#0E1011" fill-rule="evenodd" d="M2.25 2A2.25 2.25 0 0 0 0 4.25v7.5A2.25 2.25 0 0 0 2.25 14h11.5A2.25 2.25 0 0 0 16 11.75v-7.5A2.25 2.25 0 0 0 13.75 2H2.25ZM1 4.25C1 3.56 1.56 3 2.25 3h11.5c.69 0 1.25.56 1.25 1.25v7.5c0 .69-.56 1.25-1.25 1.25H2.25C1.56 13 1 12.44 1 11.75v-7.5Z" clip-rule="evenodd"/></svg>