<svg xmlns="http://www.w3.org/2000/svg" fill="none" viewBox="0 0 12 12"><path fill="#0E1011" fill-rule="evenodd" d="M10.672.125a.79.79 0 0 0-.559.231L4.125 6.345v1.53h1.53l5.989-5.989a.789.789 0 0 0 .231-.558c0-.664-.539-1.203-1.203-1.203Zm-.028.761a.04.04 0 0 1 .028-.011c.25 0 .453.203.453.453 0 .01-.004.02-.011.028l-5.77 5.769h-.469v-.47L10.644.886Z" clip-rule="evenodd"/><path fill="#0E1011" d="M2.75 1.125c-.897 0-1.625.728-1.625 1.625v6.5c0 .898.728 1.625 1.625 1.625h6.5c.898 0 1.625-.727 1.625-1.625V6a.375.375 0 0 0-.75 0v3.25a.875.875 0 0 1-.875.875h-6.5a.875.875 0 0 1-.875-.875v-6.5c0-.483.392-.875.875-.875H6a.375.375 0 1 0 0-.75H2.75Z"/></svg>