<svg xmlns="http://www.w3.org/2000/svg" fill="none" viewBox="0 0 16 16"><path fill="#0E1011" fill-rule="evenodd" d="M6.765 5.076A.5.5 0 0 0 6 5.5v5a.5.5 0 0 0 .765.424l4-2.5a.5.5 0 0 0 0-.848l-4-2.5ZM9.557 8 7 9.598V6.402L9.557 8Z" clip-rule="evenodd"/><path fill="#0E1011" fill-rule="evenodd" d="M8 2h-.054a55.836 55.836 0 0 0-.703.005c-.46.005-1.087.016-1.75.036-.663.02-1.368.052-1.983.099-.601.045-1.16.109-1.508.206l-.007.002c-.409.12-.777.35-1.07.665a2.503 2.503 0 0 0-.604 1.152 22.01 22.01 0 0 0-.32 3.849 22.012 22.012 0 0 0 .33 3.924c.112.407.322.78.613 1.08.292.302.655.521 1.055.635l.003.001c.347.097.907.16 1.508.207.615.046 1.32.077 1.983.098a90.574 90.574 0 0 0 2.3.04h.153L8 14h.206a99.934 99.934 0 0 0 2.301-.041 45.88 45.88 0 0 0 1.983-.098c.601-.046 1.16-.11 1.508-.207l.007-.002c.409-.12.777-.35 1.07-.665a2.503 2.503 0 0 0 .604-1.152c.217-1.26.325-2.54.32-3.82a22.008 22.008 0 0 0-.327-3.91c-.1-.42-.306-.806-.598-1.12a2.382 2.382 0 0 0-1.087-.67c-.343-.088-.899-.146-1.5-.188a50.24 50.24 0 0 0-1.98-.09A98.586 98.586 0 0 0 8.053 2H8Zm0 1h-.052a61.933 61.933 0 0 0-.694.005c-.456.005-1.075.015-1.73.036-.657.02-1.345.05-1.939.096-.605.046-1.07.104-1.31.17-.232.07-.445.202-.617.387-.169.182-.292.409-.354.658A21.012 21.012 0 0 0 1 8.012v.005a21.01 21.01 0 0 0 .302 3.68c.07.238.194.453.36.626.172.177.383.303.61.368.24.067.706.126 1.313.172.595.046 1.282.076 1.939.096a88.557 88.557 0 0 0 2.275.04h.15l.05.001H8.203a89.108 89.108 0 0 0 2.274-.04c.657-.021 1.344-.051 1.938-.097.606-.046 1.07-.104 1.311-.17.232-.07.445-.202.617-.387.169-.182.292-.408.354-.658.206-1.199.308-2.414.304-3.632V8.01a21.012 21.012 0 0 0-.304-3.687 1.502 1.502 0 0 0-.354-.659 1.382 1.382 0 0 0-.611-.384c-.246-.061-.712-.114-1.313-.156a49.247 49.247 0 0 0-1.94-.088A97.675 97.675 0 0 0 8.052 3H8Z" clip-rule="evenodd"/></svg>