<svg xmlns="http://www.w3.org/2000/svg" fill="none" viewBox="0 0 16 16"><path fill="#0E1011" d="M12 10a1 1 0 1 0 0-2 1 1 0 0 0 0 2"/><path fill="#0E1011" fill-rule="evenodd" d="M2 1a1.5 1.5 0 0 0-.712.18A2.15 2.15 0 0 0 0 3.15v9.35A2.5 2.5 0 0 0 2.5 15h11a2.5 2.5 0 0 0 2.5-2.5v-7c0-.818-.393-1.544-1-2v-.25A2.25 2.25 0 0 0 12.75 1zm-.27 1.079c.13-.051.272-.079.42-.079h10.6a1.25 1.25 0 0 1 1.234 1.047A2.514 2.514 0 0 0 13.5 3H2a.5.5 0 0 1-.27-.921M1 3.621V12.5A1.5 1.5 0 0 0 2.5 14h11a1.5 1.5 0 0 0 1.5-1.5v-7A1.5 1.5 0 0 0 13.5 4H2c-.399 0-.742-.147-1-.38" clip-rule="evenodd"/></svg>