<svg xmlns="http://www.w3.org/2000/svg" fill="none" viewBox="0 0 16 16"><path fill="#0E1011" fill-rule="evenodd" d="M4.5 2a.5.5 0 0 0-.5.5V6h8V2.5a.5.5 0 0 0-.5-.5zM13 6V2.5A1.5 1.5 0 0 0 11.5 1h-7A1.5 1.5 0 0 0 3 2.5V6H2a2 2 0 0 0-2 2v3a2 2 0 0 0 2 2h1v1.5A1.5 1.5 0 0 0 4.5 16h7a1.5 1.5 0 0 0 1.5-1.5V13h1a2 2 0 0 0 2-2V8a2 2 0 0 0-2-2zm0 6h1a1 1 0 0 0 1-1V8a1 1 0 0 0-1-1H2a1 1 0 0 0-1 1v3a1 1 0 0 0 1 1h1v-.5A1.5 1.5 0 0 1 4.5 10h7a1.5 1.5 0 0 1 1.5 1.5zm-2-3.5a.5.5 0 0 1 .5-.5h1a.5.5 0 0 1 0 1h-1a.5.5 0 0 1-.5-.5M4.5 11a.5.5 0 0 0-.5.5v3a.5.5 0 0 0 .5.5h7a.5.5 0 0 0 .5-.5v-3a.5.5 0 0 0-.5-.5z" clip-rule="evenodd"/></svg>