<svg xmlns="http://www.w3.org/2000/svg" fill="none" viewBox="0 0 12 12"><path fill="#0E1011" d="M6 .25c.207 0 .375.168.375.375V2.72l.86-.86a.375.375 0 0 1 .53.53L6 4.155 4.235 2.39a.375.375 0 1 1 .53-.53l.86.86V.625c0-.207.168-.375.375-.375ZM2.023 3.398a.375.375 0 0 1 .53 0l1.06 1.06a.375.375 0 1 1-.53.53l-1.06-1.06a.375.375 0 0 1 0-.53ZM9.977 3.398a.375.375 0 0 1 0 .53l-1.06 1.06a.375.375 0 1 1-.53-.53l1.06-1.06a.375.375 0 0 1 .53 0ZM.375 7.375C.375 7.168.543 7 .75 7h1.5a.375.375 0 1 1 0 .75H.75a.375.375 0 0 1-.375-.375ZM9.375 7.375c0-.207.168-.375.375-.375h1.5a.375.375 0 0 1 0 .75h-1.5a.375.375 0 0 1-.375-.375ZM3.375 7.75v-.188a2.438 2.438 0 0 1 2.438-2.437h.375a2.438 2.438 0 0 1 2.437 2.438v.187h-5.25ZM.75 9.25a.375.375 0 1 0 0 .75h10.5a.375.375 0 0 0 0-.75H.75Z"/></svg>