<svg xmlns="http://www.w3.org/2000/svg" fill="none" viewBox="0 0 16 16"><path fill="#0E1011" fill-rule="evenodd" d="M3.5.5A.5.5 0 0 1 4 1v2a.5.5 0 0 1-1 0V1a.5.5 0 0 1 .5-.5m3 0A.5.5 0 0 1 7 1v2a.5.5 0 0 1-1 0V1a.5.5 0 0 1 .5-.5m3 0a.5.5 0 0 1 .5.5v2a.5.5 0 0 1-1 0V1a.5.5 0 0 1 .5-.5M2 6a1 1 0 0 0-1 1v4a2 2 0 0 0 2 2h7a2 2 0 0 0 2-2V6zm11 0v3.691l1.447-.724A1 1 0 0 0 15 8.073V7a1 1 0 0 0-1-1zm0 4.809 1.894-.947A2 2 0 0 0 16 8.073V7a2 2 0 0 0-2-2H2a2 2 0 0 0-2 2v4a3 3 0 0 0 3 3h7a3 3 0 0 0 3-3z" clip-rule="evenodd"/><path fill="#0E1011" d="M1 7a1 1 0 0 1 1-1h10v5a2 2 0 0 1-2 2H3a2 2 0 0 1-2-2z"/></svg>