<svg xmlns="http://www.w3.org/2000/svg" fill="none" viewBox="0 0 12 12"><path fill="#0E1011" fill-rule="evenodd" d="M5 .125A.875.875 0 0 0 4.125 1v.125H.5a.375.375 0 1 0 0 .75h.625V5.5c0 1.772.34 3.658.624 4.827C1.998 11.345 2.923 12 3.942 12h4.116c1.019 0 1.944-.655 2.193-1.673.284-1.169.624-3.055.624-4.827V1.875h.625a.375.375 0 0 0 0-.75H7.875V1A.875.875 0 0 0 7 .125H5Zm2.125 1h-2.25V1c0-.069.056-.125.125-.125h2c.069 0 .125.056.125.125v.125ZM4.875 5a.375.375 0 1 0-.75 0v3.5a.375.375 0 1 0 .75 0V5Zm3 0a.375.375 0 1 0-.75 0v3.5a.375.375 0 1 0 .75 0V5Z" clip-rule="evenodd"/></svg>