<svg xmlns="http://www.w3.org/2000/svg" fill="none" viewBox="0 0 12 12"><path fill="#0E1011" d="M11.929 4.567a7.856 7.856 0 0 0-5.93-2.692A7.856 7.856 0 0 0 .072 4.567l.548.513a7.108 7.108 0 0 1 5.38-2.455c2.15 0 4.076.951 5.382 2.455l.548-.513Z"/><path fill="#0E1011" d="M10.286 6.107A5.613 5.613 0 0 0 6 4.125c-1.717 0-3.254.77-4.286 1.982l.548.514A4.865 4.865 0 0 1 6 4.875c1.501 0 2.844.678 3.738 1.746l.548-.514Z"/><path fill="#0E1011" d="M8.641 7.649A3.369 3.369 0 0 0 6 6.375c-1.07 0-2.023.498-2.641 1.274l.549.515A2.62 2.62 0 0 1 6 7.125a2.62 2.62 0 0 1 2.092 1.039l.55-.515Z"/><path fill="#0E1011" d="M7.263 8.94a1.499 1.499 0 0 0-2.526 0L6 10.126l1.263-1.184Z"/></svg>