<svg xmlns="http://www.w3.org/2000/svg" fill="none" viewBox="0 0 12 12"><path fill="#0E1011" fill-rule="evenodd" d="M3.221 1.362c-.315-.225-.74-.238-1.038.008a6.037 6.037 0 0 0-.813.813c-.246.298-.233.723-.008 1.038a.934.934 0 0 1-.607 1.465c-.381.063-.691.355-.728.74a6.074 6.074 0 0 0 0 1.148c.037.385.347.677.728.74a.934.934 0 0 1 .607 1.465c-.225.315-.238.74.008 1.038.245.296.517.568.813.813.298.246.723.233 1.038.008a.934.934 0 0 1 1.465.607c.063.381.355.691.74.728a6.09 6.09 0 0 0 1.148 0c.385-.037.677-.347.74-.728a.934.934 0 0 1 1.465-.607c.315.225.74.238 1.038-.008.296-.245.568-.517.813-.813.246-.298.233-.723.008-1.038a.934.934 0 0 1 .607-1.465c.381-.063.691-.355.728-.74a6.09 6.09 0 0 0 0-1.148c-.037-.385-.347-.677-.728-.74a.934.934 0 0 1-.607-1.465c.225-.315.238-.74-.008-1.038a6.036 6.036 0 0 0-.813-.813c-.298-.246-.723-.233-1.038-.008A.934.934 0 0 1 7.314.755C7.251.374 6.96.064 6.574.027a6.074 6.074 0 0 0-1.148 0c-.385.037-.677.347-.74.728a.934.934 0 0 1-1.465.607ZM7.716 6a1.716 1.716 0 1 1-3.432 0 1.716 1.716 0 0 1 3.432 0Z" clip-rule="evenodd"/></svg>