<svg xmlns="http://www.w3.org/2000/svg" fill="none" viewBox="0 0 16 16"><path fill="#0E1011" d="M8 14a2 2 0 0 0 .25-3.985V4.5a.25.25 0 0 0-.5 0v5.515A2 2 0 0 0 8 14"/><path fill="#0E1011" fill-rule="evenodd" d="M8 0a2 2 0 0 0-2 2v6.535a4 4 0 1 0 4 0V2a2 2 0 0 0-2-2M7 2a1 1 0 0 1 2 0v7.153l.285.135a3 3 0 1 1-2.57 0L7 9.153z" clip-rule="evenodd"/><path fill="#0E1011" d="M10.75 2.375a.375.375 0 0 0 0 .75h1.5a.375.375 0 0 0 0-.75zM10.75 4.375a.375.375 0 0 0 0 .75h1.5a.375.375 0 0 0 0-.75zM10.75 6.375a.375.375 0 0 0 0 .75h1.5a.375.375 0 0 0 0-.75z"/></svg>