<svg xmlns="http://www.w3.org/2000/svg" fill="none" viewBox="0 0 16 16"><path fill="#0E1011" fill-rule="evenodd" d="M9.576 2.23a3.486 3.486 0 0 1 3.64.724 6.768 6.768 0 0 0 1.663-.856.5.5 0 0 1 .774.527 5.648 5.648 0 0 1-1.342 2.498 3.5 3.5 0 0 1 .022.382v.002c0 4.008-1.926 6.933-4.681 8.4-2.743 1.46-6.257 1.447-9.395-.297a.5.5 0 0 1 .263-.936 7.26 7.26 0 0 0 3.608-.798c-1.122-.637-1.906-1.412-2.436-2.248C1.042 8.602.795 7.512.751 6.53a8.568 8.568 0 0 1 .275-2.502 8.558 8.558 0 0 1 .315-.973 3.72 3.72 0 0 1 .025-.059l.007-.017.002-.005v-.002l.458.202-.457-.203a.5.5 0 0 1 .867-.084 6.607 6.607 0 0 0 5.09 2.802V5.53a3.487 3.487 0 0 1 2.243-3.3ZM2.016 4.2a7.57 7.57 0 0 0-.266 2.284c.038.85.25 1.761.787 2.61.535.844 1.413 1.658 2.833 2.29a.5.5 0 0 1 .077.87 8.26 8.26 0 0 1-2.948 1.25c2.346.765 4.747.55 6.683-.48 2.411-1.284 4.151-3.859 4.151-7.516 0-.155-.015-.309-.044-.46a.5.5 0 0 1 .14-.45c.288-.284.536-.603.74-.948a7.765 7.765 0 0 1-.952.355.5.5 0 0 1-.521-.15A2.486 2.486 0 0 0 8.333 5.52v.673a.5.5 0 0 1-.487.5A7.607 7.607 0 0 1 2.016 4.2Z" clip-rule="evenodd"/></svg>