<svg xmlns="http://www.w3.org/2000/svg" fill="none" viewBox="0 0 16 16"><path fill="#0E1011" d="M6.625 8.5v-.625h2.75V8.5c0 .345-.28.625-.625.625h-1.5a.625.625 0 0 1-.625-.625"/><path fill="#0E1011" fill-rule="evenodd" d="M6 1a1 1 0 0 0-1 1v1H1.25C.56 3 0 3.56 0 4.25v8.5C0 13.44.56 14 1.25 14h13.5c.69 0 1.25-.56 1.25-1.25v-8.5C16 3.56 15.44 3 14.75 3H11V2a1 1 0 0 0-1-1zm4 2H6V2h4zM1.5 7.125a.375.375 0 1 0 0 .75h4.375V8.5c0 .76.616 1.375 1.375 1.375h1.5c.76 0 1.375-.616 1.375-1.375v-.625H14.5a.375.375 0 0 0 0-.75z" clip-rule="evenodd"/></svg>