<svg xmlns="http://www.w3.org/2000/svg" fill="none" viewBox="0 0 16 16"><path fill="#0E1011" d="M2.5 9.125a.375.375 0 1 0 0 .75h5a.375.375 0 1 0 0-.75zM2.5 11.125a.375.375 0 0 0 0 .75h2a.375.375 0 0 0 0-.75z"/><path fill="#0E1011" fill-rule="evenodd" d="M0 4.25A2.25 2.25 0 0 1 2.25 2h11.5A2.25 2.25 0 0 1 16 4.25v7.5A2.25 2.25 0 0 1 13.75 14H2.25A2.25 2.25 0 0 1 0 11.75zM2.25 3C1.56 3 1 3.56 1 4.25V5h14v-.75C15 3.56 14.44 3 13.75 3zM1 11.75V7h14v4.75c0 .69-.56 1.25-1.25 1.25H2.25C1.56 13 1 12.44 1 11.75" clip-rule="evenodd"/></svg>