<svg xmlns="http://www.w3.org/2000/svg" fill="none" viewBox="0 0 16 16"><path fill="#0E1011" fill-rule="evenodd" d="M13 5a2 2 0 1 0-4 0 2 2 0 0 0 4 0Zm-2-1a1 1 0 1 1 0 2 1 1 0 0 1 0-2Z" clip-rule="evenodd"/><path fill="#0E1011" fill-rule="evenodd" d="M16 6.586V1.5A1.5 1.5 0 0 0 14.5 0H9.414a1.5 1.5 0 0 0-1.06.44L.81 7.981a2.5 2.5 0 0 0 0 3.536l3.671 3.671a2.5 2.5 0 0 0 3.536 0l7.543-7.543A1.5 1.5 0 0 0 16 6.586ZM15 1.5v5.086a.5.5 0 0 1-.146.353L7.31 14.482a1.5 1.5 0 0 1-2.122 0l-3.671-3.671a1.5 1.5 0 0 1 0-2.122L9.06 1.146A.5.5 0 0 1 9.414 1H14.5a.5.5 0 0 1 .5.5Z" clip-rule="evenodd"/></svg>