<svg xmlns="http://www.w3.org/2000/svg" fill="none" viewBox="0 0 12 12"><path fill="#0E1011" d="m3.017 1.612-2.18.904a.749.749 0 0 0-.206.128.374.374 0 0 1 .275.015l5.089 2.33 1.783-.868-4.57-2.286a.374.374 0 0 1-.19-.223ZM3.794 1.29l4.843 2.422 2.465-1.057a.373.373 0 0 1 .267-.01.749.749 0 0 0-.207-.129L6.287.494a.75.75 0 0 0-.574 0l-1.92.796ZM11.615 3.086a.374.374 0 0 1-.217.259L8.78 4.466 6.375 5.639v5.61c0 .129-.064.242-.161.31a.736.736 0 0 0 .073-.027l4.875-2.022a.75.75 0 0 0 .463-.693V3.21a.743.743 0 0 0-.01-.123ZM5.786 11.558a.375.375 0 0 1-.161-.308V5.645L.594 3.341a.374.374 0 0 1-.209-.255.75.75 0 0 0-.01.123v5.608a.75.75 0 0 0 .463.693l4.875 2.022c.024.01.048.019.073.026Z"/></svg>