<svg xmlns="http://www.w3.org/2000/svg" fill="none" viewBox="0 0 12 12"><path fill="#0E1011" d="M4.406 5.813c0-.777.63-1.407 1.407-1.407H6v.563h-.188a.844.844 0 0 0-.843.843V6h-.563v-.188Z"/><path fill="#0E1011" fill-rule="evenodd" d="M6 3a3 3 0 1 0 0 6 3 3 0 0 0 0-6ZM3.75 6a2.25 2.25 0 1 1 4.5 0 2.25 2.25 0 0 1-4.5 0Z" clip-rule="evenodd"/><path fill="#0E1011" fill-rule="evenodd" d="M3.75.47a.75.75 0 0 1 .53-.22h3.44a.75.75 0 0 1 .53.22l.53.53h1.533C11.244 1 12 1.756 12 2.688v6.624c0 .933-.755 1.688-1.688 1.688H1.688A1.687 1.687 0 0 1 0 9.312V2.689C0 1.756.756 1 1.688 1H3.22l.53-.53ZM7.72 1H4.28l-.53.53a.75.75 0 0 1-.53.22H1.687a.937.937 0 0 0-.937.938v6.624c0 .518.42.938.938.938h8.624c.518 0 .938-.42.938-.938V2.689a.937.937 0 0 0-.938-.938H8.78a.75.75 0 0 1-.53-.22L7.72 1Z" clip-rule="evenodd"/></svg>