<svg xmlns="http://www.w3.org/2000/svg" fill="none" viewBox="0 0 16 16"><path fill="#0E1011" fill-rule="evenodd" d="M7 0C5.179 0 3.514.17 2.291.452c-.607.14-1.133.314-1.52.525a1.893 1.893 0 0 0-.513.389A.954.954 0 0 0 0 2v4.5c0 .23.067.435.176.617L0 7.293V11.5c0 .513.336.906.717 1.183.39.284.925.52 1.54.71C3.493 13.772 5.169 14 7 14a.5.5 0 0 0 0-1c-1.76 0-3.332-.22-4.45-.564-.56-.172-.978-.368-1.245-.562C1.027 11.672 1 11.54 1 11.5V7.867c.35.203.78.378 1.257.525C3.493 8.772 5.169 9 7 9c1.83 0 3.507-.228 4.743-.608.615-.19 1.15-.425 1.54-.71.38-.276.717-.67.717-1.182V2a.954.954 0 0 0-.258-.634 1.893 1.893 0 0 0-.513-.389c-.387-.21-.913-.385-1.52-.525C10.486.17 8.82 0 7 0ZM1.25 2.145A1.12 1.12 0 0 1 1.036 2a1.12 1.12 0 0 1 .214-.145c.272-.148.697-.297 1.266-.428C3.646 1.166 5.231 1 7 1c1.769 0 3.354.166 4.484.427.569.13.994.28 1.266.428.105.058.173.107.214.145a1.12 1.12 0 0 1-.214.145c-.272.148-.697.297-1.266.428C10.354 2.834 8.769 3 7 3c-1.769 0-3.354-.166-4.484-.427-.569-.13-.994-.28-1.266-.428ZM13 3.136c-.355.16-.796.298-1.291.412C10.486 3.83 8.82 4 7 4c-1.821 0-3.486-.17-4.709-.452A7.046 7.046 0 0 1 1 3.136V6.5c0 .04.027.172.305.374.267.194.684.39 1.246.562C3.668 7.78 5.24 8 7 8c1.76 0 3.332-.22 4.45-.564.56-.172.979-.368 1.245-.562.278-.202.305-.334.305-.374V3.136Z" clip-rule="evenodd"/><path fill="#0E1011" fill-rule="evenodd" d="M16 12.5a3.5 3.5 0 1 1-7 0 3.5 3.5 0 0 1 7 0ZM12.5 10a.5.5 0 0 1 .5.5V12h1.5a.5.5 0 0 1 0 1H13v1.5a.5.5 0 0 1-1 0V13h-1.5a.5.5 0 0 1 0-1H12v-1.5a.5.5 0 0 1 .5-.5Z" clip-rule="evenodd"/></svg>