<svg xmlns="http://www.w3.org/2000/svg" fill="none" viewBox="0 0 12 12"><path fill="#0E1011" d="m4.037.966-.152 1.06A4.48 4.48 0 0 1 6 1.5c.764 0 1.484.19 2.115.527L7.963.966A1.125 1.125 0 0 0 6.85 0H5.15c-.56 0-1.034.412-1.113.966ZM7.963 11.034l.152-1.06A4.48 4.48 0 0 1 6 10.5a4.48 4.48 0 0 1-2.115-.527l.152 1.061c.079.554.554.966 1.113.966h1.7c.56 0 1.034-.412 1.113-.966Z"/><path fill="#0E1011" fill-rule="evenodd" d="M6 2.25a3.75 3.75 0 1 1 0 7.5 3.75 3.75 0 0 1 0-7.5Zm-.265 3.485 1.5-1.5.53.53L6.53 6l.86.86-.53.53-1.125-1.125a.375.375 0 0 1 0-.53Z" clip-rule="evenodd"/></svg>