<svg xmlns="http://www.w3.org/2000/svg" fill="none" viewBox="0 0 16 16"><path fill="#0E1011" fill-rule="evenodd" d="M4.25.5A2.25 2.25 0 0 0 2 2.75v10.5a2.25 2.25 0 0 0 2.25 2.25h7.5A2.25 2.25 0 0 0 14 13.25V2.75A2.25 2.25 0 0 0 11.75.5zM3 2.75c0-.69.56-1.25 1.25-1.25h.875v2.625H3zm0 2.125v2.75h2.125v-2.75zm0 3.5v2.75h2.125v-2.75zm0 3.5v1.375c0 .69.56 1.25 1.25 1.25h.875v-2.625zM5.875 14.5h4.25V8.375h-4.25zm5 0h.875c.69 0 1.25-.56 1.25-1.25v-1.375h-2.125zM13 11.125v-2.75h-2.125v2.75zm0-3.5v-2.75h-2.125v2.75zm0-3.5V2.75c0-.69-.56-1.25-1.25-1.25h-.875v2.625zM10.125 1.5h-4.25v6.125h4.25z" clip-rule="evenodd"/></svg>