<svg xmlns="http://www.w3.org/2000/svg" fill="none" viewBox="0 0 16 16"><path fill="#0E1011" d="M2.5 2A2.5 2.5 0 0 0 0 4.5v7A2.5 2.5 0 0 0 2.5 14h7a.5.5 0 0 0 0-1h-7A1.5 1.5 0 0 1 1 11.53l2.5-2.5 2 2 5-5 3.235 3.235a.375.375 0 0 0 .53-.53L10.5 4.97l-5 5-2-2-2.5 2.5V4.5A1.5 1.5 0 0 1 2.5 3h11A1.5 1.5 0 0 1 15 4.5v5a.5.5 0 0 0 1 0v-5A2.5 2.5 0 0 0 13.5 2h-11Z"/><path fill="#0E1011" fill-rule="evenodd" d="M3.5 7a1.5 1.5 0 1 0 0-3 1.5 1.5 0 0 0 0 3Zm0-.75a.75.75 0 1 0 0-1.5.75.75 0 0 0 0 1.5Z" clip-rule="evenodd"/><path fill="#0E1011" d="M14 11.5a.5.5 0 0 0-1 0V13h-1.5a.5.5 0 0 0 0 1H13v1.5a.5.5 0 0 0 1 0V14h1.5a.5.5 0 0 0 0-1H14v-1.5Z"/></svg>