<svg xmlns="http://www.w3.org/2000/svg" fill="none" viewBox="0 0 16 16"><path fill="#0E1011" d="M2.5 9.125a.375.375 0 1 0 0 .75h5a.375.375 0 1 0 0-.75zM2.5 11.125a.375.375 0 0 0 0 .75h2a.375.375 0 0 0 0-.75z"/><path fill="#0E1011" fill-rule="evenodd" d="M0 4.25A2.25 2.25 0 0 1 2.25 2h11.5A2.25 2.25 0 0 1 16 4.25V9.5a.5.5 0 0 1-1 0V7H1v4.75c0 .69.56 1.25 1.25 1.25H6.5a.5.5 0 0 1 0 1H2.25A2.25 2.25 0 0 1 0 11.75zm1 0C1 3.56 1.56 3 2.25 3h11.5c.69 0 1.25.56 1.25 1.25V5H1z" clip-rule="evenodd"/><path fill="#0E1011" d="M12.5 9a.5.5 0 0 1 .5.5V12h2.5a.5.5 0 0 1 0 1H13v2.5a.5.5 0 0 1-1 0V13H9.5a.5.5 0 0 1 0-1H12V9.5a.5.5 0 0 1 .5-.5"/></svg>