<svg xmlns="http://www.w3.org/2000/svg" fill="none" viewBox="0 0 16 16"><path fill="#0E1011" fill-rule="evenodd" d="M1 2a1 1 0 0 0-1 1v8h10.5V3a1 1 0 0 0-1-1H1Zm0 2.25A.25.25 0 0 1 1.25 4h3.5a.25.25 0 0 1 0 .5h-3.5A.25.25 0 0 1 1 4.25Zm4.75 0A.25.25 0 0 1 6 4h1.25a.25.25 0 0 1 0 .5H6a.25.25 0 0 1-.25-.25Z" clip-rule="evenodd"/><path fill="#0E1011" d="M12.5 5.5H11V11h5V9a3.5 3.5 0 0 0-3.5-3.5ZM6 12.5a2 2 0 1 1-3.937-.5h3.874c.041.16.063.327.063.5ZM13.5 12.5a2 2 0 1 1-3.937-.5h3.874c.041.16.063.327.063.5Z"/></svg>