<svg xmlns="http://www.w3.org/2000/svg" fill="none" viewBox="0 0 12 12"><path fill="#0E1011" fill-rule="evenodd" d="M10.5 1A1.5 1.5 0 0 1 12 2.5v1A1.5 1.5 0 0 1 10.5 5h-9A1.5 1.5 0 0 1 0 3.5v-1A1.5 1.5 0 0 1 1.5 1h9Zm.5 1.5v1a.5.5 0 0 1-.5.5h-9a.5.5 0 0 1-.5-.5v-1a.5.5 0 0 1 .5-.5h9a.5.5 0 0 1 .5.5ZM10.5 7A1.5 1.5 0 0 1 12 8.5v1a1.5 1.5 0 0 1-1.5 1.5h-9A1.5 1.5 0 0 1 0 9.5v-1A1.5 1.5 0 0 1 1.5 7h9Zm.5 1.5v1a.5.5 0 0 1-.5.5h-9a.5.5 0 0 1-.5-.5v-1a.5.5 0 0 1 .5-.5h9a.5.5 0 0 1 .5.5Z" clip-rule="evenodd"/></svg>