<svg xmlns="http://www.w3.org/2000/svg" fill="none" viewBox="0 0 12 12"><path fill="#0E1011" d="M4.875 1.875a.375.375 0 1 0-.75 0v1.5a.75.75 0 0 1-.75.75h-1.5a.375.375 0 1 0 0 .75h1.5a1.5 1.5 0 0 0 1.5-1.5v-1.5ZM4.875 10.125a.375.375 0 0 1-.75 0v-1.5a.75.75 0 0 0-.75-.75h-1.5a.375.375 0 1 1 0-.75h1.5a1.5 1.5 0 0 1 1.5 1.5v1.5ZM7.5 1.5a.375.375 0 0 0-.375.375v1.5a1.5 1.5 0 0 0 1.5 1.5h1.5a.375.375 0 0 0 0-.75h-1.5a.75.75 0 0 1-.75-.75v-1.5A.375.375 0 0 0 7.5 1.5ZM7 10a.375.375 0 0 0 .75 0V8.5a.75.75 0 0 1 .75-.75H10A.375.375 0 0 0 10 7H8.5A1.5 1.5 0 0 0 7 8.5V10Z"/></svg>