<svg xmlns="http://www.w3.org/2000/svg" fill="none" viewBox="0 0 12 12"><path fill="#0E1011" fill-rule="evenodd" d="M3.188.375c-.932 0-1.688.756-1.688 1.688v7.874c0 .933.756 1.688 1.688 1.688h5.624c.932 0 1.688-.755 1.688-1.688V2.064c0-.932-.756-1.688-1.688-1.688H3.189ZM2.25 2.063c0-.518.42-.938.938-.938h.656v1.969H2.25V2.063Zm0 1.593V5.72h1.594V3.656H2.25Zm0 2.625v2.063h1.594V6.28H2.25Zm0 2.625v1.031c0 .518.42.938.938.938h.656V8.906H2.25Zm2.156 1.969h3.188V6.281H4.406v4.594Zm3.75 0h.656c.518 0 .938-.42.938-.938v-1.03H8.156v1.968ZM9.75 8.344V6.28H8.156v2.063H9.75Zm0-2.625V3.656H8.156V5.72H9.75Zm0-2.625V2.063a.937.937 0 0 0-.938-.938h-.656v1.969H9.75ZM7.594 1.125H4.406v4.594h3.188V1.125Z" clip-rule="evenodd"/></svg>