<svg xmlns="http://www.w3.org/2000/svg" fill="none" viewBox="0 0 16 16"><path fill="#0E1011" fill-rule="evenodd" d="M4.427 2a2 2 0 0 0-1.789 1.106l-2.48 4.96a1.5 1.5 0 0 0-.158.67V11.5A2.5 2.5 0 0 0 2.5 14h11a2.5 2.5 0 0 0 2.5-2.5V8.736a1.5 1.5 0 0 0-.158-.67l-2.48-4.96A2 2 0 0 0 11.572 2H4.428m-.894 1.553A1 1 0 0 1 4.427 3h7.146a1 1 0 0 1 .894.553l2.412 4.822h-4.754V9a2.125 2.125 0 0 1-4.25 0v-.625H1.122l2.41-4.822M1 9.125V11.5A1.5 1.5 0 0 0 2.5 13h11a1.5 1.5 0 0 0 1.5-1.5V9.125h-4.128a2.875 2.875 0 0 1-5.744 0z" clip-rule="evenodd"/></svg>