<svg xmlns="http://www.w3.org/2000/svg" fill="none" viewBox="0 0 12 12"><path fill="#0E1011" fill-rule="evenodd" d="m6 .22 1.765 1.765a.375.375 0 0 1-.53.53l-.86-.86v3.97h3.97l-.86-.86a.375.375 0 1 1 .53-.53L11.78 6l-1.765 1.765a.375.375 0 0 1-.53-.53l.86-.86h-3.97v3.97l.86-.86a.375.375 0 0 1 .53.53L6 11.78l-1.765-1.765a.375.375 0 1 1 .53-.53l.86.86v-3.97h-3.97l.86.86a.375.375 0 0 1-.53.53L.22 6l1.765-1.765a.375.375 0 1 1 .53.53l-.86.86h3.97v-3.97l-.86.86a.375.375 0 1 1-.53-.53L6 .22Z" clip-rule="evenodd"/></svg>