<svg xmlns="http://www.w3.org/2000/svg" fill="none" viewBox="0 0 12 12"><path fill="#0E1011" d="M8.625 6.75a.375.375 0 1 0 0 .75h1.5a.375.375 0 0 0 0-.75h-1.5Z"/><path fill="#0E1011" fill-rule="evenodd" d="M2.57 2.25a1.5 1.5 0 0 0-1.341.83L.277 4.981A2.625 2.625 0 0 0 0 6.156V8.25a1.5 1.5 0 0 0 1.5 1.5h9a1.5 1.5 0 0 0 1.5-1.5V6.156c0-.407-.095-.81-.277-1.174L10.77 3.08A1.5 1.5 0 0 0 9.43 2.25H2.57ZM1.9 3.415A.75.75 0 0 1 2.57 3h6.86a.75.75 0 0 1 .67.415l.952 1.903a1.9 1.9 0 0 1 .076.174 1.4 1.4 0 0 0-.628-.148h-9a1.4 1.4 0 0 0-.628.148c.022-.06.048-.118.076-.174l.951-1.903ZM.75 6.363V8.25c0 .414.336.75.75.75h9a.75.75 0 0 0 .75-.75V6.363a.844.844 0 0 0-.75-.457h-9a.844.844 0 0 0-.75.457Z" clip-rule="evenodd"/></svg>