<svg xmlns="http://www.w3.org/2000/svg" fill="none" viewBox="0 0 12 12"><path fill="#0E1011" d="M6 .345 7.765 2.11a.375.375 0 0 1-.53.53l-.86-.86v2.095a.375.375 0 0 1-.75 0V1.78l-.86.86a.375.375 0 1 1-.53-.53L6 .345ZM2.023 3.648a.375.375 0 0 1 .53 0l1.06 1.06a.375.375 0 1 1-.53.53l-1.06-1.06a.375.375 0 0 1 0-.53ZM9.977 3.648a.375.375 0 0 1 0 .53l-1.06 1.06a.375.375 0 1 1-.53-.53l1.06-1.06a.375.375 0 0 1 .53 0ZM.375 7.625c0-.207.168-.375.375-.375h1.5a.375.375 0 1 1 0 .75H.75a.375.375 0 0 1-.375-.375ZM9.375 7.625c0-.207.168-.375.375-.375h1.5a.375.375 0 0 1 0 .75h-1.5a.375.375 0 0 1-.375-.375Z"/><path fill="#0E1011" fill-rule="evenodd" d="M3.375 7.438A2.437 2.437 0 0 1 5.813 5h.375a2.437 2.437 0 0 1 2.437 2.438V8h-5.25v-.562Zm.76-.188h3.73a1.688 1.688 0 0 0-1.678-1.5h-.375c-.868 0-1.583.656-1.677 1.5Z" clip-rule="evenodd"/><path fill="#0E1011" d="M.75 9.25a.375.375 0 1 0 0 .75h10.5a.375.375 0 0 0 0-.75H.75Z"/></svg>