<svg xmlns="http://www.w3.org/2000/svg" fill="none" viewBox="0 0 12 12"><path fill="#0E1011" fill-rule="evenodd" d="M4 3.17a.83.83 0 0 0-.83.83v3a.83.83 0 1 0 1.66 0V4A.83.83 0 0 0 4 3.17ZM3.83 4a.17.17 0 1 1 .34 0v3a.17.17 0 1 1-.34 0V4ZM8 3.17a.83.83 0 0 0-.83.83v2a.83.83 0 1 0 1.66 0V4A.83.83 0 0 0 8 3.17ZM7.83 4a.17.17 0 1 1 .34 0v2a.17.17 0 1 1-.34 0V4Z" clip-rule="evenodd"/><path fill="#0E1011" fill-rule="evenodd" d="M1 3a2 2 0 0 1 2-2h6a2 2 0 0 1 2 2v6a2 2 0 0 1-2 2H3a2 2 0 0 1-2-2V3Zm2-1.25h6c.69 0 1.25.56 1.25 1.25v6c0 .69-.56 1.25-1.25 1.25H3c-.69 0-1.25-.56-1.25-1.25V3c0-.69.56-1.25 1.25-1.25Z" clip-rule="evenodd"/></svg>