<svg xmlns="http://www.w3.org/2000/svg" fill="none" viewBox="0 0 12 12"><path fill="#0E1011" d="M12 6a6 6 0 0 1-7.855 5.708c.236-.32.673-.97.852-1.62.068-.248.391-1.53.391-1.53.193.369.758.694 1.36.694 1.788 0 3.002-1.631 3.002-3.814 0-1.65-1.398-3.188-3.523-3.188-2.644 0-3.977 1.896-3.977 3.476 0 .957.362 1.809 1.14 2.126.127.052.241.002.278-.14.013-.046.033-.129.054-.213l.06-.233c.037-.14.023-.188-.08-.31-.224-.264-.368-.606-.368-1.091 0-1.407 1.053-2.665 2.74-2.665 1.495 0 2.316.913 2.316 2.132 0 1.605-.71 2.959-1.765 2.959-.582 0-1.018-.482-.878-1.072.06-.255.142-.517.22-.772.14-.45.271-.878.271-1.203 0-.455-.244-.835-.75-.835-.595 0-1.073.615-1.073 1.44 0 .526.177.88.177.88l-.716 3.033c-.155.657-.1 1.422-.054 1.83A6.002 6.002 0 0 1 6 0a6 6 0 0 1 6 6Z"/></svg>