<svg xmlns="http://www.w3.org/2000/svg" fill="none" viewBox="0 0 16 16"><path fill="#0E1011" d="M11.5 9a.5.5 0 0 0 0 1h2a.5.5 0 0 0 0-1h-2Z"/><path fill="#0E1011" fill-rule="evenodd" d="M3.427 3a2 2 0 0 0-1.789 1.106L.37 6.643A3.5 3.5 0 0 0 0 8.208V11a2 2 0 0 0 2 2h12a2 2 0 0 0 2-2V8.208a3.5 3.5 0 0 0-.37-1.565l-1.268-2.537A2 2 0 0 0 12.572 3H3.428Zm-.894 1.553A1 1 0 0 1 3.427 4h9.146a1 1 0 0 1 .894.553l1.27 2.537c.037.076.07.153.1.232A1.867 1.867 0 0 0 14 7.125H2c-.301 0-.586.071-.838.197a2.5 2.5 0 0 1 .102-.232l1.269-2.537ZM1 8.484V11a1 1 0 0 0 1 1h12a1 1 0 0 0 1-1V8.484a1.125 1.125 0 0 0-1-.609H2c-.435 0-.813.247-1 .61Z" clip-rule="evenodd"/></svg>