<svg xmlns="http://www.w3.org/2000/svg" fill="none" viewBox="0 0 16 16"><path fill="#0E1011" d="M2.625 6.25c0-.345.28-.625.625-.625h1a.375.375 0 1 0 0-.75h-1c-.76 0-1.375.616-1.375 1.375v1a.375.375 0 1 0 .75 0v-1"/><path fill="#0E1011" fill-rule="evenodd" d="M5.884.18a.5.5 0 1 0-.768.64L6.932 3H2.25A2.25 2.25 0 0 0 0 5.25v6.5A2.25 2.25 0 0 0 2.25 14h11.5A2.25 2.25 0 0 0 16 11.75v-6.5A2.25 2.25 0 0 0 13.75 3H9.068L10.884.82a.5.5 0 0 0-.768-.64L8 2.719 5.884.179ZM1 5.25C1 4.56 1.56 4 2.25 4h11.5c.69 0 1.25.56 1.25 1.25v6.5c0 .69-.56 1.25-1.25 1.25H2.25C1.56 13 1 12.44 1 11.75v-6.5" clip-rule="evenodd"/></svg>