<svg xmlns="http://www.w3.org/2000/svg" fill="none" viewBox="0 0 12 12"><path fill="#0E1011" d="M5.625 9.25v1.61a4.876 4.876 0 0 1-4.486-4.485H2.75a.375.375 0 1 0 0-.75H1.14a4.876 4.876 0 0 1 4.485-4.486V2.75a.375.375 0 1 0 .75 0V1.14a4.876 4.876 0 0 1 4.486 4.485H9.25a.375.375 0 1 0 0 .75h1.61a4.876 4.876 0 0 1-4.485 4.486V9.25a.375.375 0 1 0-.75 0Z"/><path fill="#0E1011" fill-rule="evenodd" d="M12 6A6 6 0 1 1 0 6a6 6 0 0 1 12 0ZM.75 6a5.25 5.25 0 1 0 10.5 0A5.25 5.25 0 0 0 .75 6Z" clip-rule="evenodd"/></svg>