<svg xmlns="http://www.w3.org/2000/svg" fill="none" viewBox="0 0 12 12"><path fill="#0E1011" fill-rule="evenodd" d="m9 1 2 2v6.5A1.5 1.5 0 0 1 9.5 11h-7A1.5 1.5 0 0 1 1 9.5v-7A1.5 1.5 0 0 1 2.5 1H9Zm-.125 9.25H9.5a.75.75 0 0 0 .75-.75V3.31L8.69 1.75H8.5V4a.75.75 0 0 1-.75.75h-3.5A.75.75 0 0 1 3.5 4V1.75h-1a.75.75 0 0 0-.75.75v7c0 .414.336.75.75.75h.625V7c0-.483.392-.875.875-.875h4c.483 0 .875.392.875.875v3.25Zm-.75 0V7A.125.125 0 0 0 8 6.875H4A.125.125 0 0 0 3.875 7v3.25h4.25ZM8 4V1.75H4V4c0 .138.112.25.25.25h3.5A.25.25 0 0 0 8 4Z" clip-rule="evenodd"/></svg>