<svg xmlns="http://www.w3.org/2000/svg" fill="none" viewBox="0 0 16 16"><path fill="#0E1011" fill-rule="evenodd" d="M8.844 15.363a1 1 0 0 1-1.601-.26L4.37 9.357a3.5 3.5 0 0 1-.207-.51c-.2.098-.425.153-.663.153h-2A1.5 1.5 0 0 1 0 7.5v-6A1.5 1.5 0 0 1 1.5 0h2c.384 0 .735.144 1 .382A1.494 1.494 0 0 1 5.5 0h5.394a3.5 3.5 0 0 1 3.292 2.311l1.567 4.34A2.5 2.5 0 0 1 13.4 10h-3.76l.432 1.73a3.5 3.5 0 0 1-.92 3.325l-.309.308ZM4 1.5v6a.5.5 0 0 1-.5.5h-2a.5.5 0 0 1-.5-.5v-6a.5.5 0 0 1 .5-.5h2a.5.5 0 0 1 .5.5Zm1 0a.5.5 0 0 1 .5-.5h5.394a2.5 2.5 0 0 1 2.351 1.65l1.567 4.34A1.5 1.5 0 0 1 13.402 9H9a.5.5 0 0 0-.485.621l.588 2.352a2.5 2.5 0 0 1-.658 2.375l-.308.308L5.264 8.91A2.5 2.5 0 0 1 5 7.792V1.5Z" clip-rule="evenodd"/></svg>