<svg xmlns="http://www.w3.org/2000/svg" fill="none" viewBox="0 0 16 16"><path fill="#0E1011" d="M5 13.5c0-.207.168-.375.375-.375h5.25a.375.375 0 0 1 0 .75h-5.25A.375.375 0 0 1 5 13.5Z"/><path fill="#0E1011" fill-rule="evenodd" d="M2 2.5A2.5 2.5 0 0 1 4.5 0h7A2.5 2.5 0 0 1 14 2.5v11a2.5 2.5 0 0 1-2.5 2.5h-7A2.5 2.5 0 0 1 2 13.5v-11ZM11 1h.5A1.5 1.5 0 0 1 13 2.5v11a1.5 1.5 0 0 1-1.5 1.5h-7A1.5 1.5 0 0 1 3 13.5v-11A1.5 1.5 0 0 1 4.5 1H5v.5a.5.5 0 0 0 .5.5h5a.5.5 0 0 0 .5-.5V1Z" clip-rule="evenodd"/></svg>