<svg xmlns="http://www.w3.org/2000/svg" fill="none" viewBox="0 0 12 12"><path fill="#0E1011" fill-rule="evenodd" d="M3.188.375c-.932 0-1.688.756-1.688 1.688v7.874c0 .933.756 1.688 1.688 1.688h5.624c.932 0 1.688-.755 1.688-1.688V2.064c0-.932-.756-1.688-1.688-1.688H3.189ZM2.25 2.063c0-.518.42-.938.938-.938h.562V3h-1.5v-.938Zm1.5 1.687h-1.5v1.875h1.5V3.75Zm-1.5 2.625h1.5V8.25h-1.5V6.375ZM2.25 9h1.5v1.875h-.563a.937.937 0 0 1-.937-.938V9Zm7.5-6.938a.937.937 0 0 0-.938-.937H8.25V3h1.5v-.938ZM8.25 3.75h1.5v1.875h-1.5V3.75Zm1.5 2.625h-1.5V8.25h1.5V6.375ZM9.75 9h-1.5v1.875h.563c.517 0 .937-.42.937-.938V9Z" clip-rule="evenodd"/></svg>