<svg xmlns="http://www.w3.org/2000/svg" height="18" fill="none" viewBox="0 0 16 18"><path fill="#0E1011" fill-rule="evenodd" d="M9.814.979 8.74 6.348a.5.5 0 1 1-.98-.196l.426-2.13-1.082 1.082a.5.5 0 1 1-.708-.708L9.814.98Zm-9.418.417a.5.5 0 0 1 .708 0l14.5 14.5a.5.5 0 0 1-.708.707l-4.26-4.26-5.143 4.775 1.88-6.27-5.836-1.592L4.543 6.25.396 2.104a.5.5 0 0 1 0-.708ZM5.25 6.957 3.463 8.744l4.915 1.34L5.25 6.958Zm3.335 3.335-1.078 3.59 2.42-2.247-1.342-1.343ZM9.58 7.93a.5.5 0 0 1 .614-.35L14.5 8.753l-1.955 1.816a.5.5 0 1 1-.68-.733l.637-.591-2.57-.701a.5.5 0 0 1-.35-.614Z" clip-rule="evenodd"/></svg>