<svg xmlns="http://www.w3.org/2000/svg" fill="none" viewBox="0 0 16 16"><path fill="#0E1011" fill-rule="evenodd" d="M3.5 1a1.5 1.5 0 1 0 0 3 1.5 1.5 0 0 0 0-3M1 2.5a2.5 2.5 0 1 1 3 2.45v8.135a1.5 1.5 0 1 1-1 0V4.95A2.5 2.5 0 0 1 1 2.5M9.854.146a.5.5 0 0 1 0 .708L8.707 2H10.5A2.5 2.5 0 0 1 13 4.5v6.55a2.5 2.5 0 1 1-1 0V4.5A1.5 1.5 0 0 0 10.5 3H8.707l1.147 1.146a.5.5 0 0 1-.708.708L6.793 2.5 9.146.146a.5.5 0 0 1 .708 0ZM12.5 12a1.5 1.5 0 1 0 0 3 1.5 1.5 0 0 0 0-3m-9 2a.5.5 0 1 0 0 1 .5.5 0 0 0 0-1" clip-rule="evenodd"/></svg>