<svg xmlns="http://www.w3.org/2000/svg" fill="none" viewBox="0 0 12 12"><path fill="#0E1011" fill-rule="evenodd" d="M2.627.375c.157 0 .297.1.35.247L4.387 4.5h3.225L9.022.622a.375.375 0 0 1 .704-.004l2.155 5.746a.75.75 0 0 1-.234.849L6.35 11.449a.562.562 0 0 1-.702 0L.353 7.213a.75.75 0 0 1-.234-.85L2.274.619a.375.375 0 0 1 .353-.243ZM2.62 1.832.822 6.627 6 10.77l5.178-4.143L9.38 1.832 8.227 5.003a.375.375 0 0 1-.352.247h-3.75a.375.375 0 0 1-.352-.247L2.62 1.833Z" clip-rule="evenodd"/><path fill="#0E1011" d="M.822 6.627 2.62 1.832l1.153 3.171a.375.375 0 0 0 .352.247h3.75a.375.375 0 0 0 .352-.247l1.153-3.17 1.798 4.794L6 10.77.822 6.627Z"/></svg>