<svg xmlns="http://www.w3.org/2000/svg" fill="none" viewBox="0 0 16 16"><path fill="#0E1011" d="M12 4a4 4 0 1 1-8 0 4 4 0 0 1 8 0M4.168 9a2.5 2.5 0 0 0-2.475 2.146l-.213 1.491A7.99 7.99 0 0 0 8 16a8.05 8.05 0 0 0 1.505-.141A4.49 4.49 0 0 1 8 12.5c0-1.414.652-2.675 1.671-3.5H4.168"/><path fill="#0E1011" fill-rule="evenodd" d="M16 12.5a3.5 3.5 0 1 1-7 0 3.5 3.5 0 0 1 7 0M12.5 10a.5.5 0 0 1 .5.5V12h1.5a.5.5 0 0 1 0 1H13v1.75a.5.5 0 0 1-1 0V13h-1.5a.5.5 0 0 1 0-1H12v-1.5a.5.5 0 0 1 .5-.5" clip-rule="evenodd"/></svg>