<svg xmlns="http://www.w3.org/2000/svg" fill="none" viewBox="0 0 16 16"><path fill="#0E1011" fill-rule="evenodd" d="M2.5 2a.5.5 0 0 0-.5.5v3a.5.5 0 0 0 .5.5h11a.5.5 0 0 0 .5-.5v-3a.5.5 0 0 0-.5-.5h-11ZM1 2.5A1.5 1.5 0 0 1 2.5 1h11A1.5 1.5 0 0 1 15 2.5v3A1.5 1.5 0 0 1 13.5 7h-11A1.5 1.5 0 0 1 1 5.5v-3ZM2.5 10a.5.5 0 0 0-.5.5v3a.5.5 0 0 0 .5.5h11a.5.5 0 0 0 .5-.5v-3a.5.5 0 0 0-.5-.5h-11Zm-1.5.5A1.5 1.5 0 0 1 2.5 9h11a1.5 1.5 0 0 1 1.5 1.5v3a1.5 1.5 0 0 1-1.5 1.5h-11A1.5 1.5 0 0 1 1 13.5v-3Z" clip-rule="evenodd"/></svg>