<svg xmlns="http://www.w3.org/2000/svg" fill="none" viewBox="0 0 16 16"><path fill="#0E1011" fill-rule="evenodd" d="M8.844.637a1 1 0 0 0-1.601.26L4.37 6.643a3.5 3.5 0 0 0-.207.51A1.494 1.494 0 0 0 3.5 7h-2A1.5 1.5 0 0 0 0 8.5v6A1.5 1.5 0 0 0 1.5 16h2c.384 0 .735-.144 1-.382.265.238.616.382 1 .382h5.394a3.5 3.5 0 0 0 3.292-2.311l1.567-4.34A2.5 2.5 0 0 0 13.4 6h-3.76l.432-1.73a3.5 3.5 0 0 0-.92-3.325L8.843.637ZM4 14.5v-6a.5.5 0 0 0-.5-.5h-2a.5.5 0 0 0-.5.5v6a.5.5 0 0 0 .5.5h2a.5.5 0 0 0 .5-.5Zm1 0a.5.5 0 0 0 .5.5h5.394a2.5 2.5 0 0 0 2.351-1.65l1.567-4.34A1.5 1.5 0 0 0 13.402 7H9a.5.5 0 0 1-.485-.621l.588-2.352a2.5 2.5 0 0 0-.658-2.375l-.308-.308L5.264 7.09A2.5 2.5 0 0 0 5 8.208V14.5Z" clip-rule="evenodd"/></svg>