<svg xmlns="http://www.w3.org/2000/svg" fill="none" viewBox="0 0 12 12"><path fill="#0E1011" d="M9 8a1 1 0 1 0 0-2 1 1 0 0 0 0 2Z"/><path fill="#0E1011" fill-rule="evenodd" d="M1.766 1.125c-.324 0-.632.114-.875.315-.463.32-.766.855-.766 1.46V9c0 1.036.84 1.875 1.875 1.875h8.002a1.875 1.875 0 0 0 1.875-1.872l.001-.942.001-.028V5c0-.721-.407-1.347-1.004-1.661V3c0-1.036-.84-1.875-1.875-1.875H1.766Zm-.42.913c.16-.103.35-.163.554-.163H9c.621 0 1.125.504 1.125 1.125v.129a1.898 1.898 0 0 0-.12-.004H1.765a.625.625 0 0 1-.42-1.087Zm-.471 1.51V9c0 .621.504 1.125 1.125 1.125h8.002c.62 0 1.124-.503 1.125-1.123l.002-1.705V5c0-.621-.503-1.125-1.125-1.125H1.766c-.35 0-.657-.125-.891-.326Z" clip-rule="evenodd"/></svg>