<svg xmlns="http://www.w3.org/2000/svg" fill="none" viewBox="0 0 16 16"><path fill="#0E1011" fill-rule="evenodd" d="M8 11a3 3 0 1 0 0-6 3 3 0 0 0 0 6m0-.75a2.25 2.25 0 1 0 0-4.5 2.25 2.25 0 0 0 0 4.5" clip-rule="evenodd"/><path fill="#0E1011" d="M11.75 5a.75.75 0 1 0 0-1.5.75.75 0 0 0 0 1.5"/><path fill="#0E1011" fill-rule="evenodd" d="M4.5 1A3.5 3.5 0 0 0 1 4.5v7A3.5 3.5 0 0 0 4.5 15h7a3.5 3.5 0 0 0 3.5-3.5v-7A3.5 3.5 0 0 0 11.5 1zm7 1h-7A2.5 2.5 0 0 0 2 4.5v7A2.5 2.5 0 0 0 4.5 14h7a2.5 2.5 0 0 0 2.5-2.5v-7A2.5 2.5 0 0 0 11.5 2" clip-rule="evenodd"/></svg>