<svg xmlns="http://www.w3.org/2000/svg" fill="none" viewBox="0 0 12 12"><path fill="#0E1011" fill-rule="evenodd" d="M2 1.5a.75.75 0 0 1 .75-.75H7v1.5a1.5 1.5 0 0 0 1.5 1.5H10v1.875a.375.375 0 0 0 .75 0V3.22L7.53 0H2.75a1.5 1.5 0 0 0-1.5 1.5v9a1.5 1.5 0 0 0 1.5 1.5H6a.375.375 0 0 0 0-.75H2.75A.75.75 0 0 1 2 10.5v-9ZM9.47 3 7.75 1.28v.97c0 .414.336.75.75.75h.97Z" clip-rule="evenodd"/><path fill="#0E1011" fill-rule="evenodd" d="M12 9.5a2.5 2.5 0 1 1-5 0 2.5 2.5 0 0 1 5 0ZM9.5 7.714c.197 0 .357.16.357.357v1.072h1.072a.357.357 0 0 1 0 .714H9.857v1.25a.357.357 0 1 1-.714 0v-1.25H8.07a.357.357 0 1 1 0-.714h1.072V8.07c0-.197.16-.357.357-.357Z" clip-rule="evenodd"/></svg>