<svg xmlns="http://www.w3.org/2000/svg" fill="none" viewBox="0 0 12 12"><path fill="#0E1011" fill-rule="evenodd" d="M6 3.75a2.25 2.25 0 1 0 0 4.5 2.25 2.25 0 0 0 0-4.5ZM4.406 5.813c0-.777.63-1.407 1.407-1.407H6v.563h-.188a.844.844 0 0 0-.843.843V6h-.563v-.188Z" clip-rule="evenodd"/><path fill="#0E1011" fill-rule="evenodd" d="M4.28.25a.75.75 0 0 0-.53.22L3.22 1H1.687C.756 1 0 1.756 0 2.688v6.624C0 10.245.756 11 1.688 11h8.624C11.245 11 12 10.245 12 9.312V2.689C12 1.756 11.245 1 10.312 1H8.78L8.25.47a.75.75 0 0 0-.53-.22H4.28ZM3 6a3 3 0 1 1 6 0 3 3 0 0 1-6 0Z" clip-rule="evenodd"/></svg>