<svg xmlns="http://www.w3.org/2000/svg" fill="none" viewBox="0 0 16 16"><path fill="#0E1011" fill-rule="evenodd" d="M2.553.276a.5.5 0 0 1 .67-.223l.928.463a1 1 0 0 1 .26.188l.443.443C5.221 1.051 5.604 1 6 1h4c.395 0 .78.051 1.146.147l.443-.443a.999.999 0 0 1 .26-.188l.927-.463a.5.5 0 0 1 .671.223l.17.339a2.5 2.5 0 0 1 .189 1.724l-.139.553c.524.736.833 1.636.833 2.608v1a5.502 5.502 0 0 1-4.173 5.339c.114.276.173.573.173.868V15.5a.5.5 0 0 1-1 0v-2.793c0-.328-.132-.657-.354-.878a.5.5 0 0 1 .305-.851A4.5 4.5 0 0 0 13.5 6.5v-1c0-.827-.286-1.586-.766-2.185a.5.5 0 0 1-.095-.434l.197-.785a1.5 1.5 0 0 0-.064-.923l-.476.238-.654.654a.5.5 0 0 1-.515.12A3.496 3.496 0 0 0 10 2H6c-.395 0-.774.065-1.127.185a.5.5 0 0 1-.515-.12l-.654-.654-.476-.238a1.5 1.5 0 0 0-.063.923l.196.785a.5.5 0 0 1-.095.434A3.483 3.483 0 0 0 2.5 5.5v1c0 2.2 1.58 4.033 3.667 4.423a.5.5 0 0 1 .262.845.921.921 0 0 0-.217.378.632.632 0 0 0-.014.367l.172.517c.086.258.13.527.13.799V15.5a.5.5 0 0 1-1 0V14H5c-.96 0-1.593-.635-2.06-1.103l-.044-.043C2.368 12.324 2.01 12 1.5 12H1a.5.5 0 0 1 0-1h.5c.96 0 1.593.635 2.06 1.103l.044.043c.528.53.886.854 1.396.854h.306l-.057-.171a1.621 1.621 0 0 1 .005-.968c.013-.044.028-.087.044-.13A5.502 5.502 0 0 1 1.5 6.5v-1c0-.972.308-1.872.833-2.608l-.139-.553a2.5 2.5 0 0 1 .19-1.724l.169-.339Z" clip-rule="evenodd"/></svg>