<svg xmlns="http://www.w3.org/2000/svg" fill="none" viewBox="0 0 16 16"><path fill="#0E1011" fill-rule="evenodd" d="M7.654 1.084a.75.75 0 0 1 .708 0l7.225 3.867a.75.75 0 0 1 .396.66v4.701a.75.75 0 0 1-.396.662L8.362 14.84a.75.75 0 0 1-.708 0L.43 10.974a.75.75 0 0 1-.396-.662v-4.7A.75.75 0 0 1 .43 4.95l7.225-3.867M1.545 5.488l5.963-3.191v3.382l-2.822 1.7-3.14-1.891Zm-.512.859v3.23l2.684-1.615-2.684-1.615m3.653 2.199-3.14 1.89 5.962 3.191v-3.382l-2.822-1.7m3.822 5.081 5.963-3.19-3.14-1.891-2.823 1.699v3.382M12.3 7.962l2.683 1.615v-3.23L12.3 7.962m2.171-2.474-3.14 1.89L8.507 5.68V2.297l5.963 3.19m-4.11 2.474L8.008 9.378 5.655 7.962l2.353-1.416 2.353 1.416" clip-rule="evenodd"/></svg>