<svg xmlns="http://www.w3.org/2000/svg" fill="none" viewBox="0 0 12 12"><path fill="#0E1011" fill-rule="evenodd" d="M1.688 1C.755 1 0 1.756 0 2.688v6.624C0 10.245.756 11 1.688 11h8.624C11.245 11 12 10.245 12 9.312V2.689C12 1.756 11.245 1 10.312 1H1.688Zm.187 2.75a.375.375 0 1 0 0 .75h.375A3.75 3.75 0 0 1 6 8.25v.375a.375.375 0 1 0 .75 0V8.25a4.5 4.5 0 0 0-4.5-4.5h-.375Zm0 2.25a.375.375 0 1 0 0 .75h.375a1.5 1.5 0 0 1 1.5 1.5v.375a.375.375 0 1 0 .75 0V8.25A2.25 2.25 0 0 0 2.25 6h-.375Z" clip-rule="evenodd"/></svg>