<svg xmlns="http://www.w3.org/2000/svg" fill="none" viewBox="0 0 16 16"><path fill="#0E1011" d="M8 1a.5.5 0 0 1 .5.5v2.793l1.146-1.147a.5.5 0 0 1 .708.708L8 6.207 5.646 3.854a.5.5 0 1 1 .708-.708L7.5 4.293V1.5A.5.5 0 0 1 8 1M2.697 5.197a.5.5 0 0 1 .707 0L4.818 6.61a.5.5 0 0 1-.707.707L2.697 5.904a.5.5 0 0 1 0-.707M13.303 5.197a.5.5 0 0 1 0 .707L11.89 7.318a.5.5 0 1 1-.707-.707l1.414-1.414a.5.5 0 0 1 .707 0M.5 10.5A.5.5 0 0 1 1 10h2a.5.5 0 0 1 0 1H1a.5.5 0 0 1-.5-.5M12.5 10.5a.5.5 0 0 1 .5-.5h2a.5.5 0 0 1 0 1h-2a.5.5 0 0 1-.5-.5"/><path fill="#0E1011" fill-rule="evenodd" d="M4.5 10.25A3.25 3.25 0 0 1 7.75 7h.5a3.25 3.25 0 0 1 3.25 3.25V11h-7zM5.514 10h4.972A2.25 2.25 0 0 0 8.25 8h-.5a2.25 2.25 0 0 0-2.236 2" clip-rule="evenodd"/><path fill="#0E1011" d="M1 13a.5.5 0 0 0 0 1h14a.5.5 0 0 0 0-1z"/></svg>