<svg xmlns="http://www.w3.org/2000/svg" fill="none" viewBox="0 0 12 12"><path fill="#000" fill-rule="evenodd" d="M.733.267a.33.33 0 1 0-.466.466l2.171 2.172a3.823 3.823 0 0 0-.275 1.428v1.03c0 .712-.282 1.394-.786 1.897l-.41.411a1.15 1.15 0 0 0-.337.813v.45c0 .423.343.766.767.766h7.836l2.034 2.033a.33.33 0 0 0 .466-.466l-11-11Zm7.734 8.666L4.223 4.69a.382.382 0 0 1-.526-.356c0-.055.002-.11.006-.164l-.66-.66a3.07 3.07 0 0 0-.113.824v1.03a3.45 3.45 0 0 1-1.01 2.44l-.411.41a.383.383 0 0 0-.112.271v.45h7.07ZM5.997.5c-.973 0-1.861.362-2.537.96l.543.543a3.067 3.067 0 0 1 5.06 2.33v1.03a3.45 3.45 0 0 0 1.01 2.44l.411.41c.072.072.113.17.113.271v.113l.684.683a.764.764 0 0 0 .082-.347v-.449a1.15 1.15 0 0 0-.336-.813l-.411-.41a2.683 2.683 0 0 1-.786-1.898v-1.03A3.833 3.833 0 0 0 5.997.5Zm-1.45 2.047.547.547c.26-.19.576-.294.903-.294a.383.383 0 0 0 0-.767 2.3 2.3 0 0 0-1.45.514ZM5.997 12a1.917 1.917 0 0 1-1.917-1.917h.767a1.15 1.15 0 0 0 2.3 0h.766A1.917 1.917 0 0 1 5.997 12Z" clip-rule="evenodd"/></svg>