<svg xmlns="http://www.w3.org/2000/svg" fill="none" viewBox="0 0 16 16"><path fill="#0E1011" fill-rule="evenodd" d="M3 6a5 5 0 0 1 10 0v1.343a3.5 3.5 0 0 0 1.025 2.475l.536.536a1.5 1.5 0 0 1 .439 1.06V12a1 1 0 0 1-1 1H2a1 1 0 0 1-1-1v-.586c0-.398.158-.78.44-1.06l.535-.536A3.5 3.5 0 0 0 3 7.343zm5-4a4 4 0 0 0-4 4v1.343a4.5 4.5 0 0 1-1.318 3.182l-.536.536a.5.5 0 0 0-.146.353V12h12v-.586a.5.5 0 0 0-.146-.353l-.536-.536A4.5 4.5 0 0 1 12 7.343V6a4 4 0 0 0-4-4m0 14a2.5 2.5 0 0 1-2.5-2.5h1a1.5 1.5 0 0 0 3 0h1A2.5 2.5 0 0 1 8 16M6.586 4.586A2 2 0 0 1 8 4a.5.5 0 0 0 0-1 3 3 0 0 0-3 3 .5.5 0 0 0 1 0 2 2 0 0 1 .586-1.414Z" clip-rule="evenodd"/></svg>