<svg xmlns="http://www.w3.org/2000/svg" fill="none" viewBox="0 0 16 16"><path fill="#0E1011" d="M7 4c3.866 0 7-.895 7-2s-3.134-2-7-2-7 .895-7 2 3.134 2 7 2Z"/><path fill="#0E1011" d="M7 5c3.866 0 7-.895 7-2v3.5c0 .223-.082.44-.236.646A5.516 5.516 0 0 0 12.5 7c-1.688 0-3.198.76-4.207 1.957C7.873 8.985 7.442 9 7 9 3.134 9 0 7.88 0 6.5V3c0 1.105 3.134 2 7 2Z"/><path fill="#0E1011" d="M7 12.5c0-.903.218-1.755.603-2.507-.198.005-.4.007-.603.007-3.866 0-7-.895-7-2v3.5C0 12.88 3.134 14 7 14l.207-.001A5.504 5.504 0 0 1 7 12.5Z"/><path fill="#0E1011" fill-rule="evenodd" d="M16 12.5a3.5 3.5 0 1 1-7 0 3.5 3.5 0 0 1 7 0ZM12.5 10a.5.5 0 0 1 .5.5V12h1.5a.5.5 0 0 1 0 1H13v1.5a.5.5 0 0 1-1 0V13h-1.5a.5.5 0 0 1 0-1H12v-1.5a.5.5 0 0 1 .5-.5Z" clip-rule="evenodd"/></svg>