<svg xmlns="http://www.w3.org/2000/svg" fill="none" viewBox="0 0 12 12"><path fill="#0E1011" d="M4.5 3.25a.25.25 0 0 0 0 .5h1a.25.25 0 0 0 0-.5h-1Z"/><path fill="#0E1011" fill-rule="evenodd" d="M1.125 9.5c0-.225.054-.437.15-.625H1A.875.875 0 0 1 .125 8V2c0-.483.392-.875.875-.875h6c.483 0 .875.392.875.875v2.125H9.5A2.375 2.375 0 0 1 11.875 6.5V8a.875.875 0 0 1-.875.875H9.725a1.375 1.375 0 1 1-2.45 0h-3.55a1.375 1.375 0 1 1-2.6.625ZM.875 2c0-.069.056-.125.125-.125h6c.069 0 .125.056.125.125v6.125H1A.125.125 0 0 1 .875 8V3.75H3.5a.25.25 0 0 0 0-.5H.875V2ZM11 8.125H7.875v-3.25H9.5c.898 0 1.625.728 1.625 1.625V8a.125.125 0 0 1-.125.125ZM7.875 9.5a.625.625 0 1 1 1.25 0 .625.625 0 0 1-1.25 0Zm-6 0a.625.625 0 1 1 1.25 0 .625.625 0 0 1-1.25 0Z" clip-rule="evenodd"/></svg>