<svg xmlns="http://www.w3.org/2000/svg" fill="none" viewBox="0 0 16 16"><path fill="#0E1011" d="M2.5 2A2.5 2.5 0 0 0 0 4.5v7A2.5 2.5 0 0 0 2.5 14h5a.5.5 0 0 0 0-1h-5A1.5 1.5 0 0 1 1 11.53l2.5-2.5 2 2 5-5 1.735 1.735a.375.375 0 0 0 .53-.53L10.5 4.97l-5 5-2-2-2.5 2.5V4.5A1.5 1.5 0 0 1 2.5 3h11A1.5 1.5 0 0 1 15 4.5v3a.5.5 0 0 0 1 0v-3A2.5 2.5 0 0 0 13.5 2z"/><path fill="#0E1011" fill-rule="evenodd" d="M3.5 7a1.5 1.5 0 1 0 0-3 1.5 1.5 0 0 0 0 3m0-.75a.75.75 0 1 0 0-1.5.75.75 0 0 0 0 1.5M16 12.5a3.5 3.5 0 1 1-7 0 3.5 3.5 0 0 1 7 0m-3.5-2a.5.5 0 0 1 .5.5v1h1a.5.5 0 0 1 0 1h-1v1a.5.5 0 0 1-1 0v-1h-1a.5.5 0 0 1 0-1h1v-1a.5.5 0 0 1 .5-.5" clip-rule="evenodd"/></svg>