<svg xmlns="http://www.w3.org/2000/svg" fill="none" viewBox="0 0 12 12"><path fill="#0E1011" fill-rule="evenodd" d="M6 12A6 6 0 1 0 6 0a6 6 0 0 0 0 12Zm5.25-6c0 2.9-2.35 5.25-5.25 5.25h-.03l2.227-3.953c.224-.38.353-.824.353-1.297 0-.703-.284-1.339-.744-1.8h2.781a.374.374 0 0 0 .293-.14c.239.6.37 1.255.37 1.94Zm-.66-2.55H6A2.551 2.551 0 0 0 3.538 5.33L2.152 2.922a.374.374 0 0 0-.267-.183 5.248 5.248 0 0 1 8.705.71ZM1.5 3.293a5.251 5.251 0 0 0 3.784 7.908.374.374 0 0 1 .027-.31l1.37-2.433A2.553 2.553 0 0 1 3.765 7.23L1.502 3.296l-.001-.003ZM6 7.8a1.8 1.8 0 0 1-1.559-.9l-.019-.032a1.8 1.8 0 1 1 3.135.036l-.007.013A1.8 1.8 0 0 1 6 7.8Z" clip-rule="evenodd"/></svg>