<svg xmlns="http://www.w3.org/2000/svg" fill="none" viewBox="0 0 16 16"><path fill="#0E1011" d="M7 6.5a.5.5 0 0 0-1 0v4a.5.5 0 0 0 1 0v-4ZM10 6.5a.5.5 0 0 0-1 0v4a.5.5 0 0 0 1 0v-4Z"/><path fill="#0E1011" fill-rule="evenodd" d="M6.5 0a1 1 0 0 0-1 1v1h-4a.5.5 0 0 0 0 1H2v5c0 1.573.378 3.687.668 5.08.237 1.14 1.25 1.92 2.394 1.92h5.876c1.145 0 2.157-.78 2.394-1.92.29-1.393.668-3.507.668-5.08V3h.5a.5.5 0 0 0 0-1h-4V1a1 1 0 0 0-1-1h-3Zm3 2h-3V1h3v1ZM3 3h10v5c0 1.46-.358 3.484-.647 4.876A1.427 1.427 0 0 1 10.938 14H5.062a1.427 1.427 0 0 1-1.415-1.124C3.357 11.484 3 9.46 3 8V3Z" clip-rule="evenodd"/></svg>