<svg xmlns="http://www.w3.org/2000/svg" fill="none" viewBox="0 0 16 16"><path fill="#0E1011" d="M9.288 8.712a.3.3 0 1 1 .424-.424l3.207 3.207a1.3 1.3 0 0 1 .381.92v.085a.3.3 0 1 1-.6 0v-.086a.7.7 0 0 0-.205-.495L9.288 8.712Z"/><path fill="#0E1011" fill-rule="evenodd" d="M4.5 2.5v1.293l3.354 3.353a.498.498 0 0 1 .138.267 2.311 2.311 0 0 1 2.854.17l3.315 2.947A2.5 2.5 0 0 1 15 12.398v.102a2.5 2.5 0 0 1-2.5 2.5h-.102a2.5 2.5 0 0 1-1.868-.84l-2.946-3.313a2.311 2.311 0 0 1-.171-2.855.498.498 0 0 1-.267-.138L3.793 4.5H2.5L1 2l1-1 2.5 1.5ZM8 9.311a1.311 1.311 0 0 1 2.182-.98l3.314 2.946A1.5 1.5 0 0 1 14 12.398v.102a1.5 1.5 0 0 1-1.5 1.5h-.102a1.5 1.5 0 0 1-1.121-.504l-2.946-3.314A1.311 1.311 0 0 1 8 9.313Z" clip-rule="evenodd"/></svg>