<svg xmlns="http://www.w3.org/2000/svg" fill="none" viewBox="0 0 12 12"><path fill="#0E1011" fill-rule="evenodd" d="M5.997 1h.158a65.418 65.418 0 0 1 1.723.032c.497.015 1.025.039 1.486.075.45.035.87.084 1.132.158l.015.005c.314.104.59.3.807.56a2.14 2.14 0 0 1 .442.94c.165 1.07.245 2.156.24 3.242a20.56 20.56 0 0 1-.244 3.215 2.14 2.14 0 0 1-.438.918c-.216.261-.493.457-.807.561l-.006.002c-.264.083-.688.136-1.138.175-.462.04-.99.065-1.487.082A60.175 60.175 0 0 1 6.155 11H6.04L5.999 11h-.154a68.094 68.094 0 0 1-1.725-.035 30.81 30.81 0 0 1-1.487-.082c-.45-.039-.873-.092-1.138-.175h-.003a1.77 1.77 0 0 1-.796-.536 2.122 2.122 0 0 1-.456-.919A20.562 20.562 0 0 1 0 6.012a20.56 20.56 0 0 1 .244-3.24c.073-.34.222-.657.438-.917a1.78 1.78 0 0 1 .807-.561l.006-.002c.265-.083.688-.136 1.138-.175.462-.04.99-.065 1.487-.082A60.323 60.323 0 0 1 5.845 1h.114L5.997 1ZM4.681 3.629a.382.382 0 0 0-.596.32V8.05a.382.382 0 0 0 .595.32L7.745 6.32a.385.385 0 0 0 0-.64L4.681 3.629Z" clip-rule="evenodd"/></svg>