<svg xmlns="http://www.w3.org/2000/svg" fill="none" viewBox="0 0 12 12"><path fill="#0E1011" fill-rule="evenodd" d="M0 4.875A4.125 4.125 0 0 1 4.125.75h3.75A4.125 4.125 0 0 1 12 4.875v.75A4.125 4.125 0 0 1 7.875 9.75h-3.75c-.189 0-.375-.013-.557-.037L1.5 11.78V8.807A4.117 4.117 0 0 1 0 5.625v-.75ZM4.125 1.5A3.375 3.375 0 0 0 .75 4.875v.75a3.37 3.37 0 0 0 1.35 2.7l.15.113V9.97l1.062-1.062.194.035c.2.038.407.057.619.057h3.75a3.375 3.375 0 0 0 3.375-3.375v-.75A3.375 3.375 0 0 0 7.875 1.5h-3.75Z" clip-rule="evenodd"/><path fill="#0E1011" d="M.75 4.875A3.375 3.375 0 0 1 4.125 1.5h3.75a3.375 3.375 0 0 1 3.375 3.375v.75A3.375 3.375 0 0 1 7.875 9h-3.75c-.212 0-.419-.02-.619-.057l-.194-.035L2.25 9.97V8.438l-.15-.113a3.37 3.37 0 0 1-1.35-2.7v-.75Z"/></svg>