<svg xmlns="http://www.w3.org/2000/svg" fill="none" viewBox="0 0 12 12"><path fill="#0E1011" d="M5.997 12a1.917 1.917 0 0 1-1.917-1.917h.767a1.15 1.15 0 1 0 2.3 0h.766A1.917 1.917 0 0 1 5.997 12Z"/><path fill="#0E1011" fill-rule="evenodd" d="M5.997.5a3.833 3.833 0 0 0-3.834 3.833v1.03c0 .712-.282 1.394-.786 1.897l-.41.411a1.15 1.15 0 0 0-.337.813v.45c0 .423.343.766.767.766h9.2a.767.767 0 0 0 .766-.767v-.449a1.15 1.15 0 0 0-.336-.813l-.411-.41a2.683 2.683 0 0 1-.786-1.898v-1.03A3.833 3.833 0 0 0 5.997.5ZM4.912 3.25c.288-.288.678-.45 1.085-.45a.383.383 0 1 0 0-.767 2.3 2.3 0 0 0-2.3 2.3.383.383 0 0 0 .766 0c0-.406.162-.796.45-1.084Z" clip-rule="evenodd"/></svg>