<svg xmlns="http://www.w3.org/2000/svg" fill="none" viewBox="0 0 12 12"><path fill="#0E1011" d="M4.969 6.375v-.469H7.03v.469c0 .259-.21.469-.468.469H5.438a.469.469 0 0 1-.47-.469Z"/><path fill="#0E1011" fill-rule="evenodd" d="M4.5.5a.75.75 0 0 0-.75.75V2H.937A.937.937 0 0 0 0 2.938v6.124C0 9.58.42 10 .938 10h10.124c.518 0 .938-.42.938-.938V2.939A.937.937 0 0 0 11.062 2H8.25v-.75A.75.75 0 0 0 7.5.5h-3Zm3 1.5h-3v-.75h3V2ZM1.125 5.344a.281.281 0 0 0 0 .562h3.281v.469c0 .57.462 1.031 1.032 1.031h1.125c.569 0 1.03-.461 1.03-1.031v-.469h3.282a.281.281 0 0 0 0-.562h-9.75Z" clip-rule="evenodd"/></svg>