<svg xmlns="http://www.w3.org/2000/svg" fill="none" viewBox="0 0 16 16"><path fill="#0E1011" d="M4 1a.5.5 0 0 0-1 0v2a.5.5 0 0 0 1 0zM7 1a.5.5 0 0 0-1 0v2a.5.5 0 0 0 1 0zM10 1a.5.5 0 0 0-1 0v2a.5.5 0 0 0 1 0z"/><path fill="#0E1011" fill-rule="evenodd" d="M14.894 9.862 13 10.809V11a3 3 0 0 1-3 3H3a3 3 0 0 1-3-3V7a2 2 0 0 1 2-2h12a2 2 0 0 1 2 2v1.073a2 2 0 0 1-1.106 1.789M1 7a1 1 0 0 1 1-1h10v5a2 2 0 0 1-2 2H3a2 2 0 0 1-2-2zm12 2.691V6h1a1 1 0 0 1 1 1v1.073a1 1 0 0 1-.553.894L13 9.691" clip-rule="evenodd"/></svg>