<svg xmlns="http://www.w3.org/2000/svg" fill="none" viewBox="0 0 12 12"><path fill="#0E1011" d="M4.875 5a.375.375 0 1 0-.75 0v3.5a.375.375 0 1 0 .75 0V5ZM7.875 5a.375.375 0 1 0-.75 0v3.5a.375.375 0 1 0 .75 0V5Z"/><path fill="#0E1011" fill-rule="evenodd" d="M5 .125A.875.875 0 0 0 4.125 1v.125H.5a.375.375 0 1 0 0 .75h.625V5.5c0 1.772.34 3.533.624 4.702.249 1.018 1.174 1.673 2.193 1.673h4.116c1.019 0 1.944-.655 2.193-1.673.284-1.169.624-2.93.624-4.702V1.875h.625a.375.375 0 0 0 0-.75H7.875V1A.875.875 0 0 0 7 .125H5Zm-3.125 1.75h8.25V5.5c0 1.686-.325 3.383-.603 4.524-.16.654-.76 1.101-1.464 1.101H3.942c-.704 0-1.305-.447-1.464-1.101C2.2 8.883 1.875 7.187 1.875 5.5V1.875Zm5.25-.75h-2.25V1c0-.069.056-.125.125-.125h2c.069 0 .125.056.125.125v.125Z" clip-rule="evenodd"/></svg>