<svg xmlns="http://www.w3.org/2000/svg" fill="none" viewBox="0 0 16 16"><path fill="#0E1011" fill-rule="evenodd" d="M10 1.5A3 3 0 0 1 12.959 4h2.291a.5.5 0 0 1 0 1h-2.291A3 3 0 1 1 10 1.5Zm0 1a2 2 0 1 0 0 4 2 2 0 0 0 0-4Z" clip-rule="evenodd"/><path fill="#0E1011" d="M.25 4.5a.5.5 0 0 1 .5-.5H5.5a.5.5 0 0 1 0 1H.75a.5.5 0 0 1-.5-.5Z"/><path fill="#0E1011" fill-rule="evenodd" d="M6 8.5A3 3 0 0 0 3.041 11H.75a.5.5 0 0 0 0 1h2.291A3 3 0 1 0 6 8.5Zm0 1a2 2 0 1 1 0 4 2 2 0 0 1 0-4Z" clip-rule="evenodd"/><path fill="#0E1011" d="M15.75 11.5a.5.5 0 0 0-.5-.5H10.5a.5.5 0 0 0 0 1h4.75a.5.5 0 0 0 .5-.5Z"/></svg>