<svg xmlns="http://www.w3.org/2000/svg" fill="none" viewBox="0 0 16 16"><path fill="#0E1011" fill-rule="evenodd" d="m8 .293 2.354 2.353a.5.5 0 0 1-.708.708L8.5 2.207V7.5h5.293l-1.147-1.146a.5.5 0 0 1 .708-.708L15.707 8l-2.353 2.354a.5.5 0 0 1-.708-.708L13.793 8.5H8.5v5.293l1.146-1.147a.5.5 0 1 1 .708.707L8 15.708l-2.354-2.354a.5.5 0 1 1 .708-.707L7.5 13.793V8.5H2.207l1.147 1.146a.5.5 0 0 1-.708.707L.293 8l2.353-2.354a.5.5 0 1 1 .708.708L2.207 7.5H7.5V2.207L6.354 3.354a.5.5 0 1 1-.708-.708L8 .293Z" clip-rule="evenodd"/></svg>