<svg xmlns="http://www.w3.org/2000/svg" fill="none" viewBox="0 0 12 12"><path fill="#0E1011" fill-rule="evenodd" d="M3.5 2.793V1.5L1 0 0 1l1.5 2.5h1.293l2.573 2.573a2.325 2.325 0 0 0 .194 2.765l1.962 2.289A2.5 2.5 0 0 0 9.42 12h.08A2.5 2.5 0 0 0 12 9.5v-.08a2.5 2.5 0 0 0-.873-1.898L8.838 5.56a2.325 2.325 0 0 0-2.765-.194L3.5 2.793ZM7.325 6a1.325 1.325 0 0 0-1.006 2.187l1.962 2.29A1.5 1.5 0 0 0 9.42 11h.08A1.5 1.5 0 0 0 11 9.5v-.08a1.5 1.5 0 0 0-.524-1.139L8.187 6.319A1.325 1.325 0 0 0 7.325 6Z" clip-rule="evenodd"/></svg>