<svg xmlns="http://www.w3.org/2000/svg" fill="none" viewBox="0 0 16 16"><path fill="#0E1011" d="M1 2.1a.4.4 0 1 0 0 .8h.1v1.2H1a.4.4 0 1 0 0 .8h1a.4.4 0 0 0 0-.8h-.1v-2H1ZM4.5 3.1a.4.4 0 1 0 0 .8h9a.4.4 0 0 0 0-.8h-9ZM4.5 7.6a.4.4 0 1 0 0 .8h11a.4.4 0 0 0 0-.8h-11ZM4.5 12.1a.4.4 0 0 0 0 .8h6a.4.4 0 0 0 0-.8h-6ZM.5 6.6a.4.4 0 1 0 0 .8h1.252L.24 8.696A.4.4 0 0 0 .5 9.4h2a.4.4 0 0 0 0-.8h-.919l.86-.736a.6.6 0 0 0 .21-.456V7.2a.6.6 0 0 0-.6-.6H.5ZM.1 11.5c0-.22.18-.4.4-.4h1.8a.6.6 0 0 1 .6.6v.177a.6.6 0 0 1-.332.536l-.173.087.173.087a.6.6 0 0 1 .332.537v.176a.6.6 0 0 1-.6.6H.5a.4.4 0 0 1 0-.8h1.306l-.485-.242a.4.4 0 0 1 0-.716l.485-.242H.5a.4.4 0 0 1-.4-.4Z"/></svg>