<svg xmlns="http://www.w3.org/2000/svg" fill="none" viewBox="0 0 16 16"><path fill="#0E1011" fill-rule="evenodd" d="M0 2.5A1.5 1.5 0 0 1 1.5 1h4.379a2 2 0 0 1 1.414.586L7.707 2H14a2 2 0 0 1 2 2v3.5a.5.5 0 0 1-1 0V4a1 1 0 0 0-1-1H7.707l-.414.414A2 2 0 0 1 5.879 4H1v8a1 1 0 0 0 1 1h5.5a.5.5 0 0 1 0 1H2a2 2 0 0 1-2-2V2.5ZM1 3h4.879a1 1 0 0 0 .707-.293l.207-.207-.207-.207A1 1 0 0 0 5.879 2H1.5a.5.5 0 0 0-.5.5V3Zm8.646 6.646a.5.5 0 0 1 .708 0l2.146 2.147 2.146-2.147a.5.5 0 0 1 .708.708L13.207 12.5l2.147 2.146a.5.5 0 0 1-.708.708L12.5 13.207l-2.146 2.147a.5.5 0 0 1-.708-.708l2.147-2.146-2.147-2.146a.5.5 0 0 1 0-.708Z" clip-rule="evenodd"/></svg>