<svg xmlns="http://www.w3.org/2000/svg" fill="none" viewBox="0 0 16 16"><path fill="#0E1011" d="M1.75 4A.25.25 0 0 1 2 3.75h2.5a.25.25 0 0 1 0 .5H2A.25.25 0 0 1 1.75 4M6.5 3.75a.25.25 0 0 0 0 .5h3a.25.25 0 0 0 0-.5h-3M11.25 4a.25.25 0 0 1 .25-.25H14a.25.25 0 1 1 0 .5h-2.5a.25.25 0 0 1-.25-.25"/><path fill="#0E1011" fill-rule="evenodd" d="M0 4.5A2.5 2.5 0 0 1 2.5 2h11A2.5 2.5 0 0 1 16 4.5v7a2.5 2.5 0 0 1-2.5 2.5h-11A2.5 2.5 0 0 1 0 11.5zM2.5 3h11A1.5 1.5 0 0 1 15 4.5v.625H1V4.5A1.5 1.5 0 0 1 2.5 3M1 5.875v3.25h4.125v-3.25H1m0 4V11.5A1.5 1.5 0 0 0 2.5 13h2.625V9.875H1M5.875 13h4.25V9.875h-4.25zm5 0H13.5a1.5 1.5 0 0 0 1.5-1.5V9.875h-4.125zM15 9.125v-3.25h-4.125v3.25H15m-9.125 0h4.25v-3.25h-4.25v3.25" clip-rule="evenodd"/></svg>