<svg xmlns="http://www.w3.org/2000/svg" fill="none" viewBox="0 0 12 12"><path fill="#0E1011" fill-rule="evenodd" d="M.828.297a.375.375 0 1 0-.53.53l2.11 2.11C.845 4.255 0 6 0 6s2.182 4.5 6 4.5c1.15 0 2.152-.408 2.99-.98l2.182 2.183a.375.375 0 0 0 .53-.53L.829.296Zm6.224 7.285L4.448 4.978a1.875 1.875 0 0 0 2.604 2.604Z" clip-rule="evenodd"/><path fill="#0E1011" d="M12 6s-.534 1.101-1.536 2.214L7.818 5.567a1.878 1.878 0 0 0-1.355-1.355L4.125 1.875A4.931 4.931 0 0 1 6 1.5c3.818 0 6 4.5 6 4.5Z"/></svg>