<svg xmlns="http://www.w3.org/2000/svg" fill="none" viewBox="0 0 12 12"><path fill="#0E1011" fill-rule="evenodd" d="M5.643 1A4.643 4.643 0 0 0 1 5.643V9.77c0 .461.295.87.733 1.016l.418.14c.145.048.298.073.451.073h.184c.591 0 1.071-.48 1.071-1.071V7.786c0-.592-.48-1.072-1.071-1.072h-.184c-.153 0-.306.025-.451.074l-.437.145v-1.29a3.929 3.929 0 0 1 3.929-3.929h.714a3.929 3.929 0 0 1 3.929 3.929v1.29l-.437-.145a1.428 1.428 0 0 0-.451-.074h-.184c-.591 0-1.071.48-1.071 1.072v2.143c0 .591.48 1.071 1.071 1.071h.184c.153 0 .306-.025.451-.073l.418-.14c.438-.146.733-.555.733-1.016V5.643A4.643 4.643 0 0 0 6.357 1h-.714ZM1.714 7.964v-.278l.663-.22a.714.714 0 0 1 .225-.037h.184c.197 0 .357.16.357.357v2.143c0 .197-.16.357-.357.357h-.184a.717.717 0 0 1-.225-.037l-.419-.14a.357.357 0 0 1-.244-.338v-.735h1.072v-.357H1.714V8.32h1.072v-.357H1.714Zm7.91-.499.662.221v.278H9.214v.357h1.072v.358H9.214v.357h1.072v.735c0 .154-.099.29-.245.339l-.418.14a.717.717 0 0 1-.225.036h-.184a.357.357 0 0 1-.357-.357V7.786c0-.198.16-.357.357-.357h.184c.076 0 .153.012.225.036Z" clip-rule="evenodd"/></svg>