<svg xmlns="http://www.w3.org/2000/svg" fill="none" viewBox="0 0 12 12"><path fill="#0E1011" fill-rule="evenodd" d="M1.875 2.25C1.254 2.25.75 2.754.75 3.375V9.97l.86-.86c.07-.07.166-.11.265-.11h8.25c.621 0 1.125-.504 1.125-1.125v-4.5c0-.621-.504-1.125-1.125-1.125h-8.25ZM0 3.375C0 2.339.84 1.5 1.875 1.5h8.25C11.161 1.5 12 2.34 12 3.375v4.5c0 1.036-.84 1.875-1.875 1.875H2.03L0 11.78V3.375Z" clip-rule="evenodd"/><path fill="#0E1011" d="M.75 3.375c0-.621.504-1.125 1.125-1.125h8.25c.621 0 1.125.504 1.125 1.125v4.5c0 .621-.504 1.125-1.125 1.125h-8.25c-.1 0-.195.04-.265.11l-.86.86V3.375Z"/></svg>