<svg xmlns="http://www.w3.org/2000/svg" fill="none" viewBox="0 0 12 12"><path fill="#0E1011" fill-rule="evenodd" d="M.828.297a.375.375 0 1 0-.53.53l.784.785A1.688 1.688 0 0 0 0 3.187v5.626C0 9.744.756 10.5 1.688 10.5H9.97l1.202 1.203a.375.375 0 0 0 .53-.53L.829.296Zm.86 1.953h.032l1.977 1.977a2.906 2.906 0 0 0 4.076 4.076L9.22 9.75H1.687a.937.937 0 0 1-.937-.938V3.189c0-.518.42-.938.938-.938ZM7.37 7.901 4.099 4.63A2.344 2.344 0 0 0 7.37 7.901Z" clip-rule="evenodd"/><path fill="#0E1011" d="M4.28.75a.75.75 0 0 0-.53.22l-.265.265a.375.375 0 1 0 .53.53L4.28 1.5h3.44l.53.53c.14.141.331.22.53.22h1.533c.517 0 .937.42.937.938v5.624c0 .12-.022.235-.063.34a.375.375 0 1 0 .7.27c.073-.19.113-.395.113-.61V3.189c0-.932-.755-1.688-1.688-1.688H8.78L8.25.97a.75.75 0 0 0-.53-.22H4.28Z"/><path fill="#0E1011" d="M5.686 3.677a2.344 2.344 0 0 1 2.637 2.637.281.281 0 1 0 .557.075 2.906 2.906 0 0 0-3.27-3.27.281.281 0 1 0 .076.558Z"/></svg>