<svg xmlns="http://www.w3.org/2000/svg" fill="none" viewBox="0 0 12 12"><path fill="#0E1011" fill-rule="evenodd" d="M.154 10.011 5.018.638c.102-.195.247-.356.419-.467C5.609.059 5.803 0 6 0c.197 0 .391.059.563.17.172.112.317.273.419.468l4.864 9.373c.1.2.153.428.154.66 0 .231-.051.459-.15.66-.1.201-.243.369-.416.486-.173.117-.37.18-.57.183H1.136a1.035 1.035 0 0 1-.57-.183 1.255 1.255 0 0 1-.415-.486A1.487 1.487 0 0 1 0 10.67c0-.232.054-.46.154-.66ZM6.656 4.5a.656.656 0 1 0-1.312 0v2.625a.656.656 0 1 0 1.312 0V4.5Zm0 4.125a.656.656 0 1 0-1.312 0V9a.656.656 0 0 0 1.312 0v-.375Z" clip-rule="evenodd"/></svg>