<svg xmlns="http://www.w3.org/2000/svg" fill="none" viewBox="0 0 12 12"><path fill="#0E1011" d="M5 6.25a.25.25 0 0 0 0 .5h2a.25.25 0 0 0 0-.5H5Z"/><path fill="#0E1011" fill-rule="evenodd" d="M.125 2c0-.483.392-.875.875-.875h10c.483 0 .875.392.875.875v2a.875.875 0 0 1-.875.875V9c0 1.036-.84 1.875-1.875 1.875h-6.25A1.875 1.875 0 0 1 1 9V4.875A.875.875 0 0 1 .125 4V2ZM1.75 4.875h8.5V9c0 .621-.504 1.125-1.125 1.125h-6.25A1.125 1.125 0 0 1 1.75 9V4.875Zm9.25-.75H1A.125.125 0 0 1 .875 4V2c0-.069.056-.125.125-.125h10c.069 0 .125.056.125.125v2a.125.125 0 0 1-.125.125Z" clip-rule="evenodd"/></svg>