<svg xmlns="http://www.w3.org/2000/svg" fill="none" viewBox="0 0 12 12"><path fill="#0E1011" fill-rule="evenodd" d="M1.915.207A.375.375 0 0 1 2.418.04l.695.347a.75.75 0 0 1 .195.14l.333.333A3.38 3.38 0 0 1 4.5.75h3c.297 0 .585.038.86.11l.332-.332a.75.75 0 0 1 .195-.14L9.582.04a.375.375 0 0 1 .503.167l.127.254c.2.4.25.859.142 1.293l-.103.415c.393.552.624 1.227.624 1.956v.75a4.126 4.126 0 0 1-3.13 4.004c.086.207.13.43.13.651v2.095a.375.375 0 0 1-.75 0V9.53a.95.95 0 0 0-.265-.658.375.375 0 0 1 .228-.639 3.375 3.375 0 0 0 3.037-3.358v-.75c0-.62-.215-1.19-.574-1.639a.375.375 0 0 1-.071-.325l.147-.589c.057-.23.04-.473-.048-.692l-.357.178-.49.491a.375.375 0 0 1-.387.09A2.621 2.621 0 0 0 7.5 1.5h-3c-.296 0-.58.049-.845.139a.375.375 0 0 1-.386-.09l-.491-.49-.357-.18c-.088.22-.105.462-.048.693l.147.589a.375.375 0 0 1-.07.325 2.612 2.612 0 0 0-.575 1.639v.75a3.376 3.376 0 0 0 2.75 3.317.375.375 0 0 1 .197.634.692.692 0 0 0-.163.284.474.474 0 0 0-.01.274l.129.388c.064.194.097.396.097.6v1.253a.375.375 0 0 1-.75 0V10.5H3.75c-.72 0-1.195-.476-1.545-.827a33.87 33.87 0 0 0-.033-.033C1.776 9.244 1.508 9 1.125 9H.75a.375.375 0 1 1 0-.75h.375c.72 0 1.195.476 1.545.827l.033.033c.396.396.664.64 1.047.64h.23l-.043-.128a1.216 1.216 0 0 1 .004-.726c.01-.033.02-.065.032-.098a4.127 4.127 0 0 1-2.848-3.923v-.75c0-.729.231-1.404.624-1.956l-.103-.415A1.875 1.875 0 0 1 1.788.461l.127-.254Z" clip-rule="evenodd"/></svg>