<svg xmlns="http://www.w3.org/2000/svg" fill="none" viewBox="0 0 16 16"><path fill="#0E1011" fill-rule="evenodd" d="M4.25 1C3.56 1 3 1.56 3 2.25v12.33l4.728-3.07a.5.5 0 0 1 .544 0L13 14.58V2.25C13 1.56 12.44 1 11.75 1h-7.5ZM2 2.25A2.25 2.25 0 0 1 4.25 0h7.5A2.25 2.25 0 0 1 14 2.25V15.5a.5.5 0 0 1-.772.42L8 12.524l-5.228 3.394A.5.5 0 0 1 2 15.5V2.25Z" clip-rule="evenodd"/><path fill="#0E1011" d="M3 2.25C3 1.56 3.56 1 4.25 1h7.5c.69 0 1.25.56 1.25 1.25v12.33l-4.728-3.07a.5.5 0 0 0-.544 0L3 14.58V2.25Z"/></svg>