<svg xmlns="http://www.w3.org/2000/svg" fill="none" viewBox="0 0 12 12"><path fill="#0E1011" fill-rule="evenodd" d="M1.688 3a.937.937 0 0 0-.938.938v4.124c0 .518.42.938.938.938h5.625c.517 0 .937-.42.937-.938V3.939A.937.937 0 0 0 7.312 3H1.688ZM0 3.938C0 3.006.756 2.25 1.688 2.25h5.625C8.244 2.25 9 3.006 9 3.938v.635l2.426-1.516a.375.375 0 0 1 .574.318v5.25a.375.375 0 0 1-.574.318L9 7.427v.636c0 .931-.756 1.687-1.688 1.687H1.688A1.688 1.688 0 0 1 0 8.062V3.939Zm9 2.604 2.25 1.406V4.052L9 5.458v1.084Z" clip-rule="evenodd"/></svg>