<svg xmlns="http://www.w3.org/2000/svg" fill="none" viewBox="0 0 12 12"><path fill="#0E1011" d="M8.89.11a.375.375 0 1 0-.53.53l1.235 1.235L8.36 3.11a.375.375 0 1 0 .53.53l1.235-1.235L11.36 3.64a.375.375 0 1 0 .53-.53l-1.235-1.235L11.89.64a.375.375 0 0 0-.53-.53l-1.235 1.235L8.89.11Z"/><path fill="#0E1011" fill-rule="evenodd" d="M2.453 6.973C1.628 5.765 1.066 3.95.85 2.246.745 1.424 1.422.75 2.25.75H4.2c.414 0 .75.336.786.749.064.729.21 1.584.427 2.163a.411.411 0 0 1-.085.436l-.642.642a.362.362 0 0 0-.055.45A7.036 7.036 0 0 0 6.93 7.441c.143.087.325.06.443-.058l.658-.658c.111-.11.279-.14.427-.088.548.19 1.354.318 2.043.377.413.034.749.37.749.785v1.95c0 .828-.674 1.505-1.496 1.401-1.662-.21-3.434-.745-4.617-1.53a9.854 9.854 0 0 1-2.684-2.648Zm1.703-2.764a1.112 1.112 0 0 0-.158 1.382A7.786 7.786 0 0 0 6.54 8.084c.454.275 1.013.18 1.363-.17l.505-.505c.61.183 1.387.299 2.029.353a.085.085 0 0 1 .053.024.05.05 0 0 1 .009.012V9.75c0 .44-.338.697-.652.657-1.595-.201-3.243-.712-4.296-1.411a9.104 9.104 0 0 1-2.48-2.447c-.735-1.076-1.271-2.763-1.479-4.398-.04-.312.216-.651.657-.651h1.952s.006.003.012.009a.09.09 0 0 1 .025.055c.06.684.192 1.512.402 2.16l-.485.485Z" clip-rule="evenodd"/></svg>