<svg xmlns="http://www.w3.org/2000/svg" fill="none" viewBox="0 0 12 12"><path fill="#0E1011" fill-rule="evenodd" d="M1 1.5A1.5 1.5 0 0 1 2.5 0h1A1.5 1.5 0 0 1 5 1.5v9A1.5 1.5 0 0 1 3.5 12h-1A1.5 1.5 0 0 1 1 10.5v-9ZM2.5 1h1a.5.5 0 0 1 .5.5v9a.5.5 0 0 1-.5.5h-1a.5.5 0 0 1-.5-.5v-9a.5.5 0 0 1 .5-.5ZM7 1.5A1.5 1.5 0 0 1 8.5 0h1A1.5 1.5 0 0 1 11 1.5v9A1.5 1.5 0 0 1 9.5 12h-1A1.5 1.5 0 0 1 7 10.5v-9ZM8.5 1h1a.5.5 0 0 1 .5.5v9a.5.5 0 0 1-.5.5h-1a.5.5 0 0 1-.5-.5v-9a.5.5 0 0 1 .5-.5Z" clip-rule="evenodd"/></svg>