<svg xmlns="http://www.w3.org/2000/svg" fill="none" viewBox="0 0 12 12"><path fill="#0E1011" fill-rule="evenodd" d="M5.825 10.438h-.001l-.01-.005a5.732 5.732 0 0 0-.365-.167l-3.887.883a.281.281 0 0 1-.343-.274v-.713a7.476 7.476 0 0 0-.656.288l-.01.005H.553a.375.375 0 0 1-.552-.33v-8.25c0-.125.063-.242.167-.312l.208.312-.208-.312h.001L.17 1.56l.004-.002.013-.009a3.728 3.728 0 0 1 .214-.123c.144-.077.351-.177.614-.277.525-.2 1.273-.4 2.172-.4.928 0 1.696.309 2.226.612.246.14.444.282.587.394.143-.112.34-.253.587-.394A4.499 4.499 0 0 1 8.813.75c.899 0 1.647.2 2.172.4a5.39 5.39 0 0 1 .782.372c.02.011.035.021.046.028l.013.009.005.002.001.001s.001.001-.207.313l.208-.312c.104.07.167.187.167.312v8.25a.375.375 0 0 1-.552.33h-.002l-.01-.005a7.475 7.475 0 0 0-.655-.287v.712a.281.281 0 0 1-.343.274l-3.887-.883a7.226 7.226 0 0 0-.365.167l-.01.005h-.001a.377.377 0 0 1-.35 0ZM.75 9.541v-7.45l.004-.002c.12-.064.298-.151.528-.239a5.377 5.377 0 0 1 1.905-.35c.76 0 1.4.254 1.854.513a4.104 4.104 0 0 1 .584.404v7.11a8.445 8.445 0 0 0-.378-.141c-.546-.19-1.294-.387-2.06-.386-.767.001-1.516.203-2.062.398a8.424 8.424 0 0 0-.375.143Zm6.82.38 2.649.602v-.55a5.175 5.175 0 0 0-1.407-.223c-.425 0-.853.071-1.241.17ZM3.189 9.75c.425 0 .853.071 1.241.17l-2.648.603v-.55c.43-.124.921-.222 1.407-.223Zm3.187-.223c.112-.045.24-.093.378-.141.546-.19 1.294-.387 2.06-.386.767.001 1.516.203 2.062.398.137.049.263.097.375.143v-7.45l-.004-.002a4.656 4.656 0 0 0-.528-.239 5.377 5.377 0 0 0-1.905-.35 3.75 3.75 0 0 0-1.854.513 4.104 4.104 0 0 0-.584.404v7.11Z" clip-rule="evenodd"/></svg>