<svg xmlns="http://www.w3.org/2000/svg" fill="none" viewBox="0 0 16 16"><path fill="#0E1011" fill-rule="evenodd" d="M2 13.5a.5.5 0 0 0 .5.5h3a.5.5 0 0 0 .5-.5v-11a.5.5 0 0 0-.5-.5h-3a.5.5 0 0 0-.5.5v11Zm.5 1.5A1.5 1.5 0 0 1 1 13.5v-11A1.5 1.5 0 0 1 2.5 1h3A1.5 1.5 0 0 1 7 2.5v11A1.5 1.5 0 0 1 5.5 15h-3Zm7.5-1.5a.5.5 0 0 0 .5.5h3a.5.5 0 0 0 .5-.5v-11a.5.5 0 0 0-.5-.5h-3a.5.5 0 0 0-.5.5v11Zm.5 1.5A1.5 1.5 0 0 1 9 13.5v-11A1.5 1.5 0 0 1 10.5 1h3A1.5 1.5 0 0 1 15 2.5v11a1.5 1.5 0 0 1-1.5 1.5h-3Z" clip-rule="evenodd"/></svg>