<svg xmlns="http://www.w3.org/2000/svg" fill="none" viewBox="0 0 16 16"><path fill="#0E1011" fill-rule="evenodd" d="M8.308 1.984A3.361 3.361 0 0 1 10.685 1h.143A4.172 4.172 0 0 1 15 5.172c0 .863-.343 1.69-.953 2.3l-2.072 2.073a3.5 3.5 0 0 1-4.95 0l-.879-.879a.5.5 0 1 1 .708-.707l.878.879a2.5 2.5 0 0 0 3.536 0l2.072-2.072c.422-.423.66-.996.66-1.594A3.172 3.172 0 0 0 10.828 2h-.143c-.626 0-1.227.249-1.67.692L7.855 3.854a.5.5 0 1 1-.708-.708l1.162-1.162m-.04 4.99a2.5 2.5 0 0 0-3.536 0l-2.04 2.042A2.361 2.361 0 0 0 2 10.686 3.315 3.315 0 0 0 5.315 14c.626 0 1.227-.249 1.67-.692l1.161-1.162a.5.5 0 0 1 .708.708l-1.162 1.162A3.36 3.36 0 0 1 5.315 15 4.315 4.315 0 0 1 1 10.685c0-.891.354-1.746.984-2.377l2.041-2.04a3.5 3.5 0 0 1 4.95 0l.879.878a.5.5 0 0 1-.708.708l-.878-.88Z" clip-rule="evenodd"/></svg>