<svg xmlns="http://www.w3.org/2000/svg" fill="none" viewBox="0 0 16 16"><path fill="#0E1011" fill-rule="evenodd" d="M6.46 4a2 2 0 0 0-1.339.513L1.247 8l3.874 3.487A2 2 0 0 0 6.46 12h7.291c.69 0 1.25-.56 1.25-1.25v-5.5C15 4.56 14.44 4 13.75 4H6.46m-2.008-.23A3 3 0 0 1 6.46 3h7.291A2.25 2.25 0 0 1 16 5.25v5.5A2.25 2.25 0 0 1 13.75 13H6.46a3 3 0 0 1-2.008-.77L.166 8.372a.5.5 0 0 1 0-.744L4.452 3.77m3.194 1.876a.5.5 0 0 1 .708 0L10 7.293l1.646-1.647a.5.5 0 0 1 .708.708L10.707 8l1.647 1.646a.5.5 0 0 1-.708.708L10 8.707l-1.646 1.647a.5.5 0 0 1-.708-.708L9.293 8 7.646 6.354a.5.5 0 0 1 0-.708" clip-rule="evenodd"/></svg>