<svg xmlns="http://www.w3.org/2000/svg" fill="none" viewBox="0 0 12 12"><path fill="#0E1011" fill-rule="evenodd" d="M4.5 2.625C4.5 1.175 5.3 0 6.75 0h2.063c.31 0 .562.252.562.563v1.5c0 .31-.252.562-.563.562H7.5A.375.375 0 0 0 7.125 3v1.5H8.74c.384 0 .655.376.533.74l-.625 1.5a.562.562 0 0 1-.533.385h-.99v4.313c0 .31-.252.562-.563.562h-1.5a.562.562 0 0 1-.562-.563V7.125h-.938A.563.563 0 0 1 3 6.562v-1.5c0-.31.252-.562.563-.562H4.5V2.625ZM6.75.75c-1.036 0-1.5.84-1.5 1.875V5.25h-1.5v1.125h1.5v4.875h1.125V6.375H7.98l.5-1.125H6.375V3c0-.621.504-1.125 1.125-1.125h1.125V.75H6.75Z" clip-rule="evenodd"/><path fill="#0E1011" d="M5.25 2.625c0-1.036.464-1.875 1.5-1.875h1.875v1.125H7.5c-.621 0-1.125.504-1.125 1.125v2.25H8.48l-.5 1.125H6.375v4.875H5.25V6.375h-1.5V5.25h1.5V2.625Z"/></svg>