<svg xmlns="http://www.w3.org/2000/svg" fill="none" viewBox="0 0 12 12"><path fill="#0E1011" fill-rule="evenodd" d="M4.469 1.125h3.062c.435 0 .686 0 .903.024a3.875 3.875 0 0 1 3.417 3.417c.024.217.024.468.024.903v.062c0 .435 0 .686-.024.903A3.875 3.875 0 0 1 8.434 9.85c-.217.024-.468.024-.903.024H4.469c-.435 0-.686 0-.903-.024a3.881 3.881 0 0 1-.732-.155l-1.709 1.71V8.597a3.868 3.868 0 0 1-.976-2.164C.125 6.217.125 5.966.125 5.53v-.062c0-.435 0-.686.024-.903A3.875 3.875 0 0 1 3.566 1.15c.217-.024.468-.024.903-.024Zm.031.75c-.475 0-.68 0-.85.02A3.125 3.125 0 0 0 .895 4.65c-.02.17-.02.375-.02.85s0 .68.02.85c.08.713.398 1.352.873 1.837l.107.11v1.298l.768-.769.228.088c.246.096.507.16.78.191.168.02.374.02.849.02h3c.475 0 .68 0 .85-.02a3.125 3.125 0 0 0 2.755-2.755c.02-.17.02-.375.02-.85s0-.68-.02-.85A3.125 3.125 0 0 0 8.35 1.895c-.17-.02-.375-.02-.85-.02h-3Z" clip-rule="evenodd"/></svg>