<svg xmlns="http://www.w3.org/2000/svg" fill="none" viewBox="0 0 16 16"><path fill="#0E1011" d="M12.354 6.354a.5.5 0 0 0-.708-.708L7.5 9.793 5.354 7.646a.5.5 0 1 0-.708.708L7.5 11.207l4.854-4.853Z"/><path fill="#0E1011" fill-rule="evenodd" d="M6.676.523a1.937 1.937 0 0 1 2.648 0l.746.698c.343.321.79.507 1.26.522l1.021.034a1.937 1.937 0 0 1 1.872 1.872l.034 1.022c.015.469.2.916.522 1.259l.698.746a1.937 1.937 0 0 1 0 2.648l-.698.746c-.321.343-.507.79-.522 1.26l-.034 1.021a1.937 1.937 0 0 1-1.872 1.872l-1.022.034c-.469.015-.916.2-1.259.522l-.746.698a1.937 1.937 0 0 1-2.648 0l-.746-.698a1.937 1.937 0 0 0-1.26-.522l-1.021-.034a1.937 1.937 0 0 1-1.872-1.872l-.034-1.022c-.015-.469-.2-.916-.522-1.259l-.698-.746a1.937 1.937 0 0 1 0-2.648l.698-.746c.321-.343.507-.79.522-1.26l.034-1.021a1.937 1.937 0 0 1 1.872-1.872l1.022-.034c.469-.015.916-.2 1.259-.522l.746-.698Zm1.964.73.747.698c.52.487 1.198.768 1.91.792l1.021.033c.493.017.89.413.906.906l.034 1.022c.023.711.304 1.39.79 1.91l.7.746c.336.36.336.92 0 1.28l-.7.747a2.937 2.937 0 0 0-.79 1.91l-.034 1.021a.937.937 0 0 1-.906.906l-1.022.034a2.937 2.937 0 0 0-1.91.79l-.746.7a.937.937 0 0 1-1.28 0l-.747-.7a2.937 2.937 0 0 0-1.91-.79l-1.021-.034a.937.937 0 0 1-.906-.906l-.033-1.022a2.937 2.937 0 0 0-.792-1.91l-.698-.746a.937.937 0 0 1 0-1.28l.698-.747c.487-.52.768-1.198.792-1.91l.033-1.021a.937.937 0 0 1 .906-.906l1.022-.033a2.937 2.937 0 0 0 1.91-.792l.746-.698a.937.937 0 0 1 1.28 0Z" clip-rule="evenodd"/></svg>