<svg xmlns="http://www.w3.org/2000/svg" fill="none" viewBox="0 0 16 16"><path fill="#0E1011" fill-rule="evenodd" d="M15.604.396a.5.5 0 0 1 0 .708L8.016 8.69c.545.4 1.25.741 1.619.908l1.025-.683a1 1 0 0 1 .83-.13l2.785.796a1 1 0 0 1 .725.962V13c0 1.087-.896 2.044-2.055 1.911a13.454 13.454 0 0 1-7.63-3.518l-4.211 4.21a.5.5 0 0 1-.708-.707l6.175-6.174.001-.002h.001l.001-.001L14.896.396a.5.5 0 0 1 .708 0M7.279 9.428c-.001 0 0 0 0 0a.05.05 0 0 1 .016-.002.1.1 0 0 1 .06.02c.773.585 1.818 1.046 2.073 1.155.2.085.42.057.59-.055l1.197-.798 2.785.796V13c0 .57-.453.974-.94.918a12.453 12.453 0 0 1-7.038-3.233L7.277 9.43l-.353-.354.355.352ZM3 2c-.57 0-.974.453-.918.94a12.434 12.434 0 0 0 2.459 6.115.5.5 0 1 1-.797.605A13.434 13.434 0 0 1 1.09 3.054C.956 1.896 1.913 1 3 1h2.456a1 1 0 0 1 .962.725l.796 2.786a1 1 0 0 1-.13.83l-.683 1.024c.072.16.178.386.31.636a.5.5 0 1 1-.887.464 13.102 13.102 0 0 1-.425-.893.621.621 0 0 1 .055-.59l.798-1.197L5.456 2H3Z" clip-rule="evenodd"/></svg>