<svg xmlns="http://www.w3.org/2000/svg" fill="none" viewBox="0 0 16 16"><path fill="#0E1011" fill-rule="evenodd" d="M15.777 2.084A.5.5 0 0 1 16 2.5v11a.5.5 0 0 1-.735.441l-.003-.001-.013-.007a4.84 4.84 0 0 0-.278-.134 9.907 9.907 0 0 0-.596-.25v.951a.375.375 0 0 1-.458.366l-5.182-1.178a9.28 9.28 0 0 0-.487.222l-.013.007-.003.001a.5.5 0 0 1-.464 0l-.003-.001-.013-.007a7.272 7.272 0 0 0-.487-.222l-5.182 1.178a.375.375 0 0 1-.458-.366v-.95a9.908 9.908 0 0 0-.874.383l-.013.007H.736A.5.5 0 0 1 0 13.5v-11a.5.5 0 0 1 .223-.416l.001-.001.002-.001.006-.004.017-.011.062-.038a7.19 7.19 0 0 1 1.042-.496A8.169 8.169 0 0 1 4.25 1c1.237 0 2.26.412 2.967.816.329.188.593.376.783.525.19-.149.454-.337.783-.525C9.49 1.412 10.513 1 11.75 1c1.199 0 2.197.266 2.897.533a7.19 7.19 0 0 1 1.042.496l.062.038.017.011.006.004.002.001.001.001m-5.682 11.144 3.53.802v-.732c-.572-.167-1.228-.297-1.876-.298a6.714 6.714 0 0 0-1.655.228ZM4.25 13a6.714 6.714 0 0 1 1.655.228l-3.531.802v-.732C2.947 13.13 3.603 13 4.251 13M8.5 3.5c0-.483-.224-.875-.5-.875s-.5.392-.5.875V12c0 .483.224.875.5.875s.5-.392.5-.875z" clip-rule="evenodd"/></svg>