<svg xmlns="http://www.w3.org/2000/svg" fill="none" viewBox="0 0 16 16"><path fill="#0E1011" fill-rule="evenodd" d="M7.946 14h.26a99.934 99.934 0 0 0 2.301-.041 45.88 45.88 0 0 0 1.983-.098c.601-.046 1.16-.11 1.508-.207l.007-.002c.409-.12.777-.35 1.07-.665a2.503 2.503 0 0 0 .604-1.152c.217-1.26.325-2.54.32-3.82a22.008 22.008 0 0 0-.327-3.91c-.1-.42-.306-.806-.598-1.12a2.382 2.382 0 0 0-1.087-.67c-.343-.088-.899-.146-1.5-.188a50.24 50.24 0 0 0-1.98-.09A98.586 98.586 0 0 0 8.053 2h-.108a55.836 55.836 0 0 0-.703.005c-.46.005-1.086.016-1.75.036-.663.02-1.368.052-1.983.099-.601.045-1.16.109-1.508.206l-.007.002c-.409.12-.777.35-1.07.665a2.503 2.503 0 0 0-.604 1.152 22.01 22.01 0 0 0-.32 3.849 22.012 22.012 0 0 0 .33 3.924c.112.407.322.78.613 1.08.292.302.655.521 1.055.635l.003.001c.347.097.907.16 1.508.207.615.046 1.32.077 1.983.098a90.574 90.574 0 0 0 2.3.04h.153M6.765 5.076A.5.5 0 0 0 6 5.5v5a.5.5 0 0 0 .765.424l4-2.5a.5.5 0 0 0 0-.848z" clip-rule="evenodd"/></svg>