<svg xmlns="http://www.w3.org/2000/svg" fill="none" viewBox="0 0 12 12"><path fill="#0E1011" d="M6 10.5a1.5 1.5 0 0 0 .188-2.988V3.375a.188.188 0 0 0-.375 0v4.137A1.5 1.5 0 0 0 6 10.5Z"/><path fill="#0E1011" fill-rule="evenodd" d="M6 0a1.5 1.5 0 0 0-1.5 1.5v4.901a3 3 0 1 0 3 0V1.5A1.5 1.5 0 0 0 6 0Zm-.75 1.5a.75.75 0 0 1 1.5 0v5.365l.214.101a2.25 2.25 0 1 1-1.928 0l.214-.101V1.5Z" clip-rule="evenodd"/><path fill="#0E1011" d="M8.063 1.781a.281.281 0 0 0 0 .563h1.124a.281.281 0 0 0 0-.563H8.063ZM8.063 3.281a.281.281 0 0 0 0 .563h1.124a.281.281 0 0 0 0-.563H8.063ZM8.063 4.781a.281.281 0 0 0 0 .563h1.124a.281.281 0 0 0 0-.563H8.063Z"/></svg>