<svg xmlns="http://www.w3.org/2000/svg" fill="none" viewBox="0 0 16 16"><path fill="#0E1011" fill-rule="evenodd" d="M6 2.5a3.5 3.5 0 1 0 0 7 3.5 3.5 0 0 0 0-7M3.5 6a2.5 2.5 0 1 1 5 0 2.5 2.5 0 0 1-5 0M2.707 10H3.5l1.571.629a2.5 2.5 0 0 0 1.857 0L8.5 10h.793a2.5 2.5 0 0 1 2.48 2.19l.142 1.13A7.98 7.98 0 0 1 5.939 16 7.979 7.979 0 0 1 .07 13.436l.156-1.246A2.5 2.5 0 0 1 2.706 10m3.232 5a6.973 6.973 0 0 1-4.816-1.92l.095-.766A1.5 1.5 0 0 1 2.707 11h.6l1.393.557a3.5 3.5 0 0 0 2.6 0L8.692 11h.6a1.5 1.5 0 0 1 1.49 1.314l.082.66A6.975 6.975 0 0 1 5.939 15" clip-rule="evenodd"/><path fill="#0E1011" d="M8.99 1.049a2.625 2.625 0 1 1 1.76 4.945.375.375 0 0 0 .234.712 3.375 3.375 0 1 0-3.525-5.505.375.375 0 1 0 .549.511c.273-.293.609-.52.983-.663M12.152 7.625l-1.5.546a2.11 2.11 0 0 1-.662.126.375.375 0 1 0 .021.75 2.86 2.86 0 0 0 .897-.17l1.376-.502h.66c.995 0 1.786.67 1.9 1.5l.104.757a6.98 6.98 0 0 1-2.075 1.378.375.375 0 0 0 .299.688 7.704 7.704 0 0 0 2.44-1.67l.13-.13-.155-1.124c-.172-1.254-1.328-2.149-2.643-2.149h-.792"/></svg>