<svg xmlns="http://www.w3.org/2000/svg" fill="none" viewBox="0 0 12 12"><path fill="#0E1011" d="m11.889 2.56-.575.576a1 1 0 0 1-.708.293H9.572a1 1 0 0 1-1-1V1.394a1 1 0 0 1 .292-.707L9.44.11a3.434 3.434 0 0 0-4.276 2.932l2.17 2.17a2.825 2.825 0 0 1 2.456.607l.6.515A3.426 3.426 0 0 0 11.89 2.56Z"/><path fill="#0E1011" fill-rule="evenodd" d="M.444 9.413 3.868 5.99l1.344 1.345a2.825 2.825 0 0 0 .077 1.52l-2.702 2.702A1.515 1.515 0 1 1 .444 9.413Zm1.345.09.857-.857a.5.5 0 1 1 .708.708l-.858.857a.5.5 0 1 1-.707-.707Z" clip-rule="evenodd"/><path fill="#0E1011" d="M3 1.286V2.47l3.84 3.84a1.87 1.87 0 0 1 2.26.153l2.217 1.94A2 2 0 0 1 12 9.907V10a2 2 0 0 1-2 2h-.092a2 2 0 0 1-1.506-.683L6.462 9.1a1.87 1.87 0 0 1-.153-2.26L2.469 3H1.287L0 .857.857 0 3 1.286Z"/></svg>