<svg xmlns="http://www.w3.org/2000/svg" fill="none" viewBox="0 0 12 12"><path fill="#0E1011" fill-rule="evenodd" d="M0 6c0-1.657 1.511-3 3.375-3h.75c.207 0 .375.15.375.333 0 .184-.168.334-.375.334h-.75C1.925 3.667.75 4.71.75 6c0 1.289 1.175 2.333 2.625 2.333h.75c.207 0 .375.15.375.334 0 .184-.168.333-.375.333h-.75C1.511 9 0 7.657 0 6Zm6.75-2.667c0-.184.168-.333.375-.333h1.5C10.489 3 12 4.343 12 6s-1.511 3-3.375 3h-1.5c-.207 0-.375-.15-.375-.333 0-.184.168-.334.375-.334h1.5c1.45 0 2.625-1.044 2.625-2.333 0-1.289-1.175-2.333-2.625-2.333h-1.5c-.207 0-.375-.15-.375-.334ZM3.75 6c0-.184.168-.333.375-.333h3.75c.207 0 .375.149.375.333 0 .184-.168.333-.375.333h-3.75c-.207 0-.375-.149-.375-.333Z" clip-rule="evenodd"/></svg>