<svg xmlns="http://www.w3.org/2000/svg" fill="none" viewBox="0 0 12 12"><path fill="#0E1011" fill-rule="evenodd" d="M4.75 1.266v-1H4v1H2.937c-.931 0-1.687.755-1.687 1.687v1.063h-1v.75h1V7.25h-1V8h1v1.063c0 .931.756 1.687 1.688 1.687H4v1h.75v-1h2.5v1H8v-1h1.063c.931 0 1.687-.756 1.687-1.688V8h1v-.75h-1V4.766h1v-.75h-1V2.953c0-.932-.756-1.687-1.688-1.687H8v-1h-.75v1h-2.5ZM4 4.75A.75.75 0 0 1 4.75 4h2.5a.75.75 0 0 1 .75.75v2.5a.75.75 0 0 1-.75.75h-2.5A.75.75 0 0 1 4 7.25v-2.5ZM5 5h2v2H5V5Z" clip-rule="evenodd"/></svg>