<svg xmlns="http://www.w3.org/2000/svg" fill="none" viewBox="0 0 12 12"><path fill="#0E1011" fill-rule="evenodd" d="M6 11.25c2.049 0 3.75-1.721 3.75-3.895 0-1.073-.383-1.988-1.129-3.046-.531-.754-1.205-1.528-2.014-2.457-.195-.223-.397-.456-.607-.699-.21.243-.412.476-.607.699-.81.929-1.483 1.703-2.014 2.457C2.633 5.367 2.25 6.282 2.25 7.355c0 2.174 1.701 3.895 3.75 3.895ZM5.506.577l-.648.747C2.848 3.632 1.5 5.18 1.5 7.354 1.5 9.92 3.515 12 6 12s4.5-2.08 4.5-4.645c0-2.175-1.348-3.723-3.358-6.031A207.891 207.891 0 0 1 6 0c-.168.198-.332.39-.494.577Z" clip-rule="evenodd"/></svg>