<svg xmlns="http://www.w3.org/2000/svg" fill="none" viewBox="0 0 12 12"><path fill="#0E1011" fill-rule="evenodd" d="M.135.135A.375.375 0 0 1 .5.04l8.224 2.224a.375.375 0 0 1 .264.263L10 6.241a.936.936 0 0 1 .788.267l.704.704a.938.938 0 0 1 0 1.326l-2.954 2.954a.937.937 0 0 1-1.326 0l-.704-.704A.936.936 0 0 1 6.24 10L2.526 8.987a.375.375 0 0 1-.263-.264L.039.499A.375.375 0 0 1 .135.135ZM6.64 9.331 9.33 6.639 8.32 2.93 1.478 1.08l2.994 2.993a1.578 1.578 0 1 1-.398.398L1.08 1.478 2.93 8.32 6.639 9.33Zm.399.661a.187.187 0 0 0 0 .266l.704.704a.188.188 0 0 0 .266 0l2.954-2.954a.188.188 0 0 0 0-.266l-.704-.704a.188.188 0 0 0-.266 0L7.038 9.992Zm-2.385-5.34A1.015 1.015 0 1 0 6.089 6.09a1.015 1.015 0 0 0-1.436-1.436Z" clip-rule="evenodd"/></svg>