<svg xmlns="http://www.w3.org/2000/svg" fill="none" viewBox="0 0 12 12"><path fill="#0E1011" fill-rule="evenodd" d="M3.25 2.477a1.227 1.227 0 0 1 2.248-.68L6 2.548l.502-.753a1.227 1.227 0 0 1 2.248.681V2.5c0 .228-.06.441-.167.625H10.5a1.375 1.375 0 0 1 .375 2.698V9c0 1.036-.84 1.875-1.875 1.875H3A1.875 1.875 0 0 1 1.125 9V5.823A1.376 1.376 0 0 1 1.5 3.125h1.917A1.244 1.244 0 0 1 3.25 2.5v-.023Zm5 .023a.75.75 0 0 1-.335.625H6.25v-.05l.668-1.001a.727.727 0 0 1 1.332.403V2.5Zm-2.5.576v.049H4.085A.75.75 0 0 1 3.75 2.5v-.023a.727.727 0 0 1 1.332-.403l.668 1.002Zm.5.424a.25.25 0 0 0-.5 0v1.75H2.5a.25.25 0 0 0 0 .5h3.25V9.5a.25.25 0 0 0 .5 0V5.75H9.5a.25.25 0 0 0 0-.5H6.25V3.5Z" clip-rule="evenodd"/></svg>