<svg xmlns="http://www.w3.org/2000/svg" fill="none" viewBox="0 0 12 12"><path fill="#0E1011" d="M8.5 6.125a.375.375 0 1 0 0 .75h1a.375.375 0 1 0 0-.75h-1Z"/><path fill="#0E1011" fill-rule="evenodd" d="M2.125 1.5v2.625H1.75c-.897 0-1.625.728-1.625 1.625v2.5c0 .897.728 1.625 1.625 1.625h.375v.875c0 .621.504 1.125 1.125 1.125h5.5c.621 0 1.125-.504 1.125-1.125v-.875h.375c.898 0 1.625-.728 1.625-1.625v-2.5c0-.897-.727-1.625-1.625-1.625h-.375V1.5C9.875.74 9.259.125 8.5.125h-5c-.76 0-1.375.616-1.375 1.375ZM3.5.875a.625.625 0 0 0-.625.625v2.625h6.25V1.5A.625.625 0 0 0 8.5.875h-5Zm-1.75 4h8.5c.483 0 .875.392.875.875v2.5a.875.875 0 0 1-.875.875h-.375V8.25c0-.621-.504-1.125-1.125-1.125h-5.5c-.621 0-1.125.504-1.125 1.125v.875H1.75a.875.875 0 0 1-.875-.875v-2.5c0-.483.392-.875.875-.875Zm1.5 3a.375.375 0 0 0-.375.375v2.5c0 .207.168.375.375.375h5.5a.375.375 0 0 0 .375-.375v-2.5a.375.375 0 0 0-.375-.375h-5.5Z" clip-rule="evenodd"/></svg>