<svg xmlns="http://www.w3.org/2000/svg" fill="none" viewBox="0 0 16 16"><path fill="#0E1011" fill-rule="evenodd" d="M4 1a1 1 0 0 0-1 1v12a1 1 0 0 0 1 1h5a.5.5 0 0 1 0 1H4a2 2 0 0 1-2-2V2a2 2 0 0 1 2-2h5.707L14 4.293V8.5a.5.5 0 0 1-1 0V5h-2a2 2 0 0 1-2-2V1zm6 .707L12.293 4H11a1 1 0 0 1-1-1V1.707m.396 8.69a.5.5 0 0 1 .708 0L13 12.292l1.896-1.897a.5.5 0 0 1 .708.708L13.707 13l1.897 1.896a.5.5 0 0 1-.708.708L13 13.707l-1.896 1.897a.5.5 0 0 1-.708-.708L12.293 13l-1.897-1.896a.5.5 0 0 1 0-.708" clip-rule="evenodd"/></svg>