<svg xmlns="http://www.w3.org/2000/svg" fill="none" viewBox="0 0 12 12"><path fill="#0E1011" fill-rule="evenodd" d="M5.882.019a.375.375 0 0 1 .236 0l4.36 1.441c.46.152.772.583.772 1.068v2.256c0 1.153-.279 2.269-.791 3.263l-.667-.343c.458-.89.708-1.889.708-2.92V2.528a.375.375 0 0 0-.257-.356L6 .77l-2.419.8-.235-.713L5.882.02ZM1.143 1.674.11.64.64.11l11.25 11.25-.53.53-2.133-2.133a7.125 7.125 0 0 1-1.197.986L6.206 11.94a.375.375 0 0 1-.412 0L3.97 10.743a7.125 7.125 0 0 1-3.22-5.96V2.529c0-.336.149-.645.393-.854Zm.535.535a.375.375 0 0 0-.178.32v2.255a6.375 6.375 0 0 0 2.881 5.332L6 11.176l1.619-1.06a6.375 6.375 0 0 0 1.078-.89L1.678 2.21Z" clip-rule="evenodd"/></svg>