<svg xmlns="http://www.w3.org/2000/svg" fill="none" viewBox="0 0 16 16"><path fill="#0E1011" d="M11.853.146a.5.5 0 1 0-.707.708L12.792 2.5l-1.646 1.646a.5.5 0 1 0 .707.708L13.5 3.207l1.646 1.647a.5.5 0 1 0 .707-.708L14.207 2.5 15.853.854a.5.5 0 1 0-.707-.708L13.5 1.793 11.853.146ZM15 13c0 1.105-.9 2.015-1.994 1.86a13.908 13.908 0 0 1-5.047-1.757 14.07 14.07 0 0 1-4.965-4.898A13.91 13.91 0 0 1 1.14 2.993C.986 1.9 1.896 1 3 1h2c.552 0 .994.45 1.054.998.097.876.32 1.715.65 2.497L5.089 6.11a.486.486 0 0 0-.083.584 11.554 11.554 0 0 0 4.475 4.397c.19.104.424.066.577-.087l1.632-1.632a8.944 8.944 0 0 0 2.312.573c.549.06.998.503.998 1.055v2Z"/></svg>