<svg xmlns="http://www.w3.org/2000/svg" fill="none" viewBox="0 0 16 16"><path fill="#0E1011" d="M14.896.396a.5.5 0 0 1 .708.708L7.229 9.478a11.53 11.53 0 0 0 2.252 1.614c.19.103.424.065.577-.088l1.633-1.632a8.944 8.944 0 0 0 2.311.573c.549.06.998.503.998 1.055v2c0 1.105-.9 2.015-1.993 1.86a13.908 13.908 0 0 1-5.048-1.757 14.052 14.052 0 0 1-2.499-1.856l-4.356 4.357a.5.5 0 0 1-.708-.708l14.5-14.5ZM2.994 8.205c.224.372.464.733.72 1.08l1.793-1.792a11.503 11.503 0 0 1-.5-.799.486.486 0 0 1 .083-.584l1.614-1.615a8.941 8.941 0 0 1-.65-2.497C5.995 1.449 5.553 1 5 1H3c-1.105 0-2.015.9-1.86 1.993a13.91 13.91 0 0 0 1.854 5.212"/></svg>