<svg xmlns="http://www.w3.org/2000/svg" height="17" fill="none" viewBox="0 0 16 17"><path fill="#0E1011" fill-rule="evenodd" d="M13.268 1.732a2.5 2.5 0 0 0-3.536 0l-7.05 7.05a3.5 3.5 0 0 0 0 4.95l.343.343a3.5 3.5 0 0 0 4.95 0l5.429-5.429.707.708-5.429 5.429a4.5 4.5 0 0 1-6.364 0l-.343-.344a4.5 4.5 0 0 1 0-6.364l7.05-7.05a3.5 3.5 0 0 1 4.95 4.95l-6.749 6.748a2.354 2.354 0 1 1-3.328-3.328L9.404 3.89l.707.707-5.506 5.506a1.354 1.354 0 1 0 1.914 1.914l6.749-6.748a2.5 2.5 0 0 0 0-3.536Z" clip-rule="evenodd"/></svg>