<svg xmlns="http://www.w3.org/2000/svg" fill="none" viewBox="0 0 16 16"><path fill="#0E1011" d="M6 5a1 1 0 1 0 0 2 1 1 0 0 0 0-2M5.505 9.837C6.075 9.427 6.925 9 8 9c1.075 0 1.925.427 2.495.837a4.933 4.933 0 0 1 .833.761l.048.059.005.006.009.011.004.006.002.002v.001a.508.508 0 0 1-.102.715.518.518 0 0 1-.72-.101l-.005-.007-.03-.036a3.921 3.921 0 0 0-.65-.592c-.456-.328-1.098-.642-1.889-.642-.791 0-1.433.314-1.89.643a3.922 3.922 0 0 0-.65.591 1.53 1.53 0 0 0-.029.036l-.005.007a.517.517 0 0 1-.72.101.507.507 0 0 1-.103-.714l.001-.002.002-.002.004-.006.005-.005.01-.012c.01-.015.027-.035.047-.059a4.934 4.934 0 0 1 .833-.76M9 6a1 1 0 1 1 2 0 1 1 0 0 1-2 0"/><path fill="#0E1011" fill-rule="evenodd" d="M15.294 8A7.3 7.3 0 1 1 .695 8a7.3 7.3 0 0 1 14.6 0m-1 0A6.3 6.3 0 1 1 1.695 8a6.3 6.3 0 0 1 12.6 0" clip-rule="evenodd"/></svg>