<svg xmlns="http://www.w3.org/2000/svg" fill="none" viewBox="0 0 12 12"><path fill="#0E1011" fill-rule="evenodd" d="M1.541 1.291C1.863 1.134 2.366 1 3.143 1c.766 0 1.849.182 2.888.357l.028.005c1.073.18 2.099.352 2.798.352.722 0 1.144-.05 1.377-.095a1.448 1.448 0 0 0 .233-.063.357.357 0 0 1 .533.311V7.99c0 .135-.077.26-.198.32l-.16-.32.16.32H10.8l-.004.003-.012.005a2.476 2.476 0 0 1-.192.083c-.129.052-.314.12-.547.187a6.89 6.89 0 0 1-1.902.27c-.773 0-1.683-.185-2.546-.36l-.025-.005c-.893-.18-1.736-.35-2.43-.35-.72 0-1.143.05-1.376.095a2.4 2.4 0 0 0-.052.01v2.395a.357.357 0 0 1-.714 0V1.867c0-.065.018-.13.053-.186l.304.186-.304-.186V1.68l.001-.002.002-.003.004-.006a.52.52 0 0 1 .037-.05.916.916 0 0 1 .091-.095c.078-.072.192-.155.353-.233Zm.173.724v5.507c.296-.05.746-.093 1.429-.093.772 0 1.683.184 2.546.359l.025.005c.893.18 1.736.35 2.429.35.696 0 1.287-.12 1.703-.241a5.24 5.24 0 0 0 .44-.148V2.335c-.296.05-.746.094-1.429.094-.766 0-1.849-.183-2.888-.358l-.028-.005c-1.073-.18-2.099-.352-2.798-.352-.696 0-1.087.12-1.29.22a.924.924 0 0 0-.139.081Z" clip-rule="evenodd"/></svg>