<svg xmlns="http://www.w3.org/2000/svg" fill="none" viewBox="0 0 12 12"><path fill="#0E1011" fill-rule="evenodd" d="M1.688 3a.937.937 0 0 0-.938.938v4.124c0 .518.42.938.938.938h7.875c.517 0 .937-.42.937-.938V3.939A.937.937 0 0 0 9.562 3H1.689ZM0 3.938C0 3.006.756 2.25 1.688 2.25h7.875c.931 0 1.687.756 1.687 1.688v.937h.188c.31 0 .562.252.562.563v1.5c0 .31-.252.562-.563.562h-.187v.563c0 .931-.755 1.687-1.688 1.687H1.689A1.688 1.688 0 0 1 0 8.062V3.939Z" clip-rule="evenodd"/><path fill="#0E1011" d="M1.5 4.125c0-.207.168-.375.375-.375h7.5c.207 0 .375.168.375.375v3.75a.375.375 0 0 1-.375.375h-7.5a.375.375 0 0 1-.375-.375v-3.75Z"/></svg>