<svg xmlns="http://www.w3.org/2000/svg" fill="none" viewBox="0 0 12 12"><path fill="#0E1011" d="M5.832.665a.375.375 0 0 1 .336 0l5 2.5a.375.375 0 0 1 0 .67l-5 2.5a.375.375 0 0 1-.336 0l-5-2.5a.375.375 0 0 1 0-.67l5-2.5ZM.664 8.332a.375.375 0 0 1 .504-.167L6 10.58l4.832-2.416a.375.375 0 1 1 .335.67l-5 2.5a.375.375 0 0 1-.335 0l-5-2.5a.375.375 0 0 1-.168-.503Z"/><path fill="#0E1011" d="M1.168 5.665a.375.375 0 0 0-.336.67l5 2.5c.106.053.23.053.336 0l5-2.5a.375.375 0 1 0-.336-.67L6 8.08 1.168 5.665Z"/></svg>