<svg xmlns="http://www.w3.org/2000/svg" fill="none" viewBox="0 0 16 16"><path fill="#0E1011" d="M5.382 1.288 5.18 2.703C6.02 2.254 6.98 2 8 2c1.02 0 1.98.254 2.82.702l-.202-1.414A1.5 1.5 0 0 0 9.133 0H6.867a1.5 1.5 0 0 0-1.485 1.288ZM10.618 14.712l.202-1.415C9.98 13.746 9.02 14 8 14c-1.02 0-1.98-.254-2.82-.703l.202 1.415A1.5 1.5 0 0 0 6.867 16h2.266a1.5 1.5 0 0 0 1.485-1.288Z"/><path fill="#0E1011" fill-rule="evenodd" d="M8 3a5 5 0 1 1 0 10A5 5 0 0 1 8 3Zm-.354 4.646 2-2 .708.708L8.707 8l1.147 1.146-.708.708-1.5-1.5a.5.5 0 0 1 0-.708Z" clip-rule="evenodd"/></svg>