<svg xmlns="http://www.w3.org/2000/svg" height="13" fill="none" viewBox="0 0 12 13"><path fill="#0E1011" fill-rule="evenodd" d="M9.95 1.3a1.875 1.875 0 0 0-2.65 0L2.011 6.586a2.625 2.625 0 0 0 0 3.712l.257.258a2.625 2.625 0 0 0 3.712 0l4.072-4.072.53.53-4.071 4.072a3.375 3.375 0 0 1-4.773 0l-.258-.258a3.375 3.375 0 0 1 0-4.772L6.77.769A2.625 2.625 0 0 1 10.48 4.48L5.42 9.543a1.765 1.765 0 0 1-2.497-2.497l4.13-4.13.53.531-4.13 4.13A1.015 1.015 0 1 0 4.89 9.012l5.062-5.061a1.875 1.875 0 0 0 0-2.652Z" clip-rule="evenodd"/></svg>