<svg xmlns="http://www.w3.org/2000/svg" fill="none" viewBox="0 0 12 12"><path fill="#0E1011" fill-rule="evenodd" d="M2.125 4.125V1.5C2.125.74 2.741.125 3.5.125h5c.76 0 1.375.616 1.375 1.375v2.625h.5c.898 0 1.625.728 1.625 1.625v2.5c0 .897-.727 1.625-1.625 1.625h-.5v1c0 .621-.504 1.125-1.125 1.125h-5.5a1.125 1.125 0 0 1-1.125-1.125v-1h-.5A1.625 1.625 0 0 1 0 8.25v-2.5c0-.897.728-1.625 1.625-1.625h.5ZM3.5.875a.625.625 0 0 0-.625.625v2.625h6.25V1.5A.625.625 0 0 0 8.5.875h-5Zm-.25 7a.375.375 0 0 0-.375.375v2.625c0 .207.168.375.375.375h5.5a.375.375 0 0 0 .375-.375V8.25a.375.375 0 0 0-.375-.375h-5.5Zm5.25-1.75a.375.375 0 1 0 0 .75h1a.375.375 0 1 0 0-.75h-1Z" clip-rule="evenodd"/></svg>