<svg xmlns="http://www.w3.org/2000/svg" fill="none" viewBox="0 0 12 12"><path fill="#0E1011" fill-rule="evenodd" d="M9 3a3 3 0 1 1-6 0 3 3 0 0 1 6 0Zm-.75 0a2.25 2.25 0 1 1-4.5 0 2.25 2.25 0 0 1 4.5 0ZM3.126 6.75h.999l1.036.518c.528.264 1.15.264 1.678 0l1.036-.518h.999c.933 0 1.724.686 1.856 1.61l.16 1.118A5.993 5.993 0 0 1 6 12a5.993 5.993 0 0 1-4.89-2.522l.16-1.118a1.875 1.875 0 0 1 1.856-1.61ZM6 11.25a5.24 5.24 0 0 1-4.103-1.974l.116-.81c.079-.554.553-.966 1.113-.966h.822l.878.44c.74.369 1.609.369 2.348 0l.878-.44h.822c.56 0 1.034.412 1.114.966l.115.81A5.239 5.239 0 0 1 6 11.25Z" clip-rule="evenodd"/></svg>