<svg xmlns="http://www.w3.org/2000/svg" fill="none" viewBox="0 0 16 16"><path fill="#0E1011" fill-rule="evenodd" d="M1 3.75a2.75 2.75 0 0 1 5.5 0V5.5h3V3.75a2.75 2.75 0 1 1 2.75 2.75H10.5v3h1.75a2.75 2.75 0 1 1-2.75 2.75V10.5h-3v1.75A2.75 2.75 0 1 1 3.75 9.5H5.5v-3H3.75A2.75 2.75 0 0 1 1 3.75ZM5.5 5.5V3.75A1.75 1.75 0 1 0 3.75 5.5H5.5Zm1 1v3h3v-3h-3Zm-1 4H3.75a1.75 1.75 0 1 0 1.75 1.75V10.5Zm5 0v1.75a1.75 1.75 0 1 0 1.75-1.75H10.5Zm0-5h1.75a1.75 1.75 0 1 0-1.75-1.75V5.5Z" clip-rule="evenodd"/></svg>