<svg xmlns="http://www.w3.org/2000/svg" fill="none" viewBox="0 0 12 12"><path fill="#0E1011" fill-rule="evenodd" d="M3.688 10.25a.938.938 0 0 1-.938-.937v-3.5c0-.518.42-.938.938-.938h.187a.375.375 0 0 0 0-.75h-.188C2.756 4.125 2 4.881 2 5.813v3.5C2 10.244 2.756 11 3.688 11h4.624C9.245 11 10 10.245 10 9.313v-3.5c0-.932-.756-1.688-1.688-1.688h-.187a.375.375 0 1 0 0 .75h.188c.517 0 .937.42.937.938v3.5c0 .517-.42.937-.938.937H3.689ZM6 8.25a.375.375 0 0 0 .375-.375v-6.22l1.61 1.61a.375.375 0 0 0 .53-.53L6 .22 3.485 2.735a.375.375 0 1 0 .53.53l1.61-1.61v6.22c0 .207.168.375.375.375Z" clip-rule="evenodd"/></svg>