<svg xmlns="http://www.w3.org/2000/svg" fill="none" viewBox="0 0 12 12"><path fill="#0E1011" fill-rule="evenodd" d="M.828.297a.375.375 0 1 0-.53.53l.784.785A1.688 1.688 0 0 0 0 3.187v5.626C0 9.744.756 10.5 1.688 10.5H9.97l1.202 1.203a.375.375 0 0 0 .53-.53L.829.296ZM7.84 8.37l-.536-.536a2.25 2.25 0 0 1-3.138-3.138L3.63 4.16a3 3 0 0 0 4.21 4.21ZM4.589 5.12a1.4 1.4 0 0 0-.183.692V6h.563v-.188c0-.094.015-.184.044-.269l-.424-.424Z" clip-rule="evenodd"/><path fill="#0E1011" d="M12 8.813c0 .272-.065.53-.18.758L8.925 6.674a3 3 0 0 0-3.598-3.598L3.485 1.235 3.75.97a.75.75 0 0 1 .53-.22h3.44a.75.75 0 0 1 .53.22l.53.53h1.533c.931 0 1.687.756 1.687 1.688v5.624Z"/><path fill="#0E1011" d="M8.25 6A2.25 2.25 0 0 0 6 3.75L8.25 6Z"/></svg>