<svg xmlns="http://www.w3.org/2000/svg" fill="none" viewBox="0 0 16 16"><path fill="#0E1011" fill-rule="evenodd" d="M12 4a4 4 0 1 1-8 0 4 4 0 0 1 8 0Zm-1 0a3 3 0 1 1-6 0 3 3 0 0 1 6 0Z" clip-rule="evenodd"/><path fill="#0E1011" d="M8 9v1H4.168a1.5 1.5 0 0 0-1.485 1.288l-.154 1.08A6.986 6.986 0 0 0 8 15v1a7.99 7.99 0 0 1-6.52-3.363l.213-1.49A2.5 2.5 0 0 1 4.168 9H8ZM10.354 9.646a.5.5 0 0 0-.708.708l2.147 2.146-2.147 2.146a.5.5 0 0 0 .708.708l2.146-2.147 2.146 2.147a.5.5 0 0 0 .708-.708L13.207 12.5l2.147-2.146a.5.5 0 0 0-.708-.708L12.5 11.793l-2.146-2.147Z"/></svg>