<svg xmlns="http://www.w3.org/2000/svg" fill="none" viewBox="0 0 16 16"><path fill="#0E1011" fill-rule="evenodd" d="M4.15 3.531a1.923 1.923 0 0 1 3.649-1.216L8 2.919l.201-.604A1.923 1.923 0 0 1 11.85 3.53l-.148.443a2.035 2.035 0 0 1-.008.026H15a1 1 0 0 1 1 1v2a1 1 0 0 1-1 1v4.75A2.25 2.25 0 0 1 12.75 15h-9.5A2.25 2.25 0 0 1 1 12.75V8a1 1 0 0 1-1-1V5a1 1 0 0 1 1-1h3.307a1.549 1.549 0 0 1-.01-.026l-.147-.443Zm6.604.127a.5.5 0 0 1-.475.342H8.694l.456-1.369a.923.923 0 0 1 1.751.584l-.147.443ZM6.85 2.631 7.306 4H5.721a.5.5 0 0 1-.475-.342L5.1 3.215A.923.923 0 1 1 6.85 2.63ZM8 5a.5.5 0 0 1 .5.5V7h5.25a.5.5 0 0 1 0 1H8.5v5.5a.5.5 0 0 1-1 0V8H2.25a.5.5 0 0 1 0-1H7.5V5.5A.5.5 0 0 1 8 5Z" clip-rule="evenodd"/></svg>