<svg xmlns="http://www.w3.org/2000/svg" fill="none" viewBox="0 0 16 16"><path fill="#0E1011" d="M1 8a5 5 0 0 1 9.829-1.302l.121.452.46-.092a3 3 0 0 1 1.234 5.873.5.5 0 1 0 .213.977 4.001 4.001 0 0 0-1.194-7.894A6.002 6.002 0 0 0 0 8a6.002 6.002 0 0 0 3.818 5.59.5.5 0 1 0 .364-.93A5.002 5.002 0 0 1 1 8Z"/><path fill="#0E1011" d="M6.875 10.5a.375.375 0 0 0-.75 0v.5a.375.375 0 0 0 .75 0v-.5ZM10.875 10.5a.375.375 0 0 0-.75 0v.5a.375.375 0 0 0 .75 0v-.5ZM8.875 11a.375.375 0 0 0-.75 0v.5a.375.375 0 0 0 .75 0V11ZM6.875 12.5a.375.375 0 0 0-.75 0v.5a.375.375 0 0 0 .75 0v-.5ZM10.875 12.5a.375.375 0 0 0-.75 0v.5a.375.375 0 0 0 .75 0v-.5ZM8.875 13a.375.375 0 0 0-.75 0v.5a.375.375 0 0 0 .75 0V13ZM6.875 14.5a.375.375 0 0 0-.75 0v.5a.375.375 0 0 0 .75 0v-.5ZM10.875 14.5a.375.375 0 0 0-.75 0v.5a.375.375 0 0 0 .75 0v-.5ZM8.875 15a.375.375 0 0 0-.75 0v.5a.375.375 0 0 0 .75 0V15Z"/></svg>