<svg xmlns="http://www.w3.org/2000/svg" fill="none" viewBox="0 0 12 12"><path fill="#000" fill-rule="evenodd" d="M.733.267a.33.33 0 1 0-.466.466l2.171 2.172a3.823 3.823 0 0 0-.275 1.428v1.03c0 .712-.282 1.394-.786 1.897l-.41.411a1.15 1.15 0 0 0-.337.813v.45c0 .423.343.766.767.766h7.836l2.034 2.033a.33.33 0 0 0 .466-.466l-11-11Zm3.49 4.422-.52-.52c-.004.055-.006.11-.006.164a.383.383 0 0 0 .526.356Zm7.14 4.244c0 .125-.03.243-.082.347L5.093 3.094c.26-.19.576-.294.903-.294a.383.383 0 0 0 0-.767 2.3 2.3 0 0 0-1.45.514L3.46 1.46a3.833 3.833 0 0 1 6.37 2.874v1.029c0 .712.283 1.394.786 1.897l.41.411c.216.216.337.508.337.813v.45ZM5.997 12a1.917 1.917 0 0 1-1.917-1.917h.767a1.15 1.15 0 0 0 2.3 0h.766A1.917 1.917 0 0 1 5.997 12Z" clip-rule="evenodd"/></svg>