<svg xmlns="http://www.w3.org/2000/svg" fill="none" viewBox="0 0 12 12"><path fill="#0E1011" fill-rule="evenodd" d="M5.769 1.529c.14.058.231.194.231.346v8.25a.375.375 0 0 1-.64.265L3.22 8.25H.937A.937.937 0 0 1 0 7.313V4.688c0-.518.42-.938.938-.938H3.22l2.14-2.14a.375.375 0 0 1 .409-.081ZM5.25 2.78 3.64 4.39a.375.375 0 0 1-.265.11H.937a.188.188 0 0 0-.187.188v2.625c0 .103.084.187.188.187h2.437c.1 0 .195.04.265.11l1.61 1.61V2.78Zm2.36 4.83c.889-.89.889-2.33 0-3.22l.53-.53a3.027 3.027 0 0 1 0 4.28l-.53-.53Z" clip-rule="evenodd"/><path fill="#0E1011" d="m3.64 4.39 1.61-1.61v6.44L3.64 7.61a.375.375 0 0 0-.265-.11H.937a.188.188 0 0 1-.187-.187V4.688c0-.104.084-.188.188-.188h2.437c.1 0 .195-.04.265-.11Z"/></svg>