<svg xmlns="http://www.w3.org/2000/svg" fill="none" viewBox="0 0 16 16"><path fill="#0E1011" d="M6 4a.25.25 0 0 0 0 .5h1.25a.25.25 0 0 0 0-.5H6Z"/><path fill="#0E1011" fill-rule="evenodd" d="M0 3a1 1 0 0 1 1-1h9a1 1 0 0 1 1 1v2.5h1.5A3.5 3.5 0 0 1 16 9v3h-2.563a2.001 2.001 0 0 1-1.937 2.5A2 2 0 0 1 9.563 12H5.937A2.002 2.002 0 0 1 4 14.5 2 2 0 0 1 2.063 12H1a1 1 0 0 1-1-1V3Zm11 8h4V9a2.5 2.5 0 0 0-2.5-2.5H11V11Zm-.366 1a1 1 0 1 0 1.733 0h-1.733Zm-7.5 0h1.732a1 1 0 1 1-1.733 0ZM10 11H1V4.5h3.75a.25.25 0 0 0 0-.5H1V3h9v8Z" clip-rule="evenodd"/></svg>