<svg xmlns="http://www.w3.org/2000/svg" fill="none" viewBox="0 0 12 12"><path fill="#0E1011" fill-rule="evenodd" d="M1 7.5C1 4.368 2.076 2.205 5.228.411 5.473.272 5.73.135 6 0c-.041.295-.026.568.036.825.24 1.008 1.188 1.758 2.192 2.552C9.564 4.434 11 5.569 11 7.5 11 9.985 8.761 12 6 12S1 9.985 1 7.5Zm2.666 3.136A2.837 2.837 0 0 1 3.15 9c0-.788.131-1.6.543-2.355.413-.758 1.095-1.43 2.15-1.958l.64-.32-.14.702c-.112.559-.018.859.122 1.056.157.222.411.375.765.568l.064.034c.318.173.702.382 1.003.708.337.366.553.86.553 1.565 0 .609-.19 1.173-.516 1.636 1.17-.683 1.916-1.86 1.916-3.136 0-1.464-1.028-2.379-2.372-3.443l-.133-.105c-.592-.468-1.244-.983-1.72-1.568a3.597 3.597 0 0 1-.663-1.183c-1.247.744-2.085 1.53-2.637 2.391-.68 1.063-.975 2.315-.975 3.908 0 1.277.745 2.453 1.916 3.136ZM3.85 9c0-.712.119-1.4.457-2.02.264-.484.67-.944 1.29-1.348.018.356.12.65.297.899.265.372.667.594 1 .776l.036.02c.343.186.633.344.852.582.209.227.368.547.368 1.091a2.15 2.15 0 0 1-4.3 0Z" clip-rule="evenodd"/></svg>