<svg xmlns="http://www.w3.org/2000/svg" fill="none" viewBox="0 0 16 16"><path fill="#0E1011" d="M9 4a1 1 0 1 1-2 0 1 1 0 0 1 2 0Z"/><path fill="#0E1011" fill-rule="evenodd" d="M8 7.125a3.375 3.375 0 1 0 0 6.75 3.375 3.375 0 0 0 0-6.75ZM5.375 10.5a2.625 2.625 0 1 1 5.25 0 2.625 2.625 0 0 1-5.25 0Z" clip-rule="evenodd"/><path fill="#0E1011" fill-rule="evenodd" d="M2 2.5A2.5 2.5 0 0 1 4.5 0h7A2.5 2.5 0 0 1 14 2.5v11a2.5 2.5 0 0 1-2.5 2.5h-7A2.5 2.5 0 0 1 2 13.5v-11ZM4.5 1h7A1.5 1.5 0 0 1 13 2.5v11a1.5 1.5 0 0 1-1.5 1.5h-7A1.5 1.5 0 0 1 3 13.5v-11A1.5 1.5 0 0 1 4.5 1Z" clip-rule="evenodd"/></svg>