<svg xmlns="http://www.w3.org/2000/svg" fill="none" viewBox="0 0 16 16"><path fill="#0E1011" d="M6.204 6.204a1.354 1.354 0 1 0 1.914 1.914 1.354 1.354 0 0 0-1.914-1.914Z"/><path fill="#0E1011" fill-rule="evenodd" d="M.18.18A.5.5 0 0 1 .666.053L11.63 3.017a.5.5 0 0 1 .351.351l1.351 4.954c.373-.05.764.068 1.05.355l.94.94a1.25 1.25 0 0 1 0 1.767l-3.94 3.94a1.25 1.25 0 0 1-1.767 0l-.94-.94a1.248 1.248 0 0 1-.354-1.05l-4.954-1.352a.5.5 0 0 1-.35-.351L.051.665A.5.5 0 0 1 .18.18ZM.27.27a.375.375 0 0 1 .53 0l5.163 5.163a2.104 2.104 0 1 1-.53.53L.269.799a.375.375 0 0 1 0-.53Zm12.746 8.216a.375.375 0 0 1 0 .53l-4 4a.375.375 0 1 1-.53-.53l4-4a.375.375 0 0 1 .53 0Z" clip-rule="evenodd"/></svg>