<svg xmlns="http://www.w3.org/2000/svg" fill="none" viewBox="0 0 12 12"><path fill="#0E1011" d="M4.875 4.5a1.125 1.125 0 0 1 2.25 0v.091c0 .322-.128.632-.356.86l-.814.814c-.211.211-.33.497-.33.796V7.5a.375.375 0 1 0 .75 0v-.44c0-.099.04-.194.11-.264l.814-.815c.369-.369.576-.869.576-1.39V4.5a1.875 1.875 0 0 0-3.75 0 .375.375 0 1 0 .75 0ZM5.995 8.625a.375.375 0 1 0 0 .75H6a.375.375 0 1 0 0-.75h-.005Z"/><path fill="#0E1011" fill-rule="evenodd" d="M6 0a6 6 0 1 0 0 12A6 6 0 0 0 6 0ZM.75 6a5.25 5.25 0 1 1 10.5 0A5.25 5.25 0 0 1 .75 6Z" clip-rule="evenodd"/></svg>