<svg xmlns="http://www.w3.org/2000/svg" fill="none" viewBox="0 0 16 16"><path fill="#0E1011" fill-rule="evenodd" d="M12 16a2 2 0 0 0 2-2V4.25L9.75 0H4a2 2 0 0 0-2 2v12a2 2 0 0 0 2 2h8ZM9.5 1.5a.5.5 0 0 1 .5.5v1.5a.5.5 0 0 0 .5.5H12a.5.5 0 0 1 0 1h-1.5A1.5 1.5 0 0 1 9 3.5V2a.5.5 0 0 1 .5-.5Zm-5.375 5c0-.207.168-.375.375-.375h3a.375.375 0 1 1 0 .75h-3a.375.375 0 0 1-.375-.375Zm0 2c0-.207.168-.375.375-.375h7a.375.375 0 0 1 0 .75h-7a.375.375 0 0 1-.375-.375Zm0 2c0-.207.168-.375.375-.375h7a.375.375 0 0 1 0 .75h-7a.375.375 0 0 1-.375-.375Zm0 2c0-.207.168-.375.375-.375h5a.375.375 0 0 1 0 .75h-5a.375.375 0 0 1-.375-.375Z" clip-rule="evenodd"/></svg>