<svg xmlns="http://www.w3.org/2000/svg" fill="none" viewBox="0 0 16 16"><path fill="#0E1011" fill-rule="evenodd" d="M7.5 1A6.5 6.5 0 0 0 1 7.5v5.78a1.5 1.5 0 0 0 1.026 1.422l.585.195c.204.068.417.103.632.103H3.5A1.5 1.5 0 0 0 5 13.5v-3A1.5 1.5 0 0 0 3.5 9h-.257a2 2 0 0 0-.632.103L2 9.306V7.5A5.5 5.5 0 0 1 7.5 2h1A5.5 5.5 0 0 1 14 7.5v1.806l-.611-.203A2 2 0 0 0 12.757 9H12.5a1.5 1.5 0 0 0-1.5 1.5v3a1.5 1.5 0 0 0 1.5 1.5h.257c.215 0 .428-.035.632-.103l.585-.195A1.5 1.5 0 0 0 15 13.28V7.5A6.5 6.5 0 0 0 8.5 1h-1ZM2 10.75v-.39l.927-.309A1 1 0 0 1 3.243 10H3.5a.5.5 0 0 1 .5.5v3a.5.5 0 0 1-.5.5h-.257a1 1 0 0 1-.316-.051l-.585-.195A.5.5 0 0 1 2 13.279V12.25h1.5v-.5H2v-.5h1.5v-.5H2Zm11.073-.699.927.31v.389h-1.5v.5H14v.5h-1.5v.5H14v1.03a.5.5 0 0 1-.342.474l-.585.195a1 1 0 0 1-.316.051H12.5a.5.5 0 0 1-.5-.5v-3a.5.5 0 0 1 .5-.5h.257a1 1 0 0 1 .316.051Z" clip-rule="evenodd"/></svg>