<svg xmlns="http://www.w3.org/2000/svg" fill="none" viewBox="0 0 12 12"><path fill="#0E1011" fill-rule="evenodd" d="M6 9.438a.563.563 0 1 0 0 1.125.563.563 0 0 0 0-1.126ZM5.812 10a.188.188 0 1 1 .376 0 .188.188 0 0 1-.375 0Z" clip-rule="evenodd"/><path fill="#0E1011" fill-rule="evenodd" d="M2.5 0A1.5 1.5 0 0 0 1 1.5v9A1.5 1.5 0 0 0 2.5 12h7a1.5 1.5 0 0 0 1.5-1.5v-9A1.5 1.5 0 0 0 9.5 0h-7Zm-.75 1.5A.75.75 0 0 1 2.5.75h7a.75.75 0 0 1 .75.75v9a.75.75 0 0 1-.75.75h-7a.75.75 0 0 1-.75-.75v-9Z" clip-rule="evenodd"/></svg>