<svg xmlns="http://www.w3.org/2000/svg" fill="none" viewBox="0 0 16 16"><path fill="#0E1011" fill-rule="evenodd" d="m7.767 13.918-.002-.001-.013-.007a7.272 7.272 0 0 0-.487-.222l-5.182 1.178a.375.375 0 0 1-.458-.366v-.95a9.908 9.908 0 0 0-.874.383l-.013.007H.736A.5.5 0 0 1 0 13.5v-11a.5.5 0 0 1 .223-.416L.5 2.5l-.277-.416.001-.001.002-.001.006-.004.017-.011.062-.038a7.19 7.19 0 0 1 1.042-.496A8.169 8.169 0 0 1 4.25 1c1.237 0 2.26.412 2.967.816.329.188.593.376.783.525.19-.149.454-.337.783-.525C9.49 1.412 10.513 1 11.75 1c1.199 0 2.197.266 2.897.533a7.19 7.19 0 0 1 1.042.496l.062.038.017.011.006.004.002.001s.001.001-.276.417l.277-.416A.5.5 0 0 1 16 2.5v11a.5.5 0 0 1-.736.441l-.002-.001-.013-.007a4.84 4.84 0 0 0-.278-.134 9.907 9.907 0 0 0-.596-.25v.951a.375.375 0 0 1-.458.366l-5.182-1.178a9.28 9.28 0 0 0-.487.222l-.013.007h-.002a.503.503 0 0 1-.466 0ZM1 12.722V2.788l.005-.003c.16-.085.398-.201.704-.318A7.169 7.169 0 0 1 4.25 2c1.013 0 1.865.338 2.47.684a5.47 5.47 0 0 1 .78.54v9.48c-.15-.061-.319-.126-.503-.19-.728-.253-1.726-.516-2.748-.514-1.023.002-2.02.271-2.749.53-.183.065-.351.13-.5.192Zm9.095.506 3.53.802v-.732c-.572-.167-1.228-.297-1.876-.298a6.714 6.714 0 0 0-1.655.228ZM4.25 13a6.714 6.714 0 0 1 1.655.228l-3.531.802v-.732C2.947 13.13 3.603 13 4.251 13Zm4.249-.297c.15-.06.319-.124.503-.189.728-.253 1.726-.516 2.748-.514 1.023.002 2.02.271 2.749.53.183.065.351.13.5.192V2.788l-.005-.003a6.201 6.201 0 0 0-.704-.318A7.17 7.17 0 0 0 11.75 2c-1.013 0-1.865.338-2.47.684a5.47 5.47 0 0 0-.78.54v9.48Z" clip-rule="evenodd"/></svg>