<svg xmlns="http://www.w3.org/2000/svg" fill="none" viewBox="0 0 12 12"><path fill="#0E1011" fill-rule="evenodd" d="M6 12A6 6 0 1 0 6 0a6 6 0 0 0 0 12ZM4.125 7.875a2.652 2.652 0 1 1 3.75-3.75 2.652 2.652 0 0 1-3.75 3.75Zm5.89-5.36a.375.375 0 0 0-.53-.53l-1.11 1.11a.375.375 0 0 0 .53.53l1.11-1.11Zm-7.5-.53a.375.375 0 1 0-.53.53l1.11 1.11a.375.375 0 1 0 .53-.53l-1.11-1.11Zm6.39 6.39a.375.375 0 1 0-.53.53l1.11 1.11a.375.375 0 0 0 .53-.53l-1.11-1.11Zm-5.28.53a.375.375 0 0 0-.53-.53l-1.11 1.11a.375.375 0 0 0 .53.53l1.11-1.11Z" clip-rule="evenodd"/></svg>