<svg xmlns="http://www.w3.org/2000/svg" fill="none" viewBox="0 0 12 12"><path fill="#0E1011" fill-rule="evenodd" d="M1 2.964a1.964 1.964 0 1 1 3.929 0v1.25H7.07v-1.25A1.964 1.964 0 1 1 9.036 4.93h-1.25V7.07h1.25A1.964 1.964 0 1 1 7.07 9.036v-1.25H4.93v1.25A1.964 1.964 0 1 1 2.964 7.07h1.25V4.93h-1.25A1.964 1.964 0 0 1 1 2.964Zm3.214 1.25v-1.25a1.25 1.25 0 1 0-1.25 1.25h1.25Zm.715.715V7.07H7.07V4.93H4.93Zm-.715 2.857h-1.25a1.25 1.25 0 1 0 1.25 1.25v-1.25Zm3.572 0v1.25a1.25 1.25 0 1 0 1.25-1.25h-1.25Zm0-3.572h1.25a1.25 1.25 0 1 0-1.25-1.25v1.25Z" clip-rule="evenodd"/></svg>