<svg xmlns="http://www.w3.org/2000/svg" fill="none" viewBox="0 0 12 12"><path fill="#0E1011" fill-rule="evenodd" d="M6.423.187a1.125 1.125 0 0 0-.846 0L.826 2.114a1.125 1.125 0 0 0-.702 1.043v5.686c0 .458.278.87.702 1.043l4.75 1.928c.272.11.576.11.847 0l4.75-1.928c.425-.173.703-.585.703-1.043V3.157c0-.458-.278-.87-.702-1.043L6.423.187Zm-.564.695a.375.375 0 0 1 .282 0l4.362 1.77L6 4.479 1.496 2.652 5.86.882ZM.874 3.209v5.634c0 .153.093.29.234.348l4.517 1.832V5.137L.874 3.21Zm5.5 7.815 4.518-1.833a.375.375 0 0 0 .234-.348V3.21L6.375 5.136v5.888Z" clip-rule="evenodd"/></svg>