<svg xmlns="http://www.w3.org/2000/svg" fill="none" viewBox="0 0 12 12"><path fill="#0E1011" fill-rule="evenodd" d="M6 12A6 6 0 1 0 6 0a6 6 0 0 0 0 12Zm3.438-2.032A5.23 5.23 0 0 1 6 11.25a5.23 5.23 0 0 1-3.438-1.282l1.866-1.865c.929.696 2.215.696 3.144 0l1.866 1.865Zm.53-.53A5.23 5.23 0 0 0 11.25 6a5.23 5.23 0 0 0-1.282-3.438L8.103 4.428c.696.929.696 2.215 0 3.144l1.865 1.866Zm-.53-7.406L7.572 3.897a2.627 2.627 0 0 0-3.144 0L2.562 2.032A5.23 5.23 0 0 1 6 .75a5.23 5.23 0 0 1 3.438 1.282Zm-7.406.53A5.23 5.23 0 0 0 .75 6a5.23 5.23 0 0 0 1.282 3.438l1.865-1.866a2.627 2.627 0 0 1 0-3.144L2.032 2.562Zm2.642 2.112a1.875 1.875 0 1 1 2.652 2.652 1.875 1.875 0 0 1-2.652-2.652Z" clip-rule="evenodd"/></svg>