<svg xmlns="http://www.w3.org/2000/svg" fill="none" viewBox="0 0 16 16"><path fill="#0E1011" fill-rule="evenodd" d="M1.36 2.067A.625.625 0 0 1 1.802 1h12.396c.557 0 .836.673.442 1.067L9 7.707v5.5l-2 2v-7.5l-5.64-5.64ZM2.707 2 8 7.293 13.293 2H2.707Z" clip-rule="evenodd"/><path fill="#0E1011" fill-rule="evenodd" d="M10.396 10.396a.5.5 0 0 1 .708 0L13 12.293l1.896-1.897a.5.5 0 0 1 .708.708L13.707 13l1.897 1.896a.5.5 0 0 1-.707.708L13 13.707l-1.896 1.897a.5.5 0 0 1-.707-.708L12.293 13l-1.896-1.896a.5.5 0 0 1 0-.708Z" clip-rule="evenodd"/></svg>