<svg xmlns="http://www.w3.org/2000/svg" fill="none" viewBox="0 0 16 16"><path fill="#0E1011" fill-rule="evenodd" d="M3.291 1.452C4.514 1.17 6.18 1 8 1c1.821 0 3.486.17 4.709.452.607.14 1.133.314 1.52.525.193.105.374.233.513.389.141.16.258.374.258.634 0 .09-.014.175-.038.254l.038.039V7.5c0 .23-.067.435-.176.617l.176.176V12.5c0 .513-.336.906-.717 1.183-.39.284-.925.52-1.54.71C11.507 14.772 9.831 15 8 15c-1.83 0-3.507-.228-4.743-.608-.615-.19-1.15-.425-1.54-.71-.38-.276-.717-.67-.717-1.182V8.293l.176-.176A1.19 1.19 0 0 1 1 7.5V3.293l.038-.039A.861.861 0 0 1 1 3c0-.26.116-.474.258-.634.139-.156.32-.284.513-.389.387-.21.913-.385 1.52-.525M2.036 3c.04.038.109.087.214.145.272.148.697.297 1.266.428C4.646 3.834 6.231 4 8 4c1.769 0 3.354-.166 4.484-.427.569-.13.994-.28 1.266-.428A1.12 1.12 0 0 0 13.964 3a1.119 1.119 0 0 0-.214-.145c-.272-.148-.697-.297-1.266-.428C11.354 2.166 9.769 2 8 2c-1.769 0-3.354.166-4.484.427-.569.13-.994.28-1.266.428A1.12 1.12 0 0 0 2.036 3M2 8.867V12.5c0 .04.027.172.305.374.267.194.684.39 1.246.562C4.668 13.78 6.24 14 8 14c1.76 0 3.332-.22 4.45-.564.56-.172.979-.368 1.245-.562.278-.202.305-.335.305-.374V8.867c-.35.203-.78.378-1.257.525C11.507 9.772 9.831 10 8 10c-1.83 0-3.507-.228-4.743-.608A6.098 6.098 0 0 1 2 8.867m10.709-4.32c.495-.113.936-.25 1.291-.41V7.5c0 .04-.027.172-.305.374-.267.194-.684.39-1.246.562C11.332 8.78 9.76 9 8 9c-1.76 0-3.332-.22-4.45-.564-.56-.172-.978-.368-1.245-.562C2.027 7.672 2 7.54 2 7.5V4.136c.355.16.796.298 1.291.412C4.514 4.83 6.18 5 8 5c1.821 0 3.486-.17 4.709-.452" clip-rule="evenodd"/></svg>