<svg xmlns="http://www.w3.org/2000/svg" fill="none" viewBox="0 0 16 16"><path fill="#0E1011" fill-rule="evenodd" d="M1.5 1A1.5 1.5 0 0 0 0 2.5V12a2 2 0 0 0 2 2h6.267c.086-.148.192-.287.319-.414L9.672 12.5l-1.086-1.086a2 2 0 1 1 2.828-2.828L12.5 9.672l1.086-1.086A2 2 0 0 1 16 8.267V4a2 2 0 0 0-2-2H8.121a1 1 0 0 1-.707-.293l-.121-.121A2 2 0 0 0 5.879 1zm5.854 2.354a.5.5 0 0 0-.708-.708l-.06.061A1 1 0 0 1 5.879 3H1.5a.5.5 0 1 0 0 1h4.379a2 2 0 0 0 1.414-.586l.06-.06" clip-rule="evenodd"/><path fill="#0E1011" d="M16 12c0 .34-.084.659-.233.938l-.439-.438.672-.672z"/><path fill="#0E1011" d="M10.354 9.646a.5.5 0 0 0-.708.708l2.147 2.146-2.147 2.146a.5.5 0 0 0 .708.708l2.146-2.147 2.146 2.147a.5.5 0 0 0 .708-.708L13.207 12.5l2.147-2.146a.5.5 0 0 0-.708-.708L12.5 11.793l-2.146-2.147"/></svg>