<svg xmlns="http://www.w3.org/2000/svg" fill="none" viewBox="0 0 12 12"><path fill="#0E1011" d="M4.854 4.146a.5.5 0 1 0-.708.708L5.293 6 4.146 7.146a.5.5 0 1 0 .708.708L6 6.707l1.146 1.147a.5.5 0 1 0 .708-.708L6.707 6l1.147-1.146a.5.5 0 1 0-.708-.708L6 5.293 4.854 4.146Z"/><path fill="#0E1011" fill-rule="evenodd" d="M1 3a2 2 0 0 1 2-2h6a2 2 0 0 1 2 2v6a2 2 0 0 1-2 2H3a2 2 0 0 1-2-2V3Zm2-1.25h6c.69 0 1.25.56 1.25 1.25v6c0 .69-.56 1.25-1.25 1.25H3c-.69 0-1.25-.56-1.25-1.25V3c0-.69.56-1.25 1.25-1.25Z" clip-rule="evenodd"/></svg>