<svg xmlns="http://www.w3.org/2000/svg" fill="none" viewBox="0 0 12 12"><path fill="#0E1011" fill-rule="evenodd" d="M5 3a1 1 0 1 1 2 0 1 1 0 0 1-2 0Zm1-.5a.5.5 0 1 0 0 1 .5.5 0 0 0 0-1ZM8 8a2 2 0 1 1-4 0 2 2 0 0 1 4 0Zm-.5 0a1.5 1.5 0 1 1-3 0 1.5 1.5 0 0 1 3 0Z" clip-rule="evenodd"/><path fill="#0E1011" fill-rule="evenodd" d="M3 0a2 2 0 0 0-2 2v8a2 2 0 0 0 2 2h6a2 2 0 0 0 2-2V2a2 2 0 0 0-2-2H3Zm6 .75H3c-.69 0-1.25.56-1.25 1.25v8c0 .69.56 1.25 1.25 1.25h6c.69 0 1.25-.56 1.25-1.25V2c0-.69-.56-1.25-1.25-1.25Z" clip-rule="evenodd"/></svg>