<svg xmlns="http://www.w3.org/2000/svg" fill="none" viewBox="0 0 16 16"><path fill="#0E1011" d="M8 0C6.64 0 5.439.679 4.716 1.716l6.93 6.93C11.875 8.144 12 7.586 12 7V4a4 4 0 0 0-4-4M4 4.707V7a4 4 0 0 0 5.844 3.55l1 1A3.982 3.982 0 0 1 9 12H7a4 4 0 0 1-4-4v-.25a.5.5 0 0 0-1 0V8a5 5 0 0 0 5 5h.5v2H6a.5.5 0 0 0 0 1h4a.5.5 0 0 0 0-1H8.5v-2H9c.943 0 1.825-.261 2.578-.715l3.318 3.319a.5.5 0 0 0 .708-.708L1.104.396a.5.5 0 1 0-.708.708L4 4.707M14 8c0 .866-.22 1.681-.608 2.392l-.745-.746C12.874 9.144 13 8.586 13 8v-.25a.5.5 0 0 1 1 0z"/></svg>