<svg xmlns="http://www.w3.org/2000/svg" fill="none" viewBox="0 0 12 12"><path fill="#0E1011" fill-rule="evenodd" d="M1.125 1.5C.504 1.5 0 2.004 0 2.625V9a1.5 1.5 0 0 0 1.5 1.5h4.692A3.375 3.375 0 0 1 12 7.253V3.75a1.5 1.5 0 0 0-1.5-1.5H6.091a.75.75 0 0 1-.53-.22l-.091-.09a1.5 1.5 0 0 0-1.061-.44H1.125Zm4.39 1.765a.375.375 0 0 0-.53-.53l-.046.045a.75.75 0 0 1-.53.22H1.125a.375.375 0 1 0 0 .75h3.284a1.5 1.5 0 0 0 1.06-.44l.046-.045Z" clip-rule="evenodd"/><path fill="#0E1011" fill-rule="evenodd" d="M12 9.375a2.625 2.625 0 1 1-5.25 0 2.625 2.625 0 0 1 5.25 0ZM9.375 7.5c.207 0 .375.168.375.375V9h1.125a.375.375 0 0 1 0 .75H9.75v1.313a.375.375 0 0 1-.75 0V9.75H7.875a.375.375 0 1 1 0-.75H9V7.875c0-.207.168-.375.375-.375Z" clip-rule="evenodd"/></svg>