<svg xmlns="http://www.w3.org/2000/svg" fill="none" viewBox="0 0 16 16"><path fill="#0E1011" fill-rule="evenodd" d="M15.294 8A7.3 7.3 0 1 1 .695 8a7.3 7.3 0 0 1 14.6 0Zm-2.34 3.886a6.289 6.289 0 0 1-5.091 2.412l3.224-5.586 1.77 3.065c.025.044.058.08.097.109Zm.43-.622L10.16 5.682H13.7c.05 0 .099-.01.142-.03.292.726.452 1.518.452 2.348a6.27 6.27 0 0 1-.91 3.264Zm.135-6.294H7.073l1.77-3.065a.355.355 0 0 0 .046-.142 6.304 6.304 0 0 1 4.63 3.207ZM8.137 1.702A6.288 6.288 0 0 0 3.04 4.109c.04.03.076.067.103.113l1.77 3.065 3.224-5.585ZM2.611 4.727A6.27 6.27 0 0 0 1.695 8c0 .831.161 1.625.454 2.351a.354.354 0 0 1 .151-.034h3.54L2.61 4.728Zm-.14 6.303a6.304 6.304 0 0 0 4.64 3.208.355.355 0 0 1 .046-.143l1.77-3.065H2.47Zm6.867-5.348L10.676 8l-1.338 2.317H6.662L5.324 8l1.338-2.318h2.676Z" clip-rule="evenodd"/></svg>