<svg xmlns="http://www.w3.org/2000/svg" fill="none" viewBox="0 0 16 16"><path fill="#0E1011" fill-rule="evenodd" d="M8 16a6 6 0 0 1-6-6C2 5.86 3.27 2.99 6.976.61 7.3.405 7.64.2 8 0c-.05.403-.03.775.048 1.125.297 1.332 1.428 2.326 2.625 3.378C12.277 5.912 14 7.426 14 10a6 6 0 0 1-6 6m1.448-1.213A4.998 4.998 0 0 1 8 15c-.503 0-.99-.074-1.448-.213A2.295 2.295 0 0 1 5.7 13c0-1.048.175-1.853.563-2.525.269-.466.66-.902 1.224-1.32.085.192.192.369.312.533.3.41.71.769 1.062 1.077l.083.073c.802.706 1.356 1.264 1.356 2.162 0 .722-.332 1.366-.852 1.787m1.317-.62A2.99 2.99 0 0 0 11 13c0-1.287-.861-2.044-1.663-2.749-.538-.472-1.049-.921-1.255-1.49A1.607 1.607 0 0 1 8 8c-.253.14-.487.285-.704.432C5.591 9.597 5 11.003 5 13c0 .414.084.808.235 1.167A4.995 4.995 0 0 1 3 10c0-2.14.357-3.825 1.179-5.25.637-1.106 1.589-2.113 2.985-3.065.168.534.435 1.016.756 1.454.575.782 1.362 1.473 2.072 2.097l.16.14C11.744 6.776 13 8.002 13 10c0 1.74-.888 3.271-2.235 4.167" clip-rule="evenodd"/></svg>