<svg xmlns="http://www.w3.org/2000/svg" fill="none" viewBox="0 0 12 12"><path fill="#0E1011" fill-rule="evenodd" d="M7 4 5 2l2-2v1.625h1c1.036 0 1.875.84 1.875 1.875v4.63a1.875 1.875 0 0 1-.125 3.745h-.5a1.875 1.875 0 0 1-.125-3.746V3.5c0-.621-.504-1.125-1.125-1.125H7V4Zm2.25 4.875a1.125 1.125 0 0 0 0 2.25h.5a1.125 1.125 0 0 0 0-2.25h-.5ZM2.25.125a1.875 1.875 0 0 0-.125 3.746v5.306a1.376 1.376 0 1 0 .75 0V3.87A1.875 1.875 0 0 0 2.75.125h-.5ZM1.875 10.5a.625.625 0 1 1 1.25 0 .625.625 0 0 1-1.25 0Zm.875-7.375a1.125 1.125 0 0 0 0-2.25h-.5a1.125 1.125 0 0 0 0 2.25h.5Z" clip-rule="evenodd"/></svg>