<svg xmlns="http://www.w3.org/2000/svg" fill="none" viewBox="0 0 12 12"><path fill="#0E1011" d="M9.11 4.467a.357.357 0 1 0-.505-.505L5.285 7.28 3.754 5.747a.357.357 0 0 0-.506.506l1.786 1.785c.14.14.366.14.505 0L9.11 4.467Z"/><path fill="#0E1011" fill-rule="evenodd" d="M2.607 1C1.72 1 1 1.72 1 2.607v6.786C1 10.28 1.72 11 2.607 11h6.786C10.28 11 11 10.28 11 9.393V2.607C11 1.72 10.28 1 9.393 1H2.607Zm-.893 1.607c0-.493.4-.893.893-.893h6.786c.493 0 .893.4.893.893v6.786c0 .493-.4.893-.893.893H2.607a.893.893 0 0 1-.893-.893V2.607Z" clip-rule="evenodd"/></svg>