<svg xmlns="http://www.w3.org/2000/svg" fill="none" viewBox="0 0 16 16"><path fill="#0E1011" d="M15.905 6.089A10.475 10.475 0 0 0 8 2.5C4.847 2.5 2.02 3.89.095 6.089l.73.684A9.478 9.478 0 0 1 8 3.5a9.478 9.478 0 0 1 7.175 3.273l.73-.684"/><path fill="#0E1011" d="M13.715 8.143A7.484 7.484 0 0 0 8 5.5a7.483 7.483 0 0 0-5.715 2.643l.73.684A6.486 6.486 0 0 1 8 6.5c2.001 0 3.792.905 4.984 2.327l.73-.684"/><path fill="#0E1011" d="M11.522 10.198A4.492 4.492 0 0 0 8 8.5a4.492 4.492 0 0 0-3.522 1.698l.733.687A3.494 3.494 0 0 1 8 9.5c1.138 0 2.15.543 2.789 1.385l.733-.687"/><path fill="#0E1011" d="M9.684 11.921a1.998 1.998 0 0 0-3.368 0L8 13.5l1.684-1.579"/></svg>