<svg xmlns="http://www.w3.org/2000/svg" fill="none" viewBox="0 0 16 16"><path fill="#0E1011" fill-rule="evenodd" d="M1.758 1.407C2.208 1.188 2.912 1 4 1c1.073 0 2.589.255 4.043.5l.04.007C9.585 1.76 11.021 2 12 2c1.01 0 1.601-.07 1.928-.134a2.026 2.026 0 0 0 .326-.087.5.5 0 0 1 .746.435v8.572a.5.5 0 0 1-.277.447l-.223-.447.223.447-.002.001-.002.001-.005.003-.016.008a5.388 5.388 0 0 1-.268.116c-.181.072-.441.167-.768.261A9.65 9.65 0 0 1 11 12c-1.082 0-2.356-.258-3.564-.503L7.4 11.49C6.15 11.237 4.97 11 4 11c-1.01 0-1.602.07-1.928.134a3.72 3.72 0 0 0-.072.014V14.5a.5.5 0 0 1-1 0V2.214a.5.5 0 0 1 .074-.26l.426.26c-.426-.26-.426-.261-.426-.262l.002-.002.002-.004.006-.009a.708.708 0 0 1 .052-.07c.03-.038.073-.083.127-.133.11-.1.27-.217.495-.327ZM2 2.422v7.708c.413-.07 1.044-.13 2-.13 1.082 0 2.356.258 3.564.503l.035.007c1.25.253 2.43.49 3.401.49a8.65 8.65 0 0 0 2.384-.337 7.35 7.35 0 0 0 .616-.207V2.87c-.413.07-1.044.13-2 .13-1.073 0-2.589-.255-4.043-.5l-.04-.007C6.415 2.24 4.979 2 4 2c-.975 0-1.521.169-1.805.307-.087.042-.15.082-.195.115Z" clip-rule="evenodd"/></svg>