<svg xmlns="http://www.w3.org/2000/svg" fill="none" viewBox="0 0 12 12"><path fill="#0E1011" d="M2.75 5.5a.75.75 0 0 1 .75-.75h1a.25.25 0 0 0 0-.5h-1c-.69 0-1.25.56-1.25 1.25v1a.25.25 0 0 0 .5 0v-1Z"/><path fill="#0E1011" fill-rule="evenodd" d="M3.235.235a.375.375 0 0 1 .53 0l1.5 1.5c.073.073.11.169.11.265h1.25c0-.096.037-.192.11-.265l1.5-1.5a.375.375 0 0 1 .53.53L7.53 2H10a2 2 0 0 1 2 2v5a2 2 0 0 1-2 2H2a2 2 0 0 1-2-2V4a2 2 0 0 1 2-2h2.47L3.235.765a.375.375 0 0 1 0-.53ZM10 2.75H2C1.31 2.75.75 3.31.75 4v5c0 .69.56 1.25 1.25 1.25h8c.69 0 1.25-.56 1.25-1.25V4c0-.69-.56-1.25-1.25-1.25Z" clip-rule="evenodd"/></svg>