<svg xmlns="http://www.w3.org/2000/svg" fill="none" viewBox="0 0 16 16"><path fill="#0E1011" fill-rule="evenodd" d="M8 5a3 3 0 1 0 0 6 3 3 0 0 0 0-6ZM5.875 7.75c0-1.036.84-1.875 1.875-1.875H8v.75h-.25c-.621 0-1.125.504-1.125 1.125V8h-.75v-.25Z" clip-rule="evenodd"/><path fill="#0E1011" fill-rule="evenodd" d="M5.707 1A1 1 0 0 0 5 1.293L4.293 2H2.25A2.25 2.25 0 0 0 0 4.25v7.5A2.25 2.25 0 0 0 2.25 14h11.5A2.25 2.25 0 0 0 16 11.75v-7.5A2.25 2.25 0 0 0 13.75 2h-2.043L11 1.293A1 1 0 0 0 10.293 1H5.707ZM4 8a4 4 0 1 1 8 0 4 4 0 0 1-8 0Z" clip-rule="evenodd"/></svg>