<svg xmlns="http://www.w3.org/2000/svg" fill="none" viewBox="0 0 16 16"><path fill="#0E1011" d="M4.5 6.125a.375.375 0 1 0 0 .75h3a.375.375 0 1 0 0-.75zM4.5 8.125a.375.375 0 1 0 0 .75h7a.375.375 0 0 0 0-.75zM4.5 10.125a.375.375 0 0 0 0 .75h7a.375.375 0 0 0 0-.75zM4.5 12.125a.375.375 0 0 0 0 .75h5a.375.375 0 0 0 0-.75z"/><path fill="#0E1011" fill-rule="evenodd" d="M9.75 0H4a2 2 0 0 0-2 2v12a2 2 0 0 0 2 2h8a2 2 0 0 0 2-2V4.25zM4 15h8a1 1 0 0 0 1-1V5h-2.5A1.5 1.5 0 0 1 9 3.5V1H4a1 1 0 0 0-1 1v12a1 1 0 0 0 1 1m6-13.336L12.336 4H10.5a.5.5 0 0 1-.5-.5V1.664Z" clip-rule="evenodd"/></svg>