<svg xmlns="http://www.w3.org/2000/svg" fill="none" viewBox="0 0 16 16"><path fill="#0E1011" fill-rule="evenodd" d="M.854.146a.5.5 0 1 0-.707.708L2.453 3.16A6 6 0 0 0 6 14h6c.393 0 .772-.057 1.131-.162l2.016 2.016a.5.5 0 0 0 .707-.708l-15-15ZM12.28 12.987l-9.11-9.11A5 5 0 0 0 6 13h6c.095 0 .188-.004.28-.013Z" clip-rule="evenodd"/><path fill="#0E1011" d="M16 10c0 .85-.265 1.636-.716 2.284l-.722-.722a3 3 0 0 0-2.815-4.551l-.771.064-.256-.73A5.002 5.002 0 0 0 6 3l-.929-.929a6.002 6.002 0 0 1 6.592 3.943A4 4 0 0 1 16 10Z"/></svg>