<svg xmlns="http://www.w3.org/2000/svg" fill="none" viewBox="0 0 12 12"><path fill="#0E1011" fill-rule="evenodd" d="M.125 2.5c0-.76.616-1.375 1.375-1.375h3.155l1 1h4.673c.898 0 1.625.728 1.625 1.625V5.5a.375.375 0 0 1-.75 0V3.75a.875.875 0 0 0-.875-.875H5.655l-1 1H.875V9.25c0 .483.392.875.875.875H5.5a.375.375 0 0 1 0 .75H1.75A1.625 1.625 0 0 1 .125 9.25V2.5Zm4.22-.625.625.625-.625.625H.875V2.5c0-.345.28-.625.625-.625h2.845Z" clip-rule="evenodd"/><path fill="#0E1011" fill-rule="evenodd" d="M12 9.5a2.5 2.5 0 1 1-5 0 2.5 2.5 0 0 1 5 0ZM9.5 7.6c.22 0 .4.18.4.4v1.1H11a.4.4 0 0 1 0 .8H9.9V11a.4.4 0 0 1-.8 0V9.9H8a.4.4 0 0 1 0-.8h1.1V8c0-.22.18-.4.4-.4Z" clip-rule="evenodd"/></svg>