<svg xmlns="http://www.w3.org/2000/svg" fill="none" viewBox="0 0 12 12"><path fill="#0E1011" fill-rule="evenodd" d="M5.49 6.643A5.52 5.52 0 0 0 5.412 6C5.131 4.425 4.185 3.28 2.95 2.727a4.348 4.348 0 0 0-1.783-.376c.549.394.897.787 1.099 1.18v.001A2.085 2.085 0 0 1 2.5 4.5v.011a2.75 2.75 0 1 0 3 2.77V7.22c-.001-.074-.005-.148-.011-.22h.01l-.086-1 .087.999c0-.12-.004-.239-.01-.356ZM3.5 4.5c0-.067-.002-.133-.006-.199.426.432.746 1.004.901 1.704l.098 1.085A1.75 1.75 0 1 1 2.59 5.507l.912-.082-.002-.916V4.5ZM11.99 6.643A5.548 5.548 0 0 0 11.912 6c-.282-1.575-1.228-2.719-2.463-3.273a4.348 4.348 0 0 0-1.783-.376c.549.394.897.787 1.099 1.18v.001A2.085 2.085 0 0 1 9 4.5v.011a2.75 2.75 0 1 0 3 2.77V7.22a2.8 2.8 0 0 0-.011-.22h.01l-.086-1 .087.999c0-.12-.004-.239-.01-.356ZM10 4.5c0-.067-.002-.133-.006-.199.426.432.746 1.004.901 1.704l.098 1.085A1.75 1.75 0 1 1 9.09 5.507l.912-.082L10 4.509V4.5Z" clip-rule="evenodd"/></svg>