<svg xmlns="http://www.w3.org/2000/svg" fill="none" viewBox="0 0 16 16"><path fill="#0E1011" d="M5.146 5.146a.5.5 0 0 1 .708 0L8 7.293l2.146-2.147a.5.5 0 0 1 .708.708L8.707 8l2.147 2.146a.5.5 0 0 1-.708.708L8 8.707l-2.146 2.147a.5.5 0 0 1-.708-.708L7.293 8 5.146 5.854a.5.5 0 0 1 0-.708"/><path fill="#0E1011" fill-rule="evenodd" d="m11.003.75 4.247 4.247v6.006l-4.247 4.247H4.997L.75 11.003V4.997L4.997.75h6.006Zm-5.592 1h5.178L14.25 5.41v5.178l-3.661 3.66H5.41L1.75 10.59V5.41L5.411 1.75Z" clip-rule="evenodd"/></svg>