<svg xmlns="http://www.w3.org/2000/svg" fill="none" viewBox="0 0 12 12"><path fill="#0E1011" fill-rule="evenodd" d="M12 1.125a.375.375 0 0 0-.514-.348L7.875 2.22 4.265.777a.375.375 0 0 0-.28 0l-3.75 1.5A.375.375 0 0 0 0 2.625V11a.375.375 0 0 0 .524.344l3.601-1.56 3.6 1.56a.375.375 0 0 0 .3 0l3.75-1.625A.375.375 0 0 0 12 9.375v-8.25Zm-7.875.469c.155 0 .281.126.281.281v6.75a.281.281 0 0 1-.562 0v-6.75c0-.155.126-.281.281-.281Zm3.75 1.5c.155 0 .281.126.281.281v6.75a.281.281 0 1 1-.562 0v-6.75c0-.155.126-.281.281-.281Z" clip-rule="evenodd"/></svg>