<svg xmlns="http://www.w3.org/2000/svg" fill="none" viewBox="0 0 16 16"><path fill="#0E1011" fill-rule="evenodd" d="M0 6.5A5.5 5.5 0 0 1 5.5 1h5A5.5 5.5 0 0 1 16 6.5v1a5.5 5.5 0 0 1-5.5 5.5h-5c-.252 0-.5-.017-.743-.05L2 15.707v-3.964A5.49 5.49 0 0 1 0 7.5zM5.5 2A4.5 4.5 0 0 0 1 6.5v1c0 1.472.706 2.779 1.8 3.6l.2.15v2.043l1.416-1.416.259.048c.267.05.543.075.825.075h5A4.5 4.5 0 0 0 15 7.5v-1A4.5 4.5 0 0 0 10.5 2z" clip-rule="evenodd"/><path fill="#0E1011" d="M1 6.5A4.5 4.5 0 0 1 5.5 2h5A4.5 4.5 0 0 1 15 6.5v1a4.5 4.5 0 0 1-4.5 4.5h-5c-.282 0-.558-.026-.825-.075l-.259-.048L3 13.293V11.25l-.2-.15A4.493 4.493 0 0 1 1 7.5z"/></svg>