<svg xmlns="http://www.w3.org/2000/svg" fill="none" viewBox="0 0 12 12"><path fill="#0E1011" d="M6 7.8a1.8 1.8 0 0 1-1.559-.9l-.019-.032a1.8 1.8 0 1 1 3.135.036l-.007.013A1.8 1.8 0 0 1 6 7.8Z"/><path fill="#0E1011" fill-rule="evenodd" d="M12 6A6 6 0 1 1 0 6a6 6 0 0 1 12 0ZM2.152 2.922a.375.375 0 1 0-.65.374L3.765 7.23a2.55 2.55 0 0 0 2.916 1.23l-1.37 2.433a.375.375 0 1 0 .653.368l2.233-3.963c.224-.38.353-.824.353-1.297 0-.703-.284-1.339-.744-1.8h2.781a.375.375 0 0 0 0-.75H6A2.551 2.551 0 0 0 3.538 5.33L2.152 2.922Z" clip-rule="evenodd"/></svg>