<svg xmlns="http://www.w3.org/2000/svg" fill="none" viewBox="0 0 16 16"><path fill="#0E1011" fill-rule="evenodd" d="M1.121 1.146a.5.5 0 0 1 .707 0l2.44 2.44 2.338 2.312 3.435 3.435c.042.023.08.052.115.086l2.285 2.285a.5.5 0 0 1 .087.116l2.326 2.326a.5.5 0 0 1-.708.708l-2.133-2.133C10.904 13.458 9.558 14 8 14c-2.588 0-4.586-1.49-5.906-2.91A14.017 14.017 0 0 1 .19 8.48a8.32 8.32 0 0 1-.127-.237l-.008-.014-.002-.005v-.001L.5 8a91.22 91.22 0 0 1-.448-.222v-.001l.002-.003.003-.006.012-.024.046-.088a13.851 13.851 0 0 1 .856-1.365c.516-.724 1.25-1.614 2.191-2.396l-2.04-2.041a.5.5 0 0 1 0-.708m2.754 3.458c-.888.722-1.591 1.568-2.089 2.267A12.85 12.85 0 0 0 1.067 8a13.011 13.011 0 0 0 1.76 2.41C4.062 11.74 5.814 13 8 13c1.25 0 2.356-.41 3.309-1.014l-1.53-1.53A3 3 0 0 1 5.57 6.28L3.874 4.604m2.417 2.395a2 2 0 0 0 2.75 2.75l-2.75-2.75M.5 8l-.448-.222a.502.502 0 0 0 0 .445L.5 8ZM8 3c-.655 0-1.268.113-1.84.305a.5.5 0 0 1-.32-.947A6.728 6.728 0 0 1 8 2c2.588 0 4.586 1.49 5.906 2.91a14.007 14.007 0 0 1 1.904 2.61 8.027 8.027 0 0 1 .127.237l.008.014.002.005v.002L15.5 8l.448.222-.001.002-.002.004-.007.013a5.334 5.334 0 0 1-.115.217 14.136 14.136 0 0 1-1.729 2.427.5.5 0 1 1-.747-.666A13.148 13.148 0 0 0 14.933 8a13.019 13.019 0 0 0-1.76-2.41C11.938 4.26 10.186 3 8 3m7.5 5 .448.222a.501.501 0 0 0 0-.444z" clip-rule="evenodd"/></svg>