<svg xmlns="http://www.w3.org/2000/svg" fill="none" viewBox="0 0 16 16"><path fill="#0E1011" fill-rule="evenodd" d="M3 1a2 2 0 0 0-2 2v10a2 2 0 0 0 2 2h10a2 2 0 0 0 2-2V3a2 2 0 0 0-2-2H3Zm0 2.25A.25.25 0 0 1 3.25 3H5a.5.5 0 0 0 0-1H3.25C2.56 2 2 2.56 2 3.25V5a.5.5 0 0 0 1 0V3.25ZM11 2a.5.5 0 0 0 0 1h1.75a.25.25 0 0 1 .25.25V5a.5.5 0 0 0 1 0V3.25C14 2.56 13.44 2 12.75 2H11Zm-8 9a.5.5 0 0 0-1 0v1.75c0 .69.56 1.25 1.25 1.25H5a.5.5 0 0 0 0-1H3.25a.25.25 0 0 1-.25-.25V11Zm11 0a.5.5 0 0 0-1 0v1.75a.25.25 0 0 1-.25.25H11a.5.5 0 0 0 0 1h1.75c.69 0 1.25-.56 1.25-1.25V11ZM3.5 7.5a.5.5 0 0 0 0 1h9a.5.5 0 0 0 0-1h-9ZM6.05 6a.05.05 0 0 0-.05.05v.45a.5.5 0 0 1-1 0v-.45C5 5.47 5.47 5 6.05 5h3.9c.58 0 1.05.47 1.05 1.05v.45a.5.5 0 0 1-1 0v-.45A.05.05 0 0 0 9.95 6h-3.9ZM5.5 9a.5.5 0 0 1 .5.5v.45c0 .028.022.05.05.05h3.9a.05.05 0 0 0 .05-.05V9.5a.5.5 0 0 1 1 0v.45c0 .58-.47 1.05-1.05 1.05h-3.9C5.47 11 5 10.53 5 9.95V9.5a.5.5 0 0 1 .5-.5Z" clip-rule="evenodd"/></svg>