<svg xmlns="http://www.w3.org/2000/svg" fill="none" viewBox="0 0 12 12"><path fill="#0E1011" fill-rule="evenodd" d="M6.016 7a2.625 2.625 0 1 0 0-5.25 2.625 2.625 0 0 0 0 5.25Zm1.875-2.625a1.875 1.875 0 1 1-3.75 0 1.875 1.875 0 0 1 3.75 0Z" clip-rule="evenodd"/><path fill="#0E1011" fill-rule="evenodd" d="M10.313 10.171A6 6 0 1 0 1.687 1.83a6 6 0 0 0 8.626 8.342ZM6.068 11.25H6c-1.339 0-2.56-.5-3.488-1.326l.108-.753a.89.89 0 0 1 .882-.765h.696l.749.375a2.39 2.39 0 0 0 2.138 0l.749-.375h.697a.89.89 0 0 1 .881.765l.104.727a5.23 5.23 0 0 1-3.448 1.352Zm4.104-2.063-.017-.122A1.64 1.64 0 0 0 8.53 7.656h-.874l-.907.454a1.64 1.64 0 0 1-1.468 0l-.907-.454h-.873c-.817 0-1.51.6-1.625 1.409l-.022.157a5.25 5.25 0 1 1 8.317-.035Z" clip-rule="evenodd"/></svg>